<svg xmlns="http://www.w3.org/2000/svg" xmlns:xlink="http://www.w3.org/1999/xlink" xmlns:lucid="lucid" width="1120" height="540"><g transform="translate(-160 -220)" lucid:page-tab-id="N8Ik1qNkG-RR"><path d="M0 0h1360v1760H0z" fill="#fff"/><path d="M380 320h100v60H380z" stroke="#000" stroke-opacity="0" stroke-width="2" fill="#fff" fill-opacity="0"/><use xlink:href="#a" transform="matrix(1,0,0,1,385,325) translate(13.549999999999997 30.025)"/><path d="M480 280h540v460H480z" stroke="#0c7cba" stroke-width="2" fill="#99d2f2"/><use xlink:href="#b" transform="matrix(1,0,0,1,492,292) translate(358.25 432.0665139199999)"/><use xlink:href="#c" transform="matrix(1,0,0,1,492,292) translate(401.15 432.0665139199999)"/><use xlink:href="#d" transform="matrix(1,0,0,1,492,292) translate(457.1 432.0665139199999)"/><path d="M500 240h160v60H500z" stroke="#0c7cba" stroke-width="2" fill="#ddf0fb"/><use xlink:href="#b" transform="matrix(1,0,0,1,512,252) translate(21.074999999999996 14.4)"/><use xlink:href="#e" transform="matrix(1,0,0,1,512,252) translate(63.975 14.4)"/><use xlink:href="#f" transform="matrix(1,0,0,1,512,252) translate(32.525 36)"/><path d="M500 340h160v60H500z" stroke="#0c7cba" stroke-width="2" fill="#ddf0fb"/><use xlink:href="#g" transform="matrix(1,0,0,1,512,352) translate(18.049999999999997 14.4)"/><use xlink:href="#h" transform="matrix(1,0,0,1,512,352) translate(87.95 14.4)"/><use xlink:href="#i" transform="matrix(1,0,0,1,512,352) translate(15.549999999999997 36)"/><path d="M500 540h160v180H500z" stroke="#0c7cba" stroke-width="2" fill="#e5e5e5"/><use xlink:href="#b" transform="matrix(1,0,0,1,512,552) translate(12.099999999999994 14.4)"/><use xlink:href="#j" transform="matrix(1,0,0,1,512,552) translate(55 14.4)"/><use xlink:href="#k" transform="matrix(1,0,0,1,512,552) translate(51.025 36)"/><path d="M600 600h160v40H600z" stroke="#0c7cba" stroke-width="2" fill="#b2b2b2"/><use xlink:href="#b" transform="matrix(1,0,0,1,612,612) translate(16.599999999999994 14.4)"/><use xlink:href="#l" transform="matrix(1,0,0,1,612,612) translate(59.5 14.4)"/><path d="M600 660h160v40H600z" stroke="#0c7cba" stroke-width="2" fill="#b2b2b2"/><use xlink:href="#b" transform="matrix(1,0,0,1,612,672) translate(16.599999999999994 14.4)"/><use xlink:href="#l" transform="matrix(1,0,0,1,612,672) translate(59.5 14.4)"/><path d="M760 300h240v40H760z" stroke="#0c7cba" stroke-width="2" fill="#ddf0fb"/><use xlink:href="#m" transform="matrix(1,0,0,1,772,312) translate(50.574999999999996 14.4)"/><use xlink:href="#n" transform="matrix(1,0,0,1,772,312) translate(96.525 14.4)"/><path d="M760 350h240v40H760z" stroke="#0c7cba" stroke-width="2" fill="#ddf0fb"/><use xlink:href="#o" transform="matrix(1,0,0,1,772,362) translate(18.625 14.4)"/><use xlink:href="#n" transform="matrix(1,0,0,1,772,362) translate(128.47500000000002 14.4)"/><path d="M760 400h240v40H760z" stroke="#0c7cba" stroke-width="2" fill="#ddf0fb"/><use xlink:href="#p" transform="matrix(1,0,0,1,772,412) translate(29.14999999999999 14.4)"/><use xlink:href="#n" transform="matrix(1,0,0,1,772,412) translate(117.95 14.4)"/><path d="M661.9 369.55l80.62-41.14" stroke="#0c7cba" stroke-width="2" fill="none"/><path d="M662.37 370.42l-1.37.7v-2.24l.46-.24z" stroke="#0c7cba" stroke-width=".05" fill="#0c7cba"/><path d="M756.12 321.47l-10.6 10.6-4.22-8.24z" stroke="#0c7cba" stroke-width="2" fill="#0c7cba"/><path d="M662 370h78.5" stroke="#0c7cba" stroke-width="2" fill="none"/><path d="M662.03 371H661v-2h1.03z" stroke="#0c7cba" stroke-width=".05" fill="#0c7cba"/><path d="M755.76 370l-14.26 4.64v-9.28z" stroke="#0c7cba" stroke-width="2" fill="#0c7cba"/><path d="M661.9 370.45l80.62 41.14" stroke="#0c7cba" stroke-width="2" fill="none"/><path d="M662.37 369.58l-.9 1.78-.47-.24v-2.24z" stroke="#0c7cba" stroke-width=".05" fill="#0c7cba"/><path d="M756.12 418.53l-14.82-2.36 4.22-8.25z" stroke="#0c7cba" stroke-width="2" fill="#0c7cba"/><path d="M580 302v18.5" stroke="#000" stroke-width="2" fill="none"/><path d="M581 302.03h-2V301h2z" stroke="#000" stroke-width=".05"/><path d="M580 335.76l-4.64-14.26h9.28z" stroke="#000" stroke-width="2"/><path d="M580 402v18.5" stroke="#000" stroke-width="2" fill="none"/><path d="M581 402.03h-2V401h2z" stroke="#000" stroke-width=".05"/><path d="M580 435.76l-4.64-14.26h9.28z" stroke="#000" stroke-width="2"/><path d="M1090 684c-16.57 0-30-10.75-30-24 0-10.6 8.12-19.55 20.73-22.83C1080 606 1130 600 1150 612c10-18 60-12 60 6 30-6 60 18 40 48 20 24 0 54-40 42-10 15.6-50 15.6-60 0-20 12-60 6-60-24z" stroke="#000" stroke-width="2" fill="#ccc"/><use xlink:href="#q" transform="matrix(1,0,0,1,1065,605) translate(20.579999999999995 41.9)"/><use xlink:href="#r" transform="matrix(1,0,0,1,1065,605) translate(91.48 41.9)"/><use xlink:href="#s" transform="matrix(1,0,0,1,1065,605) translate(3.079999999999993 63.5)"/><use xlink:href="#t" transform="matrix(1,0,0,1,1065,605) translate(82.03 63.5)"/><use xlink:href="#u" transform="matrix(1,0,0,1,1065,605) translate(155.93 63.5)"/><path d="M762 680h291.03" stroke="#000" stroke-width="2" fill="none"/><path d="M762.03 681H761v-2h1.03z" stroke="#000" stroke-width=".05"/><path d="M1068.3 680l-14.27 4.64v-9.28z" stroke="#000" stroke-width="2"/><path d="M762 620h305.1" stroke="#000" stroke-width="2" fill="none"/><path d="M762.03 621H761v-2h1.03z" stroke="#000" stroke-width=".05"/><path d="M1082.37 620l-14.27 4.64v-9.28z" stroke="#000" stroke-width="2"/><path d="M500 440h160v60H500z" stroke="#0c7cba" stroke-width="2" fill="#ddf0fb"/><use xlink:href="#v" transform="matrix(1,0,0,1,512,452) translate(13.524999999999999 21.15)"/><use xlink:href="#w" transform="matrix(1,0,0,1,512,452) translate(55.525 21.15)"/><path d="M180 357.7h200v120H180z" stroke="#0c7cba" stroke-width="2" fill="#99d2f2"/><use xlink:href="#x" transform="matrix(1,0,0,1,192,369.7083240563145) translate(2.299999999999983 93.38419200000001)"/><use xlink:href="#y" transform="matrix(1,0,0,1,192,369.7083240563145) translate(49.149999999999984 93.38419200000001)"/><use xlink:href="#d" transform="matrix(1,0,0,1,192,369.7083240563145) translate(117.1 93.38419200000001)"/><path d="M477.5 375.97h-4.55m-6.07 0h-9.1m-6.08 0h-9.1m-6.08 0h-9.1m-6.07 0h-9.1m-6.08 0h-4.55" stroke="#000" stroke-width="3" fill="none"/><path d="M479 377.47h-1.54v-3H479z" stroke="#000" stroke-width=".05"/><path d="M385.85 375.97l14.27-4.64v9.27z" stroke="#000" stroke-width="3"/><path d="M180 580h200v120H180z" stroke="#999" stroke-width="2" fill="#e5e5e5"/><g><use xlink:href="#q" transform="matrix(1,0,0,1,192,592) translate(2.674999999999997 50.4)"/><use xlink:href="#z" transform="matrix(1,0,0,1,192,592) translate(73.575 50.4)"/><use xlink:href="#A" transform="matrix(1,0,0,1,192,592) translate(120.425 50.4)"/></g><path d="M580 502v18.5" stroke="#000" stroke-width="2" fill="none"/><path d="M581 502.03h-2V501h2z" stroke="#000" stroke-width=".05"/><path d="M580 535.76l-4.64-14.26h9.28z" stroke="#000" stroke-width="2"/><path d="M498.3 470.7L394.07 574.93" stroke="#000" stroke-width="2" fill="none"/><path d="M499 471.4l-.02.03-1.4-1.4 1.42-1.44z" stroke="#000" stroke-width=".05"/><path d="M383.3 585.7l6.8-13.35 6.55 6.55z" stroke="#000" stroke-width="2"/><path d="M598 620H399.5" stroke="#000" stroke-width="2" fill="none"/><path d="M599 621h-1.03v-2H599z" stroke="#000" stroke-width=".05"/><path d="M384.24 620l14.26-4.64v9.28z" stroke="#000" stroke-width="2"/><path d="M598 680H399.5" stroke="#000" stroke-width="2" fill="none"/><path d="M599 681h-1.03v-2H599z" stroke="#000" stroke-width=".05"/><path d="M384.24 680l14.26-4.64v9.28z" stroke="#000" stroke-width="2"/><path d="M498.1 469.6L397.9 425.2" stroke="#000" stroke-width="2" fill="none"/><path d="M499 468.9v2.2l-1.34-.6.8-1.83z" stroke="#000" stroke-width=".05"/><path d="M383.96 419.02l14.92 1.54-3.76 8.48z" stroke="#000" stroke-width="2"/><defs><path d="M100-194c62-1 85 37 85 99 1 63-27 99-86 99S16-35 15-95c0-66 28-99 85-99zM99-20c44 1 53-31 53-75 0-43-8-75-51-75s-53 32-53 75 10 74 51 75" id="B"/><path d="M115-194c55 1 70 41 70 98S169 2 115 4C84 4 66-9 55-30l1 105H24l-1-265h31l2 30c10-21 28-34 59-34zm-8 174c40 0 45-34 45-75s-6-73-45-74c-42 0-51 32-51 76 0 43 10 73 51 73" id="C"/><path d="M59-47c-2 24 18 29 38 22v24C64 9 27 4 27-40v-127H5v-23h24l9-43h21v43h35v23H59v120" id="D"/><path d="M24-231v-30h32v30H24zM24 0v-190h32V0H24" id="E"/><path d="M117-194c89-4 53 116 60 194h-32v-121c0-31-8-49-39-48C34-167 62-67 57 0H25l-1-190h30c1 10-1 24 2 32 11-22 29-35 61-36" id="F"/><path d="M141-36C126-15 110 5 73 4 37 3 15-17 15-53c-1-64 63-63 125-63 3-35-9-54-41-54-24 1-41 7-42 31l-33-3c5-37 33-52 76-52 45 0 72 20 72 64v82c-1 20 7 32 28 27v20c-31 9-61-2-59-35zM48-53c0 20 12 33 32 33 41-3 63-29 60-74-43 2-92-5-92 41" id="G"/><path d="M24 0v-261h32V0H24" id="H"/><g id="a"><use transform="matrix(0.05,0,0,0.05,0,0)" xlink:href="#B"/><use transform="matrix(0.05,0,0,0.05,10,0)" xlink:href="#C"/><use transform="matrix(0.05,0,0,0.05,20,0)" xlink:href="#D"/><use transform="matrix(0.05,0,0,0.05,25,0)" xlink:href="#E"/><use transform="matrix(0.05,0,0,0.05,28.950000000000003,0)" xlink:href="#B"/><use transform="matrix(0.05,0,0,0.05,38.95,0)" xlink:href="#F"/><use transform="matrix(0.05,0,0,0.05,48.95,0)" xlink:href="#G"/><use transform="matrix(0.05,0,0,0.05,58.95,0)" xlink:href="#H"/></g><path d="M212-179c-10-28-35-45-73-45-59 0-87 40-87 99 0 60 29 101 89 101 43 0 62-24 78-52l27 14C228-24 195 4 139 4 59 4 22-46 18-125c-6-104 99-153 187-111 19 9 31 26 39 46" id="I"/><path d="M30-248c118-7 216 8 213 122C240-48 200 0 122 0H30v-248zM63-27c89 8 146-16 146-99s-60-101-146-95v194" id="J"/><path d="M185-189c-5-48-123-54-124 2 14 75 158 14 163 119 3 78-121 87-175 55-17-10-28-26-33-46l33-7c5 56 141 63 141-1 0-78-155-14-162-118-5-82 145-84 179-34 5 7 8 16 11 25" id="K"/><g id="b"><use transform="matrix(0.05,0,0,0.05,0,0)" xlink:href="#I"/><use transform="matrix(0.05,0,0,0.05,12.950000000000001,0)" xlink:href="#J"/><use transform="matrix(0.05,0,0,0.05,25.900000000000002,0)" xlink:href="#K"/></g><path d="M197 0v-115H63V0H30v-248h33v105h134v-105h34V0h-34" id="L"/><path d="M143 0L79-87 56-68V0H24v-261h32v163l83-92h37l-77 82L181 0h-38" id="M"/><path d="M135-143c-3-34-86-38-87 0 15 53 115 12 119 90S17 21 10-45l28-5c4 36 97 45 98 0-10-56-113-15-118-90-4-57 82-63 122-42 12 7 21 19 24 35" id="N"/><g id="c"><use transform="matrix(0.05,0,0,0.05,0,0)" xlink:href="#L"/><use transform="matrix(0.05,0,0,0.05,12.950000000000001,0)" xlink:href="#B"/><use transform="matrix(0.05,0,0,0.05,22.950000000000003,0)" xlink:href="#B"/><use transform="matrix(0.05,0,0,0.05,32.95,0)" xlink:href="#M"/><use transform="matrix(0.05,0,0,0.05,41.95,0)" xlink:href="#N"/></g><path d="M240 0l2-218c-23 76-54 145-80 218h-23L58-218 59 0H30v-248h44l77 211c21-75 51-140 76-211h43V0h-30" id="O"/><path d="M85-194c31 0 48 13 60 33l-1-100h32l1 261h-30c-2-10 0-23-3-31C134-8 116 4 85 4 32 4 16-35 15-94c0-66 23-100 70-100zm9 24c-40 0-46 34-46 75 0 40 6 74 45 74 42 0 51-32 51-76 0-42-9-74-50-73" id="P"/><path d="M84 4C-5 8 30-112 23-190h32v120c0 31 7 50 39 49 72-2 45-101 50-169h31l1 190h-30c-1-10 1-25-2-33-11 22-28 36-60 37" id="Q"/><path d="M100-194c63 0 86 42 84 106H49c0 40 14 67 53 68 26 1 43-12 49-29l28 8c-11 28-37 45-77 45C44 4 14-33 15-96c1-61 26-98 85-98zm52 81c6-60-76-77-97-28-3 7-6 17-6 28h103" id="R"/><g id="d"><use transform="matrix(0.05,0,0,0.05,0,0)" xlink:href="#O"/><use transform="matrix(0.05,0,0,0.05,14.950000000000001,0)" xlink:href="#B"/><use transform="matrix(0.05,0,0,0.05,24.950000000000003,0)" xlink:href="#P"/><use transform="matrix(0.05,0,0,0.05,34.95,0)" xlink:href="#Q"/><use transform="matrix(0.05,0,0,0.05,44.95,0)" xlink:href="#H"/><use transform="matrix(0.05,0,0,0.05,48.900000000000006,0)" xlink:href="#R"/></g><g id="e"><use transform="matrix(0.05,0,0,0.05,0,0)" xlink:href="#L"/><use transform="matrix(0.05,0,0,0.05,12.950000000000001,0)" xlink:href="#B"/><use transform="matrix(0.05,0,0,0.05,22.950000000000003,0)" xlink:href="#B"/><use transform="matrix(0.05,0,0,0.05,32.95,0)" xlink:href="#M"/><use transform="matrix(0.05,0,0,0.05,41.95,0)" xlink:href="#N"/></g><path d="M30 0v-248h187v28H63v79h144v27H63v87h162V0H30" id="S"/><g id="f"><use transform="matrix(0.05,0,0,0.05,0,0)" xlink:href="#S"/><use transform="matrix(0.05,0,0,0.05,12,0)" xlink:href="#F"/><use transform="matrix(0.05,0,0,0.05,22,0)" xlink:href="#P"/><use transform="matrix(0.05,0,0,0.05,32,0)" xlink:href="#C"/><use transform="matrix(0.05,0,0,0.05,42,0)" xlink:href="#B"/><use transform="matrix(0.05,0,0,0.05,52,0)" xlink:href="#E"/><use transform="matrix(0.05,0,0,0.05,55.95,0)" xlink:href="#F"/><use transform="matrix(0.05,0,0,0.05,65.95,0)" xlink:href="#D"/></g><path d="M96-169c-40 0-48 33-48 73s9 75 48 75c24 0 41-14 43-38l32 2c-6 37-31 61-74 61-59 0-76-41-82-99-10-93 101-131 147-64 4 7 5 14 7 22l-32 3c-4-21-16-35-41-35" id="T"/><path d="M114-163C36-179 61-72 57 0H25l-1-190h30c1 12-1 29 2 39 6-27 23-49 58-41v29" id="U"/><path d="M179-190L93 31C79 59 56 82 12 73V49c39 6 53-20 64-50L1-190h34L92-34l54-156h33" id="V"/><g id="g"><use transform="matrix(0.05,0,0,0.05,0,0)" xlink:href="#K"/><use transform="matrix(0.05,0,0,0.05,12,0)" xlink:href="#R"/><use transform="matrix(0.05,0,0,0.05,22,0)" xlink:href="#T"/><use transform="matrix(0.05,0,0,0.05,31,0)" xlink:href="#Q"/><use transform="matrix(0.05,0,0,0.05,41,0)" xlink:href="#U"/><use transform="matrix(0.05,0,0,0.05,46.95,0)" xlink:href="#E"/><use transform="matrix(0.05,0,0,0.05,50.900000000000006,0)" xlink:href="#D"/><use transform="matrix(0.05,0,0,0.05,55.900000000000006,0)" xlink:href="#V"/></g><g id="h"><use transform="matrix(0.05,0,0,0.05,0,0)" xlink:href="#G"/><use transform="matrix(0.05,0,0,0.05,10,0)" xlink:href="#F"/><use transform="matrix(0.05,0,0,0.05,20,0)" xlink:href="#P"/></g><path d="M177-190C167-65 218 103 67 71c-23-6-38-20-44-43l32-5c15 47 100 32 89-28v-30C133-14 115 1 83 1 29 1 15-40 15-95c0-56 16-97 71-98 29-1 48 16 59 35 1-10 0-23 2-32h30zM94-22c36 0 50-32 50-73 0-42-14-75-50-75-39 0-46 34-46 75s6 73 46 73" id="W"/><path d="M210-169c-67 3-38 105-44 169h-31v-121c0-29-5-50-35-48C34-165 62-65 56 0H25l-1-190h30c1 10-1 24 2 32 10-44 99-50 107 0 11-21 27-35 58-36 85-2 47 119 55 194h-31v-121c0-29-5-49-35-48" id="X"/><g id="i"><use transform="matrix(0.05,0,0,0.05,0,0)" xlink:href="#O"/><use transform="matrix(0.05,0,0,0.05,14.950000000000001,0)" xlink:href="#G"/><use transform="matrix(0.05,0,0,0.05,24.950000000000003,0)" xlink:href="#F"/><use transform="matrix(0.05,0,0,0.05,34.95,0)" xlink:href="#G"/><use transform="matrix(0.05,0,0,0.05,44.95,0)" xlink:href="#W"/><use transform="matrix(0.05,0,0,0.05,54.95,0)" xlink:href="#R"/><use transform="matrix(0.05,0,0,0.05,64.95,0)" xlink:href="#X"/><use transform="matrix(0.05,0,0,0.05,79.9,0)" xlink:href="#R"/><use transform="matrix(0.05,0,0,0.05,89.9,0)" xlink:href="#F"/><use transform="matrix(0.05,0,0,0.05,99.9,0)" xlink:href="#D"/></g><path d="M108 0H70L1-190h34L89-25l56-165h34" id="Y"/><g id="j"><use transform="matrix(0.05,0,0,0.05,0,0)" xlink:href="#K"/><use transform="matrix(0.05,0,0,0.05,12,0)" xlink:href="#R"/><use transform="matrix(0.05,0,0,0.05,22,0)" xlink:href="#U"/><use transform="matrix(0.05,0,0,0.05,27.950000000000003,0)" xlink:href="#Y"/><use transform="matrix(0.05,0,0,0.05,36.95,0)" xlink:href="#E"/><use transform="matrix(0.05,0,0,0.05,40.900000000000006,0)" xlink:href="#T"/><use transform="matrix(0.05,0,0,0.05,49.900000000000006,0)" xlink:href="#R"/><use transform="matrix(0.05,0,0,0.05,59.900000000000006,0)" xlink:href="#N"/></g><path d="M153-248C145-148 188 4 80 4 36 3 13-21 6-62l32-5c4 25 16 42 43 43 27 0 39-20 39-49v-147H72v-28h81" id="Z"/><path d="M205 0l-28-72H64L36 0H1l101-248h38L239 0h-34zm-38-99l-47-123c-12 45-31 82-46 123h93" id="aa"/><path d="M233-177c-1 41-23 64-60 70L243 0h-38l-65-103H63V0H30v-248c88 3 205-21 203 71zM63-129c60-2 137 13 137-47 0-61-80-42-137-45v92" id="ab"/><g id="k"><use transform="matrix(0.05,0,0,0.05,0,0)" xlink:href="#Z"/><use transform="matrix(0.05,0,0,0.05,9,0)" xlink:href="#aa"/><use transform="matrix(0.05,0,0,0.05,21,0)" xlink:href="#ab"/></g><g id="l"><use transform="matrix(0.05,0,0,0.05,0,0)" xlink:href="#K"/><use transform="matrix(0.05,0,0,0.05,12,0)" xlink:href="#R"/><use transform="matrix(0.05,0,0,0.05,22,0)" xlink:href="#U"/><use transform="matrix(0.05,0,0,0.05,27.950000000000003,0)" xlink:href="#Y"/><use transform="matrix(0.05,0,0,0.05,36.95,0)" xlink:href="#E"/><use transform="matrix(0.05,0,0,0.05,40.900000000000006,0)" xlink:href="#T"/><use transform="matrix(0.05,0,0,0.05,49.900000000000006,0)" xlink:href="#R"/></g><g id="m"><use transform="matrix(0.05,0,0,0.05,0,0)" xlink:href="#aa"/><use transform="matrix(0.05,0,0,0.05,12,0)" xlink:href="#Q"/><use transform="matrix(0.05,0,0,0.05,22,0)" xlink:href="#P"/><use transform="matrix(0.05,0,0,0.05,32,0)" xlink:href="#E"/><use transform="matrix(0.05,0,0,0.05,35.95,0)" xlink:href="#D"/></g><g id="n"><use transform="matrix(0.05,0,0,0.05,0,0)" xlink:href="#K"/><use transform="matrix(0.05,0,0,0.05,12,0)" xlink:href="#R"/><use transform="matrix(0.05,0,0,0.05,22,0)" xlink:href="#U"/><use transform="matrix(0.05,0,0,0.05,27.950000000000003,0)" xlink:href="#Y"/><use transform="matrix(0.05,0,0,0.05,36.95,0)" xlink:href="#E"/><use transform="matrix(0.05,0,0,0.05,40.900000000000006,0)" xlink:href="#T"/><use transform="matrix(0.05,0,0,0.05,49.900000000000006,0)" xlink:href="#R"/><use transform="matrix(0.05,0,0,0.05,59.900000000000006,0)" xlink:href="#N"/></g><path d="M106-169C34-169 62-67 57 0H25v-261h32l-1 103c12-21 28-36 61-36 89 0 53 116 60 194h-32v-121c2-32-8-49-39-48" id="ac"/><path d="M9 0v-24l116-142H16v-24h144v24L44-24h123V0H9" id="ad"/><g id="o"><use transform="matrix(0.05,0,0,0.05,0,0)" xlink:href="#aa"/><use transform="matrix(0.05,0,0,0.05,12,0)" xlink:href="#Q"/><use transform="matrix(0.05,0,0,0.05,22,0)" xlink:href="#D"/><use transform="matrix(0.05,0,0,0.05,27,0)" xlink:href="#ac"/><use transform="matrix(0.05,0,0,0.05,37,0)" xlink:href="#B"/><use transform="matrix(0.05,0,0,0.05,47,0)" xlink:href="#U"/><use transform="matrix(0.05,0,0,0.05,52.95,0)" xlink:href="#E"/><use transform="matrix(0.05,0,0,0.05,56.900000000000006,0)" xlink:href="#ad"/><use transform="matrix(0.05,0,0,0.05,65.9,0)" xlink:href="#G"/><use transform="matrix(0.05,0,0,0.05,75.9,0)" xlink:href="#D"/><use transform="matrix(0.05,0,0,0.05,80.9,0)" xlink:href="#E"/><use transform="matrix(0.05,0,0,0.05,84.85000000000001,0)" xlink:href="#B"/><use transform="matrix(0.05,0,0,0.05,94.85000000000001,0)" xlink:href="#F"/></g><g id="p"><use transform="matrix(0.05,0,0,0.05,0,0)" xlink:href="#O"/><use transform="matrix(0.05,0,0,0.05,14.950000000000001,0)" xlink:href="#B"/><use transform="matrix(0.05,0,0,0.05,24.950000000000003,0)" xlink:href="#F"/><use transform="matrix(0.05,0,0,0.05,34.95,0)" xlink:href="#E"/><use transform="matrix(0.05,0,0,0.05,38.900000000000006,0)" xlink:href="#D"/><use transform="matrix(0.05,0,0,0.05,43.900000000000006,0)" xlink:href="#B"/><use transform="matrix(0.05,0,0,0.05,53.900000000000006,0)" xlink:href="#U"/><use transform="matrix(0.05,0,0,0.05,59.85,0)" xlink:href="#E"/><use transform="matrix(0.05,0,0,0.05,63.80000000000001,0)" xlink:href="#F"/><use transform="matrix(0.05,0,0,0.05,73.80000000000001,0)" xlink:href="#W"/></g><path d="M141 0L90-78 38 0H4l68-98-65-92h35l48 74 47-74h35l-64 92 68 98h-35" id="ae"/><g id="q"><use transform="matrix(0.05,0,0,0.05,0,0)" xlink:href="#S"/><use transform="matrix(0.05,0,0,0.05,12,0)" xlink:href="#ae"/><use transform="matrix(0.05,0,0,0.05,21,0)" xlink:href="#D"/><use transform="matrix(0.05,0,0,0.05,26,0)" xlink:href="#R"/><use transform="matrix(0.05,0,0,0.05,36,0)" xlink:href="#U"/><use transform="matrix(0.05,0,0,0.05,41.95,0)" xlink:href="#F"/><use transform="matrix(0.05,0,0,0.05,51.95,0)" xlink:href="#G"/><use transform="matrix(0.05,0,0,0.05,61.95,0)" xlink:href="#H"/></g><path d="M115-194c53 0 69 39 70 98 0 66-23 100-70 100C84 3 66-7 56-30L54 0H23l1-261h32v101c10-23 28-34 59-34zm-8 174c40 0 45-34 45-75 0-40-5-75-45-74-42 0-51 32-51 76 0 43 10 73 51 73" id="af"/><path d="M68-38c1 34 0 65-14 84H32c9-13 17-26 17-46H33v-38h35" id="ag"/><g id="r"><use transform="matrix(0.05,0,0,0.05,0,0)" xlink:href="#J"/><use transform="matrix(0.05,0,0,0.05,12.950000000000001,0)" xlink:href="#G"/><use transform="matrix(0.05,0,0,0.05,22.950000000000003,0)" xlink:href="#D"/><use transform="matrix(0.05,0,0,0.05,27.950000000000003,0)" xlink:href="#G"/><use transform="matrix(0.05,0,0,0.05,37.95,0)" xlink:href="#af"/><use transform="matrix(0.05,0,0,0.05,47.95,0)" xlink:href="#G"/><use transform="matrix(0.05,0,0,0.05,57.95,0)" xlink:href="#N"/><use transform="matrix(0.05,0,0,0.05,66.95,0)" xlink:href="#R"/><use transform="matrix(0.05,0,0,0.05,76.95,0)" xlink:href="#N"/><use transform="matrix(0.05,0,0,0.05,85.95,0)" xlink:href="#ag"/></g><g id="s"><use transform="matrix(0.05,0,0,0.05,0,0)" xlink:href="#K"/><use transform="matrix(0.05,0,0,0.05,12,0)" xlink:href="#V"/><use transform="matrix(0.05,0,0,0.05,21,0)" xlink:href="#N"/><use transform="matrix(0.05,0,0,0.05,30,0)" xlink:href="#D"/><use transform="matrix(0.05,0,0,0.05,35,0)" xlink:href="#R"/><use transform="matrix(0.05,0,0,0.05,45,0)" xlink:href="#X"/><use transform="matrix(0.05,0,0,0.05,59.95,0)" xlink:href="#N"/><use transform="matrix(0.05,0,0,0.05,68.95,0)" xlink:href="#ag"/></g><g id="t"><use transform="matrix(0.05,0,0,0.05,0,0)" xlink:href="#K"/><use transform="matrix(0.05,0,0,0.05,12,0)" xlink:href="#R"/><use transform="matrix(0.05,0,0,0.05,22,0)" xlink:href="#U"/><use transform="matrix(0.05,0,0,0.05,27.950000000000003,0)" xlink:href="#Y"/><use transform="matrix(0.05,0,0,0.05,36.95,0)" xlink:href="#E"/><use transform="matrix(0.05,0,0,0.05,40.900000000000006,0)" xlink:href="#T"/><use transform="matrix(0.05,0,0,0.05,49.900000000000006,0)" xlink:href="#R"/><use transform="matrix(0.05,0,0,0.05,59.900000000000006,0)" xlink:href="#N"/></g><path d="M33 0v-38h34V0H33" id="ah"/><g id="u"><use transform="matrix(0.05,0,0,0.05,0,0)" xlink:href="#R"/><use transform="matrix(0.05,0,0,0.05,10,0)" xlink:href="#D"/><use transform="matrix(0.05,0,0,0.05,15,0)" xlink:href="#T"/><use transform="matrix(0.05,0,0,0.05,24,0)" xlink:href="#ah"/></g><g id="v"><use transform="matrix(0.05,0,0,0.05,0,0)" xlink:href="#aa"/><use transform="matrix(0.05,0,0,0.05,12,0)" xlink:href="#Q"/><use transform="matrix(0.05,0,0,0.05,22,0)" xlink:href="#D"/><use transform="matrix(0.05,0,0,0.05,27,0)" xlink:href="#B"/></g><path d="M30-248c87 1 191-15 191 75 0 78-77 80-158 76V0H30v-248zm33 125c57 0 124 11 124-50 0-59-68-47-124-48v98" id="ai"/><path d="M101-234c-31-9-42 10-38 44h38v23H63V0H32v-167H5v-23h27c-7-52 17-82 69-68v24" id="aj"/><g id="w"><use transform="matrix(0.05,0,0,0.05,0,0)" xlink:href="#ai"/><use transform="matrix(0.05,0,0,0.05,12,0)" xlink:href="#U"/><use transform="matrix(0.05,0,0,0.05,17.95,0)" xlink:href="#R"/><use transform="matrix(0.05,0,0,0.05,27.950000000000003,0)" xlink:href="#aj"/><use transform="matrix(0.05,0,0,0.05,32.95,0)" xlink:href="#R"/><use transform="matrix(0.05,0,0,0.05,42.95,0)" xlink:href="#D"/><use transform="matrix(0.05,0,0,0.05,47.95,0)" xlink:href="#T"/><use transform="matrix(0.05,0,0,0.05,56.95,0)" xlink:href="#ac"/></g><path d="M63-220v92h138v28H63V0H30v-248h175v28H63" id="ak"/><path d="M33 0v-248h34V0H33" id="al"/><g id="x"><use transform="matrix(0.05,0,0,0.05,0,0)" xlink:href="#ak"/><use transform="matrix(0.05,0,0,0.05,10.950000000000001,0)" xlink:href="#L"/><use transform="matrix(0.05,0,0,0.05,23.900000000000002,0)" xlink:href="#al"/><use transform="matrix(0.05,0,0,0.05,28.900000000000002,0)" xlink:href="#ab"/></g><g id="y"><use transform="matrix(0.05,0,0,0.05,0,0)" xlink:href="#K"/><use transform="matrix(0.05,0,0,0.05,12,0)" xlink:href="#D"/><use transform="matrix(0.05,0,0,0.05,17,0)" xlink:href="#B"/><use transform="matrix(0.05,0,0,0.05,27,0)" xlink:href="#U"/><use transform="matrix(0.05,0,0,0.05,32.95,0)" xlink:href="#G"/><use transform="matrix(0.05,0,0,0.05,42.95,0)" xlink:href="#W"/><use transform="matrix(0.05,0,0,0.05,52.95,0)" xlink:href="#R"/></g><g id="z"><use transform="matrix(0.05,0,0,0.05,0,0)" xlink:href="#ak"/><use transform="matrix(0.05,0,0,0.05,10.950000000000001,0)" xlink:href="#L"/><use transform="matrix(0.05,0,0,0.05,23.900000000000002,0)" xlink:href="#al"/><use transform="matrix(0.05,0,0,0.05,28.900000000000002,0)" xlink:href="#ab"/></g><g id="A"><use transform="matrix(0.05,0,0,0.05,0,0)" xlink:href="#K"/><use transform="matrix(0.05,0,0,0.05,12,0)" xlink:href="#R"/><use transform="matrix(0.05,0,0,0.05,22,0)" xlink:href="#U"/><use transform="matrix(0.05,0,0,0.05,27.950000000000003,0)" xlink:href="#Y"/><use transform="matrix(0.05,0,0,0.05,36.95,0)" xlink:href="#R"/><use transform="matrix(0.05,0,0,0.05,46.95,0)" xlink:href="#U"/></g></defs></g></svg>