<svg xmlns="http://www.w3.org/2000/svg" xmlns:xlink="http://www.w3.org/1999/xlink" xmlns:lucid="lucid" width="1912" height="503"><g transform="translate(0 -1095)" lucid:page-tab-id=".Q4MUjXso07N"><path d="M0 0h2393.76v3151H0z" fill="#fff"/><path d="M20 1588c0-4.42 3.58-8 8-8h1884.56c4.42 0 8 3.58 8 8v524c0 4.42-3.58 8-8 8H28c-4.42 0-8-3.58-8-8z" stroke="#fff" fill="#fff"/><use xlink:href="#a" transform="matrix(1,0,0,1,40,1580) translate(914.025 273.59999999999997)"/><path d="M20 1103.5c0-4.42 3.58-8 8-8h1884.56c4.42 0 8 3.58 8 8V1572c0 4.42-3.58 8-8 8H28c-4.42 0-8-3.58-8-8z" stroke="#fff" fill="#fff"/><use xlink:href="#a" transform="matrix(1,0,0,1,40,1095.499999999909) translate(914.025 246.1)"/><path d="M20 631.53c0-4.42 3.58-8 8-8h1884.56c4.42 0 8 3.58 8 8v455.97c0 4.42-3.58 8-8 8H28c-4.42 0-8-3.58-8-8z" stroke="#fff" fill="#fff"/><use xlink:href="#a" transform="matrix(1,0,0,1,40,623.5283658468877) translate(914.025 239.6)"/><path d="M740.5 1385.5c0 33.14-26.86 60-60 60s-60-26.86-60-60 26.86-60 60-60 60 26.86 60 60z" stroke="#333" fill="#fff"/><use xlink:href="#b" transform="matrix(1,0,0,1,638.5003118578666,1349.499999999909) translate(6.524999999999999 39.6)"/><use xlink:href="#c" transform="matrix(1,0,0,1,638.5003118578666,1349.499999999909) translate(67.475 39.6)"/><path d="M600.5 1285.5h88l12 12v48h-100z" stroke="#333" fill="#fff"/><path d="M688.5 1285.98v11.52h11.52" stroke="#333" fill="#fff"/><use xlink:href="#d" transform="matrix(1,0,0,1,606.5003118578666,1292.699999999909) translate(20.525 27.6)"/><path d="M761.62 1385.5h12.77c.26 0 .5-.22.5-.5s.2-.5.5-.5h12.75" stroke="#333" stroke-width="3" fill="none"/><path d="M745.85 1385.5l14.27-4.64v9.28zM803.92 1384.5l-14.27 4.64v-9.28z" stroke="#333" stroke-width="3" fill="#333"/><path d="M1340.5 1213.5c0-4.42 3.58-8 8-8H1852c4.42 0 8 3.58 8 8v344c0 4.42-3.58 8-8 8h-503.5c-4.42 0-8-3.58-8-8z" stroke="#333" fill="#fff"/><path d="M1491.73 1465.5c0 33.14-26.86 60-60 60s-60-26.86-60-60 26.86-60 60-60 60 26.86 60 60z" stroke="#333" fill="#fff"/><use xlink:href="#b" transform="matrix(1,0,0,1,1389.7295029624916,1429.499999999909) translate(6.524999999999999 39.6)"/><use xlink:href="#e" transform="matrix(1,0,0,1,1389.7295029624916,1429.499999999909) translate(67.475 39.6)"/><path d="M1538.4 1184c0-4.42 3.6-8 8-8h114.56c4.42 0 8 3.58 8 8v23c0 4.42-3.58 8-8 8H1546.4c-4.4 0-8-3.58-8-8z" stroke="#000" stroke-opacity="0" fill="#ffeca9"/><use xlink:href="#f" transform="matrix(1,0,0,1,1558.4110990584477,1175.999999999818) translate(4.099999999999994 23.6)"/><use xlink:href="#g" transform="matrix(1,0,0,1,1558.4110990584477,1175.999999999818) translate(43 23.6)"/><path d="M1351.73 1365.5h88l12 12v48h-100z" stroke="#333" fill="#fff"/><path d="M1439.73 1365.98v11.52h11.52" stroke="#333" fill="#fff"/><use xlink:href="#d" transform="matrix(1,0,0,1,1357.7295029624916,1372.699999999909) translate(20.525 27.6)"/><path d="M1694.2 1280c0 33.14-26.88 60-60 60-33.15 0-60-26.86-60-60s26.85-60 60-60c33.12 0 60 26.86 60 60z" stroke="#333" fill="#fff"/><use xlink:href="#h" transform="matrix(1,0,0,1,1592.187885171741,1244) translate(14.024999999999999 32.8)"/><use xlink:href="#i" transform="matrix(1,0,0,1,1592.187885171741,1244) translate(3.954629629629622 49.06666666666667)"/><use xlink:href="#j" transform="matrix(1,0,0,1,1592.187885171741,1244) translate(43.58981481481481 49.06666666666667)"/><path d="M1500.5 1210h88l12 12v48h-100z" stroke="#333" fill="#fff"/><path d="M1588.5 1210.48V1222h11.52" stroke="#333" fill="#fff"/><use xlink:href="#d" transform="matrix(1,0,0,1,1506.5003118578666,1217.2) translate(20.525 27.6)"/><path d="M806.87 1127.03c0-4.42 3.58-8 8-8h384c4.4 0 8 3.58 8 8v44c0 4.42-3.6 8-8 8h-384c-4.42 0-8-3.58-8-8z" stroke="#000" stroke-opacity="0" fill="#fff" fill-opacity="0"/><use xlink:href="#k" transform="matrix(1,0,0,1,826.8653751969799,1119.0283658467963) translate(16.48888888888888 23.066666666666663)"/><use xlink:href="#l" transform="matrix(1,0,0,1,826.8653751969799,1119.0283658467963) translate(91.5037037037037 23.066666666666663)"/><use xlink:href="#m" transform="matrix(1,0,0,1,826.8653751969799,1119.0283658467963) translate(150.1962962962963 23.066666666666663)"/><use xlink:href="#n" transform="matrix(1,0,0,1,826.8653751969799,1119.0283658467963) translate(185.72962962962964 23.066666666666663)"/><use xlink:href="#o" transform="matrix(1,0,0,1,826.8653751969799,1119.0283658467963) translate(209.80370370370372 23.066666666666663)"/><use xlink:href="#p" transform="matrix(1,0,0,1,826.8653751969799,1119.0283658467963) translate(276.15185185185186 23.066666666666663)"/><use xlink:href="#q" transform="matrix(1,0,0,1,826.8653751969799,1119.0283658467963) translate(314.6222222222222 23.066666666666663)"/><use xlink:href="#r" transform="matrix(1,0,0,1,826.8653751969799,1119.0283658467963) translate(25.637037037037004 43.86666666666667)"/><use xlink:href="#s" transform="matrix(1,0,0,1,826.8653751969799,1119.0283658467963) translate(59.34074074074071 43.86666666666667)"/><use xlink:href="#t" transform="matrix(1,0,0,1,826.8653751969799,1119.0283658467963) translate(92.99629629629626 43.86666666666667)"/><use xlink:href="#u" transform="matrix(1,0,0,1,826.8653751969799,1119.0283658467963) translate(110.28148148148145 43.86666666666667)"/><use xlink:href="#v" transform="matrix(1,0,0,1,826.8653751969799,1119.0283658467963) translate(171.8148148148148 43.86666666666667)"/><use xlink:href="#w" transform="matrix(1,0,0,1,826.8653751969799,1119.0283658467963) translate(226.65555555555557 43.86666666666667)"/><use xlink:href="#x" transform="matrix(1,0,0,1,826.8653751969799,1119.0283658467963) translate(244.9037037037037 43.86666666666667)"/><use xlink:href="#y" transform="matrix(1,0,0,1,826.8653751969799,1119.0283658467963) translate(274.70740740740746 43.86666666666667)"/><path d="M120 1218c0-4.42 3.58-8 8-8h372.77c4.42 0 8 3.58 8 8v338.5c0 4.42-3.58 8-8 8H128c-4.42 0-8-3.58-8-8z" stroke="#333" fill="#fff"/><path d="M271.23 1465.5c0 33.14-26.86 60-60 60s-60-26.86-60-60 26.86-60 60-60 60 26.86 60 60z" stroke="#333" fill="#fff"/><use xlink:href="#b" transform="matrix(1,0,0,1,169.22919110462533,1429.499999999909) translate(6.524999999999999 39.6)"/><use xlink:href="#e" transform="matrix(1,0,0,1,169.22919110462533,1429.499999999909) translate(67.475 39.6)"/><path d="M239.7 1188c0-4.42 3.57-8 8-8h125.6c4.42 0 8 3.58 8 8v23c0 4.42-3.58 8-8 8H247.7c-4.43 0-8-3.58-8-8z" stroke="#000" stroke-opacity="0" fill="#ffeca9"/><use xlink:href="#z" transform="matrix(1,0,0,1,259.6862438131335,1180) translate(6.099999999999994 23.6)"/><use xlink:href="#g" transform="matrix(1,0,0,1,259.6862438131335,1180) translate(52 23.6)"/><path d="M131.23 1365.5h88l12 12v48h-100z" stroke="#333" fill="#fff"/><path d="M219.23 1365.98v11.52h11.52" stroke="#333" fill="#fff"/><use xlink:href="#d" transform="matrix(1,0,0,1,137.22919110462533,1372.699999999909) translate(20.525 27.6)"/><path d="M473.7 1335.5c0 33.14-26.88 60-60 60-33.15 0-60-26.86-60-60s26.85-60 60-60c33.12 0 60 26.86 60 60z" stroke="#333" fill="#fff"/><use xlink:href="#h" transform="matrix(1,0,0,1,371.68757331387485,1299.499999999909) translate(14.024999999999999 32.8)"/><use xlink:href="#i" transform="matrix(1,0,0,1,371.68757331387485,1299.499999999909) translate(3.954629629629622 49.06666666666667)"/><use xlink:href="#j" transform="matrix(1,0,0,1,371.68757331387485,1299.499999999909) translate(43.58981481481481 49.06666666666667)"/><path d="M333.7 1235.5h88l12 12v48h-100z" stroke="#333" fill="#fff"/><path d="M421.7 1235.98v11.52h11.5" stroke="#333" fill="#fff"/><use xlink:href="#d" transform="matrix(1,0,0,1,339.68757331387485,1242.699999999909) translate(20.525 27.6)"/><path d="M1795.14 1480c0 33.14-26.87 60-60 60-33.14 0-60-26.86-60-60s26.86-60 60-60c33.13 0 60 26.86 60 60z" stroke="#333" fill="#fff"/><use xlink:href="#b" transform="matrix(1,0,0,1,1693.1358722344871,1444) translate(6.524999999999999 39.6)"/><use xlink:href="#c" transform="matrix(1,0,0,1,1693.1358722344871,1444) translate(67.475 39.6)"/><path d="M1741.25 1400h88l12 12v48h-100z" stroke="#333" fill="#fff"/><path d="M1829.25 1400.48V1412h11.52" stroke="#333" fill="#fff"/><use xlink:href="#d" transform="matrix(1,0,0,1,1747.250779644667,1407.2) translate(20.525 27.6)"/><path d="M809.27 1212.5c0-4.42 3.58-8 8-8h372.77c4.42 0 8 3.58 8 8v344c0 4.42-3.58 8-8 8H817.27c-4.42 0-8-3.58-8-8z" stroke="#333" fill="#fff"/><path d="M960.5 1460c0 33.14-26.86 60-60 60s-60-26.86-60-60 26.86-60 60-60 60 26.86 60 60z" stroke="#333" fill="#fff"/><use xlink:href="#b" transform="matrix(1,0,0,1,858.5003118578672,1424) translate(6.524999999999999 39.6)"/><use xlink:href="#e" transform="matrix(1,0,0,1,858.5003118578672,1424) translate(67.475 39.6)"/><path d="M942.98 1184c0-4.42 3.6-8 8-8h100.54c4.42 0 8 3.58 8 8v23c0 4.42-3.58 8-8 8H950.98c-4.4 0-8-3.58-8-8z" stroke="#000" stroke-opacity="0" fill="#ffeca9"/><use xlink:href="#A" transform="matrix(1,0,0,1,962.9838111931576,1175.999999999818) translate(10.599999999999994 23.6)"/><path d="M820.5 1360h88l12 12v48h-100z" stroke="#333" fill="#fff"/><path d="M908.5 1360.48V1372h11.52" stroke="#333" fill="#fff"/><use xlink:href="#d" transform="matrix(1,0,0,1,826.5003118578672,1367.2) translate(20.525 27.6)"/><path d="M1162.96 1330c0 33.14-26.86 60-60 60s-60-26.86-60-60 26.86-60 60-60 60 26.86 60 60z" stroke="#333" fill="#fff"/><use xlink:href="#h" transform="matrix(1,0,0,1,1060.9586940671168,1294) translate(14.024999999999999 32.8)"/><use xlink:href="#i" transform="matrix(1,0,0,1,1060.9586940671168,1294) translate(3.954629629629622 49.06666666666667)"/><use xlink:href="#j" transform="matrix(1,0,0,1,1060.9586940671168,1294) translate(43.58981481481481 49.06666666666667)"/><path d="M1022.96 1230h88l12 12v48h-100z" stroke="#333" fill="#fff"/><path d="M1110.96 1230.48V1242h11.52" stroke="#333" fill="#fff"/><use xlink:href="#d" transform="matrix(1,0,0,1,1028.9586940671168,1237.2) translate(20.525 27.6)"/><path d="M820.5 730.75c0-4.42 3.58-8 8-8h372.77c4.42 0 8 3.58 8 8v344c0 4.42-3.58 8-8 8H828.5c-4.42 0-8-3.58-8-8zM1340.5 730.75c0-4.42 3.58-8 8-8h447.2c4.4 0 8 3.58 8 8v344c0 4.42-3.6 8-8 8h-447.2c-4.42 0-8-3.58-8-8zM120 730.75c0-4.42 3.58-8 8-8h372.77c4.42 0 8 3.58 8 8v344c0 4.42-3.58 8-8 8H128c-4.42 0-8-3.58-8-8z" stroke="#333" fill="#fff"/><path d="M1403.7 1127.03c0-4.42 3.57-8 8-8h384c4.4 0 8 3.58 8 8v44c0 4.42-3.6 8-8 8h-384c-4.43 0-8-3.58-8-8z" stroke="#000" stroke-opacity="0" fill="#fff" fill-opacity="0"/><use xlink:href="#B" transform="matrix(1,0,0,1,1423.6875733138745,1119.0283658467963) translate(15.983333333333292 23.066666666666663)"/><use xlink:href="#C" transform="matrix(1,0,0,1,1423.6875733138745,1119.0283658467963) translate(74.6759259259259 23.066666666666663)"/><use xlink:href="#D" transform="matrix(1,0,0,1,1423.6875733138745,1119.0283658467963) translate(144.92407407407407 23.066666666666663)"/><use xlink:href="#E" transform="matrix(1,0,0,1,1423.6875733138745,1119.0283658467963) translate(164.18333333333334 23.066666666666663)"/><use xlink:href="#F" transform="matrix(1,0,0,1,1423.6875733138745,1119.0283658467963) translate(227.64259259259262 23.066666666666663)"/><use xlink:href="#G" transform="matrix(1,0,0,1,1423.6875733138745,1119.0283658467963) translate(288.2611111111112 23.066666666666663)"/><use xlink:href="#H" transform="matrix(1,0,0,1,1423.6875733138745,1119.0283658467963) translate(29.92222222222219 43.86666666666667)"/><use xlink:href="#I" transform="matrix(1,0,0,1,1423.6875733138745,1119.0283658467963) translate(81.9222222222222 43.86666666666667)"/><use xlink:href="#s" transform="matrix(1,0,0,1,1423.6875733138745,1119.0283658467963) translate(105.99629629629628 43.86666666666667)"/><use xlink:href="#J" transform="matrix(1,0,0,1,1423.6875733138745,1119.0283658467963) translate(139.65185185185183 43.86666666666667)"/><use xlink:href="#K" transform="matrix(1,0,0,1,1423.6875733138745,1119.0283658467963) translate(196.4185185185185 43.86666666666667)"/><use xlink:href="#t" transform="matrix(1,0,0,1,1423.6875733138745,1119.0283658467963) translate(230.12222222222223 43.86666666666667)"/><use xlink:href="#L" transform="matrix(1,0,0,1,1423.6875733138745,1119.0283658467963) translate(247.40740740740742 43.86666666666667)"/><use xlink:href="#D" transform="matrix(1,0,0,1,1423.6875733138745,1119.0283658467963) translate(297.38518518518526 43.86666666666667)"/><use xlink:href="#M" transform="matrix(1,0,0,1,1423.6875733138745,1119.0283658467963) translate(316.6444444444445 43.86666666666667)"/><path d="M749.27 1600.75c0-4.42 3.58-8 8-8h521.86c4.42 0 8 3.58 8 8v44c0 4.42-3.58 8-8 8H757.27c-4.42 0-8-3.58-8-8z" stroke="#000" stroke-opacity="0" fill="#fff" fill-opacity="0"/><g><use xlink:href="#k" transform="matrix(1,0,0,1,769.2711207532419,1592.7499999999545) translate(11.918518518518482 23.066666666666663)"/><use xlink:href="#l" transform="matrix(1,0,0,1,769.2711207532419,1592.7499999999545) translate(86.93333333333331 23.066666666666663)"/><use xlink:href="#m" transform="matrix(1,0,0,1,769.2711207532419,1592.7499999999545) translate(145.6259259259259 23.066666666666663)"/><use xlink:href="#n" transform="matrix(1,0,0,1,769.2711207532419,1592.7499999999545) translate(181.15925925925924 23.066666666666663)"/><use xlink:href="#o" transform="matrix(1,0,0,1,769.2711207532419,1592.7499999999545) translate(205.23333333333332 23.066666666666663)"/><use xlink:href="#N" transform="matrix(1,0,0,1,769.2711207532419,1592.7499999999545) translate(271.58148148148143 23.066666666666663)"/><use xlink:href="#O" transform="matrix(1,0,0,1,769.2711207532419,1592.7499999999545) translate(310.0518518518518 23.066666666666663)"/><use xlink:href="#l" transform="matrix(1,0,0,1,769.2711207532419,1592.7499999999545) translate(347.51111111111106 23.066666666666663)"/><use xlink:href="#C" transform="matrix(1,0,0,1,769.2711207532419,1592.7499999999545) translate(406.2037037037037 23.066666666666663)"/><use xlink:href="#P" transform="matrix(1,0,0,1,769.2711207532419,1592.7499999999545) translate(476.45185185185187 23.066666666666663)"/><use xlink:href="#F" transform="matrix(1,0,0,1,769.2711207532419,1592.7499999999545) translate(2.746296296296265 43.86666666666667)"/><use xlink:href="#Q" transform="matrix(1,0,0,1,769.2711207532419,1592.7499999999545) translate(63.3648148148148 43.86666666666667)"/><use xlink:href="#K" transform="matrix(1,0,0,1,769.2711207532419,1592.7499999999545) translate(128.75 43.86666666666667)"/><use xlink:href="#R" transform="matrix(1,0,0,1,769.2711207532419,1592.7499999999545) translate(162.45370370370372 43.86666666666667)"/><use xlink:href="#S" transform="matrix(1,0,0,1,769.2711207532419,1592.7499999999545) translate(191.3425925925926 43.86666666666667)"/><use xlink:href="#T" transform="matrix(1,0,0,1,769.2711207532419,1592.7499999999545) translate(249.0240740740741 43.86666666666667)"/><use xlink:href="#U" transform="matrix(1,0,0,1,769.2711207532419,1592.7499999999545) translate(306.75370370370376 43.86666666666667)"/><use xlink:href="#V" transform="matrix(1,0,0,1,769.2711207532419,1592.7499999999545) translate(343.29814814814813 43.86666666666667)"/><use xlink:href="#n" transform="matrix(1,0,0,1,769.2711207532419,1592.7499999999545) translate(376.0388888888889 43.86666666666667)"/><use xlink:href="#W" transform="matrix(1,0,0,1,769.2711207532419,1592.7499999999545) translate(400.112962962963 43.86666666666667)"/><use xlink:href="#X" transform="matrix(1,0,0,1,769.2711207532419,1592.7499999999545) translate(461.5981481481482 43.86666666666667)"/></g><path d="M1380 1600.75c0-4.42 3.58-8 8-8h384c4.42 0 8 3.58 8 8v44c0 4.42-3.58 8-8 8h-384c-4.42 0-8-3.58-8-8z" stroke="#000" stroke-opacity="0" fill="#fff" fill-opacity="0"/><g><use xlink:href="#B" transform="matrix(1,0,0,1,1400,1592.7499999999545) translate(15.983333333333292 23.066666666666663)"/><use xlink:href="#C" transform="matrix(1,0,0,1,1400,1592.7499999999545) translate(74.6759259259259 23.066666666666663)"/><use xlink:href="#D" transform="matrix(1,0,0,1,1400,1592.7499999999545) translate(144.92407407407407 23.066666666666663)"/><use xlink:href="#E" transform="matrix(1,0,0,1,1400,1592.7499999999545) translate(164.18333333333334 23.066666666666663)"/><use xlink:href="#F" transform="matrix(1,0,0,1,1400,1592.7499999999545) translate(227.64259259259262 23.066666666666663)"/><use xlink:href="#G" transform="matrix(1,0,0,1,1400,1592.7499999999545) translate(288.2611111111112 23.066666666666663)"/><use xlink:href="#H" transform="matrix(1,0,0,1,1400,1592.7499999999545) translate(29.92222222222219 43.86666666666667)"/><use xlink:href="#I" transform="matrix(1,0,0,1,1400,1592.7499999999545) translate(81.9222222222222 43.86666666666667)"/><use xlink:href="#s" transform="matrix(1,0,0,1,1400,1592.7499999999545) translate(105.99629629629628 43.86666666666667)"/><use xlink:href="#J" transform="matrix(1,0,0,1,1400,1592.7499999999545) translate(139.65185185185183 43.86666666666667)"/><use xlink:href="#K" transform="matrix(1,0,0,1,1400,1592.7499999999545) translate(196.4185185185185 43.86666666666667)"/><use xlink:href="#t" transform="matrix(1,0,0,1,1400,1592.7499999999545) translate(230.12222222222223 43.86666666666667)"/><use xlink:href="#L" transform="matrix(1,0,0,1,1400,1592.7499999999545) translate(247.40740740740742 43.86666666666667)"/><use xlink:href="#D" transform="matrix(1,0,0,1,1400,1592.7499999999545) translate(297.38518518518526 43.86666666666667)"/><use xlink:href="#M" transform="matrix(1,0,0,1,1400,1592.7499999999545) translate(316.6444444444445 43.86666666666667)"/></g><path d="M11.33 1108c0-4.42 3.58-8 8-8H285.7c4.4 0 8 3.58 8 8v44c0 4.42-3.6 8-8 8H19.32c-4.42 0-8-3.58-8-8z" stroke="#000" stroke-opacity="0" fill="#fff" fill-opacity="0"/><g><use xlink:href="#Y" transform="matrix(1,0,0,1,31.33301193358136,1100) translate(8.24074074074072 34.888888888888886)"/><use xlink:href="#Z" transform="matrix(1,0,0,1,31.33301193358136,1100) translate(90.94444444444443 34.888888888888886)"/><use xlink:href="#aa" transform="matrix(1,0,0,1,31.33301193358136,1100) translate(142.48148148148147 34.888888888888886)"/><use xlink:href="#ab" transform="matrix(1,0,0,1,31.33301193358136,1100) translate(207.5987654320988 34.888888888888886)"/></g><path d="M11.33 1600.75c0-4.42 3.58-8 8-8H307.9c4.4 0 8 3.58 8 8v44c0 4.42-3.6 8-8 8H19.32c-4.42 0-8-3.58-8-8z" stroke="#000" stroke-opacity="0" fill="#fff" fill-opacity="0"/><g><use xlink:href="#Y" transform="matrix(1,0,0,1,31.33301193358136,1592.7499999999545) translate(19.24074074074072 34.888888888888886)"/><use xlink:href="#Z" transform="matrix(1,0,0,1,31.33301193358136,1592.7499999999545) translate(101.94444444444443 34.888888888888886)"/><use xlink:href="#aa" transform="matrix(1,0,0,1,31.33301193358136,1592.7499999999545) translate(153.48148148148147 34.888888888888886)"/><use xlink:href="#ac" transform="matrix(1,0,0,1,31.33301193358136,1592.7499999999545) translate(218.5987654320988 34.888888888888886)"/></g><path d="M313.96 1453.6l-.45 3.4-1.33 3.25-2.16 2.8-2.8 2.16-3.24 1.35-3.4.45h-27.33v-3h27.13l2.82-.37 2.5-1.04 2.2-1.68 1.67-2.2 1.04-2.5.36-2.82v-42.1h3zm18.6-116.6h-8l-2.82.37-2.52 1.04-2.18 1.68-1.67 2.2-1.04 2.5-.37 2.82v42.1h-3v-42.3l.44-3.4 1.35-3.25 2.15-2.8 2.8-2.16 3.25-1.35 3.4-.45h8.22z" fill="#333"/><path d="M273.27 1467h-1.6l.06-1.5-.05-1.5h1.6zM348.33 1335.5l-14.26 4.64v-9.28z" fill="#333"/><path d="M353.2 1335.5l-20.63 6.7v-13.4zm-17.63 2.57l7.9-2.57-7.9-2.57z" fill="#333"/><g><use xlink:href="#ad" transform="matrix(1,0,0,1,281.23338220925007,1389.699999999909) translate(0.004999999999999005 14.4)"/></g><path d="M1003.23 1448.1l-.45 3.4-1.34 3.25-2.16 2.8-2.8 2.16-3.25 1.35-3.4.45H962.5v-3h27.13l2.82-.37 2.5-1.04 2.2-1.68 1.67-2.2 1.04-2.5.37-2.82v-42.1h3zm18.6-116.6h-8l-2.82.37-2.5 1.04-2.2 1.68-1.66 2.2-1.04 2.5-.37 2.82v42.1h-3v-42.3l.45-3.4 1.34-3.25 2.15-2.8 2.8-2.16 3.25-1.35 3.4-.45h8.22z" fill="#333"/><path d="M962.54 1461.5h-1.6l.06-1.5-.05-1.5h1.6zM1037.6 1330l-14.26 4.64v-9.28z" fill="#333"/><path d="M1042.46 1330l-20.62 6.7v-13.4zm-17.62 2.57l7.9-2.57-7.9-2.57z" fill="#333"/><g><use xlink:href="#ad" transform="matrix(1,0,0,1,970.504502962492,1384.2) translate(0.004999999999999005 14.4)"/></g><path d="M1534.46 1453.6l-.45 3.4-1.33 3.25-2.16 2.8-2.8 2.16-3.24 1.35-3.4.45h-27.33v-3h27.13l2.82-.37 2.5-1.04 2.2-1.68 1.67-2.2 1.04-2.5.36-2.82v-69.85h3zm18.6-172.1h-8l-2.82.37-2.52 1.04-2.18 1.68-1.67 2.2-1.04 2.5-.37 2.82v69.85h-3v-70.05l.45-3.4 1.35-3.25 2.15-2.8 2.8-2.16 3.25-1.35 3.4-.45h8.22z" fill="#333"/><path d="M1493.77 1467h-1.6l.06-1.5-.05-1.5h1.6zM1568.83 1280l-14.26 4.64v-9.28z" fill="#333"/><path d="M1573.7 1280l-20.63 6.7v-13.4zm-17.63 2.57l7.9-2.57-7.9-2.57z" fill="#333"/><g><use xlink:href="#ad" transform="matrix(1,0,0,1,1501.7336940671164,1361.9499999999546) translate(0.004999999999999005 14.4)"/></g><path d="M1635.7 1467.9l.36 2.82 1.04 2.5 1.67 2.2 2.18 1.67 2.52 1.03 2.82.37h26.84v3h-27.05l-3.42-.45-3.24-1.34-2.8-2.15-2.16-2.8-1.35-3.25-.44-3.4v-13.95h3zm0-35.35h-3v-71.43h3z" fill="#333"/><path d="M1674.64 1480l.05 1.5h-1.6v-3h1.6zM1638.82 1359.62h-9.27l4.64-14.27z" fill="#333"/><path d="M1640.9 1361.12h-13.4l6.7-20.62zm-9.28-3h5.14l-2.57-7.9z" fill="#333"/><g><use xlink:href="#ad" transform="matrix(1,0,0,1,1602.9628851717412,1432.5469279261465) translate(0.004999999999999005 14.4)"/></g><defs><path fill="#333" d="M127-220V0H93v-220H8v-28h204v28h-85" id="ae"/><path fill="#333" d="M100-194c63 0 86 42 84 106H49c0 40 14 67 53 68 26 1 43-12 49-29l28 8c-11 28-37 45-77 45C44 4 14-33 15-96c1-61 26-98 85-98zm52 81c6-60-76-77-97-28-3 7-6 17-6 28h103" id="af"/><path fill="#333" d="M141 0L90-78 38 0H4l68-98-65-92h35l48 74 47-74h35l-64 92 68 98h-35" id="ag"/><path fill="#333" d="M59-47c-2 24 18 29 38 22v24C64 9 27 4 27-40v-127H5v-23h24l9-43h21v43h35v23H59v120" id="ah"/><g id="a"><use transform="matrix(0.05,0,0,0.05,0,0)" xlink:href="#ae"/><use transform="matrix(0.05,0,0,0.05,8.950000000000001,0)" xlink:href="#af"/><use transform="matrix(0.05,0,0,0.05,18.950000000000003,0)" xlink:href="#ag"/><use transform="matrix(0.05,0,0,0.05,27.950000000000003,0)" xlink:href="#ah"/></g><path d="M30-248c87 1 191-15 191 75 0 78-77 80-158 76V0H30v-248zm33 125c57 0 124 11 124-50 0-59-68-47-124-48v98" id="ai"/><path d="M141-36C126-15 110 5 73 4 37 3 15-17 15-53c-1-64 63-63 125-63 3-35-9-54-41-54-24 1-41 7-42 31l-33-3c5-37 33-52 76-52 45 0 72 20 72 64v82c-1 20 7 32 28 27v20c-31 9-61-2-59-35zM48-53c0 20 12 33 32 33 41-3 63-29 60-74-43 2-92-5-92 41" id="aj"/><path d="M59-47c-2 24 18 29 38 22v24C64 9 27 4 27-40v-127H5v-23h24l9-43h21v43h35v23H59v120" id="ak"/><path d="M24-231v-30h32v30H24zM24 0v-190h32V0H24" id="al"/><path d="M100-194c63 0 86 42 84 106H49c0 40 14 67 53 68 26 1 43-12 49-29l28 8c-11 28-37 45-77 45C44 4 14-33 15-96c1-61 26-98 85-98zm52 81c6-60-76-77-97-28-3 7-6 17-6 28h103" id="am"/><path d="M117-194c89-4 53 116 60 194h-32v-121c0-31-8-49-39-48C34-167 62-67 57 0H25l-1-190h30c1 10-1 24 2 32 11-22 29-35 61-36" id="an"/><g id="b"><use transform="matrix(0.05,0,0,0.05,0,0)" xlink:href="#ai"/><use transform="matrix(0.05,0,0,0.05,12,0)" xlink:href="#aj"/><use transform="matrix(0.05,0,0,0.05,22,0)" xlink:href="#ak"/><use transform="matrix(0.05,0,0,0.05,27,0)" xlink:href="#al"/><use transform="matrix(0.05,0,0,0.05,30.950000000000003,0)" xlink:href="#am"/><use transform="matrix(0.05,0,0,0.05,40.95,0)" xlink:href="#an"/><use transform="matrix(0.05,0,0,0.05,50.95,0)" xlink:href="#ak"/></g><path d="M101-251c82-7 93 87 43 132L82-64C71-53 59-42 53-27h129V0H18c2-99 128-94 128-182 0-28-16-43-45-43s-46 15-49 41l-32-3c6-41 34-60 81-64" id="ao"/><use transform="matrix(0.05,0,0,0.05,0,0)" xlink:href="#ao" id="c"/><path fill="#333" d="M30 0v-248h187v28H63v79h144v27H63v87h162V0H30" id="ap"/><path fill="#333" d="M33 0v-248h34V0H33" id="aq"/><path fill="#333" d="M30-248c118-7 216 8 213 122C240-48 200 0 122 0H30v-248zM63-27c89 8 146-16 146-99s-60-101-146-95v194" id="ar"/><path fill="#333" d="M33-154v-36h34v36H33zM33 0v-36h34V0H33" id="as"/><path fill="#333" d="M205 0l-28-72H64L36 0H1l101-248h38L239 0h-34zm-38-99l-47-123c-12 45-31 82-46 123h93" id="at"/><g id="d"><use transform="matrix(0.05,0,0,0.05,0,0)" xlink:href="#ap"/><use transform="matrix(0.05,0,0,0.05,12,0)" xlink:href="#aq"/><use transform="matrix(0.05,0,0,0.05,17,0)" xlink:href="#ar"/><use transform="matrix(0.05,0,0,0.05,29.950000000000003,0)" xlink:href="#as"/><use transform="matrix(0.05,0,0,0.05,34.95,0)" xlink:href="#at"/></g><path d="M27 0v-27h64v-190l-56 39v-29l58-41h29v221h61V0H27" id="au"/><use transform="matrix(0.05,0,0,0.05,0,0)" xlink:href="#au" id="e"/><path fill="#333" d="M24 0v-248h195v40H76v63h132v40H76v65h150V0H24" id="av"/><path fill="#333" d="M135-194c87-1 58 113 63 194h-50c-7-57 23-157-34-157-59 0-34 97-39 157H25l-1-190h47c2 12-1 28 3 38 12-26 28-41 61-42" id="aw"/><path fill="#333" d="M88-194c31-1 46 15 58 34l-1-101h50l1 261h-48c-2-10 0-23-3-31C134-8 116 4 84 4 32 4 16-41 15-95c0-56 19-97 73-99zm17 164c33 0 40-30 41-66 1-37-9-64-41-64s-38 30-39 65c0 43 13 65 39 65" id="ax"/><g id="f"><use transform="matrix(0.05,0,0,0.05,0,0)" xlink:href="#av"/><use transform="matrix(0.05,0,0,0.05,12,0)" xlink:href="#aw"/><use transform="matrix(0.05,0,0,0.05,22.950000000000003,0)" xlink:href="#ax"/></g><path fill="#333" d="M169-182c-1-43-94-46-97-3 18 66 151 10 154 114 3 95-165 93-204 36-6-8-10-19-12-30l50-8c3 46 112 56 116 5-17-69-150-10-154-114-4-87 153-88 188-35 5 8 8 18 10 28" id="ay"/><path fill="#333" d="M115-3C79 11 28 4 28-45v-112H4v-33h27l15-45h31v45h36v33H77v99c-1 23 16 31 38 25v30" id="az"/><path fill="#333" d="M133-34C117-15 103 5 69 4 32 3 11-16 11-54c-1-60 55-63 116-61 1-26-3-47-28-47-18 1-26 9-28 27l-52-2c7-38 36-58 82-57s74 22 75 68l1 82c-1 14 12 18 25 15v27c-30 8-71 5-69-32zm-48 3c29 0 43-24 42-57-32 0-66-3-65 30 0 17 8 27 23 27" id="aA"/><path fill="#333" d="M185-48c-13 30-37 53-82 52C43 2 14-33 14-96s30-98 90-98c62 0 83 45 84 108H66c0 31 8 55 39 56 18 0 30-7 34-22zm-45-69c5-46-57-63-70-21-2 6-4 13-4 21h74" id="aB"/><g id="g"><use transform="matrix(0.05,0,0,0.05,0,0)" xlink:href="#ay"/><use transform="matrix(0.05,0,0,0.05,12,0)" xlink:href="#az"/><use transform="matrix(0.05,0,0,0.05,17.95,0)" xlink:href="#aA"/><use transform="matrix(0.05,0,0,0.05,27.950000000000003,0)" xlink:href="#az"/><use transform="matrix(0.05,0,0,0.05,33.9,0)" xlink:href="#aB"/></g><g id="h"><use transform="matrix(0.05,0,0,0.05,0,0)" xlink:href="#ai"/><use transform="matrix(0.05,0,0,0.05,12,0)" xlink:href="#aj"/><use transform="matrix(0.05,0,0,0.05,22,0)" xlink:href="#ak"/><use transform="matrix(0.05,0,0,0.05,27,0)" xlink:href="#al"/><use transform="matrix(0.05,0,0,0.05,30.950000000000003,0)" xlink:href="#am"/><use transform="matrix(0.05,0,0,0.05,40.95,0)" xlink:href="#an"/><use transform="matrix(0.05,0,0,0.05,50.95,0)" xlink:href="#ak"/></g><path d="M143 4C61 4 22-44 18-125c-5-107 100-154 193-111 17 8 29 25 37 43l-32 9c-13-25-37-40-76-40-61 0-88 39-88 99 0 61 29 100 91 101 35 0 62-11 79-27v-45h-74v-28h105v86C228-13 192 4 143 4" id="aC"/><path d="M100-194c62-1 85 37 85 99 1 63-27 99-86 99S16-35 15-95c0-66 28-99 85-99zM99-20c44 1 53-31 53-75 0-43-8-75-51-75s-53 32-53 75 10 74 51 75" id="aD"/><path d="M24 0v-261h32V0H24" id="aE"/><path d="M85-194c31 0 48 13 60 33l-1-100h32l1 261h-30c-2-10 0-23-3-31C134-8 116 4 85 4 32 4 16-35 15-94c0-66 23-100 70-100zm9 24c-40 0-46 34-46 75 0 40 6 74 45 74 42 0 51-32 51-76 0-42-9-74-50-73" id="aF"/><g id="i"><use transform="matrix(0.031481481481481485,0,0,0.031481481481481485,0,0)" xlink:href="#aC"/><use transform="matrix(0.031481481481481485,0,0,0.031481481481481485,8.814814814814817,0)" xlink:href="#aD"/><use transform="matrix(0.031481481481481485,0,0,0.031481481481481485,15.111111111111114,0)" xlink:href="#aE"/><use transform="matrix(0.031481481481481485,0,0,0.031481481481481485,17.59814814814815,0)" xlink:href="#aF"/><use transform="matrix(0.031481481481481485,0,0,0.031481481481481485,23.89444444444445,0)" xlink:href="#am"/><use transform="matrix(0.031481481481481485,0,0,0.031481481481481485,30.190740740740747,0)" xlink:href="#an"/></g><path d="M233-177c-1 41-23 64-60 70L243 0h-38l-65-103H63V0H30v-248c88 3 205-21 203 71zM63-129c60-2 137 13 137-47 0-61-80-42-137-45v92" id="aG"/><path d="M96-169c-40 0-48 33-48 73s9 75 48 75c24 0 41-14 43-38l32 2c-6 37-31 61-74 61-59 0-76-41-82-99-10-93 101-131 147-64 4 7 5 14 7 22l-32 3c-4-21-16-35-41-35" id="aH"/><path d="M114-163C36-179 61-72 57 0H25l-1-190h30c1 12-1 29 2 39 6-27 23-49 58-41v29" id="aI"/><g id="j"><use transform="matrix(0.031481481481481485,0,0,0.031481481481481485,0,0)" xlink:href="#aG"/><use transform="matrix(0.031481481481481485,0,0,0.031481481481481485,8.153703703703705,0)" xlink:href="#am"/><use transform="matrix(0.031481481481481485,0,0,0.031481481481481485,14.450000000000003,0)" xlink:href="#aH"/><use transform="matrix(0.031481481481481485,0,0,0.031481481481481485,20.11666666666667,0)" xlink:href="#aD"/><use transform="matrix(0.031481481481481485,0,0,0.031481481481481485,26.41296296296297,0)" xlink:href="#aI"/><use transform="matrix(0.031481481481481485,0,0,0.031481481481481485,30.159259259259265,0)" xlink:href="#aF"/></g><path d="M33 0v-248h34V0H33" id="aJ"/><path d="M210-169c-67 3-38 105-44 169h-31v-121c0-29-5-50-35-48C34-165 62-65 56 0H25l-1-190h30c1 10-1 24 2 32 10-44 99-50 107 0 11-21 27-35 58-36 85-2 47 119 55 194h-31v-121c0-29-5-49-35-48" id="aK"/><path d="M177-190C167-65 218 103 67 71c-23-6-38-20-44-43l32-5c15 47 100 32 89-28v-30C133-14 115 1 83 1 29 1 15-40 15-95c0-56 16-97 71-98 29-1 48 16 59 35 1-10 0-23 2-32h30zM94-22c36 0 50-32 50-73 0-42-14-75-50-75-39 0-46 34-46 75s6 73 46 73" id="aL"/><g id="k"><use transform="matrix(0.048148148148148155,0,0,0.048148148148148155,0,0)" xlink:href="#aJ"/><use transform="matrix(0.048148148148148155,0,0,0.048148148148148155,4.814814814814816,0)" xlink:href="#an"/><use transform="matrix(0.048148148148148155,0,0,0.048148148148148155,14.444444444444446,0)" xlink:href="#aH"/><use transform="matrix(0.048148148148148155,0,0,0.048148148148148155,23.111111111111114,0)" xlink:href="#aD"/><use transform="matrix(0.048148148148148155,0,0,0.048148148148148155,32.74074074074075,0)" xlink:href="#aK"/><use transform="matrix(0.048148148148148155,0,0,0.048148148148148155,47.13703703703705,0)" xlink:href="#al"/><use transform="matrix(0.048148148148148155,0,0,0.048148148148148155,50.94074074074075,0)" xlink:href="#an"/><use transform="matrix(0.048148148148148155,0,0,0.048148148148148155,60.57037037037038,0)" xlink:href="#aL"/></g><g id="l"><use transform="matrix(0.048148148148148155,0,0,0.048148148148148155,0,0)" xlink:href="#ai"/><use transform="matrix(0.048148148148148155,0,0,0.048148148148148155,11.555555555555557,0)" xlink:href="#aj"/><use transform="matrix(0.048148148148148155,0,0,0.048148148148148155,21.18518518518519,0)" xlink:href="#ak"/><use transform="matrix(0.048148148148148155,0,0,0.048148148148148155,26.00000000000001,0)" xlink:href="#al"/><use transform="matrix(0.048148148148148155,0,0,0.048148148148148155,29.803703703703714,0)" xlink:href="#am"/><use transform="matrix(0.048148148148148155,0,0,0.048148148148148155,39.433333333333344,0)" xlink:href="#an"/><use transform="matrix(0.048148148148148155,0,0,0.048148148148148155,49.06296296296298,0)" xlink:href="#ak"/></g><path d="M206 0h-36l-40-164L89 0H53L-1-190h32L70-26l43-164h34l41 164 42-164h31" id="aM"/><path d="M106-169C34-169 62-67 57 0H25v-261h32l-1 103c12-21 28-36 61-36 89 0 53 116 60 194h-32v-121c2-32-8-49-39-48" id="aN"/><g id="m"><use transform="matrix(0.048148148148148155,0,0,0.048148148148148155,0,0)" xlink:href="#aM"/><use transform="matrix(0.048148148148148155,0,0,0.048148148148148155,12.470370370370372,0)" xlink:href="#al"/><use transform="matrix(0.048148148148148155,0,0,0.048148148148148155,16.274074074074075,0)" xlink:href="#ak"/><use transform="matrix(0.048148148148148155,0,0,0.048148148148148155,21.088888888888892,0)" xlink:href="#aN"/></g><g id="n"><use transform="matrix(0.048148148148148155,0,0,0.048148148148148155,0,0)" xlink:href="#aj"/><use transform="matrix(0.048148148148148155,0,0,0.048148148148148155,9.629629629629632,0)" xlink:href="#an"/></g><path d="M141 0L90-78 38 0H4l68-98-65-92h35l48 74 47-74h35l-64 92 68 98h-35" id="aO"/><g id="o"><use transform="matrix(0.048148148148148155,0,0,0.048148148148148155,0,0)" xlink:href="#am"/><use transform="matrix(0.048148148148148155,0,0,0.048148148148148155,9.629629629629632,0)" xlink:href="#aO"/><use transform="matrix(0.048148148148148155,0,0,0.048148148148148155,18.296296296296298,0)" xlink:href="#ak"/><use transform="matrix(0.048148148148148155,0,0,0.048148148148148155,23.111111111111114,0)" xlink:href="#am"/><use transform="matrix(0.048148148148148155,0,0,0.048148148148148155,32.74074074074075,0)" xlink:href="#aI"/><use transform="matrix(0.048148148148148155,0,0,0.048148148148148155,38.470370370370375,0)" xlink:href="#an"/><use transform="matrix(0.048148148148148155,0,0,0.048148148148148155,48.10000000000001,0)" xlink:href="#aj"/><use transform="matrix(0.048148148148148155,0,0,0.048148148148148155,57.729629629629635,0)" xlink:href="#aE"/></g><path d="M30 0v-248h187v28H63v79h144v27H63v87h162V0H30" id="aP"/><path d="M30-248c118-7 216 8 213 122C240-48 200 0 122 0H30v-248zM63-27c89 8 146-16 146-99s-60-101-146-95v194" id="aQ"/><path d="M68-38c1 34 0 65-14 84H32c9-13 17-26 17-46H33v-38h35" id="aR"/><g id="p"><use transform="matrix(0.048148148148148155,0,0,0.048148148148148155,0,0)" xlink:href="#aP"/><use transform="matrix(0.048148148148148155,0,0,0.048148148148148155,11.555555555555557,0)" xlink:href="#aJ"/><use transform="matrix(0.048148148148148155,0,0,0.048148148148148155,16.370370370370374,0)" xlink:href="#aQ"/><use transform="matrix(0.048148148148148155,0,0,0.048148148148148155,28.840740740740745,0)" xlink:href="#aR"/></g><g id="q"><use transform="matrix(0.048148148148148155,0,0,0.048148148148148155,0,0)" xlink:href="#aj"/><use transform="matrix(0.048148148148148155,0,0,0.048148148148148155,9.629629629629632,0)" xlink:href="#an"/><use transform="matrix(0.048148148148148155,0,0,0.048148148148148155,19.259259259259263,0)" xlink:href="#aF"/></g><g id="r"><use transform="matrix(0.048148148148148155,0,0,0.048148148148148155,0,0)" xlink:href="#ak"/><use transform="matrix(0.048148148148148155,0,0,0.048148148148148155,4.814814814814816,0)" xlink:href="#aN"/><use transform="matrix(0.048148148148148155,0,0,0.048148148148148155,14.444444444444446,0)" xlink:href="#aj"/><use transform="matrix(0.048148148148148155,0,0,0.048148148148148155,24.074074074074076,0)" xlink:href="#ak"/></g><g id="s"><use transform="matrix(0.048148148148148155,0,0,0.048148148148148155,0,0)" xlink:href="#aP"/><use transform="matrix(0.048148148148148155,0,0,0.048148148148148155,11.555555555555557,0)" xlink:href="#aJ"/><use transform="matrix(0.048148148148148155,0,0,0.048148148148148155,16.370370370370374,0)" xlink:href="#aQ"/></g><path d="M135-143c-3-34-86-38-87 0 15 53 115 12 119 90S17 21 10-45l28-5c4 36 97 45 98 0-10-56-113-15-118-90-4-57 82-63 122-42 12 7 21 19 24 35" id="aS"/><g id="t"><use transform="matrix(0.048148148148148155,0,0,0.048148148148148155,0,0)" xlink:href="#al"/><use transform="matrix(0.048148148148148155,0,0,0.048148148148148155,3.8037037037037043,0)" xlink:href="#aS"/></g><path d="M179-190L93 31C79 59 56 82 12 73V49c39 6 53-20 64-50L1-190h34L92-34l54-156h33" id="aT"/><g id="u"><use transform="matrix(0.048148148148148155,0,0,0.048148148148148155,0,0)" xlink:href="#aj"/><use transform="matrix(0.048148148148148155,0,0,0.048148148148148155,9.629629629629632,0)" xlink:href="#aE"/><use transform="matrix(0.048148148148148155,0,0,0.048148148148148155,13.433333333333335,0)" xlink:href="#aI"/><use transform="matrix(0.048148148148148155,0,0,0.048148148148148155,19.162962962962965,0)" xlink:href="#am"/><use transform="matrix(0.048148148148148155,0,0,0.048148148148148155,28.792592592592598,0)" xlink:href="#aj"/><use transform="matrix(0.048148148148148155,0,0,0.048148148148148155,38.42222222222223,0)" xlink:href="#aF"/><use transform="matrix(0.048148148148148155,0,0,0.048148148148148155,48.051851851851865,0)" xlink:href="#aT"/></g><path d="M143 0L79-87 56-68V0H24v-261h32v163l83-92h37l-77 82L181 0h-38" id="aU"/><g id="v"><use transform="matrix(0.048148148148148155,0,0,0.048148148148148155,0,0)" xlink:href="#aU"/><use transform="matrix(0.048148148148148155,0,0,0.048148148148148155,8.666666666666668,0)" xlink:href="#an"/><use transform="matrix(0.048148148148148155,0,0,0.048148148148148155,18.296296296296298,0)" xlink:href="#aD"/><use transform="matrix(0.048148148148148155,0,0,0.048148148148148155,27.92592592592593,0)" xlink:href="#aM"/><use transform="matrix(0.048148148148148155,0,0,0.048148148148148155,40.3962962962963,0)" xlink:href="#an"/></g><g id="w"><use transform="matrix(0.048148148148148155,0,0,0.048148148148148155,0,0)" xlink:href="#al"/><use transform="matrix(0.048148148148148155,0,0,0.048148148148148155,3.8037037037037043,0)" xlink:href="#an"/></g><path d="M84 4C-5 8 30-112 23-190h32v120c0 31 7 50 39 49 72-2 45-101 50-169h31l1 190h-30c-1-10 1-25-2-33-11 22-28 36-60 37" id="aV"/><g id="x"><use transform="matrix(0.048148148148148155,0,0,0.048148148148148155,0,0)" xlink:href="#aD"/><use transform="matrix(0.048148148148148155,0,0,0.048148148148148155,9.629629629629632,0)" xlink:href="#aV"/><use transform="matrix(0.048148148148148155,0,0,0.048148148148148155,19.259259259259263,0)" xlink:href="#aI"/></g><path d="M33 0v-38h34V0H33" id="aW"/><g id="y"><use transform="matrix(0.048148148148148155,0,0,0.048148148148148155,0,0)" xlink:href="#aS"/><use transform="matrix(0.048148148148148155,0,0,0.048148148148148155,8.666666666666668,0)" xlink:href="#aT"/><use transform="matrix(0.048148148148148155,0,0,0.048148148148148155,17.333333333333336,0)" xlink:href="#aS"/><use transform="matrix(0.048148148148148155,0,0,0.048148148148148155,26.000000000000004,0)" xlink:href="#ak"/><use transform="matrix(0.048148148148148155,0,0,0.048148148148148155,30.81481481481482,0)" xlink:href="#am"/><use transform="matrix(0.048148148148148155,0,0,0.048148148148148155,40.44444444444445,0)" xlink:href="#aK"/><use transform="matrix(0.048148148148148155,0,0,0.048148148148148155,54.84074074074075,0)" xlink:href="#aW"/></g><path fill="#333" d="M135-150c-39-12-60 13-60 57V0H25l-1-190h47c2 13-1 29 3 40 6-28 27-53 61-41v41" id="aX"/><g id="z"><use transform="matrix(0.05,0,0,0.05,0,0)" xlink:href="#ay"/><use transform="matrix(0.05,0,0,0.05,12,0)" xlink:href="#az"/><use transform="matrix(0.05,0,0,0.05,17.95,0)" xlink:href="#aA"/><use transform="matrix(0.05,0,0,0.05,27.950000000000003,0)" xlink:href="#aX"/><use transform="matrix(0.05,0,0,0.05,34.95,0)" xlink:href="#az"/></g><path fill="#333" d="M199 0l-22-63H83L61 0H9l90-248h61L250 0h-51zm-33-102l-36-108c-10 38-24 72-36 108h72" id="aY"/><path fill="#333" d="M190-63c-7 42-38 67-86 67-59 0-84-38-90-98-12-110 154-137 174-36l-49 2c-2-19-15-32-35-32-30 0-35 28-38 64-6 74 65 87 74 30" id="aZ"/><path fill="#333" d="M25-224v-37h50v37H25zM25 0v-190h50V0H25" id="ba"/><path fill="#333" d="M110-194c64 0 96 36 96 99 0 64-35 99-97 99-61 0-95-36-95-99 0-62 34-99 96-99zm-1 164c35 0 45-28 45-65 0-40-10-65-43-65-34 0-45 26-45 65 0 36 10 65 43 65" id="bb"/><g id="A"><use transform="matrix(0.05,0,0,0.05,0,0)" xlink:href="#aY"/><use transform="matrix(0.05,0,0,0.05,12.950000000000001,0)" xlink:href="#aZ"/><use transform="matrix(0.05,0,0,0.05,22.950000000000003,0)" xlink:href="#az"/><use transform="matrix(0.05,0,0,0.05,28.900000000000002,0)" xlink:href="#ba"/><use transform="matrix(0.05,0,0,0.05,33.900000000000006,0)" xlink:href="#bb"/><use transform="matrix(0.05,0,0,0.05,44.85000000000001,0)" xlink:href="#aw"/></g><g id="B"><use transform="matrix(0.048148148148148155,0,0,0.048148148148148155,0,0)" xlink:href="#ai"/><use transform="matrix(0.048148148148148155,0,0,0.048148148148148155,11.555555555555557,0)" xlink:href="#aj"/><use transform="matrix(0.048148148148148155,0,0,0.048148148148148155,21.18518518518519,0)" xlink:href="#ak"/><use transform="matrix(0.048148148148148155,0,0,0.048148148148148155,26.00000000000001,0)" xlink:href="#al"/><use transform="matrix(0.048148148148148155,0,0,0.048148148148148155,29.803703703703714,0)" xlink:href="#am"/><use transform="matrix(0.048148148148148155,0,0,0.048148148148148155,39.433333333333344,0)" xlink:href="#an"/><use transform="matrix(0.048148148148148155,0,0,0.048148148148148155,49.06296296296298,0)" xlink:href="#ak"/></g><g id="C"><use transform="matrix(0.048148148148148155,0,0,0.048148148148148155,0,0)" xlink:href="#aK"/><use transform="matrix(0.048148148148148155,0,0,0.048148148148148155,14.396296296296299,0)" xlink:href="#aj"/><use transform="matrix(0.048148148148148155,0,0,0.048148148148148155,24.025925925925932,0)" xlink:href="#ak"/><use transform="matrix(0.048148148148148155,0,0,0.048148148148148155,28.84074074074075,0)" xlink:href="#aH"/><use transform="matrix(0.048148148148148155,0,0,0.048148148148148155,37.50740740740741,0)" xlink:href="#aN"/><use transform="matrix(0.048148148148148155,0,0,0.048148148148148155,47.13703703703705,0)" xlink:href="#am"/><use transform="matrix(0.048148148148148155,0,0,0.048148148148148155,56.76666666666667,0)" xlink:href="#aS"/></g><g id="D"><use transform="matrix(0.048148148148148155,0,0,0.048148148148148155,0,0)" xlink:href="#ak"/><use transform="matrix(0.048148148148148155,0,0,0.048148148148148155,4.814814814814816,0)" xlink:href="#aD"/></g><g id="E"><use transform="matrix(0.048148148148148155,0,0,0.048148148148148155,0,0)" xlink:href="#am"/><use transform="matrix(0.048148148148148155,0,0,0.048148148148148155,9.629629629629632,0)" xlink:href="#aO"/><use transform="matrix(0.048148148148148155,0,0,0.048148148148148155,18.296296296296298,0)" xlink:href="#al"/><use transform="matrix(0.048148148148148155,0,0,0.048148148148148155,22.1,0)" xlink:href="#aS"/><use transform="matrix(0.048148148148148155,0,0,0.048148148148148155,30.766666666666673,0)" xlink:href="#ak"/><use transform="matrix(0.048148148148148155,0,0,0.048148148148148155,35.58148148148148,0)" xlink:href="#al"/><use transform="matrix(0.048148148148148155,0,0,0.048148148148148155,39.385185185185186,0)" xlink:href="#an"/><use transform="matrix(0.048148148148148155,0,0,0.048148148148148155,49.01481481481482,0)" xlink:href="#aL"/></g><g id="F"><use transform="matrix(0.048148148148148155,0,0,0.048148148148148155,0,0)" xlink:href="#aC"/><use transform="matrix(0.048148148148148155,0,0,0.048148148148148155,13.481481481481483,0)" xlink:href="#aD"/><use transform="matrix(0.048148148148148155,0,0,0.048148148148148155,23.111111111111114,0)" xlink:href="#aE"/><use transform="matrix(0.048148148148148155,0,0,0.048148148148148155,26.914814814814818,0)" xlink:href="#aF"/><use transform="matrix(0.048148148148148155,0,0,0.048148148148148155,36.54444444444445,0)" xlink:href="#am"/><use transform="matrix(0.048148148148148155,0,0,0.048148148148148155,46.174074074074085,0)" xlink:href="#an"/></g><g id="G"><use transform="matrix(0.048148148148148155,0,0,0.048148148148148155,0,0)" xlink:href="#aG"/><use transform="matrix(0.048148148148148155,0,0,0.048148148148148155,12.470370370370372,0)" xlink:href="#am"/><use transform="matrix(0.048148148148148155,0,0,0.048148148148148155,22.1,0)" xlink:href="#aH"/><use transform="matrix(0.048148148148148155,0,0,0.048148148148148155,30.766666666666673,0)" xlink:href="#aD"/><use transform="matrix(0.048148148148148155,0,0,0.048148148148148155,40.3962962962963,0)" xlink:href="#aI"/><use transform="matrix(0.048148148148148155,0,0,0.048148148148148155,46.12592592592593,0)" xlink:href="#aF"/></g><path d="M115-194c53 0 69 39 70 98 0 66-23 100-70 100C84 3 66-7 56-30L54 0H23l1-261h32v101c10-23 28-34 59-34zm-8 174c40 0 45-34 45-75 0-40-5-75-45-74-42 0-51 32-51 76 0 43 10 73 51 73" id="bc"/><g id="H"><use transform="matrix(0.048148148148148155,0,0,0.048148148148148155,0,0)" xlink:href="#bc"/><use transform="matrix(0.048148148148148155,0,0,0.048148148148148155,9.629629629629632,0)" xlink:href="#aj"/><use transform="matrix(0.048148148148148155,0,0,0.048148148148148155,19.259259259259263,0)" xlink:href="#aS"/><use transform="matrix(0.048148148148148155,0,0,0.048148148148148155,27.92592592592593,0)" xlink:href="#am"/><use transform="matrix(0.048148148148148155,0,0,0.048148148148148155,37.555555555555564,0)" xlink:href="#aF"/></g><g id="I"><use transform="matrix(0.048148148148148155,0,0,0.048148148148148155,0,0)" xlink:href="#aD"/><use transform="matrix(0.048148148148148155,0,0,0.048148148148148155,9.629629629629632,0)" xlink:href="#an"/></g><g id="J"><use transform="matrix(0.048148148148148155,0,0,0.048148148148148155,0,0)" xlink:href="#aK"/><use transform="matrix(0.048148148148148155,0,0,0.048148148148148155,14.396296296296299,0)" xlink:href="#aj"/><use transform="matrix(0.048148148148148155,0,0,0.048148148148148155,24.025925925925932,0)" xlink:href="#ak"/><use transform="matrix(0.048148148148148155,0,0,0.048148148148148155,28.84074074074075,0)" xlink:href="#aH"/><use transform="matrix(0.048148148148148155,0,0,0.048148148148148155,37.50740740740741,0)" xlink:href="#aN"/><use transform="matrix(0.048148148148148155,0,0,0.048148148148148155,47.13703703703705,0)" xlink:href="#aR"/></g><g id="K"><use transform="matrix(0.048148148148148155,0,0,0.048148148148148155,0,0)" xlink:href="#aj"/><use transform="matrix(0.048148148148148155,0,0,0.048148148148148155,9.629629629629632,0)" xlink:href="#an"/><use transform="matrix(0.048148148148148155,0,0,0.048148148148148155,19.259259259259263,0)" xlink:href="#aF"/></g><g id="L"><use transform="matrix(0.048148148148148155,0,0,0.048148148148148155,0,0)" xlink:href="#aE"/><use transform="matrix(0.048148148148148155,0,0,0.048148148148148155,3.8037037037037043,0)" xlink:href="#al"/><use transform="matrix(0.048148148148148155,0,0,0.048148148148148155,7.6074074074074085,0)" xlink:href="#an"/><use transform="matrix(0.048148148148148155,0,0,0.048148148148148155,17.23703703703704,0)" xlink:href="#aU"/><use transform="matrix(0.048148148148148155,0,0,0.048148148148148155,25.90370370370371,0)" xlink:href="#am"/><use transform="matrix(0.048148148148148155,0,0,0.048148148148148155,35.53333333333334,0)" xlink:href="#aF"/></g><g id="M"><use transform="matrix(0.048148148148148155,0,0,0.048148148148148155,0,0)" xlink:href="#al"/><use transform="matrix(0.048148148148148155,0,0,0.048148148148148155,3.8037037037037043,0)" xlink:href="#ak"/><use transform="matrix(0.048148148148148155,0,0,0.048148148148148155,8.61851851851852,0)" xlink:href="#aW"/></g><g id="N"><use transform="matrix(0.048148148148148155,0,0,0.048148148148148155,0,0)" xlink:href="#aP"/><use transform="matrix(0.048148148148148155,0,0,0.048148148148148155,11.555555555555557,0)" xlink:href="#aJ"/><use transform="matrix(0.048148148148148155,0,0,0.048148148148148155,16.370370370370374,0)" xlink:href="#aQ"/><use transform="matrix(0.048148148148148155,0,0,0.048148148148148155,28.840740740740745,0)" xlink:href="#aW"/></g><path d="M127-220V0H93v-220H8v-28h204v28h-85" id="bd"/><g id="O"><use transform="matrix(0.048148148148148155,0,0,0.048148148148148155,0,0)" xlink:href="#bd"/><use transform="matrix(0.048148148148148155,0,0,0.048148148148148155,10.544444444444446,0)" xlink:href="#aN"/><use transform="matrix(0.048148148148148155,0,0,0.048148148148148155,20.174074074074078,0)" xlink:href="#al"/><use transform="matrix(0.048148148148148155,0,0,0.048148148148148155,23.97777777777778,0)" xlink:href="#aS"/></g><use transform="matrix(0.048148148148148155,0,0,0.048148148148148155,0,0)" xlink:href="#aj" id="P"/><g id="Q"><use transform="matrix(0.048148148148148155,0,0,0.048148148148148155,0,0)" xlink:href="#aG"/><use transform="matrix(0.048148148148148155,0,0,0.048148148148148155,12.470370370370372,0)" xlink:href="#am"/><use transform="matrix(0.048148148148148155,0,0,0.048148148148148155,22.1,0)" xlink:href="#aH"/><use transform="matrix(0.048148148148148155,0,0,0.048148148148148155,30.766666666666673,0)" xlink:href="#aD"/><use transform="matrix(0.048148148148148155,0,0,0.048148148148148155,40.3962962962963,0)" xlink:href="#aI"/><use transform="matrix(0.048148148148148155,0,0,0.048148148148148155,46.12592592592593,0)" xlink:href="#aF"/><use transform="matrix(0.048148148148148155,0,0,0.048148148148148155,55.75555555555557,0)" xlink:href="#aR"/></g><g id="R"><use transform="matrix(0.048148148148148155,0,0,0.048148148148148155,0,0)" xlink:href="#ak"/><use transform="matrix(0.048148148148148155,0,0,0.048148148148148155,4.814814814814816,0)" xlink:href="#aN"/><use transform="matrix(0.048148148148148155,0,0,0.048148148148148155,14.444444444444446,0)" xlink:href="#am"/></g><g id="S"><use transform="matrix(0.048148148148148155,0,0,0.048148148148148155,0,0)" xlink:href="#aI"/><use transform="matrix(0.048148148148148155,0,0,0.048148148148148155,5.72962962962963,0)" xlink:href="#am"/><use transform="matrix(0.048148148148148155,0,0,0.048148148148148155,15.359259259259261,0)" xlink:href="#aE"/><use transform="matrix(0.048148148148148155,0,0,0.048148148148148155,19.162962962962965,0)" xlink:href="#aj"/><use transform="matrix(0.048148148148148155,0,0,0.048148148148148155,28.792592592592598,0)" xlink:href="#ak"/><use transform="matrix(0.048148148148148155,0,0,0.048148148148148155,33.607407407407415,0)" xlink:href="#am"/><use transform="matrix(0.048148148148148155,0,0,0.048148148148148155,43.23703703703705,0)" xlink:href="#aF"/></g><path d="M115-194c55 1 70 41 70 98S169 2 115 4C84 4 66-9 55-30l1 105H24l-1-265h31l2 30c10-21 28-34 59-34zm-8 174c40 0 45-34 45-75s-6-73-45-74c-42 0-51 32-51 76 0 43 10 73 51 73" id="be"/><g id="T"><use transform="matrix(0.048148148148148155,0,0,0.048148148148148155,0,0)" xlink:href="#be"/><use transform="matrix(0.048148148148148155,0,0,0.048148148148148155,9.629629629629632,0)" xlink:href="#am"/><use transform="matrix(0.048148148148148155,0,0,0.048148148148148155,19.259259259259263,0)" xlink:href="#aI"/><use transform="matrix(0.048148148148148155,0,0,0.048148148148148155,24.988888888888894,0)" xlink:href="#aS"/><use transform="matrix(0.048148148148148155,0,0,0.048148148148148155,33.655555555555566,0)" xlink:href="#aD"/><use transform="matrix(0.048148148148148155,0,0,0.048148148148148155,43.2851851851852,0)" xlink:href="#an"/></g><g id="U"><use transform="matrix(0.048148148148148155,0,0,0.048148148148148155,0,0)" xlink:href="#aD"/><use transform="matrix(0.048148148148148155,0,0,0.048148148148148155,9.629629629629632,0)" xlink:href="#an"/><use transform="matrix(0.048148148148148155,0,0,0.048148148148148155,19.259259259259263,0)" xlink:href="#aE"/><use transform="matrix(0.048148148148148155,0,0,0.048148148148148155,23.062962962962967,0)" xlink:href="#aT"/></g><g id="V"><use transform="matrix(0.048148148148148155,0,0,0.048148148148148155,0,0)" xlink:href="#aN"/><use transform="matrix(0.048148148148148155,0,0,0.048148148148148155,9.629629629629632,0)" xlink:href="#aj"/><use transform="matrix(0.048148148148148155,0,0,0.048148148148148155,19.259259259259263,0)" xlink:href="#aS"/></g><g id="W"><use transform="matrix(0.048148148148148155,0,0,0.048148148148148155,0,0)" xlink:href="#al"/><use transform="matrix(0.048148148148148155,0,0,0.048148148148148155,3.8037037037037043,0)" xlink:href="#an"/><use transform="matrix(0.048148148148148155,0,0,0.048148148148148155,13.433333333333335,0)" xlink:href="#ak"/><use transform="matrix(0.048148148148148155,0,0,0.048148148148148155,18.24814814814815,0)" xlink:href="#am"/><use transform="matrix(0.048148148148148155,0,0,0.048148148148148155,27.877777777777784,0)" xlink:href="#aI"/><use transform="matrix(0.048148148148148155,0,0,0.048148148148148155,33.60740740740741,0)" xlink:href="#an"/><use transform="matrix(0.048148148148148155,0,0,0.048148148148148155,43.23703703703704,0)" xlink:href="#aj"/><use transform="matrix(0.048148148148148155,0,0,0.048148148148148155,52.866666666666674,0)" xlink:href="#aE"/></g><g id="X"><use transform="matrix(0.048148148148148155,0,0,0.048148148148148155,0,0)" xlink:href="#aP"/><use transform="matrix(0.048148148148148155,0,0,0.048148148148148155,11.555555555555557,0)" xlink:href="#aJ"/><use transform="matrix(0.048148148148148155,0,0,0.048148148148148155,16.370370370370374,0)" xlink:href="#aQ"/><use transform="matrix(0.048148148148148155,0,0,0.048148148148148155,28.840740740740745,0)" xlink:href="#aW"/></g><path fill="#333" d="M67-125c0 53 21 87 73 88 37 1 54-22 65-47l45 17C233-25 199 4 140 4 58 4 20-42 15-125 8-235 124-281 211-232c18 10 29 29 36 50l-46 12c-8-25-30-41-62-41-52 0-71 34-72 86" id="bf"/><g id="Y"><use transform="matrix(0.06790123456790124,0,0,0.06790123456790124,0,0)" xlink:href="#bf"/><use transform="matrix(0.06790123456790124,0,0,0.06790123456790124,17.58641975308642,0)" xlink:href="#aX"/><use transform="matrix(0.06790123456790124,0,0,0.06790123456790124,27.092592592592595,0)" xlink:href="#aB"/><use transform="matrix(0.06790123456790124,0,0,0.06790123456790124,40.67283950617284,0)" xlink:href="#aA"/><use transform="matrix(0.06790123456790124,0,0,0.06790123456790124,54.25308641975309,0)" xlink:href="#az"/><use transform="matrix(0.06790123456790124,0,0,0.06790123456790124,62.333333333333336,0)" xlink:href="#aB"/></g><path fill="#333" d="M238-95c0 69-44 99-111 99C63 4 22-25 22-93v-155h51v151c-1 38 19 59 55 60 90 1 49-130 58-211h52v153" id="bg"/><path fill="#333" d="M137-138c1-29-70-34-71-4 15 46 118 7 119 86 1 83-164 76-172 9l43-7c4 19 20 25 44 25 33 8 57-30 24-41C81-84 22-81 20-136c-2-80 154-74 161-7" id="bh"/><g id="Z"><use transform="matrix(0.06790123456790124,0,0,0.06790123456790124,0,0)" xlink:href="#bg"/><use transform="matrix(0.06790123456790124,0,0,0.06790123456790124,17.58641975308642,0)" xlink:href="#bh"/><use transform="matrix(0.06790123456790124,0,0,0.06790123456790124,31.16666666666667,0)" xlink:href="#aB"/></g><g id="aa"><use transform="matrix(0.06790123456790124,0,0,0.06790123456790124,0,0)" xlink:href="#bf"/><use transform="matrix(0.06790123456790124,0,0,0.06790123456790124,17.58641975308642,0)" xlink:href="#aA"/><use transform="matrix(0.06790123456790124,0,0,0.06790123456790124,31.16666666666667,0)" xlink:href="#bh"/><use transform="matrix(0.06790123456790124,0,0,0.06790123456790124,44.74691358024692,0)" xlink:href="#aB"/></g><path fill="#333" d="M160-152l-12 59h37v26h-43L128 0h-28l14-67H60L46 0H20l13-67H6v-26h33l13-59H15v-26h42l15-67h27l-15 67h54l15-67h27l-14 67h28v26h-34zm-81 0L66-93h55l12-59H79" id="bi"/><path fill="#333" d="M128-127c34 4 56 21 59 58 7 91-148 94-172 28-4-9-6-17-7-26l51-5c1 24 16 35 40 36 23 0 39-12 38-36-1-31-31-36-65-34v-40c32 2 59-3 59-33 0-20-13-33-34-33s-33 13-35 32l-50-3c6-44 37-68 86-68 50 0 83 20 83 66 0 35-22 52-53 58" id="bj"/><g id="ab"><use transform="matrix(0.06790123456790124,0,0,0.06790123456790124,0,0)" xlink:href="#bi"/><use transform="matrix(0.06790123456790124,0,0,0.06790123456790124,13.580246913580249,0)" xlink:href="#bj"/></g><path fill="#333" d="M165-50V0h-47v-50H5v-38l105-160h55v161h33v37h-33zm-47-37l2-116L46-87h72" id="bk"/><g id="ac"><use transform="matrix(0.06790123456790124,0,0,0.06790123456790124,0,0)" xlink:href="#bi"/><use transform="matrix(0.06790123456790124,0,0,0.06790123456790124,13.580246913580249,0)" xlink:href="#bk"/></g><path fill="#333" d="M240 0l2-218c-23 76-54 145-80 218h-23L58-218 59 0H30v-248h44l77 211c21-75 51-140 76-211h43V0h-30" id="bl"/><path fill="#333" d="M212-179c-10-28-35-45-73-45-59 0-87 40-87 99 0 60 29 101 89 101 43 0 62-24 78-52l27 14C228-24 195 4 139 4 59 4 22-46 18-125c-6-104 99-153 187-111 19 9 31 26 39 46" id="bm"/><path fill="#333" d="M197 0v-115H63V0H30v-248h33v105h134v-105h34V0h-34" id="bn"/><g id="ad"><use transform="matrix(0.05,0,0,0.05,0,0)" xlink:href="#bl"/><use transform="matrix(0.05,0,0,0.05,14.950000000000001,0)" xlink:href="#at"/><use transform="matrix(0.05,0,0,0.05,25.6,0)" xlink:href="#ae"/><use transform="matrix(0.05,0,0,0.05,36.550000000000004,0)" xlink:href="#bm"/><use transform="matrix(0.05,0,0,0.05,49.50000000000001,0)" xlink:href="#bn"/></g></defs></g></svg>