<svg xmlns="http://www.w3.org/2000/svg" xmlns:xlink="http://www.w3.org/1999/xlink" xmlns:lucid="lucid" width="2301.33" height="714"><g transform="translate(941.3333333333335 274)" lucid:page-tab-id="0_0"><path d="M-1806.87-1258.83h3677.74v2581.66h-3677.74z" fill="#fff"/><path d="M-921.33-246a8 8 0 0 1 8-8H1332a8 8 0 0 1 8 8v658a8 8 0 0 1-8 8H-913.33a8 8 0 0 1-8-8z" stroke="#fff" fill="#fff"/><use xlink:href="#a" transform="matrix(1,0,0,1,-921.3333333333335,-254) translate(1114.025 340.86875)"/><path d="M-801.44-127.56a8 8 0 0 1 8-8h224a8 8 0 0 1 8 8v44a8 8 0 0 1-8 8h-224a8 8 0 0 1-8-8z" fill="none"/><use xlink:href="#b" transform="matrix(1,0,0,1,-801.4371541622895,-135.56250000005684) translate(3.125 22.799999999999997)"/><use xlink:href="#c" transform="matrix(1,0,0,1,-801.4371541622895,-135.56250000005684) translate(19.125 22.799999999999997)"/><use xlink:href="#d" transform="matrix(1,0,0,1,-801.4371541622895,-135.56250000005684) translate(71.025 22.799999999999997)"/><use xlink:href="#e" transform="matrix(1,0,0,1,-801.4371541622895,-135.56250000005684) translate(129.97500000000002 22.799999999999997)"/><use xlink:href="#f" transform="matrix(1,0,0,1,-801.4371541622895,-135.56250000005684) translate(147.925 22.799999999999997)"/><use xlink:href="#g" transform="matrix(1,0,0,1,-801.4371541622895,-135.56250000005684) translate(221.875 22.799999999999997)"/><use xlink:href="#h" transform="matrix(1,0,0,1,-801.4371541622895,-135.56250000005684) translate(85.025 44.4)"/><use xlink:href="#i" transform="matrix(1,0,0,1,-801.4371541622895,-135.56250000005684) translate(100.025 44.4)"/><path d="M-252.17 161.5c0 33.14-26.86 60-60 60-33.13 0-60-26.86-60-60s26.87-60 60-60c33.14 0 60 26.86 60 60z" stroke="#333" fill="#fff"/><use xlink:href="#j" transform="matrix(1,0,0,1,-372.1660334090483,101.49999999990905) translate(24.529999999999994 51.9)"/><use xlink:href="#k" transform="matrix(1,0,0,1,-372.1660334090483,101.49999999990905) translate(85.48 51.9)"/><use xlink:href="#l" transform="matrix(1,0,0,1,-372.1660334090483,101.49999999990905) translate(39.154999999999994 73.5)"/><path d="M-392.17 61.5h88l12 12v48h-100z" stroke="#333" fill="#fff"/><path d="M-304.17 61.98V73.5h11.53" stroke="#333" fill="#fff"/><use xlink:href="#m" transform="matrix(1,0,0,1,-392.1660334090483,61.49999999990905) translate(26.525 33.15)"/><path d="M-231.05 161.5h12.8a.5.5 0 0 0 .5-.5.5.5 0 0 1 .5-.5h12.78" stroke="#333" stroke-width="3" fill="none"/><path d="M-246.8 161.5l14.25-4.64v9.28zM-188.7 160.5l-14.27 4.64v-9.28z" stroke="#333" stroke-width="3" fill="#333"/><path d="M318.58-11.5a8 8 0 0 1 8-8h937.14a8 8 0 0 1 8 8v344a8 8 0 0 1-8 8H326.58a8 8 0 0 1-8-8z" stroke="#333" fill="#fff"/><path d="M747.33-41.28a8 8 0 0 1 8-8h109.82a8 8 0 0 1 8 8v24a8 8 0 0 1-8 8H755.33a8 8 0 0 1-8-8z" stroke="#000" stroke-opacity="0" fill="#ffeca9"/><use xlink:href="#n" transform="matrix(1,0,0,1,747.3336547330852,-49.281250000119144) translate(21.599999999999994 24.4)"/><use xlink:href="#o" transform="matrix(1,0,0,1,747.3336547330852,-49.281250000119144) translate(60.5 24.4)"/><path d="M-183.4-116a8 8 0 0 1 8-8h384a8 8 0 0 1 8 8v44a8 8 0 0 1-8 8h-384a8 8 0 0 1-8-8z" stroke="#000" stroke-opacity="0" fill="#fff" fill-opacity="0"/><use xlink:href="#p" transform="matrix(1,0,0,1,-183.39522451367293,-124) translate(1.7981481481481296 21.366666666666667)"/><use xlink:href="#q" transform="matrix(1,0,0,1,-183.39522451367293,-124) translate(76.81296296296296 21.366666666666667)"/><use xlink:href="#r" transform="matrix(1,0,0,1,-183.39522451367293,-124) translate(135.50555555555556 21.366666666666667)"/><use xlink:href="#s" transform="matrix(1,0,0,1,-183.39522451367293,-124) translate(205.7537037037037 21.366666666666667)"/><use xlink:href="#t" transform="matrix(1,0,0,1,-183.39522451367293,-124) translate(269.212962962963 21.366666666666667)"/><use xlink:href="#u" transform="matrix(1,0,0,1,-183.39522451367293,-124) translate(326.94259259259263 21.366666666666667)"/><use xlink:href="#v" transform="matrix(1,0,0,1,-183.39522451367293,-124) translate(378.94259259259263 21.366666666666667)"/><use xlink:href="#w" transform="matrix(1,0,0,1,-183.39522451367293,-124) translate(69.13333333333333 42.16666666666667)"/><use xlink:href="#x" transform="matrix(1,0,0,1,-183.39522451367293,-124) translate(149.92592592592592 42.16666666666667)"/><use xlink:href="#y" transform="matrix(1,0,0,1,-183.39522451367293,-124) translate(178.81481481481484 42.16666666666667)"/><use xlink:href="#z" transform="matrix(1,0,0,1,-183.39522451367293,-124) translate(212.47037037037038 42.16666666666667)"/><use xlink:href="#A" transform="matrix(1,0,0,1,-183.39522451367293,-124) translate(254.84074074074076 42.16666666666667)"/><use xlink:href="#B" transform="matrix(1,0,0,1,-183.39522451367293,-124) translate(283.72962962962964 42.16666666666667)"/><path d="M-872.67-6a8 8 0 0 1 8-8h372.77a8 8 0 0 1 8 8v344a8 8 0 0 1-8 8h-372.77a8 8 0 0 1-8-8z" stroke="#333" fill="#fff"/><path d="M-721.44 241.5c0 33.14-26.86 60-60 60-33.13 0-60-26.86-60-60s26.87-60 60-60c33.14 0 60 26.86 60 60z" stroke="#333" fill="#fff"/><use xlink:href="#j" transform="matrix(1,0,0,1,-841.4371541622895,181.49999999990905) translate(24.529999999999994 51.9)"/><use xlink:href="#C" transform="matrix(1,0,0,1,-841.4371541622895,181.49999999990905) translate(85.48 51.9)"/><use xlink:href="#l" transform="matrix(1,0,0,1,-841.4371541622895,181.49999999990905) translate(39.154999999999994 73.5)"/><path d="M-746.1-46.78a8 8 0 0 1 8-8h113.32a8 8 0 0 1 8 8v29.5a8 8 0 0 1-8 8H-738.1a8 8 0 0 1-8-8z" stroke="#000" stroke-opacity="0" fill="#ffeca9"/><use xlink:href="#D" transform="matrix(1,0,0,1,-746.0990328654036,-54.781250000028194) translate(19.599999999999994 25.9)"/><use xlink:href="#o" transform="matrix(1,0,0,1,-746.0990328654036,-54.781250000028194) translate(65.5 25.9)"/><path d="M-861.44 141.5h88l12 12v48h-100z" stroke="#333" fill="#fff"/><path d="M-773.44 141.98v11.52h11.53" stroke="#333" fill="#fff"/><use xlink:href="#E" transform="matrix(1,0,0,1,-861.4371541622895,141.49999999990905) translate(26.525 33.15)"/><path d="M-518.98 111.5c0 33.14-26.86 60-60 60s-60-26.86-60-60 26.86-60 60-60 60 26.86 60 60z" stroke="#333" fill="#fff"/><use xlink:href="#F" transform="matrix(1,0,0,1,-638.97877195304,51.49999999990905) translate(31.53 63.15)"/><path d="M-658.98 11.5h88l12 12v48h-100z" stroke="#333" fill="#fff"/><path d="M-570.98 11.98V23.5h11.53" stroke="#333" fill="#fff"/><use xlink:href="#E" transform="matrix(1,0,0,1,-658.97877195304,11.49999999990905) translate(26.525 33.15)"/><path d="M-678.86 231.56l-.5 2.1-.82 1.97-1.1 1.8-1.38 1.62-1.6 1.38-1.82 1.1-1.95.8-2.07.5-2.05.17h-8.17v-3h8.05l1.7-.13 1.6-.4 1.53-.62 1.4-.86 1.25-1.08 1.08-1.25.86-1.4.63-1.53.37-1.54.06-43.9h3zM-660.08 113l-9.82.15-1.55.37-1.52.63-1.4.86-1.26 1.08-1.07 1.25-.86 1.4-.63 1.53-.37 1.6-.14 1.7-.07 42.14h-3l.06-42.26.15-2.05.5-2.07.8-1.96 1.12-1.8 1.37-1.62 1.6-1.38 1.82-1.1 1.96-.8 2.1-.52 10.16-.15z" stroke="#333" stroke-width=".05" fill="#333"/><path d="M-701.82 246.14l-14.26-4.64 14.26-4.64z" fill="#333"/><path d="M-700.32 248.2l-20.62-6.7 20.62-6.7zm-10.9-6.7l7.9 2.57v-5.14z" stroke="#333" stroke-width=".05" fill="#333"/><path d="M-644.33 111.5l-14.27 4.64v-9.28z" fill="#333"/><path d="M-639.48 111.5l-20.62 6.7v-13.4zm-17.62 2.57l7.9-2.57-7.9-2.57z" stroke="#333" stroke-width=".05" fill="#333"/><use xlink:href="#G" transform="matrix(1,0,0,1,-711.4329630576648,165.69999999990904) translate(0.004999999999999005 14.4)"/><path d="M-678.7 229.56l-.17 2.05-.5 2.07-.8 1.96-1.1 1.8-1.4 1.62-1.6 1.38-1.8 1.1-1.96.8-2.1.52-10.16.15-.04-3 9.82-.15 1.56-.37 1.52-.63 1.4-.86 1.25-1.08 1.08-1.25.86-1.4.63-1.53.4-1.6.12-1.7.05-42.14h3zM-660.1 113h-8.05l-1.7.13-1.6.4-1.52.62-1.4.86-1.26 1.08-1.07 1.25-.86 1.4-.63 1.53-.36 1.54-.06 43.9h-3l.06-44.26.5-2.1.82-1.97 1.1-1.8 1.38-1.62 1.6-1.38 1.82-1.1 1.96-.8 2.06-.5 2.05-.17h8.17z" stroke="#333" stroke-width=".05" fill="#333"/><path d="M-644.33 111.5l-14.27 4.64v-9.28z" fill="#333"/><path d="M-639.48 111.5l-20.62 6.7v-13.4zm-17.62 2.57l7.9-2.57-7.9-2.57z" stroke="#333" stroke-width=".05" fill="#333"/><path d="M-701.82 246.14l-14.26-4.64 14.26-4.64z" fill="#333"/><path d="M-700.32 248.2l-20.62-6.7 20.62-6.7zm-10.9-6.7l7.9 2.57v-5.14z" stroke="#333" stroke-width=".05" fill="#333"/><path d="M1016.37 272.15c0 33.14-26.87 60-60 60-33.14 0-60-26.86-60-60s26.86-60 60-60c33.13 0 60 26.86 60 60z" stroke="#333" fill="#fff"/><use xlink:href="#j" transform="matrix(1,0,0,1,896.3667977355288,212.1500000000001) translate(24.529999999999994 51.9)"/><use xlink:href="#k" transform="matrix(1,0,0,1,896.3667977355288,212.1500000000001) translate(85.48 51.9)"/><use xlink:href="#l" transform="matrix(1,0,0,1,896.3667977355288,212.1500000000001) translate(39.154999999999994 73.5)"/><path d="M-183.4-11.5a8 8 0 0 1 8-8h372.78a8 8 0 0 1 8 8v344a8 8 0 0 1-8 8H-175.4a8 8 0 0 1-8-8z" stroke="#333" fill="#fff"/><path d="M-32.17 236c0 33.14-26.86 60-60 60-33.13 0-60-26.86-60-60s26.87-60 60-60c33.14 0 60 26.86 60 60z" stroke="#333" fill="#fff"/><use xlink:href="#j" transform="matrix(1,0,0,1,-152.1660334090476,176) translate(24.529999999999994 51.9)"/><use xlink:href="#C" transform="matrix(1,0,0,1,-152.1660334090476,176) translate(85.48 51.9)"/><use xlink:href="#l" transform="matrix(1,0,0,1,-152.1660334090476,176) translate(39.154999999999994 73.5)"/><path d="M-48.22-44.03a8 8 0 0 1 8-8H73.43a8 8 0 0 1 8 8v24a8 8 0 0 1-8 8H-40.22a8 8 0 0 1-8-8z" stroke="#000" stroke-opacity="0" fill="#ffeca9"/><use xlink:href="#H" transform="matrix(1,0,0,1,-48.220766730219,-52.03125000007367) translate(37.099999999999994 24.4)"/><path d="M-172.17 136h88l12 12v48h-100z" stroke="#333" fill="#fff"/><path d="M-84.17 136.48V148h11.53" stroke="#333" fill="#fff"/><use xlink:href="#E" transform="matrix(1,0,0,1,-172.1660334090476,136) translate(26.525 33.15)"/><path d="M170.3 106c0 33.14-26.87 60-60 60-33.14 0-60-26.86-60-60s26.86-60 60-60c33.13 0 60 26.86 60 60z" stroke="#333" fill="#fff"/><use xlink:href="#F" transform="matrix(1,0,0,1,50.292348800201694,46) translate(31.53 63.15)"/><path d="M30.3 6h88l12 12v48h-100z" stroke="#333" fill="#fff"/><path d="M118.3 6.48V18h11.52" stroke="#333" fill="#fff"/><use xlink:href="#E" transform="matrix(1,0,0,1,30.292348800202035,6) translate(26.525 33.15)"/><path d="M10.42 226.06l-.5 2.1-.82 1.97-1.1 1.8-1.4 1.62-1.6 1.38-1.8 1.1-1.96.8-2.06.5-2.06.17h-8.17v-3H-3l1.7-.13 1.6-.4 1.53-.62 1.4-.86 1.25-1.08 1.07-1.25.86-1.4.64-1.53.38-1.54.06-43.9h3zM29.2 107.5l-9.83.15-1.55.37-1.52.63-1.4.86-1.26 1.08-1.07 1.25-.86 1.4-.62 1.53-.38 1.6-.14 1.7-.05 42.14h-3l.06-42.26.16-2.05.5-2.07.8-1.96 1.12-1.8 1.37-1.62 1.63-1.38 1.8-1.1 1.96-.8 2.1-.52 10.15-.15z" stroke="#333" stroke-width=".05" fill="#333"/><path d="M-12.55 240.64L-26.8 236l14.25-4.64z" fill="#333"/><path d="M-11.05 242.7l-20.62-6.7 20.62-6.7zm-10.9-6.7l7.9 2.57v-5.14z" stroke="#333" stroke-width=".05" fill="#333"/><path d="M44.94 106l-14.27 4.64v-9.28z" fill="#333"/><path d="M49.8 106l-20.63 6.7V99.3zm-17.63 2.57l7.9-2.57-7.9-2.57z" stroke="#333" stroke-width=".05" fill="#333"/><use xlink:href="#G" transform="matrix(1,0,0,1,-22.161842304422972,160.2) translate(0.004999999999999005 14.4)"/><path d="M10.56 224.06l-.16 2.05-.5 2.07-.8 1.96-1.1 1.8-1.4 1.62-1.6 1.38-1.8 1.1-1.96.8-2.1.52-10.16.15-.05-3 9.82-.15 1.56-.37 1.53-.63 1.4-.86 1.25-1.08 1.07-1.25.86-1.4.64-1.53.4-1.6.12-1.7.06-42.14h3zm18.6-116.56h-8.04l-1.7.13-1.6.4-1.52.62-1.4.86-1.26 1.08-1.07 1.25-.86 1.4-.62 1.53-.37 1.54-.05 43.9h-3l.06-44.26.52-2.1.8-1.97 1.12-1.8 1.37-1.62 1.63-1.38 1.8-1.1 1.96-.8 2.05-.5 2.05-.17h8.17z" stroke="#333" stroke-width=".05" fill="#333"/><path d="M44.94 106l-14.27 4.64v-9.28z" fill="#333"/><path d="M49.8 106l-20.63 6.7V99.3zm-17.63 2.57l7.9-2.57-7.9-2.57z" stroke="#333" stroke-width=".05" fill="#333"/><path d="M-12.55 240.64L-26.8 236l14.25-4.64z" fill="#333"/><path d="M-11.05 242.7l-20.62-6.7 20.62-6.7zm-10.9-6.7l7.9 2.57v-5.14z" stroke="#333" stroke-width=".05" fill="#333"/><path d="M345.54-119.08a8 8 0 0 1 8-8h907.6a8 8 0 0 1 8 8v56.3a8 8 0 0 1-8 8h-907.6a8 8 0 0 1-8-8z" stroke="#000" stroke-opacity="0" fill="#fff" fill-opacity="0"/><use xlink:href="#I" transform="matrix(1,0,0,1,345.5401398359094,-127.08125000002838) translate(34.059259259259136 38.96041666666667)"/><use xlink:href="#J" transform="matrix(1,0,0,1,345.5401398359094,-127.08125000002838) translate(92.75185185185174 38.96041666666667)"/><use xlink:href="#K" transform="matrix(1,0,0,1,345.5401398359094,-127.08125000002838) translate(125.4925925925925 38.96041666666667)"/><use xlink:href="#L" transform="matrix(1,0,0,1,345.5401398359094,-127.08125000002838) translate(162.03703703703695 38.96041666666667)"/><use xlink:href="#M" transform="matrix(1,0,0,1,345.5401398359094,-127.08125000002838) translate(221.69259259259252 38.96041666666667)"/><use xlink:href="#N" transform="matrix(1,0,0,1,345.5401398359094,-127.08125000002838) translate(284.237037037037 38.96041666666667)"/><use xlink:href="#O" transform="matrix(1,0,0,1,345.5401398359094,-127.08125000002838) translate(309.2259259259259 38.96041666666667)"/><use xlink:href="#P" transform="matrix(1,0,0,1,345.5401398359094,-127.08125000002838) translate(357.3259259259259 38.96041666666667)"/><use xlink:href="#Q" transform="matrix(1,0,0,1,345.5401398359094,-127.08125000002838) translate(391.0296296296296 38.96041666666667)"/><use xlink:href="#R" transform="matrix(1,0,0,1,345.5401398359094,-127.08125000002838) translate(586.9444444444443 38.96041666666667)"/><use xlink:href="#S" transform="matrix(1,0,0,1,345.5401398359094,-127.08125000002838) translate(617.6629629629629 38.96041666666667)"/><use xlink:href="#M" transform="matrix(1,0,0,1,345.5401398359094,-127.08125000002838) translate(634.9481481481482 38.96041666666667)"/><use xlink:href="#T" transform="matrix(1,0,0,1,345.5401398359094,-127.08125000002838) translate(697.4925925925927 38.96041666666667)"/><use xlink:href="#U" transform="matrix(1,0,0,1,345.5401398359094,-127.08125000002838) translate(767.7407407407409 38.96041666666667)"/><use xlink:href="#V" transform="matrix(1,0,0,1,345.5401398359094,-127.08125000002838) translate(796.6296296296298 38.96041666666667)"/><use xlink:href="#W" transform="matrix(1,0,0,1,345.5401398359094,-127.08125000002838) translate(828.3592592592593 38.96041666666667)"/><path d="M1217.76 120.6c0 33.12-26.86 60-60 60-33.13 0-60-26.88-60-60 0-33.15 26.87-60 60-60 33.14 0 60 26.85 60 60z" stroke="#333" fill="#fff"/><g><use xlink:href="#F" transform="matrix(1,0,0,1,1097.7624600031554,60.58749999994325) translate(31.53 63.15)"/></g><path d="M1137.76 35.1h88l12 12v48h-100z" stroke="#333" fill="#fff"/><path d="M1225.76 35.56V47.1h11.53" stroke="#333" fill="#fff"/><g><use xlink:href="#m" transform="matrix(1,0,0,1,1137.7624600031554,35.0875000000342) translate(26.525 33.15)"/></g><path d="M857.62 177.45h88l12 12v48h-100z" stroke="#333" fill="#fff"/><path d="M945.62 177.93v11.52h11.52" stroke="#333" fill="#fff"/><g><use xlink:href="#m" transform="matrix(1,0,0,1,857.6175773801957,177.45000000009122) translate(26.525 33.15)"/></g><path d="M1067.72 262.2l-.5 2.12-.82 1.96-1.1 1.8-1.38 1.62-1.62 1.38-1.8 1.1-1.96.8-2.06.5-2.05.17h-16.94v-3h16.8l1.7-.13 1.6-.4 1.53-.62 1.4-.86 1.26-1.07 1.06-1.25.86-1.4.63-1.53.37-1.55.1-27.1h3zm91.54-60.37l-.07.9-.25.97-.4.93-.5.87-.67.77-.77.65-.85.53-.94.4-.97.23-.95.07-76.2.15-1.56.37-1.52.63-1.4.86-1.25 1.07-1.07 1.25-.42.68h-3.4l.27-.64 1.1-1.8 1.4-1.62 1.6-1.38 1.8-1.1 1.96-.8 2.1-.52 76.46-.15.6-.05.52-.12.5-.2.46-.3.4-.34.36-.4.28-.47.2-.5.14-.52.05-.66z" stroke="#333" stroke-width=".05" fill="#333"/><path d="M1036 276.8l-14.28-4.65 14.27-4.64z" fill="#333"/><path d="M1037.5 278.85l-20.63-6.7 20.62-6.7zm-10.92-6.7l7.9 2.57v-5.14z" stroke="#333" stroke-width=".05" fill="#333"/><path d="M1162.4 200.2h-9.27l4.63-14.26z" fill="#333"/><path d="M1164.46 201.7h-13.4l6.7-20.6zm-9.27-3h5.13l-2.57-7.9z" stroke="#333" stroke-width=".05" fill="#333"/><g><use xlink:href="#G" transform="matrix(1,0,0,1,1035.1417977355286,213.161240873112) translate(0.004999999999999005 14.4)"/></g><path d="M494.46 265.1c0 33.12-26.86 60-60 60s-60-26.88-60-60c0-33.15 26.86-60 60-60s60 26.85 60 60z" stroke="#333" fill="#fff"/><g><use xlink:href="#j" transform="matrix(1,0,0,1,374.46136403713274,205.0875000000342) translate(24.529999999999994 51.9)"/><use xlink:href="#C" transform="matrix(1,0,0,1,374.46136403713274,205.0875000000342) translate(85.48 51.9)"/><use xlink:href="#l" transform="matrix(1,0,0,1,374.46136403713274,205.0875000000342) translate(39.154999999999994 73.5)"/></g><path d="M354.46 165.1h88l12 12v48h-100z" stroke="#333" fill="#fff"/><path d="M442.46 165.56v11.53H454" stroke="#333" fill="#fff"/><g><use xlink:href="#E" transform="matrix(1,0,0,1,354.46136403713274,165.0875000000342) translate(26.525 33.15)"/></g><path d="M698.15 122.15c0 33.14-26.86 60-60 60s-60-26.86-60-60 26.86-60 60-60 60 26.86 60 60z" stroke="#333" fill="#fff"/><g><use xlink:href="#F" transform="matrix(1,0,0,1,578.1489373510077,62.15000000000009) translate(31.53 63.15)"/></g><path d="M556.92 35.1h88l12 12v48h-100z" stroke="#333" fill="#fff"/><path d="M644.92 35.56V47.1h11.52" stroke="#333" fill="#fff"/><g><use xlink:href="#E" transform="matrix(1,0,0,1,556.9197462463823,35.0875000000342) translate(26.525 33.15)"/></g><path d="M557.03 122.15h-8.72a12 12 0 0 0-12 12V253.1a12 12 0 0 1-12 12h-8.72" stroke="#333" stroke-width="3" fill="none"/><path d="M572.8 122.15l-14.27 4.64v-9.3zM499.82 265.1l14.26-4.65v9.27z" stroke="#333" stroke-width="3" fill="#333"/><path d="M467.37 191.65h595.85v31.6H467.37z" fill="#fff" fill-opacity="0"/><path d="M798.73 123.65h-79.46v-3h79.46zm297.03-1.56h-98.58v-3h98.58z" stroke="#333" stroke-width=".05" fill="#333"/><path d="M1097.26 120.6l.06 1.5h-1.6v-3h1.6z" fill="#333"/><path d="M1097.3 120.6l.04 1.5h-1.64v-3.04h1.65zm-1.55-1.5v2.96h1.54l-.06-1.47.06-1.5z" stroke="#333" stroke-width=".05" fill="#333"/><path d="M717.77 126.8l-14.27-4.65 14.27-4.64z" fill="#333"/><path d="M719.27 128.85l-20.62-6.7 20.62-6.7zm-10.9-6.7l7.9 2.57v-5.14z" stroke="#333" stroke-width=".05" fill="#333"/><g><use xlink:href="#X" transform="matrix(1,0,0,1,798.7306986770815,110.56874999997162) translate(0.0049999999999954525 14.4)"/></g><path d="M206.32 122.93h95.42" stroke="#333" fill="none"/><path d="M206.33 123.43h-.5v-1h.5z" stroke="#333" stroke-width=".05" fill="#333"/><path d="M316.5 122.93l-14.26 4.63v-9.27z" stroke="#333" fill="#333"/><path d="M-921.33-240.5a8 8 0 0 1 8-8h272.66a8 8 0 0 1 8 8v44a8 8 0 0 1-8 8h-272.66a8 8 0 0 1-8-8z" stroke="#000" stroke-opacity="0" fill="#fff" fill-opacity="0"/><g><use xlink:href="#Y" transform="matrix(1,0,0,1,-921.3333333333335,-248.50000000009095) translate(31.24074074074072 34.55555555555556)"/><use xlink:href="#Z" transform="matrix(1,0,0,1,-921.3333333333335,-248.50000000009095) translate(113.94444444444443 34.55555555555556)"/><use xlink:href="#aa" transform="matrix(1,0,0,1,-921.3333333333335,-248.50000000009095) translate(165.48148148148147 34.55555555555556)"/><use xlink:href="#ab" transform="matrix(1,0,0,1,-921.3333333333335,-248.50000000009095) translate(230.5987654320988 34.55555555555556)"/></g><defs><path fill="#333" d="M127-220V0H93v-220H8v-28h204v28h-85" id="ac"/><path fill="#333" d="M100-194c63 0 86 42 84 106H49c0 40 14 67 53 68 26 1 43-12 49-29l28 8c-11 28-37 45-77 45C44 4 14-33 15-96c1-61 26-98 85-98zm52 81c6-60-76-77-97-28-3 7-6 17-6 28h103" id="ad"/><path fill="#333" d="M141 0L90-78 38 0H4l68-98-65-92h35l48 74 47-74h35l-64 92 68 98h-35" id="ae"/><path fill="#333" d="M59-47c-2 24 18 29 38 22v24C64 9 27 4 27-40v-127H5v-23h24l9-43h21v43h35v23H59v120" id="af"/><g id="a"><use transform="matrix(0.05,0,0,0.05,0,0)" xlink:href="#ac"/><use transform="matrix(0.05,0,0,0.05,8.950000000000001,0)" xlink:href="#ad"/><use transform="matrix(0.05,0,0,0.05,18.950000000000003,0)" xlink:href="#ae"/><use transform="matrix(0.05,0,0,0.05,27.950000000000003,0)" xlink:href="#af"/></g><path fill="#333" d="M205 0l-28-72H64L36 0H1l101-248h38L239 0h-34zm-38-99l-47-123c-12 45-31 82-46 123h93" id="ag"/><use transform="matrix(0.05,0,0,0.05,0,0)" xlink:href="#ag" id="b"/><path fill="#333" d="M135-143c-3-34-86-38-87 0 15 53 115 12 119 90S17 21 10-45l28-5c4 36 97 45 98 0-10-56-113-15-118-90-4-57 82-63 122-42 12 7 21 19 24 35" id="ah"/><path fill="#333" d="M24-231v-30h32v30H24zM24 0v-190h32V0H24" id="ai"/><path fill="#333" d="M117-194c89-4 53 116 60 194h-32v-121c0-31-8-49-39-48C34-167 62-67 57 0H25l-1-190h30c1 10-1 24 2 32 11-22 29-35 61-36" id="aj"/><path fill="#333" d="M177-190C167-65 218 103 67 71c-23-6-38-20-44-43l32-5c15 47 100 32 89-28v-30C133-14 115 1 83 1 29 1 15-40 15-95c0-56 16-97 71-98 29-1 48 16 59 35 1-10 0-23 2-32h30zM94-22c36 0 50-32 50-73 0-42-14-75-50-75-39 0-46 34-46 75s6 73 46 73" id="ak"/><path fill="#333" d="M24 0v-261h32V0H24" id="al"/><g id="c"><use transform="matrix(0.05,0,0,0.05,0,0)" xlink:href="#ah"/><use transform="matrix(0.05,0,0,0.05,9,0)" xlink:href="#ai"/><use transform="matrix(0.05,0,0,0.05,12.949999999999998,0)" xlink:href="#aj"/><use transform="matrix(0.05,0,0,0.05,22.95,0)" xlink:href="#ak"/><use transform="matrix(0.05,0,0,0.05,32.95,0)" xlink:href="#al"/><use transform="matrix(0.05,0,0,0.05,36.900000000000006,0)" xlink:href="#ad"/></g><path fill="#333" d="M115-194c55 1 70 41 70 98S169 2 115 4C84 4 66-9 55-30l1 105H24l-1-265h31l2 30c10-21 28-34 59-34zm-8 174c40 0 45-34 45-75s-6-73-45-74c-42 0-51 32-51 76 0 43 10 73 51 73" id="am"/><path fill="#333" d="M141-36C126-15 110 5 73 4 37 3 15-17 15-53c-1-64 63-63 125-63 3-35-9-54-41-54-24 1-41 7-42 31l-33-3c5-37 33-52 76-52 45 0 72 20 72 64v82c-1 20 7 32 28 27v20c-31 9-61-2-59-35zM48-53c0 20 12 33 32 33 41-3 63-29 60-74-43 2-92-5-92 41" id="an"/><g id="d"><use transform="matrix(0.05,0,0,0.05,0,0)" xlink:href="#am"/><use transform="matrix(0.05,0,0,0.05,10,0)" xlink:href="#an"/><use transform="matrix(0.05,0,0,0.05,20,0)" xlink:href="#af"/><use transform="matrix(0.05,0,0,0.05,25,0)" xlink:href="#ai"/><use transform="matrix(0.05,0,0,0.05,28.950000000000003,0)" xlink:href="#ad"/><use transform="matrix(0.05,0,0,0.05,38.95,0)" xlink:href="#aj"/><use transform="matrix(0.05,0,0,0.05,48.95,0)" xlink:href="#af"/></g><g id="e"><use transform="matrix(0.05,0,0,0.05,0,0)" xlink:href="#ai"/><use transform="matrix(0.05,0,0,0.05,3.95,0)" xlink:href="#ah"/></g><path fill="#333" d="M210-169c-67 3-38 105-44 169h-31v-121c0-29-5-50-35-48C34-165 62-65 56 0H25l-1-190h30c1 10-1 24 2 32 10-44 99-50 107 0 11-21 27-35 58-36 85-2 47 119 55 194h-31v-121c0-29-5-49-35-48" id="ao"/><path fill="#333" d="M96-169c-40 0-48 33-48 73s9 75 48 75c24 0 41-14 43-38l32 2c-6 37-31 61-74 61-59 0-76-41-82-99-10-93 101-131 147-64 4 7 5 14 7 22l-32 3c-4-21-16-35-41-35" id="ap"/><path fill="#333" d="M106-169C34-169 62-67 57 0H25v-261h32l-1 103c12-21 28-36 61-36 89 0 53 116 60 194h-32v-121c2-32-8-49-39-48" id="aq"/><path fill="#333" d="M85-194c31 0 48 13 60 33l-1-100h32l1 261h-30c-2-10 0-23-3-31C134-8 116 4 85 4 32 4 16-35 15-94c0-66 23-100 70-100zm9 24c-40 0-46 34-46 75 0 40 6 74 45 74 42 0 51-32 51-76 0-42-9-74-50-73" id="ar"/><g id="f"><use transform="matrix(0.05,0,0,0.05,0,0)" xlink:href="#ao"/><use transform="matrix(0.05,0,0,0.05,14.950000000000001,0)" xlink:href="#an"/><use transform="matrix(0.05,0,0,0.05,24.950000000000003,0)" xlink:href="#af"/><use transform="matrix(0.05,0,0,0.05,29.950000000000003,0)" xlink:href="#ap"/><use transform="matrix(0.05,0,0,0.05,38.95,0)" xlink:href="#aq"/><use transform="matrix(0.05,0,0,0.05,48.95,0)" xlink:href="#ad"/><use transform="matrix(0.05,0,0,0.05,58.95,0)" xlink:href="#ar"/></g><path fill="#333" d="M100-194c62-1 85 37 85 99 1 63-27 99-86 99S16-35 15-95c0-66 28-99 85-99zM99-20c44 1 53-31 53-75 0-43-8-75-51-75s-53 32-53 75 10 74 51 75" id="as"/><g id="g"><use transform="matrix(0.05,0,0,0.05,0,0)" xlink:href="#af"/><use transform="matrix(0.05,0,0,0.05,5,0)" xlink:href="#as"/></g><use transform="matrix(0.05,0,0,0.05,0,0)" xlink:href="#an" id="h"/><path fill="#333" d="M114-163C36-179 61-72 57 0H25l-1-190h30c1 12-1 29 2 39 6-27 23-49 58-41v29" id="at"/><g id="i"><use transform="matrix(0.05,0,0,0.05,0,0)" xlink:href="#am"/><use transform="matrix(0.05,0,0,0.05,10,0)" xlink:href="#ad"/><use transform="matrix(0.05,0,0,0.05,20,0)" xlink:href="#at"/><use transform="matrix(0.05,0,0,0.05,25.950000000000003,0)" xlink:href="#ah"/><use transform="matrix(0.05,0,0,0.05,34.95,0)" xlink:href="#as"/><use transform="matrix(0.05,0,0,0.05,44.95,0)" xlink:href="#aj"/></g><path d="M30-248c87 1 191-15 191 75 0 78-77 80-158 76V0H30v-248zm33 125c57 0 124 11 124-50 0-59-68-47-124-48v98" id="au"/><path d="M141-36C126-15 110 5 73 4 37 3 15-17 15-53c-1-64 63-63 125-63 3-35-9-54-41-54-24 1-41 7-42 31l-33-3c5-37 33-52 76-52 45 0 72 20 72 64v82c-1 20 7 32 28 27v20c-31 9-61-2-59-35zM48-53c0 20 12 33 32 33 41-3 63-29 60-74-43 2-92-5-92 41" id="av"/><path d="M59-47c-2 24 18 29 38 22v24C64 9 27 4 27-40v-127H5v-23h24l9-43h21v43h35v23H59v120" id="aw"/><path d="M24-231v-30h32v30H24zM24 0v-190h32V0H24" id="ax"/><path d="M100-194c63 0 86 42 84 106H49c0 40 14 67 53 68 26 1 43-12 49-29l28 8c-11 28-37 45-77 45C44 4 14-33 15-96c1-61 26-98 85-98zm52 81c6-60-76-77-97-28-3 7-6 17-6 28h103" id="ay"/><path d="M117-194c89-4 53 116 60 194h-32v-121c0-31-8-49-39-48C34-167 62-67 57 0H25l-1-190h30c1 10-1 24 2 32 11-22 29-35 61-36" id="az"/><g id="j"><use transform="matrix(0.05,0,0,0.05,0,0)" xlink:href="#au"/><use transform="matrix(0.05,0,0,0.05,12,0)" xlink:href="#av"/><use transform="matrix(0.05,0,0,0.05,22,0)" xlink:href="#aw"/><use transform="matrix(0.05,0,0,0.05,27,0)" xlink:href="#ax"/><use transform="matrix(0.05,0,0,0.05,30.950000000000003,0)" xlink:href="#ay"/><use transform="matrix(0.05,0,0,0.05,40.95,0)" xlink:href="#az"/><use transform="matrix(0.05,0,0,0.05,50.95,0)" xlink:href="#aw"/></g><path d="M101-251c82-7 93 87 43 132L82-64C71-53 59-42 53-27h129V0H18c2-99 128-94 128-182 0-28-16-43-45-43s-46 15-49 41l-32-3c6-41 34-60 81-64" id="aA"/><use transform="matrix(0.05,0,0,0.05,0,0)" xlink:href="#aA" id="k"/><path d="M109-170H84l-4-78h32zm-65 0H19l-4-78h33" id="aB"/><path d="M143 0L79-87 56-68V0H24v-261h32v163l83-92h37l-77 82L181 0h-38" id="aC"/><g id="l"><use transform="matrix(0.05,0,0,0.05,0,0)" xlink:href="#aB"/><use transform="matrix(0.05,0,0,0.05,6.3500000000000005,0)" xlink:href="#aC"/><use transform="matrix(0.05,0,0,0.05,15.350000000000001,0)" xlink:href="#ay"/><use transform="matrix(0.05,0,0,0.05,25.35,0)" xlink:href="#az"/><use transform="matrix(0.05,0,0,0.05,35.35,0)" xlink:href="#aB"/></g><path fill="#333" d="M30 0v-248h187v28H63v79h144v27H63v87h162V0H30" id="aD"/><path fill="#333" d="M33 0v-248h34V0H33" id="aE"/><path fill="#333" d="M30-248c118-7 216 8 213 122C240-48 200 0 122 0H30v-248zM63-27c89 8 146-16 146-99s-60-101-146-95v194" id="aF"/><path fill="#333" d="M33-154v-36h34v36H33zM33 0v-36h34V0H33" id="aG"/><path fill="#333" d="M160-131c35 5 61 23 61 61C221 17 115-2 30 0v-248c76 3 177-17 177 60 0 33-19 50-47 57zm-97-11c50-1 110 9 110-42 0-47-63-36-110-37v79zm0 115c55-2 124 14 124-45 0-56-70-42-124-44v89" id="aH"/><g id="m"><use transform="matrix(0.05,0,0,0.05,0,0)" xlink:href="#aD"/><use transform="matrix(0.05,0,0,0.05,12,0)" xlink:href="#aE"/><use transform="matrix(0.05,0,0,0.05,17,0)" xlink:href="#aF"/><use transform="matrix(0.05,0,0,0.05,29.950000000000003,0)" xlink:href="#aG"/><use transform="matrix(0.05,0,0,0.05,34.95,0)" xlink:href="#aH"/></g><path fill="#333" d="M24 0v-248h195v40H76v63h132v40H76v65h150V0H24" id="aI"/><path fill="#333" d="M135-194c87-1 58 113 63 194h-50c-7-57 23-157-34-157-59 0-34 97-39 157H25l-1-190h47c2 12-1 28 3 38 12-26 28-41 61-42" id="aJ"/><path fill="#333" d="M88-194c31-1 46 15 58 34l-1-101h50l1 261h-48c-2-10 0-23-3-31C134-8 116 4 84 4 32 4 16-41 15-95c0-56 19-97 73-99zm17 164c33 0 40-30 41-66 1-37-9-64-41-64s-38 30-39 65c0 43 13 65 39 65" id="aK"/><g id="n"><use transform="matrix(0.05,0,0,0.05,0,0)" xlink:href="#aI"/><use transform="matrix(0.05,0,0,0.05,12,0)" xlink:href="#aJ"/><use transform="matrix(0.05,0,0,0.05,22.950000000000003,0)" xlink:href="#aK"/></g><path fill="#333" d="M169-182c-1-43-94-46-97-3 18 66 151 10 154 114 3 95-165 93-204 36-6-8-10-19-12-30l50-8c3 46 112 56 116 5-17-69-150-10-154-114-4-87 153-88 188-35 5 8 8 18 10 28" id="aL"/><path fill="#333" d="M115-3C79 11 28 4 28-45v-112H4v-33h27l15-45h31v45h36v33H77v99c-1 23 16 31 38 25v30" id="aM"/><path fill="#333" d="M133-34C117-15 103 5 69 4 32 3 11-16 11-54c-1-60 55-63 116-61 1-26-3-47-28-47-18 1-26 9-28 27l-52-2c7-38 36-58 82-57s74 22 75 68l1 82c-1 14 12 18 25 15v27c-30 8-71 5-69-32zm-48 3c29 0 43-24 42-57-32 0-66-3-65 30 0 17 8 27 23 27" id="aN"/><path fill="#333" d="M185-48c-13 30-37 53-82 52C43 2 14-33 14-96s30-98 90-98c62 0 83 45 84 108H66c0 31 8 55 39 56 18 0 30-7 34-22zm-45-69c5-46-57-63-70-21-2 6-4 13-4 21h74" id="aO"/><g id="o"><use transform="matrix(0.05,0,0,0.05,0,0)" xlink:href="#aL"/><use transform="matrix(0.05,0,0,0.05,12,0)" xlink:href="#aM"/><use transform="matrix(0.05,0,0,0.05,17.95,0)" xlink:href="#aN"/><use transform="matrix(0.05,0,0,0.05,27.950000000000003,0)" xlink:href="#aM"/><use transform="matrix(0.05,0,0,0.05,33.9,0)" xlink:href="#aO"/></g><path d="M33 0v-248h34V0H33" id="aP"/><path d="M96-169c-40 0-48 33-48 73s9 75 48 75c24 0 41-14 43-38l32 2c-6 37-31 61-74 61-59 0-76-41-82-99-10-93 101-131 147-64 4 7 5 14 7 22l-32 3c-4-21-16-35-41-35" id="aQ"/><path d="M100-194c62-1 85 37 85 99 1 63-27 99-86 99S16-35 15-95c0-66 28-99 85-99zM99-20c44 1 53-31 53-75 0-43-8-75-51-75s-53 32-53 75 10 74 51 75" id="aR"/><path d="M210-169c-67 3-38 105-44 169h-31v-121c0-29-5-50-35-48C34-165 62-65 56 0H25l-1-190h30c1 10-1 24 2 32 10-44 99-50 107 0 11-21 27-35 58-36 85-2 47 119 55 194h-31v-121c0-29-5-49-35-48" id="aS"/><path d="M177-190C167-65 218 103 67 71c-23-6-38-20-44-43l32-5c15 47 100 32 89-28v-30C133-14 115 1 83 1 29 1 15-40 15-95c0-56 16-97 71-98 29-1 48 16 59 35 1-10 0-23 2-32h30zM94-22c36 0 50-32 50-73 0-42-14-75-50-75-39 0-46 34-46 75s6 73 46 73" id="aT"/><g id="p"><use transform="matrix(0.048148148148148155,0,0,0.048148148148148155,0,0)" xlink:href="#aP"/><use transform="matrix(0.048148148148148155,0,0,0.048148148148148155,4.814814814814816,0)" xlink:href="#az"/><use transform="matrix(0.048148148148148155,0,0,0.048148148148148155,14.444444444444446,0)" xlink:href="#aQ"/><use transform="matrix(0.048148148148148155,0,0,0.048148148148148155,23.111111111111114,0)" xlink:href="#aR"/><use transform="matrix(0.048148148148148155,0,0,0.048148148148148155,32.74074074074075,0)" xlink:href="#aS"/><use transform="matrix(0.048148148148148155,0,0,0.048148148148148155,47.13703703703705,0)" xlink:href="#ax"/><use transform="matrix(0.048148148148148155,0,0,0.048148148148148155,50.94074074074075,0)" xlink:href="#az"/><use transform="matrix(0.048148148148148155,0,0,0.048148148148148155,60.57037037037038,0)" xlink:href="#aT"/></g><g id="q"><use transform="matrix(0.048148148148148155,0,0,0.048148148148148155,0,0)" xlink:href="#au"/><use transform="matrix(0.048148148148148155,0,0,0.048148148148148155,11.555555555555557,0)" xlink:href="#av"/><use transform="matrix(0.048148148148148155,0,0,0.048148148148148155,21.18518518518519,0)" xlink:href="#aw"/><use transform="matrix(0.048148148148148155,0,0,0.048148148148148155,26.00000000000001,0)" xlink:href="#ax"/><use transform="matrix(0.048148148148148155,0,0,0.048148148148148155,29.803703703703714,0)" xlink:href="#ay"/><use transform="matrix(0.048148148148148155,0,0,0.048148148148148155,39.433333333333344,0)" xlink:href="#az"/><use transform="matrix(0.048148148148148155,0,0,0.048148148148148155,49.06296296296298,0)" xlink:href="#aw"/></g><path d="M106-169C34-169 62-67 57 0H25v-261h32l-1 103c12-21 28-36 61-36 89 0 53 116 60 194h-32v-121c2-32-8-49-39-48" id="aU"/><path d="M135-143c-3-34-86-38-87 0 15 53 115 12 119 90S17 21 10-45l28-5c4 36 97 45 98 0-10-56-113-15-118-90-4-57 82-63 122-42 12 7 21 19 24 35" id="aV"/><g id="r"><use transform="matrix(0.048148148148148155,0,0,0.048148148148148155,0,0)" xlink:href="#aS"/><use transform="matrix(0.048148148148148155,0,0,0.048148148148148155,14.396296296296299,0)" xlink:href="#av"/><use transform="matrix(0.048148148148148155,0,0,0.048148148148148155,24.025925925925932,0)" xlink:href="#aw"/><use transform="matrix(0.048148148148148155,0,0,0.048148148148148155,28.84074074074075,0)" xlink:href="#aQ"/><use transform="matrix(0.048148148148148155,0,0,0.048148148148148155,37.50740740740741,0)" xlink:href="#aU"/><use transform="matrix(0.048148148148148155,0,0,0.048148148148148155,47.13703703703705,0)" xlink:href="#ay"/><use transform="matrix(0.048148148148148155,0,0,0.048148148148148155,56.76666666666667,0)" xlink:href="#aV"/></g><path d="M141 0L90-78 38 0H4l68-98-65-92h35l48 74 47-74h35l-64 92 68 98h-35" id="aW"/><g id="s"><use transform="matrix(0.048148148148148155,0,0,0.048148148148148155,0,0)" xlink:href="#ay"/><use transform="matrix(0.048148148148148155,0,0,0.048148148148148155,9.629629629629632,0)" xlink:href="#aW"/><use transform="matrix(0.048148148148148155,0,0,0.048148148148148155,18.296296296296298,0)" xlink:href="#ax"/><use transform="matrix(0.048148148148148155,0,0,0.048148148148148155,22.1,0)" xlink:href="#aV"/><use transform="matrix(0.048148148148148155,0,0,0.048148148148148155,30.766666666666673,0)" xlink:href="#aw"/><use transform="matrix(0.048148148148148155,0,0,0.048148148148148155,35.58148148148148,0)" xlink:href="#ax"/><use transform="matrix(0.048148148148148155,0,0,0.048148148148148155,39.385185185185186,0)" xlink:href="#az"/><use transform="matrix(0.048148148148148155,0,0,0.048148148148148155,49.01481481481482,0)" xlink:href="#aT"/></g><path d="M115-194c55 1 70 41 70 98S169 2 115 4C84 4 66-9 55-30l1 105H24l-1-265h31l2 30c10-21 28-34 59-34zm-8 174c40 0 45-34 45-75s-6-73-45-74c-42 0-51 32-51 76 0 43 10 73 51 73" id="aX"/><path d="M114-163C36-179 61-72 57 0H25l-1-190h30c1 12-1 29 2 39 6-27 23-49 58-41v29" id="aY"/><g id="t"><use transform="matrix(0.048148148148148155,0,0,0.048148148148148155,0,0)" xlink:href="#aX"/><use transform="matrix(0.048148148148148155,0,0,0.048148148148148155,9.629629629629632,0)" xlink:href="#ay"/><use transform="matrix(0.048148148148148155,0,0,0.048148148148148155,19.259259259259263,0)" xlink:href="#aY"/><use transform="matrix(0.048148148148148155,0,0,0.048148148148148155,24.988888888888894,0)" xlink:href="#aV"/><use transform="matrix(0.048148148148148155,0,0,0.048148148148148155,33.655555555555566,0)" xlink:href="#aR"/><use transform="matrix(0.048148148148148155,0,0,0.048148148148148155,43.2851851851852,0)" xlink:href="#az"/></g><path d="M115-194c53 0 69 39 70 98 0 66-23 100-70 100C84 3 66-7 56-30L54 0H23l1-261h32v101c10-23 28-34 59-34zm-8 174c40 0 45-34 45-75 0-40-5-75-45-74-42 0-51 32-51 76 0 43 10 73 51 73" id="aZ"/><path d="M85-194c31 0 48 13 60 33l-1-100h32l1 261h-30c-2-10 0-23-3-31C134-8 116 4 85 4 32 4 16-35 15-94c0-66 23-100 70-100zm9 24c-40 0-46 34-46 75 0 40 6 74 45 74 42 0 51-32 51-76 0-42-9-74-50-73" id="ba"/><g id="u"><use transform="matrix(0.048148148148148155,0,0,0.048148148148148155,0,0)" xlink:href="#aZ"/><use transform="matrix(0.048148148148148155,0,0,0.048148148148148155,9.629629629629632,0)" xlink:href="#av"/><use transform="matrix(0.048148148148148155,0,0,0.048148148148148155,19.259259259259263,0)" xlink:href="#aV"/><use transform="matrix(0.048148148148148155,0,0,0.048148148148148155,27.92592592592593,0)" xlink:href="#ay"/><use transform="matrix(0.048148148148148155,0,0,0.048148148148148155,37.555555555555564,0)" xlink:href="#ba"/></g><g id="v"><use transform="matrix(0.048148148148148155,0,0,0.048148148148148155,0,0)" xlink:href="#aR"/><use transform="matrix(0.048148148148148155,0,0,0.048148148148148155,9.629629629629632,0)" xlink:href="#az"/></g><path d="M68-38c1 34 0 65-14 84H32c9-13 17-26 17-46H33v-38h35" id="bb"/><g id="w"><use transform="matrix(0.048148148148148155,0,0,0.048148148148148155,0,0)" xlink:href="#aS"/><use transform="matrix(0.048148148148148155,0,0,0.048148148148148155,14.396296296296299,0)" xlink:href="#av"/><use transform="matrix(0.048148148148148155,0,0,0.048148148148148155,24.025925925925932,0)" xlink:href="#aw"/><use transform="matrix(0.048148148148148155,0,0,0.048148148148148155,28.84074074074075,0)" xlink:href="#aQ"/><use transform="matrix(0.048148148148148155,0,0,0.048148148148148155,37.50740740740741,0)" xlink:href="#aU"/><use transform="matrix(0.048148148148148155,0,0,0.048148148148148155,47.13703703703705,0)" xlink:href="#ay"/><use transform="matrix(0.048148148148148155,0,0,0.048148148148148155,56.76666666666667,0)" xlink:href="#aY"/><use transform="matrix(0.048148148148148155,0,0,0.048148148148148155,62.49629629629631,0)" xlink:href="#aV"/><use transform="matrix(0.048148148148148155,0,0,0.048148148148148155,71.16296296296298,0)" xlink:href="#bb"/></g><path d="M84 4C-5 8 30-112 23-190h32v120c0 31 7 50 39 49 72-2 45-101 50-169h31l1 190h-30c-1-10 1-25-2-33-11 22-28 36-60 37" id="bc"/><g id="x"><use transform="matrix(0.048148148148148155,0,0,0.048148148148148155,0,0)" xlink:href="#aZ"/><use transform="matrix(0.048148148148148155,0,0,0.048148148148148155,9.629629629629632,0)" xlink:href="#bc"/><use transform="matrix(0.048148148148148155,0,0,0.048148148148148155,19.259259259259263,0)" xlink:href="#aw"/></g><path d="M30 0v-248h187v28H63v79h144v27H63v87h162V0H30" id="bd"/><path d="M30-248c118-7 216 8 213 122C240-48 200 0 122 0H30v-248zM63-27c89 8 146-16 146-99s-60-101-146-95v194" id="be"/><g id="y"><use transform="matrix(0.048148148148148155,0,0,0.048148148148148155,0,0)" xlink:href="#bd"/><use transform="matrix(0.048148148148148155,0,0,0.048148148148148155,11.555555555555557,0)" xlink:href="#aP"/><use transform="matrix(0.048148148148148155,0,0,0.048148148148148155,16.370370370370374,0)" xlink:href="#be"/></g><g id="z"><use transform="matrix(0.048148148148148155,0,0,0.048148148148148155,0,0)" xlink:href="#ba"/><use transform="matrix(0.048148148148148155,0,0,0.048148148148148155,9.629629629629632,0)" xlink:href="#aR"/><use transform="matrix(0.048148148148148155,0,0,0.048148148148148155,19.259259259259263,0)" xlink:href="#ay"/><use transform="matrix(0.048148148148148155,0,0,0.048148148148148155,28.888888888888893,0)" xlink:href="#aV"/></g><g id="A"><use transform="matrix(0.048148148148148155,0,0,0.048148148148148155,0,0)" xlink:href="#az"/><use transform="matrix(0.048148148148148155,0,0,0.048148148148148155,9.629629629629632,0)" xlink:href="#aR"/><use transform="matrix(0.048148148148148155,0,0,0.048148148148148155,19.259259259259263,0)" xlink:href="#aw"/></g><g id="B"><use transform="matrix(0.048148148148148155,0,0,0.048148148148148155,0,0)" xlink:href="#aS"/><use transform="matrix(0.048148148148148155,0,0,0.048148148148148155,14.396296296296299,0)" xlink:href="#av"/><use transform="matrix(0.048148148148148155,0,0,0.048148148148148155,24.025925925925932,0)" xlink:href="#aw"/><use transform="matrix(0.048148148148148155,0,0,0.048148148148148155,28.84074074074075,0)" xlink:href="#aQ"/><use transform="matrix(0.048148148148148155,0,0,0.048148148148148155,37.50740740740741,0)" xlink:href="#aU"/></g><path d="M27 0v-27h64v-190l-56 39v-29l58-41h29v221h61V0H27" id="bf"/><use transform="matrix(0.05,0,0,0.05,0,0)" xlink:href="#bf" id="C"/><path fill="#333" d="M135-150c-39-12-60 13-60 57V0H25l-1-190h47c2 13-1 29 3 40 6-28 27-53 61-41v41" id="bg"/><g id="D"><use transform="matrix(0.05,0,0,0.05,0,0)" xlink:href="#aL"/><use transform="matrix(0.05,0,0,0.05,12,0)" xlink:href="#aM"/><use transform="matrix(0.05,0,0,0.05,17.95,0)" xlink:href="#aN"/><use transform="matrix(0.05,0,0,0.05,27.950000000000003,0)" xlink:href="#bg"/><use transform="matrix(0.05,0,0,0.05,34.95,0)" xlink:href="#aM"/></g><g id="E"><use transform="matrix(0.05,0,0,0.05,0,0)" xlink:href="#aD"/><use transform="matrix(0.05,0,0,0.05,12,0)" xlink:href="#aE"/><use transform="matrix(0.05,0,0,0.05,17,0)" xlink:href="#aF"/><use transform="matrix(0.05,0,0,0.05,29.950000000000003,0)" xlink:href="#aG"/><use transform="matrix(0.05,0,0,0.05,34.95,0)" xlink:href="#ag"/></g><g id="F"><use transform="matrix(0.05,0,0,0.05,0,0)" xlink:href="#au"/><use transform="matrix(0.05,0,0,0.05,12,0)" xlink:href="#ay"/><use transform="matrix(0.05,0,0,0.05,22,0)" xlink:href="#aY"/><use transform="matrix(0.05,0,0,0.05,27.950000000000003,0)" xlink:href="#aV"/><use transform="matrix(0.05,0,0,0.05,36.95,0)" xlink:href="#aR"/><use transform="matrix(0.05,0,0,0.05,46.95,0)" xlink:href="#az"/></g><path fill="#333" d="M240 0l2-218c-23 76-54 145-80 218h-23L58-218 59 0H30v-248h44l77 211c21-75 51-140 76-211h43V0h-30" id="bh"/><path fill="#333" d="M212-179c-10-28-35-45-73-45-59 0-87 40-87 99 0 60 29 101 89 101 43 0 62-24 78-52l27 14C228-24 195 4 139 4 59 4 22-46 18-125c-6-104 99-153 187-111 19 9 31 26 39 46" id="bi"/><path fill="#333" d="M197 0v-115H63V0H30v-248h33v105h134v-105h34V0h-34" id="bj"/><g id="G"><use transform="matrix(0.05,0,0,0.05,0,0)" xlink:href="#bh"/><use transform="matrix(0.05,0,0,0.05,14.950000000000001,0)" xlink:href="#ag"/><use transform="matrix(0.05,0,0,0.05,25.6,0)" xlink:href="#ac"/><use transform="matrix(0.05,0,0,0.05,36.550000000000004,0)" xlink:href="#bi"/><use transform="matrix(0.05,0,0,0.05,49.50000000000001,0)" xlink:href="#bj"/></g><path fill="#333" d="M199 0l-22-63H83L61 0H9l90-248h61L250 0h-51zm-33-102l-36-108c-10 38-24 72-36 108h72" id="bk"/><path fill="#333" d="M190-63c-7 42-38 67-86 67-59 0-84-38-90-98-12-110 154-137 174-36l-49 2c-2-19-15-32-35-32-30 0-35 28-38 64-6 74 65 87 74 30" id="bl"/><path fill="#333" d="M25-224v-37h50v37H25zM25 0v-190h50V0H25" id="bm"/><path fill="#333" d="M110-194c64 0 96 36 96 99 0 64-35 99-97 99-61 0-95-36-95-99 0-62 34-99 96-99zm-1 164c35 0 45-28 45-65 0-40-10-65-43-65-34 0-45 26-45 65 0 36 10 65 43 65" id="bn"/><g id="H"><use transform="matrix(0.05,0,0,0.05,0,0)" xlink:href="#bk"/><use transform="matrix(0.05,0,0,0.05,12.950000000000001,0)" xlink:href="#bl"/><use transform="matrix(0.05,0,0,0.05,22.950000000000003,0)" xlink:href="#aM"/><use transform="matrix(0.05,0,0,0.05,28.900000000000002,0)" xlink:href="#bm"/><use transform="matrix(0.05,0,0,0.05,33.900000000000006,0)" xlink:href="#bn"/><use transform="matrix(0.05,0,0,0.05,44.85000000000001,0)" xlink:href="#aJ"/></g><g id="I"><use transform="matrix(0.048148148148148155,0,0,0.048148148148148155,0,0)" xlink:href="#au"/><use transform="matrix(0.048148148148148155,0,0,0.048148148148148155,11.555555555555557,0)" xlink:href="#av"/><use transform="matrix(0.048148148148148155,0,0,0.048148148148148155,21.18518518518519,0)" xlink:href="#aw"/><use transform="matrix(0.048148148148148155,0,0,0.048148148148148155,26.00000000000001,0)" xlink:href="#ax"/><use transform="matrix(0.048148148148148155,0,0,0.048148148148148155,29.803703703703714,0)" xlink:href="#ay"/><use transform="matrix(0.048148148148148155,0,0,0.048148148148148155,39.433333333333344,0)" xlink:href="#az"/><use transform="matrix(0.048148148148148155,0,0,0.048148148148148155,49.06296296296298,0)" xlink:href="#aw"/></g><g id="J"><use transform="matrix(0.048148148148148155,0,0,0.048148148148148155,0,0)" xlink:href="#aU"/><use transform="matrix(0.048148148148148155,0,0,0.048148148148148155,9.629629629629632,0)" xlink:href="#av"/><use transform="matrix(0.048148148148148155,0,0,0.048148148148148155,19.259259259259263,0)" xlink:href="#aV"/></g><path d="M206 0h-36l-40-164L89 0H53L-1-190h32L70-26l43-164h34l41 164 42-164h31" id="bo"/><g id="K"><use transform="matrix(0.048148148148148155,0,0,0.048148148148148155,0,0)" xlink:href="#az"/><use transform="matrix(0.048148148148148155,0,0,0.048148148148148155,9.629629629629632,0)" xlink:href="#ay"/><use transform="matrix(0.048148148148148155,0,0,0.048148148148148155,19.259259259259263,0)" xlink:href="#bo"/></g><g id="L"><use transform="matrix(0.048148148148148155,0,0,0.048148148148148155,0,0)" xlink:href="#au"/><use transform="matrix(0.048148148148148155,0,0,0.048148148148148155,11.555555555555557,0)" xlink:href="#ay"/><use transform="matrix(0.048148148148148155,0,0,0.048148148148148155,21.18518518518519,0)" xlink:href="#aY"/><use transform="matrix(0.048148148148148155,0,0,0.048148148148148155,26.914814814814825,0)" xlink:href="#aV"/><use transform="matrix(0.048148148148148155,0,0,0.048148148148148155,35.58148148148149,0)" xlink:href="#aR"/><use transform="matrix(0.048148148148148155,0,0,0.048148148148148155,45.21111111111112,0)" xlink:href="#az"/></g><g id="M"><use transform="matrix(0.048148148148148155,0,0,0.048148148148148155,0,0)" xlink:href="#aQ"/><use transform="matrix(0.048148148148148155,0,0,0.048148148148148155,8.666666666666668,0)" xlink:href="#aY"/><use transform="matrix(0.048148148148148155,0,0,0.048148148148148155,14.396296296296299,0)" xlink:href="#ay"/><use transform="matrix(0.048148148148148155,0,0,0.048148148148148155,24.025925925925932,0)" xlink:href="#av"/><use transform="matrix(0.048148148148148155,0,0,0.048148148148148155,33.655555555555566,0)" xlink:href="#aw"/><use transform="matrix(0.048148148148148155,0,0,0.048148148148148155,38.47037037037038,0)" xlink:href="#ay"/><use transform="matrix(0.048148148148148155,0,0,0.048148148148148155,48.100000000000016,0)" xlink:href="#ba"/></g><path d="M101-234c-31-9-42 10-38 44h38v23H63V0H32v-167H5v-23h27c-7-52 17-82 69-68v24" id="bp"/><g id="N"><use transform="matrix(0.048148148148148155,0,0,0.048148148148148155,0,0)" xlink:href="#bp"/><use transform="matrix(0.048148148148148155,0,0,0.048148148148148155,4.814814814814816,0)" xlink:href="#aR"/><use transform="matrix(0.048148148148148155,0,0,0.048148148148148155,14.444444444444446,0)" xlink:href="#aY"/></g><g id="O"><use transform="matrix(0.048148148148148155,0,0,0.048148148148148155,0,0)" xlink:href="#aw"/><use transform="matrix(0.048148148148148155,0,0,0.048148148148148155,4.814814814814816,0)" xlink:href="#aU"/><use transform="matrix(0.048148148148148155,0,0,0.048148148148148155,14.444444444444446,0)" xlink:href="#ay"/><use transform="matrix(0.048148148148148155,0,0,0.048148148148148155,24.074074074074076,0)" xlink:href="#aS"/><use transform="matrix(0.048148148148148155,0,0,0.048148148148148155,38.470370370370375,0)" xlink:href="#bb"/></g><g id="P"><use transform="matrix(0.048148148148148155,0,0,0.048148148148148155,0,0)" xlink:href="#av"/><use transform="matrix(0.048148148148148155,0,0,0.048148148148148155,9.629629629629632,0)" xlink:href="#az"/><use transform="matrix(0.048148148148148155,0,0,0.048148148148148155,19.259259259259263,0)" xlink:href="#ba"/></g><path d="M140-251c81 0 123 46 123 126C263-46 219 4 140 4 59 4 17-45 17-125s42-126 123-126zm0 227c63 0 89-41 89-101s-29-99-89-99c-61 0-89 39-89 99S79-25 140-24" id="bq"/><path d="M185-189c-5-48-123-54-124 2 14 75 158 14 163 119 3 78-121 87-175 55-17-10-28-26-33-46l33-7c5 56 141 63 141-1 0-78-155-14-162-118-5-82 145-84 179-34 5 7 8 16 11 25" id="br"/><path d="M160-131c35 5 61 23 61 61C221 17 115-2 30 0v-248c76 3 177-17 177 60 0 33-19 50-47 57zm-97-11c50-1 110 9 110-42 0-47-63-36-110-37v79zm0 115c55-2 124 14 124-45 0-56-70-42-124-44v89" id="bs"/><path d="M30 0v-248h33v221h125V0H30" id="bt"/><path d="M-5 72V49h209v23H-5" id="bu"/><path d="M232-93c-1 65-40 97-104 97C67 4 28-28 28-90v-158h33c8 89-33 224 67 224 102 0 64-133 71-224h33v155" id="bv"/><path d="M212-179c-10-28-35-45-73-45-59 0-87 40-87 99 0 60 29 101 89 101 43 0 62-24 78-52l27 14C228-24 195 4 139 4 59 4 22-46 18-125c-6-104 99-153 187-111 19 9 31 26 39 46" id="bw"/><path d="M205 0l-28-72H64L36 0H1l101-248h38L239 0h-34zm-38-99l-47-123c-12 45-31 82-46 123h93" id="bx"/><path d="M127-220V0H93v-220H8v-28h204v28h-85" id="by"/><g id="Q"><use transform="matrix(0.048148148148148155,0,0,0.048148148148148155,0,0)" xlink:href="#au"/><use transform="matrix(0.048148148148148155,0,0,0.048148148148148155,11.555555555555557,0)" xlink:href="#bq"/><use transform="matrix(0.048148148148148155,0,0,0.048148148148148155,25.03703703703704,0)" xlink:href="#br"/><use transform="matrix(0.048148148148148155,0,0,0.048148148148148155,36.592592592592595,0)" xlink:href="#br"/><use transform="matrix(0.048148148148148155,0,0,0.048148148148148155,48.14814814814815,0)" xlink:href="#aP"/><use transform="matrix(0.048148148148148155,0,0,0.048148148148148155,52.96296296296297,0)" xlink:href="#bs"/><use transform="matrix(0.048148148148148155,0,0,0.048148148148148155,64.51851851851853,0)" xlink:href="#bt"/><use transform="matrix(0.048148148148148155,0,0,0.048148148148148155,74.14814814814817,0)" xlink:href="#bd"/><use transform="matrix(0.048148148148148155,0,0,0.048148148148148155,85.70370370370372,0)" xlink:href="#bu"/><use transform="matrix(0.048148148148148155,0,0,0.048148148148148155,95.33333333333336,0)" xlink:href="#be"/><use transform="matrix(0.048148148148148155,0,0,0.048148148148148155,107.80370370370375,0)" xlink:href="#bv"/><use transform="matrix(0.048148148148148155,0,0,0.048148148148148155,120.27407407407411,0)" xlink:href="#au"/><use transform="matrix(0.048148148148148155,0,0,0.048148148148148155,131.82962962962966,0)" xlink:href="#bt"/><use transform="matrix(0.048148148148148155,0,0,0.048148148148148155,141.45925925925928,0)" xlink:href="#aP"/><use transform="matrix(0.048148148148148155,0,0,0.048148148148148155,146.2740740740741,0)" xlink:href="#bw"/><use transform="matrix(0.048148148148148155,0,0,0.048148148148148155,158.74444444444447,0)" xlink:href="#bx"/><use transform="matrix(0.048148148148148155,0,0,0.048148148148148155,169,0)" xlink:href="#by"/><use transform="matrix(0.048148148148148155,0,0,0.048148148148148155,179.54444444444445,0)" xlink:href="#bd"/></g><path d="M24 0v-261h32V0H24" id="bz"/><g id="R"><use transform="matrix(0.048148148148148155,0,0,0.048148148148148155,0,0)" xlink:href="#bz"/><use transform="matrix(0.048148148148148155,0,0,0.048148148148148155,3.8037037037037043,0)" xlink:href="#ax"/><use transform="matrix(0.048148148148148155,0,0,0.048148148148148155,7.6074074074074085,0)" xlink:href="#az"/><use transform="matrix(0.048148148148148155,0,0,0.048148148148148155,17.23703703703704,0)" xlink:href="#aC"/></g><g id="S"><use transform="matrix(0.048148148148148155,0,0,0.048148148148148155,0,0)" xlink:href="#ax"/><use transform="matrix(0.048148148148148155,0,0,0.048148148148148155,3.8037037037037043,0)" xlink:href="#aV"/></g><g id="T"><use transform="matrix(0.048148148148148155,0,0,0.048148148148148155,0,0)" xlink:href="#aZ"/><use transform="matrix(0.048148148148148155,0,0,0.048148148148148155,9.629629629629632,0)" xlink:href="#ay"/><use transform="matrix(0.048148148148148155,0,0,0.048148148148148155,19.259259259259263,0)" xlink:href="#aw"/><use transform="matrix(0.048148148148148155,0,0,0.048148148148148155,24.07407407407408,0)" xlink:href="#bo"/><use transform="matrix(0.048148148148148155,0,0,0.048148148148148155,36.54444444444445,0)" xlink:href="#ay"/><use transform="matrix(0.048148148148148155,0,0,0.048148148148148155,46.174074074074085,0)" xlink:href="#ay"/><use transform="matrix(0.048148148148148155,0,0,0.048148148148148155,55.803703703703725,0)" xlink:href="#az"/></g><g id="U"><use transform="matrix(0.048148148148148155,0,0,0.048148148148148155,0,0)" xlink:href="#aw"/><use transform="matrix(0.048148148148148155,0,0,0.048148148148148155,4.814814814814816,0)" xlink:href="#aU"/><use transform="matrix(0.048148148148148155,0,0,0.048148148148148155,14.444444444444446,0)" xlink:href="#ay"/></g><g id="V"><use transform="matrix(0.048148148148148155,0,0,0.048148148148148155,0,0)" xlink:href="#aw"/><use transform="matrix(0.048148148148148155,0,0,0.048148148148148155,4.814814814814816,0)" xlink:href="#bo"/><use transform="matrix(0.048148148148148155,0,0,0.048148148148148155,17.28518518518519,0)" xlink:href="#aR"/></g><g id="W"><use transform="matrix(0.048148148148148155,0,0,0.048148148148148155,0,0)" xlink:href="#aX"/><use transform="matrix(0.048148148148148155,0,0,0.048148148148148155,9.629629629629632,0)" xlink:href="#ay"/><use transform="matrix(0.048148148148148155,0,0,0.048148148148148155,19.259259259259263,0)" xlink:href="#aY"/><use transform="matrix(0.048148148148148155,0,0,0.048148148148148155,24.988888888888894,0)" xlink:href="#aV"/><use transform="matrix(0.048148148148148155,0,0,0.048148148148148155,33.655555555555566,0)" xlink:href="#aR"/><use transform="matrix(0.048148148148148155,0,0,0.048148148148148155,43.2851851851852,0)" xlink:href="#az"/><use transform="matrix(0.048148148148148155,0,0,0.048148148148148155,52.91481481481483,0)" xlink:href="#aV"/></g><path fill="#333" d="M30-248c87 1 191-15 191 75 0 78-77 80-158 76V0H30v-248zm33 125c57 0 124 11 124-50 0-59-68-47-124-48v98" id="bA"/><path fill="#333" d="M140-251c81 0 123 46 123 126C263-46 219 4 140 4 59 4 17-45 17-125s42-126 123-126zm0 227c63 0 89-41 89-101s-29-99-89-99c-61 0-89 39-89 99S79-25 140-24" id="bB"/><path fill="#333" d="M185-189c-5-48-123-54-124 2 14 75 158 14 163 119 3 78-121 87-175 55-17-10-28-26-33-46l33-7c5 56 141 63 141-1 0-78-155-14-162-118-5-82 145-84 179-34 5 7 8 16 11 25" id="bC"/><path fill="#333" d="M30 0v-248h33v221h125V0H30" id="bD"/><path fill="#333" d="M-5 72V49h209v23H-5" id="bE"/><path fill="#333" d="M232-93c-1 65-40 97-104 97C67 4 28-28 28-90v-158h33c8 89-33 224 67 224 102 0 64-133 71-224h33v155" id="bF"/><g id="X"><use transform="matrix(0.05,0,0,0.05,0,0)" xlink:href="#bA"/><use transform="matrix(0.05,0,0,0.05,12,0)" xlink:href="#bB"/><use transform="matrix(0.05,0,0,0.05,26,0)" xlink:href="#bC"/><use transform="matrix(0.05,0,0,0.05,38,0)" xlink:href="#bC"/><use transform="matrix(0.05,0,0,0.05,50,0)" xlink:href="#aE"/><use transform="matrix(0.05,0,0,0.05,55,0)" xlink:href="#aH"/><use transform="matrix(0.05,0,0,0.05,67,0)" xlink:href="#bD"/><use transform="matrix(0.05,0,0,0.05,77,0)" xlink:href="#aD"/><use transform="matrix(0.05,0,0,0.05,89,0)" xlink:href="#bE"/><use transform="matrix(0.05,0,0,0.05,99,0)" xlink:href="#aF"/><use transform="matrix(0.05,0,0,0.05,111.95,0)" xlink:href="#bF"/><use transform="matrix(0.05,0,0,0.05,124.9,0)" xlink:href="#bA"/><use transform="matrix(0.05,0,0,0.05,136.9,0)" xlink:href="#bD"/><use transform="matrix(0.05,0,0,0.05,146.9,0)" xlink:href="#aE"/><use transform="matrix(0.05,0,0,0.05,151.9,0)" xlink:href="#bi"/><use transform="matrix(0.05,0,0,0.05,164.85,0)" xlink:href="#ag"/><use transform="matrix(0.05,0,0,0.05,175.5,0)" xlink:href="#ac"/><use transform="matrix(0.05,0,0,0.05,186.45,0)" xlink:href="#aD"/></g><path fill="#333" d="M67-125c0 53 21 87 73 88 37 1 54-22 65-47l45 17C233-25 199 4 140 4 58 4 20-42 15-125 8-235 124-281 211-232c18 10 29 29 36 50l-46 12c-8-25-30-41-62-41-52 0-71 34-72 86" id="bG"/><g id="Y"><use transform="matrix(0.06790123456790124,0,0,0.06790123456790124,0,0)" xlink:href="#bG"/><use transform="matrix(0.06790123456790124,0,0,0.06790123456790124,17.58641975308642,0)" xlink:href="#bg"/><use transform="matrix(0.06790123456790124,0,0,0.06790123456790124,27.092592592592595,0)" xlink:href="#aO"/><use transform="matrix(0.06790123456790124,0,0,0.06790123456790124,40.67283950617284,0)" xlink:href="#aN"/><use transform="matrix(0.06790123456790124,0,0,0.06790123456790124,54.25308641975309,0)" xlink:href="#aM"/><use transform="matrix(0.06790123456790124,0,0,0.06790123456790124,62.333333333333336,0)" xlink:href="#aO"/></g><path fill="#333" d="M238-95c0 69-44 99-111 99C63 4 22-25 22-93v-155h51v151c-1 38 19 59 55 60 90 1 49-130 58-211h52v153" id="bH"/><path fill="#333" d="M137-138c1-29-70-34-71-4 15 46 118 7 119 86 1 83-164 76-172 9l43-7c4 19 20 25 44 25 33 8 57-30 24-41C81-84 22-81 20-136c-2-80 154-74 161-7" id="bI"/><g id="Z"><use transform="matrix(0.06790123456790124,0,0,0.06790123456790124,0,0)" xlink:href="#bH"/><use transform="matrix(0.06790123456790124,0,0,0.06790123456790124,17.58641975308642,0)" xlink:href="#bI"/><use transform="matrix(0.06790123456790124,0,0,0.06790123456790124,31.16666666666667,0)" xlink:href="#aO"/></g><g id="aa"><use transform="matrix(0.06790123456790124,0,0,0.06790123456790124,0,0)" xlink:href="#bG"/><use transform="matrix(0.06790123456790124,0,0,0.06790123456790124,17.58641975308642,0)" xlink:href="#aN"/><use transform="matrix(0.06790123456790124,0,0,0.06790123456790124,31.16666666666667,0)" xlink:href="#bI"/><use transform="matrix(0.06790123456790124,0,0,0.06790123456790124,44.74691358024692,0)" xlink:href="#aO"/></g><path fill="#333" d="M160-152l-12 59h37v26h-43L128 0h-28l14-67H60L46 0H20l13-67H6v-26h33l13-59H15v-26h42l15-67h27l-15 67h54l15-67h27l-14 67h28v26h-34zm-81 0L66-93h55l12-59H79" id="bJ"/><path fill="#333" d="M139-81c0-46-55-55-73-27H18l9-140h149v37H72l-4 63c44-38 133-4 122 66C201 21 21 35 11-62l49-4c5 18 15 30 39 30 26 0 40-18 40-45" id="bK"/><g id="ab"><use transform="matrix(0.06790123456790124,0,0,0.06790123456790124,0,0)" xlink:href="#bJ"/><use transform="matrix(0.06790123456790124,0,0,0.06790123456790124,13.580246913580249,0)" xlink:href="#bK"/></g></defs></g></svg>