<svg xmlns="http://www.w3.org/2000/svg" xmlns:xlink="http://www.w3.org/1999/xlink" xmlns:lucid="lucid" width="1861" height="494"><g transform="translate(0 -616)" lucid:page-tab-id=".Q4MUjXso07N"><path d="M0 0h2393.76v3151H0z" fill="#fff"/><path d="M20 1103.5c0-4.42 3.58-8 8-8h1884.56c4.42 0 8 3.58 8 8V1572c0 4.42-3.58 8-8 8H28c-4.42 0-8-3.58-8-8z" stroke="#fff" fill="#fff"/><use xlink:href="#a" transform="matrix(1,0,0,1,40,1095.499999999909) translate(914.025 246.1)"/><path d="M20 631.53c0-4.42 3.58-8 8-8h1884.56c4.42 0 8 3.58 8 8v455.97c0 4.42-3.58 8-8 8H28c-4.42 0-8-3.58-8-8z" stroke="#fff" fill="#fff"/><use xlink:href="#a" transform="matrix(1,0,0,1,40,623.5283658468877) translate(914.025 239.6)"/><path d="M20 148c0-4.42 3.58-8 8-8h1744c4.42 0 8 3.58 8 8v485.37c0 4.42-3.58 8-8 8H28c-4.42 0-8-3.58-8-8z" stroke="#fff" fill="#fff"/><use xlink:href="#a" transform="matrix(1,0,0,1,40,140) translate(843.525 254.6)"/><path d="M820 248c0-4.42 3.58-8 8-8h372.77c4.42 0 8 3.58 8 8v344c0 4.42-3.58 8-8 8H828c-4.42 0-8-3.58-8-8zM1340 248c0-4.42 3.58-8 8-8h372.77c4.42 0 8 3.58 8 8v344c0 4.42-3.58 8-8 8H1348c-4.42 0-8-3.58-8-8zM119.5 248c0-4.42 3.58-8 8-8h372.77c4.42 0 8 3.58 8 8v344c0 4.42-3.58 8-8 8H127.5c-4.42 0-8-3.58-8-8z" stroke="#333" fill="#fff"/><path d="M806.87 1127.03c0-4.42 3.58-8 8-8h384c4.4 0 8 3.58 8 8v44c0 4.42-3.6 8-8 8h-384c-4.42 0-8-3.58-8-8z" stroke="#000" stroke-opacity="0" fill="#fff" fill-opacity="0"/><use xlink:href="#b" transform="matrix(1,0,0,1,826.8653751969799,1119.0283658467963) translate(16.48888888888888 23.066666666666663)"/><use xlink:href="#c" transform="matrix(1,0,0,1,826.8653751969799,1119.0283658467963) translate(91.5037037037037 23.066666666666663)"/><use xlink:href="#d" transform="matrix(1,0,0,1,826.8653751969799,1119.0283658467963) translate(150.1962962962963 23.066666666666663)"/><use xlink:href="#e" transform="matrix(1,0,0,1,826.8653751969799,1119.0283658467963) translate(185.72962962962964 23.066666666666663)"/><use xlink:href="#f" transform="matrix(1,0,0,1,826.8653751969799,1119.0283658467963) translate(209.80370370370372 23.066666666666663)"/><use xlink:href="#g" transform="matrix(1,0,0,1,826.8653751969799,1119.0283658467963) translate(276.15185185185186 23.066666666666663)"/><use xlink:href="#h" transform="matrix(1,0,0,1,826.8653751969799,1119.0283658467963) translate(314.6222222222222 23.066666666666663)"/><use xlink:href="#i" transform="matrix(1,0,0,1,826.8653751969799,1119.0283658467963) translate(25.637037037037004 43.86666666666667)"/><use xlink:href="#j" transform="matrix(1,0,0,1,826.8653751969799,1119.0283658467963) translate(59.34074074074071 43.86666666666667)"/><use xlink:href="#k" transform="matrix(1,0,0,1,826.8653751969799,1119.0283658467963) translate(92.99629629629626 43.86666666666667)"/><use xlink:href="#l" transform="matrix(1,0,0,1,826.8653751969799,1119.0283658467963) translate(110.28148148148145 43.86666666666667)"/><use xlink:href="#m" transform="matrix(1,0,0,1,826.8653751969799,1119.0283658467963) translate(171.8148148148148 43.86666666666667)"/><use xlink:href="#n" transform="matrix(1,0,0,1,826.8653751969799,1119.0283658467963) translate(226.65555555555557 43.86666666666667)"/><use xlink:href="#o" transform="matrix(1,0,0,1,826.8653751969799,1119.0283658467963) translate(244.9037037037037 43.86666666666667)"/><use xlink:href="#p" transform="matrix(1,0,0,1,826.8653751969799,1119.0283658467963) translate(274.70740740740746 43.86666666666667)"/><path d="M820.5 730.75c0-4.42 3.58-8 8-8h372.77c4.42 0 8 3.58 8 8v344c0 4.42-3.58 8-8 8H828.5c-4.42 0-8-3.58-8-8zM740.5 902.75c0 33.14-26.86 60-60 60s-60-26.86-60-60 26.86-60 60-60 60 26.86 60 60z" stroke="#333" fill="#fff"/><use xlink:href="#q" transform="matrix(1,0,0,1,638.5003118578667,866.7499999999544) translate(6.524999999999999 39.6)"/><use xlink:href="#r" transform="matrix(1,0,0,1,638.5003118578667,866.7499999999544) translate(67.475 39.6)"/><path d="M948.26 706.63c0-4.42 3.58-8 8-8h118.36c4.42 0 8 3.58 8 8V732c0 4.42-3.58 8-8 8H956.26c-4.42 0-8-3.58-8-8z" stroke="#333" fill="#ffeca9"/><use xlink:href="#s" transform="matrix(1,0,0,1,968.2582298150356,698.6250000000227) translate(19.599999999999994 24.6)"/><path d="M761.62 902.75h37.76" stroke="#333" stroke-width="3" fill="none"/><path d="M745.85 902.75l14.27-4.64v9.3zM815.15 902.75l-14.27 4.64v-9.3z" stroke="#333" stroke-width="3" fill="#333"/><path d="M1340.5 730.75c0-4.42 3.58-8 8-8h447.2c4.4 0 8 3.58 8 8v344c0 4.42-3.6 8-8 8h-447.2c-4.42 0-8-3.58-8-8z" stroke="#333" fill="#fff"/><path d="M1528.8 982.75c0 33.14-26.87 60-60 60-33.14 0-60-26.86-60-60s26.86-60 60-60c33.13 0 60 26.86 60 60z" stroke="#333" fill="#fff"/><use xlink:href="#q" transform="matrix(1,0,0,1,1426.7923974354176,946.7499999999544) translate(6.524999999999999 39.6)"/><use xlink:href="#r" transform="matrix(1,0,0,1,1426.7923974354176,946.7499999999544) translate(67.475 39.6)"/><path d="M1478.9 703.77c0-4.42 3.57-8 8-8h121.75c4.42 0 8 3.58 8 8v17.96c0 4.42-3.58 8-8 8H1486.9c-4.43 0-8-3.58-8-8z" stroke="#333" fill="#ffeca9"/><use xlink:href="#t" transform="matrix(1,0,0,1,1498.8890566191908,695.7727878144242) translate(7.599999999999994 20.6)"/><use xlink:href="#u" transform="matrix(1,0,0,1,1498.8890566191908,695.7727878144242) translate(46.5 20.6)"/><path d="M1346.13 900h115.72l12.55 12.55v50.2h-128.27z" stroke="#333" fill="#fff"/><path d="M1461.85 900.48v12.07h12.07" stroke="#333" fill="#fff"/><use xlink:href="#v" transform="matrix(1,0,0,1,1352.4007016801957,907.5299999999945) translate(0.6249999999999929 29.1)"/><path d="M1731.25 852.75c0 33.14-26.86 60-60 60s-60-26.86-60-60 26.86-60 60-60 60 26.86 60 60z" stroke="#333" fill="#fff"/><use xlink:href="#w" transform="matrix(1,0,0,1,1629.250779644667,816.7499999999544) translate(14.024999999999999 32.8)"/><use xlink:href="#x" transform="matrix(1,0,0,1,1629.250779644667,816.7499999999544) translate(3.954629629629622 49.06666666666667)"/><use xlink:href="#y" transform="matrix(1,0,0,1,1629.250779644667,816.7499999999544) translate(43.58981481481481 49.06666666666667)"/><path d="M1591.25 752.75h138l12 12v48h-150z" stroke="#333" fill="#fff"/><path d="M1729.25 753.23v11.52h11.52" stroke="#333" fill="#fff"/><use xlink:href="#v" transform="matrix(1,0,0,1,1597.250779644667,759.9499999999545) translate(11.624999999999993 27.6)"/><path d="M120 730.75c0-4.42 3.58-8 8-8h372.77c4.42 0 8 3.58 8 8v344c0 4.42-3.58 8-8 8H128c-4.42 0-8-3.58-8-8z" stroke="#333" fill="#fff"/><path d="M224.4 702.12c0-4.4 3.6-8 8-8h140.9c4.42 0 8 3.6 8 8v21.25c0 4.42-3.58 8-8 8H232.4c-4.4 0-8-3.58-8-8z" stroke="#333" fill="#ffeca9"/><g><use xlink:href="#z" transform="matrix(1,0,0,1,244.40699298772938,694.1249999999316) translate(13.599999999999994 22.6)"/><use xlink:href="#u" transform="matrix(1,0,0,1,244.40699298772938,694.1249999999316) translate(59.5 22.6)"/></g><path d="M809.27 645.25c0-4.42 3.58-8 8-8h384c4.42 0 8 3.58 8 8v44c0 4.42-3.58 8-8 8h-384c-4.42 0-8-3.58-8-8z" stroke="#000" stroke-opacity="0" fill="#fff" fill-opacity="0"/><g><use xlink:href="#b" transform="matrix(1,0,0,1,829.271120753242,637.2500000000455) translate(35.74814814814815 33.46666666666667)"/><use xlink:href="#c" transform="matrix(1,0,0,1,829.271120753242,637.2500000000455) translate(110.76296296296297 33.46666666666667)"/><use xlink:href="#d" transform="matrix(1,0,0,1,829.271120753242,637.2500000000455) translate(169.45555555555558 33.46666666666667)"/><use xlink:href="#A" transform="matrix(1,0,0,1,829.271120753242,637.2500000000455) translate(204.9888888888889 33.46666666666667)"/><use xlink:href="#f" transform="matrix(1,0,0,1,829.271120753242,637.2500000000455) translate(229.06296296296298 33.46666666666667)"/><use xlink:href="#B" transform="matrix(1,0,0,1,829.271120753242,637.2500000000455) translate(295.41111111111115 33.46666666666667)"/></g><path d="M1251.25 645.25c0-4.42 3.58-8 8-8h524c4.42 0 8 3.58 8 8v44c0 4.42-3.58 8-8 8h-524c-4.42 0-8-3.58-8-8z" stroke="#000" stroke-opacity="0" fill-opacity="0"/><g><use xlink:href="#C" transform="matrix(1,0,0,1,1271.250779644667,637.2500000000455) translate(25.825000000000017 22.799999999999997)"/><use xlink:href="#D" transform="matrix(1,0,0,1,1271.250779644667,637.2500000000455) translate(90.77500000000002 22.799999999999997)"/><use xlink:href="#E" transform="matrix(1,0,0,1,1271.250779644667,637.2500000000455) translate(120.57500000000002 22.799999999999997)"/><use xlink:href="#F" transform="matrix(1,0,0,1,1271.250779644667,637.2500000000455) translate(196.525 22.799999999999997)"/><use xlink:href="#G" transform="matrix(1,0,0,1,1271.250779644667,637.2500000000455) translate(221.525 22.799999999999997)"/><use xlink:href="#H" transform="matrix(1,0,0,1,1271.250779644667,637.2500000000455) translate(256.475 22.799999999999997)"/><use xlink:href="#F" transform="matrix(1,0,0,1,1271.250779644667,637.2500000000455) translate(293.375 22.799999999999997)"/><use xlink:href="#I" transform="matrix(1,0,0,1,1271.250779644667,637.2500000000455) translate(318.375 22.799999999999997)"/><use xlink:href="#J" transform="matrix(1,0,0,1,1271.250779644667,637.2500000000455) translate(382.225 22.799999999999997)"/><use xlink:href="#K" transform="matrix(1,0,0,1,1271.250779644667,637.2500000000455) translate(444.17499999999995 22.799999999999997)"/><use xlink:href="#L" transform="matrix(1,0,0,1,1271.250779644667,637.2500000000455) translate(143.1 44.4)"/><use xlink:href="#M" transform="matrix(1,0,0,1,1271.250779644667,637.2500000000455) translate(200.05 44.4)"/><use xlink:href="#N" transform="matrix(1,0,0,1,1271.250779644667,637.2500000000455) translate(214 44.4)"/><use xlink:href="#O" transform="matrix(1,0,0,1,1271.250779644667,637.2500000000455) translate(234 44.4)"/><use xlink:href="#P" transform="matrix(1,0,0,1,1271.250779644667,637.2500000000455) translate(264 44.4)"/><use xlink:href="#Q" transform="matrix(1,0,0,1,1271.250779644667,637.2500000000455) translate(301.95000000000005 44.4)"/></g><path d="M1403.7 1127.03c0-4.42 3.57-8 8-8h384c4.4 0 8 3.58 8 8v44c0 4.42-3.6 8-8 8h-384c-4.43 0-8-3.58-8-8z" stroke="#000" stroke-opacity="0" fill="#fff" fill-opacity="0"/><g><use xlink:href="#R" transform="matrix(1,0,0,1,1423.6875733138745,1119.0283658467963) translate(15.983333333333292 23.066666666666663)"/><use xlink:href="#S" transform="matrix(1,0,0,1,1423.6875733138745,1119.0283658467963) translate(74.6759259259259 23.066666666666663)"/><use xlink:href="#T" transform="matrix(1,0,0,1,1423.6875733138745,1119.0283658467963) translate(144.92407407407407 23.066666666666663)"/><use xlink:href="#U" transform="matrix(1,0,0,1,1423.6875733138745,1119.0283658467963) translate(164.18333333333334 23.066666666666663)"/><use xlink:href="#V" transform="matrix(1,0,0,1,1423.6875733138745,1119.0283658467963) translate(227.64259259259262 23.066666666666663)"/><use xlink:href="#W" transform="matrix(1,0,0,1,1423.6875733138745,1119.0283658467963) translate(288.2611111111112 23.066666666666663)"/><use xlink:href="#X" transform="matrix(1,0,0,1,1423.6875733138745,1119.0283658467963) translate(29.92222222222219 43.86666666666667)"/><use xlink:href="#Y" transform="matrix(1,0,0,1,1423.6875733138745,1119.0283658467963) translate(81.9222222222222 43.86666666666667)"/><use xlink:href="#j" transform="matrix(1,0,0,1,1423.6875733138745,1119.0283658467963) translate(105.99629629629628 43.86666666666667)"/><use xlink:href="#Z" transform="matrix(1,0,0,1,1423.6875733138745,1119.0283658467963) translate(139.65185185185183 43.86666666666667)"/><use xlink:href="#aa" transform="matrix(1,0,0,1,1423.6875733138745,1119.0283658467963) translate(196.4185185185185 43.86666666666667)"/><use xlink:href="#k" transform="matrix(1,0,0,1,1423.6875733138745,1119.0283658467963) translate(230.12222222222223 43.86666666666667)"/><use xlink:href="#ab" transform="matrix(1,0,0,1,1423.6875733138745,1119.0283658467963) translate(247.40740740740742 43.86666666666667)"/><use xlink:href="#T" transform="matrix(1,0,0,1,1423.6875733138745,1119.0283658467963) translate(297.38518518518526 43.86666666666667)"/><use xlink:href="#ac" transform="matrix(1,0,0,1,1423.6875733138745,1119.0283658467963) translate(316.6444444444445 43.86666666666667)"/></g><path d="M3.62 648c0-4.42 3.58-8 8-8H272c4.42 0 8 3.58 8 8v44c0 4.42-3.58 8-8 8H11.62c-4.42 0-8-3.58-8-8z" stroke="#000" stroke-opacity="0" fill="#fff" fill-opacity="0"/><g><use xlink:href="#ad" transform="matrix(1,0,0,1,23.61543684740502,640) translate(5.240740740740719 34.888888888888886)"/><use xlink:href="#ae" transform="matrix(1,0,0,1,23.61543684740502,640) translate(87.94444444444443 34.888888888888886)"/><use xlink:href="#af" transform="matrix(1,0,0,1,23.61543684740502,640) translate(139.48148148148147 34.888888888888886)"/><use xlink:href="#ag" transform="matrix(1,0,0,1,23.61543684740502,640) translate(204.5987654320988 34.888888888888886)"/></g><path d="M11.33 1108c0-4.42 3.58-8 8-8H285.7c4.4 0 8 3.58 8 8v44c0 4.42-3.6 8-8 8H19.32c-4.42 0-8-3.58-8-8z" stroke="#000" stroke-opacity="0" fill="#fff" fill-opacity="0"/><g><use xlink:href="#ad" transform="matrix(1,0,0,1,31.33301193358136,1100) translate(8.24074074074072 34.888888888888886)"/><use xlink:href="#ae" transform="matrix(1,0,0,1,31.33301193358136,1100) translate(90.94444444444443 34.888888888888886)"/><use xlink:href="#af" transform="matrix(1,0,0,1,31.33301193358136,1100) translate(142.48148148148147 34.888888888888886)"/><use xlink:href="#ah" transform="matrix(1,0,0,1,31.33301193358136,1100) translate(207.5987654320988 34.888888888888886)"/></g><path d="M1571.52 971.13l-.45 3.4-1.34 3.25-2.16 2.8-2.8 2.16-3.25 1.34-3.4.45h-27.34v-3h27.14l2.82-.37 2.5-1.04 2.2-1.67 1.67-2.18 1.05-2.52.37-2.82V928.7h3zm18.6-116.88h-8l-2.83.37-2.52 1.04-2.18 1.67-1.67 2.2-1.04 2.5-.38 2.82v42.24h-3v-42.45l.44-3.4 1.35-3.25 2.16-2.8 2.8-2.16 3.25-1.34 3.42-.45h8.2z" fill="#333"/><path d="M1530.82 984.53h-1.6l.07-1.78-.05-1.22h1.57zM1605.9 852.75l-14.27 4.64v-9.3z" fill="#333"/><path d="M1610.75 852.75l-20.62 6.7v-13.4zm-17.62 2.57l7.9-2.57-7.9-2.57z" fill="#333"/><g><use xlink:href="#ai" transform="matrix(1,0,0,1,1538.7908102586816,907.090378361787) translate(0.004999999999999005 14.4)"/></g><defs><path fill="#333" d="M127-220V0H93v-220H8v-28h204v28h-85" id="aj"/><path fill="#333" d="M100-194c63 0 86 42 84 106H49c0 40 14 67 53 68 26 1 43-12 49-29l28 8c-11 28-37 45-77 45C44 4 14-33 15-96c1-61 26-98 85-98zm52 81c6-60-76-77-97-28-3 7-6 17-6 28h103" id="ak"/><path fill="#333" d="M141 0L90-78 38 0H4l68-98-65-92h35l48 74 47-74h35l-64 92 68 98h-35" id="al"/><path fill="#333" d="M59-47c-2 24 18 29 38 22v24C64 9 27 4 27-40v-127H5v-23h24l9-43h21v43h35v23H59v120" id="am"/><g id="a"><use transform="matrix(0.05,0,0,0.05,0,0)" xlink:href="#aj"/><use transform="matrix(0.05,0,0,0.05,8.950000000000001,0)" xlink:href="#ak"/><use transform="matrix(0.05,0,0,0.05,18.950000000000003,0)" xlink:href="#al"/><use transform="matrix(0.05,0,0,0.05,27.950000000000003,0)" xlink:href="#am"/></g><path d="M33 0v-248h34V0H33" id="an"/><path d="M117-194c89-4 53 116 60 194h-32v-121c0-31-8-49-39-48C34-167 62-67 57 0H25l-1-190h30c1 10-1 24 2 32 11-22 29-35 61-36" id="ao"/><path d="M96-169c-40 0-48 33-48 73s9 75 48 75c24 0 41-14 43-38l32 2c-6 37-31 61-74 61-59 0-76-41-82-99-10-93 101-131 147-64 4 7 5 14 7 22l-32 3c-4-21-16-35-41-35" id="ap"/><path d="M100-194c62-1 85 37 85 99 1 63-27 99-86 99S16-35 15-95c0-66 28-99 85-99zM99-20c44 1 53-31 53-75 0-43-8-75-51-75s-53 32-53 75 10 74 51 75" id="aq"/><path d="M210-169c-67 3-38 105-44 169h-31v-121c0-29-5-50-35-48C34-165 62-65 56 0H25l-1-190h30c1 10-1 24 2 32 10-44 99-50 107 0 11-21 27-35 58-36 85-2 47 119 55 194h-31v-121c0-29-5-49-35-48" id="ar"/><path d="M24-231v-30h32v30H24zM24 0v-190h32V0H24" id="as"/><path d="M177-190C167-65 218 103 67 71c-23-6-38-20-44-43l32-5c15 47 100 32 89-28v-30C133-14 115 1 83 1 29 1 15-40 15-95c0-56 16-97 71-98 29-1 48 16 59 35 1-10 0-23 2-32h30zM94-22c36 0 50-32 50-73 0-42-14-75-50-75-39 0-46 34-46 75s6 73 46 73" id="at"/><g id="b"><use transform="matrix(0.048148148148148155,0,0,0.048148148148148155,0,0)" xlink:href="#an"/><use transform="matrix(0.048148148148148155,0,0,0.048148148148148155,4.814814814814816,0)" xlink:href="#ao"/><use transform="matrix(0.048148148148148155,0,0,0.048148148148148155,14.444444444444446,0)" xlink:href="#ap"/><use transform="matrix(0.048148148148148155,0,0,0.048148148148148155,23.111111111111114,0)" xlink:href="#aq"/><use transform="matrix(0.048148148148148155,0,0,0.048148148148148155,32.74074074074075,0)" xlink:href="#ar"/><use transform="matrix(0.048148148148148155,0,0,0.048148148148148155,47.13703703703705,0)" xlink:href="#as"/><use transform="matrix(0.048148148148148155,0,0,0.048148148148148155,50.94074074074075,0)" xlink:href="#ao"/><use transform="matrix(0.048148148148148155,0,0,0.048148148148148155,60.57037037037038,0)" xlink:href="#at"/></g><path d="M30-248c87 1 191-15 191 75 0 78-77 80-158 76V0H30v-248zm33 125c57 0 124 11 124-50 0-59-68-47-124-48v98" id="au"/><path d="M141-36C126-15 110 5 73 4 37 3 15-17 15-53c-1-64 63-63 125-63 3-35-9-54-41-54-24 1-41 7-42 31l-33-3c5-37 33-52 76-52 45 0 72 20 72 64v82c-1 20 7 32 28 27v20c-31 9-61-2-59-35zM48-53c0 20 12 33 32 33 41-3 63-29 60-74-43 2-92-5-92 41" id="av"/><path d="M59-47c-2 24 18 29 38 22v24C64 9 27 4 27-40v-127H5v-23h24l9-43h21v43h35v23H59v120" id="aw"/><path d="M100-194c63 0 86 42 84 106H49c0 40 14 67 53 68 26 1 43-12 49-29l28 8c-11 28-37 45-77 45C44 4 14-33 15-96c1-61 26-98 85-98zm52 81c6-60-76-77-97-28-3 7-6 17-6 28h103" id="ax"/><g id="c"><use transform="matrix(0.048148148148148155,0,0,0.048148148148148155,0,0)" xlink:href="#au"/><use transform="matrix(0.048148148148148155,0,0,0.048148148148148155,11.555555555555557,0)" xlink:href="#av"/><use transform="matrix(0.048148148148148155,0,0,0.048148148148148155,21.18518518518519,0)" xlink:href="#aw"/><use transform="matrix(0.048148148148148155,0,0,0.048148148148148155,26.00000000000001,0)" xlink:href="#as"/><use transform="matrix(0.048148148148148155,0,0,0.048148148148148155,29.803703703703714,0)" xlink:href="#ax"/><use transform="matrix(0.048148148148148155,0,0,0.048148148148148155,39.433333333333344,0)" xlink:href="#ao"/><use transform="matrix(0.048148148148148155,0,0,0.048148148148148155,49.06296296296298,0)" xlink:href="#aw"/></g><path d="M206 0h-36l-40-164L89 0H53L-1-190h32L70-26l43-164h34l41 164 42-164h31" id="ay"/><path d="M106-169C34-169 62-67 57 0H25v-261h32l-1 103c12-21 28-36 61-36 89 0 53 116 60 194h-32v-121c2-32-8-49-39-48" id="az"/><g id="d"><use transform="matrix(0.048148148148148155,0,0,0.048148148148148155,0,0)" xlink:href="#ay"/><use transform="matrix(0.048148148148148155,0,0,0.048148148148148155,12.470370370370372,0)" xlink:href="#as"/><use transform="matrix(0.048148148148148155,0,0,0.048148148148148155,16.274074074074075,0)" xlink:href="#aw"/><use transform="matrix(0.048148148148148155,0,0,0.048148148148148155,21.088888888888892,0)" xlink:href="#az"/></g><g id="e"><use transform="matrix(0.048148148148148155,0,0,0.048148148148148155,0,0)" xlink:href="#av"/><use transform="matrix(0.048148148148148155,0,0,0.048148148148148155,9.629629629629632,0)" xlink:href="#ao"/></g><path d="M141 0L90-78 38 0H4l68-98-65-92h35l48 74 47-74h35l-64 92 68 98h-35" id="aA"/><path d="M114-163C36-179 61-72 57 0H25l-1-190h30c1 12-1 29 2 39 6-27 23-49 58-41v29" id="aB"/><path d="M24 0v-261h32V0H24" id="aC"/><g id="f"><use transform="matrix(0.048148148148148155,0,0,0.048148148148148155,0,0)" xlink:href="#ax"/><use transform="matrix(0.048148148148148155,0,0,0.048148148148148155,9.629629629629632,0)" xlink:href="#aA"/><use transform="matrix(0.048148148148148155,0,0,0.048148148148148155,18.296296296296298,0)" xlink:href="#aw"/><use transform="matrix(0.048148148148148155,0,0,0.048148148148148155,23.111111111111114,0)" xlink:href="#ax"/><use transform="matrix(0.048148148148148155,0,0,0.048148148148148155,32.74074074074075,0)" xlink:href="#aB"/><use transform="matrix(0.048148148148148155,0,0,0.048148148148148155,38.470370370370375,0)" xlink:href="#ao"/><use transform="matrix(0.048148148148148155,0,0,0.048148148148148155,48.10000000000001,0)" xlink:href="#av"/><use transform="matrix(0.048148148148148155,0,0,0.048148148148148155,57.729629629629635,0)" xlink:href="#aC"/></g><path d="M30 0v-248h187v28H63v79h144v27H63v87h162V0H30" id="aD"/><path d="M30-248c118-7 216 8 213 122C240-48 200 0 122 0H30v-248zM63-27c89 8 146-16 146-99s-60-101-146-95v194" id="aE"/><path d="M68-38c1 34 0 65-14 84H32c9-13 17-26 17-46H33v-38h35" id="aF"/><g id="g"><use transform="matrix(0.048148148148148155,0,0,0.048148148148148155,0,0)" xlink:href="#aD"/><use transform="matrix(0.048148148148148155,0,0,0.048148148148148155,11.555555555555557,0)" xlink:href="#an"/><use transform="matrix(0.048148148148148155,0,0,0.048148148148148155,16.370370370370374,0)" xlink:href="#aE"/><use transform="matrix(0.048148148148148155,0,0,0.048148148148148155,28.840740740740745,0)" xlink:href="#aF"/></g><path d="M85-194c31 0 48 13 60 33l-1-100h32l1 261h-30c-2-10 0-23-3-31C134-8 116 4 85 4 32 4 16-35 15-94c0-66 23-100 70-100zm9 24c-40 0-46 34-46 75 0 40 6 74 45 74 42 0 51-32 51-76 0-42-9-74-50-73" id="aG"/><g id="h"><use transform="matrix(0.048148148148148155,0,0,0.048148148148148155,0,0)" xlink:href="#av"/><use transform="matrix(0.048148148148148155,0,0,0.048148148148148155,9.629629629629632,0)" xlink:href="#ao"/><use transform="matrix(0.048148148148148155,0,0,0.048148148148148155,19.259259259259263,0)" xlink:href="#aG"/></g><g id="i"><use transform="matrix(0.048148148148148155,0,0,0.048148148148148155,0,0)" xlink:href="#aw"/><use transform="matrix(0.048148148148148155,0,0,0.048148148148148155,4.814814814814816,0)" xlink:href="#az"/><use transform="matrix(0.048148148148148155,0,0,0.048148148148148155,14.444444444444446,0)" xlink:href="#av"/><use transform="matrix(0.048148148148148155,0,0,0.048148148148148155,24.074074074074076,0)" xlink:href="#aw"/></g><g id="j"><use transform="matrix(0.048148148148148155,0,0,0.048148148148148155,0,0)" xlink:href="#aD"/><use transform="matrix(0.048148148148148155,0,0,0.048148148148148155,11.555555555555557,0)" xlink:href="#an"/><use transform="matrix(0.048148148148148155,0,0,0.048148148148148155,16.370370370370374,0)" xlink:href="#aE"/></g><path d="M135-143c-3-34-86-38-87 0 15 53 115 12 119 90S17 21 10-45l28-5c4 36 97 45 98 0-10-56-113-15-118-90-4-57 82-63 122-42 12 7 21 19 24 35" id="aH"/><g id="k"><use transform="matrix(0.048148148148148155,0,0,0.048148148148148155,0,0)" xlink:href="#as"/><use transform="matrix(0.048148148148148155,0,0,0.048148148148148155,3.8037037037037043,0)" xlink:href="#aH"/></g><path d="M179-190L93 31C79 59 56 82 12 73V49c39 6 53-20 64-50L1-190h34L92-34l54-156h33" id="aI"/><g id="l"><use transform="matrix(0.048148148148148155,0,0,0.048148148148148155,0,0)" xlink:href="#av"/><use transform="matrix(0.048148148148148155,0,0,0.048148148148148155,9.629629629629632,0)" xlink:href="#aC"/><use transform="matrix(0.048148148148148155,0,0,0.048148148148148155,13.433333333333335,0)" xlink:href="#aB"/><use transform="matrix(0.048148148148148155,0,0,0.048148148148148155,19.162962962962965,0)" xlink:href="#ax"/><use transform="matrix(0.048148148148148155,0,0,0.048148148148148155,28.792592592592598,0)" xlink:href="#av"/><use transform="matrix(0.048148148148148155,0,0,0.048148148148148155,38.42222222222223,0)" xlink:href="#aG"/><use transform="matrix(0.048148148148148155,0,0,0.048148148148148155,48.051851851851865,0)" xlink:href="#aI"/></g><path d="M143 0L79-87 56-68V0H24v-261h32v163l83-92h37l-77 82L181 0h-38" id="aJ"/><g id="m"><use transform="matrix(0.048148148148148155,0,0,0.048148148148148155,0,0)" xlink:href="#aJ"/><use transform="matrix(0.048148148148148155,0,0,0.048148148148148155,8.666666666666668,0)" xlink:href="#ao"/><use transform="matrix(0.048148148148148155,0,0,0.048148148148148155,18.296296296296298,0)" xlink:href="#aq"/><use transform="matrix(0.048148148148148155,0,0,0.048148148148148155,27.92592592592593,0)" xlink:href="#ay"/><use transform="matrix(0.048148148148148155,0,0,0.048148148148148155,40.3962962962963,0)" xlink:href="#ao"/></g><g id="n"><use transform="matrix(0.048148148148148155,0,0,0.048148148148148155,0,0)" xlink:href="#as"/><use transform="matrix(0.048148148148148155,0,0,0.048148148148148155,3.8037037037037043,0)" xlink:href="#ao"/></g><path d="M84 4C-5 8 30-112 23-190h32v120c0 31 7 50 39 49 72-2 45-101 50-169h31l1 190h-30c-1-10 1-25-2-33-11 22-28 36-60 37" id="aK"/><g id="o"><use transform="matrix(0.048148148148148155,0,0,0.048148148148148155,0,0)" xlink:href="#aq"/><use transform="matrix(0.048148148148148155,0,0,0.048148148148148155,9.629629629629632,0)" xlink:href="#aK"/><use transform="matrix(0.048148148148148155,0,0,0.048148148148148155,19.259259259259263,0)" xlink:href="#aB"/></g><path d="M33 0v-38h34V0H33" id="aL"/><g id="p"><use transform="matrix(0.048148148148148155,0,0,0.048148148148148155,0,0)" xlink:href="#aH"/><use transform="matrix(0.048148148148148155,0,0,0.048148148148148155,8.666666666666668,0)" xlink:href="#aI"/><use transform="matrix(0.048148148148148155,0,0,0.048148148148148155,17.333333333333336,0)" xlink:href="#aH"/><use transform="matrix(0.048148148148148155,0,0,0.048148148148148155,26.000000000000004,0)" xlink:href="#aw"/><use transform="matrix(0.048148148148148155,0,0,0.048148148148148155,30.81481481481482,0)" xlink:href="#ax"/><use transform="matrix(0.048148148148148155,0,0,0.048148148148148155,40.44444444444445,0)" xlink:href="#ar"/><use transform="matrix(0.048148148148148155,0,0,0.048148148148148155,54.84074074074075,0)" xlink:href="#aL"/></g><g id="q"><use transform="matrix(0.05,0,0,0.05,0,0)" xlink:href="#au"/><use transform="matrix(0.05,0,0,0.05,12,0)" xlink:href="#av"/><use transform="matrix(0.05,0,0,0.05,22,0)" xlink:href="#aw"/><use transform="matrix(0.05,0,0,0.05,27,0)" xlink:href="#as"/><use transform="matrix(0.05,0,0,0.05,30.950000000000003,0)" xlink:href="#ax"/><use transform="matrix(0.05,0,0,0.05,40.95,0)" xlink:href="#ao"/><use transform="matrix(0.05,0,0,0.05,50.95,0)" xlink:href="#aw"/></g><path d="M27 0v-27h64v-190l-56 39v-29l58-41h29v221h61V0H27" id="aM"/><use transform="matrix(0.05,0,0,0.05,0,0)" xlink:href="#aM" id="r"/><path fill="#333" d="M199 0l-22-63H83L61 0H9l90-248h61L250 0h-51zm-33-102l-36-108c-10 38-24 72-36 108h72" id="aN"/><path fill="#333" d="M190-63c-7 42-38 67-86 67-59 0-84-38-90-98-12-110 154-137 174-36l-49 2c-2-19-15-32-35-32-30 0-35 28-38 64-6 74 65 87 74 30" id="aO"/><path fill="#333" d="M115-3C79 11 28 4 28-45v-112H4v-33h27l15-45h31v45h36v33H77v99c-1 23 16 31 38 25v30" id="aP"/><path fill="#333" d="M25-224v-37h50v37H25zM25 0v-190h50V0H25" id="aQ"/><path fill="#333" d="M110-194c64 0 96 36 96 99 0 64-35 99-97 99-61 0-95-36-95-99 0-62 34-99 96-99zm-1 164c35 0 45-28 45-65 0-40-10-65-43-65-34 0-45 26-45 65 0 36 10 65 43 65" id="aR"/><path fill="#333" d="M135-194c87-1 58 113 63 194h-50c-7-57 23-157-34-157-59 0-34 97-39 157H25l-1-190h47c2 12-1 28 3 38 12-26 28-41 61-42" id="aS"/><g id="s"><use transform="matrix(0.05,0,0,0.05,0,0)" xlink:href="#aN"/><use transform="matrix(0.05,0,0,0.05,12.950000000000001,0)" xlink:href="#aO"/><use transform="matrix(0.05,0,0,0.05,22.950000000000003,0)" xlink:href="#aP"/><use transform="matrix(0.05,0,0,0.05,28.900000000000002,0)" xlink:href="#aQ"/><use transform="matrix(0.05,0,0,0.05,33.900000000000006,0)" xlink:href="#aR"/><use transform="matrix(0.05,0,0,0.05,44.85000000000001,0)" xlink:href="#aS"/></g><path fill="#333" d="M24 0v-248h195v40H76v63h132v40H76v65h150V0H24" id="aT"/><path fill="#333" d="M88-194c31-1 46 15 58 34l-1-101h50l1 261h-48c-2-10 0-23-3-31C134-8 116 4 84 4 32 4 16-41 15-95c0-56 19-97 73-99zm17 164c33 0 40-30 41-66 1-37-9-64-41-64s-38 30-39 65c0 43 13 65 39 65" id="aU"/><g id="t"><use transform="matrix(0.05,0,0,0.05,0,0)" xlink:href="#aT"/><use transform="matrix(0.05,0,0,0.05,12,0)" xlink:href="#aS"/><use transform="matrix(0.05,0,0,0.05,22.950000000000003,0)" xlink:href="#aU"/></g><path fill="#333" d="M169-182c-1-43-94-46-97-3 18 66 151 10 154 114 3 95-165 93-204 36-6-8-10-19-12-30l50-8c3 46 112 56 116 5-17-69-150-10-154-114-4-87 153-88 188-35 5 8 8 18 10 28" id="aV"/><path fill="#333" d="M133-34C117-15 103 5 69 4 32 3 11-16 11-54c-1-60 55-63 116-61 1-26-3-47-28-47-18 1-26 9-28 27l-52-2c7-38 36-58 82-57s74 22 75 68l1 82c-1 14 12 18 25 15v27c-30 8-71 5-69-32zm-48 3c29 0 43-24 42-57-32 0-66-3-65 30 0 17 8 27 23 27" id="aW"/><path fill="#333" d="M185-48c-13 30-37 53-82 52C43 2 14-33 14-96s30-98 90-98c62 0 83 45 84 108H66c0 31 8 55 39 56 18 0 30-7 34-22zm-45-69c5-46-57-63-70-21-2 6-4 13-4 21h74" id="aX"/><g id="u"><use transform="matrix(0.05,0,0,0.05,0,0)" xlink:href="#aV"/><use transform="matrix(0.05,0,0,0.05,12,0)" xlink:href="#aP"/><use transform="matrix(0.05,0,0,0.05,17.95,0)" xlink:href="#aW"/><use transform="matrix(0.05,0,0,0.05,27.950000000000003,0)" xlink:href="#aP"/><use transform="matrix(0.05,0,0,0.05,33.9,0)" xlink:href="#aX"/></g><path fill="#333" d="M30 0v-248h187v28H63v79h144v27H63v87h162V0H30" id="aY"/><path fill="#333" d="M33 0v-248h34V0H33" id="aZ"/><path fill="#333" d="M30-248c118-7 216 8 213 122C240-48 200 0 122 0H30v-248zM63-27c89 8 146-16 146-99s-60-101-146-95v194" id="ba"/><path fill="#333" d="M33-154v-36h34v36H33zM33 0v-36h34V0H33" id="bb"/><path fill="#333" d="M232-93c-1 65-40 97-104 97C67 4 28-28 28-90v-158h33c8 89-33 224 67 224 102 0 64-133 71-224h33v155" id="bc"/><path fill="#333" d="M16-82v-28h88v28H16" id="bd"/><path fill="#333" d="M27 0v-27h64v-190l-56 39v-29l58-41h29v221h61V0H27" id="be"/><path fill="#333" d="M101-251c82-7 93 87 43 132L82-64C71-53 59-42 53-27h129V0H18c2-99 128-94 128-182 0-28-16-43-45-43s-46 15-49 41l-32-3c6-41 34-60 81-64" id="bf"/><path fill="#333" d="M126-127c33 6 58 20 58 59 0 88-139 92-164 29-3-8-5-16-6-25l32-3c6 27 21 44 54 44 32 0 52-15 52-46 0-38-36-46-79-43v-28c39 1 72-4 72-42 0-27-17-43-46-43-28 0-47 15-49 41l-32-3c6-42 35-63 81-64 48-1 79 21 79 65 0 36-21 52-52 59" id="bg"/><g id="v"><use transform="matrix(0.05,0,0,0.05,0,0)" xlink:href="#aY"/><use transform="matrix(0.05,0,0,0.05,12,0)" xlink:href="#aZ"/><use transform="matrix(0.05,0,0,0.05,17,0)" xlink:href="#ba"/><use transform="matrix(0.05,0,0,0.05,29.950000000000003,0)" xlink:href="#bb"/><use transform="matrix(0.05,0,0,0.05,34.95,0)" xlink:href="#bc"/><use transform="matrix(0.05,0,0,0.05,47.900000000000006,0)" xlink:href="#bc"/><use transform="matrix(0.05,0,0,0.05,60.85,0)" xlink:href="#aZ"/><use transform="matrix(0.05,0,0,0.05,65.85000000000001,0)" xlink:href="#ba"/><use transform="matrix(0.05,0,0,0.05,78.80000000000001,0)" xlink:href="#bd"/><use transform="matrix(0.05,0,0,0.05,84.75000000000001,0)" xlink:href="#be"/><use transform="matrix(0.05,0,0,0.05,94.75000000000001,0)" xlink:href="#bf"/><use transform="matrix(0.05,0,0,0.05,104.75,0)" xlink:href="#bg"/></g><g id="w"><use transform="matrix(0.05,0,0,0.05,0,0)" xlink:href="#au"/><use transform="matrix(0.05,0,0,0.05,12,0)" xlink:href="#av"/><use transform="matrix(0.05,0,0,0.05,22,0)" xlink:href="#aw"/><use transform="matrix(0.05,0,0,0.05,27,0)" xlink:href="#as"/><use transform="matrix(0.05,0,0,0.05,30.950000000000003,0)" xlink:href="#ax"/><use transform="matrix(0.05,0,0,0.05,40.95,0)" xlink:href="#ao"/><use transform="matrix(0.05,0,0,0.05,50.95,0)" xlink:href="#aw"/></g><path d="M143 4C61 4 22-44 18-125c-5-107 100-154 193-111 17 8 29 25 37 43l-32 9c-13-25-37-40-76-40-61 0-88 39-88 99 0 61 29 100 91 101 35 0 62-11 79-27v-45h-74v-28h105v86C228-13 192 4 143 4" id="bh"/><g id="x"><use transform="matrix(0.031481481481481485,0,0,0.031481481481481485,0,0)" xlink:href="#bh"/><use transform="matrix(0.031481481481481485,0,0,0.031481481481481485,8.814814814814817,0)" xlink:href="#aq"/><use transform="matrix(0.031481481481481485,0,0,0.031481481481481485,15.111111111111114,0)" xlink:href="#aC"/><use transform="matrix(0.031481481481481485,0,0,0.031481481481481485,17.59814814814815,0)" xlink:href="#aG"/><use transform="matrix(0.031481481481481485,0,0,0.031481481481481485,23.89444444444445,0)" xlink:href="#ax"/><use transform="matrix(0.031481481481481485,0,0,0.031481481481481485,30.190740740740747,0)" xlink:href="#ao"/></g><path d="M233-177c-1 41-23 64-60 70L243 0h-38l-65-103H63V0H30v-248c88 3 205-21 203 71zM63-129c60-2 137 13 137-47 0-61-80-42-137-45v92" id="bi"/><g id="y"><use transform="matrix(0.031481481481481485,0,0,0.031481481481481485,0,0)" xlink:href="#bi"/><use transform="matrix(0.031481481481481485,0,0,0.031481481481481485,8.153703703703705,0)" xlink:href="#ax"/><use transform="matrix(0.031481481481481485,0,0,0.031481481481481485,14.450000000000003,0)" xlink:href="#ap"/><use transform="matrix(0.031481481481481485,0,0,0.031481481481481485,20.11666666666667,0)" xlink:href="#aq"/><use transform="matrix(0.031481481481481485,0,0,0.031481481481481485,26.41296296296297,0)" xlink:href="#aB"/><use transform="matrix(0.031481481481481485,0,0,0.031481481481481485,30.159259259259265,0)" xlink:href="#aG"/></g><path fill="#333" d="M135-150c-39-12-60 13-60 57V0H25l-1-190h47c2 13-1 29 3 40 6-28 27-53 61-41v41" id="bj"/><g id="z"><use transform="matrix(0.05,0,0,0.05,0,0)" xlink:href="#aV"/><use transform="matrix(0.05,0,0,0.05,12,0)" xlink:href="#aP"/><use transform="matrix(0.05,0,0,0.05,17.95,0)" xlink:href="#aW"/><use transform="matrix(0.05,0,0,0.05,27.950000000000003,0)" xlink:href="#bj"/><use transform="matrix(0.05,0,0,0.05,34.95,0)" xlink:href="#aP"/></g><g id="A"><use transform="matrix(0.048148148148148155,0,0,0.048148148148148155,0,0)" xlink:href="#ao"/><use transform="matrix(0.048148148148148155,0,0,0.048148148148148155,9.629629629629632,0)" xlink:href="#aq"/></g><g id="B"><use transform="matrix(0.048148148148148155,0,0,0.048148148148148155,0,0)" xlink:href="#aD"/><use transform="matrix(0.048148148148148155,0,0,0.048148148148148155,11.555555555555557,0)" xlink:href="#an"/><use transform="matrix(0.048148148148148155,0,0,0.048148148148148155,16.370370370370374,0)" xlink:href="#aE"/></g><path fill="#333" d="M185-189c-5-48-123-54-124 2 14 75 158 14 163 119 3 78-121 87-175 55-17-10-28-26-33-46l33-7c5 56 141 63 141-1 0-78-155-14-162-118-5-82 145-84 179-34 5 7 8 16 11 25" id="bk"/><path fill="#333" d="M179-190L93 31C79 59 56 82 12 73V49c39 6 53-20 64-50L1-190h34L92-34l54-156h33" id="bl"/><path fill="#333" d="M135-143c-3-34-86-38-87 0 15 53 115 12 119 90S17 21 10-45l28-5c4 36 97 45 98 0-10-56-113-15-118-90-4-57 82-63 122-42 12 7 21 19 24 35" id="bm"/><path fill="#333" d="M210-169c-67 3-38 105-44 169h-31v-121c0-29-5-50-35-48C34-165 62-65 56 0H25l-1-190h30c1 10-1 24 2 32 10-44 99-50 107 0 11-21 27-35 58-36 85-2 47 119 55 194h-31v-121c0-29-5-49-35-48" id="bn"/><g id="C"><use transform="matrix(0.05,0,0,0.05,0,0)" xlink:href="#bk"/><use transform="matrix(0.05,0,0,0.05,12,0)" xlink:href="#bl"/><use transform="matrix(0.05,0,0,0.05,21,0)" xlink:href="#bm"/><use transform="matrix(0.05,0,0,0.05,30,0)" xlink:href="#am"/><use transform="matrix(0.05,0,0,0.05,35,0)" xlink:href="#ak"/><use transform="matrix(0.05,0,0,0.05,45,0)" xlink:href="#bn"/></g><path fill="#333" d="M206 0h-36l-40-164L89 0H53L-1-190h32L70-26l43-164h34l41 164 42-164h31" id="bo"/><path fill="#333" d="M24-231v-30h32v30H24zM24 0v-190h32V0H24" id="bp"/><path fill="#333" d="M24 0v-261h32V0H24" id="bq"/><g id="D"><use transform="matrix(0.05,0,0,0.05,0,0)" xlink:href="#bo"/><use transform="matrix(0.05,0,0,0.05,12.950000000000001,0)" xlink:href="#bp"/><use transform="matrix(0.05,0,0,0.05,16.900000000000002,0)" xlink:href="#bq"/><use transform="matrix(0.05,0,0,0.05,20.85,0)" xlink:href="#bq"/></g><path fill="#333" d="M177-190C167-65 218 103 67 71c-23-6-38-20-44-43l32-5c15 47 100 32 89-28v-30C133-14 115 1 83 1 29 1 15-40 15-95c0-56 16-97 71-98 29-1 48 16 59 35 1-10 0-23 2-32h30zM94-22c36 0 50-32 50-73 0-42-14-75-50-75-39 0-46 34-46 75s6 73 46 73" id="br"/><path fill="#333" d="M117-194c89-4 53 116 60 194h-32v-121c0-31-8-49-39-48C34-167 62-67 57 0H25l-1-190h30c1 10-1 24 2 32 11-22 29-35 61-36" id="bs"/><path fill="#333" d="M114-163C36-179 61-72 57 0H25l-1-190h30c1 12-1 29 2 39 6-27 23-49 58-41v29" id="bt"/><path fill="#333" d="M141-36C126-15 110 5 73 4 37 3 15-17 15-53c-1-64 63-63 125-63 3-35-9-54-41-54-24 1-41 7-42 31l-33-3c5-37 33-52 76-52 45 0 72 20 72 64v82c-1 20 7 32 28 27v20c-31 9-61-2-59-35zM48-53c0 20 12 33 32 33 41-3 63-29 60-74-43 2-92-5-92 41" id="bu"/><g id="E"><use transform="matrix(0.05,0,0,0.05,0,0)" xlink:href="#br"/><use transform="matrix(0.05,0,0,0.05,10,0)" xlink:href="#ak"/><use transform="matrix(0.05,0,0,0.05,20,0)" xlink:href="#bs"/><use transform="matrix(0.05,0,0,0.05,30,0)" xlink:href="#ak"/><use transform="matrix(0.05,0,0,0.05,40,0)" xlink:href="#bt"/><use transform="matrix(0.05,0,0,0.05,45.95,0)" xlink:href="#bu"/><use transform="matrix(0.05,0,0,0.05,55.95,0)" xlink:href="#am"/><use transform="matrix(0.05,0,0,0.05,60.95,0)" xlink:href="#ak"/></g><g id="F"><use transform="matrix(0.05,0,0,0.05,0,0)" xlink:href="#bu"/><use transform="matrix(0.05,0,0,0.05,10,0)" xlink:href="#bs"/></g><g id="G"><use transform="matrix(0.05,0,0,0.05,0,0)" xlink:href="#aY"/><use transform="matrix(0.05,0,0,0.05,12,0)" xlink:href="#aZ"/><use transform="matrix(0.05,0,0,0.05,17,0)" xlink:href="#ba"/></g><path fill="#333" d="M106-169C34-169 62-67 57 0H25v-261h32l-1 103c12-21 28-36 61-36 89 0 53 116 60 194h-32v-121c2-32-8-49-39-48" id="bv"/><g id="H"><use transform="matrix(0.05,0,0,0.05,0,0)" xlink:href="#bo"/><use transform="matrix(0.05,0,0,0.05,12.950000000000001,0)" xlink:href="#bp"/><use transform="matrix(0.05,0,0,0.05,16.900000000000002,0)" xlink:href="#am"/><use transform="matrix(0.05,0,0,0.05,21.900000000000002,0)" xlink:href="#bv"/></g><g id="I"><use transform="matrix(0.05,0,0,0.05,0,0)" xlink:href="#bp"/><use transform="matrix(0.05,0,0,0.05,3.95,0)" xlink:href="#bs"/><use transform="matrix(0.05,0,0,0.05,13.949999999999998,0)" xlink:href="#am"/><use transform="matrix(0.05,0,0,0.05,18.95,0)" xlink:href="#ak"/><use transform="matrix(0.05,0,0,0.05,28.950000000000003,0)" xlink:href="#bt"/><use transform="matrix(0.05,0,0,0.05,34.9,0)" xlink:href="#bs"/><use transform="matrix(0.05,0,0,0.05,44.9,0)" xlink:href="#bu"/><use transform="matrix(0.05,0,0,0.05,54.900000000000006,0)" xlink:href="#bq"/></g><g id="J"><use transform="matrix(0.05,0,0,0.05,0,0)" xlink:href="#bm"/><use transform="matrix(0.05,0,0,0.05,9,0)" xlink:href="#bl"/><use transform="matrix(0.05,0,0,0.05,18,0)" xlink:href="#bm"/><use transform="matrix(0.05,0,0,0.05,27,0)" xlink:href="#am"/><use transform="matrix(0.05,0,0,0.05,32,0)" xlink:href="#ak"/><use transform="matrix(0.05,0,0,0.05,42,0)" xlink:href="#bn"/></g><path fill="#333" d="M85-194c31 0 48 13 60 33l-1-100h32l1 261h-30c-2-10 0-23-3-31C134-8 116 4 85 4 32 4 16-35 15-94c0-66 23-100 70-100zm9 24c-40 0-46 34-46 75 0 40 6 74 45 74 42 0 51-32 51-76 0-42-9-74-50-73" id="bw"/><g id="K"><use transform="matrix(0.05,0,0,0.05,0,0)" xlink:href="#bu"/><use transform="matrix(0.05,0,0,0.05,10,0)" xlink:href="#bs"/><use transform="matrix(0.05,0,0,0.05,20,0)" xlink:href="#bw"/></g><g id="L"><use transform="matrix(0.05,0,0,0.05,0,0)" xlink:href="#bu"/><use transform="matrix(0.05,0,0,0.05,10,0)" xlink:href="#bm"/><use transform="matrix(0.05,0,0,0.05,19,0)" xlink:href="#bm"/><use transform="matrix(0.05,0,0,0.05,28,0)" xlink:href="#bp"/><use transform="matrix(0.05,0,0,0.05,31.950000000000003,0)" xlink:href="#br"/><use transform="matrix(0.05,0,0,0.05,41.95,0)" xlink:href="#bs"/></g><g id="M"><use transform="matrix(0.05,0,0,0.05,0,0)" xlink:href="#bp"/><use transform="matrix(0.05,0,0,0.05,3.95,0)" xlink:href="#am"/></g><path fill="#333" d="M100-194c62-1 85 37 85 99 1 63-27 99-86 99S16-35 15-95c0-66 28-99 85-99zM99-20c44 1 53-31 53-75 0-43-8-75-51-75s-53 32-53 75 10 74 51 75" id="bx"/><g id="N"><use transform="matrix(0.05,0,0,0.05,0,0)" xlink:href="#am"/><use transform="matrix(0.05,0,0,0.05,5,0)" xlink:href="#bx"/></g><g id="O"><use transform="matrix(0.05,0,0,0.05,0,0)" xlink:href="#am"/><use transform="matrix(0.05,0,0,0.05,5,0)" xlink:href="#bv"/><use transform="matrix(0.05,0,0,0.05,15,0)" xlink:href="#ak"/></g><g id="P"><use transform="matrix(0.05,0,0,0.05,0,0)" xlink:href="#bs"/><use transform="matrix(0.05,0,0,0.05,10,0)" xlink:href="#ak"/><use transform="matrix(0.05,0,0,0.05,20,0)" xlink:href="#bo"/></g><path fill="#333" d="M115-194c55 1 70 41 70 98S169 2 115 4C84 4 66-9 55-30l1 105H24l-1-265h31l2 30c10-21 28-34 59-34zm-8 174c40 0 45-34 45-75s-6-73-45-74c-42 0-51 32-51 76 0 43 10 73 51 73" id="by"/><g id="Q"><use transform="matrix(0.05,0,0,0.05,0,0)" xlink:href="#by"/><use transform="matrix(0.05,0,0,0.05,10,0)" xlink:href="#ak"/><use transform="matrix(0.05,0,0,0.05,20,0)" xlink:href="#bt"/><use transform="matrix(0.05,0,0,0.05,25.950000000000003,0)" xlink:href="#bm"/><use transform="matrix(0.05,0,0,0.05,34.95,0)" xlink:href="#bx"/><use transform="matrix(0.05,0,0,0.05,44.95,0)" xlink:href="#bs"/></g><g id="R"><use transform="matrix(0.048148148148148155,0,0,0.048148148148148155,0,0)" xlink:href="#au"/><use transform="matrix(0.048148148148148155,0,0,0.048148148148148155,11.555555555555557,0)" xlink:href="#av"/><use transform="matrix(0.048148148148148155,0,0,0.048148148148148155,21.18518518518519,0)" xlink:href="#aw"/><use transform="matrix(0.048148148148148155,0,0,0.048148148148148155,26.00000000000001,0)" xlink:href="#as"/><use transform="matrix(0.048148148148148155,0,0,0.048148148148148155,29.803703703703714,0)" xlink:href="#ax"/><use transform="matrix(0.048148148148148155,0,0,0.048148148148148155,39.433333333333344,0)" xlink:href="#ao"/><use transform="matrix(0.048148148148148155,0,0,0.048148148148148155,49.06296296296298,0)" xlink:href="#aw"/></g><g id="S"><use transform="matrix(0.048148148148148155,0,0,0.048148148148148155,0,0)" xlink:href="#ar"/><use transform="matrix(0.048148148148148155,0,0,0.048148148148148155,14.396296296296299,0)" xlink:href="#av"/><use transform="matrix(0.048148148148148155,0,0,0.048148148148148155,24.025925925925932,0)" xlink:href="#aw"/><use transform="matrix(0.048148148148148155,0,0,0.048148148148148155,28.84074074074075,0)" xlink:href="#ap"/><use transform="matrix(0.048148148148148155,0,0,0.048148148148148155,37.50740740740741,0)" xlink:href="#az"/><use transform="matrix(0.048148148148148155,0,0,0.048148148148148155,47.13703703703705,0)" xlink:href="#ax"/><use transform="matrix(0.048148148148148155,0,0,0.048148148148148155,56.76666666666667,0)" xlink:href="#aH"/></g><g id="T"><use transform="matrix(0.048148148148148155,0,0,0.048148148148148155,0,0)" xlink:href="#aw"/><use transform="matrix(0.048148148148148155,0,0,0.048148148148148155,4.814814814814816,0)" xlink:href="#aq"/></g><g id="U"><use transform="matrix(0.048148148148148155,0,0,0.048148148148148155,0,0)" xlink:href="#ax"/><use transform="matrix(0.048148148148148155,0,0,0.048148148148148155,9.629629629629632,0)" xlink:href="#aA"/><use transform="matrix(0.048148148148148155,0,0,0.048148148148148155,18.296296296296298,0)" xlink:href="#as"/><use transform="matrix(0.048148148148148155,0,0,0.048148148148148155,22.1,0)" xlink:href="#aH"/><use transform="matrix(0.048148148148148155,0,0,0.048148148148148155,30.766666666666673,0)" xlink:href="#aw"/><use transform="matrix(0.048148148148148155,0,0,0.048148148148148155,35.58148148148148,0)" xlink:href="#as"/><use transform="matrix(0.048148148148148155,0,0,0.048148148148148155,39.385185185185186,0)" xlink:href="#ao"/><use transform="matrix(0.048148148148148155,0,0,0.048148148148148155,49.01481481481482,0)" xlink:href="#at"/></g><g id="V"><use transform="matrix(0.048148148148148155,0,0,0.048148148148148155,0,0)" xlink:href="#bh"/><use transform="matrix(0.048148148148148155,0,0,0.048148148148148155,13.481481481481483,0)" xlink:href="#aq"/><use transform="matrix(0.048148148148148155,0,0,0.048148148148148155,23.111111111111114,0)" xlink:href="#aC"/><use transform="matrix(0.048148148148148155,0,0,0.048148148148148155,26.914814814814818,0)" xlink:href="#aG"/><use transform="matrix(0.048148148148148155,0,0,0.048148148148148155,36.54444444444445,0)" xlink:href="#ax"/><use transform="matrix(0.048148148148148155,0,0,0.048148148148148155,46.174074074074085,0)" xlink:href="#ao"/></g><g id="W"><use transform="matrix(0.048148148148148155,0,0,0.048148148148148155,0,0)" xlink:href="#bi"/><use transform="matrix(0.048148148148148155,0,0,0.048148148148148155,12.470370370370372,0)" xlink:href="#ax"/><use transform="matrix(0.048148148148148155,0,0,0.048148148148148155,22.1,0)" xlink:href="#ap"/><use transform="matrix(0.048148148148148155,0,0,0.048148148148148155,30.766666666666673,0)" xlink:href="#aq"/><use transform="matrix(0.048148148148148155,0,0,0.048148148148148155,40.3962962962963,0)" xlink:href="#aB"/><use transform="matrix(0.048148148148148155,0,0,0.048148148148148155,46.12592592592593,0)" xlink:href="#aG"/></g><path d="M115-194c53 0 69 39 70 98 0 66-23 100-70 100C84 3 66-7 56-30L54 0H23l1-261h32v101c10-23 28-34 59-34zm-8 174c40 0 45-34 45-75 0-40-5-75-45-74-42 0-51 32-51 76 0 43 10 73 51 73" id="bz"/><g id="X"><use transform="matrix(0.048148148148148155,0,0,0.048148148148148155,0,0)" xlink:href="#bz"/><use transform="matrix(0.048148148148148155,0,0,0.048148148148148155,9.629629629629632,0)" xlink:href="#av"/><use transform="matrix(0.048148148148148155,0,0,0.048148148148148155,19.259259259259263,0)" xlink:href="#aH"/><use transform="matrix(0.048148148148148155,0,0,0.048148148148148155,27.92592592592593,0)" xlink:href="#ax"/><use transform="matrix(0.048148148148148155,0,0,0.048148148148148155,37.555555555555564,0)" xlink:href="#aG"/></g><g id="Y"><use transform="matrix(0.048148148148148155,0,0,0.048148148148148155,0,0)" xlink:href="#aq"/><use transform="matrix(0.048148148148148155,0,0,0.048148148148148155,9.629629629629632,0)" xlink:href="#ao"/></g><g id="Z"><use transform="matrix(0.048148148148148155,0,0,0.048148148148148155,0,0)" xlink:href="#ar"/><use transform="matrix(0.048148148148148155,0,0,0.048148148148148155,14.396296296296299,0)" xlink:href="#av"/><use transform="matrix(0.048148148148148155,0,0,0.048148148148148155,24.025925925925932,0)" xlink:href="#aw"/><use transform="matrix(0.048148148148148155,0,0,0.048148148148148155,28.84074074074075,0)" xlink:href="#ap"/><use transform="matrix(0.048148148148148155,0,0,0.048148148148148155,37.50740740740741,0)" xlink:href="#az"/><use transform="matrix(0.048148148148148155,0,0,0.048148148148148155,47.13703703703705,0)" xlink:href="#aF"/></g><g id="aa"><use transform="matrix(0.048148148148148155,0,0,0.048148148148148155,0,0)" xlink:href="#av"/><use transform="matrix(0.048148148148148155,0,0,0.048148148148148155,9.629629629629632,0)" xlink:href="#ao"/><use transform="matrix(0.048148148148148155,0,0,0.048148148148148155,19.259259259259263,0)" xlink:href="#aG"/></g><g id="ab"><use transform="matrix(0.048148148148148155,0,0,0.048148148148148155,0,0)" xlink:href="#aC"/><use transform="matrix(0.048148148148148155,0,0,0.048148148148148155,3.8037037037037043,0)" xlink:href="#as"/><use transform="matrix(0.048148148148148155,0,0,0.048148148148148155,7.6074074074074085,0)" xlink:href="#ao"/><use transform="matrix(0.048148148148148155,0,0,0.048148148148148155,17.23703703703704,0)" xlink:href="#aJ"/><use transform="matrix(0.048148148148148155,0,0,0.048148148148148155,25.90370370370371,0)" xlink:href="#ax"/><use transform="matrix(0.048148148148148155,0,0,0.048148148148148155,35.53333333333334,0)" xlink:href="#aG"/></g><g id="ac"><use transform="matrix(0.048148148148148155,0,0,0.048148148148148155,0,0)" xlink:href="#as"/><use transform="matrix(0.048148148148148155,0,0,0.048148148148148155,3.8037037037037043,0)" xlink:href="#aw"/><use transform="matrix(0.048148148148148155,0,0,0.048148148148148155,8.61851851851852,0)" xlink:href="#aL"/></g><path fill="#333" d="M67-125c0 53 21 87 73 88 37 1 54-22 65-47l45 17C233-25 199 4 140 4 58 4 20-42 15-125 8-235 124-281 211-232c18 10 29 29 36 50l-46 12c-8-25-30-41-62-41-52 0-71 34-72 86" id="bA"/><g id="ad"><use transform="matrix(0.06790123456790124,0,0,0.06790123456790124,0,0)" xlink:href="#bA"/><use transform="matrix(0.06790123456790124,0,0,0.06790123456790124,17.58641975308642,0)" xlink:href="#bj"/><use transform="matrix(0.06790123456790124,0,0,0.06790123456790124,27.092592592592595,0)" xlink:href="#aX"/><use transform="matrix(0.06790123456790124,0,0,0.06790123456790124,40.67283950617284,0)" xlink:href="#aW"/><use transform="matrix(0.06790123456790124,0,0,0.06790123456790124,54.25308641975309,0)" xlink:href="#aP"/><use transform="matrix(0.06790123456790124,0,0,0.06790123456790124,62.333333333333336,0)" xlink:href="#aX"/></g><path fill="#333" d="M238-95c0 69-44 99-111 99C63 4 22-25 22-93v-155h51v151c-1 38 19 59 55 60 90 1 49-130 58-211h52v153" id="bB"/><path fill="#333" d="M137-138c1-29-70-34-71-4 15 46 118 7 119 86 1 83-164 76-172 9l43-7c4 19 20 25 44 25 33 8 57-30 24-41C81-84 22-81 20-136c-2-80 154-74 161-7" id="bC"/><g id="ae"><use transform="matrix(0.06790123456790124,0,0,0.06790123456790124,0,0)" xlink:href="#bB"/><use transform="matrix(0.06790123456790124,0,0,0.06790123456790124,17.58641975308642,0)" xlink:href="#bC"/><use transform="matrix(0.06790123456790124,0,0,0.06790123456790124,31.16666666666667,0)" xlink:href="#aX"/></g><g id="af"><use transform="matrix(0.06790123456790124,0,0,0.06790123456790124,0,0)" xlink:href="#bA"/><use transform="matrix(0.06790123456790124,0,0,0.06790123456790124,17.58641975308642,0)" xlink:href="#aW"/><use transform="matrix(0.06790123456790124,0,0,0.06790123456790124,31.16666666666667,0)" xlink:href="#bC"/><use transform="matrix(0.06790123456790124,0,0,0.06790123456790124,44.74691358024692,0)" xlink:href="#aX"/></g><path fill="#333" d="M160-152l-12 59h37v26h-43L128 0h-28l14-67H60L46 0H20l13-67H6v-26h33l13-59H15v-26h42l15-67h27l-15 67h54l15-67h27l-14 67h28v26h-34zm-81 0L66-93h55l12-59H79" id="bD"/><path fill="#333" d="M182-182c0 78-84 86-111 141h115V0H12c-6-101 99-100 120-180 1-22-12-31-33-32-23 0-32 14-35 34l-49-3c5-45 32-70 84-70 51 0 83 22 83 69" id="bE"/><g id="ag"><use transform="matrix(0.06790123456790124,0,0,0.06790123456790124,0,0)" xlink:href="#bD"/><use transform="matrix(0.06790123456790124,0,0,0.06790123456790124,13.580246913580249,0)" xlink:href="#bE"/></g><path fill="#333" d="M128-127c34 4 56 21 59 58 7 91-148 94-172 28-4-9-6-17-7-26l51-5c1 24 16 35 40 36 23 0 39-12 38-36-1-31-31-36-65-34v-40c32 2 59-3 59-33 0-20-13-33-34-33s-33 13-35 32l-50-3c6-44 37-68 86-68 50 0 83 20 83 66 0 35-22 52-53 58" id="bF"/><g id="ah"><use transform="matrix(0.06790123456790124,0,0,0.06790123456790124,0,0)" xlink:href="#bD"/><use transform="matrix(0.06790123456790124,0,0,0.06790123456790124,13.580246913580249,0)" xlink:href="#bF"/></g><path fill="#333" d="M240 0l2-218c-23 76-54 145-80 218h-23L58-218 59 0H30v-248h44l77 211c21-75 51-140 76-211h43V0h-30" id="bG"/><path fill="#333" d="M205 0l-28-72H64L36 0H1l101-248h38L239 0h-34zm-38-99l-47-123c-12 45-31 82-46 123h93" id="bH"/><path fill="#333" d="M212-179c-10-28-35-45-73-45-59 0-87 40-87 99 0 60 29 101 89 101 43 0 62-24 78-52l27 14C228-24 195 4 139 4 59 4 22-46 18-125c-6-104 99-153 187-111 19 9 31 26 39 46" id="bI"/><path fill="#333" d="M197 0v-115H63V0H30v-248h33v105h134v-105h34V0h-34" id="bJ"/><g id="ai"><use transform="matrix(0.05,0,0,0.05,0,0)" xlink:href="#bG"/><use transform="matrix(0.05,0,0,0.05,14.950000000000001,0)" xlink:href="#bH"/><use transform="matrix(0.05,0,0,0.05,25.6,0)" xlink:href="#aj"/><use transform="matrix(0.05,0,0,0.05,36.550000000000004,0)" xlink:href="#bI"/><use transform="matrix(0.05,0,0,0.05,49.50000000000001,0)" xlink:href="#bJ"/></g></defs></g></svg>