<svg xmlns="http://www.w3.org/2000/svg" xmlns:xlink="http://www.w3.org/1999/xlink" xmlns:lucid="lucid" width="1826" height="1042"><g transform="translate(-9 -664)" lucid:page-tab-id="9QdXEr~dY.W-"><path d="M0 0h3615.47v6718.57H0z" fill="#fff"/><path d="M40 688c0-4.42 3.58-8 8-8h1823.5c4.42 0 8 3.58 8 8v964c0 4.42-3.58 8-8 8H48c-4.42 0-8-3.58-8-8z" stroke="#fff" fill="#fff"/><path d="M40 688c0-4.42 3.58-8 8-8h280.38c4.42 0 8 3.58 8 8v44c0 4.42-3.58 8-8 8H48c-4.42 0-8-3.58-8-8z" stroke="#000" stroke-opacity="0" fill="#fff" fill-opacity="0"/><use xlink:href="#a" transform="matrix(1,0,0,1,60,680) translate(11.913580246913554 34.888888888888886)"/><use xlink:href="#b" transform="matrix(1,0,0,1,60,680) translate(101.2716049382716 34.888888888888886)"/><use xlink:href="#c" transform="matrix(1,0,0,1,60,680) translate(152.80864197530866 34.888888888888886)"/><use xlink:href="#d" transform="matrix(1,0,0,1,60,680) translate(217.92592592592592 34.888888888888886)"/><path d="M99.9 764.56c0-4.42 3.58-8 8-8h16.6c4.43 0 8 3.58 8 8v10.88c0 4.42-3.57 8-8 8h-16.6c-4.42 0-8-3.58-8-8z" stroke="#333" fill="#ff8f80"/><path d="M99.9 824.56c0-4.42 3.58-8 8-8h16.6c4.43 0 8 3.58 8 8v10.88c0 4.42-3.57 8-8 8h-16.6c-4.42 0-8-3.58-8-8z" stroke="#333" fill="#c7e8ac"/><path d="M40 748c0-4.42 3.58-8 8-8h492.67c4.42 0 8 3.58 8 8v44c0 4.42-3.58 8-8 8H48c-4.42 0-8-3.58-8-8z" stroke="#000" stroke-opacity="0" fill="#fff" fill-opacity="0"/><use xlink:href="#e" transform="matrix(1,0,0,1,60,740) translate(85.65 33.6)"/><use xlink:href="#f" transform="matrix(1,0,0,1,60,740) translate(101.15 33.6)"/><path d="M40 808c0-4.42 3.58-8 8-8h472.67c4.42 0 8 3.58 8 8v44c0 4.42-3.58 8-8 8H48c-4.42 0-8-3.58-8-8z" stroke="#000" stroke-opacity="0" fill="#fff" fill-opacity="0"/><use xlink:href="#e" transform="matrix(1,0,0,1,60,800) translate(86.60000000000002 33.6)"/><use xlink:href="#g" transform="matrix(1,0,0,1,60,800) translate(102.10000000000002 33.6)"/><path d="M101.85 991.53c0-4.42 3.6-8 8-8h372.77c4.42 0 8 3.58 8 8v344c0 4.42-3.58 8-8 8H109.85c-4.4 0-8-3.58-8-8z" stroke="#333" fill="#fff"/><path d="M227.97 961.53c0-4.42 3.58-8 8-8H362.1c4.4 0 8 3.58 8 8v24c0 4.42-3.6 8-8 8H235.96c-4.42 0-8-3.58-8-8z" stroke="#000" stroke-opacity="0" fill="#ffeca9"/><use xlink:href="#h" transform="matrix(1,0,0,1,247.96843069409488,953.5283658468877) translate(6.599999999999994 23.6)"/><use xlink:href="#i" transform="matrix(1,0,0,1,247.96843069409488,953.5283658468877) translate(52.5 23.6)"/><path d="M267.8 1243.53c0 33.14-26.86 60-60 60s-60-26.86-60-60 26.86-60 60-60 60 26.86 60 60z" stroke="#333" fill="#fff"/><use xlink:href="#j" transform="matrix(1,0,0,1,165.79798176066436,1207.5283658468877) translate(6.524999999999999 39.6)"/><path d="M470.26 1113.53c0 33.14-26.87 60-60 60-33.14 0-60-26.86-60-60s26.86-60 60-60c33.13 0 60 26.86 60 60z" stroke="#333" fill="#fff"/><use xlink:href="#k" transform="matrix(1,0,0,1,368.2563639699139,1077.5283658468877) translate(14.024999999999999 32.8)"/><use xlink:href="#l" transform="matrix(1,0,0,1,368.2563639699139,1077.5283658468877) translate(3.954629629629622 49.06666666666667)"/><use xlink:href="#m" transform="matrix(1,0,0,1,368.2563639699139,1077.5283658468877) translate(43.58981481481481 49.06666666666667)"/><path d="M336.38 1013.53h81.88l12 12v48h-93.88z" stroke="#333" fill="#fff"/><path d="M418.26 1014v11.53h11.52" stroke="#333" fill="#fff"/><use xlink:href="#n" transform="matrix(1,0,0,1,342.384563152595,1020.7283658468878) translate(17.525 27.6)"/><path d="M310.53 1231.63l-.45 3.4-1.34 3.25-2.16 2.8-2.8 2.16-3.25 1.34-3.4.45h-8.2v-3h8l2.82-.37 2.5-1.04 2.2-1.68 1.67-2.18 1.04-2.5.37-2.83v-42.1h3zm18.6-116.6h-8l-2.83.37-2.5 1.04-2.2 1.67-1.66 2.2-1.04 2.5-.37 2.83v42.1h-3v-42.3l.44-3.4 1.35-3.25 2.15-2.8 2.8-2.16 3.25-1.35 3.4-.44h8.22zM287.42 1248.16l-14.27-4.63 14.27-4.64z" fill="#333"/><path d="M288.92 1250.23l-20.62-6.7 20.62-6.7zm-10.9-6.7l7.9 2.57v-5.14zM344.9 1113.53l-14.26 4.63v-9.27z" fill="#333"/><path d="M349.76 1113.53l-20.62 6.7v-13.4zm-17.62 2.57l7.9-2.57-7.9-2.57z" fill="#333"/><use xlink:href="#o" transform="matrix(1,0,0,1,277.8021728652891,1167.7283658468878) translate(0.004999999999999005 14.4)"/><path d="M94.33 908c0-4.42 3.6-8 8-8h384c4.42 0 8 3.58 8 8v44c0 4.42-3.58 8-8 8h-384c-4.4 0-8-3.58-8-8z" stroke="#000" stroke-opacity="0" fill="#fff" fill-opacity="0"/><use xlink:href="#p" transform="matrix(1,0,0,1,114.33349403320938,900) translate(9.290740740740716 23.066666666666663)"/><use xlink:href="#q" transform="matrix(1,0,0,1,114.33349403320938,900) translate(24.698148148148125 23.066666666666663)"/><use xlink:href="#r" transform="matrix(1,0,0,1,114.33349403320938,900) translate(74.67592592592591 23.066666666666663)"/><use xlink:href="#s" transform="matrix(1,0,0,1,114.33349403320938,900) translate(133.36851851851853 23.066666666666663)"/><use xlink:href="#t" transform="matrix(1,0,0,1,114.33349403320938,900) translate(150.6537037037037 23.066666666666663)"/><use xlink:href="#u" transform="matrix(1,0,0,1,114.33349403320938,900) translate(200.6314814814815 23.066666666666663)"/><use xlink:href="#v" transform="matrix(1,0,0,1,114.33349403320938,900) translate(219.89074074074077 23.066666666666663)"/><use xlink:href="#w" transform="matrix(1,0,0,1,114.33349403320938,900) translate(234.33518518518522 23.066666666666663)"/><use xlink:href="#x" transform="matrix(1,0,0,1,114.33349403320938,900) translate(294.95370370370375 23.066666666666663)"/><use xlink:href="#y" transform="matrix(1,0,0,1,114.33349403320938,900) translate(153.0611111111111 43.86666666666667)"/><path d="M132.5 1140h81.9l12 12v48h-93.9z" stroke="#333" fill="#fff"/><path d="M214.4 1140.48V1152h11.5" stroke="#333" fill="#fff"/><use xlink:href="#n" transform="matrix(1,0,0,1,138.51332940500868,1147.2) translate(17.525 27.6)"/><path d="M822.4 991.53c0-4.42 3.6-8 8-8h372.78c4.4 0 8 3.58 8 8v344c0 4.42-3.6 8-8 8H830.4c-4.4 0-8-3.58-8-8z" stroke="#333" fill="#fff"/><path d="M948.52 961.53c0-4.42 3.58-8 8-8h126.12c4.42 0 8 3.58 8 8v24c0 4.42-3.58 8-8 8H956.52c-4.42 0-8-3.58-8-8z" stroke="#000" stroke-opacity="0" fill="#ffeca9"/><use xlink:href="#z" transform="matrix(1,0,0,1,968.5206529664396,953.5283658468877) translate(23.599999999999994 23.6)"/><path d="M988.35 1243.53c0 33.14-26.86 60-60 60s-60-26.86-60-60 26.86-60 60-60 60 26.86 60 60z" stroke="#333" fill="#fff"/><use xlink:href="#A" transform="matrix(1,0,0,1,886.350204033009,1207.5283658468877) translate(6.524999999999999 39.6)"/><use xlink:href="#B" transform="matrix(1,0,0,1,886.350204033009,1207.5283658468877) translate(67.475 39.6)"/><path d="M1190.8 1113.53c0 33.14-26.85 60-60 60-33.13 0-60-26.86-60-60s26.87-60 60-60c33.15 0 60 26.86 60 60z" stroke="#333" fill="#fff"/><use xlink:href="#k" transform="matrix(1,0,0,1,1088.8085862422586,1077.5283658468877) translate(14.024999999999999 32.8)"/><use xlink:href="#l" transform="matrix(1,0,0,1,1088.8085862422586,1077.5283658468877) translate(3.954629629629622 49.06666666666667)"/><use xlink:href="#m" transform="matrix(1,0,0,1,1088.8085862422586,1077.5283658468877) translate(43.58981481481481 49.06666666666667)"/><path d="M1056.94 1013.53h81.87l12 12v48h-93.86z" stroke="#333" fill="#fff"/><path d="M1138.8 1014v11.53h11.53" stroke="#333" fill="#fff"/><use xlink:href="#n" transform="matrix(1,0,0,1,1062.9367854249394,1020.7283658468878) translate(17.525 27.6)"/><path d="M1031.08 1231.63l-.45 3.4-1.34 3.25-2.17 2.8-2.8 2.16-3.25 1.34-3.4.45h-8.2v-3h8l2.82-.37 2.5-1.04 2.2-1.68 1.67-2.18 1.04-2.5.38-2.83v-42.1h3zm18.6-116.6h-8l-2.82.37-2.52 1.04-2.18 1.67-1.67 2.2-1.05 2.5-.37 2.83v42.1h-3v-42.3l.45-3.4 1.34-3.25 2.15-2.8 2.8-2.16 3.25-1.35 3.4-.44h8.22zM1007.97 1248.16l-14.27-4.63 14.27-4.64z" fill="#333"/><path d="M1009.47 1250.23l-20.62-6.7 20.62-6.7zm-10.9-6.7l7.9 2.57v-5.14zM1065.45 1113.53l-14.26 4.63v-9.27z" fill="#333"/><path d="M1070.3 1113.53l-20.6 6.7v-13.4zm-17.6 2.57l7.9-2.57-7.9-2.57z" fill="#333"/><use xlink:href="#o" transform="matrix(1,0,0,1,998.3543951376338,1167.7283658468878) translate(0.004999999999999005 14.4)"/><path d="M794.3 868c0-4.42 3.58-8 8-8h449.1c4.43 0 8 3.58 8 8v84c0 4.42-3.57 8-8 8H802.3c-4.42 0-8-3.58-8-8z" stroke="#000" stroke-opacity="0" fill="#fff" fill-opacity="0"/><use xlink:href="#C" transform="matrix(1,0,0,1,814.2963053674341,860) translate(6.661111111111097 43.06666666666666)"/><use xlink:href="#D" transform="matrix(1,0,0,1,814.2963053674341,860) translate(65.3537037037037 43.06666666666666)"/><use xlink:href="#E" transform="matrix(1,0,0,1,814.2963053674341,860) translate(82.6388888888889 43.06666666666666)"/><use xlink:href="#F" transform="matrix(1,0,0,1,814.2963053674341,860) translate(150.0462962962963 43.06666666666666)"/><use xlink:href="#G" transform="matrix(1,0,0,1,814.2963053674341,860) translate(185.57962962962964 43.06666666666666)"/><use xlink:href="#H" transform="matrix(1,0,0,1,814.2963053674341,860) translate(200.0240740740741 43.06666666666666)"/><use xlink:href="#I" transform="matrix(1,0,0,1,814.2963053674341,860) translate(261.65370370370374 43.06666666666666)"/><use xlink:href="#J" transform="matrix(1,0,0,1,814.2963053674341,860) translate(280.912962962963 43.06666666666666)"/><use xlink:href="#K" transform="matrix(1,0,0,1,814.2963053674341,860) translate(319.3351851851852 43.06666666666666)"/><use xlink:href="#L" transform="matrix(1,0,0,1,814.2963053674341,860) translate(385.68333333333334 43.06666666666666)"/><use xlink:href="#M" transform="matrix(1,0,0,1,814.2963053674341,860) translate(14.605555555555497 63.86666666666667)"/><use xlink:href="#N" transform="matrix(1,0,0,1,814.2963053674341,860) translate(52.06481481481476 63.86666666666667)"/><use xlink:href="#O" transform="matrix(1,0,0,1,814.2963053674341,860) translate(85.72037037037032 63.86666666666667)"/><use xlink:href="#P" transform="matrix(1,0,0,1,814.2963053674341,860) translate(145.80925925925922 63.86666666666667)"/><use xlink:href="#Q" transform="matrix(1,0,0,1,814.2963053674341,860) translate(197.7611111111111 63.86666666666667)"/><use xlink:href="#R" transform="matrix(1,0,0,1,814.2963053674341,860) translate(268.05740740740737 63.86666666666667)"/><use xlink:href="#S" transform="matrix(1,0,0,1,814.2963053674341,860) translate(304.60185185185185 63.86666666666667)"/><use xlink:href="#T" transform="matrix(1,0,0,1,814.2963053674341,860) translate(322.85 63.86666666666667)"/><use xlink:href="#U" transform="matrix(1,0,0,1,814.2963053674341,860) translate(351.73888888888894 63.86666666666667)"/><path d="M853.07 1140h81.87l12 12v48h-93.87z" stroke="#333" fill="#fff"/><path d="M934.94 1140.48V1152h11.52" stroke="#333" fill="#fff"/><use xlink:href="#n" transform="matrix(1,0,0,1,859.0655516773534,1147.2) translate(17.525 27.6)"/><path d="M740 1160c0 33.14-26.86 60-60 60s-60-26.86-60-60 26.86-60 60-60 60 26.86 60 60z" stroke="#333" fill="#fff"/><use xlink:href="#V" transform="matrix(1,0,0,1,638,1124) translate(6.524999999999999 39.6)"/><path d="M761.12 1160h37.76" stroke="#333" stroke-width="3" fill="none"/><path d="M745.35 1160l14.27-4.64v9.28zM814.65 1160l-14.27 4.64v-9.28z" stroke="#333" stroke-width="3" fill="#333"/><path d="M600 1073.53h81.87l12 12v48H600z" stroke="#333" fill="#fff"/><path d="M681.87 1074v11.53h11.53" stroke="#333" fill="#fff"/><use xlink:href="#W" transform="matrix(1,0,0,1,606.0000000000005,1080.7283658468878) translate(17.525 27.6)"/><path d="M1344.4 799.76c0-4.4 3.57-8 8-8h372.76c4.4 0 8 3.6 8 8v344c0 4.42-3.6 8-8 8H1352.4c-4.43 0-8-3.58-8-8z" stroke="#333" fill="#ff8f80"/><path d="M1470.5 769.76c0-4.4 3.58-8 8-8h126.12c4.42 0 8 3.6 8 8v24c0 4.42-3.58 8-8 8H1478.5c-4.42 0-8-3.58-8-8z" stroke="#000" stroke-opacity="0" fill="#ffeca9"/><use xlink:href="#X" transform="matrix(1,0,0,1,1490.5003118578652,761.7641829234439) translate(10.099999999999994 23.6)"/><use xlink:href="#i" transform="matrix(1,0,0,1,1490.5003118578652,761.7641829234439) translate(49 23.6)"/><path d="M1712.8 921.76c0 33.14-26.87 60-60 60-33.15 0-60-26.86-60-60 0-33.13 26.85-60 60-60 33.13 0 60 26.87 60 60z" stroke="#333" fill="#fff"/><g><use xlink:href="#k" transform="matrix(1,0,0,1,1610.788245133684,885.7641829234439) translate(14.024999999999999 32.8)"/><use xlink:href="#l" transform="matrix(1,0,0,1,1610.788245133684,885.7641829234439) translate(3.954629629629622 49.06666666666667)"/><use xlink:href="#m" transform="matrix(1,0,0,1,1610.788245133684,885.7641829234439) translate(43.58981481481481 49.06666666666667)"/></g><path d="M1578.92 821.76h81.87l12 12v48h-93.88z" stroke="#333" fill="#fff"/><path d="M1660.8 822.24v11.52h11.5" stroke="#333" fill="#fff"/><g><use xlink:href="#n" transform="matrix(1,0,0,1,1584.916444316365,828.9641829234439) translate(17.525 27.6)"/></g><path d="M1551.15 1028.1l-.45 3.4-1.34 3.25-2.15 2.8-2.8 2.16-3.24 1.35-3.4.45h-10.13v-3h9.92l2.82-.37 2.52-1.04 2.17-1.68 1.67-2.2 1.04-2.5.37-2.82v-36.22h3zm20.52-104.84h-9.92l-2.82.37-2.5 1.04-2.2 1.68-1.67 2.18-1.04 2.5-.37 2.83v36.22h-3v-36.4l.45-3.42 1.34-3.24 2.16-2.8 2.8-2.17 3.25-1.34 3.4-.44h10.12zM1526.13 1044.64l-14.26-4.64 14.26-4.64z" fill="#333"/><path d="M1527.63 1046.7L1507 1040l20.63-6.7zm-10.9-6.7l7.9 2.57v-5.14zM1587.43 921.76l-14.26 4.64v-9.27z" fill="#333"/><path d="M1592.3 921.76l-20.63 6.7v-13.4zm-17.63 2.57l7.9-2.57-7.9-2.57z" fill="#333"/><g><use xlink:href="#o" transform="matrix(1,0,0,1,1518.4260442969826,970.082091461722) translate(0.004999999999999005 14.4)"/></g><path d="M1336.87 716.24c0-4.42 3.58-8 8-8h384c4.4 0 8 3.58 8 8v44c0 4.4-3.6 8-8 8h-384c-4.42 0-8-3.6-8-8z" stroke="#000" stroke-opacity="0" fill="#fff" fill-opacity="0"/><g><use xlink:href="#Y" transform="matrix(1,0,0,1,1356.8653751969796,708.2358170765561) translate(138.6648148148148 33.46666666666667)"/></g><path d="M1506.5 1040c0 33.14-26.85 60-60 60-33.12 0-60-26.86-60-60s26.88-60 60-60c33.15 0 60 26.86 60 60z" stroke="#333" fill="#fff"/><g><use xlink:href="#A" transform="matrix(1,0,0,1,1404.5138434602807,1004) translate(6.524999999999999 39.6)"/><use xlink:href="#B" transform="matrix(1,0,0,1,1404.5138434602807,1004) translate(67.475 39.6)"/></g><path d="M1371.23 936.47h81.87l12 12v48h-93.87z" stroke="#333" fill="#fff"/><path d="M1453.1 936.95v11.52h11.52" stroke="#333" fill="#fff"/><g><use xlink:href="#n" transform="matrix(1,0,0,1,1377.229191104625,943.6716341531123) translate(17.525 27.6)"/></g><path d="M1344.4 1278c0-4.42 3.57-8 8-8h372.76c4.4 0 8 3.58 8 8v344c0 4.42-3.6 8-8 8H1352.4c-4.43 0-8-3.58-8-8z" stroke="#333" fill="#c7e8ac"/><path d="M1470.5 1248c0-4.42 3.58-8 8-8h126.12c4.42 0 8 3.58 8 8v24c0 4.42-3.58 8-8 8H1478.5c-4.42 0-8-3.58-8-8z" stroke="#000" stroke-opacity="0" fill="#ffeca9"/><g><use xlink:href="#X" transform="matrix(1,0,0,1,1490.5003118578652,1240) translate(10.099999999999994 23.6)"/><use xlink:href="#i" transform="matrix(1,0,0,1,1490.5003118578652,1240) translate(49 23.6)"/></g><path d="M1712.8 1400c0 33.14-26.87 60-60 60-33.15 0-60-26.86-60-60s26.85-60 60-60c33.13 0 60 26.86 60 60z" stroke="#333" fill="#fff"/><g><use xlink:href="#k" transform="matrix(1,0,0,1,1610.788245133684,1364) translate(14.024999999999999 32.8)"/><use xlink:href="#l" transform="matrix(1,0,0,1,1610.788245133684,1364) translate(3.954629629629622 49.06666666666667)"/><use xlink:href="#m" transform="matrix(1,0,0,1,1610.788245133684,1364) translate(43.58981481481481 49.06666666666667)"/></g><path d="M1578.92 1300h81.87l12 12v48h-93.88z" stroke="#333" fill="#fff"/><path d="M1660.8 1300.48V1312h11.5" stroke="#333" fill="#fff"/><g><use xlink:href="#W" transform="matrix(1,0,0,1,1584.916444316365,1307.2) translate(17.525 27.6)"/></g><path d="M1551.15 1506.33l-.45 3.4-1.34 3.25-2.15 2.8-2.8 2.17-3.24 1.34-3.4.44h-10.13v-3h9.92l2.82-.37 2.52-1.04 2.17-1.68 1.67-2.18 1.04-2.5.37-2.83v-36.22h3zm20.52-104.83h-9.92l-2.82.37-2.5 1.04-2.2 1.68-1.67 2.2-1.04 2.5-.37 2.82v36.22h-3v-36.42l.45-3.4 1.34-3.25 2.16-2.8 2.8-2.16 3.25-1.35 3.4-.45h10.12zM1526.13 1522.87l-14.26-4.63 14.26-4.64z" fill="#333"/><path d="M1527.63 1524.94l-20.62-6.7 20.63-6.7zm-10.9-6.7l7.9 2.57v-5.13zM1587.43 1400l-14.26 4.64v-9.28z" fill="#333"/><path d="M1592.3 1400l-20.63 6.7v-13.4zm-17.63 2.57l7.9-2.57-7.9-2.57z" fill="#333"/><g><use xlink:href="#o" transform="matrix(1,0,0,1,1518.4260442969826,1448.3179085382783) translate(0.004999999999999005 14.4)"/></g><path d="M1506.5 1518.24c0 33.13-26.85 60-60 60-33.12 0-60-26.87-60-60 0-33.14 26.88-60 60-60 33.15 0 60 26.86 60 60z" stroke="#333" fill="#fff"/><g><use xlink:href="#A" transform="matrix(1,0,0,1,1404.5138434602807,1482.235817076556) translate(6.524999999999999 39.6)"/><use xlink:href="#B" transform="matrix(1,0,0,1,1404.5138434602807,1482.235817076556) translate(67.475 39.6)"/></g><path d="M1371.23 1414.7h81.87l12 12v48h-93.87z" stroke="#333" fill="#fff"/><path d="M1453.1 1415.18v11.53h11.52" stroke="#333" fill="#fff"/><g><use xlink:href="#W" transform="matrix(1,0,0,1,1377.229191104625,1421.9074512296686) translate(17.525 27.6)"/></g><path d="M1341.56 1188.88c0-4.42 3.58-8 8-8h384c4.42 0 8 3.58 8 8v44c0 4.42-3.58 8-8 8h-384c-4.42 0-8-3.58-8-8z" stroke="#000" stroke-opacity="0" fill="#fff" fill-opacity="0"/><g><use xlink:href="#Z" transform="matrix(1,0,0,1,1361.5590540290596,1180.882091461722) translate(1.996296296296265 33.46666666666667)"/><use xlink:href="#aa" transform="matrix(1,0,0,1,1361.5590540290596,1180.882091461722) translate(36.61481481481479 33.46666666666667)"/><use xlink:href="#I" transform="matrix(1,0,0,1,1361.5590540290596,1180.882091461722) translate(94.39259259259259 33.46666666666667)"/><use xlink:href="#N" transform="matrix(1,0,0,1,1361.5590540290596,1180.882091461722) translate(113.65185185185186 33.46666666666667)"/><use xlink:href="#D" transform="matrix(1,0,0,1,1361.5590540290596,1180.882091461722) translate(147.30740740740742 33.46666666666667)"/><use xlink:href="#ab" transform="matrix(1,0,0,1,1361.5590540290596,1180.882091461722) translate(164.5925925925926 33.46666666666667)"/><use xlink:href="#ac" transform="matrix(1,0,0,1,1361.5590540290596,1180.882091461722) translate(239.70370370370372 33.46666666666667)"/><use xlink:href="#G" transform="matrix(1,0,0,1,1361.5590540290596,1180.882091461722) translate(262.8148148148148 33.46666666666667)"/><use xlink:href="#ad" transform="matrix(1,0,0,1,1361.5590540290596,1180.882091461722) translate(277.25925925925924 33.46666666666667)"/></g><defs><path fill="#333" d="M238-95c0 69-44 99-111 99C63 4 22-25 22-93v-155h51v151c-1 38 19 59 55 60 90 1 49-130 58-211h52v153" id="ae"/><path fill="#333" d="M135-194c53 0 70 44 70 98 0 56-19 98-73 100-31 1-45-17-59-34 3 33 2 69 2 105H25l-1-265h48c2 10 0 23 3 31 11-24 29-35 60-35zM114-30c33 0 39-31 40-66 0-38-9-64-40-64-56 0-55 130 0 130" id="af"/><path fill="#333" d="M88-194c31-1 46 15 58 34l-1-101h50l1 261h-48c-2-10 0-23-3-31C134-8 116 4 84 4 32 4 16-41 15-95c0-56 19-97 73-99zm17 164c33 0 40-30 41-66 1-37-9-64-41-64s-38 30-39 65c0 43 13 65 39 65" id="ag"/><path fill="#333" d="M133-34C117-15 103 5 69 4 32 3 11-16 11-54c-1-60 55-63 116-61 1-26-3-47-28-47-18 1-26 9-28 27l-52-2c7-38 36-58 82-57s74 22 75 68l1 82c-1 14 12 18 25 15v27c-30 8-71 5-69-32zm-48 3c29 0 43-24 42-57-32 0-66-3-65 30 0 17 8 27 23 27" id="ah"/><path fill="#333" d="M115-3C79 11 28 4 28-45v-112H4v-33h27l15-45h31v45h36v33H77v99c-1 23 16 31 38 25v30" id="ai"/><path fill="#333" d="M185-48c-13 30-37 53-82 52C43 2 14-33 14-96s30-98 90-98c62 0 83 45 84 108H66c0 31 8 55 39 56 18 0 30-7 34-22zm-45-69c5-46-57-63-70-21-2 6-4 13-4 21h74" id="aj"/><g id="a"><use transform="matrix(0.06790123456790124,0,0,0.06790123456790124,0,0)" xlink:href="#ae"/><use transform="matrix(0.06790123456790124,0,0,0.06790123456790124,17.58641975308642,0)" xlink:href="#af"/><use transform="matrix(0.06790123456790124,0,0,0.06790123456790124,32.45679012345679,0)" xlink:href="#ag"/><use transform="matrix(0.06790123456790124,0,0,0.06790123456790124,47.327160493827165,0)" xlink:href="#ah"/><use transform="matrix(0.06790123456790124,0,0,0.06790123456790124,60.90740740740741,0)" xlink:href="#ai"/><use transform="matrix(0.06790123456790124,0,0,0.06790123456790124,68.98765432098766,0)" xlink:href="#aj"/></g><path fill="#333" d="M137-138c1-29-70-34-71-4 15 46 118 7 119 86 1 83-164 76-172 9l43-7c4 19 20 25 44 25 33 8 57-30 24-41C81-84 22-81 20-136c-2-80 154-74 161-7" id="ak"/><g id="b"><use transform="matrix(0.06790123456790124,0,0,0.06790123456790124,0,0)" xlink:href="#ae"/><use transform="matrix(0.06790123456790124,0,0,0.06790123456790124,17.58641975308642,0)" xlink:href="#ak"/><use transform="matrix(0.06790123456790124,0,0,0.06790123456790124,31.16666666666667,0)" xlink:href="#aj"/></g><path fill="#333" d="M67-125c0 53 21 87 73 88 37 1 54-22 65-47l45 17C233-25 199 4 140 4 58 4 20-42 15-125 8-235 124-281 211-232c18 10 29 29 36 50l-46 12c-8-25-30-41-62-41-52 0-71 34-72 86" id="al"/><g id="c"><use transform="matrix(0.06790123456790124,0,0,0.06790123456790124,0,0)" xlink:href="#al"/><use transform="matrix(0.06790123456790124,0,0,0.06790123456790124,17.58641975308642,0)" xlink:href="#ah"/><use transform="matrix(0.06790123456790124,0,0,0.06790123456790124,31.16666666666667,0)" xlink:href="#ak"/><use transform="matrix(0.06790123456790124,0,0,0.06790123456790124,44.74691358024692,0)" xlink:href="#aj"/></g><path fill="#333" d="M160-152l-12 59h37v26h-43L128 0h-28l14-67H60L46 0H20l13-67H6v-26h33l13-59H15v-26h42l15-67h27l-15 67h54l15-67h27l-14 67h28v26h-34zm-81 0L66-93h55l12-59H79" id="am"/><path fill="#333" d="M182-182c0 78-84 86-111 141h115V0H12c-6-101 99-100 120-180 1-22-12-31-33-32-23 0-32 14-35 34l-49-3c5-45 32-70 84-70 51 0 83 22 83 69" id="an"/><g id="d"><use transform="matrix(0.06790123456790124,0,0,0.06790123456790124,0,0)" xlink:href="#am"/><use transform="matrix(0.06790123456790124,0,0,0.06790123456790124,13.580246913580249,0)" xlink:href="#an"/></g><path fill="#333" d="M18-150v-26h174v26H18zm0 90v-26h174v26H18" id="ao"/><use transform="matrix(0.05,0,0,0.05,0,0)" xlink:href="#ao" id="e"/><path fill="#333" d="M30-248c87 1 191-15 191 75 0 78-77 80-158 76V0H30v-248zm33 125c57 0 124 11 124-50 0-59-68-47-124-48v98" id="ap"/><path fill="#333" d="M233-177c-1 41-23 64-60 70L243 0h-38l-65-103H63V0H30v-248c88 3 205-21 203 71zM63-129c60-2 137 13 137-47 0-61-80-42-137-45v92" id="aq"/><path fill="#333" d="M30 0v-248h187v28H63v79h144v27H63v87h162V0H30" id="ar"/><path fill="#333" d="M137 0h-34L2-248h35l83 218 83-218h36" id="as"/><path fill="#333" d="M190 0L58-211 59 0H30v-248h39L202-35l-2-213h31V0h-41" id="at"/><path fill="#333" d="M127-220V0H93v-220H8v-28h204v28h-85" id="au"/><path fill="#333" d="M-5 72V49h209v23H-5" id="av"/><path fill="#333" d="M33 0v-248h34V0H33" id="aw"/><path fill="#333" d="M30-248c118-7 216 8 213 122C240-48 200 0 122 0H30v-248zM63-27c89 8 146-16 146-99s-60-101-146-95v194" id="ax"/><path fill="#333" d="M232-93c-1 65-40 97-104 97C67 4 28-28 28-90v-158h33c8 89-33 224 67 224 102 0 64-133 71-224h33v155" id="ay"/><path fill="#333" d="M205 0l-28-72H64L36 0H1l101-248h38L239 0h-34zm-38-99l-47-123c-12 45-31 82-46 123h93" id="az"/><path fill="#333" d="M185-189c-5-48-123-54-124 2 14 75 158 14 163 119 3 78-121 87-175 55-17-10-28-26-33-46l33-7c5 56 141 63 141-1 0-78-155-14-162-118-5-82 145-84 179-34 5 7 8 16 11 25" id="aA"/><path fill="#333" d="M240 0l2-218c-23 76-54 145-80 218h-23L58-218 59 0H30v-248h44l77 211c21-75 51-140 76-211h43V0h-30" id="aB"/><path fill="#333" d="M140-251c81 0 123 46 123 126C263-46 219 4 140 4 59 4 17-45 17-125s42-126 123-126zm0 227c63 0 89-41 89-101s-29-99-89-99c-61 0-89 39-89 99S79-25 140-24" id="aC"/><g id="f"><use transform="matrix(0.05,0,0,0.05,0,0)" xlink:href="#ap"/><use transform="matrix(0.05,0,0,0.05,12,0)" xlink:href="#aq"/><use transform="matrix(0.05,0,0,0.05,24.950000000000003,0)" xlink:href="#ar"/><use transform="matrix(0.05,0,0,0.05,36.95,0)" xlink:href="#as"/><use transform="matrix(0.05,0,0,0.05,48.95,0)" xlink:href="#ar"/><use transform="matrix(0.05,0,0,0.05,60.95,0)" xlink:href="#at"/><use transform="matrix(0.05,0,0,0.05,73.9,0)" xlink:href="#au"/><use transform="matrix(0.05,0,0,0.05,84.85000000000001,0)" xlink:href="#av"/><use transform="matrix(0.05,0,0,0.05,94.85000000000001,0)" xlink:href="#ar"/><use transform="matrix(0.05,0,0,0.05,106.85000000000001,0)" xlink:href="#aw"/><use transform="matrix(0.05,0,0,0.05,111.85000000000001,0)" xlink:href="#ax"/><use transform="matrix(0.05,0,0,0.05,124.80000000000001,0)" xlink:href="#av"/><use transform="matrix(0.05,0,0,0.05,134.8,0)" xlink:href="#ay"/><use transform="matrix(0.05,0,0,0.05,147.75,0)" xlink:href="#ap"/><use transform="matrix(0.05,0,0,0.05,159.75,0)" xlink:href="#ax"/><use transform="matrix(0.05,0,0,0.05,172.7,0)" xlink:href="#az"/><use transform="matrix(0.05,0,0,0.05,183.35,0)" xlink:href="#au"/><use transform="matrix(0.05,0,0,0.05,194.29999999999998,0)" xlink:href="#ar"/><use transform="matrix(0.05,0,0,0.05,206.29999999999995,0)" xlink:href="#aA"/><use transform="matrix(0.05,0,0,0.05,218.29999999999995,0)" xlink:href="#av"/><use transform="matrix(0.05,0,0,0.05,228.29999999999995,0)" xlink:href="#aB"/><use transform="matrix(0.05,0,0,0.05,243.24999999999997,0)" xlink:href="#aC"/><use transform="matrix(0.05,0,0,0.05,257.25,0)" xlink:href="#ax"/><use transform="matrix(0.05,0,0,0.05,270.2,0)" xlink:href="#ar"/></g><path fill="#333" d="M30 0v-248h33v221h125V0H30" id="aD"/><path fill="#333" d="M266 0h-40l-56-210L115 0H75L2-248h35L96-30l15-64 43-154h32l59 218 59-218h35" id="aE"/><g id="g"><use transform="matrix(0.05,0,0,0.05,0,0)" xlink:href="#az"/><use transform="matrix(0.05,0,0,0.05,12,0)" xlink:href="#aD"/><use transform="matrix(0.05,0,0,0.05,22,0)" xlink:href="#aD"/><use transform="matrix(0.05,0,0,0.05,32,0)" xlink:href="#aC"/><use transform="matrix(0.05,0,0,0.05,46,0)" xlink:href="#aE"/><use transform="matrix(0.05,0,0,0.05,62.95,0)" xlink:href="#av"/><use transform="matrix(0.05,0,0,0.05,72.95,0)" xlink:href="#ar"/><use transform="matrix(0.05,0,0,0.05,84.95,0)" xlink:href="#aw"/><use transform="matrix(0.05,0,0,0.05,89.95,0)" xlink:href="#ax"/><use transform="matrix(0.05,0,0,0.05,102.9,0)" xlink:href="#av"/><use transform="matrix(0.05,0,0,0.05,112.9,0)" xlink:href="#ay"/><use transform="matrix(0.05,0,0,0.05,125.85000000000001,0)" xlink:href="#ap"/><use transform="matrix(0.05,0,0,0.05,137.85000000000002,0)" xlink:href="#ax"/><use transform="matrix(0.05,0,0,0.05,150.8,0)" xlink:href="#az"/><use transform="matrix(0.05,0,0,0.05,161.45000000000002,0)" xlink:href="#au"/><use transform="matrix(0.05,0,0,0.05,172.4,0)" xlink:href="#ar"/><use transform="matrix(0.05,0,0,0.05,184.4,0)" xlink:href="#aA"/><use transform="matrix(0.05,0,0,0.05,196.4,0)" xlink:href="#av"/><use transform="matrix(0.05,0,0,0.05,206.4,0)" xlink:href="#aB"/><use transform="matrix(0.05,0,0,0.05,221.35000000000002,0)" xlink:href="#aC"/><use transform="matrix(0.05,0,0,0.05,235.35000000000002,0)" xlink:href="#ax"/><use transform="matrix(0.05,0,0,0.05,248.29999999999995,0)" xlink:href="#ar"/></g><path fill="#333" d="M169-182c-1-43-94-46-97-3 18 66 151 10 154 114 3 95-165 93-204 36-6-8-10-19-12-30l50-8c3 46 112 56 116 5-17-69-150-10-154-114-4-87 153-88 188-35 5 8 8 18 10 28" id="aF"/><path fill="#333" d="M135-150c-39-12-60 13-60 57V0H25l-1-190h47c2 13-1 29 3 40 6-28 27-53 61-41v41" id="aG"/><g id="h"><use transform="matrix(0.05,0,0,0.05,0,0)" xlink:href="#aF"/><use transform="matrix(0.05,0,0,0.05,12,0)" xlink:href="#ai"/><use transform="matrix(0.05,0,0,0.05,17.95,0)" xlink:href="#ah"/><use transform="matrix(0.05,0,0,0.05,27.950000000000003,0)" xlink:href="#aG"/><use transform="matrix(0.05,0,0,0.05,34.95,0)" xlink:href="#ai"/></g><g id="i"><use transform="matrix(0.05,0,0,0.05,0,0)" xlink:href="#aF"/><use transform="matrix(0.05,0,0,0.05,12,0)" xlink:href="#ai"/><use transform="matrix(0.05,0,0,0.05,17.95,0)" xlink:href="#ah"/><use transform="matrix(0.05,0,0,0.05,27.950000000000003,0)" xlink:href="#ai"/><use transform="matrix(0.05,0,0,0.05,33.9,0)" xlink:href="#aj"/></g><path d="M30-248c87 1 191-15 191 75 0 78-77 80-158 76V0H30v-248zm33 125c57 0 124 11 124-50 0-59-68-47-124-48v98" id="aH"/><path d="M141-36C126-15 110 5 73 4 37 3 15-17 15-53c-1-64 63-63 125-63 3-35-9-54-41-54-24 1-41 7-42 31l-33-3c5-37 33-52 76-52 45 0 72 20 72 64v82c-1 20 7 32 28 27v20c-31 9-61-2-59-35zM48-53c0 20 12 33 32 33 41-3 63-29 60-74-43 2-92-5-92 41" id="aI"/><path d="M59-47c-2 24 18 29 38 22v24C64 9 27 4 27-40v-127H5v-23h24l9-43h21v43h35v23H59v120" id="aJ"/><path d="M24-231v-30h32v30H24zM24 0v-190h32V0H24" id="aK"/><path d="M100-194c63 0 86 42 84 106H49c0 40 14 67 53 68 26 1 43-12 49-29l28 8c-11 28-37 45-77 45C44 4 14-33 15-96c1-61 26-98 85-98zm52 81c6-60-76-77-97-28-3 7-6 17-6 28h103" id="aL"/><path d="M117-194c89-4 53 116 60 194h-32v-121c0-31-8-49-39-48C34-167 62-67 57 0H25l-1-190h30c1 10-1 24 2 32 11-22 29-35 61-36" id="aM"/><path d="M33 0v-38h34V0H33" id="aN"/><path d="M27 0v-27h64v-190l-56 39v-29l58-41h29v221h61V0H27" id="aO"/><g id="j"><use transform="matrix(0.05,0,0,0.05,0,0)" xlink:href="#aH"/><use transform="matrix(0.05,0,0,0.05,12,0)" xlink:href="#aI"/><use transform="matrix(0.05,0,0,0.05,22,0)" xlink:href="#aJ"/><use transform="matrix(0.05,0,0,0.05,27,0)" xlink:href="#aK"/><use transform="matrix(0.05,0,0,0.05,30.950000000000003,0)" xlink:href="#aL"/><use transform="matrix(0.05,0,0,0.05,40.95,0)" xlink:href="#aM"/><use transform="matrix(0.05,0,0,0.05,50.95,0)" xlink:href="#aJ"/><use transform="matrix(0.05,0,0,0.05,55.95,0)" xlink:href="#aN"/><use transform="matrix(0.05,0,0,0.05,60.95,0)" xlink:href="#aO"/></g><g id="k"><use transform="matrix(0.05,0,0,0.05,0,0)" xlink:href="#aH"/><use transform="matrix(0.05,0,0,0.05,12,0)" xlink:href="#aI"/><use transform="matrix(0.05,0,0,0.05,22,0)" xlink:href="#aJ"/><use transform="matrix(0.05,0,0,0.05,27,0)" xlink:href="#aK"/><use transform="matrix(0.05,0,0,0.05,30.950000000000003,0)" xlink:href="#aL"/><use transform="matrix(0.05,0,0,0.05,40.95,0)" xlink:href="#aM"/><use transform="matrix(0.05,0,0,0.05,50.95,0)" xlink:href="#aJ"/></g><path d="M143 4C61 4 22-44 18-125c-5-107 100-154 193-111 17 8 29 25 37 43l-32 9c-13-25-37-40-76-40-61 0-88 39-88 99 0 61 29 100 91 101 35 0 62-11 79-27v-45h-74v-28h105v86C228-13 192 4 143 4" id="aP"/><path d="M100-194c62-1 85 37 85 99 1 63-27 99-86 99S16-35 15-95c0-66 28-99 85-99zM99-20c44 1 53-31 53-75 0-43-8-75-51-75s-53 32-53 75 10 74 51 75" id="aQ"/><path d="M24 0v-261h32V0H24" id="aR"/><path d="M85-194c31 0 48 13 60 33l-1-100h32l1 261h-30c-2-10 0-23-3-31C134-8 116 4 85 4 32 4 16-35 15-94c0-66 23-100 70-100zm9 24c-40 0-46 34-46 75 0 40 6 74 45 74 42 0 51-32 51-76 0-42-9-74-50-73" id="aS"/><g id="l"><use transform="matrix(0.031481481481481485,0,0,0.031481481481481485,0,0)" xlink:href="#aP"/><use transform="matrix(0.031481481481481485,0,0,0.031481481481481485,8.814814814814817,0)" xlink:href="#aQ"/><use transform="matrix(0.031481481481481485,0,0,0.031481481481481485,15.111111111111114,0)" xlink:href="#aR"/><use transform="matrix(0.031481481481481485,0,0,0.031481481481481485,17.59814814814815,0)" xlink:href="#aS"/><use transform="matrix(0.031481481481481485,0,0,0.031481481481481485,23.89444444444445,0)" xlink:href="#aL"/><use transform="matrix(0.031481481481481485,0,0,0.031481481481481485,30.190740740740747,0)" xlink:href="#aM"/></g><path d="M233-177c-1 41-23 64-60 70L243 0h-38l-65-103H63V0H30v-248c88 3 205-21 203 71zM63-129c60-2 137 13 137-47 0-61-80-42-137-45v92" id="aT"/><path d="M96-169c-40 0-48 33-48 73s9 75 48 75c24 0 41-14 43-38l32 2c-6 37-31 61-74 61-59 0-76-41-82-99-10-93 101-131 147-64 4 7 5 14 7 22l-32 3c-4-21-16-35-41-35" id="aU"/><path d="M114-163C36-179 61-72 57 0H25l-1-190h30c1 12-1 29 2 39 6-27 23-49 58-41v29" id="aV"/><g id="m"><use transform="matrix(0.031481481481481485,0,0,0.031481481481481485,0,0)" xlink:href="#aT"/><use transform="matrix(0.031481481481481485,0,0,0.031481481481481485,8.153703703703705,0)" xlink:href="#aL"/><use transform="matrix(0.031481481481481485,0,0,0.031481481481481485,14.450000000000003,0)" xlink:href="#aU"/><use transform="matrix(0.031481481481481485,0,0,0.031481481481481485,20.11666666666667,0)" xlink:href="#aQ"/><use transform="matrix(0.031481481481481485,0,0,0.031481481481481485,26.41296296296297,0)" xlink:href="#aV"/><use transform="matrix(0.031481481481481485,0,0,0.031481481481481485,30.159259259259265,0)" xlink:href="#aS"/></g><path fill="#333" d="M33-154v-36h34v36H33zM33 0v-36h34V0H33" id="aW"/><g id="n"><use transform="matrix(0.05,0,0,0.05,0,0)" xlink:href="#ar"/><use transform="matrix(0.05,0,0,0.05,12,0)" xlink:href="#aw"/><use transform="matrix(0.05,0,0,0.05,17,0)" xlink:href="#ax"/><use transform="matrix(0.05,0,0,0.05,29.950000000000003,0)" xlink:href="#aW"/><use transform="matrix(0.05,0,0,0.05,34.95,0)" xlink:href="#az"/></g><path fill="#333" d="M212-179c-10-28-35-45-73-45-59 0-87 40-87 99 0 60 29 101 89 101 43 0 62-24 78-52l27 14C228-24 195 4 139 4 59 4 22-46 18-125c-6-104 99-153 187-111 19 9 31 26 39 46" id="aX"/><path fill="#333" d="M197 0v-115H63V0H30v-248h33v105h134v-105h34V0h-34" id="aY"/><g id="o"><use transform="matrix(0.05,0,0,0.05,0,0)" xlink:href="#aB"/><use transform="matrix(0.05,0,0,0.05,14.950000000000001,0)" xlink:href="#az"/><use transform="matrix(0.05,0,0,0.05,25.6,0)" xlink:href="#au"/><use transform="matrix(0.05,0,0,0.05,36.550000000000004,0)" xlink:href="#aX"/><use transform="matrix(0.05,0,0,0.05,49.50000000000001,0)" xlink:href="#aY"/></g><path d="M205 0l-28-72H64L36 0H1l101-248h38L239 0h-34zm-38-99l-47-123c-12 45-31 82-46 123h93" id="aZ"/><use transform="matrix(0.048148148148148155,0,0,0.048148148148148155,0,0)" xlink:href="#aZ" id="p"/><path d="M135-143c-3-34-86-38-87 0 15 53 115 12 119 90S17 21 10-45l28-5c4 36 97 45 98 0-10-56-113-15-118-90-4-57 82-63 122-42 12 7 21 19 24 35" id="ba"/><path d="M177-190C167-65 218 103 67 71c-23-6-38-20-44-43l32-5c15 47 100 32 89-28v-30C133-14 115 1 83 1 29 1 15-40 15-95c0-56 16-97 71-98 29-1 48 16 59 35 1-10 0-23 2-32h30zM94-22c36 0 50-32 50-73 0-42-14-75-50-75-39 0-46 34-46 75s6 73 46 73" id="bb"/><g id="q"><use transform="matrix(0.048148148148148155,0,0,0.048148148148148155,0,0)" xlink:href="#ba"/><use transform="matrix(0.048148148148148155,0,0,0.048148148148148155,8.666666666666668,0)" xlink:href="#aK"/><use transform="matrix(0.048148148148148155,0,0,0.048148148148148155,12.470370370370372,0)" xlink:href="#aM"/><use transform="matrix(0.048148148148148155,0,0,0.048148148148148155,22.1,0)" xlink:href="#bb"/><use transform="matrix(0.048148148148148155,0,0,0.048148148148148155,31.729629629629635,0)" xlink:href="#aR"/><use transform="matrix(0.048148148148148155,0,0,0.048148148148148155,35.53333333333334,0)" xlink:href="#aL"/></g><g id="r"><use transform="matrix(0.048148148148148155,0,0,0.048148148148148155,0,0)" xlink:href="#aH"/><use transform="matrix(0.048148148148148155,0,0,0.048148148148148155,11.555555555555557,0)" xlink:href="#aI"/><use transform="matrix(0.048148148148148155,0,0,0.048148148148148155,21.18518518518519,0)" xlink:href="#aJ"/><use transform="matrix(0.048148148148148155,0,0,0.048148148148148155,26.00000000000001,0)" xlink:href="#aK"/><use transform="matrix(0.048148148148148155,0,0,0.048148148148148155,29.803703703703714,0)" xlink:href="#aL"/><use transform="matrix(0.048148148148148155,0,0,0.048148148148148155,39.433333333333344,0)" xlink:href="#aM"/><use transform="matrix(0.048148148148148155,0,0,0.048148148148148155,49.06296296296298,0)" xlink:href="#aJ"/></g><g id="s"><use transform="matrix(0.048148148148148155,0,0,0.048148148148148155,0,0)" xlink:href="#aK"/><use transform="matrix(0.048148148148148155,0,0,0.048148148148148155,3.8037037037037043,0)" xlink:href="#ba"/></g><path d="M143 0L79-87 56-68V0H24v-261h32v163l83-92h37l-77 82L181 0h-38" id="bc"/><g id="t"><use transform="matrix(0.048148148148148155,0,0,0.048148148148148155,0,0)" xlink:href="#aR"/><use transform="matrix(0.048148148148148155,0,0,0.048148148148148155,3.8037037037037043,0)" xlink:href="#aK"/><use transform="matrix(0.048148148148148155,0,0,0.048148148148148155,7.6074074074074085,0)" xlink:href="#aM"/><use transform="matrix(0.048148148148148155,0,0,0.048148148148148155,17.23703703703704,0)" xlink:href="#bc"/><use transform="matrix(0.048148148148148155,0,0,0.048148148148148155,25.90370370370371,0)" xlink:href="#aL"/><use transform="matrix(0.048148148148148155,0,0,0.048148148148148155,35.53333333333334,0)" xlink:href="#aS"/></g><g id="u"><use transform="matrix(0.048148148148148155,0,0,0.048148148148148155,0,0)" xlink:href="#aJ"/><use transform="matrix(0.048148148148148155,0,0,0.048148148148148155,4.814814814814816,0)" xlink:href="#aQ"/></g><use transform="matrix(0.048148148148148155,0,0,0.048148148148148155,0,0)" xlink:href="#aI" id="v"/><g id="w"><use transform="matrix(0.048148148148148155,0,0,0.048148148148148155,0,0)" xlink:href="#aP"/><use transform="matrix(0.048148148148148155,0,0,0.048148148148148155,13.481481481481483,0)" xlink:href="#aQ"/><use transform="matrix(0.048148148148148155,0,0,0.048148148148148155,23.111111111111114,0)" xlink:href="#aR"/><use transform="matrix(0.048148148148148155,0,0,0.048148148148148155,26.914814814814818,0)" xlink:href="#aS"/><use transform="matrix(0.048148148148148155,0,0,0.048148148148148155,36.54444444444445,0)" xlink:href="#aL"/><use transform="matrix(0.048148148148148155,0,0,0.048148148148148155,46.174074074074085,0)" xlink:href="#aM"/></g><g id="x"><use transform="matrix(0.048148148148148155,0,0,0.048148148148148155,0,0)" xlink:href="#aT"/><use transform="matrix(0.048148148148148155,0,0,0.048148148148148155,12.470370370370372,0)" xlink:href="#aL"/><use transform="matrix(0.048148148148148155,0,0,0.048148148148148155,22.1,0)" xlink:href="#aU"/><use transform="matrix(0.048148148148148155,0,0,0.048148148148148155,30.766666666666673,0)" xlink:href="#aQ"/><use transform="matrix(0.048148148148148155,0,0,0.048148148148148155,40.3962962962963,0)" xlink:href="#aV"/><use transform="matrix(0.048148148148148155,0,0,0.048148148148148155,46.12592592592593,0)" xlink:href="#aS"/></g><g id="y"><use transform="matrix(0.048148148148148155,0,0,0.048148148148148155,0,0)" xlink:href="#aH"/><use transform="matrix(0.048148148148148155,0,0,0.048148148148148155,11.555555555555557,0)" xlink:href="#aI"/><use transform="matrix(0.048148148148148155,0,0,0.048148148148148155,21.18518518518519,0)" xlink:href="#aJ"/><use transform="matrix(0.048148148148148155,0,0,0.048148148148148155,26.00000000000001,0)" xlink:href="#aK"/><use transform="matrix(0.048148148148148155,0,0,0.048148148148148155,29.803703703703714,0)" xlink:href="#aL"/><use transform="matrix(0.048148148148148155,0,0,0.048148148148148155,39.433333333333344,0)" xlink:href="#aM"/><use transform="matrix(0.048148148148148155,0,0,0.048148148148148155,49.06296296296298,0)" xlink:href="#aJ"/></g><path fill="#333" d="M199 0l-22-63H83L61 0H9l90-248h61L250 0h-51zm-33-102l-36-108c-10 38-24 72-36 108h72" id="bd"/><path fill="#333" d="M190-63c-7 42-38 67-86 67-59 0-84-38-90-98-12-110 154-137 174-36l-49 2c-2-19-15-32-35-32-30 0-35 28-38 64-6 74 65 87 74 30" id="be"/><path fill="#333" d="M25-224v-37h50v37H25zM25 0v-190h50V0H25" id="bf"/><path fill="#333" d="M110-194c64 0 96 36 96 99 0 64-35 99-97 99-61 0-95-36-95-99 0-62 34-99 96-99zm-1 164c35 0 45-28 45-65 0-40-10-65-43-65-34 0-45 26-45 65 0 36 10 65 43 65" id="bg"/><path fill="#333" d="M135-194c87-1 58 113 63 194h-50c-7-57 23-157-34-157-59 0-34 97-39 157H25l-1-190h47c2 12-1 28 3 38 12-26 28-41 61-42" id="bh"/><g id="z"><use transform="matrix(0.05,0,0,0.05,0,0)" xlink:href="#bd"/><use transform="matrix(0.05,0,0,0.05,12.950000000000001,0)" xlink:href="#be"/><use transform="matrix(0.05,0,0,0.05,22.950000000000003,0)" xlink:href="#ai"/><use transform="matrix(0.05,0,0,0.05,28.900000000000002,0)" xlink:href="#bf"/><use transform="matrix(0.05,0,0,0.05,33.900000000000006,0)" xlink:href="#bg"/><use transform="matrix(0.05,0,0,0.05,44.85000000000001,0)" xlink:href="#bh"/></g><g id="A"><use transform="matrix(0.05,0,0,0.05,0,0)" xlink:href="#aH"/><use transform="matrix(0.05,0,0,0.05,12,0)" xlink:href="#aI"/><use transform="matrix(0.05,0,0,0.05,22,0)" xlink:href="#aJ"/><use transform="matrix(0.05,0,0,0.05,27,0)" xlink:href="#aK"/><use transform="matrix(0.05,0,0,0.05,30.950000000000003,0)" xlink:href="#aL"/><use transform="matrix(0.05,0,0,0.05,40.95,0)" xlink:href="#aM"/><use transform="matrix(0.05,0,0,0.05,50.95,0)" xlink:href="#aJ"/></g><use transform="matrix(0.05,0,0,0.05,0,0)" xlink:href="#aO" id="B"/><g id="C"><use transform="matrix(0.048148148148148155,0,0,0.048148148148148155,0,0)" xlink:href="#aH"/><use transform="matrix(0.048148148148148155,0,0,0.048148148148148155,11.555555555555557,0)" xlink:href="#aI"/><use transform="matrix(0.048148148148148155,0,0,0.048148148148148155,21.18518518518519,0)" xlink:href="#aJ"/><use transform="matrix(0.048148148148148155,0,0,0.048148148148148155,26.00000000000001,0)" xlink:href="#aK"/><use transform="matrix(0.048148148148148155,0,0,0.048148148148148155,29.803703703703714,0)" xlink:href="#aL"/><use transform="matrix(0.048148148148148155,0,0,0.048148148148148155,39.433333333333344,0)" xlink:href="#aM"/><use transform="matrix(0.048148148148148155,0,0,0.048148148148148155,49.06296296296298,0)" xlink:href="#aJ"/></g><g id="D"><use transform="matrix(0.048148148148148155,0,0,0.048148148148148155,0,0)" xlink:href="#aK"/><use transform="matrix(0.048148148148148155,0,0,0.048148148148148155,3.8037037037037043,0)" xlink:href="#ba"/></g><path d="M84 4C-5 8 30-112 23-190h32v120c0 31 7 50 39 49 72-2 45-101 50-169h31l1 190h-30c-1-10 1-25-2-33-11 22-28 36-60 37" id="bi"/><path d="M115-194c55 1 70 41 70 98S169 2 115 4C84 4 66-9 55-30l1 105H24l-1-265h31l2 30c10-21 28-34 59-34zm-8 174c40 0 45-34 45-75s-6-73-45-74c-42 0-51 32-51 76 0 43 10 73 51 73" id="bj"/><g id="E"><use transform="matrix(0.048148148148148155,0,0,0.048148148148148155,0,0)" xlink:href="#bi"/><use transform="matrix(0.048148148148148155,0,0,0.048148148148148155,9.629629629629632,0)" xlink:href="#bj"/><use transform="matrix(0.048148148148148155,0,0,0.048148148148148155,19.259259259259263,0)" xlink:href="#aS"/><use transform="matrix(0.048148148148148155,0,0,0.048148148148148155,28.888888888888893,0)" xlink:href="#aI"/><use transform="matrix(0.048148148148148155,0,0,0.048148148148148155,38.518518518518526,0)" xlink:href="#aJ"/><use transform="matrix(0.048148148148148155,0,0,0.048148148148148155,43.33333333333334,0)" xlink:href="#aL"/><use transform="matrix(0.048148148148148155,0,0,0.048148148148148155,52.96296296296297,0)" xlink:href="#aS"/></g><path d="M206 0h-36l-40-164L89 0H53L-1-190h32L70-26l43-164h34l41 164 42-164h31" id="bk"/><path d="M106-169C34-169 62-67 57 0H25v-261h32l-1 103c12-21 28-36 61-36 89 0 53 116 60 194h-32v-121c2-32-8-49-39-48" id="bl"/><g id="F"><use transform="matrix(0.048148148148148155,0,0,0.048148148148148155,0,0)" xlink:href="#bk"/><use transform="matrix(0.048148148148148155,0,0,0.048148148148148155,12.470370370370372,0)" xlink:href="#aK"/><use transform="matrix(0.048148148148148155,0,0,0.048148148148148155,16.274074074074075,0)" xlink:href="#aJ"/><use transform="matrix(0.048148148148148155,0,0,0.048148148148148155,21.088888888888892,0)" xlink:href="#bl"/></g><use transform="matrix(0.048148148148148155,0,0,0.048148148148148155,0,0)" xlink:href="#aI" id="G"/><g id="H"><use transform="matrix(0.048148148148148155,0,0,0.048148148148148155,0,0)" xlink:href="#aU"/><use transform="matrix(0.048148148148148155,0,0,0.048148148148148155,8.666666666666668,0)" xlink:href="#bl"/><use transform="matrix(0.048148148148148155,0,0,0.048148148148148155,18.296296296296298,0)" xlink:href="#aI"/><use transform="matrix(0.048148148148148155,0,0,0.048148148148148155,27.92592592592593,0)" xlink:href="#aM"/><use transform="matrix(0.048148148148148155,0,0,0.048148148148148155,37.555555555555564,0)" xlink:href="#bb"/><use transform="matrix(0.048148148148148155,0,0,0.048148148148148155,47.1851851851852,0)" xlink:href="#aL"/></g><g id="I"><use transform="matrix(0.048148148148148155,0,0,0.048148148148148155,0,0)" xlink:href="#aJ"/><use transform="matrix(0.048148148148148155,0,0,0.048148148148148155,4.814814814814816,0)" xlink:href="#aQ"/></g><g id="J"><use transform="matrix(0.048148148148148155,0,0,0.048148148148148155,0,0)" xlink:href="#aJ"/><use transform="matrix(0.048148148148148155,0,0,0.048148148148148155,4.814814814814816,0)" xlink:href="#bl"/><use transform="matrix(0.048148148148148155,0,0,0.048148148148148155,14.444444444444446,0)" xlink:href="#aL"/><use transform="matrix(0.048148148148148155,0,0,0.048148148148148155,24.074074074074076,0)" xlink:href="#aK"/><use transform="matrix(0.048148148148148155,0,0,0.048148148148148155,27.877777777777784,0)" xlink:href="#aV"/></g><path d="M141 0L90-78 38 0H4l68-98-65-92h35l48 74 47-74h35l-64 92 68 98h-35" id="bm"/><g id="K"><use transform="matrix(0.048148148148148155,0,0,0.048148148148148155,0,0)" xlink:href="#aL"/><use transform="matrix(0.048148148148148155,0,0,0.048148148148148155,9.629629629629632,0)" xlink:href="#bm"/><use transform="matrix(0.048148148148148155,0,0,0.048148148148148155,18.296296296296298,0)" xlink:href="#aJ"/><use transform="matrix(0.048148148148148155,0,0,0.048148148148148155,23.111111111111114,0)" xlink:href="#aL"/><use transform="matrix(0.048148148148148155,0,0,0.048148148148148155,32.74074074074075,0)" xlink:href="#aV"/><use transform="matrix(0.048148148148148155,0,0,0.048148148148148155,38.470370370370375,0)" xlink:href="#aM"/><use transform="matrix(0.048148148148148155,0,0,0.048148148148148155,48.10000000000001,0)" xlink:href="#aI"/><use transform="matrix(0.048148148148148155,0,0,0.048148148148148155,57.729629629629635,0)" xlink:href="#aR"/></g><path d="M30 0v-248h187v28H63v79h144v27H63v87h162V0H30" id="bn"/><path d="M33 0v-248h34V0H33" id="bo"/><path d="M30-248c118-7 216 8 213 122C240-48 200 0 122 0H30v-248zM63-27c89 8 146-16 146-99s-60-101-146-95v194" id="bp"/><g id="L"><use transform="matrix(0.048148148148148155,0,0,0.048148148148148155,0,0)" xlink:href="#bn"/><use transform="matrix(0.048148148148148155,0,0,0.048148148148148155,11.555555555555557,0)" xlink:href="#bo"/><use transform="matrix(0.048148148148148155,0,0,0.048148148148148155,16.370370370370374,0)" xlink:href="#bp"/><use transform="matrix(0.048148148148148155,0,0,0.048148148148148155,28.840740740740745,0)" xlink:href="#aN"/></g><path d="M127-220V0H93v-220H8v-28h204v28h-85" id="bq"/><g id="M"><use transform="matrix(0.048148148148148155,0,0,0.048148148148148155,0,0)" xlink:href="#bq"/><use transform="matrix(0.048148148148148155,0,0,0.048148148148148155,10.544444444444446,0)" xlink:href="#bl"/><use transform="matrix(0.048148148148148155,0,0,0.048148148148148155,20.174074074074078,0)" xlink:href="#aK"/><use transform="matrix(0.048148148148148155,0,0,0.048148148148148155,23.97777777777778,0)" xlink:href="#ba"/></g><g id="N"><use transform="matrix(0.048148148148148155,0,0,0.048148148148148155,0,0)" xlink:href="#bn"/><use transform="matrix(0.048148148148148155,0,0,0.048148148148148155,11.555555555555557,0)" xlink:href="#bo"/><use transform="matrix(0.048148148148148155,0,0,0.048148148148148155,16.370370370370374,0)" xlink:href="#bp"/></g><path d="M47-170H22l-4-78h33" id="br"/><g id="O"><use transform="matrix(0.048148148148148155,0,0,0.048148148148148155,0,0)" xlink:href="#aS"/><use transform="matrix(0.048148148148148155,0,0,0.048148148148148155,9.629629629629632,0)" xlink:href="#aQ"/><use transform="matrix(0.048148148148148155,0,0,0.048148148148148155,19.259259259259263,0)" xlink:href="#aL"/><use transform="matrix(0.048148148148148155,0,0,0.048148148148148155,28.888888888888893,0)" xlink:href="#ba"/><use transform="matrix(0.048148148148148155,0,0,0.048148148148148155,37.55555555555556,0)" xlink:href="#aM"/><use transform="matrix(0.048148148148148155,0,0,0.048148148148148155,47.18518518518519,0)" xlink:href="#br"/><use transform="matrix(0.048148148148148155,0,0,0.048148148148148155,50.45925925925927,0)" xlink:href="#aJ"/></g><path d="M210-169c-67 3-38 105-44 169h-31v-121c0-29-5-50-35-48C34-165 62-65 56 0H25l-1-190h30c1 10-1 24 2 32 10-44 99-50 107 0 11-21 27-35 58-36 85-2 47 119 55 194h-31v-121c0-29-5-49-35-48" id="bs"/><g id="P"><use transform="matrix(0.048148148148148155,0,0,0.048148148148148155,0,0)" xlink:href="#bs"/><use transform="matrix(0.048148148148148155,0,0,0.048148148148148155,14.396296296296299,0)" xlink:href="#aI"/><use transform="matrix(0.048148148148148155,0,0,0.048148148148148155,24.025925925925932,0)" xlink:href="#aJ"/><use transform="matrix(0.048148148148148155,0,0,0.048148148148148155,28.84074074074075,0)" xlink:href="#aU"/><use transform="matrix(0.048148148148148155,0,0,0.048148148148148155,37.50740740740741,0)" xlink:href="#bl"/></g><path d="M179-190L93 31C79 59 56 82 12 73V49c39 6 53-20 64-50L1-190h34L92-34l54-156h33" id="bt"/><path d="M115-194c53 0 69 39 70 98 0 66-23 100-70 100C84 3 66-7 56-30L54 0H23l1-261h32v101c10-23 28-34 59-34zm-8 174c40 0 45-34 45-75 0-40-5-75-45-74-42 0-51 32-51 76 0 43 10 73 51 73" id="bu"/><g id="Q"><use transform="matrix(0.048148148148148155,0,0,0.048148148148148155,0,0)" xlink:href="#aI"/><use transform="matrix(0.048148148148148155,0,0,0.048148148148148155,9.629629629629632,0)" xlink:href="#aM"/><use transform="matrix(0.048148148148148155,0,0,0.048148148148148155,19.259259259259263,0)" xlink:href="#bt"/><use transform="matrix(0.048148148148148155,0,0,0.048148148148148155,27.92592592592593,0)" xlink:href="#bu"/><use transform="matrix(0.048148148148148155,0,0,0.048148148148148155,37.555555555555564,0)" xlink:href="#aQ"/><use transform="matrix(0.048148148148148155,0,0,0.048148148148148155,47.1851851851852,0)" xlink:href="#aS"/><use transform="matrix(0.048148148148148155,0,0,0.048148148148148155,56.81481481481483,0)" xlink:href="#bt"/></g><g id="R"><use transform="matrix(0.048148148148148155,0,0,0.048148148148148155,0,0)" xlink:href="#aL"/><use transform="matrix(0.048148148148148155,0,0,0.048148148148148155,9.629629629629632,0)" xlink:href="#aR"/><use transform="matrix(0.048148148148148155,0,0,0.048148148148148155,13.433333333333335,0)" xlink:href="#ba"/><use transform="matrix(0.048148148148148155,0,0,0.048148148148148155,22.1,0)" xlink:href="#aL"/></g><g id="S"><use transform="matrix(0.048148148148148155,0,0,0.048148148148148155,0,0)" xlink:href="#aK"/><use transform="matrix(0.048148148148148155,0,0,0.048148148148148155,3.8037037037037043,0)" xlink:href="#aM"/></g><g id="T"><use transform="matrix(0.048148148148148155,0,0,0.048148148148148155,0,0)" xlink:href="#aJ"/><use transform="matrix(0.048148148148148155,0,0,0.048148148148148155,4.814814814814816,0)" xlink:href="#bl"/><use transform="matrix(0.048148148148148155,0,0,0.048148148148148155,14.444444444444446,0)" xlink:href="#aL"/></g><g id="U"><use transform="matrix(0.048148148148148155,0,0,0.048148148148148155,0,0)" xlink:href="#ba"/><use transform="matrix(0.048148148148148155,0,0,0.048148148148148155,8.666666666666668,0)" xlink:href="#bt"/><use transform="matrix(0.048148148148148155,0,0,0.048148148148148155,17.333333333333336,0)" xlink:href="#ba"/><use transform="matrix(0.048148148148148155,0,0,0.048148148148148155,26.000000000000004,0)" xlink:href="#aJ"/><use transform="matrix(0.048148148148148155,0,0,0.048148148148148155,30.81481481481482,0)" xlink:href="#aL"/><use transform="matrix(0.048148148148148155,0,0,0.048148148148148155,40.44444444444445,0)" xlink:href="#bs"/><use transform="matrix(0.048148148148148155,0,0,0.048148148148148155,54.84074074074075,0)" xlink:href="#aN"/></g><path d="M0 4l72-265h28L28 4H0" id="bv"/><g id="V"><use transform="matrix(0.05,0,0,0.05,0,0)" xlink:href="#aH"/><use transform="matrix(0.05,0,0,0.05,12,0)" xlink:href="#aI"/><use transform="matrix(0.05,0,0,0.05,22,0)" xlink:href="#aJ"/><use transform="matrix(0.05,0,0,0.05,27,0)" xlink:href="#aK"/><use transform="matrix(0.05,0,0,0.05,30.950000000000003,0)" xlink:href="#aL"/><use transform="matrix(0.05,0,0,0.05,40.95,0)" xlink:href="#aM"/><use transform="matrix(0.05,0,0,0.05,50.95,0)" xlink:href="#aJ"/><use transform="matrix(0.05,0,0,0.05,55.95,0)" xlink:href="#bv"/><use transform="matrix(0.05,0,0,0.05,60.95,0)" xlink:href="#aO"/></g><path fill="#333" d="M160-131c35 5 61 23 61 61C221 17 115-2 30 0v-248c76 3 177-17 177 60 0 33-19 50-47 57zm-97-11c50-1 110 9 110-42 0-47-63-36-110-37v79zm0 115c55-2 124 14 124-45 0-56-70-42-124-44v89" id="bw"/><g id="W"><use transform="matrix(0.05,0,0,0.05,0,0)" xlink:href="#ar"/><use transform="matrix(0.05,0,0,0.05,12,0)" xlink:href="#aw"/><use transform="matrix(0.05,0,0,0.05,17,0)" xlink:href="#ax"/><use transform="matrix(0.05,0,0,0.05,29.950000000000003,0)" xlink:href="#aW"/><use transform="matrix(0.05,0,0,0.05,34.95,0)" xlink:href="#bw"/></g><path fill="#333" d="M24 0v-248h195v40H76v63h132v40H76v65h150V0H24" id="bx"/><g id="X"><use transform="matrix(0.05,0,0,0.05,0,0)" xlink:href="#bx"/><use transform="matrix(0.05,0,0,0.05,12,0)" xlink:href="#bh"/><use transform="matrix(0.05,0,0,0.05,22.950000000000003,0)" xlink:href="#ag"/></g><path d="M63-220v92h138v28H63V0H30v-248h175v28H63" id="by"/><path d="M63-70H37l-4-178h34zM33 0v-35h34V0H33" id="bz"/><g id="Y"><use transform="matrix(0.048148148148148155,0,0,0.048148148148148155,0,0)" xlink:href="#by"/><use transform="matrix(0.048148148148148155,0,0,0.048148148148148155,10.544444444444446,0)" xlink:href="#aQ"/><use transform="matrix(0.048148148148148155,0,0,0.048148148148148155,20.174074074074078,0)" xlink:href="#aV"/><use transform="matrix(0.048148148148148155,0,0,0.048148148148148155,25.90370370370371,0)" xlink:href="#bu"/><use transform="matrix(0.048148148148148155,0,0,0.048148148148148155,35.53333333333334,0)" xlink:href="#aK"/><use transform="matrix(0.048148148148148155,0,0,0.048148148148148155,39.33703703703704,0)" xlink:href="#aS"/><use transform="matrix(0.048148148148148155,0,0,0.048148148148148155,48.966666666666676,0)" xlink:href="#aS"/><use transform="matrix(0.048148148148148155,0,0,0.048148148148148155,58.5962962962963,0)" xlink:href="#aL"/><use transform="matrix(0.048148148148148155,0,0,0.048148148148148155,68.22592592592594,0)" xlink:href="#aM"/><use transform="matrix(0.048148148148148155,0,0,0.048148148148148155,77.85555555555557,0)" xlink:href="#bz"/></g><g id="Z"><use transform="matrix(0.048148148148148155,0,0,0.048148148148148155,0,0)" xlink:href="#bq"/><use transform="matrix(0.048148148148148155,0,0,0.048148148148148155,10.544444444444446,0)" xlink:href="#bl"/><use transform="matrix(0.048148148148148155,0,0,0.048148148148148155,20.174074074074078,0)" xlink:href="#aL"/></g><g id="aa"><use transform="matrix(0.048148148148148155,0,0,0.048148148148148155,0,0)" xlink:href="#bi"/><use transform="matrix(0.048148148148148155,0,0,0.048148148148148155,9.629629629629632,0)" xlink:href="#bj"/><use transform="matrix(0.048148148148148155,0,0,0.048148148148148155,19.259259259259263,0)" xlink:href="#aS"/><use transform="matrix(0.048148148148148155,0,0,0.048148148148148155,28.888888888888893,0)" xlink:href="#aI"/><use transform="matrix(0.048148148148148155,0,0,0.048148148148148155,38.518518518518526,0)" xlink:href="#aJ"/><use transform="matrix(0.048148148148148155,0,0,0.048148148148148155,43.33333333333334,0)" xlink:href="#aL"/></g><g id="ab"><use transform="matrix(0.048148148148148155,0,0,0.048148148148148155,0,0)" xlink:href="#aI"/><use transform="matrix(0.048148148148148155,0,0,0.048148148148148155,9.629629629629632,0)" xlink:href="#aU"/><use transform="matrix(0.048148148148148155,0,0,0.048148148148148155,18.296296296296298,0)" xlink:href="#aU"/><use transform="matrix(0.048148148148148155,0,0,0.048148148148148155,26.962962962962965,0)" xlink:href="#aL"/><use transform="matrix(0.048148148148148155,0,0,0.048148148148148155,36.592592592592595,0)" xlink:href="#bj"/><use transform="matrix(0.048148148148148155,0,0,0.048148148148148155,46.22222222222223,0)" xlink:href="#aJ"/><use transform="matrix(0.048148148148148155,0,0,0.048148148148148155,51.037037037037045,0)" xlink:href="#aL"/><use transform="matrix(0.048148148148148155,0,0,0.048148148148148155,60.66666666666668,0)" xlink:href="#aS"/></g><g id="ac"><use transform="matrix(0.048148148148148155,0,0,0.048148148148148155,0,0)" xlink:href="#aI"/><use transform="matrix(0.048148148148148155,0,0,0.048148148148148155,9.629629629629632,0)" xlink:href="#ba"/></g><g id="ad"><use transform="matrix(0.048148148148148155,0,0,0.048148148148148155,0,0)" xlink:href="#aU"/><use transform="matrix(0.048148148148148155,0,0,0.048148148148148155,8.666666666666668,0)" xlink:href="#aQ"/><use transform="matrix(0.048148148148148155,0,0,0.048148148148148155,18.296296296296298,0)" xlink:href="#aV"/><use transform="matrix(0.048148148148148155,0,0,0.048148148148148155,24.02592592592593,0)" xlink:href="#aV"/><use transform="matrix(0.048148148148148155,0,0,0.048148148148148155,29.75555555555556,0)" xlink:href="#aL"/><use transform="matrix(0.048148148148148155,0,0,0.048148148148148155,39.38518518518519,0)" xlink:href="#aU"/><use transform="matrix(0.048148148148148155,0,0,0.048148148148148155,48.051851851851865,0)" xlink:href="#aJ"/><use transform="matrix(0.048148148148148155,0,0,0.048148148148148155,52.86666666666669,0)" xlink:href="#aK"/><use transform="matrix(0.048148148148148155,0,0,0.048148148148148155,56.67037037037039,0)" xlink:href="#aQ"/><use transform="matrix(0.048148148148148155,0,0,0.048148148148148155,66.30000000000001,0)" xlink:href="#aM"/><use transform="matrix(0.048148148148148155,0,0,0.048148148148148155,75.92962962962964,0)" xlink:href="#aN"/></g></defs></g></svg>