<svg xmlns="http://www.w3.org/2000/svg" xmlns:xlink="http://www.w3.org/1999/xlink" xmlns:lucid="lucid" width="1944" height="1102"><g transform="translate(1806 1379)" lucid:page-tab-id="0_0"><path d="M-1806.4-2518.4h3676.8v7619.2h-3676.8z" fill="#fff"/><path d="M-1720-260h3120V740h-3120z" stroke="#fff" stroke-width="2" fill="#fff"/><use xlink:href="#a" transform="matrix(1,0,0,1,-1715,-255) translate(1538.525 493.93125)"/><path d="M-1720-1360H120v1100h-1840zM-1728.28-1900H118.98v540h-1847.26z" stroke="#fff" stroke-width="2" fill="#fff"/><use xlink:href="#a" transform="matrix(1,0,0,1,-1723.2759146673782,-1895) translate(902.525 271.11875)"/><path d="M-970.8-836.7c0 33.14-26.86 60-60 60s-60-26.86-60-60c0-33.13 26.86-60 60-60s60 26.87 60 60z" stroke="#333" fill="#fff"/><use xlink:href="#b" transform="matrix(1,0,0,1,-1090.7992995867216,-896.6944444444898) translate(24.529999999999998 63.15)"/><path d="M-1110.8-936.7h88l12 12v48h-100z" stroke="#333" fill="#fff"/><path d="M-1022.8-936.22v11.53h11.52" stroke="#333" fill="#fff"/><use xlink:href="#c" transform="matrix(1,0,0,1,-1110.7992995867216,-936.6944444444898) translate(26.525 33.15)"/><path d="M-949.68-836.7h12.77c.26 0 .5-.22.5-.5 0-.27.2-.5.5-.5h12.75" stroke="#333" stroke-width="3" fill="none"/><path d="M-965.44-836.7l14.26-4.63v9.27zM-907.38-837.7l-14.27 4.64v-9.27z" stroke="#333" stroke-width="3" fill="#333"/><path d="M-917.68-1134c0-4.43 3.58-8 8-8h412.8c4.42 0 8 3.57 8 8v44c0 4.4-3.58 8-8 8h-412.8c-4.42 0-8-3.6-8-8z" stroke="#000" stroke-opacity="0" fill="#fff" fill-opacity="0"/><use xlink:href="#d" transform="matrix(1,0,0,1,-917.6780740789599,-1142.0112640786456) translate(8.161111111111097 21.366666666666667)"/><use xlink:href="#e" transform="matrix(1,0,0,1,-917.6780740789599,-1142.0112640786456) translate(66.8537037037037 21.366666666666667)"/><use xlink:href="#f" transform="matrix(1,0,0,1,-917.6780740789599,-1142.0112640786456) translate(84.1388888888889 21.366666666666667)"/><use xlink:href="#g" transform="matrix(1,0,0,1,-917.6780740789599,-1142.0112640786456) translate(151.5462962962963 21.366666666666667)"/><use xlink:href="#h" transform="matrix(1,0,0,1,-917.6780740789599,-1142.0112640786456) translate(187.07962962962964 21.366666666666667)"/><use xlink:href="#i" transform="matrix(1,0,0,1,-917.6780740789599,-1142.0112640786456) translate(201.5240740740741 21.366666666666667)"/><use xlink:href="#j" transform="matrix(1,0,0,1,-917.6780740789599,-1142.0112640786456) translate(263.15370370370374 21.366666666666667)"/><use xlink:href="#k" transform="matrix(1,0,0,1,-917.6780740789599,-1142.0112640786456) translate(282.412962962963 21.366666666666667)"/><use xlink:href="#l" transform="matrix(1,0,0,1,-917.6780740789599,-1142.0112640786456) translate(320.8351851851852 21.366666666666667)"/><use xlink:href="#m" transform="matrix(1,0,0,1,-917.6780740789599,-1142.0112640786456) translate(387.18333333333334 21.366666666666667)"/><use xlink:href="#n" transform="matrix(1,0,0,1,-917.6780740789599,-1142.0112640786456) translate(23.038888888888863 42.16666666666667)"/><use xlink:href="#o" transform="matrix(1,0,0,1,-917.6780740789599,-1142.0112640786456) translate(60.498148148148125 42.16666666666667)"/><use xlink:href="#p" transform="matrix(1,0,0,1,-917.6780740789599,-1142.0112640786456) translate(88.37592592592591 42.16666666666667)"/><use xlink:href="#q" transform="matrix(1,0,0,1,-917.6780740789599,-1142.0112640786456) translate(145.19074074074075 42.16666666666667)"/><use xlink:href="#r" transform="matrix(1,0,0,1,-917.6780740789599,-1142.0112640786456) translate(197.1425925925926 42.16666666666667)"/><use xlink:href="#s" transform="matrix(1,0,0,1,-917.6780740789599,-1142.0112640786456) translate(267.43888888888887 42.16666666666667)"/><use xlink:href="#t" transform="matrix(1,0,0,1,-917.6780740789599,-1142.0112640786456) translate(303.98333333333335 42.16666666666667)"/><use xlink:href="#u" transform="matrix(1,0,0,1,-917.6780740789599,-1142.0112640786456) translate(322.2314814814815 42.16666666666667)"/><use xlink:href="#v" transform="matrix(1,0,0,1,-917.6780740789599,-1142.0112640786456) translate(351.12037037037044 42.16666666666667)"/><path d="M-1591.3-1004.2c0-4.4 3.58-8 8-8h372.77c4.42 0 8 3.6 8 8v344c0 4.42-3.58 8-8 8h-372.77c-4.42 0-8-3.58-8-8z" stroke="#333" fill="#fff"/><path d="M-1440.07-756.7c0 33.14-26.86 60-60 60s-60-26.86-60-60c0-33.13 26.86-60 60-60s60 26.87 60 60z" stroke="#333" fill="#fff"/><use xlink:href="#w" transform="matrix(1,0,0,1,-1560.0704203399628,-816.6944444444898) translate(24.529999999999998 63.15)"/><path d="M-1472.96-1033.6c0-4.42 3.58-8 8-8h136.1c4.4 0 8 3.58 8 8v27.3c0 4.43-3.6 8-8 8h-136.1c-4.42 0-8-3.57-8-8z" stroke="#000" stroke-opacity="0" fill="#ffeca9"/><use xlink:href="#x" transform="matrix(1,0,0,1,-1472.9621548980729,-1041.5972222221085) translate(31.099999999999994 25.4)"/><use xlink:href="#y" transform="matrix(1,0,0,1,-1472.9621548980729,-1041.5972222221085) translate(77 25.4)"/><path d="M-1580.07-856.7h88l12 12v48h-100z" stroke="#333" fill="#fff"/><path d="M-1492.07-856.22v11.53h11.52" stroke="#333" fill="#fff"/><use xlink:href="#z" transform="matrix(1,0,0,1,-1580.0704203399628,-856.6944444444898) translate(26.525 33.15)"/><path d="M-1237.6-886.7c0 33.14-26.87 60-60 60-33.15 0-60-26.86-60-60 0-33.13 26.85-60 60-60 33.13 0 60 26.87 60 60z" stroke="#333" fill="#fff"/><use xlink:href="#A" transform="matrix(1,0,0,1,-1357.6120381307132,-946.6944444444898) translate(31.53 63.15)"/><path d="M-1377.6-986.7h88l12 12v48h-100z" stroke="#333" fill="#fff"/><path d="M-1289.6-986.22v11.53h11.5" stroke="#333" fill="#fff"/><use xlink:href="#z" transform="matrix(1,0,0,1,-1377.6120381307132,-986.6944444444898) translate(26.525 33.15)"/><path d="M-1397.34-768.6l-.45 3.4-1.33 3.25-2.16 2.8-2.8 2.17-3.24 1.34-3.4.45h-8.2v-3h8l2.82-.36 2.5-1.05 2.2-1.68 1.67-2.18 1.04-2.5.36-2.83v-42.1h3zm18.6-116.6h-8l-2.82.38-2.52 1.04-2.18 1.67-1.67 2.17-1.04 2.5-.37 2.83v42.1h-3v-42.3l.45-3.4 1.35-3.24 2.15-2.8 2.8-2.16 3.25-1.35 3.4-.44h8.22zM-1420.45-752.06l-14.27-4.63 14.27-4.63z" fill="#333"/><path d="M-1418.95-750l-20.62-6.7 20.62-6.7zm-10.9-6.7l7.9 2.58v-5.15zM-1362.97-886.7l-14.26 4.64v-9.27z" fill="#333"/><path d="M-1358.1-886.7l-20.63 6.7v-13.4zm-17.63 2.58l7.9-2.57-7.9-2.57z" fill="#333"/><use xlink:href="#B" transform="matrix(1,0,0,1,-1430.066229235338,-832.4944444444898) translate(0.004999999999999005 14.4)"/><path d="M-1397.34-768.6l-.45 3.4-1.33 3.25-2.16 2.8-2.8 2.17-3.24 1.34-3.4.45h-8.2v-3h8l2.82-.36 2.5-1.04 2.2-1.68 1.67-2.18 1.04-2.5.36-2.83v-42.1h3zm18.6-116.6h-8l-2.82.38-2.52 1.04-2.18 1.67-1.67 2.17-1.04 2.5-.37 2.83v42.1h-3v-42.3l.45-3.4 1.35-3.24 2.15-2.8 2.8-2.16 3.25-1.35 3.4-.44h8.22zM-1362.97-886.7l-14.26 4.64v-9.27z" fill="#333"/><path d="M-1358.1-886.7l-20.63 6.7v-13.4zm-17.63 2.58l7.9-2.57-7.9-2.57zM-1420.45-752.06l-14.27-4.63 14.27-4.63z" fill="#333"/><path d="M-1418.95-750l-20.62-6.7 20.62-6.7zm-10.9-6.7l7.9 2.58v-5.15z" fill="#333"/><path d="M-902.03-1009.7c0-4.4 3.58-8 8-8h372.77c4.42 0 8 3.6 8 8v344c0 4.42-3.58 8-8 8h-372.77c-4.42 0-8-3.58-8-8z" stroke="#333" fill="#fff"/><path d="M-750.8-762.2c0 33.14-26.86 60-60 60s-60-26.86-60-60c0-33.13 26.86-60 60-60s60 26.87 60 60z" stroke="#333" fill="#fff"/><use xlink:href="#C" transform="matrix(1,0,0,1,-870.799299586721,-822.1944444443989) translate(24.529999999999998 63.15)"/><use xlink:href="#D" transform="matrix(1,0,0,1,-870.799299586721,-822.1944444443989) translate(85.47999999999999 63.15)"/><path d="M-777.1-1052c0-4.42 3.58-8 8-8h131.64c4.42 0 8 3.58 8 8v29.8c0 4.4-3.58 8-8 8H-769.1c-4.42 0-8-3.6-8-8z" stroke="#000" stroke-opacity="0" fill="#ffeca9"/><use xlink:href="#E" transform="matrix(1,0,0,1,-777.1008134578423,-1060) translate(46.099999999999994 25.9)"/><path d="M-890.8-862.2h88l12 12v48h-100z" stroke="#333" fill="#fff"/><path d="M-802.8-861.72v11.53h11.52" stroke="#333" fill="#fff"/><use xlink:href="#z" transform="matrix(1,0,0,1,-890.799299586721,-862.1944444443989) translate(26.525 33.15)"/><path d="M-548.34-892.2c0 33.14-26.86 60-60 60s-60-26.86-60-60c0-33.13 26.86-60 60-60s60 26.87 60 60z" stroke="#333" fill="#fff"/><use xlink:href="#A" transform="matrix(1,0,0,1,-668.3409173774712,-952.1944444443989) translate(31.53 63.15)"/><path d="M-688.34-992.2h88l12 12v48h-100z" stroke="#333" fill="#fff"/><path d="M-600.34-991.72v11.53h11.52" stroke="#333" fill="#fff"/><use xlink:href="#z" transform="matrix(1,0,0,1,-688.3409173774713,-992.1944444443989) translate(26.525 33.15)"/><path d="M-708.07-774.1l-.45 3.4-1.34 3.25-2.15 2.8-2.82 2.17-3.24 1.34-3.4.45h-8.22v-3h8l2.83-.36 2.5-1.05 2.2-1.68 1.67-2.18 1.04-2.5.37-2.83v-42.1h3zm18.6-116.6h-8l-2.82.38-2.5 1.04-2.2 1.67-1.66 2.17-1.04 2.5-.37 2.83v42.1h-3v-42.3l.45-3.4 1.34-3.24 2.15-2.8 2.8-2.16 3.25-1.35 3.4-.44h8.22zM-731.18-757.56l-14.26-4.63 14.26-4.63z" fill="#333"/><path d="M-729.68-755.5l-20.62-6.7 20.62-6.7zm-10.9-6.7l7.9 2.58v-5.15zM-673.7-892.2l-14.26 4.64v-9.27z" fill="#333"/><path d="M-668.84-892.2l-20.62 6.7v-13.4zm-17.62 2.58l7.9-2.57-7.9-2.57z" fill="#333"/><use xlink:href="#B" transform="matrix(1,0,0,1,-740.7951084820961,-837.9944444443988) translate(0.004999999999999005 14.4)"/><path d="M-708.07-774.1l-.45 3.4-1.34 3.25-2.16 2.8-2.8 2.17-3.25 1.34-3.4.45h-8.2v-3h8l2.82-.36 2.5-1.04 2.2-1.68 1.67-2.18 1.04-2.5.37-2.83v-42.1h3zm18.6-116.6h-8l-2.82.38-2.5 1.04-2.2 1.67-1.66 2.17-1.04 2.5-.37 2.83v42.1h-3v-42.3l.45-3.4 1.34-3.24 2.15-2.8 2.8-2.16 3.25-1.35 3.4-.44h8.22zM-673.7-892.2l-14.26 4.64v-9.27z" fill="#333"/><path d="M-668.84-892.2l-20.62 6.7v-13.4zm-17.62 2.58l7.9-2.57-7.9-2.57zM-731.18-757.56l-14.26-4.63 14.26-4.63z" fill="#333"/><path d="M-729.68-755.5l-20.62-6.7 20.62-6.7zm-10.9-6.7l7.9 2.58v-5.15z" fill="#333"/><path d="M-347.64-1292c0-4.42 3.58-8 8-8h384c4.42 0 8 3.58 8 8v44c0 4.42-3.58 8-8 8h-384c-4.42 0-8-3.58-8-8z" stroke="#000" stroke-opacity="0" fill="#fff" fill-opacity="0"/><use xlink:href="#F" transform="matrix(1,0,0,1,-347.63787619318373,-1300) translate(158.6648148148148 32.61666666666667)"/><path d="M-355.18-1191.94c0-4.42 3.58-8 8-8H25.6c4.4 0 8 3.58 8 8v344c0 4.4-3.6 8-8 8H-347.2c-4.42 0-8-3.6-8-8z" stroke="#333" fill="#ff8f80"/><path d="M-203.96-944.44c0 33.13-26.86 60-60 60-33.13 0-60-26.87-60-60 0-33.14 26.87-60 60-60 33.14 0 60 26.86 60 60z" stroke="#333" fill="#fff"/><use xlink:href="#C" transform="matrix(1,0,0,1,-323.95551292978485,-1004.4444444444443) translate(24.529999999999998 63.15)"/><use xlink:href="#D" transform="matrix(1,0,0,1,-323.95551292978485,-1004.4444444444443) translate(85.47999999999999 63.15)"/><path d="M-343.96-1044.44h88l12 12v48h-100z" stroke="#333" fill="#fff"/><path d="M-255.96-1043.97v11.53h11.53" stroke="#333" fill="#fff"/><use xlink:href="#z" transform="matrix(1,0,0,1,-343.95551292978485,-1044.4444444444443) translate(26.525 33.15)"/><path d="M-1.5-1074.44c0 33.13-26.86 60-60 60-33.13 0-60-26.87-60-60 0-33.14 26.87-60 60-60 33.14 0 60 26.86 60 60z" stroke="#333" fill="#fff"/><use xlink:href="#A" transform="matrix(1,0,0,1,-121.49713072053532,-1134.4444444444443) translate(31.53 63.15)"/><path d="M-141.5-1174.44h88l12 12v48h-100z" stroke="#333" fill="#fff"/><path d="M-53.5-1173.97v11.53h11.53" stroke="#333" fill="#fff"/><use xlink:href="#z" transform="matrix(1,0,0,1,-141.49713072053532,-1174.4444444444443) translate(26.525 33.15)"/><path d="M-161.23-956.35l-.44 3.4-1.35 3.25-2.15 2.8-2.8 2.17-3.25 1.34-3.4.46h-8.22v-3h8.02l2.82-.37 2.5-1.06 2.2-1.67 1.66-2.18 1.04-2.52.37-2.82v-42.1h3zm18.6-116.6h-8l-2.82.38-2.5 1.04-2.2 1.67-1.67 2.18-1.04 2.5-.37 2.83v42.1h-3v-42.3l.45-3.4 1.34-3.24 2.16-2.8 2.8-2.15 3.25-1.35 3.4-.44h8.2zM-184.34-939.8l-14.26-4.64 14.26-4.64z" fill="#333"/><path d="M-182.84-937.74l-20.62-6.7 20.62-6.7zm-10.9-6.7l7.9 2.57v-5.15zM-126.85-1074.44l-14.27 4.63v-9.28z" fill="#333"/><path d="M-122-1074.44l-20.62 6.7v-13.4zm-17.62 2.57l7.9-2.57-7.9-2.58z" fill="#333"/><use xlink:href="#B" transform="matrix(1,0,0,1,-193.9513218251601,-1020.2444444444443) translate(0.004999999999999005 14.4)"/><path d="M-161.23-956.35l-.44 3.4-1.35 3.25-2.15 2.8-2.8 2.17-3.25 1.34-3.4.46h-8.22v-3h8.02l2.82-.37 2.5-1.05 2.2-1.68 1.66-2.18 1.04-2.52.37-2.82v-42.1h3zm18.6-116.6h-8l-2.82.38-2.5 1.04-2.2 1.67-1.67 2.18-1.04 2.5-.37 2.83v42.1h-3v-42.3l.45-3.4 1.34-3.24 2.16-2.8 2.8-2.15 3.25-1.35 3.4-.44h8.2zM-126.85-1074.44l-14.27 4.63v-9.28z" fill="#333"/><path d="M-122-1074.44l-20.62 6.7v-13.4zm-17.62 2.57l7.9-2.57-7.9-2.58zM-184.34-939.8l-14.26-4.64 14.26-4.64z" fill="#333"/><path d="M-182.84-937.74l-20.62-6.7 20.62-6.7zm-10.9-6.7l7.9 2.57v-5.15z" fill="#333"/><path d="M-367.13-784.2c0-4.4 3.58-8 8-8h384c4.4 0 8 3.6 8 8v44c0 4.42-3.6 8-8 8h-384c-4.42 0-8-3.58-8-8z" stroke="#000" stroke-opacity="0" fill="#fff" fill-opacity="0"/><use xlink:href="#G" transform="matrix(1,0,0,1,-367.1333148128888,-792.1944444443989) translate(24.403703703703684 32.61666666666667)"/><use xlink:href="#H" transform="matrix(1,0,0,1,-367.1333148128888,-792.1944444443989) translate(59.02222222222221 32.61666666666667)"/><use xlink:href="#j" transform="matrix(1,0,0,1,-367.1333148128888,-792.1944444443989) translate(116.80000000000001 32.61666666666667)"/><use xlink:href="#I" transform="matrix(1,0,0,1,-367.1333148128888,-792.1944444443989) translate(136.05925925925928 32.61666666666667)"/><use xlink:href="#e" transform="matrix(1,0,0,1,-367.1333148128888,-792.1944444443989) translate(169.71481481481484 32.61666666666667)"/><use xlink:href="#J" transform="matrix(1,0,0,1,-367.1333148128888,-792.1944444443989) translate(187.00000000000003 32.61666666666667)"/><use xlink:href="#K" transform="matrix(1,0,0,1,-367.1333148128888,-792.1944444443989) translate(262.11111111111114 32.61666666666667)"/><use xlink:href="#h" transform="matrix(1,0,0,1,-367.1333148128888,-792.1944444443989) translate(285.22222222222223 32.61666666666667)"/><use xlink:href="#L" transform="matrix(1,0,0,1,-367.1333148128888,-792.1944444443989) translate(299.6666666666667 32.61666666666667)"/><path d="M-353.06-694.2c0-4.4 3.58-8 8-8H27.7c4.43 0 8 3.6 8 8v344c0 4.42-3.57 8-8 8h-372.76c-4.42 0-8-3.58-8-8z" stroke="#333" fill="#c7e8ac"/><path d="M-195.9-454.44c0 33.13-26.87 60-60 60-33.14 0-60-26.87-60-60 0-33.14 26.86-60 60-60 33.13 0 60 26.86 60 60z" stroke="#333" fill="#fff"/><use xlink:href="#C" transform="matrix(1,0,0,1,-315.904123708264,-514.4444444444443) translate(24.529999999999998 63.15)"/><use xlink:href="#D" transform="matrix(1,0,0,1,-315.904123708264,-514.4444444444443) translate(85.47999999999999 63.15)"/><path d="M-335.9-554.44h88l12 12v48h-100z" stroke="#333" fill="#fff"/><path d="M-247.9-553.97v11.53h11.52" stroke="#333" fill="#fff"/><use xlink:href="#c" transform="matrix(1,0,0,1,-335.904123708264,-554.4444444444443) translate(26.525 33.15)"/><path d="M6.55-584.44c0 33.13-26.86 60-60 60-33.13 0-60-26.87-60-60 0-33.14 26.87-60 60-60 33.14 0 60 26.86 60 60z" stroke="#333" fill="#fff"/><g><use xlink:href="#A" transform="matrix(1,0,0,1,-113.4457414990145,-644.4444444444443) translate(31.53 63.15)"/></g><path d="M-151.86-680h88l12 12v48h-100z" stroke="#333" fill="#fff"/><path d="M-63.86-679.52V-668h11.53" stroke="#333" fill="#fff"/><g><use xlink:href="#c" transform="matrix(1,0,0,1,-151.85608854144118,-680) translate(26.525 33.15)"/></g><path d="M-153.17-466.35l-.45 3.4-1.35 3.25-2.15 2.8-2.8 2.17-3.25 1.34-3.4.46h-8.2v-3h8l2.82-.37 2.5-1.06 2.2-1.67 1.66-2.18 1.06-2.52.37-2.82v-42.1h3zm18.6-116.6h-8l-2.83.38-2.5 1.04-2.2 1.67-1.66 2.18-1.05 2.5-.37 2.83v42.1h-3v-42.3l.44-3.4 1.35-3.24 2.15-2.8 2.8-2.15 3.25-1.35 3.4-.44h8.2zM-176.28-449.8l-14.27-4.64 14.27-4.64z" fill="#333"/><path d="M-174.78-447.74l-20.62-6.7 20.62-6.7zm-10.92-6.7l7.92 2.57v-5.15zM-118.8-584.44l-14.27 4.63v-9.28z" fill="#333"/><path d="M-113.95-584.44l-20.62 6.7v-13.4zm-17.62 2.57l7.92-2.57-7.92-2.58z" fill="#333"/><g><use xlink:href="#B" transform="matrix(1,0,0,1,-185.8999326036393,-530.2444444444443) translate(0.004999999999999005 14.4)"/></g><path d="M-153.17-466.35l-.45 3.4-1.35 3.25-2.15 2.8-2.8 2.17-3.25 1.34-3.4.46h-8.2v-3h8l2.82-.37 2.5-1.05 2.2-1.68 1.66-2.18 1.06-2.52.37-2.82v-42.1h3zm18.6-116.6h-8l-2.83.38-2.5 1.04-2.2 1.67-1.66 2.18-1.05 2.5-.37 2.83v42.1h-3v-42.3l.44-3.4 1.35-3.24 2.15-2.8 2.8-2.15 3.25-1.35 3.4-.44h8.2zM-118.8-584.44l-14.27 4.63v-9.28z" fill="#333"/><path d="M-113.95-584.44l-20.62 6.7v-13.4zm-17.62 2.57l7.92-2.57-7.92-2.58zM-176.28-449.8l-14.27-4.64 14.27-4.64z" fill="#333"/><path d="M-174.78-447.74l-20.62-6.7 20.62-6.7zm-10.92-6.7l7.92 2.57v-5.15z" fill="#333"/><path d="M-1706.48-1332c0-4.42 3.58-8 8-8h210.4c4.43 0 8 3.58 8 8v44c0 4.42-3.57 8-8 8h-210.4c-4.42 0-8-3.58-8-8z" stroke="#000" stroke-opacity="0" fill="#fff" fill-opacity="0"/><g><use xlink:href="#M" transform="matrix(1,0,0,1,-1706.4817820830763,-1340) translate(13.393888888888876 19.555555555555557)"/><use xlink:href="#N" transform="matrix(1,0,0,1,-1706.4817820830763,-1340) translate(102.75191358024692 19.555555555555557)"/><use xlink:href="#O" transform="matrix(1,0,0,1,-1706.4817820830763,-1340) translate(154.28895061728394 19.555555555555557)"/><use xlink:href="#P" transform="matrix(1,0,0,1,-1706.4817820830763,-1340) translate(99.42475308641976 48.88888888888889)"/></g><path d="M-224.7-1232c0-4.42 3.57-8 8-8h138.13c4.42 0 8 3.58 8 8v32.33c0 4.4-3.58 8-8 8H-216.7c-4.43 0-8-3.6-8-8z" stroke="#000" stroke-opacity="0" fill="#ffeca9"/><g><use xlink:href="#Q" transform="matrix(1,0,0,1,-224.7107325563121,-1240) translate(35.599999999999994 26.65)"/><use xlink:href="#y" transform="matrix(1,0,0,1,-224.7107325563121,-1240) translate(74.5 26.65)"/></g><path d="M-227.65-732c0-4.42 3.58-8 8-8h144.02c4.42 0 8 3.58 8 8v31.8c0 4.42-3.58 8-8 8h-144.02c-4.42 0-8-3.58-8-8z" stroke="#000" stroke-opacity="0" fill="#ffeca9"/><g><use xlink:href="#Q" transform="matrix(1,0,0,1,-227.64867046320467,-740) translate(38.599999999999994 26.4)"/><use xlink:href="#y" transform="matrix(1,0,0,1,-227.64867046320467,-740) translate(77.5 26.4)"/></g><path d="M-1504.82-1104.44h240v60h-240z" stroke="#000" stroke-opacity="0" stroke-width="2" fill="#fff" fill-opacity="0"/><g><use xlink:href="#R" transform="matrix(1,0,0,1,-1499.8183111945555,-1099.4444444444443) translate(1.6499999999999915 17.525)"/><use xlink:href="#S" transform="matrix(1,0,0,1,-1499.8183111945555,-1099.4444444444443) translate(17.64999999999999 17.525)"/><use xlink:href="#T" transform="matrix(1,0,0,1,-1499.8183111945555,-1099.4444444444443) translate(69.55 17.525)"/><use xlink:href="#U" transform="matrix(1,0,0,1,-1499.8183111945555,-1099.4444444444443) translate(128.5 17.525)"/><use xlink:href="#V" transform="matrix(1,0,0,1,-1499.8183111945555,-1099.4444444444443) translate(146.45 17.525)"/><use xlink:href="#W" transform="matrix(1,0,0,1,-1499.8183111945555,-1099.4444444444443) translate(198.35000000000002 17.525)"/><use xlink:href="#X" transform="matrix(1,0,0,1,-1499.8183111945555,-1099.4444444444443) translate(218.35000000000002 17.525)"/><use xlink:href="#Y" transform="matrix(1,0,0,1,-1499.8183111945555,-1099.4444444444443) translate(87.525 39.125)"/></g><path d="M-1452.52-1274.24c0-4.42 3.58-8 8-8h19.64c4.42 0 8 3.58 8 8v17.34c0 4.42-3.58 8-8 8h-19.64c-4.42 0-8-3.58-8-8z" stroke="#333" fill="#ff8f80"/><path d="M-1416.88-1287.78h339.1v44.43h-339.1z" stroke="#000" stroke-opacity="0" stroke-width="2" fill="#fff" fill-opacity="0"/><g><use xlink:href="#Z" transform="matrix(1,0,0,1,-1411.8759789723013,-1282.784722222219) translate(16.150000000000006 20.9625)"/><use xlink:href="#aa" transform="matrix(1,0,0,1,-1411.8759789723013,-1282.784722222219) translate(31.650000000000006 20.9625)"/></g><path d="M-1489.37-1225.54H-1043v44.43h-446.37z" stroke="#000" stroke-opacity="0" stroke-width="2" fill="#fff" fill-opacity="0"/><g><use xlink:href="#Z" transform="matrix(1,0,0,1,-1484.367379155674,-1220.5416666666295) translate(80.60000000000002 20.9625)"/><use xlink:href="#ab" transform="matrix(1,0,0,1,-1484.367379155674,-1220.5416666666295) translate(96.10000000000002 20.9625)"/></g><path d="M-1452.52-1212c0-4.42 3.58-8 8-8h19.64c4.42 0 8 3.58 8 8v17.35c0 4.42-3.58 8-8 8h-19.64c-4.42 0-8-3.58-8-8z" stroke="#333" fill="#c7e8ac"/><defs><path d="M127-220V0H93v-220H8v-28h204v28h-85" id="ac"/><path d="M100-194c63 0 86 42 84 106H49c0 40 14 67 53 68 26 1 43-12 49-29l28 8c-11 28-37 45-77 45C44 4 14-33 15-96c1-61 26-98 85-98zm52 81c6-60-76-77-97-28-3 7-6 17-6 28h103" id="ad"/><path d="M141 0L90-78 38 0H4l68-98-65-92h35l48 74 47-74h35l-64 92 68 98h-35" id="ae"/><path d="M59-47c-2 24 18 29 38 22v24C64 9 27 4 27-40v-127H5v-23h24l9-43h21v43h35v23H59v120" id="af"/><g id="a"><use transform="matrix(0.05,0,0,0.05,0,0)" xlink:href="#ac"/><use transform="matrix(0.05,0,0,0.05,8.950000000000001,0)" xlink:href="#ad"/><use transform="matrix(0.05,0,0,0.05,18.950000000000003,0)" xlink:href="#ae"/><use transform="matrix(0.05,0,0,0.05,27.950000000000003,0)" xlink:href="#af"/></g><path d="M30-248c87 1 191-15 191 75 0 78-77 80-158 76V0H30v-248zm33 125c57 0 124 11 124-50 0-59-68-47-124-48v98" id="ag"/><path d="M141-36C126-15 110 5 73 4 37 3 15-17 15-53c-1-64 63-63 125-63 3-35-9-54-41-54-24 1-41 7-42 31l-33-3c5-37 33-52 76-52 45 0 72 20 72 64v82c-1 20 7 32 28 27v20c-31 9-61-2-59-35zM48-53c0 20 12 33 32 33 41-3 63-29 60-74-43 2-92-5-92 41" id="ah"/><path d="M24-231v-30h32v30H24zM24 0v-190h32V0H24" id="ai"/><path d="M117-194c89-4 53 116 60 194h-32v-121c0-31-8-49-39-48C34-167 62-67 57 0H25l-1-190h30c1 10-1 24 2 32 11-22 29-35 61-36" id="aj"/><path d="M0 4l72-265h28L28 4H0" id="ak"/><path d="M27 0v-27h64v-190l-56 39v-29l58-41h29v221h61V0H27" id="al"/><g id="b"><use transform="matrix(0.05,0,0,0.05,0,0)" xlink:href="#ag"/><use transform="matrix(0.05,0,0,0.05,12,0)" xlink:href="#ah"/><use transform="matrix(0.05,0,0,0.05,22,0)" xlink:href="#af"/><use transform="matrix(0.05,0,0,0.05,27,0)" xlink:href="#ai"/><use transform="matrix(0.05,0,0,0.05,30.950000000000003,0)" xlink:href="#ad"/><use transform="matrix(0.05,0,0,0.05,40.95,0)" xlink:href="#aj"/><use transform="matrix(0.05,0,0,0.05,50.95,0)" xlink:href="#af"/><use transform="matrix(0.05,0,0,0.05,55.95,0)" xlink:href="#ak"/><use transform="matrix(0.05,0,0,0.05,60.95,0)" xlink:href="#al"/></g><path fill="#333" d="M30 0v-248h187v28H63v79h144v27H63v87h162V0H30" id="am"/><path fill="#333" d="M33 0v-248h34V0H33" id="an"/><path fill="#333" d="M30-248c118-7 216 8 213 122C240-48 200 0 122 0H30v-248zM63-27c89 8 146-16 146-99s-60-101-146-95v194" id="ao"/><path fill="#333" d="M33-154v-36h34v36H33zM33 0v-36h34V0H33" id="ap"/><path fill="#333" d="M160-131c35 5 61 23 61 61C221 17 115-2 30 0v-248c76 3 177-17 177 60 0 33-19 50-47 57zm-97-11c50-1 110 9 110-42 0-47-63-36-110-37v79zm0 115c55-2 124 14 124-45 0-56-70-42-124-44v89" id="aq"/><g id="c"><use transform="matrix(0.05,0,0,0.05,0,0)" xlink:href="#am"/><use transform="matrix(0.05,0,0,0.05,12,0)" xlink:href="#an"/><use transform="matrix(0.05,0,0,0.05,17,0)" xlink:href="#ao"/><use transform="matrix(0.05,0,0,0.05,29.950000000000003,0)" xlink:href="#ap"/><use transform="matrix(0.05,0,0,0.05,34.95,0)" xlink:href="#aq"/></g><g id="d"><use transform="matrix(0.048148148148148155,0,0,0.048148148148148155,0,0)" xlink:href="#ag"/><use transform="matrix(0.048148148148148155,0,0,0.048148148148148155,11.555555555555557,0)" xlink:href="#ah"/><use transform="matrix(0.048148148148148155,0,0,0.048148148148148155,21.18518518518519,0)" xlink:href="#af"/><use transform="matrix(0.048148148148148155,0,0,0.048148148148148155,26.00000000000001,0)" xlink:href="#ai"/><use transform="matrix(0.048148148148148155,0,0,0.048148148148148155,29.803703703703714,0)" xlink:href="#ad"/><use transform="matrix(0.048148148148148155,0,0,0.048148148148148155,39.433333333333344,0)" xlink:href="#aj"/><use transform="matrix(0.048148148148148155,0,0,0.048148148148148155,49.06296296296298,0)" xlink:href="#af"/></g><path d="M135-143c-3-34-86-38-87 0 15 53 115 12 119 90S17 21 10-45l28-5c4 36 97 45 98 0-10-56-113-15-118-90-4-57 82-63 122-42 12 7 21 19 24 35" id="ar"/><g id="e"><use transform="matrix(0.048148148148148155,0,0,0.048148148148148155,0,0)" xlink:href="#ai"/><use transform="matrix(0.048148148148148155,0,0,0.048148148148148155,3.8037037037037043,0)" xlink:href="#ar"/></g><path d="M84 4C-5 8 30-112 23-190h32v120c0 31 7 50 39 49 72-2 45-101 50-169h31l1 190h-30c-1-10 1-25-2-33-11 22-28 36-60 37" id="as"/><path d="M115-194c55 1 70 41 70 98S169 2 115 4C84 4 66-9 55-30l1 105H24l-1-265h31l2 30c10-21 28-34 59-34zm-8 174c40 0 45-34 45-75s-6-73-45-74c-42 0-51 32-51 76 0 43 10 73 51 73" id="at"/><path d="M85-194c31 0 48 13 60 33l-1-100h32l1 261h-30c-2-10 0-23-3-31C134-8 116 4 85 4 32 4 16-35 15-94c0-66 23-100 70-100zm9 24c-40 0-46 34-46 75 0 40 6 74 45 74 42 0 51-32 51-76 0-42-9-74-50-73" id="au"/><g id="f"><use transform="matrix(0.048148148148148155,0,0,0.048148148148148155,0,0)" xlink:href="#as"/><use transform="matrix(0.048148148148148155,0,0,0.048148148148148155,9.629629629629632,0)" xlink:href="#at"/><use transform="matrix(0.048148148148148155,0,0,0.048148148148148155,19.259259259259263,0)" xlink:href="#au"/><use transform="matrix(0.048148148148148155,0,0,0.048148148148148155,28.888888888888893,0)" xlink:href="#ah"/><use transform="matrix(0.048148148148148155,0,0,0.048148148148148155,38.518518518518526,0)" xlink:href="#af"/><use transform="matrix(0.048148148148148155,0,0,0.048148148148148155,43.33333333333334,0)" xlink:href="#ad"/><use transform="matrix(0.048148148148148155,0,0,0.048148148148148155,52.96296296296297,0)" xlink:href="#au"/></g><path d="M206 0h-36l-40-164L89 0H53L-1-190h32L70-26l43-164h34l41 164 42-164h31" id="av"/><path d="M106-169C34-169 62-67 57 0H25v-261h32l-1 103c12-21 28-36 61-36 89 0 53 116 60 194h-32v-121c2-32-8-49-39-48" id="aw"/><g id="g"><use transform="matrix(0.048148148148148155,0,0,0.048148148148148155,0,0)" xlink:href="#av"/><use transform="matrix(0.048148148148148155,0,0,0.048148148148148155,12.470370370370372,0)" xlink:href="#ai"/><use transform="matrix(0.048148148148148155,0,0,0.048148148148148155,16.274074074074075,0)" xlink:href="#af"/><use transform="matrix(0.048148148148148155,0,0,0.048148148148148155,21.088888888888892,0)" xlink:href="#aw"/></g><use transform="matrix(0.048148148148148155,0,0,0.048148148148148155,0,0)" xlink:href="#ah" id="h"/><path d="M96-169c-40 0-48 33-48 73s9 75 48 75c24 0 41-14 43-38l32 2c-6 37-31 61-74 61-59 0-76-41-82-99-10-93 101-131 147-64 4 7 5 14 7 22l-32 3c-4-21-16-35-41-35" id="ax"/><path d="M177-190C167-65 218 103 67 71c-23-6-38-20-44-43l32-5c15 47 100 32 89-28v-30C133-14 115 1 83 1 29 1 15-40 15-95c0-56 16-97 71-98 29-1 48 16 59 35 1-10 0-23 2-32h30zM94-22c36 0 50-32 50-73 0-42-14-75-50-75-39 0-46 34-46 75s6 73 46 73" id="ay"/><g id="i"><use transform="matrix(0.048148148148148155,0,0,0.048148148148148155,0,0)" xlink:href="#ax"/><use transform="matrix(0.048148148148148155,0,0,0.048148148148148155,8.666666666666668,0)" xlink:href="#aw"/><use transform="matrix(0.048148148148148155,0,0,0.048148148148148155,18.296296296296298,0)" xlink:href="#ah"/><use transform="matrix(0.048148148148148155,0,0,0.048148148148148155,27.92592592592593,0)" xlink:href="#aj"/><use transform="matrix(0.048148148148148155,0,0,0.048148148148148155,37.555555555555564,0)" xlink:href="#ay"/><use transform="matrix(0.048148148148148155,0,0,0.048148148148148155,47.1851851851852,0)" xlink:href="#ad"/></g><path d="M100-194c62-1 85 37 85 99 1 63-27 99-86 99S16-35 15-95c0-66 28-99 85-99zM99-20c44 1 53-31 53-75 0-43-8-75-51-75s-53 32-53 75 10 74 51 75" id="az"/><g id="j"><use transform="matrix(0.048148148148148155,0,0,0.048148148148148155,0,0)" xlink:href="#af"/><use transform="matrix(0.048148148148148155,0,0,0.048148148148148155,4.814814814814816,0)" xlink:href="#az"/></g><path d="M114-163C36-179 61-72 57 0H25l-1-190h30c1 12-1 29 2 39 6-27 23-49 58-41v29" id="aA"/><g id="k"><use transform="matrix(0.048148148148148155,0,0,0.048148148148148155,0,0)" xlink:href="#af"/><use transform="matrix(0.048148148148148155,0,0,0.048148148148148155,4.814814814814816,0)" xlink:href="#aw"/><use transform="matrix(0.048148148148148155,0,0,0.048148148148148155,14.444444444444446,0)" xlink:href="#ad"/><use transform="matrix(0.048148148148148155,0,0,0.048148148148148155,24.074074074074076,0)" xlink:href="#ai"/><use transform="matrix(0.048148148148148155,0,0,0.048148148148148155,27.877777777777784,0)" xlink:href="#aA"/></g><path d="M24 0v-261h32V0H24" id="aB"/><g id="l"><use transform="matrix(0.048148148148148155,0,0,0.048148148148148155,0,0)" xlink:href="#ad"/><use transform="matrix(0.048148148148148155,0,0,0.048148148148148155,9.629629629629632,0)" xlink:href="#ae"/><use transform="matrix(0.048148148148148155,0,0,0.048148148148148155,18.296296296296298,0)" xlink:href="#af"/><use transform="matrix(0.048148148148148155,0,0,0.048148148148148155,23.111111111111114,0)" xlink:href="#ad"/><use transform="matrix(0.048148148148148155,0,0,0.048148148148148155,32.74074074074075,0)" xlink:href="#aA"/><use transform="matrix(0.048148148148148155,0,0,0.048148148148148155,38.470370370370375,0)" xlink:href="#aj"/><use transform="matrix(0.048148148148148155,0,0,0.048148148148148155,48.10000000000001,0)" xlink:href="#ah"/><use transform="matrix(0.048148148148148155,0,0,0.048148148148148155,57.729629629629635,0)" xlink:href="#aB"/></g><path d="M30 0v-248h187v28H63v79h144v27H63v87h162V0H30" id="aC"/><path d="M33 0v-248h34V0H33" id="aD"/><path d="M30-248c118-7 216 8 213 122C240-48 200 0 122 0H30v-248zM63-27c89 8 146-16 146-99s-60-101-146-95v194" id="aE"/><path d="M33 0v-38h34V0H33" id="aF"/><g id="m"><use transform="matrix(0.048148148148148155,0,0,0.048148148148148155,0,0)" xlink:href="#aC"/><use transform="matrix(0.048148148148148155,0,0,0.048148148148148155,11.555555555555557,0)" xlink:href="#aD"/><use transform="matrix(0.048148148148148155,0,0,0.048148148148148155,16.370370370370374,0)" xlink:href="#aE"/><use transform="matrix(0.048148148148148155,0,0,0.048148148148148155,28.840740740740745,0)" xlink:href="#aF"/></g><g id="n"><use transform="matrix(0.048148148148148155,0,0,0.048148148148148155,0,0)" xlink:href="#ac"/><use transform="matrix(0.048148148148148155,0,0,0.048148148148148155,10.544444444444446,0)" xlink:href="#aw"/><use transform="matrix(0.048148148148148155,0,0,0.048148148148148155,20.174074074074078,0)" xlink:href="#ai"/><use transform="matrix(0.048148148148148155,0,0,0.048148148148148155,23.97777777777778,0)" xlink:href="#ar"/></g><g id="o"><use transform="matrix(0.048148148148148155,0,0,0.048148148148148155,0,0)" xlink:href="#ad"/><use transform="matrix(0.048148148148148155,0,0,0.048148148148148155,9.629629629629632,0)" xlink:href="#ai"/><use transform="matrix(0.048148148148148155,0,0,0.048148148148148155,13.433333333333335,0)" xlink:href="#au"/></g><g id="p"><use transform="matrix(0.048148148148148155,0,0,0.048148148148148155,0,0)" xlink:href="#au"/><use transform="matrix(0.048148148148148155,0,0,0.048148148148148155,9.629629629629632,0)" xlink:href="#az"/><use transform="matrix(0.048148148148148155,0,0,0.048148148148148155,19.259259259259263,0)" xlink:href="#ad"/><use transform="matrix(0.048148148148148155,0,0,0.048148148148148155,28.888888888888893,0)" xlink:href="#ar"/><use transform="matrix(0.048148148148148155,0,0,0.048148148148148155,37.55555555555556,0)" xlink:href="#aj"/><use transform="matrix(0.048148148148148155,0,0,0.048148148148148155,47.18518518518519,0)" xlink:href="#af"/></g><path d="M210-169c-67 3-38 105-44 169h-31v-121c0-29-5-50-35-48C34-165 62-65 56 0H25l-1-190h30c1 10-1 24 2 32 10-44 99-50 107 0 11-21 27-35 58-36 85-2 47 119 55 194h-31v-121c0-29-5-49-35-48" id="aG"/><g id="q"><use transform="matrix(0.048148148148148155,0,0,0.048148148148148155,0,0)" xlink:href="#aG"/><use transform="matrix(0.048148148148148155,0,0,0.048148148148148155,14.396296296296299,0)" xlink:href="#ah"/><use transform="matrix(0.048148148148148155,0,0,0.048148148148148155,24.025925925925932,0)" xlink:href="#af"/><use transform="matrix(0.048148148148148155,0,0,0.048148148148148155,28.84074074074075,0)" xlink:href="#ax"/><use transform="matrix(0.048148148148148155,0,0,0.048148148148148155,37.50740740740741,0)" xlink:href="#aw"/></g><path d="M179-190L93 31C79 59 56 82 12 73V49c39 6 53-20 64-50L1-190h34L92-34l54-156h33" id="aH"/><path d="M115-194c53 0 69 39 70 98 0 66-23 100-70 100C84 3 66-7 56-30L54 0H23l1-261h32v101c10-23 28-34 59-34zm-8 174c40 0 45-34 45-75 0-40-5-75-45-74-42 0-51 32-51 76 0 43 10 73 51 73" id="aI"/><g id="r"><use transform="matrix(0.048148148148148155,0,0,0.048148148148148155,0,0)" xlink:href="#ah"/><use transform="matrix(0.048148148148148155,0,0,0.048148148148148155,9.629629629629632,0)" xlink:href="#aj"/><use transform="matrix(0.048148148148148155,0,0,0.048148148148148155,19.259259259259263,0)" xlink:href="#aH"/><use transform="matrix(0.048148148148148155,0,0,0.048148148148148155,27.92592592592593,0)" xlink:href="#aI"/><use transform="matrix(0.048148148148148155,0,0,0.048148148148148155,37.555555555555564,0)" xlink:href="#az"/><use transform="matrix(0.048148148148148155,0,0,0.048148148148148155,47.1851851851852,0)" xlink:href="#au"/><use transform="matrix(0.048148148148148155,0,0,0.048148148148148155,56.81481481481483,0)" xlink:href="#aH"/></g><g id="s"><use transform="matrix(0.048148148148148155,0,0,0.048148148148148155,0,0)" xlink:href="#ad"/><use transform="matrix(0.048148148148148155,0,0,0.048148148148148155,9.629629629629632,0)" xlink:href="#aB"/><use transform="matrix(0.048148148148148155,0,0,0.048148148148148155,13.433333333333335,0)" xlink:href="#ar"/><use transform="matrix(0.048148148148148155,0,0,0.048148148148148155,22.1,0)" xlink:href="#ad"/></g><g id="t"><use transform="matrix(0.048148148148148155,0,0,0.048148148148148155,0,0)" xlink:href="#ai"/><use transform="matrix(0.048148148148148155,0,0,0.048148148148148155,3.8037037037037043,0)" xlink:href="#aj"/></g><g id="u"><use transform="matrix(0.048148148148148155,0,0,0.048148148148148155,0,0)" xlink:href="#af"/><use transform="matrix(0.048148148148148155,0,0,0.048148148148148155,4.814814814814816,0)" xlink:href="#aw"/><use transform="matrix(0.048148148148148155,0,0,0.048148148148148155,14.444444444444446,0)" xlink:href="#ad"/></g><g id="v"><use transform="matrix(0.048148148148148155,0,0,0.048148148148148155,0,0)" xlink:href="#ar"/><use transform="matrix(0.048148148148148155,0,0,0.048148148148148155,8.666666666666668,0)" xlink:href="#aH"/><use transform="matrix(0.048148148148148155,0,0,0.048148148148148155,17.333333333333336,0)" xlink:href="#ar"/><use transform="matrix(0.048148148148148155,0,0,0.048148148148148155,26.000000000000004,0)" xlink:href="#af"/><use transform="matrix(0.048148148148148155,0,0,0.048148148148148155,30.81481481481482,0)" xlink:href="#ad"/><use transform="matrix(0.048148148148148155,0,0,0.048148148148148155,40.44444444444445,0)" xlink:href="#aG"/></g><g id="w"><use transform="matrix(0.05,0,0,0.05,0,0)" xlink:href="#ag"/><use transform="matrix(0.05,0,0,0.05,12,0)" xlink:href="#ah"/><use transform="matrix(0.05,0,0,0.05,22,0)" xlink:href="#af"/><use transform="matrix(0.05,0,0,0.05,27,0)" xlink:href="#ai"/><use transform="matrix(0.05,0,0,0.05,30.950000000000003,0)" xlink:href="#ad"/><use transform="matrix(0.05,0,0,0.05,40.95,0)" xlink:href="#aj"/><use transform="matrix(0.05,0,0,0.05,50.95,0)" xlink:href="#af"/><use transform="matrix(0.05,0,0,0.05,55.95,0)" xlink:href="#aF"/><use transform="matrix(0.05,0,0,0.05,60.95,0)" xlink:href="#al"/></g><path fill="#333" d="M169-182c-1-43-94-46-97-3 18 66 151 10 154 114 3 95-165 93-204 36-6-8-10-19-12-30l50-8c3 46 112 56 116 5-17-69-150-10-154-114-4-87 153-88 188-35 5 8 8 18 10 28" id="aJ"/><path fill="#333" d="M115-3C79 11 28 4 28-45v-112H4v-33h27l15-45h31v45h36v33H77v99c-1 23 16 31 38 25v30" id="aK"/><path fill="#333" d="M133-34C117-15 103 5 69 4 32 3 11-16 11-54c-1-60 55-63 116-61 1-26-3-47-28-47-18 1-26 9-28 27l-52-2c7-38 36-58 82-57s74 22 75 68l1 82c-1 14 12 18 25 15v27c-30 8-71 5-69-32zm-48 3c29 0 43-24 42-57-32 0-66-3-65 30 0 17 8 27 23 27" id="aL"/><path fill="#333" d="M135-150c-39-12-60 13-60 57V0H25l-1-190h47c2 13-1 29 3 40 6-28 27-53 61-41v41" id="aM"/><g id="x"><use transform="matrix(0.05,0,0,0.05,0,0)" xlink:href="#aJ"/><use transform="matrix(0.05,0,0,0.05,12,0)" xlink:href="#aK"/><use transform="matrix(0.05,0,0,0.05,17.95,0)" xlink:href="#aL"/><use transform="matrix(0.05,0,0,0.05,27.950000000000003,0)" xlink:href="#aM"/><use transform="matrix(0.05,0,0,0.05,34.95,0)" xlink:href="#aK"/></g><path fill="#333" d="M185-48c-13 30-37 53-82 52C43 2 14-33 14-96s30-98 90-98c62 0 83 45 84 108H66c0 31 8 55 39 56 18 0 30-7 34-22zm-45-69c5-46-57-63-70-21-2 6-4 13-4 21h74" id="aN"/><g id="y"><use transform="matrix(0.05,0,0,0.05,0,0)" xlink:href="#aJ"/><use transform="matrix(0.05,0,0,0.05,12,0)" xlink:href="#aK"/><use transform="matrix(0.05,0,0,0.05,17.95,0)" xlink:href="#aL"/><use transform="matrix(0.05,0,0,0.05,27.950000000000003,0)" xlink:href="#aK"/><use transform="matrix(0.05,0,0,0.05,33.9,0)" xlink:href="#aN"/></g><path fill="#333" d="M205 0l-28-72H64L36 0H1l101-248h38L239 0h-34zm-38-99l-47-123c-12 45-31 82-46 123h93" id="aO"/><g id="z"><use transform="matrix(0.05,0,0,0.05,0,0)" xlink:href="#am"/><use transform="matrix(0.05,0,0,0.05,12,0)" xlink:href="#an"/><use transform="matrix(0.05,0,0,0.05,17,0)" xlink:href="#ao"/><use transform="matrix(0.05,0,0,0.05,29.950000000000003,0)" xlink:href="#ap"/><use transform="matrix(0.05,0,0,0.05,34.95,0)" xlink:href="#aO"/></g><g id="A"><use transform="matrix(0.05,0,0,0.05,0,0)" xlink:href="#ag"/><use transform="matrix(0.05,0,0,0.05,12,0)" xlink:href="#ad"/><use transform="matrix(0.05,0,0,0.05,22,0)" xlink:href="#aA"/><use transform="matrix(0.05,0,0,0.05,27.950000000000003,0)" xlink:href="#ar"/><use transform="matrix(0.05,0,0,0.05,36.95,0)" xlink:href="#az"/><use transform="matrix(0.05,0,0,0.05,46.95,0)" xlink:href="#aj"/></g><path fill="#333" d="M240 0l2-218c-23 76-54 145-80 218h-23L58-218 59 0H30v-248h44l77 211c21-75 51-140 76-211h43V0h-30" id="aP"/><path fill="#333" d="M127-220V0H93v-220H8v-28h204v28h-85" id="aQ"/><path fill="#333" d="M212-179c-10-28-35-45-73-45-59 0-87 40-87 99 0 60 29 101 89 101 43 0 62-24 78-52l27 14C228-24 195 4 139 4 59 4 22-46 18-125c-6-104 99-153 187-111 19 9 31 26 39 46" id="aR"/><path fill="#333" d="M197 0v-115H63V0H30v-248h33v105h134v-105h34V0h-34" id="aS"/><g id="B"><use transform="matrix(0.05,0,0,0.05,0,0)" xlink:href="#aP"/><use transform="matrix(0.05,0,0,0.05,14.950000000000001,0)" xlink:href="#aO"/><use transform="matrix(0.05,0,0,0.05,25.6,0)" xlink:href="#aQ"/><use transform="matrix(0.05,0,0,0.05,36.550000000000004,0)" xlink:href="#aR"/><use transform="matrix(0.05,0,0,0.05,49.50000000000001,0)" xlink:href="#aS"/></g><g id="C"><use transform="matrix(0.05,0,0,0.05,0,0)" xlink:href="#ag"/><use transform="matrix(0.05,0,0,0.05,12,0)" xlink:href="#ah"/><use transform="matrix(0.05,0,0,0.05,22,0)" xlink:href="#af"/><use transform="matrix(0.05,0,0,0.05,27,0)" xlink:href="#ai"/><use transform="matrix(0.05,0,0,0.05,30.950000000000003,0)" xlink:href="#ad"/><use transform="matrix(0.05,0,0,0.05,40.95,0)" xlink:href="#aj"/><use transform="matrix(0.05,0,0,0.05,50.95,0)" xlink:href="#af"/></g><use transform="matrix(0.05,0,0,0.05,0,0)" xlink:href="#al" id="D"/><path fill="#333" d="M199 0l-22-63H83L61 0H9l90-248h61L250 0h-51zm-33-102l-36-108c-10 38-24 72-36 108h72" id="aT"/><path fill="#333" d="M190-63c-7 42-38 67-86 67-59 0-84-38-90-98-12-110 154-137 174-36l-49 2c-2-19-15-32-35-32-30 0-35 28-38 64-6 74 65 87 74 30" id="aU"/><path fill="#333" d="M25-224v-37h50v37H25zM25 0v-190h50V0H25" id="aV"/><path fill="#333" d="M110-194c64 0 96 36 96 99 0 64-35 99-97 99-61 0-95-36-95-99 0-62 34-99 96-99zm-1 164c35 0 45-28 45-65 0-40-10-65-43-65-34 0-45 26-45 65 0 36 10 65 43 65" id="aW"/><path fill="#333" d="M135-194c87-1 58 113 63 194h-50c-7-57 23-157-34-157-59 0-34 97-39 157H25l-1-190h47c2 12-1 28 3 38 12-26 28-41 61-42" id="aX"/><g id="E"><use transform="matrix(0.05,0,0,0.05,0,0)" xlink:href="#aT"/><use transform="matrix(0.05,0,0,0.05,12.950000000000001,0)" xlink:href="#aU"/><use transform="matrix(0.05,0,0,0.05,22.950000000000003,0)" xlink:href="#aK"/><use transform="matrix(0.05,0,0,0.05,28.900000000000002,0)" xlink:href="#aV"/><use transform="matrix(0.05,0,0,0.05,33.900000000000006,0)" xlink:href="#aW"/><use transform="matrix(0.05,0,0,0.05,44.85000000000001,0)" xlink:href="#aX"/></g><path d="M63-220v92h138v28H63V0H30v-248h175v28H63" id="aY"/><path d="M63-70H37l-4-178h34zM33 0v-35h34V0H33" id="aZ"/><g id="F"><use transform="matrix(0.048148148148148155,0,0,0.048148148148148155,0,0)" xlink:href="#aY"/><use transform="matrix(0.048148148148148155,0,0,0.048148148148148155,10.544444444444446,0)" xlink:href="#az"/><use transform="matrix(0.048148148148148155,0,0,0.048148148148148155,20.174074074074078,0)" xlink:href="#aA"/><use transform="matrix(0.048148148148148155,0,0,0.048148148148148155,25.90370370370371,0)" xlink:href="#aI"/><use transform="matrix(0.048148148148148155,0,0,0.048148148148148155,35.53333333333334,0)" xlink:href="#ai"/><use transform="matrix(0.048148148148148155,0,0,0.048148148148148155,39.33703703703704,0)" xlink:href="#au"/><use transform="matrix(0.048148148148148155,0,0,0.048148148148148155,48.966666666666676,0)" xlink:href="#au"/><use transform="matrix(0.048148148148148155,0,0,0.048148148148148155,58.5962962962963,0)" xlink:href="#ad"/><use transform="matrix(0.048148148148148155,0,0,0.048148148148148155,68.22592592592594,0)" xlink:href="#aj"/><use transform="matrix(0.048148148148148155,0,0,0.048148148148148155,77.85555555555557,0)" xlink:href="#aZ"/></g><g id="G"><use transform="matrix(0.048148148148148155,0,0,0.048148148148148155,0,0)" xlink:href="#ac"/><use transform="matrix(0.048148148148148155,0,0,0.048148148148148155,10.544444444444446,0)" xlink:href="#aw"/><use transform="matrix(0.048148148148148155,0,0,0.048148148148148155,20.174074074074078,0)" xlink:href="#ad"/></g><g id="H"><use transform="matrix(0.048148148148148155,0,0,0.048148148148148155,0,0)" xlink:href="#as"/><use transform="matrix(0.048148148148148155,0,0,0.048148148148148155,9.629629629629632,0)" xlink:href="#at"/><use transform="matrix(0.048148148148148155,0,0,0.048148148148148155,19.259259259259263,0)" xlink:href="#au"/><use transform="matrix(0.048148148148148155,0,0,0.048148148148148155,28.888888888888893,0)" xlink:href="#ah"/><use transform="matrix(0.048148148148148155,0,0,0.048148148148148155,38.518518518518526,0)" xlink:href="#af"/><use transform="matrix(0.048148148148148155,0,0,0.048148148148148155,43.33333333333334,0)" xlink:href="#ad"/></g><g id="I"><use transform="matrix(0.048148148148148155,0,0,0.048148148148148155,0,0)" xlink:href="#aC"/><use transform="matrix(0.048148148148148155,0,0,0.048148148148148155,11.555555555555557,0)" xlink:href="#aD"/><use transform="matrix(0.048148148148148155,0,0,0.048148148148148155,16.370370370370374,0)" xlink:href="#aE"/></g><g id="J"><use transform="matrix(0.048148148148148155,0,0,0.048148148148148155,0,0)" xlink:href="#ah"/><use transform="matrix(0.048148148148148155,0,0,0.048148148148148155,9.629629629629632,0)" xlink:href="#ax"/><use transform="matrix(0.048148148148148155,0,0,0.048148148148148155,18.296296296296298,0)" xlink:href="#ax"/><use transform="matrix(0.048148148148148155,0,0,0.048148148148148155,26.962962962962965,0)" xlink:href="#ad"/><use transform="matrix(0.048148148148148155,0,0,0.048148148148148155,36.592592592592595,0)" xlink:href="#at"/><use transform="matrix(0.048148148148148155,0,0,0.048148148148148155,46.22222222222223,0)" xlink:href="#af"/><use transform="matrix(0.048148148148148155,0,0,0.048148148148148155,51.037037037037045,0)" xlink:href="#ad"/><use transform="matrix(0.048148148148148155,0,0,0.048148148148148155,60.66666666666668,0)" xlink:href="#au"/></g><g id="K"><use transform="matrix(0.048148148148148155,0,0,0.048148148148148155,0,0)" xlink:href="#ah"/><use transform="matrix(0.048148148148148155,0,0,0.048148148148148155,9.629629629629632,0)" xlink:href="#ar"/></g><g id="L"><use transform="matrix(0.048148148148148155,0,0,0.048148148148148155,0,0)" xlink:href="#ax"/><use transform="matrix(0.048148148148148155,0,0,0.048148148148148155,8.666666666666668,0)" xlink:href="#az"/><use transform="matrix(0.048148148148148155,0,0,0.048148148148148155,18.296296296296298,0)" xlink:href="#aA"/><use transform="matrix(0.048148148148148155,0,0,0.048148148148148155,24.02592592592593,0)" xlink:href="#ad"/><use transform="matrix(0.048148148148148155,0,0,0.048148148148148155,33.65555555555556,0)" xlink:href="#aA"/><use transform="matrix(0.048148148148148155,0,0,0.048148148148148155,39.385185185185186,0)" xlink:href="#ax"/><use transform="matrix(0.048148148148148155,0,0,0.048148148148148155,48.05185185185185,0)" xlink:href="#af"/><use transform="matrix(0.048148148148148155,0,0,0.048148148148148155,52.86666666666666,0)" xlink:href="#ai"/><use transform="matrix(0.048148148148148155,0,0,0.048148148148148155,56.67037037037037,0)" xlink:href="#az"/><use transform="matrix(0.048148148148148155,0,0,0.048148148148148155,66.3,0)" xlink:href="#aj"/></g><path fill="#333" d="M238-95c0 69-44 99-111 99C63 4 22-25 22-93v-155h51v151c-1 38 19 59 55 60 90 1 49-130 58-211h52v153" id="ba"/><path fill="#333" d="M135-194c53 0 70 44 70 98 0 56-19 98-73 100-31 1-45-17-59-34 3 33 2 69 2 105H25l-1-265h48c2 10 0 23 3 31 11-24 29-35 60-35zM114-30c33 0 39-31 40-66 0-38-9-64-40-64-56 0-55 130 0 130" id="bb"/><path fill="#333" d="M88-194c31-1 46 15 58 34l-1-101h50l1 261h-48c-2-10 0-23-3-31C134-8 116 4 84 4 32 4 16-41 15-95c0-56 19-97 73-99zm17 164c33 0 40-30 41-66 1-37-9-64-41-64s-38 30-39 65c0 43 13 65 39 65" id="bc"/><g id="M"><use transform="matrix(0.06790123456790124,0,0,0.06790123456790124,0,0)" xlink:href="#ba"/><use transform="matrix(0.06790123456790124,0,0,0.06790123456790124,17.58641975308642,0)" xlink:href="#bb"/><use transform="matrix(0.06790123456790124,0,0,0.06790123456790124,32.45679012345679,0)" xlink:href="#bc"/><use transform="matrix(0.06790123456790124,0,0,0.06790123456790124,47.327160493827165,0)" xlink:href="#aL"/><use transform="matrix(0.06790123456790124,0,0,0.06790123456790124,60.90740740740741,0)" xlink:href="#aK"/><use transform="matrix(0.06790123456790124,0,0,0.06790123456790124,68.98765432098766,0)" xlink:href="#aN"/></g><path fill="#333" d="M137-138c1-29-70-34-71-4 15 46 118 7 119 86 1 83-164 76-172 9l43-7c4 19 20 25 44 25 33 8 57-30 24-41C81-84 22-81 20-136c-2-80 154-74 161-7" id="bd"/><g id="N"><use transform="matrix(0.06790123456790124,0,0,0.06790123456790124,0,0)" xlink:href="#ba"/><use transform="matrix(0.06790123456790124,0,0,0.06790123456790124,17.58641975308642,0)" xlink:href="#bd"/><use transform="matrix(0.06790123456790124,0,0,0.06790123456790124,31.16666666666667,0)" xlink:href="#aN"/></g><path fill="#333" d="M67-125c0 53 21 87 73 88 37 1 54-22 65-47l45 17C233-25 199 4 140 4 58 4 20-42 15-125 8-235 124-281 211-232c18 10 29 29 36 50l-46 12c-8-25-30-41-62-41-52 0-71 34-72 86" id="be"/><g id="O"><use transform="matrix(0.06790123456790124,0,0,0.06790123456790124,0,0)" xlink:href="#be"/><use transform="matrix(0.06790123456790124,0,0,0.06790123456790124,17.58641975308642,0)" xlink:href="#aL"/><use transform="matrix(0.06790123456790124,0,0,0.06790123456790124,31.16666666666667,0)" xlink:href="#bd"/><use transform="matrix(0.06790123456790124,0,0,0.06790123456790124,44.74691358024692,0)" xlink:href="#aN"/></g><path fill="#333" d="M160-152l-12 59h37v26h-43L128 0h-28l14-67H60L46 0H20l13-67H6v-26h33l13-59H15v-26h42l15-67h27l-15 67h54l15-67h27l-14 67h28v26h-34zm-81 0L66-93h55l12-59H79" id="bf"/><path fill="#333" d="M182-182c0 78-84 86-111 141h115V0H12c-6-101 99-100 120-180 1-22-12-31-33-32-23 0-32 14-35 34l-49-3c5-45 32-70 84-70 51 0 83 22 83 69" id="bg"/><g id="P"><use transform="matrix(0.06790123456790124,0,0,0.06790123456790124,0,0)" xlink:href="#bf"/><use transform="matrix(0.06790123456790124,0,0,0.06790123456790124,13.580246913580249,0)" xlink:href="#bg"/></g><path fill="#333" d="M24 0v-248h195v40H76v63h132v40H76v65h150V0H24" id="bh"/><g id="Q"><use transform="matrix(0.05,0,0,0.05,0,0)" xlink:href="#bh"/><use transform="matrix(0.05,0,0,0.05,12,0)" xlink:href="#aX"/><use transform="matrix(0.05,0,0,0.05,22.950000000000003,0)" xlink:href="#bc"/></g><use transform="matrix(0.05,0,0,0.05,0,0)" xlink:href="#aO" id="R"/><path fill="#333" d="M135-143c-3-34-86-38-87 0 15 53 115 12 119 90S17 21 10-45l28-5c4 36 97 45 98 0-10-56-113-15-118-90-4-57 82-63 122-42 12 7 21 19 24 35" id="bi"/><path fill="#333" d="M24-231v-30h32v30H24zM24 0v-190h32V0H24" id="bj"/><path fill="#333" d="M117-194c89-4 53 116 60 194h-32v-121c0-31-8-49-39-48C34-167 62-67 57 0H25l-1-190h30c1 10-1 24 2 32 11-22 29-35 61-36" id="bk"/><path fill="#333" d="M177-190C167-65 218 103 67 71c-23-6-38-20-44-43l32-5c15 47 100 32 89-28v-30C133-14 115 1 83 1 29 1 15-40 15-95c0-56 16-97 71-98 29-1 48 16 59 35 1-10 0-23 2-32h30zM94-22c36 0 50-32 50-73 0-42-14-75-50-75-39 0-46 34-46 75s6 73 46 73" id="bl"/><path fill="#333" d="M24 0v-261h32V0H24" id="bm"/><path fill="#333" d="M100-194c63 0 86 42 84 106H49c0 40 14 67 53 68 26 1 43-12 49-29l28 8c-11 28-37 45-77 45C44 4 14-33 15-96c1-61 26-98 85-98zm52 81c6-60-76-77-97-28-3 7-6 17-6 28h103" id="bn"/><g id="S"><use transform="matrix(0.05,0,0,0.05,0,0)" xlink:href="#bi"/><use transform="matrix(0.05,0,0,0.05,9,0)" xlink:href="#bj"/><use transform="matrix(0.05,0,0,0.05,12.949999999999998,0)" xlink:href="#bk"/><use transform="matrix(0.05,0,0,0.05,22.95,0)" xlink:href="#bl"/><use transform="matrix(0.05,0,0,0.05,32.95,0)" xlink:href="#bm"/><use transform="matrix(0.05,0,0,0.05,36.900000000000006,0)" xlink:href="#bn"/></g><path fill="#333" d="M115-194c55 1 70 41 70 98S169 2 115 4C84 4 66-9 55-30l1 105H24l-1-265h31l2 30c10-21 28-34 59-34zm-8 174c40 0 45-34 45-75s-6-73-45-74c-42 0-51 32-51 76 0 43 10 73 51 73" id="bo"/><path fill="#333" d="M141-36C126-15 110 5 73 4 37 3 15-17 15-53c-1-64 63-63 125-63 3-35-9-54-41-54-24 1-41 7-42 31l-33-3c5-37 33-52 76-52 45 0 72 20 72 64v82c-1 20 7 32 28 27v20c-31 9-61-2-59-35zM48-53c0 20 12 33 32 33 41-3 63-29 60-74-43 2-92-5-92 41" id="bp"/><path fill="#333" d="M59-47c-2 24 18 29 38 22v24C64 9 27 4 27-40v-127H5v-23h24l9-43h21v43h35v23H59v120" id="bq"/><g id="T"><use transform="matrix(0.05,0,0,0.05,0,0)" xlink:href="#bo"/><use transform="matrix(0.05,0,0,0.05,10,0)" xlink:href="#bp"/><use transform="matrix(0.05,0,0,0.05,20,0)" xlink:href="#bq"/><use transform="matrix(0.05,0,0,0.05,25,0)" xlink:href="#bj"/><use transform="matrix(0.05,0,0,0.05,28.950000000000003,0)" xlink:href="#bn"/><use transform="matrix(0.05,0,0,0.05,38.95,0)" xlink:href="#bk"/><use transform="matrix(0.05,0,0,0.05,48.95,0)" xlink:href="#bq"/></g><g id="U"><use transform="matrix(0.05,0,0,0.05,0,0)" xlink:href="#bj"/><use transform="matrix(0.05,0,0,0.05,3.95,0)" xlink:href="#bi"/></g><path fill="#333" d="M143 0L79-87 56-68V0H24v-261h32v163l83-92h37l-77 82L181 0h-38" id="br"/><path fill="#333" d="M85-194c31 0 48 13 60 33l-1-100h32l1 261h-30c-2-10 0-23-3-31C134-8 116 4 85 4 32 4 16-35 15-94c0-66 23-100 70-100zm9 24c-40 0-46 34-46 75 0 40 6 74 45 74 42 0 51-32 51-76 0-42-9-74-50-73" id="bs"/><g id="V"><use transform="matrix(0.05,0,0,0.05,0,0)" xlink:href="#bm"/><use transform="matrix(0.05,0,0,0.05,3.95,0)" xlink:href="#bj"/><use transform="matrix(0.05,0,0,0.05,7.9,0)" xlink:href="#bk"/><use transform="matrix(0.05,0,0,0.05,17.9,0)" xlink:href="#br"/><use transform="matrix(0.05,0,0,0.05,26.899999999999995,0)" xlink:href="#bn"/><use transform="matrix(0.05,0,0,0.05,36.9,0)" xlink:href="#bs"/></g><path fill="#333" d="M100-194c62-1 85 37 85 99 1 63-27 99-86 99S16-35 15-95c0-66 28-99 85-99zM99-20c44 1 53-31 53-75 0-43-8-75-51-75s-53 32-53 75 10 74 51 75" id="bt"/><g id="W"><use transform="matrix(0.05,0,0,0.05,0,0)" xlink:href="#bq"/><use transform="matrix(0.05,0,0,0.05,5,0)" xlink:href="#bt"/></g><use transform="matrix(0.05,0,0,0.05,0,0)" xlink:href="#bp" id="X"/><path fill="#333" d="M114-163C36-179 61-72 57 0H25l-1-190h30c1 12-1 29 2 39 6-27 23-49 58-41v29" id="bu"/><g id="Y"><use transform="matrix(0.05,0,0,0.05,0,0)" xlink:href="#bo"/><use transform="matrix(0.05,0,0,0.05,10,0)" xlink:href="#bn"/><use transform="matrix(0.05,0,0,0.05,20,0)" xlink:href="#bu"/><use transform="matrix(0.05,0,0,0.05,25.950000000000003,0)" xlink:href="#bi"/><use transform="matrix(0.05,0,0,0.05,34.95,0)" xlink:href="#bt"/><use transform="matrix(0.05,0,0,0.05,44.95,0)" xlink:href="#bk"/></g><path d="M18-150v-26h174v26H18zm0 90v-26h174v26H18" id="bv"/><use transform="matrix(0.05,0,0,0.05,0,0)" xlink:href="#bv" id="Z"/><path d="M233-177c-1 41-23 64-60 70L243 0h-38l-65-103H63V0H30v-248c88 3 205-21 203 71zM63-129c60-2 137 13 137-47 0-61-80-42-137-45v92" id="bw"/><path d="M137 0h-34L2-248h35l83 218 83-218h36" id="bx"/><path d="M190 0L58-211 59 0H30v-248h39L202-35l-2-213h31V0h-41" id="by"/><path d="M-5 72V49h209v23H-5" id="bz"/><path d="M232-93c-1 65-40 97-104 97C67 4 28-28 28-90v-158h33c8 89-33 224 67 224 102 0 64-133 71-224h33v155" id="bA"/><path d="M205 0l-28-72H64L36 0H1l101-248h38L239 0h-34zm-38-99l-47-123c-12 45-31 82-46 123h93" id="bB"/><path d="M185-189c-5-48-123-54-124 2 14 75 158 14 163 119 3 78-121 87-175 55-17-10-28-26-33-46l33-7c5 56 141 63 141-1 0-78-155-14-162-118-5-82 145-84 179-34 5 7 8 16 11 25" id="bC"/><path d="M240 0l2-218c-23 76-54 145-80 218h-23L58-218 59 0H30v-248h44l77 211c21-75 51-140 76-211h43V0h-30" id="bD"/><path d="M140-251c81 0 123 46 123 126C263-46 219 4 140 4 59 4 17-45 17-125s42-126 123-126zm0 227c63 0 89-41 89-101s-29-99-89-99c-61 0-89 39-89 99S79-25 140-24" id="bE"/><g id="aa"><use transform="matrix(0.05,0,0,0.05,0,0)" xlink:href="#ag"/><use transform="matrix(0.05,0,0,0.05,12,0)" xlink:href="#bw"/><use transform="matrix(0.05,0,0,0.05,24.950000000000003,0)" xlink:href="#aC"/><use transform="matrix(0.05,0,0,0.05,36.95,0)" xlink:href="#bx"/><use transform="matrix(0.05,0,0,0.05,48.95,0)" xlink:href="#aC"/><use transform="matrix(0.05,0,0,0.05,60.95,0)" xlink:href="#by"/><use transform="matrix(0.05,0,0,0.05,73.9,0)" xlink:href="#ac"/><use transform="matrix(0.05,0,0,0.05,84.85000000000001,0)" xlink:href="#bz"/><use transform="matrix(0.05,0,0,0.05,94.85000000000001,0)" xlink:href="#aC"/><use transform="matrix(0.05,0,0,0.05,106.85000000000001,0)" xlink:href="#aD"/><use transform="matrix(0.05,0,0,0.05,111.85000000000001,0)" xlink:href="#aE"/><use transform="matrix(0.05,0,0,0.05,124.80000000000001,0)" xlink:href="#bz"/><use transform="matrix(0.05,0,0,0.05,134.8,0)" xlink:href="#bA"/><use transform="matrix(0.05,0,0,0.05,147.75,0)" xlink:href="#ag"/><use transform="matrix(0.05,0,0,0.05,159.75,0)" xlink:href="#aE"/><use transform="matrix(0.05,0,0,0.05,172.7,0)" xlink:href="#bB"/><use transform="matrix(0.05,0,0,0.05,183.35,0)" xlink:href="#ac"/><use transform="matrix(0.05,0,0,0.05,194.29999999999998,0)" xlink:href="#aC"/><use transform="matrix(0.05,0,0,0.05,206.29999999999995,0)" xlink:href="#bC"/><use transform="matrix(0.05,0,0,0.05,218.29999999999995,0)" xlink:href="#bz"/><use transform="matrix(0.05,0,0,0.05,228.29999999999995,0)" xlink:href="#bD"/><use transform="matrix(0.05,0,0,0.05,243.24999999999997,0)" xlink:href="#bE"/><use transform="matrix(0.05,0,0,0.05,257.25,0)" xlink:href="#aE"/><use transform="matrix(0.05,0,0,0.05,270.2,0)" xlink:href="#aC"/></g><path d="M30 0v-248h33v221h125V0H30" id="bF"/><path d="M266 0h-40l-56-210L115 0H75L2-248h35L96-30l15-64 43-154h32l59 218 59-218h35" id="bG"/><g id="ab"><use transform="matrix(0.05,0,0,0.05,0,0)" xlink:href="#bB"/><use transform="matrix(0.05,0,0,0.05,12,0)" xlink:href="#bF"/><use transform="matrix(0.05,0,0,0.05,22,0)" xlink:href="#bF"/><use transform="matrix(0.05,0,0,0.05,32,0)" xlink:href="#bE"/><use transform="matrix(0.05,0,0,0.05,46,0)" xlink:href="#bG"/><use transform="matrix(0.05,0,0,0.05,62.95,0)" xlink:href="#bz"/><use transform="matrix(0.05,0,0,0.05,72.95,0)" xlink:href="#aC"/><use transform="matrix(0.05,0,0,0.05,84.95,0)" xlink:href="#aD"/><use transform="matrix(0.05,0,0,0.05,89.95,0)" xlink:href="#aE"/><use transform="matrix(0.05,0,0,0.05,102.9,0)" xlink:href="#bz"/><use transform="matrix(0.05,0,0,0.05,112.9,0)" xlink:href="#bA"/><use transform="matrix(0.05,0,0,0.05,125.85000000000001,0)" xlink:href="#ag"/><use transform="matrix(0.05,0,0,0.05,137.85000000000002,0)" xlink:href="#aE"/><use transform="matrix(0.05,0,0,0.05,150.8,0)" xlink:href="#bB"/><use transform="matrix(0.05,0,0,0.05,161.45000000000002,0)" xlink:href="#ac"/><use transform="matrix(0.05,0,0,0.05,172.4,0)" xlink:href="#aC"/><use transform="matrix(0.05,0,0,0.05,184.4,0)" xlink:href="#bC"/><use transform="matrix(0.05,0,0,0.05,196.4,0)" xlink:href="#bz"/><use transform="matrix(0.05,0,0,0.05,206.4,0)" xlink:href="#bD"/><use transform="matrix(0.05,0,0,0.05,221.35000000000002,0)" xlink:href="#bE"/><use transform="matrix(0.05,0,0,0.05,235.35000000000002,0)" xlink:href="#aE"/><use transform="matrix(0.05,0,0,0.05,248.29999999999995,0)" xlink:href="#aC"/></g></defs></g></svg>