<svg xmlns="http://www.w3.org/2000/svg" xmlns:xlink="http://www.w3.org/1999/xlink" xmlns:lucid="lucid" width="3615" height="1571"><g transform="translate(0 -5148)" lucid:page-tab-id="9QdXEr~dY.W-"><path d="M0 0h3615.47v6718.57H0z" fill="#fff"/><path d="M47.6 5248c0-4.42 3.6-8 8-8H3253.8c4.4 0 8 3.58 8 8v1234c0 4.42-3.6 8-8 8H55.6c-4.4 0-8-3.58-8-8zM94.33 4048c0-4.42 3.6-8 8-8h1951.23c4.42 0 8 3.58 8 8v1144c0 4.42-3.58 8-8 8H102.33c-4.4 0-8-3.58-8-8z" stroke="#fff" fill="#fff"/><path d="M1386.5 4693c0-4.42 3.6-8 8-8h600.4c4.43 0 8 3.58 8 8v439c0 4.42-3.57 8-8 8h-600.4c-4.4 0-8-3.58-8-8z" stroke="#834187" fill="#c7e8ac"/><path d="M45.8 5248c0-4.42 3.57-8 8-8h280.37c4.42 0 8 3.58 8 8v44c0 4.42-3.58 8-8 8H53.8c-4.43 0-8-3.58-8-8z" stroke="#000" stroke-opacity="0" fill="#fff" fill-opacity="0"/><use xlink:href="#a" transform="matrix(1,0,0,1,65.78723126827805,5240) translate(11.913580246913554 34.888888888888886)"/><use xlink:href="#b" transform="matrix(1,0,0,1,65.78723126827805,5240) translate(101.2716049382716 34.888888888888886)"/><use xlink:href="#c" transform="matrix(1,0,0,1,65.78723126827805,5240) translate(152.80864197530866 34.888888888888886)"/><use xlink:href="#d" transform="matrix(1,0,0,1,65.78723126827805,5240) translate(217.92592592592592 34.888888888888886)"/><path d="M105.68 5324.56c0-4.42 3.6-8 8-8h16.62c4.42 0 8 3.58 8 8v10.88c0 4.42-3.58 8-8 8h-16.62c-4.4 0-8-3.58-8-8z" stroke="#333" fill="#ff8f80"/><path d="M105.68 5384.56c0-4.42 3.6-8 8-8h16.62c4.42 0 8 3.58 8 8v10.88c0 4.42-3.58 8-8 8h-16.62c-4.4 0-8-3.58-8-8z" stroke="#333" fill="#c7e8ac"/><path d="M45.8 5308c0-4.42 3.57-8 8-8h492.65c4.42 0 8 3.58 8 8v44c0 4.42-3.58 8-8 8H53.8c-4.43 0-8-3.58-8-8z" stroke="#000" stroke-opacity="0" fill="#fff" fill-opacity="0"/><use xlink:href="#e" transform="matrix(1,0,0,1,65.78723126827816,5300) translate(85.65 33.6)"/><use xlink:href="#f" transform="matrix(1,0,0,1,65.78723126827816,5300) translate(101.15 33.6)"/><path d="M45.8 5368c0-4.42 3.57-8 8-8h796.94c4.42 0 8 3.58 8 8v44c0 4.42-3.58 8-8 8H53.8c-4.43 0-8-3.58-8-8z" stroke="#000" stroke-opacity="0" fill="#fff" fill-opacity="0"/><use xlink:href="#e" transform="matrix(1,0,0,1,65.78723126827816,5360) translate(81.47500000000002 33.6)"/><use xlink:href="#g" transform="matrix(1,0,0,1,65.78723126827816,5360) translate(96.97500000000002 33.6)"/><use xlink:href="#h" transform="matrix(1,0,0,1,65.78723126827816,5360) translate(362.275 33.6)"/><use xlink:href="#i" transform="matrix(1,0,0,1,65.78723126827816,5360) translate(391.275 33.6)"/><path d="M72.24 5641.44c0-4.42 3.6-8 8-8h879.13c4.42 0 8 3.58 8 8v454c0 4.42-3.58 8-8 8H80.24c-4.4 0-8-3.58-8-8z" stroke="#333" fill="#fff"/><path d="M453.64 5611.44c0-4.42 3.58-8 8-8h126.1c4.43 0 8 3.58 8 8v24c0 4.42-3.57 8-8 8h-126.1c-4.42 0-8-3.58-8-8z" stroke="#000" stroke-opacity="0" fill="#ffeca9"/><use xlink:href="#j" transform="matrix(1,0,0,1,473.63566289939706,5603.4374999999445) translate(6.599999999999994 23.6)"/><use xlink:href="#k" transform="matrix(1,0,0,1,473.63566289939706,5603.4374999999445) translate(52.5 23.6)"/><path d="M238.2 5893.44c0 33.13-26.87 60-60 60-33.15 0-60-26.87-60-60 0-33.14 26.85-60 60-60 33.13 0 60 26.86 60 60z" stroke="#333" fill="#fff"/><use xlink:href="#l" transform="matrix(1,0,0,1,136.18866858415925,5857.4374999999445) translate(6.524999999999999 39.6)"/><path d="M440.65 5763.44c0 33.13-26.87 60-60 60-33.14 0-60-26.87-60-60 0-33.14 26.86-60 60-60 33.13 0 60 26.86 60 60z" stroke="#333" fill="#fff"/><use xlink:href="#m" transform="matrix(1,0,0,1,338.6470507934089,5727.4374999999445) translate(14.024999999999999 32.8)"/><use xlink:href="#n" transform="matrix(1,0,0,1,338.6470507934089,5727.4374999999445) translate(3.954629629629622 49.06666666666667)"/><use xlink:href="#o" transform="matrix(1,0,0,1,338.6470507934089,5727.4374999999445) translate(43.58981481481481 49.06666666666667)"/><path d="M306.78 5663.44h81.87l12 12v48h-93.87z" stroke="#333" fill="#fff"/><path d="M388.65 5663.9v11.54h11.52" stroke="#333" fill="#fff"/><use xlink:href="#p" transform="matrix(1,0,0,1,312.7752499760901,5670.637499999944) translate(17.525 27.6)"/><path d="M280.92 5881.54l-.45 3.4-1.34 3.25-2.16 2.8-2.8 2.15-3.25 1.34-3.4.44h-8.2v-3h8l2.82-.37 2.5-1.04 2.2-1.68 1.67-2.18 1.05-2.5.37-2.83v-42.1h3zm18.6-116.6h-8l-2.82.37-2.52 1.05-2.18 1.67-1.67 2.18-1.04 2.5-.38 2.84v42.1h-3v-42.3l.44-3.4 1.35-3.25 2.16-2.82 2.8-2.15 3.25-1.35 3.42-.44h8.2zM257.8 5898.07l-14.26-4.63 14.27-4.64z" fill="#333"/><path d="M259.3 5900.14l-20.6-6.7 20.6-6.7zm-10.9-6.7l7.9 2.57v-5.13zM315.3 5763.44l-14.27 4.63v-9.27z" fill="#333"/><path d="M320.15 5763.44l-20.62 6.7v-13.4zm-17.62 2.57l7.9-2.56-7.9-2.57z" fill="#333"/><use xlink:href="#q" transform="matrix(1,0,0,1,248.19285968878398,5817.637499999944) translate(0.004999999999999005 14.4)"/><path d="M309.08 5528c0-4.42 3.58-8 8-8h405.45c4.42 0 8 3.58 8 8v44c0 4.42-3.58 8-8 8H317.08c-4.42 0-8-3.58-8-8z" stroke="#000" stroke-opacity="0" fill="#fff" fill-opacity="0"/><use xlink:href="#r" transform="matrix(1,0,0,1,329.0820672363335,5520) translate(5.3648148148147925 23.066666666666663)"/><use xlink:href="#s" transform="matrix(1,0,0,1,329.0820672363335,5520) translate(55.34259259259258 23.066666666666663)"/><use xlink:href="#t" transform="matrix(1,0,0,1,329.0820672363335,5520) translate(125.59074074074073 23.066666666666663)"/><use xlink:href="#u" transform="matrix(1,0,0,1,329.0820672363335,5520) translate(157.32037037037037 23.066666666666663)"/><use xlink:href="#v" transform="matrix(1,0,0,1,329.0820672363335,5520) translate(207.29814814814816 23.066666666666663)"/><use xlink:href="#w" transform="matrix(1,0,0,1,329.0820672363335,5520) translate(226.55740740740742 23.066666666666663)"/><use xlink:href="#x" transform="matrix(1,0,0,1,329.0820672363335,5520) translate(260.2611111111111 23.066666666666663)"/><use xlink:href="#y" transform="matrix(1,0,0,1,329.0820672363335,5520) translate(320.8796296296297 23.066666666666663)"/><use xlink:href="#z" transform="matrix(1,0,0,1,329.0820672363335,5520) translate(78.4296296296296 43.86666666666667)"/><use xlink:href="#w" transform="matrix(1,0,0,1,329.0820672363335,5520) translate(141.93703703703704 43.86666666666667)"/><use xlink:href="#u" transform="matrix(1,0,0,1,329.0820672363335,5520) translate(175.64074074074074 43.86666666666667)"/><use xlink:href="#v" transform="matrix(1,0,0,1,329.0820672363335,5520) translate(225.61851851851853 43.86666666666667)"/><use xlink:href="#A" transform="matrix(1,0,0,1,329.0820672363335,5520) translate(244.8777777777778 43.86666666666667)"/><path d="M102.9 5789.9h81.88l12 12v48H102.9z" stroke="#333" fill="#fff"/><path d="M184.78 5790.4v11.5h11.52" stroke="#333" fill="#fff"/><use xlink:href="#p" transform="matrix(1,0,0,1,108.90401622850376,5797.109134153056) translate(17.525 27.6)"/><path d="M683.77 5893.44c0 33.13-26.86 60-60 60s-60-26.87-60-60c0-33.14 26.86-60 60-60s60 26.86 60 60z" stroke="#333" fill="#fff"/><use xlink:href="#B" transform="matrix(1,0,0,1,581.7699054807551,5857.4374999999445) translate(6.524999999999999 39.6)"/><path d="M886.23 5763.44c0 33.13-26.86 60-60 60s-60-26.87-60-60c0-33.14 26.86-60 60-60s60 26.86 60 60z" stroke="#333" fill="#fff"/><use xlink:href="#m" transform="matrix(1,0,0,1,784.2282876900047,5727.4374999999445) translate(14.024999999999999 32.8)"/><use xlink:href="#n" transform="matrix(1,0,0,1,784.2282876900047,5727.4374999999445) translate(3.954629629629622 49.06666666666667)"/><use xlink:href="#o" transform="matrix(1,0,0,1,784.2282876900047,5727.4374999999445) translate(43.58981481481481 49.06666666666667)"/><path d="M735.56 5663.44h81.87l12 12v48h-93.87z" stroke="#333" fill="#fff"/><path d="M817.43 5663.9v11.54h11.53" stroke="#333" fill="#fff"/><use xlink:href="#C" transform="matrix(1,0,0,1,741.5623437563507,5670.637499999944) translate(17.525 27.6)"/><path d="M726.5 5881.54l-.45 3.4-1.34 3.25-2.15 2.8-2.8 2.15-3.25 1.34-3.4.44h-8.2v-3h8l2.82-.37 2.5-1.04 2.2-1.68 1.67-2.18 1.03-2.5.37-2.83v-42.1h3zm18.6-116.6h-8l-2.82.37-2.52 1.05-2.18 1.67-1.67 2.18-1.03 2.5-.37 2.84v42.1h-3v-42.3l.45-3.4 1.34-3.25 2.14-2.82 2.8-2.15 3.25-1.35 3.4-.44h8.2zM703.4 5898.07l-14.28-4.63 14.27-4.64z" fill="#333"/><path d="M704.9 5900.14l-20.63-6.7 20.62-6.7zm-10.92-6.7l7.9 2.57v-5.13zM760.87 5763.44l-14.26 4.63v-9.27z" fill="#333"/><path d="M765.73 5763.44l-20.62 6.7v-13.4zM748.1 5766l7.92-2.56-7.9-2.57z" fill="#333"/><use xlink:href="#q" transform="matrix(1,0,0,1,693.7740965853799,5817.637499999944) translate(0.004999999999999005 14.4)"/><path d="M548.5 5789.9h81.86l12 12v48H548.5z" stroke="#333" fill="#fff"/><path d="M630.36 5790.4v11.5h11.52" stroke="#333" fill="#fff"/><use xlink:href="#C" transform="matrix(1,0,0,1,554.4852531250998,5797.109134153056) translate(17.525 27.6)"/><path d="M835.5 5663.44h81.86l12 12v48H835.5z" stroke="#333" fill="#fff"/><path d="M917.36 5663.9v11.54h11.52" stroke="#333" fill="#fff"/><use xlink:href="#D" transform="matrix(1,0,0,1,841.4852349724052,5670.637499999944) translate(17.049999999999997 27.6)"/><path d="M883.8 6023.44c0 33.13-26.87 60-60 60-33.14 0-60-26.87-60-60 0-33.14 26.86-60 60-60 33.13 0 60 26.86 60 60z" stroke="#333" fill="#fff"/><use xlink:href="#E" transform="matrix(1,0,0,1,781.7941249636408,5987.4374999999445) translate(6.524999999999999 39.6)"/><path d="M835.5 5923.44h81.86l12 12v48H835.5z" stroke="#333" fill="#fff"/><path d="M917.36 5923.9v11.54h11.52" stroke="#333" fill="#fff"/><use xlink:href="#D" transform="matrix(1,0,0,1,841.4852349724052,5930.637499999944) translate(17.049999999999997 27.6)"/><path d="M825.3 5961.44h-3v-57.25h3zm0-78.85h-3v-38.14h3z" fill="#333"/><path d="M825.3 5963l-1.5-.06-1.5.05v-1.6h3zM828.43 5842.96h-9.27l4.63-14.27z" fill="#333"/><path d="M830.5 5844.46h-13.4l6.7-20.62zm-9.28-3h5.14l-2.57-7.92z" fill="#333"/><use xlink:href="#q" transform="matrix(1,0,0,1,792.5691249636408,5882.586940489807) translate(0.004999999999999005 14.4)"/><path d="M1298.32 5641.44c0-4.42 3.58-8 8-8h879.13c4.4 0 8 3.58 8 8v454c0 4.42-3.6 8-8 8h-879.13c-4.42 0-8-3.58-8-8z" stroke="#333" fill="#fff"/><path d="M1683.16 5611.44c0-4.42 3.58-8 8-8h126.1c4.43 0 8 3.58 8 8v24c0 4.42-3.57 8-8 8h-126.1c-4.42 0-8-3.58-8-8z" stroke="#000" stroke-opacity="0" fill="#ffeca9"/><use xlink:href="#F" transform="matrix(1,0,0,1,1703.155787946714,5603.4374999999445) translate(23.599999999999994 23.6)"/><path d="M1464.26 5893.44c0 33.13-26.86 60-60 60-33.13 0-60-26.87-60-60 0-33.14 26.87-60 60-60 33.14 0 60 26.86 60 60z" stroke="#333" fill="#fff"/><use xlink:href="#l" transform="matrix(1,0,0,1,1362.2640933862922,5857.4374999999445) translate(6.524999999999999 39.6)"/><path d="M1666.72 5763.44c0 33.13-26.86 60-60 60-33.13 0-60-26.87-60-60 0-33.14 26.87-60 60-60 33.14 0 60 26.86 60 60z" stroke="#333" fill="#fff"/><use xlink:href="#m" transform="matrix(1,0,0,1,1564.7224755955417,5727.4374999999445) translate(14.024999999999999 32.8)"/><use xlink:href="#n" transform="matrix(1,0,0,1,1564.7224755955417,5727.4374999999445) translate(3.954629629629622 49.06666666666667)"/><use xlink:href="#o" transform="matrix(1,0,0,1,1564.7224755955417,5727.4374999999445) translate(43.58981481481481 49.06666666666667)"/><path d="M1532.85 5663.44h81.87l12 12v48h-93.87z" stroke="#333" fill="#fff"/><path d="M1614.72 5663.9v11.54h11.53" stroke="#333" fill="#fff"/><use xlink:href="#p" transform="matrix(1,0,0,1,1538.8506747782226,5670.637499999944) translate(17.525 27.6)"/><path d="M1507 5881.54l-.45 3.4-1.35 3.25-2.15 2.8-2.8 2.15-3.25 1.34-3.4.44h-8.22v-3h8.02l2.82-.37 2.5-1.04 2.2-1.68 1.66-2.18 1.04-2.5.37-2.83v-42.1h3zm18.6-116.6h-8l-2.83.37-2.5 1.05-2.2 1.67-1.67 2.18-1.04 2.5-.37 2.84v42.1h-3v-42.3l.44-3.4 1.34-3.25 2.16-2.82 2.8-2.15 3.25-1.35 3.4-.44h8.2zM1483.88 5898.07l-14.26-4.63 14.26-4.64z" fill="#333"/><path d="M1485.38 5900.14l-20.62-6.7 20.62-6.7zm-10.9-6.7l7.9 2.57v-5.13zM1541.37 5763.44l-14.27 4.63v-9.27z" fill="#333"/><path d="M1546.22 5763.44l-20.62 6.7v-13.4zm-17.62 2.57l7.9-2.56-7.9-2.57z" fill="#333"/><use xlink:href="#q" transform="matrix(1,0,0,1,1474.268284490917,5817.637499999944) translate(0.004999999999999005 14.4)"/><path d="M1394.18 5528c0-4.42 3.58-8 8-8h688.8c4.4 0 8 3.58 8 8v44c0 4.42-3.6 8-8 8h-688.8c-4.42 0-8-3.58-8-8z" stroke="#000" stroke-opacity="0" fill="#fff" fill-opacity="0"/><use xlink:href="#G" transform="matrix(1,0,0,1,1414.1768940019535,5520) translate(12.098148148148027 13.866666666666669)"/><use xlink:href="#H" transform="matrix(1,0,0,1,1414.1768940019535,5520) translate(70.79074074074063 13.866666666666669)"/><use xlink:href="#I" transform="matrix(1,0,0,1,1414.1768940019535,5520) translate(88.07592592592583 13.866666666666669)"/><use xlink:href="#J" transform="matrix(1,0,0,1,1414.1768940019535,5520) translate(155.48333333333323 13.866666666666669)"/><use xlink:href="#K" transform="matrix(1,0,0,1,1414.1768940019535,5520) translate(189.18703703703693 13.866666666666669)"/><use xlink:href="#L" transform="matrix(1,0,0,1,1414.1768940019535,5520) translate(213.261111111111 13.866666666666669)"/><use xlink:href="#M" transform="matrix(1,0,0,1,1414.1768940019535,5520) translate(279.60925925925915 13.866666666666669)"/><use xlink:href="#H" transform="matrix(1,0,0,1,1414.1768940019535,5520) translate(313.2648148148147 13.866666666666669)"/><use xlink:href="#N" transform="matrix(1,0,0,1,1414.1768940019535,5520) translate(330.5499999999999 13.866666666666669)"/><use xlink:href="#O" transform="matrix(1,0,0,1,1414.1768940019535,5520) translate(388.32777777777767 13.866666666666669)"/><use xlink:href="#P" transform="matrix(1,0,0,1,1414.1768940019535,5520) translate(427.7129629629629 13.866666666666669)"/><use xlink:href="#t" transform="matrix(1,0,0,1,1414.1768940019535,5520) translate(474.8981481481481 13.866666666666669)"/><use xlink:href="#Q" transform="matrix(1,0,0,1,1414.1768940019535,5520) translate(506.62777777777774 13.866666666666669)"/><use xlink:href="#R" transform="matrix(1,0,0,1,1414.1768940019535,5520) translate(548.95 13.866666666666669)"/><use xlink:href="#S" transform="matrix(1,0,0,1,1414.1768940019535,5520) translate(591.3203703703705 13.866666666666669)"/><use xlink:href="#T" transform="matrix(1,0,0,1,1414.1768940019535,5520) translate(643.2722222222224 13.866666666666669)"/><use xlink:href="#U" transform="matrix(1,0,0,1,1414.1768940019535,5520) translate(5.453703703703638 34.66666666666667)"/><use xlink:href="#x" transform="matrix(1,0,0,1,1414.1768940019535,5520) translate(62.22037037037032 34.66666666666667)"/><use xlink:href="#V" transform="matrix(1,0,0,1,1414.1768940019535,5520) translate(122.83888888888885 34.66666666666667)"/><use xlink:href="#W" transform="matrix(1,0,0,1,1414.1768940019535,5520) translate(183.40925925925922 34.66666666666667)"/><use xlink:href="#X" transform="matrix(1,0,0,1,1414.1768940019535,5520) translate(242.10185185185182 34.66666666666667)"/><use xlink:href="#Y" transform="matrix(1,0,0,1,1414.1768940019535,5520) translate(260.34999999999997 34.66666666666667)"/><use xlink:href="#Z" transform="matrix(1,0,0,1,1414.1768940019535,5520) translate(289.2388888888889 34.66666666666667)"/><use xlink:href="#aa" transform="matrix(1,0,0,1,1414.1768940019535,5520) translate(322.89444444444445 34.66666666666667)"/><use xlink:href="#ab" transform="matrix(1,0,0,1,1414.1768940019535,5520) translate(394.0574074074074 34.66666666666667)"/><use xlink:href="#ac" transform="matrix(1,0,0,1,1414.1768940019535,5520) translate(425.78703703703707 34.66666666666667)"/><use xlink:href="#ad" transform="matrix(1,0,0,1,1414.1768940019535,5520) translate(482.5537037037038 34.66666666666667)"/><use xlink:href="#ae" transform="matrix(1,0,0,1,1414.1768940019535,5520) translate(532.5314814814815 34.66666666666667)"/><use xlink:href="#u" transform="matrix(1,0,0,1,1414.1768940019535,5520) translate(556.6055555555556 34.66666666666667)"/><use xlink:href="#v" transform="matrix(1,0,0,1,1414.1768940019535,5520) translate(606.5833333333335 34.66666666666667)"/><use xlink:href="#af" transform="matrix(1,0,0,1,1414.1768940019535,5520) translate(625.8425925925926 34.66666666666667)"/><use xlink:href="#x" transform="matrix(1,0,0,1,1414.1768940019535,5520) translate(238.2259259259259 55.466666666666676)"/><use xlink:href="#V" transform="matrix(1,0,0,1,1414.1768940019535,5520) translate(298.84444444444443 55.466666666666676)"/><use xlink:href="#ag" transform="matrix(1,0,0,1,1414.1768940019535,5520) translate(359.4148148148148 55.466666666666676)"/><path d="M1328.98 5789.9h81.87l12 12v48h-93.87z" stroke="#333" fill="#fff"/><path d="M1410.85 5790.4v11.5h11.53" stroke="#333" fill="#fff"/><use xlink:href="#p" transform="matrix(1,0,0,1,1334.9794410306363,5797.109134153056) translate(17.525 27.6)"/><path d="M1909.85 5893.44c0 33.13-26.87 60-60 60-33.14 0-60-26.87-60-60 0-33.14 26.86-60 60-60 33.13 0 60 26.86 60 60z" stroke="#333" fill="#fff"/><use xlink:href="#B" transform="matrix(1,0,0,1,1807.845330282888,5857.4374999999445) translate(6.524999999999999 39.6)"/><path d="M2112.3 5763.44c0 33.13-26.86 60-60 60-33.13 0-60-26.87-60-60 0-33.14 26.87-60 60-60 33.14 0 60 26.86 60 60z" stroke="#333" fill="#fff"/><use xlink:href="#m" transform="matrix(1,0,0,1,2010.3037124921375,5727.4374999999445) translate(14.024999999999999 32.8)"/><use xlink:href="#n" transform="matrix(1,0,0,1,2010.3037124921375,5727.4374999999445) translate(3.954629629629622 49.06666666666667)"/><use xlink:href="#o" transform="matrix(1,0,0,1,2010.3037124921375,5727.4374999999445) translate(43.58981481481481 49.06666666666667)"/><path d="M1961.64 5663.44h81.87l12 12v48h-93.86z" stroke="#333" fill="#fff"/><path d="M2043.5 5663.9v11.54h11.53" stroke="#333" fill="#fff"/><use xlink:href="#C" transform="matrix(1,0,0,1,1967.6377685584835,5670.637499999944) translate(17.525 27.6)"/><path d="M1952.57 5881.54l-.44 3.4-1.35 3.25-2.15 2.8-2.8 2.15-3.25 1.34-3.4.44h-8.2v-3h8l2.82-.37 2.5-1.04 2.2-1.68 1.66-2.18 1.05-2.5.37-2.83v-42.1h3zm18.6-116.6h-8l-2.82.37-2.5 1.05-2.2 1.67-1.66 2.18-1.06 2.5-.37 2.84v42.1h-3v-42.3l.45-3.4 1.34-3.25 2.16-2.82 2.8-2.15 3.25-1.35 3.4-.44h8.2zM1929.47 5898.07l-14.27-4.63 14.27-4.64z" fill="#333"/><path d="M1930.97 5900.14l-20.62-6.7 20.62-6.7zm-10.92-6.7l7.92 2.57v-5.13zM1986.95 5763.44l-14.27 4.63v-9.27z" fill="#333"/><path d="M1991.8 5763.44l-20.62 6.7v-13.4zm-17.62 2.57l7.92-2.56-7.92-2.57z" fill="#333"/><use xlink:href="#q" transform="matrix(1,0,0,1,1919.8495213875128,5817.637499999944) translate(0.004999999999999005 14.4)"/><path d="M1774.56 5789.9h81.87l12 12v48h-93.87z" stroke="#333" fill="#fff"/><path d="M1856.43 5790.4v11.5h11.53" stroke="#333" fill="#fff"/><use xlink:href="#C" transform="matrix(1,0,0,1,1780.5606779272325,5797.109134153056) translate(17.525 27.6)"/><path d="M2061.56 5663.44h81.87l12 12v48h-93.87z" stroke="#333" fill="#fff"/><path d="M2143.43 5663.9v11.54h11.53" stroke="#333" fill="#fff"/><use xlink:href="#D" transform="matrix(1,0,0,1,2067.5606597745377,5670.637499999944) translate(17.049999999999997 27.6)"/><path d="M2109.87 6023.44c0 33.13-26.86 60-60 60s-60-26.87-60-60c0-33.14 26.86-60 60-60s60 26.86 60 60z" stroke="#333" fill="#fff"/><use xlink:href="#E" transform="matrix(1,0,0,1,2007.8695497657736,5987.4374999999445) translate(6.524999999999999 39.6)"/><path d="M2061.56 5923.44h81.87l12 12v48h-93.87z" stroke="#333" fill="#fff"/><path d="M2143.43 5923.9v11.54h11.53" stroke="#333" fill="#fff"/><use xlink:href="#D" transform="matrix(1,0,0,1,2067.5606597745377,5930.637499999944) translate(17.049999999999997 27.6)"/><path d="M2051.37 5961.44h-3v-57.25h3zm0-78.85h-3v-38.14h3z" fill="#333"/><path d="M2051.37 5963l-1.5-.06-1.5.05v-1.6h3zM2054.5 5842.96h-9.27l4.64-14.27z" fill="#333"/><path d="M2056.57 5844.46h-13.4l6.7-20.62zm-9.27-3h5.14l-2.57-7.92z" fill="#333"/><use xlink:href="#q" transform="matrix(1,0,0,1,2018.6445497657737,5882.586940489807) translate(0.004999999999999005 14.4)"/><path d="M1217.74 5868.44c0 33.13-26.86 60-60 60-33.13 0-60-26.87-60-60 0-33.14 26.87-60 60-60 33.14 0 60 26.86 60 60z" stroke="#333" fill="#fff"/><use xlink:href="#E" transform="matrix(1,0,0,1,1115.7430345649054,5832.4374999999445) translate(6.524999999999999 39.6)"/><path d="M1219.74 5868.44h57.56" stroke="#333" stroke-width="3" fill="none"/><path d="M1219.78 5869.94h-1.6l.06-1.5-.05-1.5h1.58z" fill="#333"/><path d="M1293.06 5868.44l-14.26 4.63v-9.27z" stroke="#333" stroke-width="3" fill="#333"/><path d="M1062.74 5763.44h81.87l12 12v48h-93.86z" stroke="#333" fill="#fff"/><path d="M1144.6 5763.9v11.54h11.53" stroke="#333" fill="#fff"/><use xlink:href="#ah" transform="matrix(1,0,0,1,1068.7357676494744,5770.637499999944) translate(17.525 27.6)"/><path d="M1169.83 5763.44h81.87l12 12v48h-93.87z" stroke="#333" fill="#fff"/><path d="M1251.7 5763.9v11.54h11.53" stroke="#333" fill="#fff"/><use xlink:href="#D" transform="matrix(1,0,0,1,1175.8295510665682,5770.637499999944) translate(17.049999999999997 27.6)"/><path d="M2315.6 5378c0-4.42 3.6-8 8-8h879.14c4.42 0 8 3.58 8 8v454c0 4.42-3.58 8-8 8H2323.6c-4.4 0-8-3.58-8-8z" stroke="#333" fill="#ff8f80"/><path d="M2697 5348c0-4.42 3.6-8 8-8h126.12c4.42 0 8 3.58 8 8v24c0 4.42-3.58 8-8 8H2705c-4.4 0-8-3.58-8-8z" stroke="#000" stroke-opacity="0" fill="#ffeca9"/><use xlink:href="#ai" transform="matrix(1,0,0,1,2717.004916843379,5340) translate(10.099999999999994 23.6)"/><use xlink:href="#k" transform="matrix(1,0,0,1,2717.004916843379,5340) translate(49 23.6)"/><path d="M2481.56 5630c0 33.14-26.86 60-60 60s-60-26.86-60-60 26.86-60 60-60 60 26.86 60 60z" stroke="#333" fill="#fff"/><use xlink:href="#l" transform="matrix(1,0,0,1,2379.557922528141,5594) translate(6.524999999999999 39.6)"/><path d="M2684.02 5500c0 33.14-26.87 60-60 60-33.14 0-60-26.86-60-60s26.86-60 60-60c33.13 0 60 26.86 60 60z" stroke="#333" fill="#fff"/><use xlink:href="#m" transform="matrix(1,0,0,1,2582.016304737391,5464) translate(14.024999999999999 32.8)"/><use xlink:href="#n" transform="matrix(1,0,0,1,2582.016304737391,5464) translate(3.954629629629622 49.06666666666667)"/><use xlink:href="#o" transform="matrix(1,0,0,1,2582.016304737391,5464) translate(43.58981481481481 49.06666666666667)"/><path d="M2550.14 5400h81.88l12 12v48h-93.88z" stroke="#333" fill="#fff"/><path d="M2632.02 5400.48V5412h11.52" stroke="#333" fill="#fff"/><use xlink:href="#p" transform="matrix(1,0,0,1,2556.144503920072,5407.2) translate(17.525 27.6)"/><path d="M2524.3 5618.1l-.46 3.4-1.34 3.25-2.16 2.8-2.8 2.16-3.25 1.35-3.42.45h-8.2v-3h8l2.83-.37 2.52-1.04 2.18-1.68 1.68-2.2 1.04-2.5.37-2.82v-42.1h3zm18.6-116.6h-8.02l-2.82.37-2.5 1.04-2.2 1.68-1.66 2.2-1.04 2.5-.37 2.82v42.1h-3v-42.3l.43-3.4 1.35-3.25 2.15-2.8 2.8-2.16 3.25-1.35 3.4-.45h8.22zM2501.18 5634.64l-14.27-4.64 14.28-4.64z" fill="#333"/><path d="M2502.68 5636.7l-20.62-6.7 20.62-6.7zm-10.9-6.7l7.9 2.57v-5.14zM2558.66 5500l-14.26 4.64v-9.28z" fill="#333"/><path d="M2563.52 5500l-20.62 6.7v-13.4zm-17.62 2.57l7.9-2.57-7.9-2.57z" fill="#333"/><use xlink:href="#q" transform="matrix(1,0,0,1,2491.562113632766,5554.2) translate(0.004999999999999005 14.4)"/><path d="M2552.45 5264.56c0-4.42 3.58-8 8-8h405.45c4.42 0 8 3.58 8 8v44c0 4.42-3.58 8-8 8h-405.45c-4.42 0-8-3.58-8-8z" stroke="#000" stroke-opacity="0" fill="#fff" fill-opacity="0"/><use xlink:href="#aj" transform="matrix(1,0,0,1,2572.451321180315,5256.5625000000555) translate(149.6648148148148 33.46666666666667)"/><path d="M2346.27 5526.47h81.88l12 12v48h-93.88z" stroke="#333" fill="#fff"/><path d="M2428.15 5526.95v11.52h11.52" stroke="#333" fill="#fff"/><use xlink:href="#p" transform="matrix(1,0,0,1,2352.273270172486,5533.671634153112) translate(17.525 27.6)"/><path d="M2927.14 5630c0 33.14-26.86 60-60 60s-60-26.86-60-60 26.86-60 60-60 60 26.86 60 60z" stroke="#333" fill="#fff"/><use xlink:href="#B" transform="matrix(1,0,0,1,2825.139159424737,5594) translate(6.524999999999999 39.6)"/><path d="M3129.6 5500c0 33.14-26.87 60-60 60-33.14 0-60-26.86-60-60s26.86-60 60-60c33.13 0 60 26.86 60 60z" stroke="#333" fill="#fff"/><use xlink:href="#m" transform="matrix(1,0,0,1,3027.597541633987,5464) translate(14.024999999999999 32.8)"/><use xlink:href="#n" transform="matrix(1,0,0,1,3027.597541633987,5464) translate(3.954629629629622 49.06666666666667)"/><use xlink:href="#o" transform="matrix(1,0,0,1,3027.597541633987,5464) translate(43.58981481481481 49.06666666666667)"/><path d="M2978.93 5400h81.87l12 12v48h-93.87z" stroke="#333" fill="#fff"/><path d="M3060.8 5400.48V5412h11.53" stroke="#333" fill="#fff"/><use xlink:href="#C" transform="matrix(1,0,0,1,2984.931597700332,5407.2) translate(17.525 27.6)"/><path d="M2969.87 5618.1l-.45 3.4-1.34 3.25-2.16 2.8-2.8 2.16-3.25 1.35-3.4.45h-8.2v-3h8l2.82-.37 2.5-1.04 2.18-1.68 1.68-2.2 1.04-2.5.37-2.82v-42.1h3zm18.6-116.6h-8l-2.82.37-2.52 1.04-2.18 1.68-1.67 2.2-1.04 2.5-.37 2.82v42.1h-3v-42.3l.44-3.4 1.36-3.25 2.15-2.8 2.82-2.16 3.24-1.35 3.4-.45h8.22zM2946.76 5634.64l-14.27-4.64 14.26-4.64z" fill="#333"/><path d="M2948.26 5636.7l-20.62-6.7 20.62-6.7zm-10.9-6.7l7.9 2.57v-5.14zM3004.24 5500l-14.26 4.64v-9.28z" fill="#333"/><path d="M3009.1 5500l-20.62 6.7v-13.4zm-17.62 2.57l7.9-2.57-7.9-2.57z" fill="#333"/><use xlink:href="#q" transform="matrix(1,0,0,1,2937.143350529362,5554.2) translate(0.004999999999999005 14.4)"/><path d="M2791.85 5526.47h81.88l12 12v48h-93.88z" stroke="#333" fill="#fff"/><path d="M2873.73 5526.95v11.52h11.52" stroke="#333" fill="#fff"/><use xlink:href="#C" transform="matrix(1,0,0,1,2797.854507069082,5533.671634153112) translate(17.525 27.6)"/><path d="M3078.85 5400h81.88l12 12v48h-93.88z" stroke="#333" fill="#fff"/><path d="M3160.73 5400.48V5412h11.52" stroke="#333" fill="#fff"/><use xlink:href="#D" transform="matrix(1,0,0,1,3084.8544889163873,5407.2) translate(17.049999999999997 27.6)"/><path d="M3127.16 5760c0 33.14-26.86 60-60 60-33.13 0-60-26.86-60-60s26.87-60 60-60c33.14 0 60 26.86 60 60z" stroke="#333" fill="#fff"/><use xlink:href="#E" transform="matrix(1,0,0,1,3025.163378907623,5724) translate(6.524999999999999 39.6)"/><path d="M3078.85 5660h81.88l12 12v48h-93.88z" stroke="#333" fill="#fff"/><path d="M3160.73 5660.48V5672h11.52" stroke="#333" fill="#fff"/><use xlink:href="#D" transform="matrix(1,0,0,1,3084.8544889163873,5667.2) translate(17.049999999999997 27.6)"/><path d="M3068.66 5698h-3v-57.25h3zm0-78.85h-3v-38.13h3z" fill="#333"/><path d="M3068.66 5699.56l-1.5-.06-1.5.05v-1.6h3zM3071.8 5579.52h-9.27l4.63-14.27z" fill="#333"/><path d="M3073.86 5581.02h-13.4l6.7-20.62zm-9.27-3h5.13l-2.57-7.9z" fill="#333"/><g><use xlink:href="#q" transform="matrix(1,0,0,1,3035.9383789076232,5619.149440489862) translate(0.004999999999999005 14.4)"/></g><path d="M2315.6 5928c0-4.42 3.6-8 8-8h879.14c4.42 0 8 3.58 8 8v500.56c0 4.42-3.58 8-8 8H2323.6c-4.4 0-8-3.58-8-8z" stroke="#333" fill="#c7e8ac"/><path d="M2697 5901.44c0-4.42 3.6-8 8-8h126.12c4.42 0 8 3.58 8 8v24c0 4.42-3.58 8-8 8H2705c-4.4 0-8-3.58-8-8z" stroke="#000" stroke-opacity="0" fill="#ffeca9"/><g><use xlink:href="#ai" transform="matrix(1,0,0,1,2717.004916843379,5893.4374999999445) translate(10.099999999999994 23.6)"/><use xlink:href="#k" transform="matrix(1,0,0,1,2717.004916843379,5893.4374999999445) translate(49 23.6)"/></g><path d="M2481.56 6183.44c0 33.13-26.86 60-60 60s-60-26.87-60-60c0-33.14 26.86-60 60-60s60 26.86 60 60z" stroke="#333" fill="#fff"/><g><use xlink:href="#l" transform="matrix(1,0,0,1,2379.557922528141,6147.4374999999445) translate(6.524999999999999 39.6)"/></g><path d="M2684.02 6053.44c0 33.13-26.87 60-60 60-33.14 0-60-26.87-60-60 0-33.14 26.86-60 60-60 33.13 0 60 26.86 60 60z" stroke="#333" fill="#fff"/><g><use xlink:href="#m" transform="matrix(1,0,0,1,2582.016304737391,6017.4374999999445) translate(14.024999999999999 32.8)"/><use xlink:href="#n" transform="matrix(1,0,0,1,2582.016304737391,6017.4374999999445) translate(3.954629629629622 49.06666666666667)"/><use xlink:href="#o" transform="matrix(1,0,0,1,2582.016304737391,6017.4374999999445) translate(43.58981481481481 49.06666666666667)"/></g><path d="M2550.14 5953.44h81.88l12 12v48h-93.88z" stroke="#333" fill="#fff"/><path d="M2632.02 5953.9v11.54h11.52" stroke="#333" fill="#fff"/><g><use xlink:href="#p" transform="matrix(1,0,0,1,2556.144503920072,5960.637499999944) translate(17.525 27.6)"/></g><path d="M2524.3 6171.54l-.46 3.4-1.34 3.25-2.16 2.8-2.8 2.15-3.25 1.34-3.42.44h-8.2v-3h8l2.83-.37 2.52-1.04 2.18-1.68 1.68-2.18 1.04-2.5.37-2.83v-42.1h3zm18.6-116.6h-8.02l-2.82.37-2.5 1.05-2.2 1.67-1.66 2.18-1.04 2.5-.37 2.84v42.1h-3v-42.3l.43-3.4 1.35-3.25 2.15-2.82 2.8-2.15 3.25-1.35 3.4-.44h8.22zM2501.18 6188.07l-14.27-4.63 14.28-4.64z" fill="#333"/><path d="M2502.68 6190.14l-20.62-6.7 20.62-6.7zm-10.9-6.7l7.9 2.57v-5.13zM2558.66 6053.44l-14.26 4.63v-9.27z" fill="#333"/><path d="M2563.52 6053.44l-20.62 6.7v-13.4zm-17.62 2.57l7.9-2.56-7.9-2.57z" fill="#333"/><g><use xlink:href="#q" transform="matrix(1,0,0,1,2491.562113632766,6107.637499999944) translate(0.004999999999999005 14.4)"/></g><path d="M2346.27 6079.9h81.88l12 12v48h-93.88z" stroke="#333" fill="#fff"/><path d="M2428.15 6080.4v11.5h11.52" stroke="#333" fill="#fff"/><g><use xlink:href="#p" transform="matrix(1,0,0,1,2352.273270172486,6087.109134153056) translate(17.525 27.6)"/></g><path d="M2927.14 6183.44c0 33.13-26.86 60-60 60s-60-26.87-60-60c0-33.14 26.86-60 60-60s60 26.86 60 60z" stroke="#333" fill="#fff"/><g><use xlink:href="#B" transform="matrix(1,0,0,1,2825.139159424737,6147.4374999999445) translate(6.524999999999999 39.6)"/></g><path d="M3129.6 6053.44c0 33.13-26.87 60-60 60-33.14 0-60-26.87-60-60 0-33.14 26.86-60 60-60 33.13 0 60 26.86 60 60z" stroke="#333" fill="#fff"/><g><use xlink:href="#m" transform="matrix(1,0,0,1,3027.597541633987,6017.4374999999445) translate(14.024999999999999 32.8)"/><use xlink:href="#n" transform="matrix(1,0,0,1,3027.597541633987,6017.4374999999445) translate(3.954629629629622 49.06666666666667)"/><use xlink:href="#o" transform="matrix(1,0,0,1,3027.597541633987,6017.4374999999445) translate(43.58981481481481 49.06666666666667)"/></g><path d="M2978.93 5953.44h81.87l12 12v48h-93.87z" stroke="#333" fill="#fff"/><path d="M3060.8 5953.9v11.54h11.53" stroke="#333" fill="#fff"/><g><use xlink:href="#C" transform="matrix(1,0,0,1,2984.931597700332,5960.637499999944) translate(17.525 27.6)"/></g><path d="M2969.87 6171.54l-.45 3.4-1.34 3.25-2.16 2.8-2.8 2.15-3.25 1.34-3.4.44h-8.2v-3h8l2.82-.37 2.5-1.04 2.18-1.68 1.68-2.18 1.04-2.5.37-2.83v-42.1h3zm18.6-116.6h-8l-2.82.37-2.52 1.05-2.18 1.67-1.67 2.18-1.04 2.5-.37 2.84v42.1h-3v-42.3l.44-3.4 1.36-3.25 2.15-2.82 2.82-2.15 3.24-1.35 3.4-.44h8.22zM2946.76 6188.07l-14.27-4.63 14.26-4.64z" fill="#333"/><path d="M2948.26 6190.14l-20.62-6.7 20.62-6.7zm-10.9-6.7l7.9 2.57v-5.13zM3004.24 6053.44l-14.26 4.63v-9.27z" fill="#333"/><path d="M3009.1 6053.44l-20.62 6.7v-13.4zm-17.62 2.57l7.9-2.56-7.9-2.57z" fill="#333"/><g><use xlink:href="#q" transform="matrix(1,0,0,1,2937.143350529362,6107.637499999944) translate(0.004999999999999005 14.4)"/></g><path d="M2791.85 6079.9h81.88l12 12v48h-93.88z" stroke="#333" fill="#fff"/><path d="M2873.73 6080.4v11.5h11.52" stroke="#333" fill="#fff"/><g><use xlink:href="#C" transform="matrix(1,0,0,1,2797.854507069082,6087.109134153056) translate(17.525 27.6)"/></g><path d="M3078.85 5953.44h81.88l12 12v48h-93.88z" stroke="#333" fill="#fff"/><path d="M3160.73 5953.9v11.54h11.52" stroke="#333" fill="#fff"/><g><use xlink:href="#D" transform="matrix(1,0,0,1,3084.8544889163873,5960.637499999944) translate(17.049999999999997 27.6)"/></g><path d="M2851.53 6360c0 33.14-26.87 60-60 60-33.14 0-60-26.86-60-60s26.86-60 60-60c33.13 0 60 26.86 60 60z" stroke="#333" fill="#fff"/><g><use xlink:href="#E" transform="matrix(1,0,0,1,2749.5256953733433,6324) translate(6.524999999999999 39.6)"/></g><path d="M2800 6260h81.87l12 12v48H2800z" stroke="#333" fill="#fff"/><path d="M2881.87 6260.48V6272h11.53" stroke="#333" fill="#fff"/><g><use xlink:href="#D" transform="matrix(1,0,0,1,2806,6267.2) translate(17.049999999999997 27.6)"/></g><path d="M3068.66 6348.1l-.44 3.4-1.35 3.25-2.15 2.8-2.8 2.16-3.25 1.35-3.4.45h-201.74v-3h201.54l2.82-.37 2.5-1.04 2.18-1.68 1.67-2.2 1.04-2.5.36-2.82v-112.35h3zm0-134.15h-3v-79.5h3z" fill="#834187"/><path d="M2853.56 6361.5h-1.6l.07-1.5-.06-1.5h1.6zM3071.8 6132.96h-9.27l4.63-14.27z" fill="#834187"/><path d="M3073.86 6134.46h-13.4l6.7-20.62zm-9.27-3h5.13l-2.57-7.92z" fill="#834187"/><g><use xlink:href="#ak" transform="matrix(1,0,0,1,2986.4383789076232,6213.9490300143) translate(0.0049999999999954525 14.4)"/></g><path d="M2684.02 6260h81.87l12 12v48H2684z" stroke="#333" fill="#fff"/><path d="M2765.9 6260.48V6272h11.5" stroke="#333" fill="#fff"/><g><use xlink:href="#ah" transform="matrix(1,0,0,1,2690.016304737391,6267.2) translate(17.525 27.6)"/></g><path d="M2625.52 6347.9l.37 2.82 1.03 2.5 1.67 2.2 2.18 1.67 2.5 1.03 2.83.37h93.43v3h-93.6l-3.42-.45-3.23-1.34-2.8-2.15-2.16-2.8-1.34-3.25-.44-3.4v-110.85h3zm0-132.25h-3v-81.1h3z" fill="#834187"/><path d="M2731.03 6360l.05 1.5h-1.6v-3h1.6zM2628.65 6133.06h-9.27l4.64-14.27z" fill="#834187"/><path d="M2630.72 6134.56h-13.4l6.7-20.62zm-9.27-3h5.14l-2.58-7.9z" fill="#834187"/><g><use xlink:href="#ak" transform="matrix(1,0,0,1,2543.291304737391,6215.653133450024) translate(0.0049999999999954525 14.4)"/></g><path d="M2844.53 6053.15l-3.24 1.34-3.42.44h-132.74v-3h132.54l2.82-.37.9-.37h5.67zm149.9-24.3h-132.55l-2.82.38-.9.37h-5.67l2.53-1.95 3.25-1.35 3.4-.44h132.74zM3010.2 6027.36l-14.28 4.63v-9.28z" fill="#834187"/><path d="M3015.04 6027.36l-20.62 6.7v-13.4zm-17.62 2.57l7.92-2.57-7.92-2.57zM2703.64 6058.07l-14.27-4.63 14.27-4.64z" fill="#834187"/><path d="M2705.14 6060.14l-20.62-6.7 20.62-6.7zm-10.92-6.7l7.92 2.57v-5.13z" fill="#834187"/><g><use xlink:href="#al" transform="matrix(1,0,0,1,2750.555728604851,6029.597542645053) translate(0.0049999999999954525 14.4)"/></g><defs><path fill="#333" d="M238-95c0 69-44 99-111 99C63 4 22-25 22-93v-155h51v151c-1 38 19 59 55 60 90 1 49-130 58-211h52v153" id="am"/><path fill="#333" d="M135-194c53 0 70 44 70 98 0 56-19 98-73 100-31 1-45-17-59-34 3 33 2 69 2 105H25l-1-265h48c2 10 0 23 3 31 11-24 29-35 60-35zM114-30c33 0 39-31 40-66 0-38-9-64-40-64-56 0-55 130 0 130" id="an"/><path fill="#333" d="M88-194c31-1 46 15 58 34l-1-101h50l1 261h-48c-2-10 0-23-3-31C134-8 116 4 84 4 32 4 16-41 15-95c0-56 19-97 73-99zm17 164c33 0 40-30 41-66 1-37-9-64-41-64s-38 30-39 65c0 43 13 65 39 65" id="ao"/><path fill="#333" d="M133-34C117-15 103 5 69 4 32 3 11-16 11-54c-1-60 55-63 116-61 1-26-3-47-28-47-18 1-26 9-28 27l-52-2c7-38 36-58 82-57s74 22 75 68l1 82c-1 14 12 18 25 15v27c-30 8-71 5-69-32zm-48 3c29 0 43-24 42-57-32 0-66-3-65 30 0 17 8 27 23 27" id="ap"/><path fill="#333" d="M115-3C79 11 28 4 28-45v-112H4v-33h27l15-45h31v45h36v33H77v99c-1 23 16 31 38 25v30" id="aq"/><path fill="#333" d="M185-48c-13 30-37 53-82 52C43 2 14-33 14-96s30-98 90-98c62 0 83 45 84 108H66c0 31 8 55 39 56 18 0 30-7 34-22zm-45-69c5-46-57-63-70-21-2 6-4 13-4 21h74" id="ar"/><g id="a"><use transform="matrix(0.06790123456790124,0,0,0.06790123456790124,0,0)" xlink:href="#am"/><use transform="matrix(0.06790123456790124,0,0,0.06790123456790124,17.58641975308642,0)" xlink:href="#an"/><use transform="matrix(0.06790123456790124,0,0,0.06790123456790124,32.45679012345679,0)" xlink:href="#ao"/><use transform="matrix(0.06790123456790124,0,0,0.06790123456790124,47.327160493827165,0)" xlink:href="#ap"/><use transform="matrix(0.06790123456790124,0,0,0.06790123456790124,60.90740740740741,0)" xlink:href="#aq"/><use transform="matrix(0.06790123456790124,0,0,0.06790123456790124,68.98765432098766,0)" xlink:href="#ar"/></g><path fill="#333" d="M137-138c1-29-70-34-71-4 15 46 118 7 119 86 1 83-164 76-172 9l43-7c4 19 20 25 44 25 33 8 57-30 24-41C81-84 22-81 20-136c-2-80 154-74 161-7" id="as"/><g id="b"><use transform="matrix(0.06790123456790124,0,0,0.06790123456790124,0,0)" xlink:href="#am"/><use transform="matrix(0.06790123456790124,0,0,0.06790123456790124,17.58641975308642,0)" xlink:href="#as"/><use transform="matrix(0.06790123456790124,0,0,0.06790123456790124,31.16666666666667,0)" xlink:href="#ar"/></g><path fill="#333" d="M67-125c0 53 21 87 73 88 37 1 54-22 65-47l45 17C233-25 199 4 140 4 58 4 20-42 15-125 8-235 124-281 211-232c18 10 29 29 36 50l-46 12c-8-25-30-41-62-41-52 0-71 34-72 86" id="at"/><g id="c"><use transform="matrix(0.06790123456790124,0,0,0.06790123456790124,0,0)" xlink:href="#at"/><use transform="matrix(0.06790123456790124,0,0,0.06790123456790124,17.58641975308642,0)" xlink:href="#ap"/><use transform="matrix(0.06790123456790124,0,0,0.06790123456790124,31.16666666666667,0)" xlink:href="#as"/><use transform="matrix(0.06790123456790124,0,0,0.06790123456790124,44.74691358024692,0)" xlink:href="#ar"/></g><path fill="#333" d="M160-152l-12 59h37v26h-43L128 0h-28l14-67H60L46 0H20l13-67H6v-26h33l13-59H15v-26h42l15-67h27l-15 67h54l15-67h27l-14 67h28v26h-34zm-81 0L66-93h55l12-59H79" id="au"/><path fill="#333" d="M115-159c48 0 72 30 72 78 0 54-30 85-83 85-64 0-91-50-91-122 0-98 58-163 141-120 15 8 21 24 27 44l-47 6c-5-31-48-31-61-4-7 14-11 33-11 60 9-17 28-27 53-27zM102-35c24 0 36-20 36-45s-11-43-37-43c-23 0-36 14-36 38 0 27 11 50 37 50" id="av"/><g id="d"><use transform="matrix(0.06790123456790124,0,0,0.06790123456790124,0,0)" xlink:href="#au"/><use transform="matrix(0.06790123456790124,0,0,0.06790123456790124,13.580246913580249,0)" xlink:href="#av"/></g><path fill="#333" d="M18-150v-26h174v26H18zm0 90v-26h174v26H18" id="aw"/><use transform="matrix(0.05,0,0,0.05,0,0)" xlink:href="#aw" id="e"/><path fill="#333" d="M30-248c87 1 191-15 191 75 0 78-77 80-158 76V0H30v-248zm33 125c57 0 124 11 124-50 0-59-68-47-124-48v98" id="ax"/><path fill="#333" d="M233-177c-1 41-23 64-60 70L243 0h-38l-65-103H63V0H30v-248c88 3 205-21 203 71zM63-129c60-2 137 13 137-47 0-61-80-42-137-45v92" id="ay"/><path fill="#333" d="M30 0v-248h187v28H63v79h144v27H63v87h162V0H30" id="az"/><path fill="#333" d="M137 0h-34L2-248h35l83 218 83-218h36" id="aA"/><path fill="#333" d="M190 0L58-211 59 0H30v-248h39L202-35l-2-213h31V0h-41" id="aB"/><path fill="#333" d="M127-220V0H93v-220H8v-28h204v28h-85" id="aC"/><path fill="#333" d="M-5 72V49h209v23H-5" id="aD"/><path fill="#333" d="M33 0v-248h34V0H33" id="aE"/><path fill="#333" d="M30-248c118-7 216 8 213 122C240-48 200 0 122 0H30v-248zM63-27c89 8 146-16 146-99s-60-101-146-95v194" id="aF"/><path fill="#333" d="M232-93c-1 65-40 97-104 97C67 4 28-28 28-90v-158h33c8 89-33 224 67 224 102 0 64-133 71-224h33v155" id="aG"/><path fill="#333" d="M205 0l-28-72H64L36 0H1l101-248h38L239 0h-34zm-38-99l-47-123c-12 45-31 82-46 123h93" id="aH"/><path fill="#333" d="M185-189c-5-48-123-54-124 2 14 75 158 14 163 119 3 78-121 87-175 55-17-10-28-26-33-46l33-7c5 56 141 63 141-1 0-78-155-14-162-118-5-82 145-84 179-34 5 7 8 16 11 25" id="aI"/><path fill="#333" d="M240 0l2-218c-23 76-54 145-80 218h-23L58-218 59 0H30v-248h44l77 211c21-75 51-140 76-211h43V0h-30" id="aJ"/><path fill="#333" d="M140-251c81 0 123 46 123 126C263-46 219 4 140 4 59 4 17-45 17-125s42-126 123-126zm0 227c63 0 89-41 89-101s-29-99-89-99c-61 0-89 39-89 99S79-25 140-24" id="aK"/><g id="f"><use transform="matrix(0.05,0,0,0.05,0,0)" xlink:href="#ax"/><use transform="matrix(0.05,0,0,0.05,12,0)" xlink:href="#ay"/><use transform="matrix(0.05,0,0,0.05,24.950000000000003,0)" xlink:href="#az"/><use transform="matrix(0.05,0,0,0.05,36.95,0)" xlink:href="#aA"/><use transform="matrix(0.05,0,0,0.05,48.95,0)" xlink:href="#az"/><use transform="matrix(0.05,0,0,0.05,60.95,0)" xlink:href="#aB"/><use transform="matrix(0.05,0,0,0.05,73.9,0)" xlink:href="#aC"/><use transform="matrix(0.05,0,0,0.05,84.85000000000001,0)" xlink:href="#aD"/><use transform="matrix(0.05,0,0,0.05,94.85000000000001,0)" xlink:href="#az"/><use transform="matrix(0.05,0,0,0.05,106.85000000000001,0)" xlink:href="#aE"/><use transform="matrix(0.05,0,0,0.05,111.85000000000001,0)" xlink:href="#aF"/><use transform="matrix(0.05,0,0,0.05,124.80000000000001,0)" xlink:href="#aD"/><use transform="matrix(0.05,0,0,0.05,134.8,0)" xlink:href="#aG"/><use transform="matrix(0.05,0,0,0.05,147.75,0)" xlink:href="#ax"/><use transform="matrix(0.05,0,0,0.05,159.75,0)" xlink:href="#aF"/><use transform="matrix(0.05,0,0,0.05,172.7,0)" xlink:href="#aH"/><use transform="matrix(0.05,0,0,0.05,183.35,0)" xlink:href="#aC"/><use transform="matrix(0.05,0,0,0.05,194.29999999999998,0)" xlink:href="#az"/><use transform="matrix(0.05,0,0,0.05,206.29999999999995,0)" xlink:href="#aI"/><use transform="matrix(0.05,0,0,0.05,218.29999999999995,0)" xlink:href="#aD"/><use transform="matrix(0.05,0,0,0.05,228.29999999999995,0)" xlink:href="#aJ"/><use transform="matrix(0.05,0,0,0.05,243.24999999999997,0)" xlink:href="#aK"/><use transform="matrix(0.05,0,0,0.05,257.25,0)" xlink:href="#aF"/><use transform="matrix(0.05,0,0,0.05,270.2,0)" xlink:href="#az"/></g><path fill="#333" d="M30 0v-248h33v221h125V0H30" id="aL"/><path fill="#333" d="M266 0h-40l-56-210L115 0H75L2-248h35L96-30l15-64 43-154h32l59 218 59-218h35" id="aM"/><g id="g"><use transform="matrix(0.05,0,0,0.05,0,0)" xlink:href="#aH"/><use transform="matrix(0.05,0,0,0.05,12,0)" xlink:href="#aL"/><use transform="matrix(0.05,0,0,0.05,22,0)" xlink:href="#aL"/><use transform="matrix(0.05,0,0,0.05,32,0)" xlink:href="#aK"/><use transform="matrix(0.05,0,0,0.05,46,0)" xlink:href="#aM"/><use transform="matrix(0.05,0,0,0.05,62.95,0)" xlink:href="#aD"/><use transform="matrix(0.05,0,0,0.05,72.95,0)" xlink:href="#az"/><use transform="matrix(0.05,0,0,0.05,84.95,0)" xlink:href="#aE"/><use transform="matrix(0.05,0,0,0.05,89.95,0)" xlink:href="#aF"/><use transform="matrix(0.05,0,0,0.05,102.9,0)" xlink:href="#aD"/><use transform="matrix(0.05,0,0,0.05,112.9,0)" xlink:href="#aG"/><use transform="matrix(0.05,0,0,0.05,125.85000000000001,0)" xlink:href="#ax"/><use transform="matrix(0.05,0,0,0.05,137.85000000000002,0)" xlink:href="#aF"/><use transform="matrix(0.05,0,0,0.05,150.8,0)" xlink:href="#aH"/><use transform="matrix(0.05,0,0,0.05,161.45000000000002,0)" xlink:href="#aC"/><use transform="matrix(0.05,0,0,0.05,172.4,0)" xlink:href="#az"/><use transform="matrix(0.05,0,0,0.05,184.4,0)" xlink:href="#aI"/><use transform="matrix(0.05,0,0,0.05,196.4,0)" xlink:href="#aD"/><use transform="matrix(0.05,0,0,0.05,206.4,0)" xlink:href="#aJ"/><use transform="matrix(0.05,0,0,0.05,221.35000000000002,0)" xlink:href="#aK"/><use transform="matrix(0.05,0,0,0.05,235.35000000000002,0)" xlink:href="#aF"/><use transform="matrix(0.05,0,0,0.05,248.29999999999995,0)" xlink:href="#az"/></g><path fill="#333" d="M234-2c-28 10-62 0-77-18C117 19 8 12 13-65c3-43 29-61 60-76-25-40-17-114 47-108 35 3 59 15 59 50 0 44-40 53-71 69 14 26 32 50 51 72 14-21 24-43 30-72l26 8c-9 33-21 57-38 82 13 13 33 22 57 15v23zM97-151c25-10 52-18 56-48-1-18-13-29-33-29-42 0-39 50-23 77zM42-66c-3 51 71 58 98 28-20-24-41-51-56-80-23 10-40 24-42 52" id="aN"/><g id="h"><use transform="matrix(0.05,0,0,0.05,0,0)" xlink:href="#aN"/><use transform="matrix(0.05,0,0,0.05,12,0)" xlink:href="#aN"/></g><g id="i"><use transform="matrix(0.05,0,0,0.05,0,0)" xlink:href="#aJ"/><use transform="matrix(0.05,0,0,0.05,14.950000000000001,0)" xlink:href="#aG"/><use transform="matrix(0.05,0,0,0.05,27.900000000000002,0)" xlink:href="#aL"/><use transform="matrix(0.05,0,0,0.05,36.55,0)" xlink:href="#aC"/><use transform="matrix(0.05,0,0,0.05,47.5,0)" xlink:href="#aE"/><use transform="matrix(0.05,0,0,0.05,52.5,0)" xlink:href="#ax"/><use transform="matrix(0.05,0,0,0.05,64.5,0)" xlink:href="#aL"/><use transform="matrix(0.05,0,0,0.05,74.5,0)" xlink:href="#az"/><use transform="matrix(0.05,0,0,0.05,86.5,0)" xlink:href="#aD"/><use transform="matrix(0.05,0,0,0.05,96.5,0)" xlink:href="#az"/><use transform="matrix(0.05,0,0,0.05,108.5,0)" xlink:href="#aE"/><use transform="matrix(0.05,0,0,0.05,113.5,0)" xlink:href="#aF"/><use transform="matrix(0.05,0,0,0.05,126.45,0)" xlink:href="#aI"/><use transform="matrix(0.05,0,0,0.05,138.45,0)" xlink:href="#aD"/><use transform="matrix(0.05,0,0,0.05,148.45,0)" xlink:href="#aH"/><use transform="matrix(0.05,0,0,0.05,160.45,0)" xlink:href="#aL"/><use transform="matrix(0.05,0,0,0.05,170.45,0)" xlink:href="#aL"/><use transform="matrix(0.05,0,0,0.05,180.45,0)" xlink:href="#aK"/><use transform="matrix(0.05,0,0,0.05,194.45,0)" xlink:href="#aM"/><use transform="matrix(0.05,0,0,0.05,211.39999999999998,0)" xlink:href="#az"/><use transform="matrix(0.05,0,0,0.05,223.39999999999998,0)" xlink:href="#aF"/><use transform="matrix(0.05,0,0,0.05,236.34999999999997,0)" xlink:href="#aD"/><use transform="matrix(0.05,0,0,0.05,246.34999999999997,0)" xlink:href="#aJ"/><use transform="matrix(0.05,0,0,0.05,261.29999999999995,0)" xlink:href="#aK"/><use transform="matrix(0.05,0,0,0.05,275.29999999999995,0)" xlink:href="#aF"/><use transform="matrix(0.05,0,0,0.05,288.24999999999994,0)" xlink:href="#az"/></g><path fill="#333" d="M169-182c-1-43-94-46-97-3 18 66 151 10 154 114 3 95-165 93-204 36-6-8-10-19-12-30l50-8c3 46 112 56 116 5-17-69-150-10-154-114-4-87 153-88 188-35 5 8 8 18 10 28" id="aO"/><path fill="#333" d="M135-150c-39-12-60 13-60 57V0H25l-1-190h47c2 13-1 29 3 40 6-28 27-53 61-41v41" id="aP"/><g id="j"><use transform="matrix(0.05,0,0,0.05,0,0)" xlink:href="#aO"/><use transform="matrix(0.05,0,0,0.05,12,0)" xlink:href="#aq"/><use transform="matrix(0.05,0,0,0.05,17.95,0)" xlink:href="#ap"/><use transform="matrix(0.05,0,0,0.05,27.950000000000003,0)" xlink:href="#aP"/><use transform="matrix(0.05,0,0,0.05,34.95,0)" xlink:href="#aq"/></g><g id="k"><use transform="matrix(0.05,0,0,0.05,0,0)" xlink:href="#aO"/><use transform="matrix(0.05,0,0,0.05,12,0)" xlink:href="#aq"/><use transform="matrix(0.05,0,0,0.05,17.95,0)" xlink:href="#ap"/><use transform="matrix(0.05,0,0,0.05,27.950000000000003,0)" xlink:href="#aq"/><use transform="matrix(0.05,0,0,0.05,33.9,0)" xlink:href="#ar"/></g><path d="M30-248c87 1 191-15 191 75 0 78-77 80-158 76V0H30v-248zm33 125c57 0 124 11 124-50 0-59-68-47-124-48v98" id="aQ"/><path d="M141-36C126-15 110 5 73 4 37 3 15-17 15-53c-1-64 63-63 125-63 3-35-9-54-41-54-24 1-41 7-42 31l-33-3c5-37 33-52 76-52 45 0 72 20 72 64v82c-1 20 7 32 28 27v20c-31 9-61-2-59-35zM48-53c0 20 12 33 32 33 41-3 63-29 60-74-43 2-92-5-92 41" id="aR"/><path d="M59-47c-2 24 18 29 38 22v24C64 9 27 4 27-40v-127H5v-23h24l9-43h21v43h35v23H59v120" id="aS"/><path d="M24-231v-30h32v30H24zM24 0v-190h32V0H24" id="aT"/><path d="M100-194c63 0 86 42 84 106H49c0 40 14 67 53 68 26 1 43-12 49-29l28 8c-11 28-37 45-77 45C44 4 14-33 15-96c1-61 26-98 85-98zm52 81c6-60-76-77-97-28-3 7-6 17-6 28h103" id="aU"/><path d="M117-194c89-4 53 116 60 194h-32v-121c0-31-8-49-39-48C34-167 62-67 57 0H25l-1-190h30c1 10-1 24 2 32 11-22 29-35 61-36" id="aV"/><path d="M0 4l72-265h28L28 4H0" id="aW"/><path d="M27 0v-27h64v-190l-56 39v-29l58-41h29v221h61V0H27" id="aX"/><g id="l"><use transform="matrix(0.05,0,0,0.05,0,0)" xlink:href="#aQ"/><use transform="matrix(0.05,0,0,0.05,12,0)" xlink:href="#aR"/><use transform="matrix(0.05,0,0,0.05,22,0)" xlink:href="#aS"/><use transform="matrix(0.05,0,0,0.05,27,0)" xlink:href="#aT"/><use transform="matrix(0.05,0,0,0.05,30.950000000000003,0)" xlink:href="#aU"/><use transform="matrix(0.05,0,0,0.05,40.95,0)" xlink:href="#aV"/><use transform="matrix(0.05,0,0,0.05,50.95,0)" xlink:href="#aS"/><use transform="matrix(0.05,0,0,0.05,55.95,0)" xlink:href="#aW"/><use transform="matrix(0.05,0,0,0.05,60.95,0)" xlink:href="#aX"/></g><g id="m"><use transform="matrix(0.05,0,0,0.05,0,0)" xlink:href="#aQ"/><use transform="matrix(0.05,0,0,0.05,12,0)" xlink:href="#aR"/><use transform="matrix(0.05,0,0,0.05,22,0)" xlink:href="#aS"/><use transform="matrix(0.05,0,0,0.05,27,0)" xlink:href="#aT"/><use transform="matrix(0.05,0,0,0.05,30.950000000000003,0)" xlink:href="#aU"/><use transform="matrix(0.05,0,0,0.05,40.95,0)" xlink:href="#aV"/><use transform="matrix(0.05,0,0,0.05,50.95,0)" xlink:href="#aS"/></g><path d="M143 4C61 4 22-44 18-125c-5-107 100-154 193-111 17 8 29 25 37 43l-32 9c-13-25-37-40-76-40-61 0-88 39-88 99 0 61 29 100 91 101 35 0 62-11 79-27v-45h-74v-28h105v86C228-13 192 4 143 4" id="aY"/><path d="M100-194c62-1 85 37 85 99 1 63-27 99-86 99S16-35 15-95c0-66 28-99 85-99zM99-20c44 1 53-31 53-75 0-43-8-75-51-75s-53 32-53 75 10 74 51 75" id="aZ"/><path d="M24 0v-261h32V0H24" id="ba"/><path d="M85-194c31 0 48 13 60 33l-1-100h32l1 261h-30c-2-10 0-23-3-31C134-8 116 4 85 4 32 4 16-35 15-94c0-66 23-100 70-100zm9 24c-40 0-46 34-46 75 0 40 6 74 45 74 42 0 51-32 51-76 0-42-9-74-50-73" id="bb"/><g id="n"><use transform="matrix(0.031481481481481485,0,0,0.031481481481481485,0,0)" xlink:href="#aY"/><use transform="matrix(0.031481481481481485,0,0,0.031481481481481485,8.814814814814817,0)" xlink:href="#aZ"/><use transform="matrix(0.031481481481481485,0,0,0.031481481481481485,15.111111111111114,0)" xlink:href="#ba"/><use transform="matrix(0.031481481481481485,0,0,0.031481481481481485,17.59814814814815,0)" xlink:href="#bb"/><use transform="matrix(0.031481481481481485,0,0,0.031481481481481485,23.89444444444445,0)" xlink:href="#aU"/><use transform="matrix(0.031481481481481485,0,0,0.031481481481481485,30.190740740740747,0)" xlink:href="#aV"/></g><path d="M233-177c-1 41-23 64-60 70L243 0h-38l-65-103H63V0H30v-248c88 3 205-21 203 71zM63-129c60-2 137 13 137-47 0-61-80-42-137-45v92" id="bc"/><path d="M96-169c-40 0-48 33-48 73s9 75 48 75c24 0 41-14 43-38l32 2c-6 37-31 61-74 61-59 0-76-41-82-99-10-93 101-131 147-64 4 7 5 14 7 22l-32 3c-4-21-16-35-41-35" id="bd"/><path d="M114-163C36-179 61-72 57 0H25l-1-190h30c1 12-1 29 2 39 6-27 23-49 58-41v29" id="be"/><g id="o"><use transform="matrix(0.031481481481481485,0,0,0.031481481481481485,0,0)" xlink:href="#bc"/><use transform="matrix(0.031481481481481485,0,0,0.031481481481481485,8.153703703703705,0)" xlink:href="#aU"/><use transform="matrix(0.031481481481481485,0,0,0.031481481481481485,14.450000000000003,0)" xlink:href="#bd"/><use transform="matrix(0.031481481481481485,0,0,0.031481481481481485,20.11666666666667,0)" xlink:href="#aZ"/><use transform="matrix(0.031481481481481485,0,0,0.031481481481481485,26.41296296296297,0)" xlink:href="#be"/><use transform="matrix(0.031481481481481485,0,0,0.031481481481481485,30.159259259259265,0)" xlink:href="#bb"/></g><path fill="#333" d="M33-154v-36h34v36H33zM33 0v-36h34V0H33" id="bf"/><g id="p"><use transform="matrix(0.05,0,0,0.05,0,0)" xlink:href="#az"/><use transform="matrix(0.05,0,0,0.05,12,0)" xlink:href="#aE"/><use transform="matrix(0.05,0,0,0.05,17,0)" xlink:href="#aF"/><use transform="matrix(0.05,0,0,0.05,29.950000000000003,0)" xlink:href="#bf"/><use transform="matrix(0.05,0,0,0.05,34.95,0)" xlink:href="#aH"/></g><path fill="#333" d="M212-179c-10-28-35-45-73-45-59 0-87 40-87 99 0 60 29 101 89 101 43 0 62-24 78-52l27 14C228-24 195 4 139 4 59 4 22-46 18-125c-6-104 99-153 187-111 19 9 31 26 39 46" id="bg"/><path fill="#333" d="M197 0v-115H63V0H30v-248h33v105h134v-105h34V0h-34" id="bh"/><g id="q"><use transform="matrix(0.05,0,0,0.05,0,0)" xlink:href="#aJ"/><use transform="matrix(0.05,0,0,0.05,14.950000000000001,0)" xlink:href="#aH"/><use transform="matrix(0.05,0,0,0.05,25.6,0)" xlink:href="#aC"/><use transform="matrix(0.05,0,0,0.05,36.550000000000004,0)" xlink:href="#bg"/><use transform="matrix(0.05,0,0,0.05,49.50000000000001,0)" xlink:href="#bh"/></g><path d="M127-220V0H93v-220H8v-28h204v28h-85" id="bi"/><path d="M106-169C34-169 62-67 57 0H25v-261h32l-1 103c12-21 28-36 61-36 89 0 53 116 60 194h-32v-121c2-32-8-49-39-48" id="bj"/><g id="r"><use transform="matrix(0.048148148148148155,0,0,0.048148148148148155,0,0)" xlink:href="#bi"/><use transform="matrix(0.048148148148148155,0,0,0.048148148148148155,10.544444444444446,0)" xlink:href="#bj"/><use transform="matrix(0.048148148148148155,0,0,0.048148148148148155,20.174074074074078,0)" xlink:href="#be"/><use transform="matrix(0.048148148148148155,0,0,0.048148148148148155,25.90370370370371,0)" xlink:href="#aU"/><use transform="matrix(0.048148148148148155,0,0,0.048148148148148155,35.53333333333334,0)" xlink:href="#aU"/></g><path d="M115-194c55 1 70 41 70 98S169 2 115 4C84 4 66-9 55-30l1 105H24l-1-265h31l2 30c10-21 28-34 59-34zm-8 174c40 0 45-34 45-75s-6-73-45-74c-42 0-51 32-51 76 0 43 10 73 51 73" id="bk"/><path d="M135-143c-3-34-86-38-87 0 15 53 115 12 119 90S17 21 10-45l28-5c4 36 97 45 98 0-10-56-113-15-118-90-4-57 82-63 122-42 12 7 21 19 24 35" id="bl"/><path d="M68-38c1 34 0 65-14 84H32c9-13 17-26 17-46H33v-38h35" id="bm"/><g id="s"><use transform="matrix(0.048148148148148155,0,0,0.048148148148148155,0,0)" xlink:href="#bk"/><use transform="matrix(0.048148148148148155,0,0,0.048148148148148155,9.629629629629632,0)" xlink:href="#aR"/><use transform="matrix(0.048148148148148155,0,0,0.048148148148148155,19.259259259259263,0)" xlink:href="#aS"/><use transform="matrix(0.048148148148148155,0,0,0.048148148148148155,24.07407407407408,0)" xlink:href="#aT"/><use transform="matrix(0.048148148148148155,0,0,0.048148148148148155,27.877777777777784,0)" xlink:href="#aU"/><use transform="matrix(0.048148148148148155,0,0,0.048148148148148155,37.50740740740741,0)" xlink:href="#aV"/><use transform="matrix(0.048148148148148155,0,0,0.048148148148148155,47.13703703703705,0)" xlink:href="#aS"/><use transform="matrix(0.048148148148148155,0,0,0.048148148148148155,51.951851851851856,0)" xlink:href="#bl"/><use transform="matrix(0.048148148148148155,0,0,0.048148148148148155,60.61851851851853,0)" xlink:href="#bm"/></g><path d="M206 0h-36l-40-164L89 0H53L-1-190h32L70-26l43-164h34l41 164 42-164h31" id="bn"/><g id="t"><use transform="matrix(0.048148148148148155,0,0,0.048148148148148155,0,0)" xlink:href="#aS"/><use transform="matrix(0.048148148148148155,0,0,0.048148148148148155,4.814814814814816,0)" xlink:href="#bn"/><use transform="matrix(0.048148148148148155,0,0,0.048148148148148155,17.28518518518519,0)" xlink:href="#aZ"/></g><path d="M143 0L79-87 56-68V0H24v-261h32v163l83-92h37l-77 82L181 0h-38" id="bo"/><g id="u"><use transform="matrix(0.048148148148148155,0,0,0.048148148148148155,0,0)" xlink:href="#ba"/><use transform="matrix(0.048148148148148155,0,0,0.048148148148148155,3.8037037037037043,0)" xlink:href="#aT"/><use transform="matrix(0.048148148148148155,0,0,0.048148148148148155,7.6074074074074085,0)" xlink:href="#aV"/><use transform="matrix(0.048148148148148155,0,0,0.048148148148148155,17.23703703703704,0)" xlink:href="#bo"/><use transform="matrix(0.048148148148148155,0,0,0.048148148148148155,25.90370370370371,0)" xlink:href="#aU"/><use transform="matrix(0.048148148148148155,0,0,0.048148148148148155,35.53333333333334,0)" xlink:href="#bb"/></g><g id="v"><use transform="matrix(0.048148148148148155,0,0,0.048148148148148155,0,0)" xlink:href="#aS"/><use transform="matrix(0.048148148148148155,0,0,0.048148148148148155,4.814814814814816,0)" xlink:href="#aZ"/></g><g id="w"><use transform="matrix(0.048148148148148155,0,0,0.048148148148148155,0,0)" xlink:href="#aZ"/><use transform="matrix(0.048148148148148155,0,0,0.048148148148148155,9.629629629629632,0)" xlink:href="#aV"/><use transform="matrix(0.048148148148148155,0,0,0.048148148148148155,19.259259259259263,0)" xlink:href="#aU"/></g><g id="x"><use transform="matrix(0.048148148148148155,0,0,0.048148148148148155,0,0)" xlink:href="#aY"/><use transform="matrix(0.048148148148148155,0,0,0.048148148148148155,13.481481481481483,0)" xlink:href="#aZ"/><use transform="matrix(0.048148148148148155,0,0,0.048148148148148155,23.111111111111114,0)" xlink:href="#ba"/><use transform="matrix(0.048148148148148155,0,0,0.048148148148148155,26.914814814814818,0)" xlink:href="#bb"/><use transform="matrix(0.048148148148148155,0,0,0.048148148148148155,36.54444444444445,0)" xlink:href="#aU"/><use transform="matrix(0.048148148148148155,0,0,0.048148148148148155,46.174074074074085,0)" xlink:href="#aV"/></g><g id="y"><use transform="matrix(0.048148148148148155,0,0,0.048148148148148155,0,0)" xlink:href="#bc"/><use transform="matrix(0.048148148148148155,0,0,0.048148148148148155,12.470370370370372,0)" xlink:href="#aU"/><use transform="matrix(0.048148148148148155,0,0,0.048148148148148155,22.1,0)" xlink:href="#bd"/><use transform="matrix(0.048148148148148155,0,0,0.048148148148148155,30.766666666666673,0)" xlink:href="#aZ"/><use transform="matrix(0.048148148148148155,0,0,0.048148148148148155,40.3962962962963,0)" xlink:href="#be"/><use transform="matrix(0.048148148148148155,0,0,0.048148148148148155,46.12592592592593,0)" xlink:href="#bb"/></g><g id="z"><use transform="matrix(0.048148148148148155,0,0,0.048148148148148155,0,0)" xlink:href="#aQ"/><use transform="matrix(0.048148148148148155,0,0,0.048148148148148155,11.555555555555557,0)" xlink:href="#aR"/><use transform="matrix(0.048148148148148155,0,0,0.048148148148148155,21.18518518518519,0)" xlink:href="#aS"/><use transform="matrix(0.048148148148148155,0,0,0.048148148148148155,26.00000000000001,0)" xlink:href="#aT"/><use transform="matrix(0.048148148148148155,0,0,0.048148148148148155,29.803703703703714,0)" xlink:href="#aU"/><use transform="matrix(0.048148148148148155,0,0,0.048148148148148155,39.433333333333344,0)" xlink:href="#aV"/><use transform="matrix(0.048148148148148155,0,0,0.048148148148148155,49.06296296296298,0)" xlink:href="#aS"/><use transform="matrix(0.048148148148148155,0,0,0.048148148148148155,53.877777777777794,0)" xlink:href="#bm"/></g><g id="A"><use transform="matrix(0.048148148148148155,0,0,0.048148148148148155,0,0)" xlink:href="#aR"/><use transform="matrix(0.048148148148148155,0,0,0.048148148148148155,9.629629629629632,0)" xlink:href="#aV"/><use transform="matrix(0.048148148148148155,0,0,0.048148148148148155,19.259259259259263,0)" xlink:href="#aZ"/><use transform="matrix(0.048148148148148155,0,0,0.048148148148148155,28.888888888888893,0)" xlink:href="#aS"/><use transform="matrix(0.048148148148148155,0,0,0.048148148148148155,33.70370370370371,0)" xlink:href="#bj"/><use transform="matrix(0.048148148148148155,0,0,0.048148148148148155,43.33333333333334,0)" xlink:href="#aU"/><use transform="matrix(0.048148148148148155,0,0,0.048148148148148155,52.96296296296297,0)" xlink:href="#be"/></g><path d="M101-251c82-7 93 87 43 132L82-64C71-53 59-42 53-27h129V0H18c2-99 128-94 128-182 0-28-16-43-45-43s-46 15-49 41l-32-3c6-41 34-60 81-64" id="bp"/><g id="B"><use transform="matrix(0.05,0,0,0.05,0,0)" xlink:href="#aQ"/><use transform="matrix(0.05,0,0,0.05,12,0)" xlink:href="#aR"/><use transform="matrix(0.05,0,0,0.05,22,0)" xlink:href="#aS"/><use transform="matrix(0.05,0,0,0.05,27,0)" xlink:href="#aT"/><use transform="matrix(0.05,0,0,0.05,30.950000000000003,0)" xlink:href="#aU"/><use transform="matrix(0.05,0,0,0.05,40.95,0)" xlink:href="#aV"/><use transform="matrix(0.05,0,0,0.05,50.95,0)" xlink:href="#aS"/><use transform="matrix(0.05,0,0,0.05,55.95,0)" xlink:href="#aW"/><use transform="matrix(0.05,0,0,0.05,60.95,0)" xlink:href="#bp"/></g><path fill="#333" d="M160-131c35 5 61 23 61 61C221 17 115-2 30 0v-248c76 3 177-17 177 60 0 33-19 50-47 57zm-97-11c50-1 110 9 110-42 0-47-63-36-110-37v79zm0 115c55-2 124 14 124-45 0-56-70-42-124-44v89" id="bq"/><g id="C"><use transform="matrix(0.05,0,0,0.05,0,0)" xlink:href="#az"/><use transform="matrix(0.05,0,0,0.05,12,0)" xlink:href="#aE"/><use transform="matrix(0.05,0,0,0.05,17,0)" xlink:href="#aF"/><use transform="matrix(0.05,0,0,0.05,29.950000000000003,0)" xlink:href="#bf"/><use transform="matrix(0.05,0,0,0.05,34.95,0)" xlink:href="#bq"/></g><g id="D"><use transform="matrix(0.05,0,0,0.05,0,0)" xlink:href="#az"/><use transform="matrix(0.05,0,0,0.05,12,0)" xlink:href="#aE"/><use transform="matrix(0.05,0,0,0.05,17,0)" xlink:href="#aF"/><use transform="matrix(0.05,0,0,0.05,29.950000000000003,0)" xlink:href="#bf"/><use transform="matrix(0.05,0,0,0.05,34.95,0)" xlink:href="#bg"/></g><path d="M126-127c33 6 58 20 58 59 0 88-139 92-164 29-3-8-5-16-6-25l32-3c6 27 21 44 54 44 32 0 52-15 52-46 0-38-36-46-79-43v-28c39 1 72-4 72-42 0-27-17-43-46-43-28 0-47 15-49 41l-32-3c6-42 35-63 81-64 48-1 79 21 79 65 0 36-21 52-52 59" id="br"/><g id="E"><use transform="matrix(0.05,0,0,0.05,0,0)" xlink:href="#aQ"/><use transform="matrix(0.05,0,0,0.05,12,0)" xlink:href="#aR"/><use transform="matrix(0.05,0,0,0.05,22,0)" xlink:href="#aS"/><use transform="matrix(0.05,0,0,0.05,27,0)" xlink:href="#aT"/><use transform="matrix(0.05,0,0,0.05,30.950000000000003,0)" xlink:href="#aU"/><use transform="matrix(0.05,0,0,0.05,40.95,0)" xlink:href="#aV"/><use transform="matrix(0.05,0,0,0.05,50.95,0)" xlink:href="#aS"/><use transform="matrix(0.05,0,0,0.05,55.95,0)" xlink:href="#aW"/><use transform="matrix(0.05,0,0,0.05,60.95,0)" xlink:href="#br"/></g><path fill="#333" d="M199 0l-22-63H83L61 0H9l90-248h61L250 0h-51zm-33-102l-36-108c-10 38-24 72-36 108h72" id="bs"/><path fill="#333" d="M190-63c-7 42-38 67-86 67-59 0-84-38-90-98-12-110 154-137 174-36l-49 2c-2-19-15-32-35-32-30 0-35 28-38 64-6 74 65 87 74 30" id="bt"/><path fill="#333" d="M25-224v-37h50v37H25zM25 0v-190h50V0H25" id="bu"/><path fill="#333" d="M110-194c64 0 96 36 96 99 0 64-35 99-97 99-61 0-95-36-95-99 0-62 34-99 96-99zm-1 164c35 0 45-28 45-65 0-40-10-65-43-65-34 0-45 26-45 65 0 36 10 65 43 65" id="bv"/><path fill="#333" d="M135-194c87-1 58 113 63 194h-50c-7-57 23-157-34-157-59 0-34 97-39 157H25l-1-190h47c2 12-1 28 3 38 12-26 28-41 61-42" id="bw"/><g id="F"><use transform="matrix(0.05,0,0,0.05,0,0)" xlink:href="#bs"/><use transform="matrix(0.05,0,0,0.05,12.950000000000001,0)" xlink:href="#bt"/><use transform="matrix(0.05,0,0,0.05,22.950000000000003,0)" xlink:href="#aq"/><use transform="matrix(0.05,0,0,0.05,28.900000000000002,0)" xlink:href="#bu"/><use transform="matrix(0.05,0,0,0.05,33.900000000000006,0)" xlink:href="#bv"/><use transform="matrix(0.05,0,0,0.05,44.85000000000001,0)" xlink:href="#bw"/></g><g id="G"><use transform="matrix(0.048148148148148155,0,0,0.048148148148148155,0,0)" xlink:href="#aQ"/><use transform="matrix(0.048148148148148155,0,0,0.048148148148148155,11.555555555555557,0)" xlink:href="#aR"/><use transform="matrix(0.048148148148148155,0,0,0.048148148148148155,21.18518518518519,0)" xlink:href="#aS"/><use transform="matrix(0.048148148148148155,0,0,0.048148148148148155,26.00000000000001,0)" xlink:href="#aT"/><use transform="matrix(0.048148148148148155,0,0,0.048148148148148155,29.803703703703714,0)" xlink:href="#aU"/><use transform="matrix(0.048148148148148155,0,0,0.048148148148148155,39.433333333333344,0)" xlink:href="#aV"/><use transform="matrix(0.048148148148148155,0,0,0.048148148148148155,49.06296296296298,0)" xlink:href="#aS"/></g><g id="H"><use transform="matrix(0.048148148148148155,0,0,0.048148148148148155,0,0)" xlink:href="#aT"/><use transform="matrix(0.048148148148148155,0,0,0.048148148148148155,3.8037037037037043,0)" xlink:href="#bl"/></g><path d="M84 4C-5 8 30-112 23-190h32v120c0 31 7 50 39 49 72-2 45-101 50-169h31l1 190h-30c-1-10 1-25-2-33-11 22-28 36-60 37" id="bx"/><g id="I"><use transform="matrix(0.048148148148148155,0,0,0.048148148148148155,0,0)" xlink:href="#bx"/><use transform="matrix(0.048148148148148155,0,0,0.048148148148148155,9.629629629629632,0)" xlink:href="#bk"/><use transform="matrix(0.048148148148148155,0,0,0.048148148148148155,19.259259259259263,0)" xlink:href="#bb"/><use transform="matrix(0.048148148148148155,0,0,0.048148148148148155,28.888888888888893,0)" xlink:href="#aR"/><use transform="matrix(0.048148148148148155,0,0,0.048148148148148155,38.518518518518526,0)" xlink:href="#aS"/><use transform="matrix(0.048148148148148155,0,0,0.048148148148148155,43.33333333333334,0)" xlink:href="#aU"/><use transform="matrix(0.048148148148148155,0,0,0.048148148148148155,52.96296296296297,0)" xlink:href="#bb"/></g><g id="J"><use transform="matrix(0.048148148148148155,0,0,0.048148148148148155,0,0)" xlink:href="#aR"/><use transform="matrix(0.048148148148148155,0,0,0.048148148148148155,9.629629629629632,0)" xlink:href="#aV"/><use transform="matrix(0.048148148148148155,0,0,0.048148148148148155,19.259259259259263,0)" xlink:href="#bb"/></g><g id="K"><use transform="matrix(0.048148148148148155,0,0,0.048148148148148155,0,0)" xlink:href="#aR"/><use transform="matrix(0.048148148148148155,0,0,0.048148148148148155,9.629629629629632,0)" xlink:href="#aV"/></g><path d="M141 0L90-78 38 0H4l68-98-65-92h35l48 74 47-74h35l-64 92 68 98h-35" id="by"/><g id="L"><use transform="matrix(0.048148148148148155,0,0,0.048148148148148155,0,0)" xlink:href="#aU"/><use transform="matrix(0.048148148148148155,0,0,0.048148148148148155,9.629629629629632,0)" xlink:href="#by"/><use transform="matrix(0.048148148148148155,0,0,0.048148148148148155,18.296296296296298,0)" xlink:href="#aS"/><use transform="matrix(0.048148148148148155,0,0,0.048148148148148155,23.111111111111114,0)" xlink:href="#aU"/><use transform="matrix(0.048148148148148155,0,0,0.048148148148148155,32.74074074074075,0)" xlink:href="#be"/><use transform="matrix(0.048148148148148155,0,0,0.048148148148148155,38.470370370370375,0)" xlink:href="#aV"/><use transform="matrix(0.048148148148148155,0,0,0.048148148148148155,48.10000000000001,0)" xlink:href="#aR"/><use transform="matrix(0.048148148148148155,0,0,0.048148148148148155,57.729629629629635,0)" xlink:href="#ba"/></g><path d="M30 0v-248h187v28H63v79h144v27H63v87h162V0H30" id="bz"/><path d="M33 0v-248h34V0H33" id="bA"/><path d="M30-248c118-7 216 8 213 122C240-48 200 0 122 0H30v-248zM63-27c89 8 146-16 146-99s-60-101-146-95v194" id="bB"/><g id="M"><use transform="matrix(0.048148148148148155,0,0,0.048148148148148155,0,0)" xlink:href="#bz"/><use transform="matrix(0.048148148148148155,0,0,0.048148148148148155,11.555555555555557,0)" xlink:href="#bA"/><use transform="matrix(0.048148148148148155,0,0,0.048148148148148155,16.370370370370374,0)" xlink:href="#bB"/></g><path d="M33 0v-38h34V0H33" id="bC"/><g id="N"><use transform="matrix(0.048148148148148155,0,0,0.048148148148148155,0,0)" xlink:href="#aR"/><use transform="matrix(0.048148148148148155,0,0,0.048148148148148155,9.629629629629632,0)" xlink:href="#bb"/><use transform="matrix(0.048148148148148155,0,0,0.048148148148148155,19.259259259259263,0)" xlink:href="#bb"/><use transform="matrix(0.048148148148148155,0,0,0.048148148148148155,28.888888888888893,0)" xlink:href="#aU"/><use transform="matrix(0.048148148148148155,0,0,0.048148148148148155,38.518518518518526,0)" xlink:href="#bb"/><use transform="matrix(0.048148148148148155,0,0,0.048148148148148155,48.14814814814816,0)" xlink:href="#bC"/></g><path d="M190 0L58-211 59 0H30v-248h39L202-35l-2-213h31V0h-41" id="bD"/><g id="O"><use transform="matrix(0.048148148148148155,0,0,0.048148148148148155,0,0)" xlink:href="#bD"/><use transform="matrix(0.048148148148148155,0,0,0.048148148148148155,12.470370370370372,0)" xlink:href="#aZ"/><use transform="matrix(0.048148148148148155,0,0,0.048148148148148155,22.1,0)" xlink:href="#bn"/></g><g id="P"><use transform="matrix(0.048148148148148155,0,0,0.048148148148148155,0,0)" xlink:href="#aS"/><use transform="matrix(0.048148148148148155,0,0,0.048148148148148155,4.814814814814816,0)" xlink:href="#bj"/><use transform="matrix(0.048148148148148155,0,0,0.048148148148148155,14.444444444444446,0)" xlink:href="#aU"/><use transform="matrix(0.048148148148148155,0,0,0.048148148148148155,24.074074074074076,0)" xlink:href="#bl"/><use transform="matrix(0.048148148148148155,0,0,0.048148148148148155,32.74074074074075,0)" xlink:href="#aU"/></g><g id="Q"><use transform="matrix(0.048148148148148155,0,0,0.048148148148148155,0,0)" xlink:href="#bz"/><use transform="matrix(0.048148148148148155,0,0,0.048148148148148155,11.555555555555557,0)" xlink:href="#bA"/><use transform="matrix(0.048148148148148155,0,0,0.048148148148148155,16.370370370370374,0)" xlink:href="#bB"/><use transform="matrix(0.048148148148148155,0,0,0.048148148148148155,28.840740740740745,0)" xlink:href="#bl"/></g><g id="R"><use transform="matrix(0.048148148148148155,0,0,0.048148148148148155,0,0)" xlink:href="#aU"/><use transform="matrix(0.048148148148148155,0,0,0.048148148148148155,9.629629629629632,0)" xlink:href="#aR"/><use transform="matrix(0.048148148148148155,0,0,0.048148148148148155,19.259259259259263,0)" xlink:href="#bd"/><use transform="matrix(0.048148148148148155,0,0,0.048148148148148155,27.92592592592593,0)" xlink:href="#bj"/></g><path d="M210-169c-67 3-38 105-44 169h-31v-121c0-29-5-50-35-48C34-165 62-65 56 0H25l-1-190h30c1 10-1 24 2 32 10-44 99-50 107 0 11-21 27-35 58-36 85-2 47 119 55 194h-31v-121c0-29-5-49-35-48" id="bE"/><g id="S"><use transform="matrix(0.048148148148148155,0,0,0.048148148148148155,0,0)" xlink:href="#bE"/><use transform="matrix(0.048148148148148155,0,0,0.048148148148148155,14.396296296296299,0)" xlink:href="#aR"/><use transform="matrix(0.048148148148148155,0,0,0.048148148148148155,24.025925925925932,0)" xlink:href="#aS"/><use transform="matrix(0.048148148148148155,0,0,0.048148148148148155,28.84074074074075,0)" xlink:href="#bd"/><use transform="matrix(0.048148148148148155,0,0,0.048148148148148155,37.50740740740741,0)" xlink:href="#bj"/></g><use transform="matrix(0.048148148148148155,0,0,0.048148148148148155,0,0)" xlink:href="#aR" id="T"/><path d="M145-31C134-9 116 4 85 4 32 4 16-35 15-94c0-59 17-99 70-100 32-1 48 14 60 33 0-11-1-24 2-32h30l-1 268h-32zM93-21c41 0 51-33 51-76s-8-73-50-73c-40 0-46 35-46 75s5 74 45 74" id="bF"/><g id="U"><use transform="matrix(0.048148148148148155,0,0,0.048148148148148155,0,0)" xlink:href="#bx"/><use transform="matrix(0.048148148148148155,0,0,0.048148148148148155,9.629629629629632,0)" xlink:href="#aV"/><use transform="matrix(0.048148148148148155,0,0,0.048148148148148155,19.259259259259263,0)" xlink:href="#aT"/><use transform="matrix(0.048148148148148155,0,0,0.048148148148148155,23.062962962962967,0)" xlink:href="#bF"/><use transform="matrix(0.048148148148148155,0,0,0.048148148148148155,32.6925925925926,0)" xlink:href="#bx"/><use transform="matrix(0.048148148148148155,0,0,0.048148148148148155,42.32222222222223,0)" xlink:href="#aU"/></g><g id="V"><use transform="matrix(0.048148148148148155,0,0,0.048148148148148155,0,0)" xlink:href="#bc"/><use transform="matrix(0.048148148148148155,0,0,0.048148148148148155,12.470370370370372,0)" xlink:href="#aU"/><use transform="matrix(0.048148148148148155,0,0,0.048148148148148155,22.1,0)" xlink:href="#bd"/><use transform="matrix(0.048148148148148155,0,0,0.048148148148148155,30.766666666666673,0)" xlink:href="#aZ"/><use transform="matrix(0.048148148148148155,0,0,0.048148148148148155,40.3962962962963,0)" xlink:href="#be"/><use transform="matrix(0.048148148148148155,0,0,0.048148148148148155,46.12592592592593,0)" xlink:href="#bb"/></g><g id="W"><use transform="matrix(0.048148148148148155,0,0,0.048148148148148155,0,0)" xlink:href="#aQ"/><use transform="matrix(0.048148148148148155,0,0,0.048148148148148155,11.555555555555557,0)" xlink:href="#aR"/><use transform="matrix(0.048148148148148155,0,0,0.048148148148148155,21.18518518518519,0)" xlink:href="#aS"/><use transform="matrix(0.048148148148148155,0,0,0.048148148148148155,26.00000000000001,0)" xlink:href="#aT"/><use transform="matrix(0.048148148148148155,0,0,0.048148148148148155,29.803703703703714,0)" xlink:href="#aU"/><use transform="matrix(0.048148148148148155,0,0,0.048148148148148155,39.433333333333344,0)" xlink:href="#aV"/><use transform="matrix(0.048148148148148155,0,0,0.048148148148148155,49.06296296296298,0)" xlink:href="#aS"/></g><g id="X"><use transform="matrix(0.048148148148148155,0,0,0.048148148148148155,0,0)" xlink:href="#aT"/><use transform="matrix(0.048148148148148155,0,0,0.048148148148148155,3.8037037037037043,0)" xlink:href="#aV"/></g><g id="Y"><use transform="matrix(0.048148148148148155,0,0,0.048148148148148155,0,0)" xlink:href="#aS"/><use transform="matrix(0.048148148148148155,0,0,0.048148148148148155,4.814814814814816,0)" xlink:href="#bj"/><use transform="matrix(0.048148148148148155,0,0,0.048148148148148155,14.444444444444446,0)" xlink:href="#aU"/></g><path d="M160-131c35 5 61 23 61 61C221 17 115-2 30 0v-248c76 3 177-17 177 60 0 33-19 50-47 57zm-97-11c50-1 110 9 110-42 0-47-63-36-110-37v79zm0 115c55-2 124 14 124-45 0-56-70-42-124-44v89" id="bG"/><g id="Z"><use transform="matrix(0.048148148148148155,0,0,0.048148148148148155,0,0)" xlink:href="#bB"/><use transform="matrix(0.048148148148148155,0,0,0.048148148148148155,12.470370370370372,0)" xlink:href="#bG"/><use transform="matrix(0.048148148148148155,0,0,0.048148148148148155,24.02592592592593,0)" xlink:href="#bm"/></g><path d="M177-190C167-65 218 103 67 71c-23-6-38-20-44-43l32-5c15 47 100 32 89-28v-30C133-14 115 1 83 1 29 1 15-40 15-95c0-56 16-97 71-98 29-1 48 16 59 35 1-10 0-23 2-32h30zM94-22c36 0 50-32 50-73 0-42-14-75-50-75-39 0-46 34-46 75s6 73 46 73" id="bH"/><g id="aa"><use transform="matrix(0.048148148148148155,0,0,0.048148148148148155,0,0)" xlink:href="#bE"/><use transform="matrix(0.048148148148148155,0,0,0.048148148148148155,14.396296296296299,0)" xlink:href="#aU"/><use transform="matrix(0.048148148148148155,0,0,0.048148148148148155,24.025925925925932,0)" xlink:href="#aR"/><use transform="matrix(0.048148148148148155,0,0,0.048148148148148155,33.655555555555566,0)" xlink:href="#aV"/><use transform="matrix(0.048148148148148155,0,0,0.048148148148148155,43.2851851851852,0)" xlink:href="#aT"/><use transform="matrix(0.048148148148148155,0,0,0.048148148148148155,47.0888888888889,0)" xlink:href="#aV"/><use transform="matrix(0.048148148148148155,0,0,0.048148148148148155,56.718518518518536,0)" xlink:href="#bH"/></g><g id="ab"><use transform="matrix(0.048148148148148155,0,0,0.048148148148148155,0,0)" xlink:href="#aS"/><use transform="matrix(0.048148148148148155,0,0,0.048148148148148155,4.814814814814816,0)" xlink:href="#bj"/><use transform="matrix(0.048148148148148155,0,0,0.048148148148148155,14.444444444444446,0)" xlink:href="#aT"/><use transform="matrix(0.048148148148148155,0,0,0.048148148148148155,18.24814814814815,0)" xlink:href="#bl"/></g><g id="ac"><use transform="matrix(0.048148148148148155,0,0,0.048148148148148155,0,0)" xlink:href="#bk"/><use transform="matrix(0.048148148148148155,0,0,0.048148148148148155,9.629629629629632,0)" xlink:href="#aR"/><use transform="matrix(0.048148148148148155,0,0,0.048148148148148155,19.259259259259263,0)" xlink:href="#aS"/><use transform="matrix(0.048148148148148155,0,0,0.048148148148148155,24.07407407407408,0)" xlink:href="#aT"/><use transform="matrix(0.048148148148148155,0,0,0.048148148148148155,27.877777777777784,0)" xlink:href="#aU"/><use transform="matrix(0.048148148148148155,0,0,0.048148148148148155,37.50740740740741,0)" xlink:href="#aV"/><use transform="matrix(0.048148148148148155,0,0,0.048148148148148155,47.13703703703705,0)" xlink:href="#aS"/></g><g id="ad"><use transform="matrix(0.048148148148148155,0,0,0.048148148148148155,0,0)" xlink:href="#bn"/><use transform="matrix(0.048148148148148155,0,0,0.048148148148148155,12.470370370370372,0)" xlink:href="#aZ"/><use transform="matrix(0.048148148148148155,0,0,0.048148148148148155,22.1,0)" xlink:href="#bx"/><use transform="matrix(0.048148148148148155,0,0,0.048148148148148155,31.729629629629635,0)" xlink:href="#ba"/><use transform="matrix(0.048148148148148155,0,0,0.048148148148148155,35.53333333333334,0)" xlink:href="#bb"/></g><path d="M115-194c53 0 69 39 70 98 0 66-23 100-70 100C84 3 66-7 56-30L54 0H23l1-261h32v101c10-23 28-34 59-34zm-8 174c40 0 45-34 45-75 0-40-5-75-45-74-42 0-51 32-51 76 0 43 10 73 51 73" id="bI"/><g id="ae"><use transform="matrix(0.048148148148148155,0,0,0.048148148148148155,0,0)" xlink:href="#bI"/><use transform="matrix(0.048148148148148155,0,0,0.048148148148148155,9.629629629629632,0)" xlink:href="#aU"/></g><g id="af"><use transform="matrix(0.048148148148148155,0,0,0.048148148148148155,0,0)" xlink:href="#bI"/><use transform="matrix(0.048148148148148155,0,0,0.048148148148148155,9.629629629629632,0)" xlink:href="#aZ"/><use transform="matrix(0.048148148148148155,0,0,0.048148148148148155,19.259259259259263,0)" xlink:href="#aS"/><use transform="matrix(0.048148148148148155,0,0,0.048148148148148155,24.07407407407408,0)" xlink:href="#bj"/></g><g id="ag"><use transform="matrix(0.048148148148148155,0,0,0.048148148148148155,0,0)" xlink:href="#aQ"/><use transform="matrix(0.048148148148148155,0,0,0.048148148148148155,11.555555555555557,0)" xlink:href="#aR"/><use transform="matrix(0.048148148148148155,0,0,0.048148148148148155,21.18518518518519,0)" xlink:href="#aS"/><use transform="matrix(0.048148148148148155,0,0,0.048148148148148155,26.00000000000001,0)" xlink:href="#aT"/><use transform="matrix(0.048148148148148155,0,0,0.048148148148148155,29.803703703703714,0)" xlink:href="#aU"/><use transform="matrix(0.048148148148148155,0,0,0.048148148148148155,39.433333333333344,0)" xlink:href="#aV"/><use transform="matrix(0.048148148148148155,0,0,0.048148148148148155,49.06296296296298,0)" xlink:href="#aS"/><use transform="matrix(0.048148148148148155,0,0,0.048148148148148155,53.877777777777794,0)" xlink:href="#bl"/><use transform="matrix(0.048148148148148155,0,0,0.048148148148148155,62.544444444444466,0)" xlink:href="#bC"/></g><g id="ah"><use transform="matrix(0.05,0,0,0.05,0,0)" xlink:href="#az"/><use transform="matrix(0.05,0,0,0.05,12,0)" xlink:href="#aE"/><use transform="matrix(0.05,0,0,0.05,17,0)" xlink:href="#aF"/><use transform="matrix(0.05,0,0,0.05,29.950000000000003,0)" xlink:href="#bf"/><use transform="matrix(0.05,0,0,0.05,34.95,0)" xlink:href="#aH"/></g><path fill="#333" d="M24 0v-248h195v40H76v63h132v40H76v65h150V0H24" id="bJ"/><g id="ai"><use transform="matrix(0.05,0,0,0.05,0,0)" xlink:href="#bJ"/><use transform="matrix(0.05,0,0,0.05,12,0)" xlink:href="#bw"/><use transform="matrix(0.05,0,0,0.05,22.950000000000003,0)" xlink:href="#ao"/></g><path d="M63-220v92h138v28H63V0H30v-248h175v28H63" id="bK"/><path d="M63-70H37l-4-178h34zM33 0v-35h34V0H33" id="bL"/><g id="aj"><use transform="matrix(0.048148148148148155,0,0,0.048148148148148155,0,0)" xlink:href="#bK"/><use transform="matrix(0.048148148148148155,0,0,0.048148148148148155,10.544444444444446,0)" xlink:href="#aZ"/><use transform="matrix(0.048148148148148155,0,0,0.048148148148148155,20.174074074074078,0)" xlink:href="#be"/><use transform="matrix(0.048148148148148155,0,0,0.048148148148148155,25.90370370370371,0)" xlink:href="#bI"/><use transform="matrix(0.048148148148148155,0,0,0.048148148148148155,35.53333333333334,0)" xlink:href="#aT"/><use transform="matrix(0.048148148148148155,0,0,0.048148148148148155,39.33703703703704,0)" xlink:href="#bb"/><use transform="matrix(0.048148148148148155,0,0,0.048148148148148155,48.966666666666676,0)" xlink:href="#bb"/><use transform="matrix(0.048148148148148155,0,0,0.048148148148148155,58.5962962962963,0)" xlink:href="#aU"/><use transform="matrix(0.048148148148148155,0,0,0.048148148148148155,68.22592592592594,0)" xlink:href="#aV"/><use transform="matrix(0.048148148148148155,0,0,0.048148148148148155,77.85555555555557,0)" xlink:href="#bL"/></g><path fill="#834187" d="M30-248c87 1 191-15 191 75 0 78-77 80-158 76V0H30v-248zm33 125c57 0 124 11 124-50 0-59-68-47-124-48v98" id="bM"/><path fill="#834187" d="M140-251c81 0 123 46 123 126C263-46 219 4 140 4 59 4 17-45 17-125s42-126 123-126zm0 227c63 0 89-41 89-101s-29-99-89-99c-61 0-89 39-89 99S79-25 140-24" id="bN"/><path fill="#834187" d="M185-189c-5-48-123-54-124 2 14 75 158 14 163 119 3 78-121 87-175 55-17-10-28-26-33-46l33-7c5 56 141 63 141-1 0-78-155-14-162-118-5-82 145-84 179-34 5 7 8 16 11 25" id="bO"/><path fill="#834187" d="M33 0v-248h34V0H33" id="bP"/><path fill="#834187" d="M160-131c35 5 61 23 61 61C221 17 115-2 30 0v-248c76 3 177-17 177 60 0 33-19 50-47 57zm-97-11c50-1 110 9 110-42 0-47-63-36-110-37v79zm0 115c55-2 124 14 124-45 0-56-70-42-124-44v89" id="bQ"/><path fill="#834187" d="M30 0v-248h33v221h125V0H30" id="bR"/><path fill="#834187" d="M30 0v-248h187v28H63v79h144v27H63v87h162V0H30" id="bS"/><path fill="#834187" d="M-5 72V49h209v23H-5" id="bT"/><path fill="#834187" d="M240 0l2-218c-23 76-54 145-80 218h-23L58-218 59 0H30v-248h44l77 211c21-75 51-140 76-211h43V0h-30" id="bU"/><path fill="#834187" d="M205 0l-28-72H64L36 0H1l101-248h38L239 0h-34zm-38-99l-47-123c-12 45-31 82-46 123h93" id="bV"/><path fill="#834187" d="M127-220V0H93v-220H8v-28h204v28h-85" id="bW"/><path fill="#834187" d="M212-179c-10-28-35-45-73-45-59 0-87 40-87 99 0 60 29 101 89 101 43 0 62-24 78-52l27 14C228-24 195 4 139 4 59 4 22-46 18-125c-6-104 99-153 187-111 19 9 31 26 39 46" id="bX"/><path fill="#834187" d="M197 0v-115H63V0H30v-248h33v105h134v-105h34V0h-34" id="bY"/><g id="ak"><use transform="matrix(0.05,0,0,0.05,0,0)" xlink:href="#bM"/><use transform="matrix(0.05,0,0,0.05,12,0)" xlink:href="#bN"/><use transform="matrix(0.05,0,0,0.05,26,0)" xlink:href="#bO"/><use transform="matrix(0.05,0,0,0.05,38,0)" xlink:href="#bO"/><use transform="matrix(0.05,0,0,0.05,50,0)" xlink:href="#bP"/><use transform="matrix(0.05,0,0,0.05,55,0)" xlink:href="#bQ"/><use transform="matrix(0.05,0,0,0.05,67,0)" xlink:href="#bR"/><use transform="matrix(0.05,0,0,0.05,77,0)" xlink:href="#bS"/><use transform="matrix(0.05,0,0,0.05,89,0)" xlink:href="#bT"/><use transform="matrix(0.05,0,0,0.05,99,0)" xlink:href="#bU"/><use transform="matrix(0.05,0,0,0.05,113.95,0)" xlink:href="#bV"/><use transform="matrix(0.05,0,0,0.05,124.60000000000001,0)" xlink:href="#bW"/><use transform="matrix(0.05,0,0,0.05,135.55,0)" xlink:href="#bX"/><use transform="matrix(0.05,0,0,0.05,148.5,0)" xlink:href="#bY"/></g><path fill="#834187" d="M30-248c118-7 216 8 213 122C240-48 200 0 122 0H30v-248zM63-27c89 8 146-16 146-99s-60-101-146-95v194" id="bZ"/><path fill="#834187" d="M232-93c-1 65-40 97-104 97C67 4 28-28 28-90v-158h33c8 89-33 224 67 224 102 0 64-133 71-224h33v155" id="ca"/><g id="al"><use transform="matrix(0.05,0,0,0.05,0,0)" xlink:href="#bM"/><use transform="matrix(0.05,0,0,0.05,12,0)" xlink:href="#bN"/><use transform="matrix(0.05,0,0,0.05,26,0)" xlink:href="#bO"/><use transform="matrix(0.05,0,0,0.05,38,0)" xlink:href="#bO"/><use transform="matrix(0.05,0,0,0.05,50,0)" xlink:href="#bP"/><use transform="matrix(0.05,0,0,0.05,55,0)" xlink:href="#bQ"/><use transform="matrix(0.05,0,0,0.05,67,0)" xlink:href="#bR"/><use transform="matrix(0.05,0,0,0.05,77,0)" xlink:href="#bS"/><use transform="matrix(0.05,0,0,0.05,89,0)" xlink:href="#bT"/><use transform="matrix(0.05,0,0,0.05,99,0)" xlink:href="#bZ"/><use transform="matrix(0.05,0,0,0.05,111.95,0)" xlink:href="#ca"/><use transform="matrix(0.05,0,0,0.05,124.9,0)" xlink:href="#bM"/><use transform="matrix(0.05,0,0,0.05,136.9,0)" xlink:href="#bR"/><use transform="matrix(0.05,0,0,0.05,146.9,0)" xlink:href="#bP"/><use transform="matrix(0.05,0,0,0.05,151.9,0)" xlink:href="#bX"/><use transform="matrix(0.05,0,0,0.05,164.85,0)" xlink:href="#bV"/><use transform="matrix(0.05,0,0,0.05,175.5,0)" xlink:href="#bW"/><use transform="matrix(0.05,0,0,0.05,186.45,0)" xlink:href="#bS"/></g></defs></g></svg>