<svg xmlns="http://www.w3.org/2000/svg" xmlns:xlink="http://www.w3.org/1999/xlink" xmlns:lucid="lucid" width="2106" height="1178"><g transform="translate(0 -2730)" lucid:page-tab-id="9QdXEr~dY.W-"><path d="M0 0h3615.47v6718.57H0z" fill="#fff"/><path d="M45.8 2768c0-4.42 3.57-8 8-8h1916.38c4.42 0 8 3.58 8 8v1104c0 4.42-3.58 8-8 8H53.78c-4.4 0-8-3.58-8-8zM40 1740.3c0-4.42 3.58-8 8-8h3084c4.42 0 8 3.58 8 8V2732c0 4.42-3.58 8-8 8H48c-4.42 0-8-3.58-8-8z" stroke="#fff" fill="#fff"/><use xlink:href="#a" transform="matrix(1,0,0,1,60,1732.2983170766129) translate(1525 507.59999999999997)"/><path d="M64.8 2788c0-4.42 3.57-8 8-8h280.38c4.4 0 8 3.58 8 8v44c0 4.42-3.6 8-8 8H72.78c-4.4 0-8-3.58-8-8z" stroke="#000" stroke-opacity="0" fill="#fff" fill-opacity="0"/><use xlink:href="#b" transform="matrix(1,0,0,1,84.79215046781974,2780) translate(11.913580246913554 34.888888888888886)"/><use xlink:href="#c" transform="matrix(1,0,0,1,84.79215046781974,2780) translate(101.2716049382716 34.888888888888886)"/><use xlink:href="#d" transform="matrix(1,0,0,1,84.79215046781974,2780) translate(152.80864197530866 34.888888888888886)"/><use xlink:href="#e" transform="matrix(1,0,0,1,84.79215046781974,2780) translate(217.92592592592592 34.888888888888886)"/><path d="M124.7 2864.56c0-4.42 3.57-8 8-8h16.6c4.42 0 8 3.58 8 8v10.88c0 4.42-3.58 8-8 8h-16.6c-4.43 0-8-3.58-8-8z" stroke="#333" fill="#ff8f80"/><path d="M124.7 2924.56c0-4.42 3.57-8 8-8h16.6c4.42 0 8 3.58 8 8v10.88c0 4.42-3.58 8-8 8h-16.6c-4.43 0-8-3.58-8-8z" stroke="#333" fill="#c7e8ac"/><path d="M64.8 2848c0-4.42 3.57-8 8-8h492.66c4.42 0 8 3.58 8 8v44c0 4.42-3.58 8-8 8H72.8c-4.43 0-8-3.58-8-8z" stroke="#000" stroke-opacity="0" fill="#fff" fill-opacity="0"/><use xlink:href="#f" transform="matrix(1,0,0,1,84.7921504678198,2840) translate(85.65 33.6)"/><use xlink:href="#g" transform="matrix(1,0,0,1,84.7921504678198,2840) translate(101.15 33.6)"/><path d="M64.8 2908c0-4.42 3.57-8 8-8h796.94c4.42 0 8 3.58 8 8v44c0 4.42-3.58 8-8 8H72.8c-4.43 0-8-3.58-8-8z" stroke="#000" stroke-opacity="0" fill="#fff" fill-opacity="0"/><use xlink:href="#f" transform="matrix(1,0,0,1,84.7921504678198,2900) translate(81.47500000000002 33.6)"/><use xlink:href="#h" transform="matrix(1,0,0,1,84.7921504678198,2900) translate(96.97500000000002 33.6)"/><use xlink:href="#i" transform="matrix(1,0,0,1,84.7921504678198,2900) translate(362.275 33.6)"/><use xlink:href="#j" transform="matrix(1,0,0,1,84.7921504678198,2900) translate(391.275 33.6)"/><path d="M128.55 3098c0-4.42 3.58-8 8-8H552c4.42 0 8 3.58 8 8v414c0 4.42-3.58 8-8 8H136.55c-4.42 0-8-3.58-8-8z" stroke="#333" fill="#fff"/><path d="M273.22 3068c0-4.42 3.58-8 8-8h126.1c4.43 0 8 3.58 8 8v24c0 4.42-3.57 8-8 8h-126.1c-4.42 0-8-3.58-8-8z" stroke="#000" stroke-opacity="0" fill="#ffeca9"/><use xlink:href="#k" transform="matrix(1,0,0,1,293.21681155387165,3060) translate(6.599999999999994 23.6)"/><use xlink:href="#l" transform="matrix(1,0,0,1,293.21681155387165,3060) translate(52.5 23.6)"/><path d="M147.8 3008c0-4.42 3.58-8 8-8h384c4.42 0 8 3.58 8 8v44c0 4.42-3.58 8-8 8h-384c-4.42 0-8-3.58-8-8z" stroke="#000" stroke-opacity="0" fill="#fff" fill-opacity="0"/><use xlink:href="#m" transform="matrix(1,0,0,1,167.79798176066436,3000) translate(10.687037037037015 23.066666666666663)"/><use xlink:href="#n" transform="matrix(1,0,0,1,167.79798176066436,3000) translate(47.183333333333316 23.066666666666663)"/><use xlink:href="#o" transform="matrix(1,0,0,1,167.79798176066436,3000) translate(112.61666666666665 23.066666666666663)"/><use xlink:href="#p" transform="matrix(1,0,0,1,167.79798176066436,3000) translate(142.42037037037036 23.066666666666663)"/><use xlink:href="#q" transform="matrix(1,0,0,1,167.79798176066436,3000) translate(213.63148148148147 23.066666666666663)"/><use xlink:href="#r" transform="matrix(1,0,0,1,167.79798176066436,3000) translate(232.89074074074074 23.066666666666663)"/><use xlink:href="#s" transform="matrix(1,0,0,1,167.79798176066436,3000) translate(247.3351851851852 23.066666666666663)"/><use xlink:href="#t" transform="matrix(1,0,0,1,167.79798176066436,3000) translate(293.50925925925924 23.066666666666663)"/><use xlink:href="#u" transform="matrix(1,0,0,1,167.79798176066436,3000) translate(122.77592592592592 43.86666666666667)"/><use xlink:href="#v" transform="matrix(1,0,0,1,167.79798176066436,3000) translate(183.3462962962963 43.86666666666667)"/><path d="M305.8 3350c0 33.14-26.85 60-60 60-33.12 0-60-26.86-60-60s26.88-60 60-60c33.15 0 60 26.86 60 60z" stroke="#333" fill="#fff"/><use xlink:href="#w" transform="matrix(1,0,0,1,203.81211482825904,3314) translate(6.524999999999999 39.6)"/><path d="M508.27 3220c0 33.14-26.86 60-60 60s-60-26.86-60-60 26.86-60 60-60 60 26.86 60 60z" stroke="#333" fill="#fff"/><use xlink:href="#x" transform="matrix(1,0,0,1,406.27049703750856,3184) translate(14.024999999999999 32.8)"/><use xlink:href="#y" transform="matrix(1,0,0,1,406.27049703750856,3184) translate(3.954629629629622 49.06666666666667)"/><use xlink:href="#z" transform="matrix(1,0,0,1,406.27049703750856,3184) translate(43.58981481481481 49.06666666666667)"/><path d="M374.4 3120h81.87l12 12v48H374.4z" stroke="#333" fill="#fff"/><path d="M456.27 3120.48V3132h11.52" stroke="#333" fill="#fff"/><use xlink:href="#A" transform="matrix(1,0,0,1,380.39869622019,3127.2) translate(17.525 27.6)"/><path d="M348.54 3338.1l-.45 3.4-1.35 3.25-2.15 2.8-2.8 2.16-3.25 1.35-3.4.45h-8.22v-3h8l2.83-.37 2.52-1.04 2.18-1.68 1.67-2.2 1.04-2.5.37-2.82v-42.1h3zm18.6-116.6h-8l-2.82.37-2.5 1.04-2.2 1.68-1.67 2.2-1.04 2.5-.36 2.82v42.1h-3v-42.3l.45-3.4 1.33-3.25 2.16-2.8 2.8-2.16 3.24-1.35 3.4-.45h8.2zM325.43 3354.64l-14.26-4.64 14.26-4.64z" fill="#333"/><path d="M326.93 3356.7l-20.62-6.7 20.63-6.7zm-10.9-6.7l7.9 2.57v-5.14zM382.92 3220l-14.27 4.64v-9.28z" fill="#333"/><path d="M387.77 3220l-20.62 6.7v-13.4zm-17.62 2.57l7.9-2.57-7.9-2.57z" fill="#333"/><use xlink:href="#B" transform="matrix(1,0,0,1,315.8163059328838,3274.2) translate(0.004999999999999005 14.4)"/><path d="M170.53 3246.47h81.87l12 12v48h-93.87z" stroke="#333" fill="#fff"/><path d="M252.4 3246.95v11.52h11.52" stroke="#333" fill="#fff"/><use xlink:href="#A" transform="matrix(1,0,0,1,176.52746247260356,3253.671634153112) translate(17.525 27.6)"/><path d="M495.05 3443.53c0 33.14-26.86 60-60 60s-60-26.86-60-60 26.86-60 60-60 60 26.86 60 60z" stroke="#333" fill="#fff"/><use xlink:href="#C" transform="matrix(1,0,0,1,393.0485144377336,3407.528365846888) translate(6.524999999999999 39.6)"/><path d="M359.76 3340h81.88l12 12v48h-93.88z" stroke="#333" fill="#fff"/><path d="M441.64 3340.48V3352h11.52" stroke="#333" fill="#fff"/><use xlink:href="#A" transform="matrix(1,0,0,1,365.76386208207816,3347.2) translate(17.525 27.6)"/><path d="M475.75 3396h-3v-49.48h3zm1.4-71.08h-3v-30.38h3z" fill="#333"/><path d="M475.75 3398.8l-3-2.57v-.25h3zM480.3 3293.04h-9.27l4.63-14.27z" fill="#333"/><path d="M482.36 3294.54h-13.4l6.7-20.62zm-9.27-3h5.13l-2.57-7.9z" fill="#333"/><use xlink:href="#B" transform="matrix(1,0,0,1,443.7325019252253,3324.917692260953) translate(0.004999999999999005 14.4)"/><path d="M864.55 3098c0-4.42 3.58-8 8-8H1288c4.4 0 8 3.58 8 8v414c0 4.42-3.6 8-8 8H872.55c-4.42 0-8-3.58-8-8z" stroke="#333" fill="#fff"/><path d="M1009.2 3068c0-4.42 3.6-8 8-8h126.13c4.42 0 8 3.58 8 8v24c0 4.42-3.58 8-8 8H1017.2c-4.4 0-8-3.58-8-8z" stroke="#000" stroke-opacity="0" fill="#ffeca9"/><use xlink:href="#D" transform="matrix(1,0,0,1,1029.2129547568484,3060) translate(23.599999999999994 23.6)"/><path d="M883.8 3008c0-4.42 3.58-8 8-8h384c4.4 0 8 3.58 8 8v44c0 4.42-3.6 8-8 8h-384c-4.42 0-8-3.58-8-8z" stroke="#000" stroke-opacity="0" fill="#fff" fill-opacity="0"/><use xlink:href="#E" transform="matrix(1,0,0,1,903.7941249636408,3000) translate(14.490740740740705 23.066666666666663)"/><use xlink:href="#F" transform="matrix(1,0,0,1,903.7941249636408,3000) translate(52.04629629629627 23.066666666666663)"/><use xlink:href="#G" transform="matrix(1,0,0,1,903.7941249636408,3000) translate(71.30555555555553 23.066666666666663)"/><use xlink:href="#H" transform="matrix(1,0,0,1,903.7941249636408,3000) translate(118.49074074074073 23.066666666666663)"/><use xlink:href="#I" transform="matrix(1,0,0,1,903.7941249636408,3000) translate(150.22037037037038 23.066666666666663)"/><use xlink:href="#J" transform="matrix(1,0,0,1,903.7941249636408,3000) translate(215.6537037037037 23.066666666666663)"/><use xlink:href="#K" transform="matrix(1,0,0,1,903.7941249636408,3000) translate(232.9388888888889 23.066666666666663)"/><use xlink:href="#L" transform="matrix(1,0,0,1,903.7941249636408,3000) translate(300.3462962962963 23.066666666666663)"/><use xlink:href="#M" transform="matrix(1,0,0,1,903.7941249636408,3000) translate(335.8796296296297 23.066666666666663)"/><use xlink:href="#N" transform="matrix(1,0,0,1,903.7941249636408,3000) translate(113.17037037037036 43.86666666666667)"/><use xlink:href="#O" transform="matrix(1,0,0,1,903.7941249636408,3000) translate(149.71481481481482 43.86666666666667)"/><use xlink:href="#P" transform="matrix(1,0,0,1,903.7941249636408,3000) translate(217.98888888888888 43.86666666666667)"/><path d="M1041.8 3350c0 33.14-26.85 60-60 60-33.13 0-60-26.86-60-60s26.87-60 60-60c33.15 0 60 26.86 60 60z" stroke="#333" fill="#fff"/><use xlink:href="#w" transform="matrix(1,0,0,1,939.8082580312355,3314) translate(6.524999999999999 39.6)"/><path d="M1244.27 3220c0 33.14-26.87 60-60 60-33.14 0-60-26.86-60-60s26.86-60 60-60c33.13 0 60 26.86 60 60z" stroke="#333" fill="#fff"/><use xlink:href="#x" transform="matrix(1,0,0,1,1142.266640240485,3184) translate(14.024999999999999 32.8)"/><use xlink:href="#y" transform="matrix(1,0,0,1,1142.266640240485,3184) translate(3.954629629629622 49.06666666666667)"/><use xlink:href="#z" transform="matrix(1,0,0,1,1142.266640240485,3184) translate(43.58981481481481 49.06666666666667)"/><path d="M1110.4 3120h81.87l12 12v48h-93.88z" stroke="#333" fill="#fff"/><path d="M1192.27 3120.48V3132h11.52" stroke="#333" fill="#fff"/><use xlink:href="#A" transform="matrix(1,0,0,1,1116.3948394231663,3127.2) translate(17.525 27.6)"/><path d="M1084.54 3338.1l-.45 3.4-1.35 3.25-2.16 2.8-2.8 2.16-3.26 1.35-3.4.45h-8.2v-3h8l2.82-.37 2.5-1.04 2.2-1.68 1.67-2.2 1.04-2.5.37-2.82v-42.1h3zm18.6-116.6h-8l-2.82.37-2.52 1.04-2.18 1.68-1.67 2.2-1.04 2.5-.36 2.82v42.1h-3v-42.3l.44-3.4 1.35-3.25 2.15-2.8 2.8-2.16 3.25-1.35 3.4-.45h8.22zM1061.43 3354.64l-14.27-4.64 14.27-4.64z" fill="#333"/><path d="M1062.93 3356.7l-20.62-6.7 20.63-6.7zm-10.9-6.7l7.9 2.57v-5.14zM1118.9 3220l-14.25 4.64v-9.28z" fill="#333"/><path d="M1123.77 3220l-20.62 6.7v-13.4zm-17.62 2.57l7.9-2.57-7.9-2.57z" fill="#333"/><use xlink:href="#B" transform="matrix(1,0,0,1,1051.8124491358603,3274.2) translate(0.004999999999999005 14.4)"/><path d="M906.52 3246.47h81.88l12 12v48h-93.88z" stroke="#333" fill="#fff"/><path d="M988.4 3246.95v11.52h11.52" stroke="#333" fill="#fff"/><use xlink:href="#A" transform="matrix(1,0,0,1,912.5236056755799,3253.671634153112) translate(17.525 27.6)"/><path d="M1231.04 3443.53c0 33.14-26.86 60-60 60-33.13 0-60-26.86-60-60s26.87-60 60-60c33.14 0 60 26.86 60 60z" stroke="#333" fill="#fff"/><use xlink:href="#C" transform="matrix(1,0,0,1,1129.04465764071,3407.528365846888) translate(6.524999999999999 39.6)"/><path d="M1095.76 3340h81.87l12 12v48h-93.87z" stroke="#333" fill="#fff"/><path d="M1177.63 3340.48V3352h11.53" stroke="#333" fill="#fff"/><use xlink:href="#A" transform="matrix(1,0,0,1,1101.7600052850544,3347.2) translate(17.525 27.6)"/><path d="M1211.75 3396h-3v-49.48h3zm1.4-71.08h-3v-30.38h3z" fill="#333"/><path d="M1211.75 3398.8l-3-2.57v-.25h3zM1216.3 3293.04h-9.28l4.64-14.27z" fill="#333"/><path d="M1218.36 3294.54h-13.4l6.7-20.62zm-9.27-3h5.13l-2.57-7.9z" fill="#333"/><use xlink:href="#B" transform="matrix(1,0,0,1,1179.728645128202,3324.917692260953) translate(0.004999999999999005 14.4)"/><path d="M783.87 3305c0 33.14-26.86 60-60 60s-60-26.86-60-60 26.86-60 60-60 60 26.86 60 60z" stroke="#333" fill="#fff"/><use xlink:href="#w" transform="matrix(1,0,0,1,681.8712337475863,3269) translate(6.524999999999999 39.6)"/><path d="M805 3305h38.43" stroke="#333" stroke-width="3" fill="none"/><path d="M789.23 3305l14.26-4.64v9.28zM859.2 3305l-14.27 4.64v-9.28z" stroke="#333" stroke-width="3" fill="#333"/><path d="M646.13 3200H728l12 12v48h-93.87z" stroke="#333" fill="#fff"/><path d="M728 3200.48V3212h11.52" stroke="#333" fill="#fff"/><use xlink:href="#Q" transform="matrix(1,0,0,1,652.1281991826811,3207.2) translate(17.525 27.6)"/><path d="M1437.06 2858c0-4.42 3.6-8 8-8h415.45c4.43 0 8 3.58 8 8v414c0 4.42-3.57 8-8 8h-415.44c-4.4 0-8-3.58-8-8z" stroke="#333" fill="#ff8f80"/><path d="M1581.73 2828c0-4.42 3.58-8 8-8h126.12c4.42 0 8 3.58 8 8v24c0 4.42-3.58 8-8 8h-126.12c-4.42 0-8-3.58-8-8z" stroke="#000" stroke-opacity="0" fill="#ffeca9"/><use xlink:href="#R" transform="matrix(1,0,0,1,1601.7295029624897,2820) translate(10.099999999999994 23.6)"/><use xlink:href="#l" transform="matrix(1,0,0,1,1601.7295029624897,2820) translate(49 23.6)"/><path d="M1456.3 2768c0-4.42 3.6-8 8-8h384c4.43 0 8 3.58 8 8v44c0 4.42-3.57 8-8 8h-384c-4.4 0-8-3.58-8-8z" stroke="#000" stroke-opacity="0" fill="#fff" fill-opacity="0"/><use xlink:href="#S" transform="matrix(1,0,0,1,1476.3106731692824,2760) translate(138.6648148148148 33.46666666666667)"/><path d="M1614.32 3110c0 33.14-26.86 60-60 60-33.13 0-60-26.86-60-60s26.87-60 60-60c33.14 0 60 26.86 60 60z" stroke="#333" fill="#fff"/><use xlink:href="#w" transform="matrix(1,0,0,1,1512.324806236877,3074) translate(6.524999999999999 39.6)"/><path d="M1816.78 2980c0 33.14-26.86 60-60 60-33.13 0-60-26.86-60-60s26.87-60 60-60c33.14 0 60 26.86 60 60z" stroke="#333" fill="#fff"/><use xlink:href="#x" transform="matrix(1,0,0,1,1714.7831884461266,2944) translate(14.024999999999999 32.8)"/><use xlink:href="#y" transform="matrix(1,0,0,1,1714.7831884461266,2944) translate(3.954629629629622 49.06666666666667)"/><use xlink:href="#z" transform="matrix(1,0,0,1,1714.7831884461266,2944) translate(43.58981481481481 49.06666666666667)"/><path d="M1682.9 2880h81.88l12 12v48h-93.87z" stroke="#333" fill="#fff"/><path d="M1764.78 2880.48V2892h11.53" stroke="#333" fill="#fff"/><use xlink:href="#A" transform="matrix(1,0,0,1,1688.911387628808,2887.2) translate(17.525 27.6)"/><path d="M1657.05 3098.1l-.44 3.4-1.34 3.25-2.15 2.8-2.8 2.16-3.24 1.35-3.4.45h-8.2v-3h8l2.82-.37 2.5-1.04 2.2-1.68 1.66-2.2 1.04-2.5.37-2.82v-42.1h3zm18.6-116.6h-8l-2.82.37-2.5 1.04-2.2 1.68-1.67 2.2-1.04 2.5-.37 2.82v42.1h-3v-42.3l.45-3.4 1.34-3.25 2.16-2.8 2.8-2.16 3.25-1.35 3.4-.45h8.2zM1633.95 3114.64l-14.27-4.64 14.27-4.64z" fill="#333"/><path d="M1635.45 3116.7l-20.62-6.7 20.62-6.7zm-10.92-6.7l7.92 2.57v-5.14zM1691.43 2980l-14.27 4.64v-9.28z" fill="#333"/><path d="M1696.28 2980l-20.62 6.7v-13.4zm-17.62 2.57l7.9-2.57-7.9-2.57z" fill="#333"/><use xlink:href="#B" transform="matrix(1,0,0,1,1624.328997341502,3034.2) translate(0.004999999999999005 14.4)"/><path d="M1479.04 3006.47h81.87l12 12v48h-93.86z" stroke="#333" fill="#fff"/><path d="M1560.9 3006.95v11.52h11.54" stroke="#333" fill="#fff"/><use xlink:href="#A" transform="matrix(1,0,0,1,1485.0401538812214,3013.671634153112) translate(17.525 27.6)"/><path d="M1803.56 3203.53c0 33.14-26.86 60-60 60s-60-26.86-60-60 26.86-60 60-60 60 26.86 60 60z" stroke="#333" fill="#fff"/><use xlink:href="#C" transform="matrix(1,0,0,1,1701.5612058463516,3167.528365846888) translate(6.524999999999999 39.6)"/><path d="M1668.28 3100h81.87l12 12v48h-93.87z" stroke="#333" fill="#fff"/><path d="M1750.15 3100.48V3112h11.52" stroke="#333" fill="#fff"/><use xlink:href="#A" transform="matrix(1,0,0,1,1674.276553490696,3107.2) translate(17.525 27.6)"/><path d="M1784.26 3156h-3v-49.48h3zm1.42-71.08h-3v-30.38h3z" fill="#333"/><path d="M1784.26 3158.8l-3-2.57v-.25h3zM1788.8 3053.04h-9.26l4.64-14.27z" fill="#333"/><path d="M1790.88 3054.54h-13.4l6.7-20.62zm-9.27-3h5.15l-2.57-7.9z" fill="#333"/><use xlink:href="#B" transform="matrix(1,0,0,1,1752.2451933338434,3084.917692260953) translate(0.004999999999999005 14.4)"/><path d="M1405.3 3398c0-4.42 3.58-8 8-8h478.98c4.4 0 8 3.58 8 8v414c0 4.42-3.6 8-8 8H1413.3c-4.42 0-8-3.58-8-8z" stroke="#333" fill="#c7e8ac"/><path d="M1589.57 3368c0-4.42 3.58-8 8-8h126.12c4.4 0 8 3.58 8 8v24c0 4.42-3.6 8-8 8h-126.13c-4.42 0-8-3.58-8-8z" stroke="#000" stroke-opacity="0" fill="#ffeca9"/><g><use xlink:href="#R" transform="matrix(1,0,0,1,1609.5714335798084,3360) translate(10.099999999999994 23.6)"/><use xlink:href="#l" transform="matrix(1,0,0,1,1609.5714335798084,3360) translate(49 23.6)"/></g><path d="M1464.15 3308c0-4.42 3.58-8 8-8h384c4.42 0 8 3.58 8 8v44c0 4.42-3.58 8-8 8h-384c-4.42 0-8-3.58-8-8z" stroke="#000" stroke-opacity="0" fill="#fff" fill-opacity="0"/><g><use xlink:href="#T" transform="matrix(1,0,0,1,1484.1526037866008,3300) translate(10.20555555555552 23.066666666666663)"/><use xlink:href="#U" transform="matrix(1,0,0,1,1484.1526037866008,3300) translate(44.82407407407405 23.066666666666663)"/><use xlink:href="#V" transform="matrix(1,0,0,1,1484.1526037866008,3300) translate(81.3685185185185 23.066666666666663)"/><use xlink:href="#W" transform="matrix(1,0,0,1,1484.1526037866008,3300) translate(115.02407407407406 23.066666666666663)"/><use xlink:href="#X" transform="matrix(1,0,0,1,1484.1526037866008,3300) translate(132.30925925925925 23.066666666666663)"/><use xlink:href="#q" transform="matrix(1,0,0,1,1484.1526037866008,3300) translate(185.27222222222224 23.066666666666663)"/><use xlink:href="#Y" transform="matrix(1,0,0,1,1484.1526037866008,3300) translate(204.5314814814815 23.066666666666663)"/><use xlink:href="#Z" transform="matrix(1,0,0,1,1484.1526037866008,3300) translate(233.4203703703704 23.066666666666663)"/><use xlink:href="#aa" transform="matrix(1,0,0,1,1484.1526037866008,3300) translate(294.03888888888895 23.066666666666663)"/><use xlink:href="#v" transform="matrix(1,0,0,1,1484.1526037866008,3300) translate(153.0611111111111 43.86666666666667)"/></g><path d="M1582.56 3650c0 33.14-26.86 60-60 60s-60-26.86-60-60 26.86-60 60-60 60 26.86 60 60z" stroke="#333" fill="#fff"/><g><use xlink:href="#w" transform="matrix(1,0,0,1,1480.5610233900682,3614) translate(6.524999999999999 39.6)"/></g><path d="M1785.02 3520c0 33.14-26.86 60-60 60s-60-26.86-60-60 26.86-60 60-60 60 26.86 60 60z" stroke="#333" fill="#fff"/><g><use xlink:href="#x" transform="matrix(1,0,0,1,1683.0194055993177,3484) translate(14.024999999999999 32.8)"/><use xlink:href="#y" transform="matrix(1,0,0,1,1683.0194055993177,3484) translate(3.954629629629622 49.06666666666667)"/><use xlink:href="#z" transform="matrix(1,0,0,1,1683.0194055993177,3484) translate(43.58981481481481 49.06666666666667)"/></g><path d="M1607.76 3430h81.87l12 12v48h-93.87z" stroke="#333" fill="#fff"/><path d="M1689.63 3430.48V3442h11.52" stroke="#333" fill="#fff"/><g><use xlink:href="#A" transform="matrix(1,0,0,1,1613.7583982211904,3437.2) translate(17.525 27.6)"/></g><path d="M1625.3 3638.1l-.46 3.4-1.34 3.25-2.15 2.8-2.8 2.16-3.25 1.35-3.4.45h-8.22v-3h8l2.83-.37 2.52-1.04 2.2-1.68 1.66-2.2 1.04-2.5.37-2.82v-42.1h3zm18.6-116.6h-8l-2.83.37-2.5 1.04-2.2 1.68-1.67 2.2-1.04 2.5-.37 2.82v42.1h-3v-42.3l.44-3.4 1.34-3.25 2.16-2.8 2.8-2.16 3.25-1.35 3.4-.45h8.2zM1602.18 3654.64l-14.26-4.64 14.26-4.64z" fill="#333"/><path d="M1603.68 3656.7l-20.62-6.7 20.62-6.7zm-10.9-6.7l7.9 2.57v-5.14zM1659.66 3520l-14.26 4.64v-9.28z" fill="#333"/><path d="M1664.52 3520l-20.62 6.7v-13.4zm-17.62 2.57l7.9-2.57-7.9-2.57z" fill="#333"/><g><use xlink:href="#B" transform="matrix(1,0,0,1,1592.565214494693,3574.2) translate(0.004999999999999005 14.4)"/></g><path d="M1447.28 3546.47h81.87l12 12v48h-93.87z" stroke="#333" fill="#fff"/><path d="M1529.15 3546.95v11.52h11.52" stroke="#333" fill="#fff"/><g><use xlink:href="#Q" transform="matrix(1,0,0,1,1453.2763710344125,3553.671634153112) translate(17.525 27.6)"/></g><path d="M1771.8 3743.53c0 33.14-26.87 60-60 60-33.14 0-60-26.86-60-60s26.86-60 60-60c33.13 0 60 26.86 60 60z" stroke="#333" fill="#fff"/><g><use xlink:href="#C" transform="matrix(1,0,0,1,1669.7974229995427,3707.528365846888) translate(6.524999999999999 39.6)"/></g><path d="M1636.5 3640h81.88l12 12v48h-93.87z" stroke="#333" fill="#fff"/><path d="M1718.38 3640.48V3652h11.53" stroke="#333" fill="#fff"/><g><use xlink:href="#A" transform="matrix(1,0,0,1,1642.512770643887,3647.2) translate(17.525 27.6)"/></g><path d="M1752.5 3696h-3v-49.48h3zm1.4-71.08h-3v-30.38h3z" fill="#333"/><path d="M1752.5 3698.8l-3-2.57v-.25h3zM1757.05 3593.04h-9.27l4.63-14.27z" fill="#333"/><path d="M1759.1 3594.54h-13.4l6.7-20.62zm-9.26-3h5.14l-2.57-7.9z" fill="#333"/><g><use xlink:href="#B" transform="matrix(1,0,0,1,1720.4814104870347,3624.917692260953) translate(0.004999999999999005 14.4)"/></g><path d="M1743.95 3431.76h81.87l12 12v48h-93.87z" stroke="#333" fill="#834187"/><path d="M1825.82 3432.24v11.52h11.52" stroke="#333" fill="#834187"/><g><use xlink:href="#ab" transform="matrix(1,0,0,1,1749.9453524998771,3438.964182923444) translate(17.525 27.6)"/></g><defs><path fill="#333" d="M27 0v-27h64v-190l-56 39v-29l58-41h29v221h61V0H27" id="ac"/><use transform="matrix(0.05,0,0,0.05,0,0)" xlink:href="#ac" id="a"/><path fill="#333" d="M238-95c0 69-44 99-111 99C63 4 22-25 22-93v-155h51v151c-1 38 19 59 55 60 90 1 49-130 58-211h52v153" id="ad"/><path fill="#333" d="M135-194c53 0 70 44 70 98 0 56-19 98-73 100-31 1-45-17-59-34 3 33 2 69 2 105H25l-1-265h48c2 10 0 23 3 31 11-24 29-35 60-35zM114-30c33 0 39-31 40-66 0-38-9-64-40-64-56 0-55 130 0 130" id="ae"/><path fill="#333" d="M88-194c31-1 46 15 58 34l-1-101h50l1 261h-48c-2-10 0-23-3-31C134-8 116 4 84 4 32 4 16-41 15-95c0-56 19-97 73-99zm17 164c33 0 40-30 41-66 1-37-9-64-41-64s-38 30-39 65c0 43 13 65 39 65" id="af"/><path fill="#333" d="M133-34C117-15 103 5 69 4 32 3 11-16 11-54c-1-60 55-63 116-61 1-26-3-47-28-47-18 1-26 9-28 27l-52-2c7-38 36-58 82-57s74 22 75 68l1 82c-1 14 12 18 25 15v27c-30 8-71 5-69-32zm-48 3c29 0 43-24 42-57-32 0-66-3-65 30 0 17 8 27 23 27" id="ag"/><path fill="#333" d="M115-3C79 11 28 4 28-45v-112H4v-33h27l15-45h31v45h36v33H77v99c-1 23 16 31 38 25v30" id="ah"/><path fill="#333" d="M185-48c-13 30-37 53-82 52C43 2 14-33 14-96s30-98 90-98c62 0 83 45 84 108H66c0 31 8 55 39 56 18 0 30-7 34-22zm-45-69c5-46-57-63-70-21-2 6-4 13-4 21h74" id="ai"/><g id="b"><use transform="matrix(0.06790123456790124,0,0,0.06790123456790124,0,0)" xlink:href="#ad"/><use transform="matrix(0.06790123456790124,0,0,0.06790123456790124,17.58641975308642,0)" xlink:href="#ae"/><use transform="matrix(0.06790123456790124,0,0,0.06790123456790124,32.45679012345679,0)" xlink:href="#af"/><use transform="matrix(0.06790123456790124,0,0,0.06790123456790124,47.327160493827165,0)" xlink:href="#ag"/><use transform="matrix(0.06790123456790124,0,0,0.06790123456790124,60.90740740740741,0)" xlink:href="#ah"/><use transform="matrix(0.06790123456790124,0,0,0.06790123456790124,68.98765432098766,0)" xlink:href="#ai"/></g><path fill="#333" d="M137-138c1-29-70-34-71-4 15 46 118 7 119 86 1 83-164 76-172 9l43-7c4 19 20 25 44 25 33 8 57-30 24-41C81-84 22-81 20-136c-2-80 154-74 161-7" id="aj"/><g id="c"><use transform="matrix(0.06790123456790124,0,0,0.06790123456790124,0,0)" xlink:href="#ad"/><use transform="matrix(0.06790123456790124,0,0,0.06790123456790124,17.58641975308642,0)" xlink:href="#aj"/><use transform="matrix(0.06790123456790124,0,0,0.06790123456790124,31.16666666666667,0)" xlink:href="#ai"/></g><path fill="#333" d="M67-125c0 53 21 87 73 88 37 1 54-22 65-47l45 17C233-25 199 4 140 4 58 4 20-42 15-125 8-235 124-281 211-232c18 10 29 29 36 50l-46 12c-8-25-30-41-62-41-52 0-71 34-72 86" id="ak"/><g id="d"><use transform="matrix(0.06790123456790124,0,0,0.06790123456790124,0,0)" xlink:href="#ak"/><use transform="matrix(0.06790123456790124,0,0,0.06790123456790124,17.58641975308642,0)" xlink:href="#ag"/><use transform="matrix(0.06790123456790124,0,0,0.06790123456790124,31.16666666666667,0)" xlink:href="#aj"/><use transform="matrix(0.06790123456790124,0,0,0.06790123456790124,44.74691358024692,0)" xlink:href="#ai"/></g><path fill="#333" d="M160-152l-12 59h37v26h-43L128 0h-28l14-67H60L46 0H20l13-67H6v-26h33l13-59H15v-26h42l15-67h27l-15 67h54l15-67h27l-14 67h28v26h-34zm-81 0L66-93h55l12-59H79" id="al"/><path fill="#333" d="M165-50V0h-47v-50H5v-38l105-160h55v161h33v37h-33zm-47-37l2-116L46-87h72" id="am"/><g id="e"><use transform="matrix(0.06790123456790124,0,0,0.06790123456790124,0,0)" xlink:href="#al"/><use transform="matrix(0.06790123456790124,0,0,0.06790123456790124,13.580246913580249,0)" xlink:href="#am"/></g><path fill="#333" d="M18-150v-26h174v26H18zm0 90v-26h174v26H18" id="an"/><use transform="matrix(0.05,0,0,0.05,0,0)" xlink:href="#an" id="f"/><path fill="#333" d="M30-248c87 1 191-15 191 75 0 78-77 80-158 76V0H30v-248zm33 125c57 0 124 11 124-50 0-59-68-47-124-48v98" id="ao"/><path fill="#333" d="M233-177c-1 41-23 64-60 70L243 0h-38l-65-103H63V0H30v-248c88 3 205-21 203 71zM63-129c60-2 137 13 137-47 0-61-80-42-137-45v92" id="ap"/><path fill="#333" d="M30 0v-248h187v28H63v79h144v27H63v87h162V0H30" id="aq"/><path fill="#333" d="M137 0h-34L2-248h35l83 218 83-218h36" id="ar"/><path fill="#333" d="M190 0L58-211 59 0H30v-248h39L202-35l-2-213h31V0h-41" id="as"/><path fill="#333" d="M127-220V0H93v-220H8v-28h204v28h-85" id="at"/><path fill="#333" d="M-5 72V49h209v23H-5" id="au"/><path fill="#333" d="M33 0v-248h34V0H33" id="av"/><path fill="#333" d="M30-248c118-7 216 8 213 122C240-48 200 0 122 0H30v-248zM63-27c89 8 146-16 146-99s-60-101-146-95v194" id="aw"/><path fill="#333" d="M232-93c-1 65-40 97-104 97C67 4 28-28 28-90v-158h33c8 89-33 224 67 224 102 0 64-133 71-224h33v155" id="ax"/><path fill="#333" d="M205 0l-28-72H64L36 0H1l101-248h38L239 0h-34zm-38-99l-47-123c-12 45-31 82-46 123h93" id="ay"/><path fill="#333" d="M185-189c-5-48-123-54-124 2 14 75 158 14 163 119 3 78-121 87-175 55-17-10-28-26-33-46l33-7c5 56 141 63 141-1 0-78-155-14-162-118-5-82 145-84 179-34 5 7 8 16 11 25" id="az"/><path fill="#333" d="M240 0l2-218c-23 76-54 145-80 218h-23L58-218 59 0H30v-248h44l77 211c21-75 51-140 76-211h43V0h-30" id="aA"/><path fill="#333" d="M140-251c81 0 123 46 123 126C263-46 219 4 140 4 59 4 17-45 17-125s42-126 123-126zm0 227c63 0 89-41 89-101s-29-99-89-99c-61 0-89 39-89 99S79-25 140-24" id="aB"/><g id="g"><use transform="matrix(0.05,0,0,0.05,0,0)" xlink:href="#ao"/><use transform="matrix(0.05,0,0,0.05,12,0)" xlink:href="#ap"/><use transform="matrix(0.05,0,0,0.05,24.950000000000003,0)" xlink:href="#aq"/><use transform="matrix(0.05,0,0,0.05,36.95,0)" xlink:href="#ar"/><use transform="matrix(0.05,0,0,0.05,48.95,0)" xlink:href="#aq"/><use transform="matrix(0.05,0,0,0.05,60.95,0)" xlink:href="#as"/><use transform="matrix(0.05,0,0,0.05,73.9,0)" xlink:href="#at"/><use transform="matrix(0.05,0,0,0.05,84.85000000000001,0)" xlink:href="#au"/><use transform="matrix(0.05,0,0,0.05,94.85000000000001,0)" xlink:href="#aq"/><use transform="matrix(0.05,0,0,0.05,106.85000000000001,0)" xlink:href="#av"/><use transform="matrix(0.05,0,0,0.05,111.85000000000001,0)" xlink:href="#aw"/><use transform="matrix(0.05,0,0,0.05,124.80000000000001,0)" xlink:href="#au"/><use transform="matrix(0.05,0,0,0.05,134.8,0)" xlink:href="#ax"/><use transform="matrix(0.05,0,0,0.05,147.75,0)" xlink:href="#ao"/><use transform="matrix(0.05,0,0,0.05,159.75,0)" xlink:href="#aw"/><use transform="matrix(0.05,0,0,0.05,172.7,0)" xlink:href="#ay"/><use transform="matrix(0.05,0,0,0.05,183.35,0)" xlink:href="#at"/><use transform="matrix(0.05,0,0,0.05,194.29999999999998,0)" xlink:href="#aq"/><use transform="matrix(0.05,0,0,0.05,206.29999999999995,0)" xlink:href="#az"/><use transform="matrix(0.05,0,0,0.05,218.29999999999995,0)" xlink:href="#au"/><use transform="matrix(0.05,0,0,0.05,228.29999999999995,0)" xlink:href="#aA"/><use transform="matrix(0.05,0,0,0.05,243.24999999999997,0)" xlink:href="#aB"/><use transform="matrix(0.05,0,0,0.05,257.25,0)" xlink:href="#aw"/><use transform="matrix(0.05,0,0,0.05,270.2,0)" xlink:href="#aq"/></g><path fill="#333" d="M30 0v-248h33v221h125V0H30" id="aC"/><path fill="#333" d="M266 0h-40l-56-210L115 0H75L2-248h35L96-30l15-64 43-154h32l59 218 59-218h35" id="aD"/><g id="h"><use transform="matrix(0.05,0,0,0.05,0,0)" xlink:href="#ay"/><use transform="matrix(0.05,0,0,0.05,12,0)" xlink:href="#aC"/><use transform="matrix(0.05,0,0,0.05,22,0)" xlink:href="#aC"/><use transform="matrix(0.05,0,0,0.05,32,0)" xlink:href="#aB"/><use transform="matrix(0.05,0,0,0.05,46,0)" xlink:href="#aD"/><use transform="matrix(0.05,0,0,0.05,62.95,0)" xlink:href="#au"/><use transform="matrix(0.05,0,0,0.05,72.95,0)" xlink:href="#aq"/><use transform="matrix(0.05,0,0,0.05,84.95,0)" xlink:href="#av"/><use transform="matrix(0.05,0,0,0.05,89.95,0)" xlink:href="#aw"/><use transform="matrix(0.05,0,0,0.05,102.9,0)" xlink:href="#au"/><use transform="matrix(0.05,0,0,0.05,112.9,0)" xlink:href="#ax"/><use transform="matrix(0.05,0,0,0.05,125.85000000000001,0)" xlink:href="#ao"/><use transform="matrix(0.05,0,0,0.05,137.85000000000002,0)" xlink:href="#aw"/><use transform="matrix(0.05,0,0,0.05,150.8,0)" xlink:href="#ay"/><use transform="matrix(0.05,0,0,0.05,161.45000000000002,0)" xlink:href="#at"/><use transform="matrix(0.05,0,0,0.05,172.4,0)" xlink:href="#aq"/><use transform="matrix(0.05,0,0,0.05,184.4,0)" xlink:href="#az"/><use transform="matrix(0.05,0,0,0.05,196.4,0)" xlink:href="#au"/><use transform="matrix(0.05,0,0,0.05,206.4,0)" xlink:href="#aA"/><use transform="matrix(0.05,0,0,0.05,221.35000000000002,0)" xlink:href="#aB"/><use transform="matrix(0.05,0,0,0.05,235.35000000000002,0)" xlink:href="#aw"/><use transform="matrix(0.05,0,0,0.05,248.29999999999995,0)" xlink:href="#aq"/></g><path fill="#333" d="M234-2c-28 10-62 0-77-18C117 19 8 12 13-65c3-43 29-61 60-76-25-40-17-114 47-108 35 3 59 15 59 50 0 44-40 53-71 69 14 26 32 50 51 72 14-21 24-43 30-72l26 8c-9 33-21 57-38 82 13 13 33 22 57 15v23zM97-151c25-10 52-18 56-48-1-18-13-29-33-29-42 0-39 50-23 77zM42-66c-3 51 71 58 98 28-20-24-41-51-56-80-23 10-40 24-42 52" id="aE"/><g id="i"><use transform="matrix(0.05,0,0,0.05,0,0)" xlink:href="#aE"/><use transform="matrix(0.05,0,0,0.05,12,0)" xlink:href="#aE"/></g><g id="j"><use transform="matrix(0.05,0,0,0.05,0,0)" xlink:href="#aA"/><use transform="matrix(0.05,0,0,0.05,14.950000000000001,0)" xlink:href="#ax"/><use transform="matrix(0.05,0,0,0.05,27.900000000000002,0)" xlink:href="#aC"/><use transform="matrix(0.05,0,0,0.05,36.55,0)" xlink:href="#at"/><use transform="matrix(0.05,0,0,0.05,47.5,0)" xlink:href="#av"/><use transform="matrix(0.05,0,0,0.05,52.5,0)" xlink:href="#ao"/><use transform="matrix(0.05,0,0,0.05,64.5,0)" xlink:href="#aC"/><use transform="matrix(0.05,0,0,0.05,74.5,0)" xlink:href="#aq"/><use transform="matrix(0.05,0,0,0.05,86.5,0)" xlink:href="#au"/><use transform="matrix(0.05,0,0,0.05,96.5,0)" xlink:href="#aq"/><use transform="matrix(0.05,0,0,0.05,108.5,0)" xlink:href="#av"/><use transform="matrix(0.05,0,0,0.05,113.5,0)" xlink:href="#aw"/><use transform="matrix(0.05,0,0,0.05,126.45,0)" xlink:href="#az"/><use transform="matrix(0.05,0,0,0.05,138.45,0)" xlink:href="#au"/><use transform="matrix(0.05,0,0,0.05,148.45,0)" xlink:href="#ay"/><use transform="matrix(0.05,0,0,0.05,160.45,0)" xlink:href="#aC"/><use transform="matrix(0.05,0,0,0.05,170.45,0)" xlink:href="#aC"/><use transform="matrix(0.05,0,0,0.05,180.45,0)" xlink:href="#aB"/><use transform="matrix(0.05,0,0,0.05,194.45,0)" xlink:href="#aD"/><use transform="matrix(0.05,0,0,0.05,211.39999999999998,0)" xlink:href="#aq"/><use transform="matrix(0.05,0,0,0.05,223.39999999999998,0)" xlink:href="#aw"/><use transform="matrix(0.05,0,0,0.05,236.34999999999997,0)" xlink:href="#au"/><use transform="matrix(0.05,0,0,0.05,246.34999999999997,0)" xlink:href="#aA"/><use transform="matrix(0.05,0,0,0.05,261.29999999999995,0)" xlink:href="#aB"/><use transform="matrix(0.05,0,0,0.05,275.29999999999995,0)" xlink:href="#aw"/><use transform="matrix(0.05,0,0,0.05,288.24999999999994,0)" xlink:href="#aq"/></g><path fill="#333" d="M169-182c-1-43-94-46-97-3 18 66 151 10 154 114 3 95-165 93-204 36-6-8-10-19-12-30l50-8c3 46 112 56 116 5-17-69-150-10-154-114-4-87 153-88 188-35 5 8 8 18 10 28" id="aF"/><path fill="#333" d="M135-150c-39-12-60 13-60 57V0H25l-1-190h47c2 13-1 29 3 40 6-28 27-53 61-41v41" id="aG"/><g id="k"><use transform="matrix(0.05,0,0,0.05,0,0)" xlink:href="#aF"/><use transform="matrix(0.05,0,0,0.05,12,0)" xlink:href="#ah"/><use transform="matrix(0.05,0,0,0.05,17.95,0)" xlink:href="#ag"/><use transform="matrix(0.05,0,0,0.05,27.950000000000003,0)" xlink:href="#aG"/><use transform="matrix(0.05,0,0,0.05,34.95,0)" xlink:href="#ah"/></g><g id="l"><use transform="matrix(0.05,0,0,0.05,0,0)" xlink:href="#aF"/><use transform="matrix(0.05,0,0,0.05,12,0)" xlink:href="#ah"/><use transform="matrix(0.05,0,0,0.05,17.95,0)" xlink:href="#ag"/><use transform="matrix(0.05,0,0,0.05,27.950000000000003,0)" xlink:href="#ah"/><use transform="matrix(0.05,0,0,0.05,33.9,0)" xlink:href="#ai"/></g><path d="M127-220V0H93v-220H8v-28h204v28h-85" id="aH"/><path d="M206 0h-36l-40-164L89 0H53L-1-190h32L70-26l43-164h34l41 164 42-164h31" id="aI"/><path d="M100-194c62-1 85 37 85 99 1 63-27 99-86 99S16-35 15-95c0-66 28-99 85-99zM99-20c44 1 53-31 53-75 0-43-8-75-51-75s-53 32-53 75 10 74 51 75" id="aJ"/><g id="m"><use transform="matrix(0.048148148148148155,0,0,0.048148148148148155,0,0)" xlink:href="#aH"/><use transform="matrix(0.048148148148148155,0,0,0.048148148148148155,9.581481481481482,0)" xlink:href="#aI"/><use transform="matrix(0.048148148148148155,0,0,0.048148148148148155,22.051851851851854,0)" xlink:href="#aJ"/></g><path d="M115-194c55 1 70 41 70 98S169 2 115 4C84 4 66-9 55-30l1 105H24l-1-265h31l2 30c10-21 28-34 59-34zm-8 174c40 0 45-34 45-75s-6-73-45-74c-42 0-51 32-51 76 0 43 10 73 51 73" id="aK"/><path d="M141-36C126-15 110 5 73 4 37 3 15-17 15-53c-1-64 63-63 125-63 3-35-9-54-41-54-24 1-41 7-42 31l-33-3c5-37 33-52 76-52 45 0 72 20 72 64v82c-1 20 7 32 28 27v20c-31 9-61-2-59-35zM48-53c0 20 12 33 32 33 41-3 63-29 60-74-43 2-92-5-92 41" id="aL"/><path d="M59-47c-2 24 18 29 38 22v24C64 9 27 4 27-40v-127H5v-23h24l9-43h21v43h35v23H59v120" id="aM"/><path d="M24-231v-30h32v30H24zM24 0v-190h32V0H24" id="aN"/><path d="M100-194c63 0 86 42 84 106H49c0 40 14 67 53 68 26 1 43-12 49-29l28 8c-11 28-37 45-77 45C44 4 14-33 15-96c1-61 26-98 85-98zm52 81c6-60-76-77-97-28-3 7-6 17-6 28h103" id="aO"/><path d="M117-194c89-4 53 116 60 194h-32v-121c0-31-8-49-39-48C34-167 62-67 57 0H25l-1-190h30c1 10-1 24 2 32 11-22 29-35 61-36" id="aP"/><path d="M135-143c-3-34-86-38-87 0 15 53 115 12 119 90S17 21 10-45l28-5c4 36 97 45 98 0-10-56-113-15-118-90-4-57 82-63 122-42 12 7 21 19 24 35" id="aQ"/><g id="n"><use transform="matrix(0.048148148148148155,0,0,0.048148148148148155,0,0)" xlink:href="#aK"/><use transform="matrix(0.048148148148148155,0,0,0.048148148148148155,9.629629629629632,0)" xlink:href="#aL"/><use transform="matrix(0.048148148148148155,0,0,0.048148148148148155,19.259259259259263,0)" xlink:href="#aM"/><use transform="matrix(0.048148148148148155,0,0,0.048148148148148155,24.07407407407408,0)" xlink:href="#aN"/><use transform="matrix(0.048148148148148155,0,0,0.048148148148148155,27.877777777777784,0)" xlink:href="#aO"/><use transform="matrix(0.048148148148148155,0,0,0.048148148148148155,37.50740740740741,0)" xlink:href="#aP"/><use transform="matrix(0.048148148148148155,0,0,0.048148148148148155,47.13703703703705,0)" xlink:href="#aM"/><use transform="matrix(0.048148148148148155,0,0,0.048148148148148155,51.951851851851856,0)" xlink:href="#aQ"/></g><path d="M114-163C36-179 61-72 57 0H25l-1-190h30c1 12-1 29 2 39 6-27 23-49 58-41v29" id="aR"/><g id="o"><use transform="matrix(0.048148148148148155,0,0,0.048148148148148155,0,0)" xlink:href="#aL"/><use transform="matrix(0.048148148148148155,0,0,0.048148148148148155,9.629629629629632,0)" xlink:href="#aR"/><use transform="matrix(0.048148148148148155,0,0,0.048148148148148155,15.359259259259261,0)" xlink:href="#aO"/></g><path d="M210-169c-67 3-38 105-44 169h-31v-121c0-29-5-50-35-48C34-165 62-65 56 0H25l-1-190h30c1 10-1 24 2 32 10-44 99-50 107 0 11-21 27-35 58-36 85-2 47 119 55 194h-31v-121c0-29-5-49-35-48" id="aS"/><path d="M96-169c-40 0-48 33-48 73s9 75 48 75c24 0 41-14 43-38l32 2c-6 37-31 61-74 61-59 0-76-41-82-99-10-93 101-131 147-64 4 7 5 14 7 22l-32 3c-4-21-16-35-41-35" id="aT"/><path d="M106-169C34-169 62-67 57 0H25v-261h32l-1 103c12-21 28-36 61-36 89 0 53 116 60 194h-32v-121c2-32-8-49-39-48" id="aU"/><path d="M85-194c31 0 48 13 60 33l-1-100h32l1 261h-30c-2-10 0-23-3-31C134-8 116 4 85 4 32 4 16-35 15-94c0-66 23-100 70-100zm9 24c-40 0-46 34-46 75 0 40 6 74 45 74 42 0 51-32 51-76 0-42-9-74-50-73" id="aV"/><g id="p"><use transform="matrix(0.048148148148148155,0,0,0.048148148148148155,0,0)" xlink:href="#aS"/><use transform="matrix(0.048148148148148155,0,0,0.048148148148148155,14.396296296296299,0)" xlink:href="#aL"/><use transform="matrix(0.048148148148148155,0,0,0.048148148148148155,24.025925925925932,0)" xlink:href="#aM"/><use transform="matrix(0.048148148148148155,0,0,0.048148148148148155,28.84074074074075,0)" xlink:href="#aT"/><use transform="matrix(0.048148148148148155,0,0,0.048148148148148155,37.50740740740741,0)" xlink:href="#aU"/><use transform="matrix(0.048148148148148155,0,0,0.048148148148148155,47.13703703703705,0)" xlink:href="#aO"/><use transform="matrix(0.048148148148148155,0,0,0.048148148148148155,56.76666666666667,0)" xlink:href="#aV"/></g><g id="q"><use transform="matrix(0.048148148148148155,0,0,0.048148148148148155,0,0)" xlink:href="#aM"/><use transform="matrix(0.048148148148148155,0,0,0.048148148148148155,4.814814814814816,0)" xlink:href="#aJ"/></g><use transform="matrix(0.048148148148148155,0,0,0.048148148148148155,0,0)" xlink:href="#aL" id="r"/><path d="M177-190C167-65 218 103 67 71c-23-6-38-20-44-43l32-5c15 47 100 32 89-28v-30C133-14 115 1 83 1 29 1 15-40 15-95c0-56 16-97 71-98 29-1 48 16 59 35 1-10 0-23 2-32h30zM94-22c36 0 50-32 50-73 0-42-14-75-50-75-39 0-46 34-46 75s6 73 46 73" id="aW"/><path d="M108 0H70L1-190h34L89-25l56-165h34" id="aX"/><g id="s"><use transform="matrix(0.048148148148148155,0,0,0.048148148148148155,0,0)" xlink:href="#aW"/><use transform="matrix(0.048148148148148155,0,0,0.048148148148148155,9.629629629629632,0)" xlink:href="#aN"/><use transform="matrix(0.048148148148148155,0,0,0.048148148148148155,13.433333333333335,0)" xlink:href="#aX"/><use transform="matrix(0.048148148148148155,0,0,0.048148148148148155,22.1,0)" xlink:href="#aO"/><use transform="matrix(0.048148148148148155,0,0,0.048148148148148155,31.729629629629635,0)" xlink:href="#aP"/></g><path d="M143 4C61 4 22-44 18-125c-5-107 100-154 193-111 17 8 29 25 37 43l-32 9c-13-25-37-40-76-40-61 0-88 39-88 99 0 61 29 100 91 101 35 0 62-11 79-27v-45h-74v-28h105v86C228-13 192 4 143 4" id="aY"/><path d="M24 0v-261h32V0H24" id="aZ"/><g id="t"><use transform="matrix(0.048148148148148155,0,0,0.048148148148148155,0,0)" xlink:href="#aY"/><use transform="matrix(0.048148148148148155,0,0,0.048148148148148155,13.481481481481483,0)" xlink:href="#aJ"/><use transform="matrix(0.048148148148148155,0,0,0.048148148148148155,23.111111111111114,0)" xlink:href="#aZ"/><use transform="matrix(0.048148148148148155,0,0,0.048148148148148155,26.914814814814818,0)" xlink:href="#aV"/><use transform="matrix(0.048148148148148155,0,0,0.048148148148148155,36.54444444444445,0)" xlink:href="#aO"/><use transform="matrix(0.048148148148148155,0,0,0.048148148148148155,46.174074074074085,0)" xlink:href="#aP"/></g><path d="M233-177c-1 41-23 64-60 70L243 0h-38l-65-103H63V0H30v-248c88 3 205-21 203 71zM63-129c60-2 137 13 137-47 0-61-80-42-137-45v92" id="ba"/><g id="u"><use transform="matrix(0.048148148148148155,0,0,0.048148148148148155,0,0)" xlink:href="#ba"/><use transform="matrix(0.048148148148148155,0,0,0.048148148148148155,12.470370370370372,0)" xlink:href="#aO"/><use transform="matrix(0.048148148148148155,0,0,0.048148148148148155,22.1,0)" xlink:href="#aT"/><use transform="matrix(0.048148148148148155,0,0,0.048148148148148155,30.766666666666673,0)" xlink:href="#aJ"/><use transform="matrix(0.048148148148148155,0,0,0.048148148148148155,40.3962962962963,0)" xlink:href="#aR"/><use transform="matrix(0.048148148148148155,0,0,0.048148148148148155,46.12592592592593,0)" xlink:href="#aV"/></g><path d="M30-248c87 1 191-15 191 75 0 78-77 80-158 76V0H30v-248zm33 125c57 0 124 11 124-50 0-59-68-47-124-48v98" id="bb"/><g id="v"><use transform="matrix(0.048148148148148155,0,0,0.048148148148148155,0,0)" xlink:href="#bb"/><use transform="matrix(0.048148148148148155,0,0,0.048148148148148155,11.555555555555557,0)" xlink:href="#aL"/><use transform="matrix(0.048148148148148155,0,0,0.048148148148148155,21.18518518518519,0)" xlink:href="#aM"/><use transform="matrix(0.048148148148148155,0,0,0.048148148148148155,26.00000000000001,0)" xlink:href="#aN"/><use transform="matrix(0.048148148148148155,0,0,0.048148148148148155,29.803703703703714,0)" xlink:href="#aO"/><use transform="matrix(0.048148148148148155,0,0,0.048148148148148155,39.433333333333344,0)" xlink:href="#aP"/><use transform="matrix(0.048148148148148155,0,0,0.048148148148148155,49.06296296296298,0)" xlink:href="#aM"/></g><path d="M0 4l72-265h28L28 4H0" id="bc"/><path d="M27 0v-27h64v-190l-56 39v-29l58-41h29v221h61V0H27" id="bd"/><g id="w"><use transform="matrix(0.05,0,0,0.05,0,0)" xlink:href="#bb"/><use transform="matrix(0.05,0,0,0.05,12,0)" xlink:href="#aL"/><use transform="matrix(0.05,0,0,0.05,22,0)" xlink:href="#aM"/><use transform="matrix(0.05,0,0,0.05,27,0)" xlink:href="#aN"/><use transform="matrix(0.05,0,0,0.05,30.950000000000003,0)" xlink:href="#aO"/><use transform="matrix(0.05,0,0,0.05,40.95,0)" xlink:href="#aP"/><use transform="matrix(0.05,0,0,0.05,50.95,0)" xlink:href="#aM"/><use transform="matrix(0.05,0,0,0.05,55.95,0)" xlink:href="#bc"/><use transform="matrix(0.05,0,0,0.05,60.95,0)" xlink:href="#bd"/></g><g id="x"><use transform="matrix(0.05,0,0,0.05,0,0)" xlink:href="#bb"/><use transform="matrix(0.05,0,0,0.05,12,0)" xlink:href="#aL"/><use transform="matrix(0.05,0,0,0.05,22,0)" xlink:href="#aM"/><use transform="matrix(0.05,0,0,0.05,27,0)" xlink:href="#aN"/><use transform="matrix(0.05,0,0,0.05,30.950000000000003,0)" xlink:href="#aO"/><use transform="matrix(0.05,0,0,0.05,40.95,0)" xlink:href="#aP"/><use transform="matrix(0.05,0,0,0.05,50.95,0)" xlink:href="#aM"/></g><g id="y"><use transform="matrix(0.031481481481481485,0,0,0.031481481481481485,0,0)" xlink:href="#aY"/><use transform="matrix(0.031481481481481485,0,0,0.031481481481481485,8.814814814814817,0)" xlink:href="#aJ"/><use transform="matrix(0.031481481481481485,0,0,0.031481481481481485,15.111111111111114,0)" xlink:href="#aZ"/><use transform="matrix(0.031481481481481485,0,0,0.031481481481481485,17.59814814814815,0)" xlink:href="#aV"/><use transform="matrix(0.031481481481481485,0,0,0.031481481481481485,23.89444444444445,0)" xlink:href="#aO"/><use transform="matrix(0.031481481481481485,0,0,0.031481481481481485,30.190740740740747,0)" xlink:href="#aP"/></g><g id="z"><use transform="matrix(0.031481481481481485,0,0,0.031481481481481485,0,0)" xlink:href="#ba"/><use transform="matrix(0.031481481481481485,0,0,0.031481481481481485,8.153703703703705,0)" xlink:href="#aO"/><use transform="matrix(0.031481481481481485,0,0,0.031481481481481485,14.450000000000003,0)" xlink:href="#aT"/><use transform="matrix(0.031481481481481485,0,0,0.031481481481481485,20.11666666666667,0)" xlink:href="#aJ"/><use transform="matrix(0.031481481481481485,0,0,0.031481481481481485,26.41296296296297,0)" xlink:href="#aR"/><use transform="matrix(0.031481481481481485,0,0,0.031481481481481485,30.159259259259265,0)" xlink:href="#aV"/></g><path fill="#333" d="M33-154v-36h34v36H33zM33 0v-36h34V0H33" id="be"/><g id="A"><use transform="matrix(0.05,0,0,0.05,0,0)" xlink:href="#aq"/><use transform="matrix(0.05,0,0,0.05,12,0)" xlink:href="#av"/><use transform="matrix(0.05,0,0,0.05,17,0)" xlink:href="#aw"/><use transform="matrix(0.05,0,0,0.05,29.950000000000003,0)" xlink:href="#be"/><use transform="matrix(0.05,0,0,0.05,34.95,0)" xlink:href="#ay"/></g><path fill="#333" d="M212-179c-10-28-35-45-73-45-59 0-87 40-87 99 0 60 29 101 89 101 43 0 62-24 78-52l27 14C228-24 195 4 139 4 59 4 22-46 18-125c-6-104 99-153 187-111 19 9 31 26 39 46" id="bf"/><path fill="#333" d="M197 0v-115H63V0H30v-248h33v105h134v-105h34V0h-34" id="bg"/><g id="B"><use transform="matrix(0.05,0,0,0.05,0,0)" xlink:href="#aA"/><use transform="matrix(0.05,0,0,0.05,14.950000000000001,0)" xlink:href="#ay"/><use transform="matrix(0.05,0,0,0.05,25.6,0)" xlink:href="#at"/><use transform="matrix(0.05,0,0,0.05,36.550000000000004,0)" xlink:href="#bf"/><use transform="matrix(0.05,0,0,0.05,49.50000000000001,0)" xlink:href="#bg"/></g><path d="M101-251c82-7 93 87 43 132L82-64C71-53 59-42 53-27h129V0H18c2-99 128-94 128-182 0-28-16-43-45-43s-46 15-49 41l-32-3c6-41 34-60 81-64" id="bh"/><g id="C"><use transform="matrix(0.05,0,0,0.05,0,0)" xlink:href="#bb"/><use transform="matrix(0.05,0,0,0.05,12,0)" xlink:href="#aL"/><use transform="matrix(0.05,0,0,0.05,22,0)" xlink:href="#aM"/><use transform="matrix(0.05,0,0,0.05,27,0)" xlink:href="#aN"/><use transform="matrix(0.05,0,0,0.05,30.950000000000003,0)" xlink:href="#aO"/><use transform="matrix(0.05,0,0,0.05,40.95,0)" xlink:href="#aP"/><use transform="matrix(0.05,0,0,0.05,50.95,0)" xlink:href="#aM"/><use transform="matrix(0.05,0,0,0.05,55.95,0)" xlink:href="#bc"/><use transform="matrix(0.05,0,0,0.05,60.95,0)" xlink:href="#bh"/></g><path fill="#333" d="M199 0l-22-63H83L61 0H9l90-248h61L250 0h-51zm-33-102l-36-108c-10 38-24 72-36 108h72" id="bi"/><path fill="#333" d="M190-63c-7 42-38 67-86 67-59 0-84-38-90-98-12-110 154-137 174-36l-49 2c-2-19-15-32-35-32-30 0-35 28-38 64-6 74 65 87 74 30" id="bj"/><path fill="#333" d="M25-224v-37h50v37H25zM25 0v-190h50V0H25" id="bk"/><path fill="#333" d="M110-194c64 0 96 36 96 99 0 64-35 99-97 99-61 0-95-36-95-99 0-62 34-99 96-99zm-1 164c35 0 45-28 45-65 0-40-10-65-43-65-34 0-45 26-45 65 0 36 10 65 43 65" id="bl"/><path fill="#333" d="M135-194c87-1 58 113 63 194h-50c-7-57 23-157-34-157-59 0-34 97-39 157H25l-1-190h47c2 12-1 28 3 38 12-26 28-41 61-42" id="bm"/><g id="D"><use transform="matrix(0.05,0,0,0.05,0,0)" xlink:href="#bi"/><use transform="matrix(0.05,0,0,0.05,12.950000000000001,0)" xlink:href="#bj"/><use transform="matrix(0.05,0,0,0.05,22.950000000000003,0)" xlink:href="#ah"/><use transform="matrix(0.05,0,0,0.05,28.900000000000002,0)" xlink:href="#bk"/><use transform="matrix(0.05,0,0,0.05,33.900000000000006,0)" xlink:href="#bl"/><use transform="matrix(0.05,0,0,0.05,44.85000000000001,0)" xlink:href="#bm"/></g><path d="M140-251c81 0 123 46 123 126C263-46 219 4 140 4 59 4 17-45 17-125s42-126 123-126zm0 227c63 0 89-41 89-101s-29-99-89-99c-61 0-89 39-89 99S79-25 140-24" id="bn"/><g id="E"><use transform="matrix(0.048148148148148155,0,0,0.048148148148148155,0,0)" xlink:href="#bn"/><use transform="matrix(0.048148148148148155,0,0,0.048148148148148155,13.481481481481483,0)" xlink:href="#aP"/><use transform="matrix(0.048148148148148155,0,0,0.048148148148148155,23.111111111111114,0)" xlink:href="#aO"/></g><path d="M101-234c-31-9-42 10-38 44h38v23H63V0H32v-167H5v-23h27c-7-52 17-82 69-68v24" id="bo"/><g id="F"><use transform="matrix(0.048148148148148155,0,0,0.048148148148148155,0,0)" xlink:href="#aJ"/><use transform="matrix(0.048148148148148155,0,0,0.048148148148148155,9.629629629629632,0)" xlink:href="#bo"/></g><g id="G"><use transform="matrix(0.048148148148148155,0,0,0.048148148148148155,0,0)" xlink:href="#aM"/><use transform="matrix(0.048148148148148155,0,0,0.048148148148148155,4.814814814814816,0)" xlink:href="#aU"/><use transform="matrix(0.048148148148148155,0,0,0.048148148148148155,14.444444444444446,0)" xlink:href="#aO"/><use transform="matrix(0.048148148148148155,0,0,0.048148148148148155,24.074074074074076,0)" xlink:href="#aQ"/><use transform="matrix(0.048148148148148155,0,0,0.048148148148148155,32.74074074074075,0)" xlink:href="#aO"/></g><g id="H"><use transform="matrix(0.048148148148148155,0,0,0.048148148148148155,0,0)" xlink:href="#aM"/><use transform="matrix(0.048148148148148155,0,0,0.048148148148148155,4.814814814814816,0)" xlink:href="#aI"/><use transform="matrix(0.048148148148148155,0,0,0.048148148148148155,17.28518518518519,0)" xlink:href="#aJ"/></g><g id="I"><use transform="matrix(0.048148148148148155,0,0,0.048148148148148155,0,0)" xlink:href="#aK"/><use transform="matrix(0.048148148148148155,0,0,0.048148148148148155,9.629629629629632,0)" xlink:href="#aL"/><use transform="matrix(0.048148148148148155,0,0,0.048148148148148155,19.259259259259263,0)" xlink:href="#aM"/><use transform="matrix(0.048148148148148155,0,0,0.048148148148148155,24.07407407407408,0)" xlink:href="#aN"/><use transform="matrix(0.048148148148148155,0,0,0.048148148148148155,27.877777777777784,0)" xlink:href="#aO"/><use transform="matrix(0.048148148148148155,0,0,0.048148148148148155,37.50740740740741,0)" xlink:href="#aP"/><use transform="matrix(0.048148148148148155,0,0,0.048148148148148155,47.13703703703705,0)" xlink:href="#aM"/><use transform="matrix(0.048148148148148155,0,0,0.048148148148148155,51.951851851851856,0)" xlink:href="#aQ"/></g><g id="J"><use transform="matrix(0.048148148148148155,0,0,0.048148148148148155,0,0)" xlink:href="#aN"/><use transform="matrix(0.048148148148148155,0,0,0.048148148148148155,3.8037037037037043,0)" xlink:href="#aQ"/></g><path d="M84 4C-5 8 30-112 23-190h32v120c0 31 7 50 39 49 72-2 45-101 50-169h31l1 190h-30c-1-10 1-25-2-33-11 22-28 36-60 37" id="bp"/><g id="K"><use transform="matrix(0.048148148148148155,0,0,0.048148148148148155,0,0)" xlink:href="#bp"/><use transform="matrix(0.048148148148148155,0,0,0.048148148148148155,9.629629629629632,0)" xlink:href="#aK"/><use transform="matrix(0.048148148148148155,0,0,0.048148148148148155,19.259259259259263,0)" xlink:href="#aV"/><use transform="matrix(0.048148148148148155,0,0,0.048148148148148155,28.888888888888893,0)" xlink:href="#aL"/><use transform="matrix(0.048148148148148155,0,0,0.048148148148148155,38.518518518518526,0)" xlink:href="#aM"/><use transform="matrix(0.048148148148148155,0,0,0.048148148148148155,43.33333333333334,0)" xlink:href="#aO"/><use transform="matrix(0.048148148148148155,0,0,0.048148148148148155,52.96296296296297,0)" xlink:href="#aV"/></g><g id="L"><use transform="matrix(0.048148148148148155,0,0,0.048148148148148155,0,0)" xlink:href="#aI"/><use transform="matrix(0.048148148148148155,0,0,0.048148148148148155,12.470370370370372,0)" xlink:href="#aN"/><use transform="matrix(0.048148148148148155,0,0,0.048148148148148155,16.274074074074075,0)" xlink:href="#aM"/><use transform="matrix(0.048148148148148155,0,0,0.048148148148148155,21.088888888888892,0)" xlink:href="#aU"/></g><use transform="matrix(0.048148148148148155,0,0,0.048148148148148155,0,0)" xlink:href="#aL" id="M"/><g id="N"><use transform="matrix(0.048148148148148155,0,0,0.048148148148148155,0,0)" xlink:href="#aP"/><use transform="matrix(0.048148148148148155,0,0,0.048148148148148155,9.629629629629632,0)" xlink:href="#aO"/><use transform="matrix(0.048148148148148155,0,0,0.048148148148148155,19.259259259259263,0)" xlink:href="#aI"/></g><path d="M30 0v-248h187v28H63v79h144v27H63v87h162V0H30" id="bq"/><path d="M141 0L90-78 38 0H4l68-98-65-92h35l48 74 47-74h35l-64 92 68 98h-35" id="br"/><g id="O"><use transform="matrix(0.048148148148148155,0,0,0.048148148148148155,0,0)" xlink:href="#bq"/><use transform="matrix(0.048148148148148155,0,0,0.048148148148148155,11.555555555555557,0)" xlink:href="#br"/><use transform="matrix(0.048148148148148155,0,0,0.048148148148148155,20.222222222222225,0)" xlink:href="#aM"/><use transform="matrix(0.048148148148148155,0,0,0.048148148148148155,25.03703703703704,0)" xlink:href="#aO"/><use transform="matrix(0.048148148148148155,0,0,0.048148148148148155,34.66666666666667,0)" xlink:href="#aR"/><use transform="matrix(0.048148148148148155,0,0,0.048148148148148155,40.3962962962963,0)" xlink:href="#aP"/><use transform="matrix(0.048148148148148155,0,0,0.048148148148148155,50.02592592592593,0)" xlink:href="#aL"/><use transform="matrix(0.048148148148148155,0,0,0.048148148148148155,59.655555555555566,0)" xlink:href="#aZ"/></g><path d="M33 0v-248h34V0H33" id="bs"/><path d="M30-248c118-7 216 8 213 122C240-48 200 0 122 0H30v-248zM63-27c89 8 146-16 146-99s-60-101-146-95v194" id="bt"/><g id="P"><use transform="matrix(0.048148148148148155,0,0,0.048148148148148155,0,0)" xlink:href="#bq"/><use transform="matrix(0.048148148148148155,0,0,0.048148148148148155,11.555555555555557,0)" xlink:href="#bs"/><use transform="matrix(0.048148148148148155,0,0,0.048148148148148155,16.370370370370374,0)" xlink:href="#bt"/></g><path fill="#333" d="M160-131c35 5 61 23 61 61C221 17 115-2 30 0v-248c76 3 177-17 177 60 0 33-19 50-47 57zm-97-11c50-1 110 9 110-42 0-47-63-36-110-37v79zm0 115c55-2 124 14 124-45 0-56-70-42-124-44v89" id="bu"/><g id="Q"><use transform="matrix(0.05,0,0,0.05,0,0)" xlink:href="#aq"/><use transform="matrix(0.05,0,0,0.05,12,0)" xlink:href="#av"/><use transform="matrix(0.05,0,0,0.05,17,0)" xlink:href="#aw"/><use transform="matrix(0.05,0,0,0.05,29.950000000000003,0)" xlink:href="#be"/><use transform="matrix(0.05,0,0,0.05,34.95,0)" xlink:href="#bu"/></g><path fill="#333" d="M24 0v-248h195v40H76v63h132v40H76v65h150V0H24" id="bv"/><g id="R"><use transform="matrix(0.05,0,0,0.05,0,0)" xlink:href="#bv"/><use transform="matrix(0.05,0,0,0.05,12,0)" xlink:href="#bm"/><use transform="matrix(0.05,0,0,0.05,22.950000000000003,0)" xlink:href="#af"/></g><path d="M63-220v92h138v28H63V0H30v-248h175v28H63" id="bw"/><path d="M115-194c53 0 69 39 70 98 0 66-23 100-70 100C84 3 66-7 56-30L54 0H23l1-261h32v101c10-23 28-34 59-34zm-8 174c40 0 45-34 45-75 0-40-5-75-45-74-42 0-51 32-51 76 0 43 10 73 51 73" id="bx"/><path d="M63-70H37l-4-178h34zM33 0v-35h34V0H33" id="by"/><g id="S"><use transform="matrix(0.048148148148148155,0,0,0.048148148148148155,0,0)" xlink:href="#bw"/><use transform="matrix(0.048148148148148155,0,0,0.048148148148148155,10.544444444444446,0)" xlink:href="#aJ"/><use transform="matrix(0.048148148148148155,0,0,0.048148148148148155,20.174074074074078,0)" xlink:href="#aR"/><use transform="matrix(0.048148148148148155,0,0,0.048148148148148155,25.90370370370371,0)" xlink:href="#bx"/><use transform="matrix(0.048148148148148155,0,0,0.048148148148148155,35.53333333333334,0)" xlink:href="#aN"/><use transform="matrix(0.048148148148148155,0,0,0.048148148148148155,39.33703703703704,0)" xlink:href="#aV"/><use transform="matrix(0.048148148148148155,0,0,0.048148148148148155,48.966666666666676,0)" xlink:href="#aV"/><use transform="matrix(0.048148148148148155,0,0,0.048148148148148155,58.5962962962963,0)" xlink:href="#aO"/><use transform="matrix(0.048148148148148155,0,0,0.048148148148148155,68.22592592592594,0)" xlink:href="#aP"/><use transform="matrix(0.048148148148148155,0,0,0.048148148148148155,77.85555555555557,0)" xlink:href="#by"/></g><g id="T"><use transform="matrix(0.048148148148148155,0,0,0.048148148148148155,0,0)" xlink:href="#aH"/><use transform="matrix(0.048148148148148155,0,0,0.048148148148148155,10.544444444444446,0)" xlink:href="#aU"/><use transform="matrix(0.048148148148148155,0,0,0.048148148148148155,20.174074074074078,0)" xlink:href="#aO"/></g><g id="U"><use transform="matrix(0.048148148148148155,0,0,0.048148148148148155,0,0)" xlink:href="#aP"/><use transform="matrix(0.048148148148148155,0,0,0.048148148148148155,9.629629629629632,0)" xlink:href="#aO"/><use transform="matrix(0.048148148148148155,0,0,0.048148148148148155,19.259259259259263,0)" xlink:href="#aI"/></g><g id="V"><use transform="matrix(0.048148148148148155,0,0,0.048148148148148155,0,0)" xlink:href="#bq"/><use transform="matrix(0.048148148148148155,0,0,0.048148148148148155,11.555555555555557,0)" xlink:href="#bs"/><use transform="matrix(0.048148148148148155,0,0,0.048148148148148155,16.370370370370374,0)" xlink:href="#bt"/></g><g id="W"><use transform="matrix(0.048148148148148155,0,0,0.048148148148148155,0,0)" xlink:href="#aN"/><use transform="matrix(0.048148148148148155,0,0,0.048148148148148155,3.8037037037037043,0)" xlink:href="#aQ"/></g><g id="X"><use transform="matrix(0.048148148148148155,0,0,0.048148148148148155,0,0)" xlink:href="#aL"/><use transform="matrix(0.048148148148148155,0,0,0.048148148148148155,9.629629629629632,0)" xlink:href="#aV"/><use transform="matrix(0.048148148148148155,0,0,0.048148148148148155,19.259259259259263,0)" xlink:href="#aV"/><use transform="matrix(0.048148148148148155,0,0,0.048148148148148155,28.888888888888893,0)" xlink:href="#aO"/><use transform="matrix(0.048148148148148155,0,0,0.048148148148148155,38.518518518518526,0)" xlink:href="#aV"/></g><g id="Y"><use transform="matrix(0.048148148148148155,0,0,0.048148148148148155,0,0)" xlink:href="#aM"/><use transform="matrix(0.048148148148148155,0,0,0.048148148148148155,4.814814814814816,0)" xlink:href="#aU"/><use transform="matrix(0.048148148148148155,0,0,0.048148148148148155,14.444444444444446,0)" xlink:href="#aO"/></g><g id="Z"><use transform="matrix(0.048148148148148155,0,0,0.048148148148148155,0,0)" xlink:href="#aY"/><use transform="matrix(0.048148148148148155,0,0,0.048148148148148155,13.481481481481483,0)" xlink:href="#aJ"/><use transform="matrix(0.048148148148148155,0,0,0.048148148148148155,23.111111111111114,0)" xlink:href="#aZ"/><use transform="matrix(0.048148148148148155,0,0,0.048148148148148155,26.914814814814818,0)" xlink:href="#aV"/><use transform="matrix(0.048148148148148155,0,0,0.048148148148148155,36.54444444444445,0)" xlink:href="#aO"/><use transform="matrix(0.048148148148148155,0,0,0.048148148148148155,46.174074074074085,0)" xlink:href="#aP"/></g><g id="aa"><use transform="matrix(0.048148148148148155,0,0,0.048148148148148155,0,0)" xlink:href="#ba"/><use transform="matrix(0.048148148148148155,0,0,0.048148148148148155,12.470370370370372,0)" xlink:href="#aO"/><use transform="matrix(0.048148148148148155,0,0,0.048148148148148155,22.1,0)" xlink:href="#aT"/><use transform="matrix(0.048148148148148155,0,0,0.048148148148148155,30.766666666666673,0)" xlink:href="#aJ"/><use transform="matrix(0.048148148148148155,0,0,0.048148148148148155,40.3962962962963,0)" xlink:href="#aR"/><use transform="matrix(0.048148148148148155,0,0,0.048148148148148155,46.12592592592593,0)" xlink:href="#aV"/></g><path fill="#fff" d="M30 0v-248h187v28H63v79h144v27H63v87h162V0H30" id="bz"/><path fill="#fff" d="M33 0v-248h34V0H33" id="bA"/><path fill="#fff" d="M30-248c118-7 216 8 213 122C240-48 200 0 122 0H30v-248zM63-27c89 8 146-16 146-99s-60-101-146-95v194" id="bB"/><path fill="#fff" d="M33-154v-36h34v36H33zM33 0v-36h34V0H33" id="bC"/><path fill="#fff" d="M160-131c35 5 61 23 61 61C221 17 115-2 30 0v-248c76 3 177-17 177 60 0 33-19 50-47 57zm-97-11c50-1 110 9 110-42 0-47-63-36-110-37v79zm0 115c55-2 124 14 124-45 0-56-70-42-124-44v89" id="bD"/><g id="ab"><use transform="matrix(0.05,0,0,0.05,0,0)" xlink:href="#bz"/><use transform="matrix(0.05,0,0,0.05,12,0)" xlink:href="#bA"/><use transform="matrix(0.05,0,0,0.05,17,0)" xlink:href="#bB"/><use transform="matrix(0.05,0,0,0.05,29.950000000000003,0)" xlink:href="#bC"/><use transform="matrix(0.05,0,0,0.05,34.95,0)" xlink:href="#bD"/></g></defs></g></svg>