<svg xmlns="http://www.w3.org/2000/svg" xmlns:xlink="http://www.w3.org/1999/xlink" xmlns:lucid="lucid" width="3177" height="1051"><g transform="translate(0 -1704)" lucid:page-tab-id="9QdXEr~dY.W-"><path d="M0 0h3615.47v6718.57H0z" fill="#fff"/><path d="M45.8 2768c0-4.42 3.57-8 8-8h1916.38c4.42 0 8 3.58 8 8v1104c0 4.42-3.58 8-8 8H53.78c-4.4 0-8-3.58-8-8zM40 1740.3c0-4.42 3.58-8 8-8h3084c4.42 0 8 3.58 8 8V2732c0 4.42-3.58 8-8 8H48c-4.42 0-8-3.58-8-8z" stroke="#fff" fill="#fff"/><use xlink:href="#a" transform="matrix(1,0,0,1,60,1732.2983170766129) translate(1525 507.59999999999997)"/><path d="M40 1747.06c0-4.42 3.58-8 8-8h280.38c4.42 0 8 3.58 8 8v44c0 4.42-3.58 8-8 8H48c-4.42 0-8-3.58-8-8z" stroke="#000" stroke-opacity="0" fill="#fff" fill-opacity="0"/><use xlink:href="#b" transform="matrix(1,0,0,1,60,1739.0625000000568) translate(11.913580246913554 34.888888888888886)"/><use xlink:href="#c" transform="matrix(1,0,0,1,60,1739.0625000000568) translate(101.2716049382716 34.888888888888886)"/><use xlink:href="#d" transform="matrix(1,0,0,1,60,1739.0625000000568) translate(152.80864197530866 34.888888888888886)"/><use xlink:href="#e" transform="matrix(1,0,0,1,60,1739.0625000000568) translate(217.92592592592592 34.888888888888886)"/><path d="M99.9 1823.63c0-4.42 3.58-8 8-8h16.6c4.43 0 8 3.58 8 8v10.87c0 4.42-3.57 8-8 8h-16.6c-4.42 0-8-3.58-8-8z" stroke="#333" fill="#ff8f80"/><path d="M99.9 1883.63c0-4.42 3.58-8 8-8h16.6c4.43 0 8 3.58 8 8v10.87c0 4.42-3.57 8-8 8h-16.6c-4.42 0-8-3.58-8-8z" stroke="#333" fill="#c7e8ac"/><path d="M40 1807.06c0-4.42 3.58-8 8-8h492.67c4.42 0 8 3.58 8 8v44c0 4.42-3.58 8-8 8H48c-4.42 0-8-3.58-8-8z" stroke="#000" stroke-opacity="0" fill="#fff" fill-opacity="0"/><use xlink:href="#f" transform="matrix(1,0,0,1,60.00000000000006,1799.0625000000568) translate(85.65 33.6)"/><use xlink:href="#g" transform="matrix(1,0,0,1,60.00000000000006,1799.0625000000568) translate(101.15 33.6)"/><path d="M40 1867.06c0-4.42 3.58-8 8-8h472.67c4.42 0 8 3.58 8 8v44c0 4.42-3.58 8-8 8H48c-4.42 0-8-3.58-8-8z" stroke="#000" stroke-opacity="0" fill="#fff" fill-opacity="0"/><use xlink:href="#f" transform="matrix(1,0,0,1,60.00000000000006,1859.0625000000568) translate(86.60000000000002 33.6)"/><use xlink:href="#h" transform="matrix(1,0,0,1,60.00000000000006,1859.0625000000568) translate(102.10000000000002 33.6)"/><path d="M103.76 2057.06c0-4.42 3.58-8 8-8h827.18c4.42 0 8 3.58 8 8v344c0 4.42-3.58 8-8 8H111.76c-4.42 0-8-3.58-8-8z" stroke="#333" fill="#fff"/><path d="M470.26 2027.06c0-4.42 3.58-8 8-8h126.1c4.43 0 8 3.58 8 8v24c0 4.42-3.57 8-8 8h-126.1c-4.42 0-8-3.58-8-8z" stroke="#000" stroke-opacity="0" fill="#ffeca9"/><use xlink:href="#i" transform="matrix(1,0,0,1,490.2563639699139,2019.0625000000568) translate(6.599999999999994 23.6)"/><use xlink:href="#j" transform="matrix(1,0,0,1,490.2563639699139,2019.0625000000568) translate(52.5 23.6)"/><path d="M269.7 2309.06c0 33.14-26.86 60-60 60-33.13 0-60-26.86-60-60 0-33.13 26.87-60 60-60 33.14 0 60 26.87 60 60z" stroke="#333" fill="#fff"/><use xlink:href="#k" transform="matrix(1,0,0,1,167.70341545905956,2273.062500000057) translate(6.524999999999999 39.6)"/><path d="M472.16 2179.06c0 33.14-26.86 60-60 60s-60-26.86-60-60c0-33.13 26.86-60 60-60s60 26.87 60 60z" stroke="#333" fill="#fff"/><use xlink:href="#l" transform="matrix(1,0,0,1,370.1617976683091,2143.062500000057) translate(14.024999999999999 32.8)"/><use xlink:href="#m" transform="matrix(1,0,0,1,370.1617976683091,2143.062500000057) translate(3.954629629629622 49.06666666666667)"/><use xlink:href="#n" transform="matrix(1,0,0,1,370.1617976683091,2143.062500000057) translate(43.58981481481481 49.06666666666667)"/><path d="M338.3 2079.06h81.86l12 12v48H338.3z" stroke="#333" fill="#fff"/><path d="M420.16 2079.54v11.52h11.53" stroke="#333" fill="#fff"/><use xlink:href="#o" transform="matrix(1,0,0,1,344.2899968509904,2086.2625000000567) translate(17.525 27.6)"/><path d="M312.43 2297.16l-.44 3.4-1.36 3.25-2.15 2.82-2.82 2.15-3.24 1.35-3.4.44h-8.22v-3h8l2.84-.37 2.5-1.05 2.2-1.67 1.66-2.18 1.04-2.52.37-2.82v-42.1h3zm18.6-116.6h-8l-2.82.37-2.5 1.04-2.18 1.68-1.68 2.18-1.04 2.5-.37 2.83v42.1h-3v-42.3l.45-3.4 1.34-3.25 2.16-2.8 2.8-2.15 3.25-1.34 3.4-.44h8.2zM289.32 2313.7l-14.26-4.64 14.26-4.63z" fill="#333"/><path d="M290.82 2315.76l-20.62-6.7 20.62-6.7zm-10.9-6.7l7.9 2.57v-5.14zM346.8 2179.06l-14.26 4.64v-9.27z" fill="#333"/><path d="M351.66 2179.06l-20.62 6.7v-13.4zm-17.62 2.57l7.9-2.57-7.9-2.57z" fill="#333"/><use xlink:href="#p" transform="matrix(1,0,0,1,279.7076065636843,2233.2625000000567) translate(0.004999999999999005 14.4)"/><path d="M325.35 1947.06c0-4.42 3.58-8 8-8h384c4.42 0 8 3.58 8 8v44c0 4.42-3.58 8-8 8h-384c-4.42 0-8-3.58-8-8z" stroke="#000" stroke-opacity="0" fill="#fff" fill-opacity="0"/><use xlink:href="#q" transform="matrix(1,0,0,1,345.3481547384922,1939.0625000000568) translate(5.438888888888869 23.066666666666663)"/><use xlink:href="#r" transform="matrix(1,0,0,1,345.3481547384922,1939.0625000000568) translate(41.93518518518517 23.066666666666663)"/><use xlink:href="#s" transform="matrix(1,0,0,1,345.3481547384922,1939.0625000000568) translate(112.18333333333331 23.066666666666663)"/><use xlink:href="#t" transform="matrix(1,0,0,1,345.3481547384922,1939.0625000000568) translate(154.5537037037037 23.066666666666663)"/><use xlink:href="#u" transform="matrix(1,0,0,1,345.3481547384922,1939.0625000000568) translate(204.53148148148148 23.066666666666663)"/><use xlink:href="#v" transform="matrix(1,0,0,1,345.3481547384922,1939.0625000000568) translate(223.79074074074074 23.066666666666663)"/><use xlink:href="#w" transform="matrix(1,0,0,1,345.3481547384922,1939.0625000000568) translate(262.212962962963 23.066666666666663)"/><use xlink:href="#x" transform="matrix(1,0,0,1,345.3481547384922,1939.0625000000568) translate(298.7574074074074 23.066666666666663)"/><use xlink:href="#y" transform="matrix(1,0,0,1,345.3481547384922,1939.0625000000568) translate(122.77592592592592 43.86666666666667)"/><use xlink:href="#z" transform="matrix(1,0,0,1,345.3481547384922,1939.0625000000568) translate(183.3462962962963 43.86666666666667)"/><path d="M134.42 2205.53h81.87l12 12v48H134.4z" stroke="#333" fill="#fff"/><path d="M216.3 2206v11.53h11.5" stroke="#333" fill="#fff"/><use xlink:href="#o" transform="matrix(1,0,0,1,140.41876310340407,2212.7341341531687) translate(17.525 27.6)"/><path d="M715.28 2309.06c0 33.14-26.86 60-60 60-33.13 0-60-26.86-60-60 0-33.13 26.87-60 60-60 33.14 0 60 26.87 60 60z" stroke="#333" fill="#fff"/><use xlink:href="#A" transform="matrix(1,0,0,1,613.2846523556555,2273.062500000057) translate(6.524999999999999 39.6)"/><path d="M917.74 2179.06c0 33.14-26.86 60-60 60-33.13 0-60-26.86-60-60 0-33.13 26.87-60 60-60 33.14 0 60 26.87 60 60z" stroke="#333" fill="#fff"/><use xlink:href="#l" transform="matrix(1,0,0,1,815.7430345649051,2143.062500000057) translate(14.024999999999999 32.8)"/><use xlink:href="#m" transform="matrix(1,0,0,1,815.7430345649051,2143.062500000057) translate(3.954629629629622 49.06666666666667)"/><use xlink:href="#n" transform="matrix(1,0,0,1,815.7430345649051,2143.062500000057) translate(43.58981481481481 49.06666666666667)"/><path d="M783.87 2079.06h81.87l12 12v48h-93.87z" stroke="#333" fill="#fff"/><path d="M865.74 2079.54v11.52h11.53" stroke="#333" fill="#fff"/><use xlink:href="#B" transform="matrix(1,0,0,1,789.8712337475863,2086.2625000000567) translate(17.525 27.6)"/><path d="M758 2297.16l-.43 3.4-1.35 3.25-2.15 2.82-2.8 2.15-3.25 1.35-3.4.44h-8.22v-3h8.02l2.82-.37 2.5-1.05 2.2-1.67 1.66-2.18 1.04-2.52.37-2.82v-42.1h3zm18.62-116.6h-8l-2.83.37-2.52 1.04-2.18 1.68-1.68 2.18-1.04 2.5-.37 2.83v42.1h-3v-42.3l.46-3.4 1.34-3.25 2.16-2.8 2.8-2.15 3.25-1.34 3.42-.44h8.2zM734.9 2313.7l-14.26-4.64 14.26-4.63z" fill="#333"/><path d="M736.4 2315.76l-20.62-6.7 20.62-6.7zm-10.9-6.7l7.9 2.57v-5.14zM792.4 2179.06l-14.28 4.64v-9.27z" fill="#333"/><path d="M797.24 2179.06l-20.62 6.7v-13.4zm-17.62 2.57l7.9-2.57-7.9-2.57z" fill="#333"/><use xlink:href="#p" transform="matrix(1,0,0,1,725.2888434602802,2233.2625000000567) translate(0.004999999999999005 14.4)"/><path d="M580 2205.53h81.87l12 12v48H580z" stroke="#333" fill="#fff"/><path d="M661.87 2206v11.53h11.53" stroke="#333" fill="#fff"/><use xlink:href="#B" transform="matrix(1,0,0,1,586,2212.7341341531687) translate(17.525 27.6)"/><path d="M1259.08 2057.06c0-4.42 3.58-8 8-8h827.18c4.42 0 8 3.58 8 8v344c0 4.42-3.58 8-8 8h-827.18c-4.42 0-8-3.58-8-8z" stroke="#333" fill="#fff"/><path d="M1608.5 2027.06c0-4.42 3.57-8 8-8h126.1c4.42 0 8 3.58 8 8v24c0 4.42-3.58 8-8 8h-126.1c-4.43 0-8-3.58-8-8z" stroke="#000" stroke-opacity="0" fill="#ffeca9"/><use xlink:href="#C" transform="matrix(1,0,0,1,1628.4872943107207,2019.0625000000568) translate(23.599999999999994 23.6)"/><path d="M1425.02 2309.06c0 33.14-26.86 60-60 60-33.13 0-60-26.86-60-60 0-33.13 26.87-60 60-60 33.14 0 60 26.87 60 60z" stroke="#333" fill="#fff"/><use xlink:href="#k" transform="matrix(1,0,0,1,1323.0235417565136,2273.062500000057) translate(6.524999999999999 39.6)"/><path d="M1627.48 2179.06c0 33.14-26.86 60-60 60s-60-26.86-60-60c0-33.13 26.86-60 60-60s60 26.87 60 60z" stroke="#333" fill="#fff"/><use xlink:href="#l" transform="matrix(1,0,0,1,1525.4819239657631,2143.062500000057) translate(14.024999999999999 32.8)"/><use xlink:href="#m" transform="matrix(1,0,0,1,1525.4819239657631,2143.062500000057) translate(3.954629629629622 49.06666666666667)"/><use xlink:href="#n" transform="matrix(1,0,0,1,1525.4819239657631,2143.062500000057) translate(43.58981481481481 49.06666666666667)"/><path d="M1493.6 2079.06h81.88l12 12v48h-93.87z" stroke="#333" fill="#fff"/><path d="M1575.48 2079.54v11.52H1587" stroke="#333" fill="#fff"/><use xlink:href="#o" transform="matrix(1,0,0,1,1499.6101231484445,2086.2625000000567) translate(17.525 27.6)"/><path d="M1467.75 2297.16l-.44 3.4-1.34 3.25-2.15 2.82-2.8 2.15-3.24 1.35-3.4.44h-8.22v-3h8l2.84-.37 2.5-1.05 2.2-1.67 1.66-2.18 1.04-2.52.37-2.82v-42.1h3zm18.6-116.6h-8l-2.82.37-2.5 1.04-2.2 1.68-1.67 2.18-1.04 2.5-.37 2.83v42.1h-3v-42.3l.45-3.4 1.34-3.25 2.16-2.8 2.8-2.15 3.25-1.34 3.4-.44h8.2zM1444.64 2313.7l-14.26-4.64 14.26-4.63z" fill="#333"/><path d="M1446.14 2315.76l-20.62-6.7 20.62-6.7zm-10.9-6.7l7.9 2.57v-5.14zM1502.13 2179.06l-14.27 4.64v-9.27z" fill="#333"/><path d="M1506.98 2179.06l-20.62 6.7v-13.4zm-17.62 2.57l7.9-2.57-7.9-2.57z" fill="#333"/><use xlink:href="#p" transform="matrix(1,0,0,1,1435.0277328611385,2233.2625000000567) translate(0.004999999999999005 14.4)"/><path d="M1289.74 2205.53h81.87l12 12v48h-93.86z" stroke="#333" fill="#fff"/><path d="M1371.6 2206v11.53h11.53" stroke="#333" fill="#fff"/><use xlink:href="#o" transform="matrix(1,0,0,1,1295.7388894008582,2212.7341341531687) translate(17.525 27.6)"/><path d="M1870.6 2309.06c0 33.14-26.86 60-60 60-33.13 0-60-26.86-60-60 0-33.13 26.87-60 60-60 33.14 0 60 26.87 60 60z" stroke="#333" fill="#fff"/><use xlink:href="#A" transform="matrix(1,0,0,1,1768.6047786531094,2273.062500000057) translate(6.524999999999999 39.6)"/><path d="M2073.06 2179.06c0 33.14-26.86 60-60 60-33.13 0-60-26.86-60-60 0-33.13 26.87-60 60-60 33.14 0 60 26.87 60 60z" stroke="#333" fill="#fff"/><use xlink:href="#l" transform="matrix(1,0,0,1,1971.063160862359,2143.062500000057) translate(14.024999999999999 32.8)"/><use xlink:href="#m" transform="matrix(1,0,0,1,1971.063160862359,2143.062500000057) translate(3.954629629629622 49.06666666666667)"/><use xlink:href="#n" transform="matrix(1,0,0,1,1971.063160862359,2143.062500000057) translate(43.58981481481481 49.06666666666667)"/><path d="M1939.2 2079.06h81.86l12 12v48h-93.87z" stroke="#333" fill="#fff"/><path d="M2021.06 2079.54v11.52h11.53" stroke="#333" fill="#fff"/><use xlink:href="#B" transform="matrix(1,0,0,1,1945.1913600450403,2086.2625000000567) translate(17.525 27.6)"/><path d="M1913.33 2297.16l-.44 3.4-1.36 3.25-2.15 2.82-2.82 2.15-3.24 1.35-3.4.44h-8.2v-3h8l2.82-.37 2.5-1.05 2.2-1.67 1.66-2.18 1.04-2.52.37-2.82v-42.1h3zm18.6-116.6h-8l-2.82.37-2.5 1.04-2.18 1.68-1.68 2.18-1.04 2.5-.37 2.83v42.1h-3v-42.3l.45-3.4 1.34-3.25 2.16-2.8 2.8-2.15 3.25-1.34 3.4-.44h8.2zM1890.23 2313.7l-14.27-4.64 14.27-4.63z" fill="#333"/><path d="M1891.73 2315.76l-20.62-6.7 20.63-6.7zm-10.92-6.7l7.93 2.57v-5.14zM1947.7 2179.06l-14.26 4.64v-9.27z" fill="#333"/><path d="M1952.56 2179.06l-20.62 6.7v-13.4zm-17.62 2.57l7.9-2.57-7.9-2.57z" fill="#333"/><use xlink:href="#p" transform="matrix(1,0,0,1,1880.6089697577343,2233.2625000000567) translate(0.004999999999999005 14.4)"/><path d="M1735.32 2205.53h81.87l12 12v48h-93.88z" stroke="#333" fill="#fff"/><path d="M1817.2 2206v11.53h11.52" stroke="#333" fill="#fff"/><use xlink:href="#B" transform="matrix(1,0,0,1,1741.320126297454,2212.7341341531687) translate(17.525 27.6)"/><path d="M1180 2222.3c0 33.14-26.86 60-60 60s-60-26.86-60-60 26.86-60 60-60 60 26.86 60 60z" stroke="#333" fill="#fff"/><use xlink:href="#k" transform="matrix(1,0,0,1,1077.9999999999993,2186.298317076613) translate(6.524999999999999 39.6)"/><path d="M1201.12 2222.3h37.76" stroke="#333" stroke-width="3" fill="none"/><path d="M1185.35 2222.3l14.27-4.64v9.27zM1254.65 2222.3l-14.27 4.63v-9.27z" stroke="#333" stroke-width="3" fill="#333"/><path d="M1040 2135.83h81.87l12 12v48H1040z" stroke="#333" fill="#fff"/><path d="M1121.87 2136.3v11.53h11.53" stroke="#333" fill="#fff"/><use xlink:href="#B" transform="matrix(1,0,0,1,1046,2143.0266829235006) translate(17.525 27.6)"/><path d="M1382.44 1947.06c0-4.42 3.58-8 8-8h595.02c4.42 0 8 3.58 8 8v44c0 4.42-3.58 8-8 8h-595.02c-4.42 0-8-3.58-8-8z" stroke="#000" stroke-opacity="0" fill="#fff" fill-opacity="0"/><use xlink:href="#D" transform="matrix(1,0,0,1,1402.4362000399533,1939.0625000000568) translate(25.831481481481433 23.066666666666663)"/><use xlink:href="#E" transform="matrix(1,0,0,1,1402.4362000399533,1939.0625000000568) translate(84.52407407407404 23.066666666666663)"/><use xlink:href="#F" transform="matrix(1,0,0,1,1402.4362000399533,1939.0625000000568) translate(101.80925925925924 23.066666666666663)"/><use xlink:href="#G" transform="matrix(1,0,0,1,1402.4362000399533,1939.0625000000568) translate(169.21666666666664 23.066666666666663)"/><use xlink:href="#H" transform="matrix(1,0,0,1,1402.4362000399533,1939.0625000000568) translate(204.74999999999997 23.066666666666663)"/><use xlink:href="#I" transform="matrix(1,0,0,1,1402.4362000399533,1939.0625000000568) translate(219.19444444444443 23.066666666666663)"/><use xlink:href="#u" transform="matrix(1,0,0,1,1402.4362000399533,1939.0625000000568) translate(280.8240740740741 23.066666666666663)"/><use xlink:href="#v" transform="matrix(1,0,0,1,1402.4362000399533,1939.0625000000568) translate(300.0833333333333 23.066666666666663)"/><use xlink:href="#J" transform="matrix(1,0,0,1,1402.4362000399533,1939.0625000000568) translate(338.50555555555553 23.066666666666663)"/><use xlink:href="#K" transform="matrix(1,0,0,1,1402.4362000399533,1939.0625000000568) translate(404.8537037037037 23.066666666666663)"/><use xlink:href="#L" transform="matrix(1,0,0,1,1402.4362000399533,1939.0625000000568) translate(443.324074074074 23.066666666666663)"/><use xlink:href="#M" transform="matrix(1,0,0,1,1402.4362000399533,1939.0625000000568) translate(480.7833333333333 23.066666666666663)"/><use xlink:href="#N" transform="matrix(1,0,0,1,1402.4362000399533,1939.0625000000568) translate(517.3277777777778 23.066666666666663)"/><use xlink:href="#O" transform="matrix(1,0,0,1,1402.4362000399533,1939.0625000000568) translate(46.005555555555475 43.86666666666667)"/><use xlink:href="#G" transform="matrix(1,0,0,1,1402.4362000399533,1939.0625000000568) translate(116.25370370370364 43.86666666666667)"/><use xlink:href="#P" transform="matrix(1,0,0,1,1402.4362000399533,1939.0625000000568) translate(151.78703703703698 43.86666666666667)"/><use xlink:href="#Q" transform="matrix(1,0,0,1,1402.4362000399533,1939.0625000000568) translate(175.86111111111106 43.86666666666667)"/><use xlink:href="#R" transform="matrix(1,0,0,1,1402.4362000399533,1939.0625000000568) translate(239.3203703703703 43.86666666666667)"/><use xlink:href="#y" transform="matrix(1,0,0,1,1402.4362000399533,1939.0625000000568) translate(299.93888888888887 43.86666666666667)"/><use xlink:href="#S" transform="matrix(1,0,0,1,1402.4362000399533,1939.0625000000568) translate(360.50925925925924 43.86666666666667)"/><use xlink:href="#T" transform="matrix(1,0,0,1,1402.4362000399533,1939.0625000000568) translate(419.20185185185187 43.86666666666667)"/><use xlink:href="#U" transform="matrix(1,0,0,1,1402.4362000399533,1939.0625000000568) translate(437.45000000000005 43.86666666666667)"/><use xlink:href="#V" transform="matrix(1,0,0,1,1402.4362000399533,1939.0625000000568) translate(466.33888888888896 43.86666666666667)"/><path d="M2240 1852.06c0-4.42 3.58-8 8-8h827.18c4.42 0 8 3.58 8 8v344c0 4.42-3.58 8-8 8H2248c-4.42 0-8-3.58-8-8z" stroke="#333" fill="#ff8f80"/><path d="M2606.5 1822.06c0-4.42 3.58-8 8-8h126.1c4.43 0 8 3.58 8 8v24c0 4.42-3.57 8-8 8h-126.1c-4.42 0-8-3.58-8-8z" stroke="#000" stroke-opacity="0" fill="#ffeca9"/><use xlink:href="#W" transform="matrix(1,0,0,1,2626.4974069876016,1814.0625000000568) translate(10.099999999999994 23.6)"/><use xlink:href="#j" transform="matrix(1,0,0,1,2626.4974069876016,1814.0625000000568) translate(49 23.6)"/><path d="M2405.94 2104.06c0 33.14-26.86 60-60 60-33.13 0-60-26.86-60-60 0-33.13 26.87-60 60-60 33.14 0 60 26.87 60 60z" stroke="#333" fill="#fff"/><use xlink:href="#k" transform="matrix(1,0,0,1,2303.9444584767475,2068.062500000057) translate(6.524999999999999 39.6)"/><path d="M2608.4 1974.06c0 33.14-26.86 60-60 60-33.13 0-60-26.86-60-60 0-33.13 26.87-60 60-60 33.14 0 60 26.87 60 60z" stroke="#333" fill="#fff"/><use xlink:href="#l" transform="matrix(1,0,0,1,2506.402840685997,1938.0625000000568) translate(14.024999999999999 32.8)"/><use xlink:href="#m" transform="matrix(1,0,0,1,2506.402840685997,1938.0625000000568) translate(3.954629629629622 49.06666666666667)"/><use xlink:href="#n" transform="matrix(1,0,0,1,2506.402840685997,1938.0625000000568) translate(43.58981481481481 49.06666666666667)"/><path d="M2474.53 1874.06h81.87l12 12v48h-93.87z" stroke="#333" fill="#fff"/><path d="M2556.4 1874.54v11.52h11.53" stroke="#333" fill="#fff"/><use xlink:href="#o" transform="matrix(1,0,0,1,2480.5310398686784,1881.262500000057) translate(17.525 27.6)"/><path d="M2448.67 2092.16l-.44 3.4-1.35 3.25-2.15 2.82-2.8 2.15-3.25 1.35-3.4.44h-8.22v-3h8.02l2.82-.37 2.5-1.05 2.2-1.67 1.66-2.18 1.04-2.52.37-2.82v-42.1h3zm18.6-116.6h-8l-2.82.37-2.5 1.04-2.2 1.68-1.67 2.18-1.04 2.5-.37 2.83v42.1h-3v-42.3l.45-3.4 1.34-3.25 2.16-2.8 2.8-2.15 3.25-1.34 3.4-.44h8.2zM2425.56 2108.7l-14.26-4.64 14.26-4.63z" fill="#333"/><path d="M2427.06 2110.76l-20.62-6.7 20.62-6.7zm-10.9-6.7l7.9 2.57v-5.14zM2483.05 1974.06l-14.27 4.64v-9.27z" fill="#333"/><path d="M2487.9 1974.06l-20.62 6.7v-13.4zm-17.62 2.57l7.9-2.57-7.9-2.57z" fill="#333"/><use xlink:href="#p" transform="matrix(1,0,0,1,2415.948649581372,2028.2625000000567) translate(0.004999999999999005 14.4)"/><path d="M2477.56 1763.63c0-4.42 3.58-8 8-8h384c4.4 0 8 3.58 8 8v44c0 4.4-3.6 8-8 8h-384c-4.42 0-8-3.6-8-8z" stroke="#000" stroke-opacity="0" fill="#fff" fill-opacity="0"/><use xlink:href="#X" transform="matrix(1,0,0,1,2497.556149158796,1755.6250000001137) translate(138.6648148148148 33.46666666666667)"/><path d="M2851.53 2104.06c0 33.14-26.87 60-60 60-33.14 0-60-26.86-60-60 0-33.13 26.86-60 60-60 33.13 0 60 26.87 60 60z" stroke="#333" fill="#fff"/><use xlink:href="#A" transform="matrix(1,0,0,1,2749.5256953733433,2068.062500000057) translate(6.524999999999999 39.6)"/><path d="M3053.98 1974.06c0 33.14-26.86 60-60 60-33.13 0-60-26.86-60-60 0-33.13 26.87-60 60-60 33.14 0 60 26.87 60 60z" stroke="#333" fill="#fff"/><use xlink:href="#l" transform="matrix(1,0,0,1,2951.984077582593,1938.0625000000568) translate(14.024999999999999 32.8)"/><use xlink:href="#m" transform="matrix(1,0,0,1,2951.984077582593,1938.0625000000568) translate(3.954629629629622 49.06666666666667)"/><use xlink:href="#n" transform="matrix(1,0,0,1,2951.984077582593,1938.0625000000568) translate(43.58981481481481 49.06666666666667)"/><path d="M2920.1 1874.06H3002l12 12v48h-93.87z" stroke="#333" fill="#fff"/><path d="M3001.98 1874.54v11.52h11.53" stroke="#333" fill="#fff"/><use xlink:href="#B" transform="matrix(1,0,0,1,2926.112276765274,1881.262500000057) translate(17.525 27.6)"/><path d="M2894.25 2092.16l-.44 3.4-1.34 3.25-2.15 2.82-2.8 2.15-3.24 1.35-3.4.44h-8.2v-3h8l2.82-.37 2.5-1.05 2.2-1.67 1.66-2.18 1.05-2.52.35-2.82v-42.1h3zm18.6-116.6h-8l-2.82.37-2.5 1.04-2.2 1.68-1.66 2.18-1.05 2.5-.37 2.83v42.1h-3v-42.3l.45-3.4 1.35-3.25 2.15-2.8 2.8-2.15 3.25-1.34 3.4-.44h8.2zM2871.15 2108.7l-14.27-4.64 14.27-4.63z" fill="#333"/><path d="M2872.65 2110.76l-20.62-6.7 20.62-6.7zm-10.92-6.7l7.92 2.57v-5.14zM2928.63 1974.06l-14.27 4.64v-9.27z" fill="#333"/><path d="M2933.48 1974.06l-20.62 6.7v-13.4zm-17.62 2.57l7.92-2.57-7.92-2.57z" fill="#333"/><use xlink:href="#p" transform="matrix(1,0,0,1,2861.5298864779684,2028.2625000000571) translate(0.004999999999999005 14.4)"/><path d="M2716.24 2000.53h81.87l12 12v48h-93.86z" stroke="#333" fill="#fff"/><path d="M2798.1 2001v11.53h11.54" stroke="#333" fill="#fff"/><g><use xlink:href="#B" transform="matrix(1,0,0,1,2722.241043017688,2007.734134153169) translate(17.525 27.6)"/></g><path d="M2255.97 2328.94c0-4.42 3.58-8 8-8h827.18c4.4 0 8 3.58 8 8v344c0 4.42-3.6 8-8 8h-827.18c-4.42 0-8-3.58-8-8z" stroke="#333" fill="#c7e8ac"/><path d="M2622.46 2298.94c0-4.42 3.6-8 8-8h126.12c4.42 0 8 3.58 8 8v24c0 4.42-3.58 8-8 8h-126.12c-4.4 0-8-3.58-8-8z" stroke="#000" stroke-opacity="0" fill="#ffeca9"/><g><use xlink:href="#W" transform="matrix(1,0,0,1,2642.4643583902175,2290.937499999943) translate(10.099999999999994 23.6)"/><use xlink:href="#j" transform="matrix(1,0,0,1,2642.4643583902175,2290.937499999943) translate(49 23.6)"/></g><path d="M2421.9 2580.94c0 33.13-26.85 60-60 60-33.13 0-60-26.87-60-60 0-33.14 26.87-60 60-60 33.15 0 60 26.86 60 60z" stroke="#333" fill="#fff"/><g><use xlink:href="#k" transform="matrix(1,0,0,1,2319.9114098793634,2544.937499999943) translate(6.524999999999999 39.6)"/></g><path d="M2624.37 2450.94c0 33.13-26.86 60-60 60s-60-26.87-60-60c0-33.14 26.86-60 60-60s60 26.86 60 60z" stroke="#333" fill="#fff"/><g><use xlink:href="#l" transform="matrix(1,0,0,1,2522.369792088613,2414.937499999943) translate(14.024999999999999 32.8)"/><use xlink:href="#m" transform="matrix(1,0,0,1,2522.369792088613,2414.937499999943) translate(3.954629629629622 49.06666666666667)"/><use xlink:href="#n" transform="matrix(1,0,0,1,2522.369792088613,2414.937499999943) translate(43.58981481481481 49.06666666666667)"/></g><path d="M2490.5 2350.94h81.87l12 12v48h-93.87z" stroke="#333" fill="#fff"/><path d="M2572.37 2351.4v11.54h11.52" stroke="#333" fill="#fff"/><g><use xlink:href="#o" transform="matrix(1,0,0,1,2496.4979912712943,2358.137499999943) translate(17.525 27.6)"/></g><path d="M2446.3 2580.67l1.23 2.97v63.32l.37 2.83 1.04 2.5 1.68 2.18 2.18 1.67 2.5 1.04 2.83.36h133.94v3h-134.14l-3.4-.44-3.25-1.35-2.8-2.15-2.16-2.8-1.34-3.25-.45-3.4v-62.93l-.53-1.28-1.54-.64 1.15-2.77zm565.15 66.5l-.45 3.4-1.34 3.24-2.15 2.82-2.8 2.15-3.24 1.35-3.4.44H2654.5v-3h343.33l2.82-.37 2.52-1.05 2.17-1.67 1.67-2.18 1.04-2.52.37-2.82v-114.9h3zM2441.53 2585.57l-14.26-4.63 14.26-4.64z" fill="#333"/><path d="M2443.03 2587.64l-20.62-6.7 20.63-6.7zm-10.9-6.7l7.9 2.57v-5.13zM3014.6 2530.56h-9.28l4.63-14.27z" fill="#333"/><path d="M3016.65 2532.06h-13.4l6.7-20.62zm-9.27-3h5.14l-2.57-7.9z" fill="#333"/><g><use xlink:href="#p" transform="matrix(1,0,0,1,2592.0718289542287,2648.2625000000567) translate(0.004999999999999005 14.4)"/></g><path d="M2867.5 2580.94c0 33.13-26.87 60-60 60-33.14 0-60-26.87-60-60 0-33.14 26.86-60 60-60 33.13 0 60 26.86 60 60z" stroke="#333" fill="#fff"/><g><use xlink:href="#A" transform="matrix(1,0,0,1,2765.492646775959,2544.937499999943) translate(6.524999999999999 39.6)"/></g><path d="M3069.95 2450.94c0 33.13-26.86 60-60 60s-60-26.87-60-60c0-33.14 26.86-60 60-60s60 26.86 60 60z" stroke="#333" fill="#fff"/><g><use xlink:href="#l" transform="matrix(1,0,0,1,2967.9510289852087,2414.937499999943) translate(14.024999999999999 32.8)"/><use xlink:href="#m" transform="matrix(1,0,0,1,2967.9510289852087,2414.937499999943) translate(3.954629629629622 49.06666666666667)"/><use xlink:href="#n" transform="matrix(1,0,0,1,2967.9510289852087,2414.937499999943) translate(43.58981481481481 49.06666666666667)"/></g><path d="M2936.08 2350.94h81.87l12 12v48h-93.87z" stroke="#333" fill="#fff"/><path d="M3017.95 2351.4v11.54h11.52" stroke="#333" fill="#fff"/><g><use xlink:href="#B" transform="matrix(1,0,0,1,2942.07922816789,2358.137499999943) translate(17.525 27.6)"/></g><path d="M2910.22 2569.04l-.44 3.4-1.35 3.25-2.15 2.8-2.8 2.15-3.25 1.34-3.4.44h-8.22v-3h8.02l2.82-.37 2.52-1.04 2.18-1.68 1.67-2.18 1.05-2.5.37-2.83v-42.1h3zm18.6-116.6h-8l-2.82.37-2.5 1.05-2.2 1.67-1.67 2.18-1.04 2.5-.38 2.84v42.1h-3v-42.3l.45-3.4 1.34-3.25 2.17-2.82 2.8-2.15 3.25-1.35 3.4-.44h8.2zM2887.1 2585.57l-14.25-4.63 14.26-4.64z" fill="#333"/><path d="M2888.6 2587.64l-20.6-6.7 20.6-6.7zm-10.9-6.7l7.9 2.57v-5.13zM2944.6 2450.94l-14.27 4.63v-9.27z" fill="#333"/><path d="M2949.45 2450.94l-20.62 6.7v-13.4zm-17.62 2.57l7.9-2.56-7.9-2.57z" fill="#333"/><g><use xlink:href="#p" transform="matrix(1,0,0,1,2877.496837880584,2505.1374999999425) translate(0.004999999999999005 14.4)"/></g><path d="M2732.2 2477.4h81.88l12 12v48h-93.87z" stroke="#333" fill="#fff"/><path d="M2814.08 2477.9v11.5h11.52" stroke="#333" fill="#fff"/><g><use xlink:href="#B" transform="matrix(1,0,0,1,2738.2079944203037,2484.609134153055) translate(17.525 27.6)"/></g><path d="M2275.92 2009.06h81.87l12 12v48h-93.88z" stroke="#333" fill="#fff"/><path d="M2357.8 2009.54v11.52h11.52" stroke="#333" fill="#fff"/><g><use xlink:href="#o" transform="matrix(1,0,0,1,2281.922869936705,2016.262500000057) translate(17.525 27.6)"/></g><path d="M2285.94 2477.4h81.88l12 12v48h-93.88z" stroke="#333" fill="#fff"/><path d="M2367.82 2477.9v11.5h11.52" stroke="#333" fill="#fff"/><g><use xlink:href="#B" transform="matrix(1,0,0,1,2291.9444584767475,2484.609134153055) translate(17.525 27.6)"/></g><path d="M2789.7 2445.7l-2.14 2.8-2.8 2.15-3.25 1.34-3.4.44h-132.6v-3h132.4l2.82-.37 2.5-1.04 2.2-1.68.85-1.1h3.63zm147.38-23.7H2802.1l-2.82.38-2.5 1.04-.3.22h-4.56l.53-.7 2.8-2.14 3.25-1.35 3.4-.44h135.18zM2644 2455.57l-14.28-4.63 14.27-4.64z" fill="#333"/><path d="M2645.5 2457.64l-20.63-6.7 20.62-6.7zm-10.92-6.7l7.9 2.57v-5.13zM2952.85 2420.5l-14.27 4.64v-9.27z" fill="#333"/><path d="M2957.7 2420.5l-20.62 6.7v-13.4zm-17.62 2.58l7.92-2.57-7.92-2.56z" fill="#333"/><g><use xlink:href="#Y" transform="matrix(1,0,0,1,2690.775,2423.6356258147553) translate(0.0049999999999954525 14.4)"/></g><path d="M1456.3 2768c0-4.42 3.6-8 8-8h384c4.43 0 8 3.58 8 8v44c0 4.42-3.57 8-8 8h-384c-4.4 0-8-3.58-8-8z" stroke="#000" stroke-opacity="0" fill="#fff" fill-opacity="0"/><g><use xlink:href="#X" transform="matrix(1,0,0,1,1476.3106731692824,2760) translate(138.6648148148148 33.46666666666667)"/></g><defs><path fill="#333" d="M27 0v-27h64v-190l-56 39v-29l58-41h29v221h61V0H27" id="Z"/><use transform="matrix(0.05,0,0,0.05,0,0)" xlink:href="#Z" id="a"/><path fill="#333" d="M238-95c0 69-44 99-111 99C63 4 22-25 22-93v-155h51v151c-1 38 19 59 55 60 90 1 49-130 58-211h52v153" id="aa"/><path fill="#333" d="M135-194c53 0 70 44 70 98 0 56-19 98-73 100-31 1-45-17-59-34 3 33 2 69 2 105H25l-1-265h48c2 10 0 23 3 31 11-24 29-35 60-35zM114-30c33 0 39-31 40-66 0-38-9-64-40-64-56 0-55 130 0 130" id="ab"/><path fill="#333" d="M88-194c31-1 46 15 58 34l-1-101h50l1 261h-48c-2-10 0-23-3-31C134-8 116 4 84 4 32 4 16-41 15-95c0-56 19-97 73-99zm17 164c33 0 40-30 41-66 1-37-9-64-41-64s-38 30-39 65c0 43 13 65 39 65" id="ac"/><path fill="#333" d="M133-34C117-15 103 5 69 4 32 3 11-16 11-54c-1-60 55-63 116-61 1-26-3-47-28-47-18 1-26 9-28 27l-52-2c7-38 36-58 82-57s74 22 75 68l1 82c-1 14 12 18 25 15v27c-30 8-71 5-69-32zm-48 3c29 0 43-24 42-57-32 0-66-3-65 30 0 17 8 27 23 27" id="ad"/><path fill="#333" d="M115-3C79 11 28 4 28-45v-112H4v-33h27l15-45h31v45h36v33H77v99c-1 23 16 31 38 25v30" id="ae"/><path fill="#333" d="M185-48c-13 30-37 53-82 52C43 2 14-33 14-96s30-98 90-98c62 0 83 45 84 108H66c0 31 8 55 39 56 18 0 30-7 34-22zm-45-69c5-46-57-63-70-21-2 6-4 13-4 21h74" id="af"/><g id="b"><use transform="matrix(0.06790123456790124,0,0,0.06790123456790124,0,0)" xlink:href="#aa"/><use transform="matrix(0.06790123456790124,0,0,0.06790123456790124,17.58641975308642,0)" xlink:href="#ab"/><use transform="matrix(0.06790123456790124,0,0,0.06790123456790124,32.45679012345679,0)" xlink:href="#ac"/><use transform="matrix(0.06790123456790124,0,0,0.06790123456790124,47.327160493827165,0)" xlink:href="#ad"/><use transform="matrix(0.06790123456790124,0,0,0.06790123456790124,60.90740740740741,0)" xlink:href="#ae"/><use transform="matrix(0.06790123456790124,0,0,0.06790123456790124,68.98765432098766,0)" xlink:href="#af"/></g><path fill="#333" d="M137-138c1-29-70-34-71-4 15 46 118 7 119 86 1 83-164 76-172 9l43-7c4 19 20 25 44 25 33 8 57-30 24-41C81-84 22-81 20-136c-2-80 154-74 161-7" id="ag"/><g id="c"><use transform="matrix(0.06790123456790124,0,0,0.06790123456790124,0,0)" xlink:href="#aa"/><use transform="matrix(0.06790123456790124,0,0,0.06790123456790124,17.58641975308642,0)" xlink:href="#ag"/><use transform="matrix(0.06790123456790124,0,0,0.06790123456790124,31.16666666666667,0)" xlink:href="#af"/></g><path fill="#333" d="M67-125c0 53 21 87 73 88 37 1 54-22 65-47l45 17C233-25 199 4 140 4 58 4 20-42 15-125 8-235 124-281 211-232c18 10 29 29 36 50l-46 12c-8-25-30-41-62-41-52 0-71 34-72 86" id="ah"/><g id="d"><use transform="matrix(0.06790123456790124,0,0,0.06790123456790124,0,0)" xlink:href="#ah"/><use transform="matrix(0.06790123456790124,0,0,0.06790123456790124,17.58641975308642,0)" xlink:href="#ad"/><use transform="matrix(0.06790123456790124,0,0,0.06790123456790124,31.16666666666667,0)" xlink:href="#ag"/><use transform="matrix(0.06790123456790124,0,0,0.06790123456790124,44.74691358024692,0)" xlink:href="#af"/></g><path fill="#333" d="M160-152l-12 59h37v26h-43L128 0h-28l14-67H60L46 0H20l13-67H6v-26h33l13-59H15v-26h42l15-67h27l-15 67h54l15-67h27l-14 67h28v26h-34zm-81 0L66-93h55l12-59H79" id="ai"/><path fill="#333" d="M128-127c34 4 56 21 59 58 7 91-148 94-172 28-4-9-6-17-7-26l51-5c1 24 16 35 40 36 23 0 39-12 38-36-1-31-31-36-65-34v-40c32 2 59-3 59-33 0-20-13-33-34-33s-33 13-35 32l-50-3c6-44 37-68 86-68 50 0 83 20 83 66 0 35-22 52-53 58" id="aj"/><g id="e"><use transform="matrix(0.06790123456790124,0,0,0.06790123456790124,0,0)" xlink:href="#ai"/><use transform="matrix(0.06790123456790124,0,0,0.06790123456790124,13.580246913580249,0)" xlink:href="#aj"/></g><path fill="#333" d="M18-150v-26h174v26H18zm0 90v-26h174v26H18" id="ak"/><use transform="matrix(0.05,0,0,0.05,0,0)" xlink:href="#ak" id="f"/><path fill="#333" d="M30-248c87 1 191-15 191 75 0 78-77 80-158 76V0H30v-248zm33 125c57 0 124 11 124-50 0-59-68-47-124-48v98" id="al"/><path fill="#333" d="M233-177c-1 41-23 64-60 70L243 0h-38l-65-103H63V0H30v-248c88 3 205-21 203 71zM63-129c60-2 137 13 137-47 0-61-80-42-137-45v92" id="am"/><path fill="#333" d="M30 0v-248h187v28H63v79h144v27H63v87h162V0H30" id="an"/><path fill="#333" d="M137 0h-34L2-248h35l83 218 83-218h36" id="ao"/><path fill="#333" d="M190 0L58-211 59 0H30v-248h39L202-35l-2-213h31V0h-41" id="ap"/><path fill="#333" d="M127-220V0H93v-220H8v-28h204v28h-85" id="aq"/><path fill="#333" d="M-5 72V49h209v23H-5" id="ar"/><path fill="#333" d="M33 0v-248h34V0H33" id="as"/><path fill="#333" d="M30-248c118-7 216 8 213 122C240-48 200 0 122 0H30v-248zM63-27c89 8 146-16 146-99s-60-101-146-95v194" id="at"/><path fill="#333" d="M232-93c-1 65-40 97-104 97C67 4 28-28 28-90v-158h33c8 89-33 224 67 224 102 0 64-133 71-224h33v155" id="au"/><path fill="#333" d="M205 0l-28-72H64L36 0H1l101-248h38L239 0h-34zm-38-99l-47-123c-12 45-31 82-46 123h93" id="av"/><path fill="#333" d="M185-189c-5-48-123-54-124 2 14 75 158 14 163 119 3 78-121 87-175 55-17-10-28-26-33-46l33-7c5 56 141 63 141-1 0-78-155-14-162-118-5-82 145-84 179-34 5 7 8 16 11 25" id="aw"/><path fill="#333" d="M240 0l2-218c-23 76-54 145-80 218h-23L58-218 59 0H30v-248h44l77 211c21-75 51-140 76-211h43V0h-30" id="ax"/><path fill="#333" d="M140-251c81 0 123 46 123 126C263-46 219 4 140 4 59 4 17-45 17-125s42-126 123-126zm0 227c63 0 89-41 89-101s-29-99-89-99c-61 0-89 39-89 99S79-25 140-24" id="ay"/><g id="g"><use transform="matrix(0.05,0,0,0.05,0,0)" xlink:href="#al"/><use transform="matrix(0.05,0,0,0.05,12,0)" xlink:href="#am"/><use transform="matrix(0.05,0,0,0.05,24.950000000000003,0)" xlink:href="#an"/><use transform="matrix(0.05,0,0,0.05,36.95,0)" xlink:href="#ao"/><use transform="matrix(0.05,0,0,0.05,48.95,0)" xlink:href="#an"/><use transform="matrix(0.05,0,0,0.05,60.95,0)" xlink:href="#ap"/><use transform="matrix(0.05,0,0,0.05,73.9,0)" xlink:href="#aq"/><use transform="matrix(0.05,0,0,0.05,84.85000000000001,0)" xlink:href="#ar"/><use transform="matrix(0.05,0,0,0.05,94.85000000000001,0)" xlink:href="#an"/><use transform="matrix(0.05,0,0,0.05,106.85000000000001,0)" xlink:href="#as"/><use transform="matrix(0.05,0,0,0.05,111.85000000000001,0)" xlink:href="#at"/><use transform="matrix(0.05,0,0,0.05,124.80000000000001,0)" xlink:href="#ar"/><use transform="matrix(0.05,0,0,0.05,134.8,0)" xlink:href="#au"/><use transform="matrix(0.05,0,0,0.05,147.75,0)" xlink:href="#al"/><use transform="matrix(0.05,0,0,0.05,159.75,0)" xlink:href="#at"/><use transform="matrix(0.05,0,0,0.05,172.7,0)" xlink:href="#av"/><use transform="matrix(0.05,0,0,0.05,183.35,0)" xlink:href="#aq"/><use transform="matrix(0.05,0,0,0.05,194.29999999999998,0)" xlink:href="#an"/><use transform="matrix(0.05,0,0,0.05,206.29999999999995,0)" xlink:href="#aw"/><use transform="matrix(0.05,0,0,0.05,218.29999999999995,0)" xlink:href="#ar"/><use transform="matrix(0.05,0,0,0.05,228.29999999999995,0)" xlink:href="#ax"/><use transform="matrix(0.05,0,0,0.05,243.24999999999997,0)" xlink:href="#ay"/><use transform="matrix(0.05,0,0,0.05,257.25,0)" xlink:href="#at"/><use transform="matrix(0.05,0,0,0.05,270.2,0)" xlink:href="#an"/></g><path fill="#333" d="M30 0v-248h33v221h125V0H30" id="az"/><path fill="#333" d="M266 0h-40l-56-210L115 0H75L2-248h35L96-30l15-64 43-154h32l59 218 59-218h35" id="aA"/><g id="h"><use transform="matrix(0.05,0,0,0.05,0,0)" xlink:href="#av"/><use transform="matrix(0.05,0,0,0.05,12,0)" xlink:href="#az"/><use transform="matrix(0.05,0,0,0.05,22,0)" xlink:href="#az"/><use transform="matrix(0.05,0,0,0.05,32,0)" xlink:href="#ay"/><use transform="matrix(0.05,0,0,0.05,46,0)" xlink:href="#aA"/><use transform="matrix(0.05,0,0,0.05,62.95,0)" xlink:href="#ar"/><use transform="matrix(0.05,0,0,0.05,72.95,0)" xlink:href="#an"/><use transform="matrix(0.05,0,0,0.05,84.95,0)" xlink:href="#as"/><use transform="matrix(0.05,0,0,0.05,89.95,0)" xlink:href="#at"/><use transform="matrix(0.05,0,0,0.05,102.9,0)" xlink:href="#ar"/><use transform="matrix(0.05,0,0,0.05,112.9,0)" xlink:href="#au"/><use transform="matrix(0.05,0,0,0.05,125.85000000000001,0)" xlink:href="#al"/><use transform="matrix(0.05,0,0,0.05,137.85000000000002,0)" xlink:href="#at"/><use transform="matrix(0.05,0,0,0.05,150.8,0)" xlink:href="#av"/><use transform="matrix(0.05,0,0,0.05,161.45000000000002,0)" xlink:href="#aq"/><use transform="matrix(0.05,0,0,0.05,172.4,0)" xlink:href="#an"/><use transform="matrix(0.05,0,0,0.05,184.4,0)" xlink:href="#aw"/><use transform="matrix(0.05,0,0,0.05,196.4,0)" xlink:href="#ar"/><use transform="matrix(0.05,0,0,0.05,206.4,0)" xlink:href="#ax"/><use transform="matrix(0.05,0,0,0.05,221.35000000000002,0)" xlink:href="#ay"/><use transform="matrix(0.05,0,0,0.05,235.35000000000002,0)" xlink:href="#at"/><use transform="matrix(0.05,0,0,0.05,248.29999999999995,0)" xlink:href="#an"/></g><path fill="#333" d="M169-182c-1-43-94-46-97-3 18 66 151 10 154 114 3 95-165 93-204 36-6-8-10-19-12-30l50-8c3 46 112 56 116 5-17-69-150-10-154-114-4-87 153-88 188-35 5 8 8 18 10 28" id="aB"/><path fill="#333" d="M135-150c-39-12-60 13-60 57V0H25l-1-190h47c2 13-1 29 3 40 6-28 27-53 61-41v41" id="aC"/><g id="i"><use transform="matrix(0.05,0,0,0.05,0,0)" xlink:href="#aB"/><use transform="matrix(0.05,0,0,0.05,12,0)" xlink:href="#ae"/><use transform="matrix(0.05,0,0,0.05,17.95,0)" xlink:href="#ad"/><use transform="matrix(0.05,0,0,0.05,27.950000000000003,0)" xlink:href="#aC"/><use transform="matrix(0.05,0,0,0.05,34.95,0)" xlink:href="#ae"/></g><g id="j"><use transform="matrix(0.05,0,0,0.05,0,0)" xlink:href="#aB"/><use transform="matrix(0.05,0,0,0.05,12,0)" xlink:href="#ae"/><use transform="matrix(0.05,0,0,0.05,17.95,0)" xlink:href="#ad"/><use transform="matrix(0.05,0,0,0.05,27.950000000000003,0)" xlink:href="#ae"/><use transform="matrix(0.05,0,0,0.05,33.9,0)" xlink:href="#af"/></g><path d="M30-248c87 1 191-15 191 75 0 78-77 80-158 76V0H30v-248zm33 125c57 0 124 11 124-50 0-59-68-47-124-48v98" id="aD"/><path d="M141-36C126-15 110 5 73 4 37 3 15-17 15-53c-1-64 63-63 125-63 3-35-9-54-41-54-24 1-41 7-42 31l-33-3c5-37 33-52 76-52 45 0 72 20 72 64v82c-1 20 7 32 28 27v20c-31 9-61-2-59-35zM48-53c0 20 12 33 32 33 41-3 63-29 60-74-43 2-92-5-92 41" id="aE"/><path d="M59-47c-2 24 18 29 38 22v24C64 9 27 4 27-40v-127H5v-23h24l9-43h21v43h35v23H59v120" id="aF"/><path d="M24-231v-30h32v30H24zM24 0v-190h32V0H24" id="aG"/><path d="M100-194c63 0 86 42 84 106H49c0 40 14 67 53 68 26 1 43-12 49-29l28 8c-11 28-37 45-77 45C44 4 14-33 15-96c1-61 26-98 85-98zm52 81c6-60-76-77-97-28-3 7-6 17-6 28h103" id="aH"/><path d="M117-194c89-4 53 116 60 194h-32v-121c0-31-8-49-39-48C34-167 62-67 57 0H25l-1-190h30c1 10-1 24 2 32 11-22 29-35 61-36" id="aI"/><path d="M0 4l72-265h28L28 4H0" id="aJ"/><path d="M27 0v-27h64v-190l-56 39v-29l58-41h29v221h61V0H27" id="aK"/><g id="k"><use transform="matrix(0.05,0,0,0.05,0,0)" xlink:href="#aD"/><use transform="matrix(0.05,0,0,0.05,12,0)" xlink:href="#aE"/><use transform="matrix(0.05,0,0,0.05,22,0)" xlink:href="#aF"/><use transform="matrix(0.05,0,0,0.05,27,0)" xlink:href="#aG"/><use transform="matrix(0.05,0,0,0.05,30.950000000000003,0)" xlink:href="#aH"/><use transform="matrix(0.05,0,0,0.05,40.95,0)" xlink:href="#aI"/><use transform="matrix(0.05,0,0,0.05,50.95,0)" xlink:href="#aF"/><use transform="matrix(0.05,0,0,0.05,55.95,0)" xlink:href="#aJ"/><use transform="matrix(0.05,0,0,0.05,60.95,0)" xlink:href="#aK"/></g><g id="l"><use transform="matrix(0.05,0,0,0.05,0,0)" xlink:href="#aD"/><use transform="matrix(0.05,0,0,0.05,12,0)" xlink:href="#aE"/><use transform="matrix(0.05,0,0,0.05,22,0)" xlink:href="#aF"/><use transform="matrix(0.05,0,0,0.05,27,0)" xlink:href="#aG"/><use transform="matrix(0.05,0,0,0.05,30.950000000000003,0)" xlink:href="#aH"/><use transform="matrix(0.05,0,0,0.05,40.95,0)" xlink:href="#aI"/><use transform="matrix(0.05,0,0,0.05,50.95,0)" xlink:href="#aF"/></g><path d="M143 4C61 4 22-44 18-125c-5-107 100-154 193-111 17 8 29 25 37 43l-32 9c-13-25-37-40-76-40-61 0-88 39-88 99 0 61 29 100 91 101 35 0 62-11 79-27v-45h-74v-28h105v86C228-13 192 4 143 4" id="aL"/><path d="M100-194c62-1 85 37 85 99 1 63-27 99-86 99S16-35 15-95c0-66 28-99 85-99zM99-20c44 1 53-31 53-75 0-43-8-75-51-75s-53 32-53 75 10 74 51 75" id="aM"/><path d="M24 0v-261h32V0H24" id="aN"/><path d="M85-194c31 0 48 13 60 33l-1-100h32l1 261h-30c-2-10 0-23-3-31C134-8 116 4 85 4 32 4 16-35 15-94c0-66 23-100 70-100zm9 24c-40 0-46 34-46 75 0 40 6 74 45 74 42 0 51-32 51-76 0-42-9-74-50-73" id="aO"/><g id="m"><use transform="matrix(0.031481481481481485,0,0,0.031481481481481485,0,0)" xlink:href="#aL"/><use transform="matrix(0.031481481481481485,0,0,0.031481481481481485,8.814814814814817,0)" xlink:href="#aM"/><use transform="matrix(0.031481481481481485,0,0,0.031481481481481485,15.111111111111114,0)" xlink:href="#aN"/><use transform="matrix(0.031481481481481485,0,0,0.031481481481481485,17.59814814814815,0)" xlink:href="#aO"/><use transform="matrix(0.031481481481481485,0,0,0.031481481481481485,23.89444444444445,0)" xlink:href="#aH"/><use transform="matrix(0.031481481481481485,0,0,0.031481481481481485,30.190740740740747,0)" xlink:href="#aI"/></g><path d="M233-177c-1 41-23 64-60 70L243 0h-38l-65-103H63V0H30v-248c88 3 205-21 203 71zM63-129c60-2 137 13 137-47 0-61-80-42-137-45v92" id="aP"/><path d="M96-169c-40 0-48 33-48 73s9 75 48 75c24 0 41-14 43-38l32 2c-6 37-31 61-74 61-59 0-76-41-82-99-10-93 101-131 147-64 4 7 5 14 7 22l-32 3c-4-21-16-35-41-35" id="aQ"/><path d="M114-163C36-179 61-72 57 0H25l-1-190h30c1 12-1 29 2 39 6-27 23-49 58-41v29" id="aR"/><g id="n"><use transform="matrix(0.031481481481481485,0,0,0.031481481481481485,0,0)" xlink:href="#aP"/><use transform="matrix(0.031481481481481485,0,0,0.031481481481481485,8.153703703703705,0)" xlink:href="#aH"/><use transform="matrix(0.031481481481481485,0,0,0.031481481481481485,14.450000000000003,0)" xlink:href="#aQ"/><use transform="matrix(0.031481481481481485,0,0,0.031481481481481485,20.11666666666667,0)" xlink:href="#aM"/><use transform="matrix(0.031481481481481485,0,0,0.031481481481481485,26.41296296296297,0)" xlink:href="#aR"/><use transform="matrix(0.031481481481481485,0,0,0.031481481481481485,30.159259259259265,0)" xlink:href="#aO"/></g><path fill="#333" d="M33-154v-36h34v36H33zM33 0v-36h34V0H33" id="aS"/><g id="o"><use transform="matrix(0.05,0,0,0.05,0,0)" xlink:href="#an"/><use transform="matrix(0.05,0,0,0.05,12,0)" xlink:href="#as"/><use transform="matrix(0.05,0,0,0.05,17,0)" xlink:href="#at"/><use transform="matrix(0.05,0,0,0.05,29.950000000000003,0)" xlink:href="#aS"/><use transform="matrix(0.05,0,0,0.05,34.95,0)" xlink:href="#av"/></g><path fill="#333" d="M212-179c-10-28-35-45-73-45-59 0-87 40-87 99 0 60 29 101 89 101 43 0 62-24 78-52l27 14C228-24 195 4 139 4 59 4 22-46 18-125c-6-104 99-153 187-111 19 9 31 26 39 46" id="aT"/><path fill="#333" d="M197 0v-115H63V0H30v-248h33v105h134v-105h34V0h-34" id="aU"/><g id="p"><use transform="matrix(0.05,0,0,0.05,0,0)" xlink:href="#ax"/><use transform="matrix(0.05,0,0,0.05,14.950000000000001,0)" xlink:href="#av"/><use transform="matrix(0.05,0,0,0.05,25.6,0)" xlink:href="#aq"/><use transform="matrix(0.05,0,0,0.05,36.550000000000004,0)" xlink:href="#aT"/><use transform="matrix(0.05,0,0,0.05,49.50000000000001,0)" xlink:href="#aU"/></g><path d="M127-220V0H93v-220H8v-28h204v28h-85" id="aV"/><path d="M206 0h-36l-40-164L89 0H53L-1-190h32L70-26l43-164h34l41 164 42-164h31" id="aW"/><g id="q"><use transform="matrix(0.048148148148148155,0,0,0.048148148148148155,0,0)" xlink:href="#aV"/><use transform="matrix(0.048148148148148155,0,0,0.048148148148148155,9.581481481481482,0)" xlink:href="#aW"/><use transform="matrix(0.048148148148148155,0,0,0.048148148148148155,22.051851851851854,0)" xlink:href="#aM"/></g><path d="M115-194c55 1 70 41 70 98S169 2 115 4C84 4 66-9 55-30l1 105H24l-1-265h31l2 30c10-21 28-34 59-34zm-8 174c40 0 45-34 45-75s-6-73-45-74c-42 0-51 32-51 76 0 43 10 73 51 73" id="aX"/><path d="M135-143c-3-34-86-38-87 0 15 53 115 12 119 90S17 21 10-45l28-5c4 36 97 45 98 0-10-56-113-15-118-90-4-57 82-63 122-42 12 7 21 19 24 35" id="aY"/><path d="M68-38c1 34 0 65-14 84H32c9-13 17-26 17-46H33v-38h35" id="aZ"/><g id="r"><use transform="matrix(0.048148148148148155,0,0,0.048148148148148155,0,0)" xlink:href="#aX"/><use transform="matrix(0.048148148148148155,0,0,0.048148148148148155,9.629629629629632,0)" xlink:href="#aE"/><use transform="matrix(0.048148148148148155,0,0,0.048148148148148155,19.259259259259263,0)" xlink:href="#aF"/><use transform="matrix(0.048148148148148155,0,0,0.048148148148148155,24.07407407407408,0)" xlink:href="#aG"/><use transform="matrix(0.048148148148148155,0,0,0.048148148148148155,27.877777777777784,0)" xlink:href="#aH"/><use transform="matrix(0.048148148148148155,0,0,0.048148148148148155,37.50740740740741,0)" xlink:href="#aI"/><use transform="matrix(0.048148148148148155,0,0,0.048148148148148155,47.13703703703705,0)" xlink:href="#aF"/><use transform="matrix(0.048148148148148155,0,0,0.048148148148148155,51.951851851851856,0)" xlink:href="#aY"/><use transform="matrix(0.048148148148148155,0,0,0.048148148148148155,60.61851851851853,0)" xlink:href="#aZ"/></g><path d="M106-169C34-169 62-67 57 0H25v-261h32l-1 103c12-21 28-36 61-36 89 0 53 116 60 194h-32v-121c2-32-8-49-39-48" id="ba"/><g id="s"><use transform="matrix(0.048148148148148155,0,0,0.048148148148148155,0,0)" xlink:href="#aH"/><use transform="matrix(0.048148148148148155,0,0,0.048148148148148155,9.629629629629632,0)" xlink:href="#aE"/><use transform="matrix(0.048148148148148155,0,0,0.048148148148148155,19.259259259259263,0)" xlink:href="#aQ"/><use transform="matrix(0.048148148148148155,0,0,0.048148148148148155,27.92592592592593,0)" xlink:href="#ba"/></g><path d="M143 0L79-87 56-68V0H24v-261h32v163l83-92h37l-77 82L181 0h-38" id="bb"/><g id="t"><use transform="matrix(0.048148148148148155,0,0,0.048148148148148155,0,0)" xlink:href="#aN"/><use transform="matrix(0.048148148148148155,0,0,0.048148148148148155,3.8037037037037043,0)" xlink:href="#aG"/><use transform="matrix(0.048148148148148155,0,0,0.048148148148148155,7.6074074074074085,0)" xlink:href="#aI"/><use transform="matrix(0.048148148148148155,0,0,0.048148148148148155,17.23703703703704,0)" xlink:href="#bb"/><use transform="matrix(0.048148148148148155,0,0,0.048148148148148155,25.90370370370371,0)" xlink:href="#aH"/><use transform="matrix(0.048148148148148155,0,0,0.048148148148148155,35.53333333333334,0)" xlink:href="#aO"/></g><g id="u"><use transform="matrix(0.048148148148148155,0,0,0.048148148148148155,0,0)" xlink:href="#aF"/><use transform="matrix(0.048148148148148155,0,0,0.048148148148148155,4.814814814814816,0)" xlink:href="#aM"/></g><g id="v"><use transform="matrix(0.048148148148148155,0,0,0.048148148148148155,0,0)" xlink:href="#aF"/><use transform="matrix(0.048148148148148155,0,0,0.048148148148148155,4.814814814814816,0)" xlink:href="#ba"/><use transform="matrix(0.048148148148148155,0,0,0.048148148148148155,14.444444444444446,0)" xlink:href="#aH"/><use transform="matrix(0.048148148148148155,0,0,0.048148148148148155,24.074074074074076,0)" xlink:href="#aG"/><use transform="matrix(0.048148148148148155,0,0,0.048148148148148155,27.877777777777784,0)" xlink:href="#aR"/></g><g id="w"><use transform="matrix(0.048148148148148155,0,0,0.048148148148148155,0,0)" xlink:href="#aM"/><use transform="matrix(0.048148148148148155,0,0,0.048148148148148155,9.629629629629632,0)" xlink:href="#aW"/><use transform="matrix(0.048148148148148155,0,0,0.048148148148148155,22.1,0)" xlink:href="#aI"/></g><g id="x"><use transform="matrix(0.048148148148148155,0,0,0.048148148148148155,0,0)" xlink:href="#aL"/><use transform="matrix(0.048148148148148155,0,0,0.048148148148148155,13.481481481481483,0)" xlink:href="#aM"/><use transform="matrix(0.048148148148148155,0,0,0.048148148148148155,23.111111111111114,0)" xlink:href="#aN"/><use transform="matrix(0.048148148148148155,0,0,0.048148148148148155,26.914814814814818,0)" xlink:href="#aO"/><use transform="matrix(0.048148148148148155,0,0,0.048148148148148155,36.54444444444445,0)" xlink:href="#aH"/><use transform="matrix(0.048148148148148155,0,0,0.048148148148148155,46.174074074074085,0)" xlink:href="#aI"/></g><g id="y"><use transform="matrix(0.048148148148148155,0,0,0.048148148148148155,0,0)" xlink:href="#aP"/><use transform="matrix(0.048148148148148155,0,0,0.048148148148148155,12.470370370370372,0)" xlink:href="#aH"/><use transform="matrix(0.048148148148148155,0,0,0.048148148148148155,22.1,0)" xlink:href="#aQ"/><use transform="matrix(0.048148148148148155,0,0,0.048148148148148155,30.766666666666673,0)" xlink:href="#aM"/><use transform="matrix(0.048148148148148155,0,0,0.048148148148148155,40.3962962962963,0)" xlink:href="#aR"/><use transform="matrix(0.048148148148148155,0,0,0.048148148148148155,46.12592592592593,0)" xlink:href="#aO"/></g><g id="z"><use transform="matrix(0.048148148148148155,0,0,0.048148148148148155,0,0)" xlink:href="#aD"/><use transform="matrix(0.048148148148148155,0,0,0.048148148148148155,11.555555555555557,0)" xlink:href="#aE"/><use transform="matrix(0.048148148148148155,0,0,0.048148148148148155,21.18518518518519,0)" xlink:href="#aF"/><use transform="matrix(0.048148148148148155,0,0,0.048148148148148155,26.00000000000001,0)" xlink:href="#aG"/><use transform="matrix(0.048148148148148155,0,0,0.048148148148148155,29.803703703703714,0)" xlink:href="#aH"/><use transform="matrix(0.048148148148148155,0,0,0.048148148148148155,39.433333333333344,0)" xlink:href="#aI"/><use transform="matrix(0.048148148148148155,0,0,0.048148148148148155,49.06296296296298,0)" xlink:href="#aF"/></g><path d="M101-251c82-7 93 87 43 132L82-64C71-53 59-42 53-27h129V0H18c2-99 128-94 128-182 0-28-16-43-45-43s-46 15-49 41l-32-3c6-41 34-60 81-64" id="bc"/><g id="A"><use transform="matrix(0.05,0,0,0.05,0,0)" xlink:href="#aD"/><use transform="matrix(0.05,0,0,0.05,12,0)" xlink:href="#aE"/><use transform="matrix(0.05,0,0,0.05,22,0)" xlink:href="#aF"/><use transform="matrix(0.05,0,0,0.05,27,0)" xlink:href="#aG"/><use transform="matrix(0.05,0,0,0.05,30.950000000000003,0)" xlink:href="#aH"/><use transform="matrix(0.05,0,0,0.05,40.95,0)" xlink:href="#aI"/><use transform="matrix(0.05,0,0,0.05,50.95,0)" xlink:href="#aF"/><use transform="matrix(0.05,0,0,0.05,55.95,0)" xlink:href="#aJ"/><use transform="matrix(0.05,0,0,0.05,60.95,0)" xlink:href="#bc"/></g><path fill="#333" d="M160-131c35 5 61 23 61 61C221 17 115-2 30 0v-248c76 3 177-17 177 60 0 33-19 50-47 57zm-97-11c50-1 110 9 110-42 0-47-63-36-110-37v79zm0 115c55-2 124 14 124-45 0-56-70-42-124-44v89" id="bd"/><g id="B"><use transform="matrix(0.05,0,0,0.05,0,0)" xlink:href="#an"/><use transform="matrix(0.05,0,0,0.05,12,0)" xlink:href="#as"/><use transform="matrix(0.05,0,0,0.05,17,0)" xlink:href="#at"/><use transform="matrix(0.05,0,0,0.05,29.950000000000003,0)" xlink:href="#aS"/><use transform="matrix(0.05,0,0,0.05,34.95,0)" xlink:href="#bd"/></g><path fill="#333" d="M199 0l-22-63H83L61 0H9l90-248h61L250 0h-51zm-33-102l-36-108c-10 38-24 72-36 108h72" id="be"/><path fill="#333" d="M190-63c-7 42-38 67-86 67-59 0-84-38-90-98-12-110 154-137 174-36l-49 2c-2-19-15-32-35-32-30 0-35 28-38 64-6 74 65 87 74 30" id="bf"/><path fill="#333" d="M25-224v-37h50v37H25zM25 0v-190h50V0H25" id="bg"/><path fill="#333" d="M110-194c64 0 96 36 96 99 0 64-35 99-97 99-61 0-95-36-95-99 0-62 34-99 96-99zm-1 164c35 0 45-28 45-65 0-40-10-65-43-65-34 0-45 26-45 65 0 36 10 65 43 65" id="bh"/><path fill="#333" d="M135-194c87-1 58 113 63 194h-50c-7-57 23-157-34-157-59 0-34 97-39 157H25l-1-190h47c2 12-1 28 3 38 12-26 28-41 61-42" id="bi"/><g id="C"><use transform="matrix(0.05,0,0,0.05,0,0)" xlink:href="#be"/><use transform="matrix(0.05,0,0,0.05,12.950000000000001,0)" xlink:href="#bf"/><use transform="matrix(0.05,0,0,0.05,22.950000000000003,0)" xlink:href="#ae"/><use transform="matrix(0.05,0,0,0.05,28.900000000000002,0)" xlink:href="#bg"/><use transform="matrix(0.05,0,0,0.05,33.900000000000006,0)" xlink:href="#bh"/><use transform="matrix(0.05,0,0,0.05,44.85000000000001,0)" xlink:href="#bi"/></g><g id="D"><use transform="matrix(0.048148148148148155,0,0,0.048148148148148155,0,0)" xlink:href="#aD"/><use transform="matrix(0.048148148148148155,0,0,0.048148148148148155,11.555555555555557,0)" xlink:href="#aE"/><use transform="matrix(0.048148148148148155,0,0,0.048148148148148155,21.18518518518519,0)" xlink:href="#aF"/><use transform="matrix(0.048148148148148155,0,0,0.048148148148148155,26.00000000000001,0)" xlink:href="#aG"/><use transform="matrix(0.048148148148148155,0,0,0.048148148148148155,29.803703703703714,0)" xlink:href="#aH"/><use transform="matrix(0.048148148148148155,0,0,0.048148148148148155,39.433333333333344,0)" xlink:href="#aI"/><use transform="matrix(0.048148148148148155,0,0,0.048148148148148155,49.06296296296298,0)" xlink:href="#aF"/></g><g id="E"><use transform="matrix(0.048148148148148155,0,0,0.048148148148148155,0,0)" xlink:href="#aG"/><use transform="matrix(0.048148148148148155,0,0,0.048148148148148155,3.8037037037037043,0)" xlink:href="#aY"/></g><path d="M84 4C-5 8 30-112 23-190h32v120c0 31 7 50 39 49 72-2 45-101 50-169h31l1 190h-30c-1-10 1-25-2-33-11 22-28 36-60 37" id="bj"/><g id="F"><use transform="matrix(0.048148148148148155,0,0,0.048148148148148155,0,0)" xlink:href="#bj"/><use transform="matrix(0.048148148148148155,0,0,0.048148148148148155,9.629629629629632,0)" xlink:href="#aX"/><use transform="matrix(0.048148148148148155,0,0,0.048148148148148155,19.259259259259263,0)" xlink:href="#aO"/><use transform="matrix(0.048148148148148155,0,0,0.048148148148148155,28.888888888888893,0)" xlink:href="#aE"/><use transform="matrix(0.048148148148148155,0,0,0.048148148148148155,38.518518518518526,0)" xlink:href="#aF"/><use transform="matrix(0.048148148148148155,0,0,0.048148148148148155,43.33333333333334,0)" xlink:href="#aH"/><use transform="matrix(0.048148148148148155,0,0,0.048148148148148155,52.96296296296297,0)" xlink:href="#aO"/></g><g id="G"><use transform="matrix(0.048148148148148155,0,0,0.048148148148148155,0,0)" xlink:href="#aW"/><use transform="matrix(0.048148148148148155,0,0,0.048148148148148155,12.470370370370372,0)" xlink:href="#aG"/><use transform="matrix(0.048148148148148155,0,0,0.048148148148148155,16.274074074074075,0)" xlink:href="#aF"/><use transform="matrix(0.048148148148148155,0,0,0.048148148148148155,21.088888888888892,0)" xlink:href="#ba"/></g><use transform="matrix(0.048148148148148155,0,0,0.048148148148148155,0,0)" xlink:href="#aE" id="H"/><path d="M177-190C167-65 218 103 67 71c-23-6-38-20-44-43l32-5c15 47 100 32 89-28v-30C133-14 115 1 83 1 29 1 15-40 15-95c0-56 16-97 71-98 29-1 48 16 59 35 1-10 0-23 2-32h30zM94-22c36 0 50-32 50-73 0-42-14-75-50-75-39 0-46 34-46 75s6 73 46 73" id="bk"/><g id="I"><use transform="matrix(0.048148148148148155,0,0,0.048148148148148155,0,0)" xlink:href="#aQ"/><use transform="matrix(0.048148148148148155,0,0,0.048148148148148155,8.666666666666668,0)" xlink:href="#ba"/><use transform="matrix(0.048148148148148155,0,0,0.048148148148148155,18.296296296296298,0)" xlink:href="#aE"/><use transform="matrix(0.048148148148148155,0,0,0.048148148148148155,27.92592592592593,0)" xlink:href="#aI"/><use transform="matrix(0.048148148148148155,0,0,0.048148148148148155,37.555555555555564,0)" xlink:href="#bk"/><use transform="matrix(0.048148148148148155,0,0,0.048148148148148155,47.1851851851852,0)" xlink:href="#aH"/></g><path d="M141 0L90-78 38 0H4l68-98-65-92h35l48 74 47-74h35l-64 92 68 98h-35" id="bl"/><g id="J"><use transform="matrix(0.048148148148148155,0,0,0.048148148148148155,0,0)" xlink:href="#aH"/><use transform="matrix(0.048148148148148155,0,0,0.048148148148148155,9.629629629629632,0)" xlink:href="#bl"/><use transform="matrix(0.048148148148148155,0,0,0.048148148148148155,18.296296296296298,0)" xlink:href="#aF"/><use transform="matrix(0.048148148148148155,0,0,0.048148148148148155,23.111111111111114,0)" xlink:href="#aH"/><use transform="matrix(0.048148148148148155,0,0,0.048148148148148155,32.74074074074075,0)" xlink:href="#aR"/><use transform="matrix(0.048148148148148155,0,0,0.048148148148148155,38.470370370370375,0)" xlink:href="#aI"/><use transform="matrix(0.048148148148148155,0,0,0.048148148148148155,48.10000000000001,0)" xlink:href="#aE"/><use transform="matrix(0.048148148148148155,0,0,0.048148148148148155,57.729629629629635,0)" xlink:href="#aN"/></g><path d="M30 0v-248h187v28H63v79h144v27H63v87h162V0H30" id="bm"/><path d="M33 0v-248h34V0H33" id="bn"/><path d="M30-248c118-7 216 8 213 122C240-48 200 0 122 0H30v-248zM63-27c89 8 146-16 146-99s-60-101-146-95v194" id="bo"/><path d="M33 0v-38h34V0H33" id="bp"/><g id="K"><use transform="matrix(0.048148148148148155,0,0,0.048148148148148155,0,0)" xlink:href="#bm"/><use transform="matrix(0.048148148148148155,0,0,0.048148148148148155,11.555555555555557,0)" xlink:href="#bn"/><use transform="matrix(0.048148148148148155,0,0,0.048148148148148155,16.370370370370374,0)" xlink:href="#bo"/><use transform="matrix(0.048148148148148155,0,0,0.048148148148148155,28.840740740740745,0)" xlink:href="#bp"/></g><g id="L"><use transform="matrix(0.048148148148148155,0,0,0.048148148148148155,0,0)" xlink:href="#aV"/><use transform="matrix(0.048148148148148155,0,0,0.048148148148148155,10.544444444444446,0)" xlink:href="#ba"/><use transform="matrix(0.048148148148148155,0,0,0.048148148148148155,20.174074074074078,0)" xlink:href="#aG"/><use transform="matrix(0.048148148148148155,0,0,0.048148148148148155,23.97777777777778,0)" xlink:href="#aY"/></g><g id="M"><use transform="matrix(0.048148148148148155,0,0,0.048148148148148155,0,0)" xlink:href="#aI"/><use transform="matrix(0.048148148148148155,0,0,0.048148148148148155,9.629629629629632,0)" xlink:href="#aH"/><use transform="matrix(0.048148148148148155,0,0,0.048148148148148155,19.259259259259263,0)" xlink:href="#aW"/></g><g id="N"><use transform="matrix(0.048148148148148155,0,0,0.048148148148148155,0,0)" xlink:href="#bm"/><use transform="matrix(0.048148148148148155,0,0,0.048148148148148155,11.555555555555557,0)" xlink:href="#bn"/><use transform="matrix(0.048148148148148155,0,0,0.048148148148148155,16.370370370370374,0)" xlink:href="#bo"/></g><path d="M210-169c-67 3-38 105-44 169h-31v-121c0-29-5-50-35-48C34-165 62-65 56 0H25l-1-190h30c1 10-1 24 2 32 10-44 99-50 107 0 11-21 27-35 58-36 85-2 47 119 55 194h-31v-121c0-29-5-49-35-48" id="bq"/><g id="O"><use transform="matrix(0.048148148148148155,0,0,0.048148148148148155,0,0)" xlink:href="#bq"/><use transform="matrix(0.048148148148148155,0,0,0.048148148148148155,14.396296296296299,0)" xlink:href="#aE"/><use transform="matrix(0.048148148148148155,0,0,0.048148148148148155,24.025925925925932,0)" xlink:href="#aF"/><use transform="matrix(0.048148148148148155,0,0,0.048148148148148155,28.84074074074075,0)" xlink:href="#aQ"/><use transform="matrix(0.048148148148148155,0,0,0.048148148148148155,37.50740740740741,0)" xlink:href="#ba"/><use transform="matrix(0.048148148148148155,0,0,0.048148148148148155,47.13703703703705,0)" xlink:href="#aH"/><use transform="matrix(0.048148148148148155,0,0,0.048148148148148155,56.76666666666667,0)" xlink:href="#aY"/></g><g id="P"><use transform="matrix(0.048148148148148155,0,0,0.048148148148148155,0,0)" xlink:href="#aE"/><use transform="matrix(0.048148148148148155,0,0,0.048148148148148155,9.629629629629632,0)" xlink:href="#aI"/></g><g id="Q"><use transform="matrix(0.048148148148148155,0,0,0.048148148148148155,0,0)" xlink:href="#aH"/><use transform="matrix(0.048148148148148155,0,0,0.048148148148148155,9.629629629629632,0)" xlink:href="#bl"/><use transform="matrix(0.048148148148148155,0,0,0.048148148148148155,18.296296296296298,0)" xlink:href="#aG"/><use transform="matrix(0.048148148148148155,0,0,0.048148148148148155,22.1,0)" xlink:href="#aY"/><use transform="matrix(0.048148148148148155,0,0,0.048148148148148155,30.766666666666673,0)" xlink:href="#aF"/><use transform="matrix(0.048148148148148155,0,0,0.048148148148148155,35.58148148148148,0)" xlink:href="#aG"/><use transform="matrix(0.048148148148148155,0,0,0.048148148148148155,39.385185185185186,0)" xlink:href="#aI"/><use transform="matrix(0.048148148148148155,0,0,0.048148148148148155,49.01481481481482,0)" xlink:href="#bk"/></g><g id="R"><use transform="matrix(0.048148148148148155,0,0,0.048148148148148155,0,0)" xlink:href="#aL"/><use transform="matrix(0.048148148148148155,0,0,0.048148148148148155,13.481481481481483,0)" xlink:href="#aM"/><use transform="matrix(0.048148148148148155,0,0,0.048148148148148155,23.111111111111114,0)" xlink:href="#aN"/><use transform="matrix(0.048148148148148155,0,0,0.048148148148148155,26.914814814814818,0)" xlink:href="#aO"/><use transform="matrix(0.048148148148148155,0,0,0.048148148148148155,36.54444444444445,0)" xlink:href="#aH"/><use transform="matrix(0.048148148148148155,0,0,0.048148148148148155,46.174074074074085,0)" xlink:href="#aI"/></g><g id="S"><use transform="matrix(0.048148148148148155,0,0,0.048148148148148155,0,0)" xlink:href="#aD"/><use transform="matrix(0.048148148148148155,0,0,0.048148148148148155,11.555555555555557,0)" xlink:href="#aE"/><use transform="matrix(0.048148148148148155,0,0,0.048148148148148155,21.18518518518519,0)" xlink:href="#aF"/><use transform="matrix(0.048148148148148155,0,0,0.048148148148148155,26.00000000000001,0)" xlink:href="#aG"/><use transform="matrix(0.048148148148148155,0,0,0.048148148148148155,29.803703703703714,0)" xlink:href="#aH"/><use transform="matrix(0.048148148148148155,0,0,0.048148148148148155,39.433333333333344,0)" xlink:href="#aI"/><use transform="matrix(0.048148148148148155,0,0,0.048148148148148155,49.06296296296298,0)" xlink:href="#aF"/></g><g id="T"><use transform="matrix(0.048148148148148155,0,0,0.048148148148148155,0,0)" xlink:href="#aG"/><use transform="matrix(0.048148148148148155,0,0,0.048148148148148155,3.8037037037037043,0)" xlink:href="#aI"/></g><g id="U"><use transform="matrix(0.048148148148148155,0,0,0.048148148148148155,0,0)" xlink:href="#aF"/><use transform="matrix(0.048148148148148155,0,0,0.048148148148148155,4.814814814814816,0)" xlink:href="#ba"/><use transform="matrix(0.048148148148148155,0,0,0.048148148148148155,14.444444444444446,0)" xlink:href="#aH"/></g><path d="M179-190L93 31C79 59 56 82 12 73V49c39 6 53-20 64-50L1-190h34L92-34l54-156h33" id="br"/><g id="V"><use transform="matrix(0.048148148148148155,0,0,0.048148148148148155,0,0)" xlink:href="#aY"/><use transform="matrix(0.048148148148148155,0,0,0.048148148148148155,8.666666666666668,0)" xlink:href="#br"/><use transform="matrix(0.048148148148148155,0,0,0.048148148148148155,17.333333333333336,0)" xlink:href="#aY"/><use transform="matrix(0.048148148148148155,0,0,0.048148148148148155,26.000000000000004,0)" xlink:href="#aF"/><use transform="matrix(0.048148148148148155,0,0,0.048148148148148155,30.81481481481482,0)" xlink:href="#aH"/><use transform="matrix(0.048148148148148155,0,0,0.048148148148148155,40.44444444444445,0)" xlink:href="#bq"/><use transform="matrix(0.048148148148148155,0,0,0.048148148148148155,54.84074074074075,0)" xlink:href="#bp"/></g><path fill="#333" d="M24 0v-248h195v40H76v63h132v40H76v65h150V0H24" id="bs"/><g id="W"><use transform="matrix(0.05,0,0,0.05,0,0)" xlink:href="#bs"/><use transform="matrix(0.05,0,0,0.05,12,0)" xlink:href="#bi"/><use transform="matrix(0.05,0,0,0.05,22.950000000000003,0)" xlink:href="#ac"/></g><path d="M63-220v92h138v28H63V0H30v-248h175v28H63" id="bt"/><path d="M115-194c53 0 69 39 70 98 0 66-23 100-70 100C84 3 66-7 56-30L54 0H23l1-261h32v101c10-23 28-34 59-34zm-8 174c40 0 45-34 45-75 0-40-5-75-45-74-42 0-51 32-51 76 0 43 10 73 51 73" id="bu"/><path d="M63-70H37l-4-178h34zM33 0v-35h34V0H33" id="bv"/><g id="X"><use transform="matrix(0.048148148148148155,0,0,0.048148148148148155,0,0)" xlink:href="#bt"/><use transform="matrix(0.048148148148148155,0,0,0.048148148148148155,10.544444444444446,0)" xlink:href="#aM"/><use transform="matrix(0.048148148148148155,0,0,0.048148148148148155,20.174074074074078,0)" xlink:href="#aR"/><use transform="matrix(0.048148148148148155,0,0,0.048148148148148155,25.90370370370371,0)" xlink:href="#bu"/><use transform="matrix(0.048148148148148155,0,0,0.048148148148148155,35.53333333333334,0)" xlink:href="#aG"/><use transform="matrix(0.048148148148148155,0,0,0.048148148148148155,39.33703703703704,0)" xlink:href="#aO"/><use transform="matrix(0.048148148148148155,0,0,0.048148148148148155,48.966666666666676,0)" xlink:href="#aO"/><use transform="matrix(0.048148148148148155,0,0,0.048148148148148155,58.5962962962963,0)" xlink:href="#aH"/><use transform="matrix(0.048148148148148155,0,0,0.048148148148148155,68.22592592592594,0)" xlink:href="#aI"/><use transform="matrix(0.048148148148148155,0,0,0.048148148148148155,77.85555555555557,0)" xlink:href="#bv"/></g><g id="Y"><use transform="matrix(0.05,0,0,0.05,0,0)" xlink:href="#al"/><use transform="matrix(0.05,0,0,0.05,12,0)" xlink:href="#ay"/><use transform="matrix(0.05,0,0,0.05,26,0)" xlink:href="#aw"/><use transform="matrix(0.05,0,0,0.05,38,0)" xlink:href="#aw"/><use transform="matrix(0.05,0,0,0.05,50,0)" xlink:href="#as"/><use transform="matrix(0.05,0,0,0.05,55,0)" xlink:href="#bd"/><use transform="matrix(0.05,0,0,0.05,67,0)" xlink:href="#az"/><use transform="matrix(0.05,0,0,0.05,77,0)" xlink:href="#an"/><use transform="matrix(0.05,0,0,0.05,89,0)" xlink:href="#ar"/><use transform="matrix(0.05,0,0,0.05,99,0)" xlink:href="#at"/><use transform="matrix(0.05,0,0,0.05,111.95,0)" xlink:href="#au"/><use transform="matrix(0.05,0,0,0.05,124.9,0)" xlink:href="#al"/><use transform="matrix(0.05,0,0,0.05,136.9,0)" xlink:href="#az"/><use transform="matrix(0.05,0,0,0.05,146.9,0)" xlink:href="#as"/><use transform="matrix(0.05,0,0,0.05,151.9,0)" xlink:href="#aT"/><use transform="matrix(0.05,0,0,0.05,164.85,0)" xlink:href="#av"/><use transform="matrix(0.05,0,0,0.05,175.5,0)" xlink:href="#aq"/><use transform="matrix(0.05,0,0,0.05,186.45,0)" xlink:href="#an"/></g></defs></g></svg>