<svg xmlns="http://www.w3.org/2000/svg" xmlns:xlink="http://www.w3.org/1999/xlink" xmlns:lucid="lucid" width="2289" height="996"><g transform="translate(0 -2107)" lucid:page-tab-id=".Q4MUjXso07N"><path d="M0 0h2393.76v3151H0z" fill="#fff"/><path d="M20 2128c0-4.42 3.58-8 8-8h2264c4.42 0 8 3.58 8 8v964c0 4.42-3.58 8-8 8H28c-4.42 0-8-3.58-8-8zM20 1588c0-4.42 3.58-8 8-8h1884.56c4.42 0 8 3.58 8 8v524c0 4.42-3.58 8-8 8H28c-4.42 0-8-3.58-8-8z" stroke="#fff" fill="#fff"/><use xlink:href="#a" transform="matrix(1,0,0,1,40,1580) translate(914.025 273.59999999999997)"/><path d="M131.23 2256.44c0-4.42 3.58-8 8-8h224c4.42 0 8 3.58 8 8v44c0 4.42-3.58 8-8 8h-224c-4.42 0-8-3.58-8-8z" fill="none"/><use xlink:href="#b" transform="matrix(1,0,0,1,131.22919110462533,2248.437499999943) translate(3.125 22.799999999999997)"/><use xlink:href="#c" transform="matrix(1,0,0,1,131.22919110462533,2248.437499999943) translate(19.125 22.799999999999997)"/><use xlink:href="#d" transform="matrix(1,0,0,1,131.22919110462533,2248.437499999943) translate(71.025 22.799999999999997)"/><use xlink:href="#e" transform="matrix(1,0,0,1,131.22919110462533,2248.437499999943) translate(129.97500000000002 22.799999999999997)"/><use xlink:href="#f" transform="matrix(1,0,0,1,131.22919110462533,2248.437499999943) translate(147.925 22.799999999999997)"/><use xlink:href="#g" transform="matrix(1,0,0,1,131.22919110462533,2248.437499999943) translate(221.875 22.799999999999997)"/><use xlink:href="#h" transform="matrix(1,0,0,1,131.22919110462533,2248.437499999943) translate(52.07499999999999 44.4)"/><use xlink:href="#i" transform="matrix(1,0,0,1,131.22919110462533,2248.437499999943) translate(67.07499999999999 44.4)"/><use xlink:href="#j" transform="matrix(1,0,0,1,131.22919110462533,2248.437499999943) translate(130.02499999999998 44.4)"/><path d="M680.5 2545.5c0 33.14-26.86 60-60 60s-60-26.86-60-60 26.86-60 60-60 60 26.86 60 60z" stroke="#333" fill="#fff"/><use xlink:href="#k" transform="matrix(1,0,0,1,578.5003118578666,2509.499999999909) translate(6.524999999999999 28.799999999999997)"/><use xlink:href="#l" transform="matrix(1,0,0,1,578.5003118578666,2509.499999999909) translate(67.475 28.799999999999997)"/><use xlink:href="#m" transform="matrix(1,0,0,1,578.5003118578666,2509.499999999909) translate(21.15 50.4)"/><path d="M540.5 2445.5h88l12 12v48h-100z" stroke="#333" fill="#fff"/><path d="M628.5 2445.98v11.52h11.52" stroke="#333" fill="#fff"/><use xlink:href="#n" transform="matrix(1,0,0,1,546.5003118578666,2452.699999999909) translate(20.525 27.6)"/><path d="M701.62 2545.5h12.77c.26 0 .5-.22.5-.5s.2-.5.5-.5h12.75" stroke="#333" stroke-width="3" fill="none"/><path d="M685.85 2545.5l14.27-4.64v9.28zM743.92 2544.5l-14.27 4.64v-9.28z" stroke="#333" stroke-width="3" fill="#333"/><path d="M1276.14 2234.87c0-4.4 3.58-8 8-8h937.13c4.42 0 8 3.6 8 8v344c0 4.42-3.58 8-8 8h-937.13c-4.42 0-8-3.58-8-8z" stroke="#333" fill="#ff8f80"/><path d="M1712.28 2203.4c0-4.42 3.58-8 8-8h109.8c4.43 0 8 3.58 8 8v24c0 4.42-3.57 8-8 8h-109.8c-4.42 0-8-3.58-8-8z" stroke="#000" stroke-opacity="0" fill="#ffeca9"/><use xlink:href="#o" transform="matrix(1,0,0,1,1732.2811478558194,2195.3999999999996) translate(1.5999999999999943 23.6)"/><use xlink:href="#p" transform="matrix(1,0,0,1,1732.2811478558194,2195.3999999999996) translate(40.5 23.6)"/><path d="M720 2268c0-4.42 3.58-8 8-8h444c4.42 0 8 3.58 8 8v44c0 4.42-3.58 8-8 8H728c-4.42 0-8-3.58-8-8z" stroke="#000" stroke-opacity="0" fill="#fff" fill-opacity="0"/><use xlink:href="#q" transform="matrix(1,0,0,1,740,2260) translate(18.105555555555497 23.066666666666663)"/><use xlink:href="#r" transform="matrix(1,0,0,1,740,2260) translate(93.12037037037032 23.066666666666663)"/><use xlink:href="#s" transform="matrix(1,0,0,1,740,2260) translate(151.81296296296293 23.066666666666663)"/><use xlink:href="#t" transform="matrix(1,0,0,1,740,2260) translate(222.06111111111107 23.066666666666663)"/><use xlink:href="#u" transform="matrix(1,0,0,1,740,2260) translate(285.52037037037036 23.066666666666663)"/><use xlink:href="#v" transform="matrix(1,0,0,1,740,2260) translate(346.1388888888889 23.066666666666663)"/><use xlink:href="#w" transform="matrix(1,0,0,1,740,2260) translate(41.09629629629629 43.86666666666667)"/><use xlink:href="#x" transform="matrix(1,0,0,1,740,2260) translate(93.0962962962963 43.86666666666667)"/><use xlink:href="#y" transform="matrix(1,0,0,1,740,2260) translate(117.17037037037038 43.86666666666667)"/><use xlink:href="#z" transform="matrix(1,0,0,1,740,2260) translate(197.96296296296296 43.86666666666667)"/><use xlink:href="#A" transform="matrix(1,0,0,1,740,2260) translate(226.85185185185185 43.86666666666667)"/><use xlink:href="#B" transform="matrix(1,0,0,1,740,2260) translate(260.5074074074074 43.86666666666667)"/><use xlink:href="#C" transform="matrix(1,0,0,1,740,2260) translate(302.87777777777774 43.86666666666667)"/><use xlink:href="#D" transform="matrix(1,0,0,1,740,2260) translate(331.76666666666665 43.86666666666667)"/><path d="M60 2378c0-4.42 3.58-8 8-8h372.77c4.42 0 8 3.58 8 8v344c0 4.42-3.58 8-8 8H68c-4.42 0-8-3.58-8-8z" stroke="#333" fill="#fff"/><path d="M211.23 2625.5c0 33.14-26.86 60-60 60s-60-26.86-60-60 26.86-60 60-60 60 26.86 60 60z" stroke="#333" fill="#fff"/><use xlink:href="#k" transform="matrix(1,0,0,1,109.22919110462533,2589.499999999909) translate(6.524999999999999 28.799999999999997)"/><use xlink:href="#E" transform="matrix(1,0,0,1,109.22919110462533,2589.499999999909) translate(67.475 28.799999999999997)"/><use xlink:href="#m" transform="matrix(1,0,0,1,109.22919110462533,2589.499999999909) translate(21.15 50.4)"/><path d="M186.57 2337.22c0-4.42 3.58-8 8-8H307.9c4.4 0 8 3.58 8 8v29.5c0 4.42-3.6 8-8 8H194.56c-4.42 0-8-3.58-8-8z" stroke="#000" stroke-opacity="0" fill="#ffeca9"/><use xlink:href="#F" transform="matrix(1,0,0,1,206.56731240151117,2329.218749999972) translate(0.09999999999999432 26.6)"/><use xlink:href="#p" transform="matrix(1,0,0,1,206.56731240151117,2329.218749999972) translate(46 26.6)"/><path d="M71.23 2525.5h88l12 12v48h-100z" stroke="#333" fill="#fff"/><path d="M159.23 2525.98v11.52h11.52" stroke="#333" fill="#fff"/><use xlink:href="#G" transform="matrix(1,0,0,1,77.22919110462533,2532.699999999909) translate(20.525 27.6)"/><path d="M413.7 2495.5c0 33.14-26.88 60-60 60-33.15 0-60-26.86-60-60s26.85-60 60-60c33.12 0 60 26.86 60 60z" stroke="#333" fill="#fff"/><use xlink:href="#H" transform="matrix(1,0,0,1,311.68757331387485,2459.499999999909) translate(14.024999999999999 32.8)"/><use xlink:href="#I" transform="matrix(1,0,0,1,311.68757331387485,2459.499999999909) translate(3.954629629629622 49.06666666666667)"/><use xlink:href="#J" transform="matrix(1,0,0,1,311.68757331387485,2459.499999999909) translate(43.58981481481481 49.06666666666667)"/><path d="M273.7 2395.5h88l12 12v48h-100z" stroke="#333" fill="#fff"/><path d="M361.7 2395.98v11.52h11.5" stroke="#333" fill="#fff"/><use xlink:href="#G" transform="matrix(1,0,0,1,279.68757331387485,2402.699999999909) translate(20.525 27.6)"/><path d="M1949.27 2485.5c0 33.14-26.86 60-60 60s-60-26.86-60-60 26.86-60 60-60 60 26.86 60 60z" stroke="#333" fill="#fff"/><use xlink:href="#k" transform="matrix(1,0,0,1,1847.2711207532432,2449.499999999909) translate(6.524999999999999 28.799999999999997)"/><use xlink:href="#l" transform="matrix(1,0,0,1,1847.2711207532432,2449.499999999909) translate(67.475 28.799999999999997)"/><use xlink:href="#m" transform="matrix(1,0,0,1,1847.2711207532432,2449.499999999909) translate(21.15 50.4)"/><path d="M749.27 2372.5c0-4.42 3.58-8 8-8h372.77c4.42 0 8 3.58 8 8v344c0 4.42-3.58 8-8 8H757.27c-4.42 0-8-3.58-8-8z" stroke="#333" fill="#fff"/><path d="M900.5 2620c0 33.14-26.86 60-60 60s-60-26.86-60-60 26.86-60 60-60 60 26.86 60 60z" stroke="#333" fill="#fff"/><use xlink:href="#k" transform="matrix(1,0,0,1,798.5003118578672,2584) translate(6.524999999999999 28.799999999999997)"/><use xlink:href="#E" transform="matrix(1,0,0,1,798.5003118578672,2584) translate(67.475 28.799999999999997)"/><use xlink:href="#m" transform="matrix(1,0,0,1,798.5003118578672,2584) translate(21.15 50.4)"/><path d="M884.45 2339.97c0-4.42 3.58-8 8-8h113.65c4.4 0 8 3.58 8 8v24c0 4.42-3.6 8-8 8H892.45c-4.42 0-8-3.58-8-8z" stroke="#000" stroke-opacity="0" fill="#ffeca9"/><use xlink:href="#K" transform="matrix(1,0,0,1,904.4455785366958,2331.9687499999263) translate(17.099999999999994 23.6)"/><path d="M760.5 2520h88l12 12v48h-100z" stroke="#333" fill="#fff"/><path d="M848.5 2520.48V2532h11.52" stroke="#333" fill="#fff"/><use xlink:href="#G" transform="matrix(1,0,0,1,766.5003118578672,2527.2) translate(20.525 27.6)"/><path d="M1102.96 2490c0 33.14-26.86 60-60 60s-60-26.86-60-60 26.86-60 60-60 60 26.86 60 60z" stroke="#333" fill="#fff"/><use xlink:href="#H" transform="matrix(1,0,0,1,1000.9586940671165,2454) translate(14.024999999999999 32.8)"/><use xlink:href="#I" transform="matrix(1,0,0,1,1000.9586940671165,2454) translate(3.954629629629622 49.06666666666667)"/><use xlink:href="#J" transform="matrix(1,0,0,1,1000.9586940671165,2454) translate(43.58981481481481 49.06666666666667)"/><path d="M962.96 2390h88l12 12v48h-100z" stroke="#333" fill="#fff"/><path d="M1050.96 2390.48V2402h11.52" stroke="#333" fill="#fff"/><use xlink:href="#G" transform="matrix(1,0,0,1,968.9586940671169,2397.2) translate(20.525 27.6)"/><path d="M1251.25 2137.35c0-4.42 3.58-8 8-8H2252c4.42 0 8 3.58 8 8v56.3c0 4.42-3.58 8-8 8h-992.75c-4.42 0-8-3.58-8-8z" stroke="#000" stroke-opacity="0" fill="#fff" fill-opacity="0"/><use xlink:href="#L" transform="matrix(1,0,0,1,1271.250779644667,2129.349999999909) translate(30.607407407407322 39.96666666666667)"/><use xlink:href="#M" transform="matrix(1,0,0,1,1271.250779644667,2129.349999999909) translate(89.29999999999993 39.96666666666667)"/><use xlink:href="#N" transform="matrix(1,0,0,1,1271.250779644667,2129.349999999909) translate(122.04074074074069 39.96666666666667)"/><use xlink:href="#u" transform="matrix(1,0,0,1,1271.250779644667,2129.349999999909) translate(158.58518518518514 39.96666666666667)"/><use xlink:href="#O" transform="matrix(1,0,0,1,1271.250779644667,2129.349999999909) translate(219.20370370370367 39.96666666666667)"/><use xlink:href="#P" transform="matrix(1,0,0,1,1271.250779644667,2129.349999999909) translate(279.77407407407406 39.96666666666667)"/><use xlink:href="#Q" transform="matrix(1,0,0,1,1271.250779644667,2129.349999999909) translate(342.3185185185185 39.96666666666667)"/><use xlink:href="#R" transform="matrix(1,0,0,1,1271.250779644667,2129.349999999909) translate(376.0222222222222 39.96666666666667)"/><use xlink:href="#S" transform="matrix(1,0,0,1,1271.250779644667,2129.349999999909) translate(571.937037037037 39.96666666666667)"/><use xlink:href="#T" transform="matrix(1,0,0,1,1271.250779644667,2129.349999999909) translate(602.6555555555556 39.96666666666667)"/><use xlink:href="#P" transform="matrix(1,0,0,1,1271.250779644667,2129.349999999909) translate(619.9407407407408 39.96666666666667)"/><use xlink:href="#U" transform="matrix(1,0,0,1,1271.250779644667,2129.349999999909) translate(682.4851851851853 39.96666666666667)"/><use xlink:href="#V" transform="matrix(1,0,0,1,1271.250779644667,2129.349999999909) translate(752.7333333333335 39.96666666666667)"/><use xlink:href="#W" transform="matrix(1,0,0,1,1271.250779644667,2129.349999999909) translate(781.6222222222224 39.96666666666667)"/><use xlink:href="#u" transform="matrix(1,0,0,1,1271.250779644667,2129.349999999909) translate(813.351851851852 39.96666666666667)"/><use xlink:href="#X" transform="matrix(1,0,0,1,1271.250779644667,2129.349999999909) translate(873.9703703703705 39.96666666666667)"/><path d="M2150.67 2333.94c0 33.13-26.87 60-60 60-33.14 0-60-26.87-60-60 0-33.14 26.86-60 60-60 33.13 0 60 26.86 60 60z" stroke="#333" fill="#fff"/><use xlink:href="#H" transform="matrix(1,0,0,1,2048.66678302087,2297.937499999852) translate(14.024999999999999 32.8)"/><use xlink:href="#I" transform="matrix(1,0,0,1,2048.66678302087,2297.937499999852) translate(3.954629629629622 49.06666666666667)"/><use xlink:href="#J" transform="matrix(1,0,0,1,2048.66678302087,2297.937499999852) translate(43.58981481481481 49.06666666666667)"/><path d="M2070.67 2248.44h88l12 12v48h-100z" stroke="#333" fill="#fff"/><path d="M2158.67 2248.9v11.54h11.52" stroke="#333" fill="#fff"/><use xlink:href="#n" transform="matrix(1,0,0,1,2076.66678302087,2255.637499999943) translate(20.525 27.6)"/><path d="M1790.52 2390.8h88l12 12v48h-100z" stroke="#333" fill="#fff"/><path d="M1878.52 2391.28v11.52h11.53" stroke="#333" fill="#fff"/><use xlink:href="#n" transform="matrix(1,0,0,1,1796.52190039791,2398) translate(20.525 27.6)"/><path d="M1427.37 2478.44c0 33.13-26.87 60-60 60-33.14 0-60-26.87-60-60 0-33.14 26.86-60 60-60 33.13 0 60 26.86 60 60z" stroke="#333" fill="#fff"/><g><use xlink:href="#k" transform="matrix(1,0,0,1,1325.365687054847,2442.437499999943) translate(6.524999999999999 28.799999999999997)"/><use xlink:href="#E" transform="matrix(1,0,0,1,1325.365687054847,2442.437499999943) translate(67.475 28.799999999999997)"/><use xlink:href="#m" transform="matrix(1,0,0,1,1325.365687054847,2442.437499999943) translate(21.15 50.4)"/></g><path d="M1287.37 2378.44h88l12 12v48h-100z" stroke="#333" fill="#fff"/><path d="M1375.37 2378.9v11.54h11.52" stroke="#333" fill="#fff"/><g><use xlink:href="#G" transform="matrix(1,0,0,1,1293.365687054847,2385.637499999943) translate(20.525 27.6)"/></g><path d="M1631.05 2335.5c0 33.14-26.86 60-60 60-33.13 0-60-26.86-60-60s26.87-60 60-60c33.14 0 60 26.86 60 60z" stroke="#333" fill="#fff"/><g><use xlink:href="#H" transform="matrix(1,0,0,1,1529.053260368722,2299.499999999909) translate(14.024999999999999 32.8)"/><use xlink:href="#I" transform="matrix(1,0,0,1,1529.053260368722,2299.499999999909) translate(3.954629629629622 49.06666666666667)"/><use xlink:href="#J" transform="matrix(1,0,0,1,1529.053260368722,2299.499999999909) translate(43.58981481481481 49.06666666666667)"/></g><path d="M1489.82 2248.44h88l12 12v48h-100z" stroke="#333" fill="#fff"/><path d="M1577.82 2248.9v11.54h11.53" stroke="#333" fill="#fff"/><g><use xlink:href="#G" transform="matrix(1,0,0,1,1495.8240692640966,2255.637499999943) translate(20.525 27.6)"/></g><path d="M1400.27 2405h595.85v31.6h-595.85z" fill="#fff" fill-opacity="0"/><path d="M1731.64 2337h-79.47v-3h79.47zm297.03-1.56h-98.58v-3h98.57z" fill="#333"/><path d="M2030.17 2333.94l.05 1.5h-1.6v-3h1.6zM1650.67 2340.14l-14.26-4.64 14.27-4.64z" fill="#333"/><path d="M1652.17 2342.2l-20.62-6.7 20.62-6.7zm-10.9-6.7l7.9 2.57v-5.14z" fill="#333"/><g><use xlink:href="#Y" transform="matrix(1,0,0,1,1731.635021694796,2323.9187499998807) translate(0.0049999999999954525 14.4)"/></g><path d="M1276.14 2708c0-4.42 3.58-8 8-8h937.13c4.42 0 8 3.58 8 8v344c0 4.42-3.58 8-8 8h-937.13c-4.42 0-8-3.58-8-8z" stroke="#333" fill="#c7e8ac"/><path d="M1712.28 2668c0-4.42 3.58-8 8-8h125.75c4.42 0 8 3.58 8 8v24c0 4.42-3.58 8-8 8h-125.75c-4.42 0-8-3.58-8-8z" stroke="#000" stroke-opacity="0" fill="#ffeca9"/><g><use xlink:href="#o" transform="matrix(1,0,0,1,1732.2811478558194,2660) translate(9.599999999999994 23.6)"/><use xlink:href="#p" transform="matrix(1,0,0,1,1732.2811478558194,2660) translate(48.5 23.6)"/></g><path d="M1139.04 2506.92h56.05c6.62 0 12-5.37 12-12v-76.05c0-6.62 5.36-12 12-12h40.15" stroke="#333" fill="none"/><path d="M1139.05 2507.42h-.5v-1h.5z" fill="#333"/><path d="M1274.02 2406.87l-14.27 4.64v-9.26z" stroke="#333" fill="#333"/><path d="M1139.04 2544.5h56.05c6.62 0 12 5.37 12 12v279.7c0 6.62 5.36 12 12 12h40.15" stroke="#333" fill="none"/><path d="M1139.05 2545h-.5v-1h.5z" fill="#333"/><path d="M1274.02 2848.2l-14.27 4.62v-9.27z" stroke="#333" fill="#333"/><path d="M11.33 2143.5c0-4.42 3.58-8 8-8H292c4.42 0 8 3.58 8 8v44c0 4.42-3.58 8-8 8H19.33c-4.42 0-8-3.58-8-8z" stroke="#000" stroke-opacity="0" fill="#fff" fill-opacity="0"/><g><use xlink:href="#Z" transform="matrix(1,0,0,1,31.33301193358136,2135.499999999909) translate(11.24074074074072 34.888888888888886)"/><use xlink:href="#aa" transform="matrix(1,0,0,1,31.33301193358136,2135.499999999909) translate(93.94444444444443 34.888888888888886)"/><use xlink:href="#ab" transform="matrix(1,0,0,1,31.33301193358136,2135.499999999909) translate(145.48148148148147 34.888888888888886)"/><use xlink:href="#ac" transform="matrix(1,0,0,1,31.33301193358136,2135.499999999909) translate(210.5987654320988 34.888888888888886)"/></g><path d="M253.96 2613.6l-.45 3.4-1.33 3.25-2.16 2.8-2.8 2.16-3.24 1.35-3.4.45h-27.33v-3h27.13l2.82-.37 2.5-1.04 2.2-1.68 1.67-2.2 1.04-2.5.36-2.82v-42.1h3zm18.6-116.6h-8l-2.82.37-2.52 1.04-2.18 1.68-1.67 2.2-1.04 2.5-.37 2.82v42.1h-3v-42.3l.44-3.4 1.35-3.25 2.15-2.8 2.8-2.16 3.25-1.35 3.4-.45h8.22z" fill="#333"/><path d="M213.27 2627h-1.6l.06-1.5-.05-1.5h1.6zM288.33 2495.5l-14.26 4.64v-9.28z" fill="#333"/><path d="M293.2 2495.5l-20.63 6.7v-13.4zm-17.63 2.57l7.9-2.57-7.9-2.57z" fill="#333"/><g><use xlink:href="#ad" transform="matrix(1,0,0,1,221.23338220925007,2549.699999999909) translate(0.004999999999999005 14.4)"/></g><path d="M943.23 2608.1l-.45 3.4-1.34 3.25-2.16 2.8-2.8 2.16-3.25 1.35-3.4.45H902.5v-3h27.13l2.82-.37 2.5-1.04 2.2-1.68 1.67-2.2 1.04-2.5.37-2.82v-42.1h3zm18.6-116.6h-8l-2.82.37-2.5 1.04-2.2 1.68-1.66 2.2-1.04 2.5-.37 2.82v42.1h-3v-42.3l.45-3.4 1.34-3.25 2.15-2.8 2.8-2.16 3.25-1.35 3.4-.45h8.22z" fill="#333"/><path d="M902.54 2621.5h-1.6l.06-1.5-.05-1.5h1.6zM977.6 2490l-14.26 4.64v-9.28z" fill="#333"/><path d="M982.46 2490l-20.62 6.7v-13.4zm-17.62 2.57l7.9-2.57-7.9-2.57z" fill="#333"/><g><use xlink:href="#ad" transform="matrix(1,0,0,1,910.5045029624919,2544.2) translate(0.004999999999999005 14.4)"/></g><path d="M1429.37 2478.44h27.84c6.64 0 12-5.38 12-12V2347.5c0-6.63 5.38-12 12-12h8.73" stroke="#333" stroke-width="3" fill="none"/><path d="M1429.4 2479.94h-1.6l.07-1.5-.06-1.5h1.6z" fill="#333"/><path d="M1505.7 2335.5l-14.27 4.64v-9.28z" stroke="#333" stroke-width="3" fill="#333"/><path d="M2002.1 2487h-50.83v-3h50.84zm90.07-13.4l-.45 3.4-1.34 3.25-2.16 2.8-2.8 2.16-3.25 1.35-3.4.45h-14.2v-3h14l2.82-.37 2.5-1.04 2.18-1.68 1.68-2.2 1.04-2.5.37-2.82v-58.34h3z" fill="#333"/><path d="M1951.3 2487h-1.6l.07-1.5-.05-1.5h1.6zM2095.3 2413.56h-9.27l4.64-14.27z" fill="#333"/><path d="M2097.37 2415.06h-13.4l6.7-20.62zm-9.27-3h5.14l-2.57-7.9z" fill="#333"/><g><use xlink:href="#ad" transform="matrix(1,0,0,1,2002.1136827277476,2474.699999999909) translate(0.004999999999999005 14.4)"/></g><path d="M71.23 2808c0-4.42 3.58-8 8-8h16.62c4.4 0 8 3.58 8 8v10.87c0 4.42-3.6 8-8 8H79.23c-4.42 0-8-3.58-8-8z" stroke="#333" fill="#ff8f80"/><path d="M71.23 2868c0-4.42 3.58-8 8-8h16.62c4.4 0 8 3.58 8 8v10.87c0 4.42-3.6 8-8 8H79.23c-4.42 0-8-3.58-8-8z" stroke="#333" fill="#c7e8ac"/><path d="M11.33 2791.44c0-4.42 3.58-8 8-8H512c4.42 0 8 3.58 8 8v44c0 4.42-3.58 8-8 8H19.33c-4.42 0-8-3.58-8-8z" stroke="#000" stroke-opacity="0" fill="#fff" fill-opacity="0"/><g><use xlink:href="#ae" transform="matrix(1,0,0,1,31.33301193358136,2783.437499999943) translate(85.65 33.6)"/><use xlink:href="#af" transform="matrix(1,0,0,1,31.33301193358136,2783.437499999943) translate(101.15 33.6)"/></g><path d="M11.33 2851.44c0-4.42 3.58-8 8-8H492c4.42 0 8 3.58 8 8v44c0 4.42-3.58 8-8 8H19.33c-4.42 0-8-3.58-8-8z" stroke="#000" stroke-opacity="0" fill="#fff" fill-opacity="0"/><g><use xlink:href="#ae" transform="matrix(1,0,0,1,31.33301193358136,2843.437499999943) translate(86.60000000000002 33.6)"/><use xlink:href="#ag" transform="matrix(1,0,0,1,31.33301193358136,2843.437499999943) translate(102.10000000000002 33.6)"/></g><defs><path fill="#333" d="M127-220V0H93v-220H8v-28h204v28h-85" id="ah"/><path fill="#333" d="M100-194c63 0 86 42 84 106H49c0 40 14 67 53 68 26 1 43-12 49-29l28 8c-11 28-37 45-77 45C44 4 14-33 15-96c1-61 26-98 85-98zm52 81c6-60-76-77-97-28-3 7-6 17-6 28h103" id="ai"/><path fill="#333" d="M141 0L90-78 38 0H4l68-98-65-92h35l48 74 47-74h35l-64 92 68 98h-35" id="aj"/><path fill="#333" d="M59-47c-2 24 18 29 38 22v24C64 9 27 4 27-40v-127H5v-23h24l9-43h21v43h35v23H59v120" id="ak"/><g id="a"><use transform="matrix(0.05,0,0,0.05,0,0)" xlink:href="#ah"/><use transform="matrix(0.05,0,0,0.05,8.950000000000001,0)" xlink:href="#ai"/><use transform="matrix(0.05,0,0,0.05,18.950000000000003,0)" xlink:href="#aj"/><use transform="matrix(0.05,0,0,0.05,27.950000000000003,0)" xlink:href="#ak"/></g><path fill="#333" d="M205 0l-28-72H64L36 0H1l101-248h38L239 0h-34zm-38-99l-47-123c-12 45-31 82-46 123h93" id="al"/><use transform="matrix(0.05,0,0,0.05,0,0)" xlink:href="#al" id="b"/><path fill="#333" d="M135-143c-3-34-86-38-87 0 15 53 115 12 119 90S17 21 10-45l28-5c4 36 97 45 98 0-10-56-113-15-118-90-4-57 82-63 122-42 12 7 21 19 24 35" id="am"/><path fill="#333" d="M24-231v-30h32v30H24zM24 0v-190h32V0H24" id="an"/><path fill="#333" d="M117-194c89-4 53 116 60 194h-32v-121c0-31-8-49-39-48C34-167 62-67 57 0H25l-1-190h30c1 10-1 24 2 32 11-22 29-35 61-36" id="ao"/><path fill="#333" d="M177-190C167-65 218 103 67 71c-23-6-38-20-44-43l32-5c15 47 100 32 89-28v-30C133-14 115 1 83 1 29 1 15-40 15-95c0-56 16-97 71-98 29-1 48 16 59 35 1-10 0-23 2-32h30zM94-22c36 0 50-32 50-73 0-42-14-75-50-75-39 0-46 34-46 75s6 73 46 73" id="ap"/><path fill="#333" d="M24 0v-261h32V0H24" id="aq"/><g id="c"><use transform="matrix(0.05,0,0,0.05,0,0)" xlink:href="#am"/><use transform="matrix(0.05,0,0,0.05,9,0)" xlink:href="#an"/><use transform="matrix(0.05,0,0,0.05,12.949999999999998,0)" xlink:href="#ao"/><use transform="matrix(0.05,0,0,0.05,22.95,0)" xlink:href="#ap"/><use transform="matrix(0.05,0,0,0.05,32.95,0)" xlink:href="#aq"/><use transform="matrix(0.05,0,0,0.05,36.900000000000006,0)" xlink:href="#ai"/></g><path fill="#333" d="M115-194c55 1 70 41 70 98S169 2 115 4C84 4 66-9 55-30l1 105H24l-1-265h31l2 30c10-21 28-34 59-34zm-8 174c40 0 45-34 45-75s-6-73-45-74c-42 0-51 32-51 76 0 43 10 73 51 73" id="ar"/><path fill="#333" d="M141-36C126-15 110 5 73 4 37 3 15-17 15-53c-1-64 63-63 125-63 3-35-9-54-41-54-24 1-41 7-42 31l-33-3c5-37 33-52 76-52 45 0 72 20 72 64v82c-1 20 7 32 28 27v20c-31 9-61-2-59-35zM48-53c0 20 12 33 32 33 41-3 63-29 60-74-43 2-92-5-92 41" id="as"/><g id="d"><use transform="matrix(0.05,0,0,0.05,0,0)" xlink:href="#ar"/><use transform="matrix(0.05,0,0,0.05,10,0)" xlink:href="#as"/><use transform="matrix(0.05,0,0,0.05,20,0)" xlink:href="#ak"/><use transform="matrix(0.05,0,0,0.05,25,0)" xlink:href="#an"/><use transform="matrix(0.05,0,0,0.05,28.950000000000003,0)" xlink:href="#ai"/><use transform="matrix(0.05,0,0,0.05,38.95,0)" xlink:href="#ao"/><use transform="matrix(0.05,0,0,0.05,48.95,0)" xlink:href="#ak"/></g><g id="e"><use transform="matrix(0.05,0,0,0.05,0,0)" xlink:href="#an"/><use transform="matrix(0.05,0,0,0.05,3.95,0)" xlink:href="#am"/></g><path fill="#333" d="M210-169c-67 3-38 105-44 169h-31v-121c0-29-5-50-35-48C34-165 62-65 56 0H25l-1-190h30c1 10-1 24 2 32 10-44 99-50 107 0 11-21 27-35 58-36 85-2 47 119 55 194h-31v-121c0-29-5-49-35-48" id="at"/><path fill="#333" d="M96-169c-40 0-48 33-48 73s9 75 48 75c24 0 41-14 43-38l32 2c-6 37-31 61-74 61-59 0-76-41-82-99-10-93 101-131 147-64 4 7 5 14 7 22l-32 3c-4-21-16-35-41-35" id="au"/><path fill="#333" d="M106-169C34-169 62-67 57 0H25v-261h32l-1 103c12-21 28-36 61-36 89 0 53 116 60 194h-32v-121c2-32-8-49-39-48" id="av"/><path fill="#333" d="M85-194c31 0 48 13 60 33l-1-100h32l1 261h-30c-2-10 0-23-3-31C134-8 116 4 85 4 32 4 16-35 15-94c0-66 23-100 70-100zm9 24c-40 0-46 34-46 75 0 40 6 74 45 74 42 0 51-32 51-76 0-42-9-74-50-73" id="aw"/><g id="f"><use transform="matrix(0.05,0,0,0.05,0,0)" xlink:href="#at"/><use transform="matrix(0.05,0,0,0.05,14.950000000000001,0)" xlink:href="#as"/><use transform="matrix(0.05,0,0,0.05,24.950000000000003,0)" xlink:href="#ak"/><use transform="matrix(0.05,0,0,0.05,29.950000000000003,0)" xlink:href="#au"/><use transform="matrix(0.05,0,0,0.05,38.95,0)" xlink:href="#av"/><use transform="matrix(0.05,0,0,0.05,48.95,0)" xlink:href="#ai"/><use transform="matrix(0.05,0,0,0.05,58.95,0)" xlink:href="#aw"/></g><path fill="#333" d="M100-194c62-1 85 37 85 99 1 63-27 99-86 99S16-35 15-95c0-66 28-99 85-99zM99-20c44 1 53-31 53-75 0-43-8-75-51-75s-53 32-53 75 10 74 51 75" id="ax"/><g id="g"><use transform="matrix(0.05,0,0,0.05,0,0)" xlink:href="#ak"/><use transform="matrix(0.05,0,0,0.05,5,0)" xlink:href="#ax"/></g><use transform="matrix(0.05,0,0,0.05,0,0)" xlink:href="#as" id="h"/><path fill="#333" d="M143 4C61 4 22-44 18-125c-5-107 100-154 193-111 17 8 29 25 37 43l-32 9c-13-25-37-40-76-40-61 0-88 39-88 99 0 61 29 100 91 101 35 0 62-11 79-27v-45h-74v-28h105v86C228-13 192 4 143 4" id="ay"/><g id="i"><use transform="matrix(0.05,0,0,0.05,0,0)" xlink:href="#ay"/><use transform="matrix(0.05,0,0,0.05,14,0)" xlink:href="#ax"/><use transform="matrix(0.05,0,0,0.05,24,0)" xlink:href="#aq"/><use transform="matrix(0.05,0,0,0.05,27.950000000000003,0)" xlink:href="#aw"/><use transform="matrix(0.05,0,0,0.05,37.95,0)" xlink:href="#ai"/><use transform="matrix(0.05,0,0,0.05,47.95,0)" xlink:href="#ao"/></g><path fill="#333" d="M233-177c-1 41-23 64-60 70L243 0h-38l-65-103H63V0H30v-248c88 3 205-21 203 71zM63-129c60-2 137 13 137-47 0-61-80-42-137-45v92" id="az"/><path fill="#333" d="M114-163C36-179 61-72 57 0H25l-1-190h30c1 12-1 29 2 39 6-27 23-49 58-41v29" id="aA"/><g id="j"><use transform="matrix(0.05,0,0,0.05,0,0)" xlink:href="#az"/><use transform="matrix(0.05,0,0,0.05,12.950000000000001,0)" xlink:href="#ai"/><use transform="matrix(0.05,0,0,0.05,22.950000000000003,0)" xlink:href="#au"/><use transform="matrix(0.05,0,0,0.05,31.950000000000003,0)" xlink:href="#ax"/><use transform="matrix(0.05,0,0,0.05,41.95,0)" xlink:href="#aA"/><use transform="matrix(0.05,0,0,0.05,47.900000000000006,0)" xlink:href="#aw"/></g><path d="M30-248c87 1 191-15 191 75 0 78-77 80-158 76V0H30v-248zm33 125c57 0 124 11 124-50 0-59-68-47-124-48v98" id="aB"/><path d="M141-36C126-15 110 5 73 4 37 3 15-17 15-53c-1-64 63-63 125-63 3-35-9-54-41-54-24 1-41 7-42 31l-33-3c5-37 33-52 76-52 45 0 72 20 72 64v82c-1 20 7 32 28 27v20c-31 9-61-2-59-35zM48-53c0 20 12 33 32 33 41-3 63-29 60-74-43 2-92-5-92 41" id="aC"/><path d="M59-47c-2 24 18 29 38 22v24C64 9 27 4 27-40v-127H5v-23h24l9-43h21v43h35v23H59v120" id="aD"/><path d="M24-231v-30h32v30H24zM24 0v-190h32V0H24" id="aE"/><path d="M100-194c63 0 86 42 84 106H49c0 40 14 67 53 68 26 1 43-12 49-29l28 8c-11 28-37 45-77 45C44 4 14-33 15-96c1-61 26-98 85-98zm52 81c6-60-76-77-97-28-3 7-6 17-6 28h103" id="aF"/><path d="M117-194c89-4 53 116 60 194h-32v-121c0-31-8-49-39-48C34-167 62-67 57 0H25l-1-190h30c1 10-1 24 2 32 11-22 29-35 61-36" id="aG"/><g id="k"><use transform="matrix(0.05,0,0,0.05,0,0)" xlink:href="#aB"/><use transform="matrix(0.05,0,0,0.05,12,0)" xlink:href="#aC"/><use transform="matrix(0.05,0,0,0.05,22,0)" xlink:href="#aD"/><use transform="matrix(0.05,0,0,0.05,27,0)" xlink:href="#aE"/><use transform="matrix(0.05,0,0,0.05,30.950000000000003,0)" xlink:href="#aF"/><use transform="matrix(0.05,0,0,0.05,40.95,0)" xlink:href="#aG"/><use transform="matrix(0.05,0,0,0.05,50.95,0)" xlink:href="#aD"/></g><path d="M101-251c82-7 93 87 43 132L82-64C71-53 59-42 53-27h129V0H18c2-99 128-94 128-182 0-28-16-43-45-43s-46 15-49 41l-32-3c6-41 34-60 81-64" id="aH"/><use transform="matrix(0.05,0,0,0.05,0,0)" xlink:href="#aH" id="l"/><path d="M109-170H84l-4-78h32zm-65 0H19l-4-78h33" id="aI"/><path d="M143 0L79-87 56-68V0H24v-261h32v163l83-92h37l-77 82L181 0h-38" id="aJ"/><g id="m"><use transform="matrix(0.05,0,0,0.05,0,0)" xlink:href="#aI"/><use transform="matrix(0.05,0,0,0.05,6.3500000000000005,0)" xlink:href="#aJ"/><use transform="matrix(0.05,0,0,0.05,15.350000000000001,0)" xlink:href="#aF"/><use transform="matrix(0.05,0,0,0.05,25.35,0)" xlink:href="#aG"/><use transform="matrix(0.05,0,0,0.05,35.35,0)" xlink:href="#aI"/></g><path fill="#333" d="M30 0v-248h187v28H63v79h144v27H63v87h162V0H30" id="aK"/><path fill="#333" d="M33 0v-248h34V0H33" id="aL"/><path fill="#333" d="M30-248c118-7 216 8 213 122C240-48 200 0 122 0H30v-248zM63-27c89 8 146-16 146-99s-60-101-146-95v194" id="aM"/><path fill="#333" d="M33-154v-36h34v36H33zM33 0v-36h34V0H33" id="aN"/><path fill="#333" d="M160-131c35 5 61 23 61 61C221 17 115-2 30 0v-248c76 3 177-17 177 60 0 33-19 50-47 57zm-97-11c50-1 110 9 110-42 0-47-63-36-110-37v79zm0 115c55-2 124 14 124-45 0-56-70-42-124-44v89" id="aO"/><g id="n"><use transform="matrix(0.05,0,0,0.05,0,0)" xlink:href="#aK"/><use transform="matrix(0.05,0,0,0.05,12,0)" xlink:href="#aL"/><use transform="matrix(0.05,0,0,0.05,17,0)" xlink:href="#aM"/><use transform="matrix(0.05,0,0,0.05,29.950000000000003,0)" xlink:href="#aN"/><use transform="matrix(0.05,0,0,0.05,34.95,0)" xlink:href="#aO"/></g><path fill="#333" d="M24 0v-248h195v40H76v63h132v40H76v65h150V0H24" id="aP"/><path fill="#333" d="M135-194c87-1 58 113 63 194h-50c-7-57 23-157-34-157-59 0-34 97-39 157H25l-1-190h47c2 12-1 28 3 38 12-26 28-41 61-42" id="aQ"/><path fill="#333" d="M88-194c31-1 46 15 58 34l-1-101h50l1 261h-48c-2-10 0-23-3-31C134-8 116 4 84 4 32 4 16-41 15-95c0-56 19-97 73-99zm17 164c33 0 40-30 41-66 1-37-9-64-41-64s-38 30-39 65c0 43 13 65 39 65" id="aR"/><g id="o"><use transform="matrix(0.05,0,0,0.05,0,0)" xlink:href="#aP"/><use transform="matrix(0.05,0,0,0.05,12,0)" xlink:href="#aQ"/><use transform="matrix(0.05,0,0,0.05,22.950000000000003,0)" xlink:href="#aR"/></g><path fill="#333" d="M169-182c-1-43-94-46-97-3 18 66 151 10 154 114 3 95-165 93-204 36-6-8-10-19-12-30l50-8c3 46 112 56 116 5-17-69-150-10-154-114-4-87 153-88 188-35 5 8 8 18 10 28" id="aS"/><path fill="#333" d="M115-3C79 11 28 4 28-45v-112H4v-33h27l15-45h31v45h36v33H77v99c-1 23 16 31 38 25v30" id="aT"/><path fill="#333" d="M133-34C117-15 103 5 69 4 32 3 11-16 11-54c-1-60 55-63 116-61 1-26-3-47-28-47-18 1-26 9-28 27l-52-2c7-38 36-58 82-57s74 22 75 68l1 82c-1 14 12 18 25 15v27c-30 8-71 5-69-32zm-48 3c29 0 43-24 42-57-32 0-66-3-65 30 0 17 8 27 23 27" id="aU"/><path fill="#333" d="M185-48c-13 30-37 53-82 52C43 2 14-33 14-96s30-98 90-98c62 0 83 45 84 108H66c0 31 8 55 39 56 18 0 30-7 34-22zm-45-69c5-46-57-63-70-21-2 6-4 13-4 21h74" id="aV"/><g id="p"><use transform="matrix(0.05,0,0,0.05,0,0)" xlink:href="#aS"/><use transform="matrix(0.05,0,0,0.05,12,0)" xlink:href="#aT"/><use transform="matrix(0.05,0,0,0.05,17.95,0)" xlink:href="#aU"/><use transform="matrix(0.05,0,0,0.05,27.950000000000003,0)" xlink:href="#aT"/><use transform="matrix(0.05,0,0,0.05,33.9,0)" xlink:href="#aV"/></g><path d="M33 0v-248h34V0H33" id="aW"/><path d="M96-169c-40 0-48 33-48 73s9 75 48 75c24 0 41-14 43-38l32 2c-6 37-31 61-74 61-59 0-76-41-82-99-10-93 101-131 147-64 4 7 5 14 7 22l-32 3c-4-21-16-35-41-35" id="aX"/><path d="M100-194c62-1 85 37 85 99 1 63-27 99-86 99S16-35 15-95c0-66 28-99 85-99zM99-20c44 1 53-31 53-75 0-43-8-75-51-75s-53 32-53 75 10 74 51 75" id="aY"/><path d="M210-169c-67 3-38 105-44 169h-31v-121c0-29-5-50-35-48C34-165 62-65 56 0H25l-1-190h30c1 10-1 24 2 32 10-44 99-50 107 0 11-21 27-35 58-36 85-2 47 119 55 194h-31v-121c0-29-5-49-35-48" id="aZ"/><path d="M177-190C167-65 218 103 67 71c-23-6-38-20-44-43l32-5c15 47 100 32 89-28v-30C133-14 115 1 83 1 29 1 15-40 15-95c0-56 16-97 71-98 29-1 48 16 59 35 1-10 0-23 2-32h30zM94-22c36 0 50-32 50-73 0-42-14-75-50-75-39 0-46 34-46 75s6 73 46 73" id="ba"/><g id="q"><use transform="matrix(0.048148148148148155,0,0,0.048148148148148155,0,0)" xlink:href="#aW"/><use transform="matrix(0.048148148148148155,0,0,0.048148148148148155,4.814814814814816,0)" xlink:href="#aG"/><use transform="matrix(0.048148148148148155,0,0,0.048148148148148155,14.444444444444446,0)" xlink:href="#aX"/><use transform="matrix(0.048148148148148155,0,0,0.048148148148148155,23.111111111111114,0)" xlink:href="#aY"/><use transform="matrix(0.048148148148148155,0,0,0.048148148148148155,32.74074074074075,0)" xlink:href="#aZ"/><use transform="matrix(0.048148148148148155,0,0,0.048148148148148155,47.13703703703705,0)" xlink:href="#aE"/><use transform="matrix(0.048148148148148155,0,0,0.048148148148148155,50.94074074074075,0)" xlink:href="#aG"/><use transform="matrix(0.048148148148148155,0,0,0.048148148148148155,60.57037037037038,0)" xlink:href="#ba"/></g><g id="r"><use transform="matrix(0.048148148148148155,0,0,0.048148148148148155,0,0)" xlink:href="#aB"/><use transform="matrix(0.048148148148148155,0,0,0.048148148148148155,11.555555555555557,0)" xlink:href="#aC"/><use transform="matrix(0.048148148148148155,0,0,0.048148148148148155,21.18518518518519,0)" xlink:href="#aD"/><use transform="matrix(0.048148148148148155,0,0,0.048148148148148155,26.00000000000001,0)" xlink:href="#aE"/><use transform="matrix(0.048148148148148155,0,0,0.048148148148148155,29.803703703703714,0)" xlink:href="#aF"/><use transform="matrix(0.048148148148148155,0,0,0.048148148148148155,39.433333333333344,0)" xlink:href="#aG"/><use transform="matrix(0.048148148148148155,0,0,0.048148148148148155,49.06296296296298,0)" xlink:href="#aD"/></g><path d="M106-169C34-169 62-67 57 0H25v-261h32l-1 103c12-21 28-36 61-36 89 0 53 116 60 194h-32v-121c2-32-8-49-39-48" id="bb"/><path d="M135-143c-3-34-86-38-87 0 15 53 115 12 119 90S17 21 10-45l28-5c4 36 97 45 98 0-10-56-113-15-118-90-4-57 82-63 122-42 12 7 21 19 24 35" id="bc"/><g id="s"><use transform="matrix(0.048148148148148155,0,0,0.048148148148148155,0,0)" xlink:href="#aZ"/><use transform="matrix(0.048148148148148155,0,0,0.048148148148148155,14.396296296296299,0)" xlink:href="#aC"/><use transform="matrix(0.048148148148148155,0,0,0.048148148148148155,24.025925925925932,0)" xlink:href="#aD"/><use transform="matrix(0.048148148148148155,0,0,0.048148148148148155,28.84074074074075,0)" xlink:href="#aX"/><use transform="matrix(0.048148148148148155,0,0,0.048148148148148155,37.50740740740741,0)" xlink:href="#bb"/><use transform="matrix(0.048148148148148155,0,0,0.048148148148148155,47.13703703703705,0)" xlink:href="#aF"/><use transform="matrix(0.048148148148148155,0,0,0.048148148148148155,56.76666666666667,0)" xlink:href="#bc"/></g><path d="M141 0L90-78 38 0H4l68-98-65-92h35l48 74 47-74h35l-64 92 68 98h-35" id="bd"/><g id="t"><use transform="matrix(0.048148148148148155,0,0,0.048148148148148155,0,0)" xlink:href="#aF"/><use transform="matrix(0.048148148148148155,0,0,0.048148148148148155,9.629629629629632,0)" xlink:href="#bd"/><use transform="matrix(0.048148148148148155,0,0,0.048148148148148155,18.296296296296298,0)" xlink:href="#aE"/><use transform="matrix(0.048148148148148155,0,0,0.048148148148148155,22.1,0)" xlink:href="#bc"/><use transform="matrix(0.048148148148148155,0,0,0.048148148148148155,30.766666666666673,0)" xlink:href="#aD"/><use transform="matrix(0.048148148148148155,0,0,0.048148148148148155,35.58148148148148,0)" xlink:href="#aE"/><use transform="matrix(0.048148148148148155,0,0,0.048148148148148155,39.385185185185186,0)" xlink:href="#aG"/><use transform="matrix(0.048148148148148155,0,0,0.048148148148148155,49.01481481481482,0)" xlink:href="#ba"/></g><path d="M143 4C61 4 22-44 18-125c-5-107 100-154 193-111 17 8 29 25 37 43l-32 9c-13-25-37-40-76-40-61 0-88 39-88 99 0 61 29 100 91 101 35 0 62-11 79-27v-45h-74v-28h105v86C228-13 192 4 143 4" id="be"/><path d="M24 0v-261h32V0H24" id="bf"/><path d="M85-194c31 0 48 13 60 33l-1-100h32l1 261h-30c-2-10 0-23-3-31C134-8 116 4 85 4 32 4 16-35 15-94c0-66 23-100 70-100zm9 24c-40 0-46 34-46 75 0 40 6 74 45 74 42 0 51-32 51-76 0-42-9-74-50-73" id="bg"/><g id="u"><use transform="matrix(0.048148148148148155,0,0,0.048148148148148155,0,0)" xlink:href="#be"/><use transform="matrix(0.048148148148148155,0,0,0.048148148148148155,13.481481481481483,0)" xlink:href="#aY"/><use transform="matrix(0.048148148148148155,0,0,0.048148148148148155,23.111111111111114,0)" xlink:href="#bf"/><use transform="matrix(0.048148148148148155,0,0,0.048148148148148155,26.914814814814818,0)" xlink:href="#bg"/><use transform="matrix(0.048148148148148155,0,0,0.048148148148148155,36.54444444444445,0)" xlink:href="#aF"/><use transform="matrix(0.048148148148148155,0,0,0.048148148148148155,46.174074074074085,0)" xlink:href="#aG"/></g><path d="M233-177c-1 41-23 64-60 70L243 0h-38l-65-103H63V0H30v-248c88 3 205-21 203 71zM63-129c60-2 137 13 137-47 0-61-80-42-137-45v92" id="bh"/><path d="M114-163C36-179 61-72 57 0H25l-1-190h30c1 12-1 29 2 39 6-27 23-49 58-41v29" id="bi"/><g id="v"><use transform="matrix(0.048148148148148155,0,0,0.048148148148148155,0,0)" xlink:href="#bh"/><use transform="matrix(0.048148148148148155,0,0,0.048148148148148155,12.470370370370372,0)" xlink:href="#aF"/><use transform="matrix(0.048148148148148155,0,0,0.048148148148148155,22.1,0)" xlink:href="#aX"/><use transform="matrix(0.048148148148148155,0,0,0.048148148148148155,30.766666666666673,0)" xlink:href="#aY"/><use transform="matrix(0.048148148148148155,0,0,0.048148148148148155,40.3962962962963,0)" xlink:href="#bi"/><use transform="matrix(0.048148148148148155,0,0,0.048148148148148155,46.12592592592593,0)" xlink:href="#bg"/></g><path d="M115-194c53 0 69 39 70 98 0 66-23 100-70 100C84 3 66-7 56-30L54 0H23l1-261h32v101c10-23 28-34 59-34zm-8 174c40 0 45-34 45-75 0-40-5-75-45-74-42 0-51 32-51 76 0 43 10 73 51 73" id="bj"/><g id="w"><use transform="matrix(0.048148148148148155,0,0,0.048148148148148155,0,0)" xlink:href="#bj"/><use transform="matrix(0.048148148148148155,0,0,0.048148148148148155,9.629629629629632,0)" xlink:href="#aC"/><use transform="matrix(0.048148148148148155,0,0,0.048148148148148155,19.259259259259263,0)" xlink:href="#bc"/><use transform="matrix(0.048148148148148155,0,0,0.048148148148148155,27.92592592592593,0)" xlink:href="#aF"/><use transform="matrix(0.048148148148148155,0,0,0.048148148148148155,37.555555555555564,0)" xlink:href="#bg"/></g><g id="x"><use transform="matrix(0.048148148148148155,0,0,0.048148148148148155,0,0)" xlink:href="#aY"/><use transform="matrix(0.048148148148148155,0,0,0.048148148148148155,9.629629629629632,0)" xlink:href="#aG"/></g><path d="M68-38c1 34 0 65-14 84H32c9-13 17-26 17-46H33v-38h35" id="bk"/><g id="y"><use transform="matrix(0.048148148148148155,0,0,0.048148148148148155,0,0)" xlink:href="#aZ"/><use transform="matrix(0.048148148148148155,0,0,0.048148148148148155,14.396296296296299,0)" xlink:href="#aC"/><use transform="matrix(0.048148148148148155,0,0,0.048148148148148155,24.025925925925932,0)" xlink:href="#aD"/><use transform="matrix(0.048148148148148155,0,0,0.048148148148148155,28.84074074074075,0)" xlink:href="#aX"/><use transform="matrix(0.048148148148148155,0,0,0.048148148148148155,37.50740740740741,0)" xlink:href="#bb"/><use transform="matrix(0.048148148148148155,0,0,0.048148148148148155,47.13703703703705,0)" xlink:href="#aF"/><use transform="matrix(0.048148148148148155,0,0,0.048148148148148155,56.76666666666667,0)" xlink:href="#bi"/><use transform="matrix(0.048148148148148155,0,0,0.048148148148148155,62.49629629629631,0)" xlink:href="#bc"/><use transform="matrix(0.048148148148148155,0,0,0.048148148148148155,71.16296296296298,0)" xlink:href="#bk"/></g><path d="M84 4C-5 8 30-112 23-190h32v120c0 31 7 50 39 49 72-2 45-101 50-169h31l1 190h-30c-1-10 1-25-2-33-11 22-28 36-60 37" id="bl"/><g id="z"><use transform="matrix(0.048148148148148155,0,0,0.048148148148148155,0,0)" xlink:href="#bj"/><use transform="matrix(0.048148148148148155,0,0,0.048148148148148155,9.629629629629632,0)" xlink:href="#bl"/><use transform="matrix(0.048148148148148155,0,0,0.048148148148148155,19.259259259259263,0)" xlink:href="#aD"/></g><path d="M30 0v-248h187v28H63v79h144v27H63v87h162V0H30" id="bm"/><path d="M30-248c118-7 216 8 213 122C240-48 200 0 122 0H30v-248zM63-27c89 8 146-16 146-99s-60-101-146-95v194" id="bn"/><g id="A"><use transform="matrix(0.048148148148148155,0,0,0.048148148148148155,0,0)" xlink:href="#bm"/><use transform="matrix(0.048148148148148155,0,0,0.048148148148148155,11.555555555555557,0)" xlink:href="#aW"/><use transform="matrix(0.048148148148148155,0,0,0.048148148148148155,16.370370370370374,0)" xlink:href="#bn"/></g><g id="B"><use transform="matrix(0.048148148148148155,0,0,0.048148148148148155,0,0)" xlink:href="#bg"/><use transform="matrix(0.048148148148148155,0,0,0.048148148148148155,9.629629629629632,0)" xlink:href="#aY"/><use transform="matrix(0.048148148148148155,0,0,0.048148148148148155,19.259259259259263,0)" xlink:href="#aF"/><use transform="matrix(0.048148148148148155,0,0,0.048148148148148155,28.888888888888893,0)" xlink:href="#bc"/></g><g id="C"><use transform="matrix(0.048148148148148155,0,0,0.048148148148148155,0,0)" xlink:href="#aG"/><use transform="matrix(0.048148148148148155,0,0,0.048148148148148155,9.629629629629632,0)" xlink:href="#aY"/><use transform="matrix(0.048148148148148155,0,0,0.048148148148148155,19.259259259259263,0)" xlink:href="#aD"/></g><g id="D"><use transform="matrix(0.048148148148148155,0,0,0.048148148148148155,0,0)" xlink:href="#aZ"/><use transform="matrix(0.048148148148148155,0,0,0.048148148148148155,14.396296296296299,0)" xlink:href="#aC"/><use transform="matrix(0.048148148148148155,0,0,0.048148148148148155,24.025925925925932,0)" xlink:href="#aD"/><use transform="matrix(0.048148148148148155,0,0,0.048148148148148155,28.84074074074075,0)" xlink:href="#aX"/><use transform="matrix(0.048148148148148155,0,0,0.048148148148148155,37.50740740740741,0)" xlink:href="#bb"/></g><path d="M27 0v-27h64v-190l-56 39v-29l58-41h29v221h61V0H27" id="bo"/><use transform="matrix(0.05,0,0,0.05,0,0)" xlink:href="#bo" id="E"/><path fill="#333" d="M135-150c-39-12-60 13-60 57V0H25l-1-190h47c2 13-1 29 3 40 6-28 27-53 61-41v41" id="bp"/><g id="F"><use transform="matrix(0.05,0,0,0.05,0,0)" xlink:href="#aS"/><use transform="matrix(0.05,0,0,0.05,12,0)" xlink:href="#aT"/><use transform="matrix(0.05,0,0,0.05,17.95,0)" xlink:href="#aU"/><use transform="matrix(0.05,0,0,0.05,27.950000000000003,0)" xlink:href="#bp"/><use transform="matrix(0.05,0,0,0.05,34.95,0)" xlink:href="#aT"/></g><g id="G"><use transform="matrix(0.05,0,0,0.05,0,0)" xlink:href="#aK"/><use transform="matrix(0.05,0,0,0.05,12,0)" xlink:href="#aL"/><use transform="matrix(0.05,0,0,0.05,17,0)" xlink:href="#aM"/><use transform="matrix(0.05,0,0,0.05,29.950000000000003,0)" xlink:href="#aN"/><use transform="matrix(0.05,0,0,0.05,34.95,0)" xlink:href="#al"/></g><g id="H"><use transform="matrix(0.05,0,0,0.05,0,0)" xlink:href="#aB"/><use transform="matrix(0.05,0,0,0.05,12,0)" xlink:href="#aC"/><use transform="matrix(0.05,0,0,0.05,22,0)" xlink:href="#aD"/><use transform="matrix(0.05,0,0,0.05,27,0)" xlink:href="#aE"/><use transform="matrix(0.05,0,0,0.05,30.950000000000003,0)" xlink:href="#aF"/><use transform="matrix(0.05,0,0,0.05,40.95,0)" xlink:href="#aG"/><use transform="matrix(0.05,0,0,0.05,50.95,0)" xlink:href="#aD"/></g><g id="I"><use transform="matrix(0.031481481481481485,0,0,0.031481481481481485,0,0)" xlink:href="#be"/><use transform="matrix(0.031481481481481485,0,0,0.031481481481481485,8.814814814814817,0)" xlink:href="#aY"/><use transform="matrix(0.031481481481481485,0,0,0.031481481481481485,15.111111111111114,0)" xlink:href="#bf"/><use transform="matrix(0.031481481481481485,0,0,0.031481481481481485,17.59814814814815,0)" xlink:href="#bg"/><use transform="matrix(0.031481481481481485,0,0,0.031481481481481485,23.89444444444445,0)" xlink:href="#aF"/><use transform="matrix(0.031481481481481485,0,0,0.031481481481481485,30.190740740740747,0)" xlink:href="#aG"/></g><g id="J"><use transform="matrix(0.031481481481481485,0,0,0.031481481481481485,0,0)" xlink:href="#bh"/><use transform="matrix(0.031481481481481485,0,0,0.031481481481481485,8.153703703703705,0)" xlink:href="#aF"/><use transform="matrix(0.031481481481481485,0,0,0.031481481481481485,14.450000000000003,0)" xlink:href="#aX"/><use transform="matrix(0.031481481481481485,0,0,0.031481481481481485,20.11666666666667,0)" xlink:href="#aY"/><use transform="matrix(0.031481481481481485,0,0,0.031481481481481485,26.41296296296297,0)" xlink:href="#bi"/><use transform="matrix(0.031481481481481485,0,0,0.031481481481481485,30.159259259259265,0)" xlink:href="#bg"/></g><path fill="#333" d="M199 0l-22-63H83L61 0H9l90-248h61L250 0h-51zm-33-102l-36-108c-10 38-24 72-36 108h72" id="bq"/><path fill="#333" d="M190-63c-7 42-38 67-86 67-59 0-84-38-90-98-12-110 154-137 174-36l-49 2c-2-19-15-32-35-32-30 0-35 28-38 64-6 74 65 87 74 30" id="br"/><path fill="#333" d="M25-224v-37h50v37H25zM25 0v-190h50V0H25" id="bs"/><path fill="#333" d="M110-194c64 0 96 36 96 99 0 64-35 99-97 99-61 0-95-36-95-99 0-62 34-99 96-99zm-1 164c35 0 45-28 45-65 0-40-10-65-43-65-34 0-45 26-45 65 0 36 10 65 43 65" id="bt"/><g id="K"><use transform="matrix(0.05,0,0,0.05,0,0)" xlink:href="#bq"/><use transform="matrix(0.05,0,0,0.05,12.950000000000001,0)" xlink:href="#br"/><use transform="matrix(0.05,0,0,0.05,22.950000000000003,0)" xlink:href="#aT"/><use transform="matrix(0.05,0,0,0.05,28.900000000000002,0)" xlink:href="#bs"/><use transform="matrix(0.05,0,0,0.05,33.900000000000006,0)" xlink:href="#bt"/><use transform="matrix(0.05,0,0,0.05,44.85000000000001,0)" xlink:href="#aQ"/></g><g id="L"><use transform="matrix(0.048148148148148155,0,0,0.048148148148148155,0,0)" xlink:href="#aB"/><use transform="matrix(0.048148148148148155,0,0,0.048148148148148155,11.555555555555557,0)" xlink:href="#aC"/><use transform="matrix(0.048148148148148155,0,0,0.048148148148148155,21.18518518518519,0)" xlink:href="#aD"/><use transform="matrix(0.048148148148148155,0,0,0.048148148148148155,26.00000000000001,0)" xlink:href="#aE"/><use transform="matrix(0.048148148148148155,0,0,0.048148148148148155,29.803703703703714,0)" xlink:href="#aF"/><use transform="matrix(0.048148148148148155,0,0,0.048148148148148155,39.433333333333344,0)" xlink:href="#aG"/><use transform="matrix(0.048148148148148155,0,0,0.048148148148148155,49.06296296296298,0)" xlink:href="#aD"/></g><g id="M"><use transform="matrix(0.048148148148148155,0,0,0.048148148148148155,0,0)" xlink:href="#bb"/><use transform="matrix(0.048148148148148155,0,0,0.048148148148148155,9.629629629629632,0)" xlink:href="#aC"/><use transform="matrix(0.048148148148148155,0,0,0.048148148148148155,19.259259259259263,0)" xlink:href="#bc"/></g><path d="M206 0h-36l-40-164L89 0H53L-1-190h32L70-26l43-164h34l41 164 42-164h31" id="bu"/><g id="N"><use transform="matrix(0.048148148148148155,0,0,0.048148148148148155,0,0)" xlink:href="#aG"/><use transform="matrix(0.048148148148148155,0,0,0.048148148148148155,9.629629629629632,0)" xlink:href="#aF"/><use transform="matrix(0.048148148148148155,0,0,0.048148148148148155,19.259259259259263,0)" xlink:href="#bu"/></g><g id="O"><use transform="matrix(0.048148148148148155,0,0,0.048148148148148155,0,0)" xlink:href="#bh"/><use transform="matrix(0.048148148148148155,0,0,0.048148148148148155,12.470370370370372,0)" xlink:href="#aF"/><use transform="matrix(0.048148148148148155,0,0,0.048148148148148155,22.1,0)" xlink:href="#aX"/><use transform="matrix(0.048148148148148155,0,0,0.048148148148148155,30.766666666666673,0)" xlink:href="#aY"/><use transform="matrix(0.048148148148148155,0,0,0.048148148148148155,40.3962962962963,0)" xlink:href="#bi"/><use transform="matrix(0.048148148148148155,0,0,0.048148148148148155,46.12592592592593,0)" xlink:href="#bg"/></g><g id="P"><use transform="matrix(0.048148148148148155,0,0,0.048148148148148155,0,0)" xlink:href="#aX"/><use transform="matrix(0.048148148148148155,0,0,0.048148148148148155,8.666666666666668,0)" xlink:href="#bi"/><use transform="matrix(0.048148148148148155,0,0,0.048148148148148155,14.396296296296299,0)" xlink:href="#aF"/><use transform="matrix(0.048148148148148155,0,0,0.048148148148148155,24.025925925925932,0)" xlink:href="#aC"/><use transform="matrix(0.048148148148148155,0,0,0.048148148148148155,33.655555555555566,0)" xlink:href="#aD"/><use transform="matrix(0.048148148148148155,0,0,0.048148148148148155,38.47037037037038,0)" xlink:href="#aF"/><use transform="matrix(0.048148148148148155,0,0,0.048148148148148155,48.100000000000016,0)" xlink:href="#bg"/></g><g id="Q"><use transform="matrix(0.048148148148148155,0,0,0.048148148148148155,0,0)" xlink:href="#aC"/><use transform="matrix(0.048148148148148155,0,0,0.048148148148148155,9.629629629629632,0)" xlink:href="#aG"/><use transform="matrix(0.048148148148148155,0,0,0.048148148148148155,19.259259259259263,0)" xlink:href="#bg"/></g><path d="M140-251c81 0 123 46 123 126C263-46 219 4 140 4 59 4 17-45 17-125s42-126 123-126zm0 227c63 0 89-41 89-101s-29-99-89-99c-61 0-89 39-89 99S79-25 140-24" id="bv"/><path d="M185-189c-5-48-123-54-124 2 14 75 158 14 163 119 3 78-121 87-175 55-17-10-28-26-33-46l33-7c5 56 141 63 141-1 0-78-155-14-162-118-5-82 145-84 179-34 5 7 8 16 11 25" id="bw"/><path d="M160-131c35 5 61 23 61 61C221 17 115-2 30 0v-248c76 3 177-17 177 60 0 33-19 50-47 57zm-97-11c50-1 110 9 110-42 0-47-63-36-110-37v79zm0 115c55-2 124 14 124-45 0-56-70-42-124-44v89" id="bx"/><path d="M30 0v-248h33v221h125V0H30" id="by"/><path d="M-5 72V49h209v23H-5" id="bz"/><path d="M232-93c-1 65-40 97-104 97C67 4 28-28 28-90v-158h33c8 89-33 224 67 224 102 0 64-133 71-224h33v155" id="bA"/><path d="M212-179c-10-28-35-45-73-45-59 0-87 40-87 99 0 60 29 101 89 101 43 0 62-24 78-52l27 14C228-24 195 4 139 4 59 4 22-46 18-125c-6-104 99-153 187-111 19 9 31 26 39 46" id="bB"/><path d="M205 0l-28-72H64L36 0H1l101-248h38L239 0h-34zm-38-99l-47-123c-12 45-31 82-46 123h93" id="bC"/><path d="M127-220V0H93v-220H8v-28h204v28h-85" id="bD"/><g id="R"><use transform="matrix(0.048148148148148155,0,0,0.048148148148148155,0,0)" xlink:href="#aB"/><use transform="matrix(0.048148148148148155,0,0,0.048148148148148155,11.555555555555557,0)" xlink:href="#bv"/><use transform="matrix(0.048148148148148155,0,0,0.048148148148148155,25.03703703703704,0)" xlink:href="#bw"/><use transform="matrix(0.048148148148148155,0,0,0.048148148148148155,36.592592592592595,0)" xlink:href="#bw"/><use transform="matrix(0.048148148148148155,0,0,0.048148148148148155,48.14814814814815,0)" xlink:href="#aW"/><use transform="matrix(0.048148148148148155,0,0,0.048148148148148155,52.96296296296297,0)" xlink:href="#bx"/><use transform="matrix(0.048148148148148155,0,0,0.048148148148148155,64.51851851851853,0)" xlink:href="#by"/><use transform="matrix(0.048148148148148155,0,0,0.048148148148148155,74.14814814814817,0)" xlink:href="#bm"/><use transform="matrix(0.048148148148148155,0,0,0.048148148148148155,85.70370370370372,0)" xlink:href="#bz"/><use transform="matrix(0.048148148148148155,0,0,0.048148148148148155,95.33333333333336,0)" xlink:href="#bn"/><use transform="matrix(0.048148148148148155,0,0,0.048148148148148155,107.80370370370375,0)" xlink:href="#bA"/><use transform="matrix(0.048148148148148155,0,0,0.048148148148148155,120.27407407407411,0)" xlink:href="#aB"/><use transform="matrix(0.048148148148148155,0,0,0.048148148148148155,131.82962962962966,0)" xlink:href="#by"/><use transform="matrix(0.048148148148148155,0,0,0.048148148148148155,141.45925925925928,0)" xlink:href="#aW"/><use transform="matrix(0.048148148148148155,0,0,0.048148148148148155,146.2740740740741,0)" xlink:href="#bB"/><use transform="matrix(0.048148148148148155,0,0,0.048148148148148155,158.74444444444447,0)" xlink:href="#bC"/><use transform="matrix(0.048148148148148155,0,0,0.048148148148148155,169,0)" xlink:href="#bD"/><use transform="matrix(0.048148148148148155,0,0,0.048148148148148155,179.54444444444445,0)" xlink:href="#bm"/></g><g id="S"><use transform="matrix(0.048148148148148155,0,0,0.048148148148148155,0,0)" xlink:href="#bf"/><use transform="matrix(0.048148148148148155,0,0,0.048148148148148155,3.8037037037037043,0)" xlink:href="#aE"/><use transform="matrix(0.048148148148148155,0,0,0.048148148148148155,7.6074074074074085,0)" xlink:href="#aG"/><use transform="matrix(0.048148148148148155,0,0,0.048148148148148155,17.23703703703704,0)" xlink:href="#aJ"/></g><g id="T"><use transform="matrix(0.048148148148148155,0,0,0.048148148148148155,0,0)" xlink:href="#aE"/><use transform="matrix(0.048148148148148155,0,0,0.048148148148148155,3.8037037037037043,0)" xlink:href="#bc"/></g><g id="U"><use transform="matrix(0.048148148148148155,0,0,0.048148148148148155,0,0)" xlink:href="#bj"/><use transform="matrix(0.048148148148148155,0,0,0.048148148148148155,9.629629629629632,0)" xlink:href="#aF"/><use transform="matrix(0.048148148148148155,0,0,0.048148148148148155,19.259259259259263,0)" xlink:href="#aD"/><use transform="matrix(0.048148148148148155,0,0,0.048148148148148155,24.07407407407408,0)" xlink:href="#bu"/><use transform="matrix(0.048148148148148155,0,0,0.048148148148148155,36.54444444444445,0)" xlink:href="#aF"/><use transform="matrix(0.048148148148148155,0,0,0.048148148148148155,46.174074074074085,0)" xlink:href="#aF"/><use transform="matrix(0.048148148148148155,0,0,0.048148148148148155,55.803703703703725,0)" xlink:href="#aG"/></g><g id="V"><use transform="matrix(0.048148148148148155,0,0,0.048148148148148155,0,0)" xlink:href="#aD"/><use transform="matrix(0.048148148148148155,0,0,0.048148148148148155,4.814814814814816,0)" xlink:href="#bb"/><use transform="matrix(0.048148148148148155,0,0,0.048148148148148155,14.444444444444446,0)" xlink:href="#aF"/></g><g id="W"><use transform="matrix(0.048148148148148155,0,0,0.048148148148148155,0,0)" xlink:href="#aD"/><use transform="matrix(0.048148148148148155,0,0,0.048148148148148155,4.814814814814816,0)" xlink:href="#bu"/><use transform="matrix(0.048148148148148155,0,0,0.048148148148148155,17.28518518518519,0)" xlink:href="#aY"/></g><g id="X"><use transform="matrix(0.048148148148148155,0,0,0.048148148148148155,0,0)" xlink:href="#bh"/><use transform="matrix(0.048148148148148155,0,0,0.048148148148148155,12.470370370370372,0)" xlink:href="#aF"/><use transform="matrix(0.048148148148148155,0,0,0.048148148148148155,22.1,0)" xlink:href="#aX"/><use transform="matrix(0.048148148148148155,0,0,0.048148148148148155,30.766666666666673,0)" xlink:href="#aY"/><use transform="matrix(0.048148148148148155,0,0,0.048148148148148155,40.3962962962963,0)" xlink:href="#bi"/><use transform="matrix(0.048148148148148155,0,0,0.048148148148148155,46.12592592592593,0)" xlink:href="#bg"/><use transform="matrix(0.048148148148148155,0,0,0.048148148148148155,55.75555555555557,0)" xlink:href="#bc"/></g><path fill="#333" d="M30-248c87 1 191-15 191 75 0 78-77 80-158 76V0H30v-248zm33 125c57 0 124 11 124-50 0-59-68-47-124-48v98" id="bE"/><path fill="#333" d="M140-251c81 0 123 46 123 126C263-46 219 4 140 4 59 4 17-45 17-125s42-126 123-126zm0 227c63 0 89-41 89-101s-29-99-89-99c-61 0-89 39-89 99S79-25 140-24" id="bF"/><path fill="#333" d="M185-189c-5-48-123-54-124 2 14 75 158 14 163 119 3 78-121 87-175 55-17-10-28-26-33-46l33-7c5 56 141 63 141-1 0-78-155-14-162-118-5-82 145-84 179-34 5 7 8 16 11 25" id="bG"/><path fill="#333" d="M30 0v-248h33v221h125V0H30" id="bH"/><path fill="#333" d="M-5 72V49h209v23H-5" id="bI"/><path fill="#333" d="M232-93c-1 65-40 97-104 97C67 4 28-28 28-90v-158h33c8 89-33 224 67 224 102 0 64-133 71-224h33v155" id="bJ"/><path fill="#333" d="M212-179c-10-28-35-45-73-45-59 0-87 40-87 99 0 60 29 101 89 101 43 0 62-24 78-52l27 14C228-24 195 4 139 4 59 4 22-46 18-125c-6-104 99-153 187-111 19 9 31 26 39 46" id="bK"/><g id="Y"><use transform="matrix(0.05,0,0,0.05,0,0)" xlink:href="#bE"/><use transform="matrix(0.05,0,0,0.05,12,0)" xlink:href="#bF"/><use transform="matrix(0.05,0,0,0.05,26,0)" xlink:href="#bG"/><use transform="matrix(0.05,0,0,0.05,38,0)" xlink:href="#bG"/><use transform="matrix(0.05,0,0,0.05,50,0)" xlink:href="#aL"/><use transform="matrix(0.05,0,0,0.05,55,0)" xlink:href="#aO"/><use transform="matrix(0.05,0,0,0.05,67,0)" xlink:href="#bH"/><use transform="matrix(0.05,0,0,0.05,77,0)" xlink:href="#aK"/><use transform="matrix(0.05,0,0,0.05,89,0)" xlink:href="#bI"/><use transform="matrix(0.05,0,0,0.05,99,0)" xlink:href="#aM"/><use transform="matrix(0.05,0,0,0.05,111.95,0)" xlink:href="#bJ"/><use transform="matrix(0.05,0,0,0.05,124.9,0)" xlink:href="#bE"/><use transform="matrix(0.05,0,0,0.05,136.9,0)" xlink:href="#bH"/><use transform="matrix(0.05,0,0,0.05,146.9,0)" xlink:href="#aL"/><use transform="matrix(0.05,0,0,0.05,151.9,0)" xlink:href="#bK"/><use transform="matrix(0.05,0,0,0.05,164.85,0)" xlink:href="#al"/><use transform="matrix(0.05,0,0,0.05,175.5,0)" xlink:href="#ah"/><use transform="matrix(0.05,0,0,0.05,186.45,0)" xlink:href="#aK"/></g><path fill="#333" d="M67-125c0 53 21 87 73 88 37 1 54-22 65-47l45 17C233-25 199 4 140 4 58 4 20-42 15-125 8-235 124-281 211-232c18 10 29 29 36 50l-46 12c-8-25-30-41-62-41-52 0-71 34-72 86" id="bL"/><g id="Z"><use transform="matrix(0.06790123456790124,0,0,0.06790123456790124,0,0)" xlink:href="#bL"/><use transform="matrix(0.06790123456790124,0,0,0.06790123456790124,17.58641975308642,0)" xlink:href="#bp"/><use transform="matrix(0.06790123456790124,0,0,0.06790123456790124,27.092592592592595,0)" xlink:href="#aV"/><use transform="matrix(0.06790123456790124,0,0,0.06790123456790124,40.67283950617284,0)" xlink:href="#aU"/><use transform="matrix(0.06790123456790124,0,0,0.06790123456790124,54.25308641975309,0)" xlink:href="#aT"/><use transform="matrix(0.06790123456790124,0,0,0.06790123456790124,62.333333333333336,0)" xlink:href="#aV"/></g><path fill="#333" d="M238-95c0 69-44 99-111 99C63 4 22-25 22-93v-155h51v151c-1 38 19 59 55 60 90 1 49-130 58-211h52v153" id="bM"/><path fill="#333" d="M137-138c1-29-70-34-71-4 15 46 118 7 119 86 1 83-164 76-172 9l43-7c4 19 20 25 44 25 33 8 57-30 24-41C81-84 22-81 20-136c-2-80 154-74 161-7" id="bN"/><g id="aa"><use transform="matrix(0.06790123456790124,0,0,0.06790123456790124,0,0)" xlink:href="#bM"/><use transform="matrix(0.06790123456790124,0,0,0.06790123456790124,17.58641975308642,0)" xlink:href="#bN"/><use transform="matrix(0.06790123456790124,0,0,0.06790123456790124,31.16666666666667,0)" xlink:href="#aV"/></g><g id="ab"><use transform="matrix(0.06790123456790124,0,0,0.06790123456790124,0,0)" xlink:href="#bL"/><use transform="matrix(0.06790123456790124,0,0,0.06790123456790124,17.58641975308642,0)" xlink:href="#aU"/><use transform="matrix(0.06790123456790124,0,0,0.06790123456790124,31.16666666666667,0)" xlink:href="#bN"/><use transform="matrix(0.06790123456790124,0,0,0.06790123456790124,44.74691358024692,0)" xlink:href="#aV"/></g><path fill="#333" d="M160-152l-12 59h37v26h-43L128 0h-28l14-67H60L46 0H20l13-67H6v-26h33l13-59H15v-26h42l15-67h27l-15 67h54l15-67h27l-14 67h28v26h-34zm-81 0L66-93h55l12-59H79" id="bO"/><path fill="#333" d="M139-81c0-46-55-55-73-27H18l9-140h149v37H72l-4 63c44-38 133-4 122 66C201 21 21 35 11-62l49-4c5 18 15 30 39 30 26 0 40-18 40-45" id="bP"/><g id="ac"><use transform="matrix(0.06790123456790124,0,0,0.06790123456790124,0,0)" xlink:href="#bO"/><use transform="matrix(0.06790123456790124,0,0,0.06790123456790124,13.580246913580249,0)" xlink:href="#bP"/></g><path fill="#333" d="M240 0l2-218c-23 76-54 145-80 218h-23L58-218 59 0H30v-248h44l77 211c21-75 51-140 76-211h43V0h-30" id="bQ"/><path fill="#333" d="M197 0v-115H63V0H30v-248h33v105h134v-105h34V0h-34" id="bR"/><g id="ad"><use transform="matrix(0.05,0,0,0.05,0,0)" xlink:href="#bQ"/><use transform="matrix(0.05,0,0,0.05,14.950000000000001,0)" xlink:href="#al"/><use transform="matrix(0.05,0,0,0.05,25.6,0)" xlink:href="#ah"/><use transform="matrix(0.05,0,0,0.05,36.550000000000004,0)" xlink:href="#bK"/><use transform="matrix(0.05,0,0,0.05,49.50000000000001,0)" xlink:href="#bR"/></g><path fill="#333" d="M18-150v-26h174v26H18zm0 90v-26h174v26H18" id="bS"/><use transform="matrix(0.05,0,0,0.05,0,0)" xlink:href="#bS" id="ae"/><path fill="#333" d="M137 0h-34L2-248h35l83 218 83-218h36" id="bT"/><path fill="#333" d="M190 0L58-211 59 0H30v-248h39L202-35l-2-213h31V0h-41" id="bU"/><g id="af"><use transform="matrix(0.05,0,0,0.05,0,0)" xlink:href="#bE"/><use transform="matrix(0.05,0,0,0.05,12,0)" xlink:href="#az"/><use transform="matrix(0.05,0,0,0.05,24.950000000000003,0)" xlink:href="#aK"/><use transform="matrix(0.05,0,0,0.05,36.95,0)" xlink:href="#bT"/><use transform="matrix(0.05,0,0,0.05,48.95,0)" xlink:href="#aK"/><use transform="matrix(0.05,0,0,0.05,60.95,0)" xlink:href="#bU"/><use transform="matrix(0.05,0,0,0.05,73.9,0)" xlink:href="#ah"/><use transform="matrix(0.05,0,0,0.05,84.85000000000001,0)" xlink:href="#bI"/><use transform="matrix(0.05,0,0,0.05,94.85000000000001,0)" xlink:href="#aK"/><use transform="matrix(0.05,0,0,0.05,106.85000000000001,0)" xlink:href="#aL"/><use transform="matrix(0.05,0,0,0.05,111.85000000000001,0)" xlink:href="#aM"/><use transform="matrix(0.05,0,0,0.05,124.80000000000001,0)" xlink:href="#bI"/><use transform="matrix(0.05,0,0,0.05,134.8,0)" xlink:href="#bJ"/><use transform="matrix(0.05,0,0,0.05,147.75,0)" xlink:href="#bE"/><use transform="matrix(0.05,0,0,0.05,159.75,0)" xlink:href="#aM"/><use transform="matrix(0.05,0,0,0.05,172.7,0)" xlink:href="#al"/><use transform="matrix(0.05,0,0,0.05,183.35,0)" xlink:href="#ah"/><use transform="matrix(0.05,0,0,0.05,194.29999999999998,0)" xlink:href="#aK"/><use transform="matrix(0.05,0,0,0.05,206.29999999999995,0)" xlink:href="#bG"/><use transform="matrix(0.05,0,0,0.05,218.29999999999995,0)" xlink:href="#bI"/><use transform="matrix(0.05,0,0,0.05,228.29999999999995,0)" xlink:href="#bQ"/><use transform="matrix(0.05,0,0,0.05,243.24999999999997,0)" xlink:href="#bF"/><use transform="matrix(0.05,0,0,0.05,257.25,0)" xlink:href="#aM"/><use transform="matrix(0.05,0,0,0.05,270.2,0)" xlink:href="#aK"/></g><path fill="#333" d="M266 0h-40l-56-210L115 0H75L2-248h35L96-30l15-64 43-154h32l59 218 59-218h35" id="bV"/><g id="ag"><use transform="matrix(0.05,0,0,0.05,0,0)" xlink:href="#al"/><use transform="matrix(0.05,0,0,0.05,12,0)" xlink:href="#bH"/><use transform="matrix(0.05,0,0,0.05,22,0)" xlink:href="#bH"/><use transform="matrix(0.05,0,0,0.05,32,0)" xlink:href="#bF"/><use transform="matrix(0.05,0,0,0.05,46,0)" xlink:href="#bV"/><use transform="matrix(0.05,0,0,0.05,62.95,0)" xlink:href="#bI"/><use transform="matrix(0.05,0,0,0.05,72.95,0)" xlink:href="#aK"/><use transform="matrix(0.05,0,0,0.05,84.95,0)" xlink:href="#aL"/><use transform="matrix(0.05,0,0,0.05,89.95,0)" xlink:href="#aM"/><use transform="matrix(0.05,0,0,0.05,102.9,0)" xlink:href="#bI"/><use transform="matrix(0.05,0,0,0.05,112.9,0)" xlink:href="#bJ"/><use transform="matrix(0.05,0,0,0.05,125.85000000000001,0)" xlink:href="#bE"/><use transform="matrix(0.05,0,0,0.05,137.85000000000002,0)" xlink:href="#aM"/><use transform="matrix(0.05,0,0,0.05,150.8,0)" xlink:href="#al"/><use transform="matrix(0.05,0,0,0.05,161.45000000000002,0)" xlink:href="#ah"/><use transform="matrix(0.05,0,0,0.05,172.4,0)" xlink:href="#aK"/><use transform="matrix(0.05,0,0,0.05,184.4,0)" xlink:href="#bG"/><use transform="matrix(0.05,0,0,0.05,196.4,0)" xlink:href="#bI"/><use transform="matrix(0.05,0,0,0.05,206.4,0)" xlink:href="#bQ"/><use transform="matrix(0.05,0,0,0.05,221.35000000000002,0)" xlink:href="#bF"/><use transform="matrix(0.05,0,0,0.05,235.35000000000002,0)" xlink:href="#aM"/><use transform="matrix(0.05,0,0,0.05,248.29999999999995,0)" xlink:href="#aK"/></g></defs></g></svg>