<svg xmlns="http://www.w3.org/2000/svg" xmlns:xlink="http://www.w3.org/1999/xlink" xmlns:lucid="lucid" width="2353" height="1281"><g transform="translate(1806 -1917)" lucid:page-tab-id="0_0"><path d="M-1806.4-2518.4h3676.8v7619.2h-3676.8z" fill="#fff"/><path d="M-1720 740H340v1220h-2060z" stroke="#fff" stroke-width="2" fill="#fff"/><use xlink:href="#a" transform="matrix(1,0,0,1,-1715,745) translate(1008.525 609.946875)"/><path d="M-1720 1980H883.26v1220H-1720z" stroke="#fff" stroke-width="2" fill="#fff"/><use xlink:href="#a" transform="matrix(1,0,0,1,-1715,1985) translate(1280.525 609.946875)"/><path d="M-1573.02 2173.56c0-4.42 3.58-8 8-8h360.47c4.42 0 8 3.58 8 8v44c0 4.4-3.58 8-8 8h-360.47c-4.42 0-8-3.6-8-8z" fill="none"/><use xlink:href="#b" transform="matrix(1,0,0,1,-1573.0243861896467,2165.5555555555557) translate(14.175000000000011 33.6)"/><use xlink:href="#c" transform="matrix(1,0,0,1,-1573.0243861896467,2165.5555555555557) translate(52.07500000000002 33.6)"/><use xlink:href="#d" transform="matrix(1,0,0,1,-1573.0243861896467,2165.5555555555557) translate(120.02500000000002 33.6)"/><use xlink:href="#e" transform="matrix(1,0,0,1,-1573.0243861896467,2165.5555555555557) translate(150.97500000000002 33.6)"/><use xlink:href="#f" transform="matrix(1,0,0,1,-1573.0243861896467,2165.5555555555557) translate(224.925 33.6)"/><use xlink:href="#g" transform="matrix(1,0,0,1,-1573.0243861896467,2165.5555555555557) translate(244.925 33.6)"/><use xlink:href="#h" transform="matrix(1,0,0,1,-1573.0243861896467,2165.5555555555557) translate(259.925 33.6)"/><use xlink:href="#i" transform="matrix(1,0,0,1,-1573.0243861896467,2165.5555555555557) translate(307.875 33.6)"/><path d="M-943.25 2503.3c0 33.14-26.87 60-60 60-33.14 0-60-26.86-60-60 0-33.13 26.86-60 60-60 33.13 0 60 26.87 60 60z" stroke="#333" fill="#fff"/><use xlink:href="#j" transform="matrix(1,0,0,1,-1063.2524717454958,2443.30555555551) translate(24.529999999999998 63.15)"/><path d="M-1083.25 2403.3h88l12 12v48h-100z" stroke="#333" fill="#fff"/><path d="M-995.25 2403.78v11.53h11.52" stroke="#333" fill="#fff"/><use xlink:href="#k" transform="matrix(1,0,0,1,-1083.2524717454958,2403.30555555551) translate(26.525 33.15)"/><path d="M-902.03 2173.56c0-4.42 3.58-8 8-8h447.96c4.42 0 8 3.58 8 8v44c0 4.4-3.58 8-8 8h-447.96c-4.42 0-8-3.6-8-8z" stroke="#000" stroke-opacity="0" fill="#fff" fill-opacity="0"/><use xlink:href="#l" transform="matrix(1,0,0,1,-902.0284906913464,2165.5555555555557) translate(5.896296296296299 32.61666666666667)"/><use xlink:href="#m" transform="matrix(1,0,0,1,-902.0284906913464,2165.5555555555557) translate(43.45185185185186 32.61666666666667)"/><use xlink:href="#n" transform="matrix(1,0,0,1,-902.0284906913464,2165.5555555555557) translate(62.71111111111112 32.61666666666667)"/><use xlink:href="#o" transform="matrix(1,0,0,1,-902.0284906913464,2165.5555555555557) translate(109.89629629629633 32.61666666666667)"/><use xlink:href="#p" transform="matrix(1,0,0,1,-902.0284906913464,2165.5555555555557) translate(124.34074074074077 32.61666666666667)"/><use xlink:href="#q" transform="matrix(1,0,0,1,-902.0284906913464,2165.5555555555557) translate(189.7740740740741 32.61666666666667)"/><use xlink:href="#r" transform="matrix(1,0,0,1,-902.0284906913464,2165.5555555555557) translate(207.05925925925928 32.61666666666667)"/><use xlink:href="#s" transform="matrix(1,0,0,1,-902.0284906913464,2165.5555555555557) translate(274.4666666666667 32.61666666666667)"/><use xlink:href="#t" transform="matrix(1,0,0,1,-902.0284906913464,2165.5555555555557) translate(310 32.61666666666667)"/><use xlink:href="#u" transform="matrix(1,0,0,1,-902.0284906913464,2165.5555555555557) translate(324.44444444444446 32.61666666666667)"/><use xlink:href="#v" transform="matrix(1,0,0,1,-902.0284906913464,2165.5555555555557) translate(360.98888888888894 32.61666666666667)"/><use xlink:href="#w" transform="matrix(1,0,0,1,-902.0284906913464,2165.5555555555557) translate(429.262962962963 32.61666666666667)"/><path d="M-1621.78 2288c0-4.42 3.58-8 8-8H-1148c4.42 0 8 3.58 8 8v424c0 4.42-3.58 8-8 8h-465.78c-4.42 0-8-3.58-8-8z" stroke="#333" fill="#fff"/><path d="M-1412.52 2583.3c0 33.14-26.87 60-60 60-33.14 0-60-26.86-60-60 0-33.13 26.86-60 60-60 33.13 0 60 26.87 60 60z" stroke="#333" fill="#fff"/><use xlink:href="#j" transform="matrix(1,0,0,1,-1532.523592498737,2523.30555555551) translate(24.529999999999998 63.15)"/><path d="M-1438.93 2245.8c0-4.42 3.58-8 8-8h115.75c4.42 0 8 3.58 8 8v27.3c0 4.43-3.58 8-8 8h-115.75c-4.42 0-8-3.57-8-8z" stroke="#000" stroke-opacity="0" fill="#ffeca9"/><use xlink:href="#x" transform="matrix(1,0,0,1,-1438.9349542418504,2237.802083333373) translate(21.099999999999994 25.4)"/><use xlink:href="#y" transform="matrix(1,0,0,1,-1438.9349542418504,2237.802083333373) translate(67 25.4)"/><path d="M-1552.52 2483.3h88l12 12v48h-100z" stroke="#333" fill="#fff"/><path d="M-1464.52 2483.78v11.53h11.52" stroke="#333" fill="#fff"/><use xlink:href="#z" transform="matrix(1,0,0,1,-1552.523592498737,2483.30555555551) translate(26.525 33.15)"/><path d="M-1197.25 2415.56c0 33.13-26.86 60-60 60-33.13 0-60-26.87-60-60 0-33.14 26.87-60 60-60 33.14 0 60 26.86 60 60z" stroke="#333" fill="#fff"/><use xlink:href="#A" transform="matrix(1,0,0,1,-1317.2456452908593,2355.5555555555557) translate(31.53 63.15)"/><path d="M-1337.25 2315.56h88l12 12v48h-100z" stroke="#333" fill="#fff"/><path d="M-1249.25 2316.03v11.53h11.53" stroke="#333" fill="#fff"/><use xlink:href="#z" transform="matrix(1,0,0,1,-1337.2456452908593,2315.5555555555557) translate(26.525 33.15)"/><path d="M-1363.38 2571.4l-.45 3.4-1.34 3.25-2.16 2.8-2.8 2.17-3.25 1.34-3.4.45h-14.62v-3h14.42l2.82-.36 2.5-1.05 2.2-1.68 1.66-2.18 1.05-2.5.37-2.83v-60.97h3zm25-154.34h-14.4l-2.83.37-2.52 1.04-2.18 1.67-1.67 2.18-1.05 2.5-.36 2.83v60.98h-3v-61.17l.44-3.4 1.35-3.25 2.16-2.8 2.8-2.15 3.25-1.35 3.42-.44h14.6zM-1392.9 2587.94l-14.27-4.63 14.27-4.63z" fill="#333"/><path d="M-1391.4 2590l-20.62-6.7 20.62-6.7zm-10.92-6.7l7.92 2.58v-5.15zM-1322.6 2415.56l-14.27 4.63v-9.28z" fill="#333"/><path d="M-1317.75 2415.56l-20.62 6.7v-13.4zm-17.62 2.57l7.92-2.57-7.92-2.58z" fill="#333"/><use xlink:href="#B" transform="matrix(1,0,0,1,-1396.1096188947981,2488.6305555555327) translate(0.004999999999999005 14.4)"/><path d="M-1363.38 2571.4l-.45 3.4-1.34 3.25-2.16 2.8-2.8 2.17-3.25 1.34-3.4.45h-14.62v-3h14.42l2.82-.36 2.5-1.04 2.2-1.68 1.66-2.18 1.05-2.5.37-2.83v-60.97h3zm25-154.34h-14.4l-2.83.37-2.52 1.04-2.18 1.67-1.67 2.18-1.05 2.5-.36 2.83v60.98h-3v-61.17l.44-3.4 1.35-3.25 2.16-2.8 2.8-2.15 3.25-1.35 3.42-.44h14.6zM-1322.6 2415.56l-14.27 4.63v-9.28z" fill="#333"/><path d="M-1317.75 2415.56l-20.62 6.7v-13.4zm-17.62 2.57l7.92-2.57-7.92-2.58zM-1392.9 2587.94l-14.27-4.63 14.27-4.63z" fill="#333"/><path d="M-1391.4 2590l-20.62-6.7 20.62-6.7zm-10.92-6.7l7.92 2.58v-5.15z" fill="#333"/><path d="M-256.97 2048c0-4.42 3.6-8 8-8h384c4.42 0 8 3.58 8 8v44c0 4.42-3.58 8-8 8h-384c-4.4 0-8-3.58-8-8z" stroke="#000" stroke-opacity="0" fill="#fff" fill-opacity="0"/><use xlink:href="#C" transform="matrix(1,0,0,1,-256.9667048300421,2040) translate(158.6648148148148 32.61666666666667)"/><path d="M-123.73 2608c0-4.42 3.58-8 8-8h105.2c4.42 0 8 3.58 8 8v30.07c0 4.42-3.58 8-8 8h-105.2c-4.42 0-8-3.58-8-8z" stroke="#000" stroke-opacity="0" fill="#ffeca9"/><use xlink:href="#D" transform="matrix(1,0,0,1,-123.72694554089185,2600) translate(19.099999999999994 26.15)"/><use xlink:href="#y" transform="matrix(1,0,0,1,-123.72694554089185,2600) translate(58 26.15)"/><path d="M-256.97 2560.47c0-4.4 3.6-8 8-8h384c4.42 0 8 3.6 8 8v46.4c0 4.42-3.58 8-8 8h-384c-4.4 0-8-3.58-8-8z" stroke="#000" stroke-opacity="0" fill="#fff" fill-opacity="0"/><use xlink:href="#E" transform="matrix(1,0,0,1,-256.9667048300421,2552.473611111214) translate(19.035185185185128 25.679166666666667)"/><use xlink:href="#F" transform="matrix(1,0,0,1,-256.9667048300421,2552.473611111214) translate(67.13518518518515 25.679166666666667)"/><use xlink:href="#G" transform="matrix(1,0,0,1,-256.9667048300421,2552.473611111214) translate(131.46111111111108 25.679166666666667)"/><use xlink:href="#H" transform="matrix(1,0,0,1,-256.9667048300421,2552.473611111214) translate(173.7833333333333 25.679166666666667)"/><use xlink:href="#I" transform="matrix(1,0,0,1,-256.9667048300421,2552.473611111214) translate(221.30555555555554 25.679166666666667)"/><use xlink:href="#J" transform="matrix(1,0,0,1,-256.9667048300421,2552.473611111214) translate(284.7166666666667 25.679166666666667)"/><use xlink:href="#t" transform="matrix(1,0,0,1,-256.9667048300421,2552.473611111214) translate(308.7907407407408 25.679166666666667)"/><use xlink:href="#K" transform="matrix(1,0,0,1,-256.9667048300421,2552.473611111214) translate(323.23518518518523 25.679166666666667)"/><use xlink:href="#L" transform="matrix(1,0,0,1,-256.9667048300421,2552.473611111214) translate(17.662962962962922 46.47916666666667)"/><use xlink:href="#t" transform="matrix(1,0,0,1,-256.9667048300421,2552.473611111214) translate(70.57777777777775 46.47916666666667)"/><use xlink:href="#u" transform="matrix(1,0,0,1,-256.9667048300421,2552.473611111214) translate(85.0222222222222 46.47916666666667)"/><use xlink:href="#M" transform="matrix(1,0,0,1,-256.9667048300421,2552.473611111214) translate(121.56666666666665 46.47916666666667)"/><use xlink:href="#N" transform="matrix(1,0,0,1,-256.9667048300421,2552.473611111214) translate(160.08518518518517 46.47916666666667)"/><use xlink:href="#O" transform="matrix(1,0,0,1,-256.9667048300421,2552.473611111214) translate(193.7888888888889 46.47916666666667)"/><use xlink:href="#P" transform="matrix(1,0,0,1,-256.9667048300421,2552.473611111214) translate(221.71481481481482 46.47916666666667)"/><use xlink:href="#Q" transform="matrix(1,0,0,1,-256.9667048300421,2552.473611111214) translate(244.82592592592593 46.47916666666667)"/><use xlink:href="#R" transform="matrix(1,0,0,1,-256.9667048300421,2552.473611111214) translate(313.1 46.47916666666667)"/><path d="M-1196.55 2617.8c0 33.14-26.86 60-60 60-33.13 0-60-26.86-60-60 0-33.13 26.87-60 60-60 33.14 0 60 26.87 60 60z" stroke="#333" fill="#fff"/><use xlink:href="#S" transform="matrix(1,0,0,1,-1316.5478141570459,2557.805555555601) translate(24.529999999999998 63.15)"/><path d="M-1364.82 2537.8h88l12 12v48h-100z" stroke="#333" fill="#fff"/><path d="M-1276.82 2538.28v11.53h11.53" stroke="#333" fill="#fff"/><use xlink:href="#z" transform="matrix(1,0,0,1,-1364.8183111945555,2537.805555555601) translate(26.525 33.15)"/><path d="M-1255.05 2555.8h-3v-28.33h3zm0-49.93h-3v-9.22h3z" fill="#333"/><path d="M-1255.05 2557.37l-1.5-.06-1.5.06v-1.6h3zM-1251.9 2495.15h-9.28l4.63-14.26z" fill="#333"/><path d="M-1249.85 2496.65h-13.4l6.7-20.62zm-9.27-3h5.14l-2.57-7.9z" fill="#333"/><use xlink:href="#B" transform="matrix(1,0,0,1,-1287.7728141570458,2505.868230286709) translate(0.004999999999999005 14.4)"/><path d="M-917.68 2288c0-4.42 3.58-8 8-8H-408c4.42 0 8 3.58 8 8v422.9c0 4.42-3.58 8-8 8h-501.68c-4.42 0-8-3.58-8-8z" stroke="#333" fill="#fff"/><path d="M-717.64 2577.8c0 33.14-26.86 60-60 60-33.13 0-60-26.86-60-60 0-33.13 26.87-60 60-60 33.14 0 60 26.87 60 60z" stroke="#333" fill="#fff"/><use xlink:href="#j" transform="matrix(1,0,0,1,-837.6378761931828,2517.805555555601) translate(24.529999999999998 63.15)"/><path d="M-877.1 2477.8h88l12 12v48h-100z" stroke="#333" fill="#fff"/><path d="M-789.1 2478.28v11.53h11.52" stroke="#333" fill="#fff"/><use xlink:href="#z" transform="matrix(1,0,0,1,-877.1008134578423,2477.805555555601) translate(26.525 33.15)"/><path d="M-460.8 2378.93c0 33.14-26.86 60-60 60-33.13 0-60-26.86-60-60s26.87-60 60-60c33.14 0 60 26.86 60 60z" stroke="#333" fill="#fff"/><use xlink:href="#A" transform="matrix(1,0,0,1,-580.7940895362462,2318.930555555624) translate(31.53 63.15)"/><path d="M-638.94 2288.93h88l12 12v48h-100z" stroke="#333" fill="#fff"/><path d="M-550.94 2289.4v11.53h11.53" stroke="#333" fill="#fff"/><use xlink:href="#z" transform="matrix(1,0,0,1,-638.9379694708146,2288.930555555624) translate(26.525 33.15)"/><path d="M-647.72 2565.9l-.44 3.4-1.35 3.25-2.16 2.8-2.8 2.17-3.25 1.34-3.42.45h-35.4v-3h35.2l2.83-.36 2.52-1.05 2.18-1.68 1.67-2.18 1.04-2.5.38-2.83v-76.53h3zm45.8-185.47h-35.2l-2.82.37-2.5 1.04-2.2 1.67-1.67 2.2-1.05 2.5-.37 2.83v76.54h-3v-76.74l.45-3.4 1.34-3.25 2.16-2.8 2.8-2.16 3.25-1.34 3.4-.45h35.4zM-698.02 2582.44l-14.26-4.63 14.26-4.63z" fill="#333"/><path d="M-696.52 2584.5l-20.62-6.7 20.62-6.7zm-10.9-6.7l7.9 2.58v-5.15zM-586.15 2378.93l-14.26 4.64v-9.27z" fill="#333"/><path d="M-581.3 2378.93l-20.6 6.7v-13.4zm-17.6 2.57l7.9-2.57-7.9-2.57z" fill="#333"/><use xlink:href="#B" transform="matrix(1,0,0,1,-680.4409828647146,2467.5680555556123) translate(0.004999999999999005 14.4)"/><path d="M-647.72 2565.9l-.44 3.4-1.35 3.25-2.16 2.8-2.8 2.17-3.25 1.34-3.42.45h-35.4v-3h35.2l2.83-.36 2.52-1.04 2.18-1.68 1.67-2.18 1.04-2.5.38-2.83v-76.53h3zm45.8-185.47h-35.2l-2.82.37-2.5 1.04-2.2 1.68-1.67 2.18-1.05 2.5-.37 2.83v76.54h-3v-76.74l.45-3.4 1.34-3.25 2.16-2.8 2.8-2.16 3.25-1.34 3.4-.45h35.4zM-586.15 2378.93l-14.26 4.64v-9.27z" fill="#333"/><path d="M-581.3 2378.93l-20.6 6.7v-13.4zm-17.6 2.57l7.9-2.57-7.9-2.57zM-698.02 2582.44l-14.26-4.63 14.26-4.63z" fill="#333"/><path d="M-696.52 2584.5l-20.62-6.7 20.62-6.7zm-10.9-6.7l7.9 2.58v-5.15z" fill="#333"/><path d="M-460.1 2617.8c0 33.14-26.86 60-60 60-33.13 0-60-26.86-60-60 0-33.13 26.87-60 60-60 33.14 0 60 26.87 60 60z" stroke="#333" fill="#fff"/><use xlink:href="#S" transform="matrix(1,0,0,1,-580.0962584024328,2557.805555555601) translate(24.529999999999998 63.15)"/><path d="M-632.36 2532.3h88l12 12v48h-100z" stroke="#333" fill="#fff"/><path d="M-544.36 2532.78v11.53h11.52" stroke="#333" fill="#fff"/><use xlink:href="#z" transform="matrix(1,0,0,1,-632.359928985305,2532.305555555692) translate(26.525 33.15)"/><path d="M-518.6 2555.8h-3v-46.64h3zm0-68.24h-3v-27.53h3z" fill="#333"/><path d="M-518.6 2557.37l-1.5-.06-1.5.06v-1.6h3zM-515.46 2458.53h-9.27l4.63-14.27z" fill="#333"/><path d="M-513.4 2460.03h-13.4l6.7-20.62zm-9.27-3h5.14l-2.57-7.92z" fill="#333"/><use xlink:href="#B" transform="matrix(1,0,0,1,-551.3212584024328,2487.5557302867433) translate(0.004999999999999005 14.4)"/><path d="M-941.25 2503.3h43.03" stroke="#333" stroke-width="3" fill="none"/><path d="M-941.2 2504.8h-1.6l.05-1.5-.06-1.5h1.6z" fill="#333"/><path d="M-882.45 2503.3l-14.27 4.64v-9.27z" stroke="#333" stroke-width="3" fill="#333"/><path d="M-329.04 2143.87c0-4.42 3.58-8 8-8H192c4.42 0 8 3.58 8 8V2532c0 4.42-3.58 8-8 8h-513.04c-4.42 0-8-3.58-8-8z" stroke="#333" fill="#ff8f80"/><path d="M-177.8 2425.56c0 33.13-26.87 60-60 60-33.15 0-60-26.87-60-60 0-33.14 26.85-60 60-60 33.13 0 60 26.86 60 60z" stroke="#333" fill="#fff"/><use xlink:href="#j" transform="matrix(1,0,0,1,-297.81086102418567,2365.5555555555557) translate(24.529999999999998 63.15)"/><path d="M-240.82 2315.56h88l12 12v48h-100z" stroke="#333" fill="#fff"/><path d="M-152.82 2316.03v11.53h11.52" stroke="#333" fill="#fff"/><use xlink:href="#z" transform="matrix(1,0,0,1,-240.8208881267633,2315.5555555555557) translate(26.525 33.15)"/><path d="M126.55 2240c0 33.14-26.86 60-60 60-33.13 0-60-26.86-60-60s26.87-60 60-60c33.14 0 60 26.86 60 60z" stroke="#333" fill="#fff"/><use xlink:href="#A" transform="matrix(1,0,0,1,6.5542585009854974,2180) translate(31.53 63.15)"/><path d="M-60.8 2160h88l12 12v48h-100z" stroke="#333" fill="#fff"/><path d="M27.2 2160.48V2172h11.52" stroke="#333" fill="#fff"/><use xlink:href="#z" transform="matrix(1,0,0,1,-60.799299586722555,2160) translate(26.525 33.15)"/><path d="M-84.13 2413.65l-.44 3.4-1.35 3.25-2.15 2.8-2.8 2.17-3.25 1.34-3.4.46h-59.17v-3h58.97l2.82-.37 2.5-1.06 2.2-1.67 1.66-2.18 1.04-2.52.37-2.82v-69.88h3zm69.56-172.15h-58.96l-2.82.37-2.5 1.04-2.2 1.68-1.67 2.2-1.04 2.5-.37 2.82v69.88h-3v-70.08l.45-3.4 1.34-3.25 2.16-2.8 2.8-2.16 3.25-1.35 3.4-.45h59.16zM-158.2 2430.2l-14.26-4.64 14.27-4.64z" fill="#333"/><path d="M-156.7 2432.26l-20.6-6.7 20.6-6.7zm-10.9-6.7l7.9 2.57v-5.15zM1.2 2240l-14.27 4.64v-9.28z" fill="#333"/><path d="M6.05 2240l-20.62 6.7v-13.4zm-17.62 2.57l7.92-2.57-7.92-2.57z" fill="#333"/><use xlink:href="#B" transform="matrix(1,0,0,1,-116.85330126160011,2321.9777777777776) translate(0.004999999999999005 14.4)"/><path d="M-84.13 2413.65l-.44 3.4-1.35 3.25-2.15 2.8-2.8 2.17-3.25 1.34-3.4.46h-59.17v-3h58.97l2.82-.37 2.5-1.05 2.2-1.68 1.66-2.18 1.04-2.52.37-2.82v-69.88h3zm69.56-172.15h-58.96l-2.82.37-2.5 1.04-2.2 1.68-1.67 2.2-1.04 2.5-.37 2.82v69.88h-3v-70.08l.45-3.4 1.34-3.25 2.16-2.8 2.8-2.16 3.25-1.35 3.4-.45h59.16zM1.2 2240l-14.27 4.64v-9.28z" fill="#333"/><path d="M6.05 2240l-20.62 6.7v-13.4zm-17.62 2.57l7.92-2.57-7.92-2.57zM-158.2 2430.2l-14.26-4.64 14.27-4.64z" fill="#333"/><path d="M-156.7 2432.26l-20.6-6.7 20.6-6.7zm-10.9-6.7l7.9 2.57v-5.15z" fill="#333"/><path d="M127.25 2460c0 33.14-26.86 60-60 60-33.13 0-60-26.86-60-60s26.87-60 60-60c33.14 0 60 26.86 60 60z" stroke="#333" fill="#fff"/><use xlink:href="#S" transform="matrix(1,0,0,1,7.252089634798949,2400) translate(24.529999999999998 63.15)"/><path d="M-50.05 2380.06h88l12 12v48h-100z" stroke="#333" fill="#fff"/><path d="M37.95 2380.53v11.53h11.52" stroke="#333" fill="#fff"/><use xlink:href="#z" transform="matrix(1,0,0,1,-50.04883179992112,2380.0555555556466) translate(26.525 33.15)"/><path d="M68.75 2398h-3v-37.2h3zm0-58.8h-3v-18.1h3z" fill="#333"/><path d="M68.75 2399.56l-1.5-.06-1.5.05v-1.6h3zM71.9 2319.6H62.6l4.63-14.27z" fill="#333"/><path d="M73.95 2321.1h-13.4l6.7-20.62zm-9.27-3h5.14l-2.57-7.92z" fill="#333"/><use xlink:href="#B" transform="matrix(1,0,0,1,36.02708963479894,2339.1876747311308) translate(0.004999999999999005 14.4)"/><path d="M-328.4 2648c0-4.42 3.6-8 8-8H412c4.42 0 8 3.58 8 8v422.9c0 4.42-3.58 8-8 8h-732.4c-4.4 0-8-3.58-8-8z" stroke="#333" fill="#c7e8ac"/><path d="M-34.45 3000c0 33.14-27.6 60-61.68 60-34.06 0-61.68-26.86-61.68-60s27.6-60 61.67-60 61.68 26.86 61.68 60z" stroke="#333" fill="#fff"/><use xlink:href="#j" transform="matrix(1,0,0,1,-157.80793289081197,2940) translate(26.029999999999998 63.15)"/><path d="M-211.4 2920h90.8l12 12v48h-102.8z" stroke="#333" fill="#fff"/><path d="M-120.6 2920.48V2932h11.52" stroke="#333" fill="#fff"/><use xlink:href="#k" transform="matrix(1,0,0,1,-211.40089514322585,2920) translate(28.025 33.15)"/><path d="M363.64 2740c0 33.14-27.62 60-61.68 60-34.07 0-61.68-26.86-61.68-60s27.6-60 61.68-60c34.06 0 61.68 26.86 61.68 60z" stroke="#333" fill="#fff"/><use xlink:href="#A" transform="matrix(1,0,0,1,240.27638190092307,2680) translate(33.029999999999994 63.15)"/><path d="M178.63 2660h90.8l12 12v48h-102.8z" stroke="#333" fill="#fff"/><path d="M269.43 2660.48V2672h11.53" stroke="#333" fill="#fff"/><use xlink:href="#z" transform="matrix(1,0,0,1,178.63276689021836,2660) translate(28.025 33.15)"/><path d="M364.36 3000c0 33.14-27.62 60-61.7 60-34.05 0-61.67-26.86-61.67-60s27.6-60 61.67-60 61.7 26.86 61.7 60z" stroke="#333" fill="#fff"/><use xlink:href="#S" transform="matrix(1,0,0,1,240.99392411750847,2940) translate(26.029999999999998 63.15)"/><path d="M188 2920h90.8l12 12v48H188z" stroke="#333" fill="#fff"/><path d="M278.8 2920.48V2932h11.54" stroke="#333" fill="#fff"/><g><use xlink:href="#z" transform="matrix(1,0,0,1,188.0125976621796,2920) translate(28.025 33.15)"/></g><path d="M304.17 2938h-3v-57.2h3zm0-78.8h-3v-38.1h3z" fill="#333"/><path d="M304.17 2939.56l-1.5-.06-1.5.02v-1.56h3zM307.3 2819.6h-9.26l4.63-14.26z" fill="#333"/><path d="M309.37 2821.1h-13.4l6.7-20.6zm-9.27-3h5.15l-2.58-7.9z" fill="#333"/><g><use xlink:href="#B" transform="matrix(1,0,0,1,271.44999828937944,2859.194516741272) translate(0.004999999999999005 14.4)"/></g><path d="M-1706.48 2010.2c0-4.42 3.58-8 8-8h210.4c4.43 0 8 3.58 8 8v44c0 4.4-3.57 8-8 8h-210.4c-4.42 0-8-3.6-8-8z" stroke="#000" stroke-opacity="0" fill="#fff" fill-opacity="0"/><g><use xlink:href="#T" transform="matrix(1,0,0,1,-1706.4817820830763,2002.1944444443989) translate(13.393888888888876 19.555555555555557)"/><use xlink:href="#U" transform="matrix(1,0,0,1,-1706.4817820830763,2002.1944444443989) translate(102.75191358024692 19.555555555555557)"/><use xlink:href="#V" transform="matrix(1,0,0,1,-1706.4817820830763,2002.1944444443989) translate(154.28895061728394 19.555555555555557)"/><use xlink:href="#W" transform="matrix(1,0,0,1,-1706.4817820830763,2002.1944444443989) translate(99.42475308641976 48.88888888888889)"/></g><path d="M-126.82 2108c0-4.42 3.58-8 8-8H4.88c4.43 0 8 3.58 8 8v26.2c0 4.4-3.57 8-8 8h-123.7c-4.42 0-8-3.6-8-8z" stroke="#000" stroke-opacity="0" fill="#ffeca9"/><g><use xlink:href="#D" transform="matrix(1,0,0,1,-126.8216833872371,2100) translate(28.599999999999994 25.15)"/><use xlink:href="#y" transform="matrix(1,0,0,1,-126.8216833872371,2100) translate(67.5 25.15)"/></g><path d="M-717.64 2256.9c0-4.42 3.58-8 8-8h114.07c4.42 0 8 3.58 8 8v21.8c0 4.43-3.58 8-8 8h-114.07c-4.42 0-8-3.57-8-8z" stroke="#000" stroke-opacity="0" fill="#ffeca9"/><g><use xlink:href="#X" transform="matrix(1,0,0,1,-717.6378761931829,2248.9027777778006) translate(37.099999999999994 21.525)"/></g><path d="M-1423.16 2032.98c0-4.42 3.6-8 8-8h19.65c4.4 0 8 3.58 8 8v17.35c0 4.42-3.6 8-8 8h-19.66c-4.4 0-8-3.58-8-8z" stroke="#333" fill="#ff8f80"/><path d="M-1387.5 2019.44h339.08v44.43h-339.1z" stroke="#000" stroke-opacity="0" stroke-width="2" fill="#fff" fill-opacity="0"/><g><use xlink:href="#Y" transform="matrix(1,0,0,1,-1382.5085998166273,2024.4409722222313) translate(16.150000000000006 20.9625)"/><use xlink:href="#Z" transform="matrix(1,0,0,1,-1382.5085998166273,2024.4409722222313) translate(31.650000000000006 20.9625)"/></g><path d="M-1460 2077.3h720v60h-720z" stroke="#000" stroke-opacity="0" stroke-width="2" fill="#fff" fill-opacity="0"/><g><use xlink:href="#Y" transform="matrix(1,0,0,1,-1455,2082.2993055555726) translate(87.85000000000002 30.025)"/><use xlink:href="#aa" transform="matrix(1,0,0,1,-1455,2082.2993055555726) translate(103.35000000000002 30.025)"/><use xlink:href="#ab" transform="matrix(1,0,0,1,-1455,2082.2993055555726) translate(368.65 30.025)"/><use xlink:href="#ac" transform="matrix(1,0,0,1,-1455,2082.2993055555726) translate(404.59999999999997 30.025)"/><use xlink:href="#ad" transform="matrix(1,0,0,1,-1455,2082.2993055555726) translate(471.4 30.025)"/><use xlink:href="#ae" transform="matrix(1,0,0,1,-1455,2082.2993055555726) translate(518.3499999999999 30.025)"/><use xlink:href="#af" transform="matrix(1,0,0,1,-1455,2082.2993055555726) translate(549.3 30.025)"/></g><path d="M-1423.16 2095.23c0-4.42 3.6-8 8-8h19.65c4.4 0 8 3.58 8 8v17.34c0 4.42-3.6 8-8 8h-19.66c-4.4 0-8-3.58-8-8z" stroke="#333" fill="#c7e8ac"/><path d="M-36.13 2740c0 33.14-26.86 60-60 60-33.13 0-60-26.86-60-60s26.87-60 60-60c33.14 0 60 26.86 60 60z" stroke="#333" fill="#834187"/><g><use xlink:href="#A" transform="matrix(1,0,0,1,-156.12685871894098,2680) translate(31.53 63.15)"/></g><path d="M-224.7 2660h90.8l12 12v48h-102.8z" stroke="#333" fill="#834187"/><path d="M-133.9 2660.48V2672h11.5" stroke="#333" fill="#834187"/><g><use xlink:href="#ag" transform="matrix(1,0,0,1,-224.7107325563121,2660) translate(28.025 33.15)"/></g><path d="M-95.13 2938.5h-2v-57.7h2zm0-79.3h-2V2819h2z"/><path d="M-95.13 2939.54l-1-.04-1 .02v-1.05h2zM-91.5 2818h-9.26l4.63-14.26z"/><path d="M-90.12 2819h-12.02l6-18.5zm-9.27-2h6.53l-3.26-10.03z"/><g><use xlink:href="#ah" transform="matrix(1,0,0,1,-127.35185881378823,2859.2001267337887) translate(0 14.4)"/></g><path d="M20 2741h-37.12v-2h37.1zm201.27 0h-7.83v-2h7.83zM-18.12 2744.64L-32.4 2740l14.28-4.64z" fill="#834187"/><path d="M-17.12 2746l-18.5-6 18.5-6zm-12.03-6l10.03 3.26v-6.52zM236.54 2740l-14.27 4.64v-9.28z" fill="#834187"/><path d="M239.78 2740l-18.5 6v-12zm-16.5 3.26l10.02-3.26-10.03-3.26z" fill="#834187"/><g><use xlink:href="#ai" transform="matrix(1,0,0,1,19.987829753088263,2729.2) translate(0 14.4)"/><use xlink:href="#aj" transform="matrix(1,0,0,1,19.987829753088263,2729.2) translate(94 14.4)"/></g><defs><path d="M127-220V0H93v-220H8v-28h204v28h-85" id="ak"/><path d="M100-194c63 0 86 42 84 106H49c0 40 14 67 53 68 26 1 43-12 49-29l28 8c-11 28-37 45-77 45C44 4 14-33 15-96c1-61 26-98 85-98zm52 81c6-60-76-77-97-28-3 7-6 17-6 28h103" id="al"/><path d="M141 0L90-78 38 0H4l68-98-65-92h35l48 74 47-74h35l-64 92 68 98h-35" id="am"/><path d="M59-47c-2 24 18 29 38 22v24C64 9 27 4 27-40v-127H5v-23h24l9-43h21v43h35v23H59v120" id="an"/><g id="a"><use transform="matrix(0.05,0,0,0.05,0,0)" xlink:href="#ak"/><use transform="matrix(0.05,0,0,0.05,8.950000000000001,0)" xlink:href="#al"/><use transform="matrix(0.05,0,0,0.05,18.950000000000003,0)" xlink:href="#am"/><use transform="matrix(0.05,0,0,0.05,27.950000000000003,0)" xlink:href="#an"/></g><path fill="#333" d="M127-220V0H93v-220H8v-28h204v28h-85" id="ao"/><path fill="#333" d="M206 0h-36l-40-164L89 0H53L-1-190h32L70-26l43-164h34l41 164 42-164h31" id="ap"/><path fill="#333" d="M100-194c62-1 85 37 85 99 1 63-27 99-86 99S16-35 15-95c0-66 28-99 85-99zM99-20c44 1 53-31 53-75 0-43-8-75-51-75s-53 32-53 75 10 74 51 75" id="aq"/><g id="b"><use transform="matrix(0.05,0,0,0.05,0,0)" xlink:href="#ao"/><use transform="matrix(0.05,0,0,0.05,9.950000000000001,0)" xlink:href="#ap"/><use transform="matrix(0.05,0,0,0.05,22.900000000000002,0)" xlink:href="#aq"/></g><path fill="#333" d="M115-194c55 1 70 41 70 98S169 2 115 4C84 4 66-9 55-30l1 105H24l-1-265h31l2 30c10-21 28-34 59-34zm-8 174c40 0 45-34 45-75s-6-73-45-74c-42 0-51 32-51 76 0 43 10 73 51 73" id="ar"/><path fill="#333" d="M141-36C126-15 110 5 73 4 37 3 15-17 15-53c-1-64 63-63 125-63 3-35-9-54-41-54-24 1-41 7-42 31l-33-3c5-37 33-52 76-52 45 0 72 20 72 64v82c-1 20 7 32 28 27v20c-31 9-61-2-59-35zM48-53c0 20 12 33 32 33 41-3 63-29 60-74-43 2-92-5-92 41" id="as"/><path fill="#333" d="M59-47c-2 24 18 29 38 22v24C64 9 27 4 27-40v-127H5v-23h24l9-43h21v43h35v23H59v120" id="at"/><path fill="#333" d="M24-231v-30h32v30H24zM24 0v-190h32V0H24" id="au"/><path fill="#333" d="M100-194c63 0 86 42 84 106H49c0 40 14 67 53 68 26 1 43-12 49-29l28 8c-11 28-37 45-77 45C44 4 14-33 15-96c1-61 26-98 85-98zm52 81c6-60-76-77-97-28-3 7-6 17-6 28h103" id="av"/><path fill="#333" d="M117-194c89-4 53 116 60 194h-32v-121c0-31-8-49-39-48C34-167 62-67 57 0H25l-1-190h30c1 10-1 24 2 32 11-22 29-35 61-36" id="aw"/><path fill="#333" d="M135-143c-3-34-86-38-87 0 15 53 115 12 119 90S17 21 10-45l28-5c4 36 97 45 98 0-10-56-113-15-118-90-4-57 82-63 122-42 12 7 21 19 24 35" id="ax"/><g id="c"><use transform="matrix(0.05,0,0,0.05,0,0)" xlink:href="#ar"/><use transform="matrix(0.05,0,0,0.05,10,0)" xlink:href="#as"/><use transform="matrix(0.05,0,0,0.05,20,0)" xlink:href="#at"/><use transform="matrix(0.05,0,0,0.05,25,0)" xlink:href="#au"/><use transform="matrix(0.05,0,0,0.05,28.950000000000003,0)" xlink:href="#av"/><use transform="matrix(0.05,0,0,0.05,38.95,0)" xlink:href="#aw"/><use transform="matrix(0.05,0,0,0.05,48.95,0)" xlink:href="#at"/><use transform="matrix(0.05,0,0,0.05,53.95,0)" xlink:href="#ax"/></g><path fill="#333" d="M114-163C36-179 61-72 57 0H25l-1-190h30c1 12-1 29 2 39 6-27 23-49 58-41v29" id="ay"/><g id="d"><use transform="matrix(0.05,0,0,0.05,0,0)" xlink:href="#as"/><use transform="matrix(0.05,0,0,0.05,10,0)" xlink:href="#ay"/><use transform="matrix(0.05,0,0,0.05,15.949999999999998,0)" xlink:href="#av"/></g><path fill="#333" d="M210-169c-67 3-38 105-44 169h-31v-121c0-29-5-50-35-48C34-165 62-65 56 0H25l-1-190h30c1 10-1 24 2 32 10-44 99-50 107 0 11-21 27-35 58-36 85-2 47 119 55 194h-31v-121c0-29-5-49-35-48" id="az"/><path fill="#333" d="M96-169c-40 0-48 33-48 73s9 75 48 75c24 0 41-14 43-38l32 2c-6 37-31 61-74 61-59 0-76-41-82-99-10-93 101-131 147-64 4 7 5 14 7 22l-32 3c-4-21-16-35-41-35" id="aA"/><path fill="#333" d="M106-169C34-169 62-67 57 0H25v-261h32l-1 103c12-21 28-36 61-36 89 0 53 116 60 194h-32v-121c2-32-8-49-39-48" id="aB"/><path fill="#333" d="M85-194c31 0 48 13 60 33l-1-100h32l1 261h-30c-2-10 0-23-3-31C134-8 116 4 85 4 32 4 16-35 15-94c0-66 23-100 70-100zm9 24c-40 0-46 34-46 75 0 40 6 74 45 74 42 0 51-32 51-76 0-42-9-74-50-73" id="aC"/><g id="e"><use transform="matrix(0.05,0,0,0.05,0,0)" xlink:href="#az"/><use transform="matrix(0.05,0,0,0.05,14.950000000000001,0)" xlink:href="#as"/><use transform="matrix(0.05,0,0,0.05,24.950000000000003,0)" xlink:href="#at"/><use transform="matrix(0.05,0,0,0.05,29.950000000000003,0)" xlink:href="#aA"/><use transform="matrix(0.05,0,0,0.05,38.95,0)" xlink:href="#aB"/><use transform="matrix(0.05,0,0,0.05,48.95,0)" xlink:href="#av"/><use transform="matrix(0.05,0,0,0.05,58.95,0)" xlink:href="#aC"/></g><g id="f"><use transform="matrix(0.05,0,0,0.05,0,0)" xlink:href="#at"/><use transform="matrix(0.05,0,0,0.05,5,0)" xlink:href="#aq"/></g><use transform="matrix(0.05,0,0,0.05,0,0)" xlink:href="#as" id="g"/><path fill="#333" d="M177-190C167-65 218 103 67 71c-23-6-38-20-44-43l32-5c15 47 100 32 89-28v-30C133-14 115 1 83 1 29 1 15-40 15-95c0-56 16-97 71-98 29-1 48 16 59 35 1-10 0-23 2-32h30zM94-22c36 0 50-32 50-73 0-42-14-75-50-75-39 0-46 34-46 75s6 73 46 73" id="aD"/><path fill="#333" d="M108 0H70L1-190h34L89-25l56-165h34" id="aE"/><g id="h"><use transform="matrix(0.05,0,0,0.05,0,0)" xlink:href="#aD"/><use transform="matrix(0.05,0,0,0.05,10,0)" xlink:href="#au"/><use transform="matrix(0.05,0,0,0.05,13.949999999999998,0)" xlink:href="#aE"/><use transform="matrix(0.05,0,0,0.05,22.95,0)" xlink:href="#av"/><use transform="matrix(0.05,0,0,0.05,32.95,0)" xlink:href="#aw"/></g><g id="i"><use transform="matrix(0.05,0,0,0.05,0,0)" xlink:href="#ar"/><use transform="matrix(0.05,0,0,0.05,10,0)" xlink:href="#av"/><use transform="matrix(0.05,0,0,0.05,20,0)" xlink:href="#ay"/><use transform="matrix(0.05,0,0,0.05,25.950000000000003,0)" xlink:href="#ax"/><use transform="matrix(0.05,0,0,0.05,34.95,0)" xlink:href="#aq"/><use transform="matrix(0.05,0,0,0.05,44.95,0)" xlink:href="#aw"/></g><path d="M30-248c87 1 191-15 191 75 0 78-77 80-158 76V0H30v-248zm33 125c57 0 124 11 124-50 0-59-68-47-124-48v98" id="aF"/><path d="M141-36C126-15 110 5 73 4 37 3 15-17 15-53c-1-64 63-63 125-63 3-35-9-54-41-54-24 1-41 7-42 31l-33-3c5-37 33-52 76-52 45 0 72 20 72 64v82c-1 20 7 32 28 27v20c-31 9-61-2-59-35zM48-53c0 20 12 33 32 33 41-3 63-29 60-74-43 2-92-5-92 41" id="aG"/><path d="M24-231v-30h32v30H24zM24 0v-190h32V0H24" id="aH"/><path d="M117-194c89-4 53 116 60 194h-32v-121c0-31-8-49-39-48C34-167 62-67 57 0H25l-1-190h30c1 10-1 24 2 32 11-22 29-35 61-36" id="aI"/><path d="M0 4l72-265h28L28 4H0" id="aJ"/><path d="M27 0v-27h64v-190l-56 39v-29l58-41h29v221h61V0H27" id="aK"/><g id="j"><use transform="matrix(0.05,0,0,0.05,0,0)" xlink:href="#aF"/><use transform="matrix(0.05,0,0,0.05,12,0)" xlink:href="#aG"/><use transform="matrix(0.05,0,0,0.05,22,0)" xlink:href="#an"/><use transform="matrix(0.05,0,0,0.05,27,0)" xlink:href="#aH"/><use transform="matrix(0.05,0,0,0.05,30.950000000000003,0)" xlink:href="#al"/><use transform="matrix(0.05,0,0,0.05,40.95,0)" xlink:href="#aI"/><use transform="matrix(0.05,0,0,0.05,50.95,0)" xlink:href="#an"/><use transform="matrix(0.05,0,0,0.05,55.95,0)" xlink:href="#aJ"/><use transform="matrix(0.05,0,0,0.05,60.95,0)" xlink:href="#aK"/></g><path fill="#333" d="M30 0v-248h187v28H63v79h144v27H63v87h162V0H30" id="aL"/><path fill="#333" d="M33 0v-248h34V0H33" id="aM"/><path fill="#333" d="M30-248c118-7 216 8 213 122C240-48 200 0 122 0H30v-248zM63-27c89 8 146-16 146-99s-60-101-146-95v194" id="aN"/><path fill="#333" d="M33-154v-36h34v36H33zM33 0v-36h34V0H33" id="aO"/><path fill="#333" d="M160-131c35 5 61 23 61 61C221 17 115-2 30 0v-248c76 3 177-17 177 60 0 33-19 50-47 57zm-97-11c50-1 110 9 110-42 0-47-63-36-110-37v79zm0 115c55-2 124 14 124-45 0-56-70-42-124-44v89" id="aP"/><g id="k"><use transform="matrix(0.05,0,0,0.05,0,0)" xlink:href="#aL"/><use transform="matrix(0.05,0,0,0.05,12,0)" xlink:href="#aM"/><use transform="matrix(0.05,0,0,0.05,17,0)" xlink:href="#aN"/><use transform="matrix(0.05,0,0,0.05,29.950000000000003,0)" xlink:href="#aO"/><use transform="matrix(0.05,0,0,0.05,34.95,0)" xlink:href="#aP"/></g><path d="M140-251c81 0 123 46 123 126C263-46 219 4 140 4 59 4 17-45 17-125s42-126 123-126zm0 227c63 0 89-41 89-101s-29-99-89-99c-61 0-89 39-89 99S79-25 140-24" id="aQ"/><g id="l"><use transform="matrix(0.048148148148148155,0,0,0.048148148148148155,0,0)" xlink:href="#aQ"/><use transform="matrix(0.048148148148148155,0,0,0.048148148148148155,13.481481481481483,0)" xlink:href="#aI"/><use transform="matrix(0.048148148148148155,0,0,0.048148148148148155,23.111111111111114,0)" xlink:href="#al"/></g><path d="M100-194c62-1 85 37 85 99 1 63-27 99-86 99S16-35 15-95c0-66 28-99 85-99zM99-20c44 1 53-31 53-75 0-43-8-75-51-75s-53 32-53 75 10 74 51 75" id="aR"/><path d="M101-234c-31-9-42 10-38 44h38v23H63V0H32v-167H5v-23h27c-7-52 17-82 69-68v24" id="aS"/><g id="m"><use transform="matrix(0.048148148148148155,0,0,0.048148148148148155,0,0)" xlink:href="#aR"/><use transform="matrix(0.048148148148148155,0,0,0.048148148148148155,9.629629629629632,0)" xlink:href="#aS"/></g><path d="M106-169C34-169 62-67 57 0H25v-261h32l-1 103c12-21 28-36 61-36 89 0 53 116 60 194h-32v-121c2-32-8-49-39-48" id="aT"/><path d="M135-143c-3-34-86-38-87 0 15 53 115 12 119 90S17 21 10-45l28-5c4 36 97 45 98 0-10-56-113-15-118-90-4-57 82-63 122-42 12 7 21 19 24 35" id="aU"/><g id="n"><use transform="matrix(0.048148148148148155,0,0,0.048148148148148155,0,0)" xlink:href="#an"/><use transform="matrix(0.048148148148148155,0,0,0.048148148148148155,4.814814814814816,0)" xlink:href="#aT"/><use transform="matrix(0.048148148148148155,0,0,0.048148148148148155,14.444444444444446,0)" xlink:href="#al"/><use transform="matrix(0.048148148148148155,0,0,0.048148148148148155,24.074074074074076,0)" xlink:href="#aU"/><use transform="matrix(0.048148148148148155,0,0,0.048148148148148155,32.74074074074075,0)" xlink:href="#al"/></g><path d="M101-251c82-7 93 87 43 132L82-64C71-53 59-42 53-27h129V0H18c2-99 128-94 128-182 0-28-16-43-45-43s-46 15-49 41l-32-3c6-41 34-60 81-64" id="aV"/><use transform="matrix(0.048148148148148155,0,0,0.048148148148148155,0,0)" xlink:href="#aV" id="o"/><path d="M115-194c55 1 70 41 70 98S169 2 115 4C84 4 66-9 55-30l1 105H24l-1-265h31l2 30c10-21 28-34 59-34zm-8 174c40 0 45-34 45-75s-6-73-45-74c-42 0-51 32-51 76 0 43 10 73 51 73" id="aW"/><g id="p"><use transform="matrix(0.048148148148148155,0,0,0.048148148148148155,0,0)" xlink:href="#aW"/><use transform="matrix(0.048148148148148155,0,0,0.048148148148148155,9.629629629629632,0)" xlink:href="#aG"/><use transform="matrix(0.048148148148148155,0,0,0.048148148148148155,19.259259259259263,0)" xlink:href="#an"/><use transform="matrix(0.048148148148148155,0,0,0.048148148148148155,24.07407407407408,0)" xlink:href="#aH"/><use transform="matrix(0.048148148148148155,0,0,0.048148148148148155,27.877777777777784,0)" xlink:href="#al"/><use transform="matrix(0.048148148148148155,0,0,0.048148148148148155,37.50740740740741,0)" xlink:href="#aI"/><use transform="matrix(0.048148148148148155,0,0,0.048148148148148155,47.13703703703705,0)" xlink:href="#an"/><use transform="matrix(0.048148148148148155,0,0,0.048148148148148155,51.951851851851856,0)" xlink:href="#aU"/></g><g id="q"><use transform="matrix(0.048148148148148155,0,0,0.048148148148148155,0,0)" xlink:href="#aH"/><use transform="matrix(0.048148148148148155,0,0,0.048148148148148155,3.8037037037037043,0)" xlink:href="#aU"/></g><path d="M84 4C-5 8 30-112 23-190h32v120c0 31 7 50 39 49 72-2 45-101 50-169h31l1 190h-30c-1-10 1-25-2-33-11 22-28 36-60 37" id="aX"/><path d="M85-194c31 0 48 13 60 33l-1-100h32l1 261h-30c-2-10 0-23-3-31C134-8 116 4 85 4 32 4 16-35 15-94c0-66 23-100 70-100zm9 24c-40 0-46 34-46 75 0 40 6 74 45 74 42 0 51-32 51-76 0-42-9-74-50-73" id="aY"/><g id="r"><use transform="matrix(0.048148148148148155,0,0,0.048148148148148155,0,0)" xlink:href="#aX"/><use transform="matrix(0.048148148148148155,0,0,0.048148148148148155,9.629629629629632,0)" xlink:href="#aW"/><use transform="matrix(0.048148148148148155,0,0,0.048148148148148155,19.259259259259263,0)" xlink:href="#aY"/><use transform="matrix(0.048148148148148155,0,0,0.048148148148148155,28.888888888888893,0)" xlink:href="#aG"/><use transform="matrix(0.048148148148148155,0,0,0.048148148148148155,38.518518518518526,0)" xlink:href="#an"/><use transform="matrix(0.048148148148148155,0,0,0.048148148148148155,43.33333333333334,0)" xlink:href="#al"/><use transform="matrix(0.048148148148148155,0,0,0.048148148148148155,52.96296296296297,0)" xlink:href="#aY"/></g><path d="M206 0h-36l-40-164L89 0H53L-1-190h32L70-26l43-164h34l41 164 42-164h31" id="aZ"/><g id="s"><use transform="matrix(0.048148148148148155,0,0,0.048148148148148155,0,0)" xlink:href="#aZ"/><use transform="matrix(0.048148148148148155,0,0,0.048148148148148155,12.470370370370372,0)" xlink:href="#aH"/><use transform="matrix(0.048148148148148155,0,0,0.048148148148148155,16.274074074074075,0)" xlink:href="#an"/><use transform="matrix(0.048148148148148155,0,0,0.048148148148148155,21.088888888888892,0)" xlink:href="#aT"/></g><use transform="matrix(0.048148148148148155,0,0,0.048148148148148155,0,0)" xlink:href="#aG" id="t"/><g id="u"><use transform="matrix(0.048148148148148155,0,0,0.048148148148148155,0,0)" xlink:href="#aI"/><use transform="matrix(0.048148148148148155,0,0,0.048148148148148155,9.629629629629632,0)" xlink:href="#al"/><use transform="matrix(0.048148148148148155,0,0,0.048148148148148155,19.259259259259263,0)" xlink:href="#aZ"/></g><path d="M30 0v-248h187v28H63v79h144v27H63v87h162V0H30" id="ba"/><path d="M114-163C36-179 61-72 57 0H25l-1-190h30c1 12-1 29 2 39 6-27 23-49 58-41v29" id="bb"/><path d="M24 0v-261h32V0H24" id="bc"/><g id="v"><use transform="matrix(0.048148148148148155,0,0,0.048148148148148155,0,0)" xlink:href="#ba"/><use transform="matrix(0.048148148148148155,0,0,0.048148148148148155,11.555555555555557,0)" xlink:href="#am"/><use transform="matrix(0.048148148148148155,0,0,0.048148148148148155,20.222222222222225,0)" xlink:href="#an"/><use transform="matrix(0.048148148148148155,0,0,0.048148148148148155,25.03703703703704,0)" xlink:href="#al"/><use transform="matrix(0.048148148148148155,0,0,0.048148148148148155,34.66666666666667,0)" xlink:href="#bb"/><use transform="matrix(0.048148148148148155,0,0,0.048148148148148155,40.3962962962963,0)" xlink:href="#aI"/><use transform="matrix(0.048148148148148155,0,0,0.048148148148148155,50.02592592592593,0)" xlink:href="#aG"/><use transform="matrix(0.048148148148148155,0,0,0.048148148148148155,59.655555555555566,0)" xlink:href="#bc"/></g><path d="M33 0v-248h34V0H33" id="bd"/><path d="M30-248c118-7 216 8 213 122C240-48 200 0 122 0H30v-248zM63-27c89 8 146-16 146-99s-60-101-146-95v194" id="be"/><g id="w"><use transform="matrix(0.048148148148148155,0,0,0.048148148148148155,0,0)" xlink:href="#ba"/><use transform="matrix(0.048148148148148155,0,0,0.048148148148148155,11.555555555555557,0)" xlink:href="#bd"/><use transform="matrix(0.048148148148148155,0,0,0.048148148148148155,16.370370370370374,0)" xlink:href="#be"/></g><path fill="#333" d="M169-182c-1-43-94-46-97-3 18 66 151 10 154 114 3 95-165 93-204 36-6-8-10-19-12-30l50-8c3 46 112 56 116 5-17-69-150-10-154-114-4-87 153-88 188-35 5 8 8 18 10 28" id="bf"/><path fill="#333" d="M115-3C79 11 28 4 28-45v-112H4v-33h27l15-45h31v45h36v33H77v99c-1 23 16 31 38 25v30" id="bg"/><path fill="#333" d="M133-34C117-15 103 5 69 4 32 3 11-16 11-54c-1-60 55-63 116-61 1-26-3-47-28-47-18 1-26 9-28 27l-52-2c7-38 36-58 82-57s74 22 75 68l1 82c-1 14 12 18 25 15v27c-30 8-71 5-69-32zm-48 3c29 0 43-24 42-57-32 0-66-3-65 30 0 17 8 27 23 27" id="bh"/><path fill="#333" d="M135-150c-39-12-60 13-60 57V0H25l-1-190h47c2 13-1 29 3 40 6-28 27-53 61-41v41" id="bi"/><g id="x"><use transform="matrix(0.05,0,0,0.05,0,0)" xlink:href="#bf"/><use transform="matrix(0.05,0,0,0.05,12,0)" xlink:href="#bg"/><use transform="matrix(0.05,0,0,0.05,17.95,0)" xlink:href="#bh"/><use transform="matrix(0.05,0,0,0.05,27.950000000000003,0)" xlink:href="#bi"/><use transform="matrix(0.05,0,0,0.05,34.95,0)" xlink:href="#bg"/></g><path fill="#333" d="M185-48c-13 30-37 53-82 52C43 2 14-33 14-96s30-98 90-98c62 0 83 45 84 108H66c0 31 8 55 39 56 18 0 30-7 34-22zm-45-69c5-46-57-63-70-21-2 6-4 13-4 21h74" id="bj"/><g id="y"><use transform="matrix(0.05,0,0,0.05,0,0)" xlink:href="#bf"/><use transform="matrix(0.05,0,0,0.05,12,0)" xlink:href="#bg"/><use transform="matrix(0.05,0,0,0.05,17.95,0)" xlink:href="#bh"/><use transform="matrix(0.05,0,0,0.05,27.950000000000003,0)" xlink:href="#bg"/><use transform="matrix(0.05,0,0,0.05,33.9,0)" xlink:href="#bj"/></g><path fill="#333" d="M205 0l-28-72H64L36 0H1l101-248h38L239 0h-34zm-38-99l-47-123c-12 45-31 82-46 123h93" id="bk"/><g id="z"><use transform="matrix(0.05,0,0,0.05,0,0)" xlink:href="#aL"/><use transform="matrix(0.05,0,0,0.05,12,0)" xlink:href="#aM"/><use transform="matrix(0.05,0,0,0.05,17,0)" xlink:href="#aN"/><use transform="matrix(0.05,0,0,0.05,29.950000000000003,0)" xlink:href="#aO"/><use transform="matrix(0.05,0,0,0.05,34.95,0)" xlink:href="#bk"/></g><g id="A"><use transform="matrix(0.05,0,0,0.05,0,0)" xlink:href="#aF"/><use transform="matrix(0.05,0,0,0.05,12,0)" xlink:href="#al"/><use transform="matrix(0.05,0,0,0.05,22,0)" xlink:href="#bb"/><use transform="matrix(0.05,0,0,0.05,27.950000000000003,0)" xlink:href="#aU"/><use transform="matrix(0.05,0,0,0.05,36.95,0)" xlink:href="#aR"/><use transform="matrix(0.05,0,0,0.05,46.95,0)" xlink:href="#aI"/></g><path fill="#333" d="M240 0l2-218c-23 76-54 145-80 218h-23L58-218 59 0H30v-248h44l77 211c21-75 51-140 76-211h43V0h-30" id="bl"/><path fill="#333" d="M212-179c-10-28-35-45-73-45-59 0-87 40-87 99 0 60 29 101 89 101 43 0 62-24 78-52l27 14C228-24 195 4 139 4 59 4 22-46 18-125c-6-104 99-153 187-111 19 9 31 26 39 46" id="bm"/><path fill="#333" d="M197 0v-115H63V0H30v-248h33v105h134v-105h34V0h-34" id="bn"/><g id="B"><use transform="matrix(0.05,0,0,0.05,0,0)" xlink:href="#bl"/><use transform="matrix(0.05,0,0,0.05,14.950000000000001,0)" xlink:href="#bk"/><use transform="matrix(0.05,0,0,0.05,25.6,0)" xlink:href="#ao"/><use transform="matrix(0.05,0,0,0.05,36.550000000000004,0)" xlink:href="#bm"/><use transform="matrix(0.05,0,0,0.05,49.50000000000001,0)" xlink:href="#bn"/></g><path d="M63-220v92h138v28H63V0H30v-248h175v28H63" id="bo"/><path d="M115-194c53 0 69 39 70 98 0 66-23 100-70 100C84 3 66-7 56-30L54 0H23l1-261h32v101c10-23 28-34 59-34zm-8 174c40 0 45-34 45-75 0-40-5-75-45-74-42 0-51 32-51 76 0 43 10 73 51 73" id="bp"/><path d="M63-70H37l-4-178h34zM33 0v-35h34V0H33" id="bq"/><g id="C"><use transform="matrix(0.048148148148148155,0,0,0.048148148148148155,0,0)" xlink:href="#bo"/><use transform="matrix(0.048148148148148155,0,0,0.048148148148148155,10.544444444444446,0)" xlink:href="#aR"/><use transform="matrix(0.048148148148148155,0,0,0.048148148148148155,20.174074074074078,0)" xlink:href="#bb"/><use transform="matrix(0.048148148148148155,0,0,0.048148148148148155,25.90370370370371,0)" xlink:href="#bp"/><use transform="matrix(0.048148148148148155,0,0,0.048148148148148155,35.53333333333334,0)" xlink:href="#aH"/><use transform="matrix(0.048148148148148155,0,0,0.048148148148148155,39.33703703703704,0)" xlink:href="#aY"/><use transform="matrix(0.048148148148148155,0,0,0.048148148148148155,48.966666666666676,0)" xlink:href="#aY"/><use transform="matrix(0.048148148148148155,0,0,0.048148148148148155,58.5962962962963,0)" xlink:href="#al"/><use transform="matrix(0.048148148148148155,0,0,0.048148148148148155,68.22592592592594,0)" xlink:href="#aI"/><use transform="matrix(0.048148148148148155,0,0,0.048148148148148155,77.85555555555557,0)" xlink:href="#bq"/></g><path fill="#333" d="M24 0v-248h195v40H76v63h132v40H76v65h150V0H24" id="br"/><path fill="#333" d="M135-194c87-1 58 113 63 194h-50c-7-57 23-157-34-157-59 0-34 97-39 157H25l-1-190h47c2 12-1 28 3 38 12-26 28-41 61-42" id="bs"/><path fill="#333" d="M88-194c31-1 46 15 58 34l-1-101h50l1 261h-48c-2-10 0-23-3-31C134-8 116 4 84 4 32 4 16-41 15-95c0-56 19-97 73-99zm17 164c33 0 40-30 41-66 1-37-9-64-41-64s-38 30-39 65c0 43 13 65 39 65" id="bt"/><g id="D"><use transform="matrix(0.05,0,0,0.05,0,0)" xlink:href="#br"/><use transform="matrix(0.05,0,0,0.05,12,0)" xlink:href="#bs"/><use transform="matrix(0.05,0,0,0.05,22.950000000000003,0)" xlink:href="#bt"/></g><path d="M185-189c-5-48-123-54-124 2 14 75 158 14 163 119 3 78-121 87-175 55-17-10-28-26-33-46l33-7c5 56 141 63 141-1 0-78-155-14-162-118-5-82 145-84 179-34 5 7 8 16 11 25" id="bu"/><path d="M96-169c-40 0-48 33-48 73s9 75 48 75c24 0 41-14 43-38l32 2c-6 37-31 61-74 61-59 0-76-41-82-99-10-93 101-131 147-64 4 7 5 14 7 22l-32 3c-4-21-16-35-41-35" id="bv"/><g id="E"><use transform="matrix(0.048148148148148155,0,0,0.048148148148148155,0,0)" xlink:href="#bu"/><use transform="matrix(0.048148148148148155,0,0,0.048148148148148155,11.555555555555557,0)" xlink:href="#aH"/><use transform="matrix(0.048148148148148155,0,0,0.048148148148148155,15.359259259259261,0)" xlink:href="#aI"/><use transform="matrix(0.048148148148148155,0,0,0.048148148148148155,24.988888888888894,0)" xlink:href="#bv"/><use transform="matrix(0.048148148148148155,0,0,0.048148148148148155,33.655555555555566,0)" xlink:href="#al"/></g><path d="M210-169c-67 3-38 105-44 169h-31v-121c0-29-5-50-35-48C34-165 62-65 56 0H25l-1-190h30c1 10-1 24 2 32 10-44 99-50 107 0 11-21 27-35 58-36 85-2 47 119 55 194h-31v-121c0-29-5-49-35-48" id="bw"/><g id="F"><use transform="matrix(0.048148148148148155,0,0,0.048148148148148155,0,0)" xlink:href="#bw"/><use transform="matrix(0.048148148148148155,0,0,0.048148148148148155,14.396296296296299,0)" xlink:href="#aX"/><use transform="matrix(0.048148148148148155,0,0,0.048148148148148155,24.025925925925932,0)" xlink:href="#bc"/><use transform="matrix(0.048148148148148155,0,0,0.048148148148148155,27.829629629629633,0)" xlink:href="#an"/><use transform="matrix(0.048148148148148155,0,0,0.048148148148148155,32.64444444444445,0)" xlink:href="#aH"/><use transform="matrix(0.048148148148148155,0,0,0.048148148148148155,36.44814814814816,0)" xlink:href="#aW"/><use transform="matrix(0.048148148148148155,0,0,0.048148148148148155,46.07777777777779,0)" xlink:href="#bc"/><use transform="matrix(0.048148148148148155,0,0,0.048148148148148155,49.88148148148149,0)" xlink:href="#al"/></g><g id="G"><use transform="matrix(0.048148148148148155,0,0,0.048148148148148155,0,0)" xlink:href="#ba"/><use transform="matrix(0.048148148148148155,0,0,0.048148148148148155,11.555555555555557,0)" xlink:href="#bd"/><use transform="matrix(0.048148148148148155,0,0,0.048148148148148155,16.370370370370374,0)" xlink:href="#be"/><use transform="matrix(0.048148148148148155,0,0,0.048148148148148155,28.840740740740745,0)" xlink:href="#aU"/></g><path d="M47-170H22l-4-78h33" id="bx"/><g id="H"><use transform="matrix(0.048148148148148155,0,0,0.048148148148148155,0,0)" xlink:href="#aG"/><use transform="matrix(0.048148148148148155,0,0,0.048148148148148155,9.629629629629632,0)" xlink:href="#bb"/><use transform="matrix(0.048148148148148155,0,0,0.048148148148148155,15.359259259259261,0)" xlink:href="#al"/><use transform="matrix(0.048148148148148155,0,0,0.048148148148148155,24.988888888888894,0)" xlink:href="#aI"/><use transform="matrix(0.048148148148148155,0,0,0.048148148148148155,34.61851851851853,0)" xlink:href="#bx"/><use transform="matrix(0.048148148148148155,0,0,0.048148148148148155,37.8925925925926,0)" xlink:href="#an"/></g><g id="I"><use transform="matrix(0.048148148148148155,0,0,0.048148148148148155,0,0)" xlink:href="#aG"/><use transform="matrix(0.048148148148148155,0,0,0.048148148148148155,9.629629629629632,0)" xlink:href="#bc"/><use transform="matrix(0.048148148148148155,0,0,0.048148148148148155,13.433333333333335,0)" xlink:href="#bc"/><use transform="matrix(0.048148148148148155,0,0,0.048148148148148155,17.23703703703704,0)" xlink:href="#aR"/><use transform="matrix(0.048148148148148155,0,0,0.048148148148148155,26.866666666666678,0)" xlink:href="#aZ"/><use transform="matrix(0.048148148148148155,0,0,0.048148148148148155,39.33703703703705,0)" xlink:href="#al"/><use transform="matrix(0.048148148148148155,0,0,0.048148148148148155,48.96666666666668,0)" xlink:href="#aY"/></g><g id="J"><use transform="matrix(0.048148148148148155,0,0,0.048148148148148155,0,0)" xlink:href="#aR"/><use transform="matrix(0.048148148148148155,0,0,0.048148148148148155,9.629629629629632,0)" xlink:href="#aI"/></g><path d="M68-38c1 34 0 65-14 84H32c9-13 17-26 17-46H33v-38h35" id="by"/><g id="K"><use transform="matrix(0.048148148148148155,0,0,0.048148148148148155,0,0)" xlink:href="#aW"/><use transform="matrix(0.048148148148148155,0,0,0.048148148148148155,9.629629629629632,0)" xlink:href="#al"/><use transform="matrix(0.048148148148148155,0,0,0.048148148148148155,19.259259259259263,0)" xlink:href="#bb"/><use transform="matrix(0.048148148148148155,0,0,0.048148148148148155,24.988888888888894,0)" xlink:href="#aU"/><use transform="matrix(0.048148148148148155,0,0,0.048148148148148155,33.655555555555566,0)" xlink:href="#aR"/><use transform="matrix(0.048148148148148155,0,0,0.048148148148148155,43.2851851851852,0)" xlink:href="#aI"/><use transform="matrix(0.048148148148148155,0,0,0.048148148148148155,52.91481481481483,0)" xlink:href="#by"/></g><g id="L"><use transform="matrix(0.048148148148148155,0,0,0.048148148148148155,0,0)" xlink:href="#bv"/><use transform="matrix(0.048148148148148155,0,0,0.048148148148148155,8.666666666666668,0)" xlink:href="#bb"/><use transform="matrix(0.048148148148148155,0,0,0.048148148148148155,14.396296296296299,0)" xlink:href="#al"/><use transform="matrix(0.048148148148148155,0,0,0.048148148148148155,24.025925925925932,0)" xlink:href="#aG"/><use transform="matrix(0.048148148148148155,0,0,0.048148148148148155,33.655555555555566,0)" xlink:href="#an"/><use transform="matrix(0.048148148148148155,0,0,0.048148148148148155,38.47037037037038,0)" xlink:href="#al"/></g><g id="M"><use transform="matrix(0.048148148148148155,0,0,0.048148148148148155,0,0)" xlink:href="#aR"/><use transform="matrix(0.048148148148148155,0,0,0.048148148148148155,9.629629629629632,0)" xlink:href="#aI"/><use transform="matrix(0.048148148148148155,0,0,0.048148148148148155,19.259259259259263,0)" xlink:href="#al"/><use transform="matrix(0.048148148148148155,0,0,0.048148148148148155,28.888888888888893,0)" xlink:href="#by"/></g><g id="N"><use transform="matrix(0.048148148148148155,0,0,0.048148148148148155,0,0)" xlink:href="#aG"/><use transform="matrix(0.048148148148148155,0,0,0.048148148148148155,9.629629629629632,0)" xlink:href="#aI"/><use transform="matrix(0.048148148148148155,0,0,0.048148148148148155,19.259259259259263,0)" xlink:href="#aY"/></g><g id="O"><use transform="matrix(0.048148148148148155,0,0,0.048148148148148155,0,0)" xlink:href="#aU"/><use transform="matrix(0.048148148148148155,0,0,0.048148148148148155,8.666666666666668,0)" xlink:href="#al"/><use transform="matrix(0.048148148148148155,0,0,0.048148148148148155,18.296296296296298,0)" xlink:href="#an"/></g><g id="P"><use transform="matrix(0.048148148148148155,0,0,0.048148148148148155,0,0)" xlink:href="#aG"/><use transform="matrix(0.048148148148148155,0,0,0.048148148148148155,9.629629629629632,0)" xlink:href="#aU"/></g><g id="Q"><use transform="matrix(0.048148148148148155,0,0,0.048148148148148155,0,0)" xlink:href="#aW"/><use transform="matrix(0.048148148148148155,0,0,0.048148148148148155,9.629629629629632,0)" xlink:href="#aR"/><use transform="matrix(0.048148148148148155,0,0,0.048148148148148155,19.259259259259263,0)" xlink:href="#aU"/><use transform="matrix(0.048148148148148155,0,0,0.048148148148148155,27.92592592592593,0)" xlink:href="#aU"/><use transform="matrix(0.048148148148148155,0,0,0.048148148148148155,36.592592592592595,0)" xlink:href="#aH"/><use transform="matrix(0.048148148148148155,0,0,0.048148148148148155,40.3962962962963,0)" xlink:href="#bp"/><use transform="matrix(0.048148148148148155,0,0,0.048148148148148155,50.02592592592593,0)" xlink:href="#bc"/><use transform="matrix(0.048148148148148155,0,0,0.048148148148148155,53.829629629629636,0)" xlink:href="#al"/></g><g id="R"><use transform="matrix(0.048148148148148155,0,0,0.048148148148148155,0,0)" xlink:href="#aY"/><use transform="matrix(0.048148148148148155,0,0,0.048148148148148155,9.629629629629632,0)" xlink:href="#aX"/><use transform="matrix(0.048148148148148155,0,0,0.048148148148148155,19.259259259259263,0)" xlink:href="#aW"/><use transform="matrix(0.048148148148148155,0,0,0.048148148148148155,28.888888888888893,0)" xlink:href="#bc"/><use transform="matrix(0.048148148148148155,0,0,0.048148148148148155,32.6925925925926,0)" xlink:href="#aH"/><use transform="matrix(0.048148148148148155,0,0,0.048148148148148155,36.4962962962963,0)" xlink:href="#bv"/><use transform="matrix(0.048148148148148155,0,0,0.048148148148148155,45.162962962962965,0)" xlink:href="#aG"/><use transform="matrix(0.048148148148148155,0,0,0.048148148148148155,54.7925925925926,0)" xlink:href="#an"/><use transform="matrix(0.048148148148148155,0,0,0.048148148148148155,59.607407407407415,0)" xlink:href="#al"/></g><g id="S"><use transform="matrix(0.05,0,0,0.05,0,0)" xlink:href="#aF"/><use transform="matrix(0.05,0,0,0.05,12,0)" xlink:href="#aG"/><use transform="matrix(0.05,0,0,0.05,22,0)" xlink:href="#an"/><use transform="matrix(0.05,0,0,0.05,27,0)" xlink:href="#aH"/><use transform="matrix(0.05,0,0,0.05,30.950000000000003,0)" xlink:href="#al"/><use transform="matrix(0.05,0,0,0.05,40.95,0)" xlink:href="#aI"/><use transform="matrix(0.05,0,0,0.05,50.95,0)" xlink:href="#an"/><use transform="matrix(0.05,0,0,0.05,55.95,0)" xlink:href="#aJ"/><use transform="matrix(0.05,0,0,0.05,60.95,0)" xlink:href="#aV"/></g><path fill="#333" d="M238-95c0 69-44 99-111 99C63 4 22-25 22-93v-155h51v151c-1 38 19 59 55 60 90 1 49-130 58-211h52v153" id="bz"/><path fill="#333" d="M135-194c53 0 70 44 70 98 0 56-19 98-73 100-31 1-45-17-59-34 3 33 2 69 2 105H25l-1-265h48c2 10 0 23 3 31 11-24 29-35 60-35zM114-30c33 0 39-31 40-66 0-38-9-64-40-64-56 0-55 130 0 130" id="bA"/><g id="T"><use transform="matrix(0.06790123456790124,0,0,0.06790123456790124,0,0)" xlink:href="#bz"/><use transform="matrix(0.06790123456790124,0,0,0.06790123456790124,17.58641975308642,0)" xlink:href="#bA"/><use transform="matrix(0.06790123456790124,0,0,0.06790123456790124,32.45679012345679,0)" xlink:href="#bt"/><use transform="matrix(0.06790123456790124,0,0,0.06790123456790124,47.327160493827165,0)" xlink:href="#bh"/><use transform="matrix(0.06790123456790124,0,0,0.06790123456790124,60.90740740740741,0)" xlink:href="#bg"/><use transform="matrix(0.06790123456790124,0,0,0.06790123456790124,68.98765432098766,0)" xlink:href="#bj"/></g><path fill="#333" d="M137-138c1-29-70-34-71-4 15 46 118 7 119 86 1 83-164 76-172 9l43-7c4 19 20 25 44 25 33 8 57-30 24-41C81-84 22-81 20-136c-2-80 154-74 161-7" id="bB"/><g id="U"><use transform="matrix(0.06790123456790124,0,0,0.06790123456790124,0,0)" xlink:href="#bz"/><use transform="matrix(0.06790123456790124,0,0,0.06790123456790124,17.58641975308642,0)" xlink:href="#bB"/><use transform="matrix(0.06790123456790124,0,0,0.06790123456790124,31.16666666666667,0)" xlink:href="#bj"/></g><path fill="#333" d="M67-125c0 53 21 87 73 88 37 1 54-22 65-47l45 17C233-25 199 4 140 4 58 4 20-42 15-125 8-235 124-281 211-232c18 10 29 29 36 50l-46 12c-8-25-30-41-62-41-52 0-71 34-72 86" id="bC"/><g id="V"><use transform="matrix(0.06790123456790124,0,0,0.06790123456790124,0,0)" xlink:href="#bC"/><use transform="matrix(0.06790123456790124,0,0,0.06790123456790124,17.58641975308642,0)" xlink:href="#bh"/><use transform="matrix(0.06790123456790124,0,0,0.06790123456790124,31.16666666666667,0)" xlink:href="#bB"/><use transform="matrix(0.06790123456790124,0,0,0.06790123456790124,44.74691358024692,0)" xlink:href="#bj"/></g><path fill="#333" d="M160-152l-12 59h37v26h-43L128 0h-28l14-67H60L46 0H20l13-67H6v-26h33l13-59H15v-26h42l15-67h27l-15 67h54l15-67h27l-14 67h28v26h-34zm-81 0L66-93h55l12-59H79" id="bD"/><path fill="#333" d="M139-81c0-46-55-55-73-27H18l9-140h149v37H72l-4 63c44-38 133-4 122 66C201 21 21 35 11-62l49-4c5 18 15 30 39 30 26 0 40-18 40-45" id="bE"/><g id="W"><use transform="matrix(0.06790123456790124,0,0,0.06790123456790124,0,0)" xlink:href="#bD"/><use transform="matrix(0.06790123456790124,0,0,0.06790123456790124,13.580246913580249,0)" xlink:href="#bE"/></g><path fill="#333" d="M199 0l-22-63H83L61 0H9l90-248h61L250 0h-51zm-33-102l-36-108c-10 38-24 72-36 108h72" id="bF"/><path fill="#333" d="M190-63c-7 42-38 67-86 67-59 0-84-38-90-98-12-110 154-137 174-36l-49 2c-2-19-15-32-35-32-30 0-35 28-38 64-6 74 65 87 74 30" id="bG"/><path fill="#333" d="M25-224v-37h50v37H25zM25 0v-190h50V0H25" id="bH"/><path fill="#333" d="M110-194c64 0 96 36 96 99 0 64-35 99-97 99-61 0-95-36-95-99 0-62 34-99 96-99zm-1 164c35 0 45-28 45-65 0-40-10-65-43-65-34 0-45 26-45 65 0 36 10 65 43 65" id="bI"/><g id="X"><use transform="matrix(0.05,0,0,0.05,0,0)" xlink:href="#bF"/><use transform="matrix(0.05,0,0,0.05,12.950000000000001,0)" xlink:href="#bG"/><use transform="matrix(0.05,0,0,0.05,22.950000000000003,0)" xlink:href="#bg"/><use transform="matrix(0.05,0,0,0.05,28.900000000000002,0)" xlink:href="#bH"/><use transform="matrix(0.05,0,0,0.05,33.900000000000006,0)" xlink:href="#bI"/><use transform="matrix(0.05,0,0,0.05,44.85000000000001,0)" xlink:href="#bs"/></g><path d="M18-150v-26h174v26H18zm0 90v-26h174v26H18" id="bJ"/><use transform="matrix(0.05,0,0,0.05,0,0)" xlink:href="#bJ" id="Y"/><path d="M233-177c-1 41-23 64-60 70L243 0h-38l-65-103H63V0H30v-248c88 3 205-21 203 71zM63-129c60-2 137 13 137-47 0-61-80-42-137-45v92" id="bK"/><path d="M137 0h-34L2-248h35l83 218 83-218h36" id="bL"/><path d="M190 0L58-211 59 0H30v-248h39L202-35l-2-213h31V0h-41" id="bM"/><path d="M-5 72V49h209v23H-5" id="bN"/><path d="M232-93c-1 65-40 97-104 97C67 4 28-28 28-90v-158h33c8 89-33 224 67 224 102 0 64-133 71-224h33v155" id="bO"/><path d="M205 0l-28-72H64L36 0H1l101-248h38L239 0h-34zm-38-99l-47-123c-12 45-31 82-46 123h93" id="bP"/><path d="M240 0l2-218c-23 76-54 145-80 218h-23L58-218 59 0H30v-248h44l77 211c21-75 51-140 76-211h43V0h-30" id="bQ"/><g id="Z"><use transform="matrix(0.05,0,0,0.05,0,0)" xlink:href="#aF"/><use transform="matrix(0.05,0,0,0.05,12,0)" xlink:href="#bK"/><use transform="matrix(0.05,0,0,0.05,24.950000000000003,0)" xlink:href="#ba"/><use transform="matrix(0.05,0,0,0.05,36.95,0)" xlink:href="#bL"/><use transform="matrix(0.05,0,0,0.05,48.95,0)" xlink:href="#ba"/><use transform="matrix(0.05,0,0,0.05,60.95,0)" xlink:href="#bM"/><use transform="matrix(0.05,0,0,0.05,73.9,0)" xlink:href="#ak"/><use transform="matrix(0.05,0,0,0.05,84.85000000000001,0)" xlink:href="#bN"/><use transform="matrix(0.05,0,0,0.05,94.85000000000001,0)" xlink:href="#ba"/><use transform="matrix(0.05,0,0,0.05,106.85000000000001,0)" xlink:href="#bd"/><use transform="matrix(0.05,0,0,0.05,111.85000000000001,0)" xlink:href="#be"/><use transform="matrix(0.05,0,0,0.05,124.80000000000001,0)" xlink:href="#bN"/><use transform="matrix(0.05,0,0,0.05,134.8,0)" xlink:href="#bO"/><use transform="matrix(0.05,0,0,0.05,147.75,0)" xlink:href="#aF"/><use transform="matrix(0.05,0,0,0.05,159.75,0)" xlink:href="#be"/><use transform="matrix(0.05,0,0,0.05,172.7,0)" xlink:href="#bP"/><use transform="matrix(0.05,0,0,0.05,183.35,0)" xlink:href="#ak"/><use transform="matrix(0.05,0,0,0.05,194.29999999999998,0)" xlink:href="#ba"/><use transform="matrix(0.05,0,0,0.05,206.29999999999995,0)" xlink:href="#bu"/><use transform="matrix(0.05,0,0,0.05,218.29999999999995,0)" xlink:href="#bN"/><use transform="matrix(0.05,0,0,0.05,228.29999999999995,0)" xlink:href="#bQ"/><use transform="matrix(0.05,0,0,0.05,243.24999999999997,0)" xlink:href="#aQ"/><use transform="matrix(0.05,0,0,0.05,257.25,0)" xlink:href="#be"/><use transform="matrix(0.05,0,0,0.05,270.2,0)" xlink:href="#ba"/></g><path d="M30 0v-248h33v221h125V0H30" id="bR"/><path d="M266 0h-40l-56-210L115 0H75L2-248h35L96-30l15-64 43-154h32l59 218 59-218h35" id="bS"/><g id="aa"><use transform="matrix(0.05,0,0,0.05,0,0)" xlink:href="#bP"/><use transform="matrix(0.05,0,0,0.05,12,0)" xlink:href="#bR"/><use transform="matrix(0.05,0,0,0.05,22,0)" xlink:href="#bR"/><use transform="matrix(0.05,0,0,0.05,32,0)" xlink:href="#aQ"/><use transform="matrix(0.05,0,0,0.05,46,0)" xlink:href="#bS"/><use transform="matrix(0.05,0,0,0.05,62.95,0)" xlink:href="#bN"/><use transform="matrix(0.05,0,0,0.05,72.95,0)" xlink:href="#ba"/><use transform="matrix(0.05,0,0,0.05,84.95,0)" xlink:href="#bd"/><use transform="matrix(0.05,0,0,0.05,89.95,0)" xlink:href="#be"/><use transform="matrix(0.05,0,0,0.05,102.9,0)" xlink:href="#bN"/><use transform="matrix(0.05,0,0,0.05,112.9,0)" xlink:href="#bO"/><use transform="matrix(0.05,0,0,0.05,125.85000000000001,0)" xlink:href="#aF"/><use transform="matrix(0.05,0,0,0.05,137.85000000000002,0)" xlink:href="#be"/><use transform="matrix(0.05,0,0,0.05,150.8,0)" xlink:href="#bP"/><use transform="matrix(0.05,0,0,0.05,161.45000000000002,0)" xlink:href="#ak"/><use transform="matrix(0.05,0,0,0.05,172.4,0)" xlink:href="#ba"/><use transform="matrix(0.05,0,0,0.05,184.4,0)" xlink:href="#bu"/><use transform="matrix(0.05,0,0,0.05,196.4,0)" xlink:href="#bN"/><use transform="matrix(0.05,0,0,0.05,206.4,0)" xlink:href="#bQ"/><use transform="matrix(0.05,0,0,0.05,221.35000000000002,0)" xlink:href="#aQ"/><use transform="matrix(0.05,0,0,0.05,235.35000000000002,0)" xlink:href="#be"/><use transform="matrix(0.05,0,0,0.05,248.29999999999995,0)" xlink:href="#ba"/></g><path d="M87 75C49 33 22-17 22-94c0-76 28-126 65-167h31c-38 41-64 92-64 168S80 34 118 75H87" id="bT"/><g id="ab"><use transform="matrix(0.05,0,0,0.05,0,0)" xlink:href="#bT"/><use transform="matrix(0.05,0,0,0.05,5.95,0)" xlink:href="#bp"/><use transform="matrix(0.05,0,0,0.05,15.949999999999998,0)" xlink:href="#aX"/><use transform="matrix(0.05,0,0,0.05,25.950000000000003,0)" xlink:href="#an"/></g><g id="ac"><use transform="matrix(0.05,0,0,0.05,0,0)" xlink:href="#bw"/><use transform="matrix(0.05,0,0,0.05,14.950000000000001,0)" xlink:href="#aX"/><use transform="matrix(0.05,0,0,0.05,24.950000000000003,0)" xlink:href="#bc"/><use transform="matrix(0.05,0,0,0.05,28.900000000000002,0)" xlink:href="#an"/><use transform="matrix(0.05,0,0,0.05,33.900000000000006,0)" xlink:href="#aH"/><use transform="matrix(0.05,0,0,0.05,37.85000000000001,0)" xlink:href="#aW"/><use transform="matrix(0.05,0,0,0.05,47.85000000000001,0)" xlink:href="#bc"/><use transform="matrix(0.05,0,0,0.05,51.80000000000001,0)" xlink:href="#al"/></g><g id="ad"><use transform="matrix(0.05,0,0,0.05,0,0)" xlink:href="#ba"/><use transform="matrix(0.05,0,0,0.05,12,0)" xlink:href="#bd"/><use transform="matrix(0.05,0,0,0.05,17,0)" xlink:href="#be"/><use transform="matrix(0.05,0,0,0.05,29.950000000000003,0)" xlink:href="#bu"/></g><g id="ae"><use transform="matrix(0.05,0,0,0.05,0,0)" xlink:href="#aG"/><use transform="matrix(0.05,0,0,0.05,10,0)" xlink:href="#bb"/><use transform="matrix(0.05,0,0,0.05,15.949999999999998,0)" xlink:href="#al"/></g><path d="M33-261c38 41 65 92 65 168S71 34 33 75H2C39 34 66-17 66-93S39-220 2-261h31" id="bU"/><g id="af"><use transform="matrix(0.05,0,0,0.05,0,0)" xlink:href="#aY"/><use transform="matrix(0.05,0,0,0.05,10,0)" xlink:href="#aH"/><use transform="matrix(0.05,0,0,0.05,13.949999999999998,0)" xlink:href="#aU"/><use transform="matrix(0.05,0,0,0.05,22.95,0)" xlink:href="#aG"/><use transform="matrix(0.05,0,0,0.05,32.95,0)" xlink:href="#bp"/><use transform="matrix(0.05,0,0,0.05,42.95,0)" xlink:href="#bc"/><use transform="matrix(0.05,0,0,0.05,46.900000000000006,0)" xlink:href="#al"/><use transform="matrix(0.05,0,0,0.05,56.900000000000006,0)" xlink:href="#aY"/><use transform="matrix(0.05,0,0,0.05,66.9,0)" xlink:href="#bU"/></g><path fill="#fff" d="M30 0v-248h187v28H63v79h144v27H63v87h162V0H30" id="bV"/><path fill="#fff" d="M33 0v-248h34V0H33" id="bW"/><path fill="#fff" d="M30-248c118-7 216 8 213 122C240-48 200 0 122 0H30v-248zM63-27c89 8 146-16 146-99s-60-101-146-95v194" id="bX"/><path fill="#fff" d="M33-154v-36h34v36H33zM33 0v-36h34V0H33" id="bY"/><path fill="#fff" d="M160-131c35 5 61 23 61 61C221 17 115-2 30 0v-248c76 3 177-17 177 60 0 33-19 50-47 57zm-97-11c50-1 110 9 110-42 0-47-63-36-110-37v79zm0 115c55-2 124 14 124-45 0-56-70-42-124-44v89" id="bZ"/><g id="ag"><use transform="matrix(0.05,0,0,0.05,0,0)" xlink:href="#bV"/><use transform="matrix(0.05,0,0,0.05,12,0)" xlink:href="#bW"/><use transform="matrix(0.05,0,0,0.05,17,0)" xlink:href="#bX"/><use transform="matrix(0.05,0,0,0.05,29.950000000000003,0)" xlink:href="#bY"/><use transform="matrix(0.05,0,0,0.05,34.95,0)" xlink:href="#bZ"/></g><path d="M212-179c-10-28-35-45-73-45-59 0-87 40-87 99 0 60 29 101 89 101 43 0 62-24 78-52l27 14C228-24 195 4 139 4 59 4 22-46 18-125c-6-104 99-153 187-111 19 9 31 26 39 46" id="ca"/><path d="M197 0v-115H63V0H30v-248h33v105h134v-105h34V0h-34" id="cb"/><g id="ah"><use transform="matrix(0.05,0,0,0.05,0,0)" xlink:href="#bQ"/><use transform="matrix(0.05,0,0,0.05,14.950000000000001,0)" xlink:href="#bP"/><use transform="matrix(0.05,0,0,0.05,25.6,0)" xlink:href="#ak"/><use transform="matrix(0.05,0,0,0.05,36.550000000000004,0)" xlink:href="#ca"/><use transform="matrix(0.05,0,0,0.05,49.50000000000001,0)" xlink:href="#cb"/></g><path fill="#834187" d="M30-248c87 1 191-15 191 75 0 78-77 80-158 76V0H30v-248zm33 125c57 0 124 11 124-50 0-59-68-47-124-48v98" id="cc"/><path fill="#834187" d="M140-251c81 0 123 46 123 126C263-46 219 4 140 4 59 4 17-45 17-125s42-126 123-126zm0 227c63 0 89-41 89-101s-29-99-89-99c-61 0-89 39-89 99S79-25 140-24" id="cd"/><path fill="#834187" d="M185-189c-5-48-123-54-124 2 14 75 158 14 163 119 3 78-121 87-175 55-17-10-28-26-33-46l33-7c5 56 141 63 141-1 0-78-155-14-162-118-5-82 145-84 179-34 5 7 8 16 11 25" id="ce"/><path fill="#834187" d="M33 0v-248h34V0H33" id="cf"/><path fill="#834187" d="M160-131c35 5 61 23 61 61C221 17 115-2 30 0v-248c76 3 177-17 177 60 0 33-19 50-47 57zm-97-11c50-1 110 9 110-42 0-47-63-36-110-37v79zm0 115c55-2 124 14 124-45 0-56-70-42-124-44v89" id="cg"/><path fill="#834187" d="M30 0v-248h33v221h125V0H30" id="ch"/><path fill="#834187" d="M30 0v-248h187v28H63v79h144v27H63v87h162V0H30" id="ci"/><g id="ai"><use transform="matrix(0.05,0,0,0.05,0,0)" xlink:href="#cc"/><use transform="matrix(0.05,0,0,0.05,12,0)" xlink:href="#cd"/><use transform="matrix(0.05,0,0,0.05,26,0)" xlink:href="#ce"/><use transform="matrix(0.05,0,0,0.05,38,0)" xlink:href="#ce"/><use transform="matrix(0.05,0,0,0.05,50,0)" xlink:href="#cf"/><use transform="matrix(0.05,0,0,0.05,55,0)" xlink:href="#cg"/><use transform="matrix(0.05,0,0,0.05,67,0)" xlink:href="#ch"/><use transform="matrix(0.05,0,0,0.05,77,0)" xlink:href="#ci"/></g><path fill="#834187" d="M30-248c118-7 216 8 213 122C240-48 200 0 122 0H30v-248zM63-27c89 8 146-16 146-99s-60-101-146-95v194" id="cj"/><path fill="#834187" d="M232-93c-1 65-40 97-104 97C67 4 28-28 28-90v-158h33c8 89-33 224 67 224 102 0 64-133 71-224h33v155" id="ck"/><path fill="#834187" d="M212-179c-10-28-35-45-73-45-59 0-87 40-87 99 0 60 29 101 89 101 43 0 62-24 78-52l27 14C228-24 195 4 139 4 59 4 22-46 18-125c-6-104 99-153 187-111 19 9 31 26 39 46" id="cl"/><path fill="#834187" d="M205 0l-28-72H64L36 0H1l101-248h38L239 0h-34zm-38-99l-47-123c-12 45-31 82-46 123h93" id="cm"/><path fill="#834187" d="M127-220V0H93v-220H8v-28h204v28h-85" id="cn"/><g id="aj"><use transform="matrix(0.05,0,0,0.05,0,0)" xlink:href="#cj"/><use transform="matrix(0.05,0,0,0.05,12.950000000000001,0)" xlink:href="#ck"/><use transform="matrix(0.05,0,0,0.05,25.900000000000002,0)" xlink:href="#cc"/><use transform="matrix(0.05,0,0,0.05,37.900000000000006,0)" xlink:href="#ch"/><use transform="matrix(0.05,0,0,0.05,47.900000000000006,0)" xlink:href="#cf"/><use transform="matrix(0.05,0,0,0.05,52.900000000000006,0)" xlink:href="#cl"/><use transform="matrix(0.05,0,0,0.05,65.85000000000001,0)" xlink:href="#cm"/><use transform="matrix(0.05,0,0,0.05,76.50000000000001,0)" xlink:href="#cn"/><use transform="matrix(0.05,0,0,0.05,87.45000000000002,0)" xlink:href="#ci"/></g></defs></g></svg>