<svg xmlns="http://www.w3.org/2000/svg" xmlns:xlink="http://www.w3.org/1999/xlink" xmlns:lucid="lucid" width="3190" height="1033"><g transform="translate(1806 303)" lucid:page-tab-id="0_0"><path d="M-1806.4-2518.4h3676.8v7619.2h-3676.8z" fill="#fff"/><path d="M-1720 740H340v1220h-2060z" stroke="#fff" stroke-width="2" fill="#fff"/><use xlink:href="#a" transform="matrix(1,0,0,1,-1715,745) translate(1008.525 609.946875)"/><path d="M-1720-260h3120V740h-3120z" stroke="#fff" stroke-width="2" fill="#fff"/><use xlink:href="#a" transform="matrix(1,0,0,1,-1715,-255) translate(1538.525 493.93125)"/><path d="M-1720-1360H120v1100h-1840z" stroke="#fff" stroke-width="2" fill="#fff"/><path d="M-1372.78-140.4c0-4.42 3.58-8 8-8h368.1c4.42 0 8 3.58 8 8v44c0 4.4-3.58 8-8 8h-368.1c-4.42 0-8-3.6-8-8z" fill="none"/><use xlink:href="#b" transform="matrix(1,0,0,1,-1372.7815448816464,-148.4055262876036) translate(12.724999999999994 33.6)"/><use xlink:href="#c" transform="matrix(1,0,0,1,-1372.7815448816464,-148.4055262876036) translate(50.625 33.6)"/><use xlink:href="#d" transform="matrix(1,0,0,1,-1372.7815448816464,-148.4055262876036) translate(123.575 33.6)"/><use xlink:href="#e" transform="matrix(1,0,0,1,-1372.7815448816464,-148.4055262876036) translate(167.57500000000002 33.6)"/><use xlink:href="#f" transform="matrix(1,0,0,1,-1372.7815448816464,-148.4055262876036) translate(219.47500000000002 33.6)"/><use xlink:href="#g" transform="matrix(1,0,0,1,-1372.7815448816464,-148.4055262876036) translate(239.47500000000002 33.6)"/><use xlink:href="#h" transform="matrix(1,0,0,1,-1372.7815448816464,-148.4055262876036) translate(279.375 33.6)"/><use xlink:href="#i" transform="matrix(1,0,0,1,-1372.7815448816464,-148.4055262876036) translate(317.32500000000005 33.6)"/><path d="M786.28-252c0-4.42 3.58-8 8-8h224c4.4 0 8 3.58 8 8v44c0 4.42-3.6 8-8 8h-224c-4.42 0-8-3.58-8-8z" fill="none"/><use xlink:href="#j" transform="matrix(1,0,0,1,786.2751955446276,-260) translate(77.07499999999999 33.6)"/><path d="M-532.36 127.8c0 33.14-26.86 60-60 60s-60-26.86-60-60c0-33.13 26.86-60 60-60s60 26.87 60 60z" stroke="#333" fill="#fff"/><use xlink:href="#k" transform="matrix(1,0,0,1,-652.359928985305,67.80555555560113) translate(24.529999999999998 63.15)"/><path d="M-580.1 32h88l12 12v48h-100z" stroke="#333" fill="#fff"/><path d="M-492.1 32.48V44h11.53" stroke="#333" fill="#fff"/><use xlink:href="#l" transform="matrix(1,0,0,1,-580.0962584024328,32) translate(26.525 33.15)"/><path d="M-262.02-140.4c0-4.42 3.58-8 8-8h464.07c4.42 0 8 3.58 8 8v44c0 4.4-3.58 8-8 8h-464.07c-4.42 0-8-3.6-8-8z" stroke="#000" stroke-opacity="0" fill="#fff" fill-opacity="0"/><use xlink:href="#m" transform="matrix(1,0,0,1,-262.02328064087214,-148.4055262876036) translate(14.931481481481484 21.366666666666667)"/><use xlink:href="#n" transform="matrix(1,0,0,1,-262.02328064087214,-148.4055262876036) translate(73.62407407407409 21.366666666666667)"/><use xlink:href="#o" transform="matrix(1,0,0,1,-262.02328064087214,-148.4055262876036) translate(90.90925925925929 21.366666666666667)"/><use xlink:href="#p" transform="matrix(1,0,0,1,-262.02328064087214,-148.4055262876036) translate(158.3166666666667 21.366666666666667)"/><use xlink:href="#q" transform="matrix(1,0,0,1,-262.02328064087214,-148.4055262876036) translate(193.85000000000002 21.366666666666667)"/><use xlink:href="#r" transform="matrix(1,0,0,1,-262.02328064087214,-148.4055262876036) translate(208.29444444444448 21.366666666666667)"/><use xlink:href="#s" transform="matrix(1,0,0,1,-262.02328064087214,-148.4055262876036) translate(269.92407407407416 21.366666666666667)"/><use xlink:href="#t" transform="matrix(1,0,0,1,-262.02328064087214,-148.4055262876036) translate(289.1833333333334 21.366666666666667)"/><use xlink:href="#u" transform="matrix(1,0,0,1,-262.02328064087214,-148.4055262876036) translate(327.6055555555556 21.366666666666667)"/><use xlink:href="#v" transform="matrix(1,0,0,1,-262.02328064087214,-148.4055262876036) translate(393.9537037037037 21.366666666666667)"/><use xlink:href="#w" transform="matrix(1,0,0,1,-262.02328064087214,-148.4055262876036) translate(432.42407407407404 21.366666666666667)"/><use xlink:href="#x" transform="matrix(1,0,0,1,-262.02328064087214,-148.4055262876036) translate(27.425925925925895 42.16666666666667)"/><use xlink:href="#y" transform="matrix(1,0,0,1,-262.02328064087214,-148.4055262876036) translate(63.97037037037035 42.16666666666667)"/><use xlink:href="#z" transform="matrix(1,0,0,1,-262.02328064087214,-148.4055262876036) translate(97.62592592592591 42.16666666666667)"/><use xlink:href="#p" transform="matrix(1,0,0,1,-262.02328064087214,-148.4055262876036) translate(167.87407407407406 42.16666666666667)"/><use xlink:href="#A" transform="matrix(1,0,0,1,-262.02328064087214,-148.4055262876036) translate(203.4074074074074 42.16666666666667)"/><use xlink:href="#B" transform="matrix(1,0,0,1,-262.02328064087214,-148.4055262876036) translate(227.48148148148147 42.16666666666667)"/><use xlink:href="#C" transform="matrix(1,0,0,1,-262.02328064087214,-148.4055262876036) translate(290.9407407407407 42.16666666666667)"/><use xlink:href="#D" transform="matrix(1,0,0,1,-262.02328064087214,-148.4055262876036) translate(350.59629629629626 42.16666666666667)"/><use xlink:href="#E" transform="matrix(1,0,0,1,-262.02328064087214,-148.4055262876036) translate(368.84444444444443 42.16666666666667)"/><use xlink:href="#F" transform="matrix(1,0,0,1,-262.02328064087214,-148.4055262876036) translate(397.73333333333335 42.16666666666667)"/><path d="M-1590.16-34.2c0-4.4 3.58-8 8-8h802.86c4.42 0 8 3.6 8 8v324c0 4.42-3.58 8-8 8h-802.86c-4.42 0-8-3.58-8-8z" stroke="#333" fill="#fff"/><path d="M-1438.93 213.3c0 33.14-26.87 60-60 60-33.14 0-60-26.86-60-60 0-33.13 26.86-60 60-60 33.13 0 60 26.87 60 60z" stroke="#333" fill="#fff"/><use xlink:href="#k" transform="matrix(1,0,0,1,-1558.9349542418504,153.30555555551018) translate(24.529999999999998 63.15)"/><path d="M-1261.24-67.42c0-4.42 3.58-8 8-8h132.76c4.42 0 8 3.58 8 8v21.45c0 4.42-3.58 8-8 8h-132.76c-4.42 0-8-3.58-8-8z" stroke="#000" stroke-opacity="0" fill="#ffeca9"/><use xlink:href="#G" transform="matrix(1,0,0,1,-1261.2376212659299,-75.41945176146646) translate(29.599999999999994 21.525)"/><use xlink:href="#H" transform="matrix(1,0,0,1,-1261.2376212659299,-75.41945176146646) translate(75.5 21.525)"/><path d="M-1578.93 113.3h88l12 12v48h-100z" stroke="#333" fill="#fff"/><path d="M-1490.93 113.78v11.53h11.52" stroke="#333" fill="#fff"/><use xlink:href="#I" transform="matrix(1,0,0,1,-1578.9349542418504,113.30555555551018) translate(26.525 33.15)"/><path d="M-1236.48 83.3c0 33.14-26.86 60-60 60-33.13 0-60-26.86-60-60 0-33.13 26.87-60 60-60 33.14 0 60 26.87 60 60z" stroke="#333" fill="#fff"/><use xlink:href="#J" transform="matrix(1,0,0,1,-1356.4765720326009,23.305555555510182) translate(31.53 63.15)"/><path d="M-1376.48-16.7h88l12 12v48h-100z" stroke="#333" fill="#fff"/><path d="M-1288.48-16.22V-4.7h11.53" stroke="#333" fill="#fff"/><use xlink:href="#I" transform="matrix(1,0,0,1,-1376.4765720326009,-16.694444444489818) translate(26.525 33.15)"/><path d="M-1396.2 201.4l-.45 3.4-1.35 3.25-2.15 2.8-2.8 2.17-3.25 1.34-3.4.45h-8.2v-3h8l2.82-.36 2.5-1.05 2.2-1.68 1.66-2.18 1.04-2.5.37-2.83v-42.1h3zm18.6-116.6h-8l-2.83.38-2.5 1.04-2.2 1.67-1.67 2.17-1.04 2.5-.37 2.83v42.1h-3V95.2l.44-3.4 1.34-3.24 2.16-2.8 2.8-2.16 3.25-1.35 3.4-.44h8.2zM-1419.3 217.94l-14.28-4.63 14.27-4.63z" fill="#333"/><path d="M-1417.8 220l-20.63-6.7 20.62-6.7zm-10.93-6.7l7.92 2.58v-5.15zM-1361.83 83.3l-14.27 4.64v-9.27z" fill="#333"/><path d="M-1356.98 83.3l-20.62 6.7V76.6zm-17.62 2.58l7.9-2.57-7.9-2.57z" fill="#333"/><use xlink:href="#K" transform="matrix(1,0,0,1,-1428.9307631372255,137.50555555551017) translate(0.004999999999999005 14.4)"/><path d="M-1396.2 201.4l-.45 3.4-1.35 3.25-2.15 2.8-2.8 2.17-3.25 1.34-3.4.45h-8.2v-3h8l2.82-.36 2.5-1.04 2.2-1.68 1.66-2.18 1.04-2.5.37-2.83v-42.1h3zm18.6-116.6h-8l-2.83.38-2.5 1.04-2.2 1.67-1.67 2.17-1.04 2.5-.37 2.83v42.1h-3V95.2l.44-3.4 1.34-3.24 2.16-2.8 2.8-2.16 3.25-1.35 3.4-.44h8.2zM-1361.83 83.3l-14.27 4.64v-9.27z" fill="#333"/><path d="M-1356.98 83.3l-20.62 6.7V76.6zm-17.62 2.58l7.9-2.57-7.9-2.57zM-1419.3 217.94l-14.28-4.63 14.27-4.63z" fill="#333"/><path d="M-1417.8 220l-20.63-6.7 20.62-6.7zm-10.93-6.7l7.92 2.58v-5.15z" fill="#333"/><path d="M-106.83-71.8c0-4.4 3.58-8 8-8H50.6c4.4 0 8 3.6 8 8v30.2c0 4.42-3.6 8-8 8H-98.84c-4.42 0-8-3.58-8-8z" stroke="#000" stroke-opacity="0" fill="#ffeca9"/><use xlink:href="#L" transform="matrix(1,0,0,1,-106.83017969259438,-79.79031880656282) translate(54.599999999999994 26.15)"/><path d="M-1030.1 207.8c0 33.14-26.86 60-60 60s-60-26.86-60-60c0-33.13 26.86-60 60-60s60 26.87 60 60z" stroke="#333" fill="#fff"/><use xlink:href="#M" transform="matrix(1,0,0,1,-1150.1014684529073,147.80555555560113) translate(24.529999999999998 63.15)"/><path d="M-1170.1 107.8h88l12 12v48h-100z" stroke="#333" fill="#fff"/><path d="M-1082.1 108.28v11.53h11.52" stroke="#333" fill="#fff"/><use xlink:href="#l" transform="matrix(1,0,0,1,-1170.1014684529073,107.80555555560113) translate(26.525 33.15)"/><path d="M-827.64 77.8c0 33.14-26.87 60-60 60-33.14 0-60-26.86-60-60 0-33.13 26.86-60 60-60 33.13 0 60 26.87 60 60z" stroke="#333" fill="#fff"/><use xlink:href="#J" transform="matrix(1,0,0,1,-947.6430862436578,17.80555555560113) translate(31.53 63.15)"/><path d="M-967.64-22.2h88l12 12v48h-100z" stroke="#333" fill="#fff"/><path d="M-879.64-21.72v11.53h11.52" stroke="#333" fill="#fff"/><use xlink:href="#l" transform="matrix(1,0,0,1,-967.6430862436578,-22.19444444439887) translate(26.525 33.15)"/><path d="M-987.37 195.9l-.45 3.4-1.34 3.25-2.16 2.8-2.8 2.17-3.25 1.34-3.4.45h-8.2v-3h8l2.82-.36 2.5-1.04 2.2-1.68 1.67-2.18 1.04-2.5.37-2.83v-42.1h3zm18.6-116.6h-8l-2.83.38-2.5 1.04-2.2 1.67-1.66 2.17-1.04 2.5-.37 2.83V132h-3V89.7l.44-3.4 1.35-3.24 2.15-2.8 2.8-2.16 3.25-1.35 3.4-.44h8.22zM-953 77.8l-14.26 4.64v-9.27z" fill="#333"/><path d="M-948.14 77.8l-20.62 6.7V71.1zm-17.62 2.58l7.9-2.57-7.9-2.57zM-1010.48 212.44l-14.27-4.63 14.27-4.63z" fill="#333"/><path d="M-1008.98 214.5l-20.62-6.7 20.62-6.7zm-10.9-6.7l7.9 2.58v-5.15z" fill="#333"/><use xlink:href="#K" transform="matrix(1,0,0,1,-1020.0972773482825,132.00555555560112) translate(0.004999999999999005 14.4)"/><path d="M-454.5-29.7c0-4.4 3.57-8 8-8h802.86c4.4 0 8 3.6 8 8v324c0 4.42-3.6 8-8 8H-446.5c-4.43 0-8-3.58-8-8z" stroke="#333" fill="#fff"/><path d="M-303.28 217.8c0 33.14-26.86 60-60 60s-60-26.86-60-60c0-33.13 26.86-60 60-60s60 26.87 60 60z" stroke="#333" fill="#fff"/><use xlink:href="#k" transform="matrix(1,0,0,1,-423.2792703360128,157.80555555560113) translate(24.529999999999998 63.15)"/><path d="M-443.28 117.8h88l12 12v48h-100z" stroke="#333" fill="#fff"/><path d="M-355.28 118.28v11.53h11.52" stroke="#333" fill="#fff"/><use xlink:href="#I" transform="matrix(1,0,0,1,-443.2792703360128,117.80555555560113) translate(26.525 33.15)"/><path d="M-100.82 87.8c0 33.14-26.86 60-60 60s-60-26.86-60-60c0-33.13 26.86-60 60-60s60 26.87 60 60z" stroke="#333" fill="#fff"/><use xlink:href="#J" transform="matrix(1,0,0,1,-220.8208881267633,27.80555555560113) translate(31.53 63.15)"/><path d="M-240.82-12.2h88l12 12v48h-100z" stroke="#333" fill="#fff"/><path d="M-152.82-11.72V-.2h11.52" stroke="#333" fill="#fff"/><use xlink:href="#I" transform="matrix(1,0,0,1,-240.8208881267633,-12.194444444398869) translate(26.525 33.15)"/><path d="M-260.55 205.9l-.45 3.4-1.34 3.25-2.15 2.8-2.8 2.17-3.24 1.34-3.4.45h-8.22v-3h8l2.83-.36 2.5-1.05 2.2-1.68 1.67-2.18 1.04-2.5.37-2.83v-42.1h3zm18.6-116.6h-8l-2.82.38-2.5 1.04-2.2 1.67-1.67 2.17-1.04 2.5-.37 2.83V142h-3V99.7l.45-3.4 1.34-3.24 2.16-2.8 2.8-2.16 3.25-1.35 3.4-.44h8.2zM-283.66 222.44l-14.26-4.63 14.26-4.63z" fill="#333"/><path d="M-282.16 224.5l-20.62-6.7 20.62-6.7zm-10.9-6.7l7.9 2.58v-5.15zM-226.18 87.8l-14.26 4.64v-9.27z" fill="#333"/><path d="M-221.32 87.8l-20.62 6.7V81.1zm-17.62 2.58l7.9-2.57-7.9-2.57z" fill="#333"/><use xlink:href="#K" transform="matrix(1,0,0,1,-293.2750792313881,142.00555555560112) translate(0.004999999999999005 14.4)"/><path d="M-260.55 205.9l-.45 3.4-1.34 3.25-2.16 2.8-2.8 2.17-3.25 1.34-3.4.45h-8.2v-3h8l2.82-.36 2.5-1.04 2.2-1.68 1.67-2.18 1.04-2.5.37-2.83v-42.1h3zm18.6-116.6h-8l-2.82.38-2.5 1.04-2.2 1.67-1.67 2.17-1.04 2.5-.37 2.83V142h-3V99.7l.45-3.4 1.34-3.24 2.15-2.8 2.8-2.16 3.24-1.35 3.4-.44h8.22zM-226.18 87.8l-14.26 4.64v-9.27z" fill="#333"/><path d="M-221.32 87.8l-20.62 6.7V81.1zm-17.62 2.58l7.9-2.57-7.9-2.57zM-283.66 222.44l-14.26-4.63 14.26-4.63z" fill="#333"/><path d="M-282.16 224.5l-20.62-6.7 20.62-6.7zm-10.9-6.7l7.9 2.58v-5.15z" fill="#333"/><path d="M105.55 212.3c0 33.14-26.86 60-60 60-33.13 0-60-26.86-60-60 0-33.13 26.87-60 60-60 33.14 0 60 26.87 60 60z" stroke="#333" fill="#fff"/><use xlink:href="#M" transform="matrix(1,0,0,1,-14.445784547069934,152.30555555569208) translate(24.529999999999998 63.15)"/><path d="M-34.45 112.3h88l12 12v48h-100z" stroke="#333" fill="#fff"/><path d="M53.55 112.78v11.53h11.53" stroke="#333" fill="#fff"/><use xlink:href="#l" transform="matrix(1,0,0,1,-34.445784547069934,112.30555555569208) translate(26.525 33.15)"/><path d="M308 82.3c0 33.14-26.85 60-60 60-33.12 0-60-26.86-60-60 0-33.13 26.88-60 60-60 33.15 0 60 26.87 60 60z" stroke="#333" fill="#fff"/><use xlink:href="#J" transform="matrix(1,0,0,1,188.0125976621796,22.30555555569208) translate(31.53 63.15)"/><path d="M168-17.7h88l12 12v48H168z" stroke="#333" fill="#fff"/><path d="M256-17.22V-5.7h11.54" stroke="#333" fill="#fff"/><use xlink:href="#l" transform="matrix(1,0,0,1,168.0125976621796,-17.69444444430792) translate(26.525 33.15)"/><path d="M148.28 200.4l-.44 3.4-1.35 3.25-2.16 2.8-2.8 2.17-3.25 1.34-3.42.45h-8.2v-3h8l2.83-.36 2.52-1.04 2.18-1.68 1.67-2.18 1.04-2.5.38-2.83v-42.1h3zm18.6-116.6h-8l-2.82.38-2.5 1.04-2.2 1.67-1.67 2.17-1.05 2.5-.37 2.83v42.1h-3V94.2l.45-3.4 1.34-3.24 2.16-2.8 2.8-2.16 3.25-1.35 3.4-.44h8.2zM182.66 82.3l-14.27 4.64v-9.27z" fill="#333"/><path d="M187.5 82.3L166.9 89V75.6zm-17.6 2.58l7.9-2.57-7.9-2.57zM125.17 216.94l-14.26-4.63 14.27-4.63z" fill="#333"/><path d="M126.67 219l-20.62-6.7 20.62-6.7zm-10.9-6.7l7.9 2.58v-5.15z" fill="#333"/><use xlink:href="#K" transform="matrix(1,0,0,1,115.55840655755482,136.50555555569207) translate(0.004999999999999005 14.4)"/><path d="M-530.36 127.8h54.73" stroke="#333" stroke-width="3" fill="none"/><path d="M-530.32 129.3h-1.6l.06-1.5-.05-1.5h1.58z" fill="#333"/><path d="M-459.86 127.8l-14.27 4.64v-9.27z" stroke="#333" stroke-width="3" fill="#333"/><path d="M464.8-154.2c0-4.4 3.58-8 8-8h802.87c4.4 0 8 3.6 8 8v324c0 4.42-3.6 8-8 8H472.8c-4.42 0-8-3.58-8-8z" stroke="#333" fill="#ff8f80"/><path d="M616.03 93.3c0 33.14-26.86 60-60 60s-60-26.86-60-60c0-33.13 26.86-60 60-60s60 26.87 60 60z" stroke="#333" fill="#fff"/><use xlink:href="#k" transform="matrix(1,0,0,1,496.02995570217035,33.30555555551018) translate(24.529999999999998 63.15)"/><path d="M476.03-6.7h88l12 12v48h-100z" stroke="#333" fill="#fff"/><path d="M564.03-6.22V5.3h11.52" stroke="#333" fill="#fff"/><use xlink:href="#I" transform="matrix(1,0,0,1,476.02995570217035,-6.694444444489818) translate(26.525 33.15)"/><path d="M818.5-36.7c0 33.14-26.87 60-60 60-33.15 0-60-26.86-60-60 0-33.13 26.85-60 60-60 33.13 0 60 26.87 60 60z" stroke="#333" fill="#fff"/><use xlink:href="#J" transform="matrix(1,0,0,1,698.4883379114199,-96.69444444448982) translate(31.53 63.15)"/><path d="M678.5-136.7h88l12 12v48h-100z" stroke="#333" fill="#fff"/><path d="M766.5-136.22v11.53H778" stroke="#333" fill="#fff"/><use xlink:href="#I" transform="matrix(1,0,0,1,678.4883379114199,-136.69444444448982) translate(26.525 33.15)"/><path d="M658.76 81.4l-.45 3.4-1.33 3.25-2.16 2.8-2.8 2.17-3.24 1.34-3.4.45h-8.2v-3h8l2.82-.36 2.5-1.05 2.2-1.68 1.67-2.18 1.04-2.5.36-2.83V39.1h3zm18.6-116.6h-8l-2.82.38-2.52 1.04-2.18 1.67-1.67 2.17-1.04 2.5-.37 2.83v42.1h-3v-42.3l.45-3.4 1.35-3.24 2.15-2.8 2.8-2.16 3.25-1.35 3.4-.44h8.22zM635.65 97.94l-14.27-4.63 14.27-4.63z" fill="#333"/><path d="M637.15 100l-20.62-6.7 20.62-6.7zm-10.9-6.7l7.9 2.58v-5.15zM693.13-36.7l-14.26 4.64v-9.27z" fill="#333"/><path d="M698-36.7L677.36-30v-13.4zm-17.63 2.58l7.9-2.57-7.9-2.57z" fill="#333"/><use xlink:href="#K" transform="matrix(1,0,0,1,626.0341468067951,17.50555555551018) translate(0.004999999999999005 14.4)"/><path d="M658.76 81.4l-.45 3.4-1.33 3.25-2.16 2.8-2.8 2.17-3.24 1.34-3.4.45h-8.2v-3h8l2.82-.36 2.5-1.04 2.2-1.68 1.67-2.18 1.04-2.5.36-2.83V39.1h3zm18.6-116.6h-8l-2.82.38-2.52 1.04-2.18 1.67-1.67 2.17-1.04 2.5-.37 2.83v42.1h-3v-42.3l.45-3.4 1.35-3.24 2.15-2.8 2.8-2.16 3.25-1.35 3.4-.44h8.22zM693.13-36.7l-14.26 4.64v-9.27z" fill="#333"/><path d="M698-36.7L677.36-30v-13.4zm-17.63 2.58l7.9-2.57-7.9-2.57zM635.65 97.94l-14.27-4.63 14.27-4.63z" fill="#333"/><path d="M637.15 100l-20.62-6.7 20.62-6.7zm-10.9-6.7l7.9 2.58v-5.15z" fill="#333"/><path d="M1024.86 87.8c0 33.14-26.86 60-60 60-33.13 0-60-26.86-60-60 0-33.13 26.87-60 60-60 33.14 0 60 26.87 60 60z" stroke="#333" fill="#fff"/><use xlink:href="#M" transform="matrix(1,0,0,1,904.8634414911135,27.80555555560113) translate(24.529999999999998 63.15)"/><path d="M884.86-12.2h88l12 12v48h-100z" stroke="#333" fill="#fff"/><path d="M972.86-11.72V-.2h11.53" stroke="#333" fill="#fff"/><use xlink:href="#l" transform="matrix(1,0,0,1,884.8634414911135,-12.194444444398869) translate(26.525 33.15)"/><path d="M1227.32-42.2c0 33.14-26.86 60-60 60s-60-26.86-60-60c0-33.13 26.86-60 60-60s60 26.87 60 60z" stroke="#333" fill="#fff"/><use xlink:href="#J" transform="matrix(1,0,0,1,1107.3218237003625,-102.19444444439887) translate(31.53 63.15)"/><path d="M1087.32-142.2h88l12 12v48h-100z" stroke="#333" fill="#fff"/><path d="M1175.32-141.72v11.53h11.53" stroke="#333" fill="#fff"/><use xlink:href="#l" transform="matrix(1,0,0,1,1087.3218237003625,-142.19444444439887) translate(26.525 33.15)"/><path d="M1067.6 75.9l-.45 3.4-1.35 3.25-2.15 2.8-2.8 2.17-3.25 1.34-3.4.45h-8.22v-3h8l2.84-.36 2.5-1.04 2.2-1.68 1.66-2.18 1.04-2.5.37-2.83V33.6h3zm18.6-116.6h-8l-2.83.38-2.5 1.04-2.2 1.67-1.67 2.17-1.04 2.5-.37 2.83V12h-3v-42.3l.44-3.4 1.34-3.24 2.16-2.8 2.8-2.16 3.25-1.35 3.4-.44h8.2zM1101.97-42.2l-14.27 4.64v-9.27z" fill="#333"/><path d="M1106.82-42.2l-20.62 6.7v-13.4zm-17.62 2.58l7.9-2.57-7.9-2.57zM1044.48 92.44l-14.26-4.63 14.26-4.63z" fill="#333"/><path d="M1045.98 94.5l-20.62-6.7 20.62-6.7zm-10.9-6.7l7.9 2.58v-5.15z" fill="#333"/><use xlink:href="#K" transform="matrix(1,0,0,1,1034.867632595738,12.00555555560113) translate(0.004999999999999005 14.4)"/><path d="M464.8 305.8c0-4.4 3.58-8 8-8h802.87c4.4 0 8 3.6 8 8v324c0 4.42-3.6 8-8 8H472.8c-4.42 0-8-3.58-8-8z" stroke="#333" fill="#c7e8ac"/><path d="M616.03 553.3c0 33.14-26.86 60-60 60s-60-26.86-60-60c0-33.13 26.86-60 60-60s60 26.87 60 60z" stroke="#333" fill="#fff"/><use xlink:href="#k" transform="matrix(1,0,0,1,496.02995570217035,493.3055555555102) translate(24.529999999999998 63.15)"/><path d="M476.03 453.3h88l12 12v48h-100z" stroke="#99d5ca" fill="#fff"/><path d="M564.03 453.78v11.53h11.52" stroke="#99d5ca" fill="#fff"/><use xlink:href="#l" transform="matrix(1,0,0,1,476.02995570217035,453.3055555555102) translate(26.525 33.15)"/><path d="M818.5 420c0 33.14-26.87 60-60 60-33.15 0-60-26.86-60-60s26.85-60 60-60c33.13 0 60 26.86 60 60z" stroke="#333" fill="#fff"/><use xlink:href="#J" transform="matrix(1,0,0,1,698.4883379114199,360) translate(31.53 63.15)"/><path d="M678.5 323.3h88l12 12v48h-100z" stroke="#333" fill="#fff"/><path d="M766.5 323.78v11.53H778" stroke="#333" fill="#fff"/><use xlink:href="#I" transform="matrix(1,0,0,1,678.4883379114199,323.3055555555102) translate(26.525 33.15)"/><path d="M640.42 553.04l1.23 2.97v49.7l.37 2.83 1.04 2.5 1.67 2.2 2.2 1.66 2.5 1.04 2.82.37h129.8v3h-130l-3.4-.44-3.25-1.34-2.8-2.16-2.16-2.8-1.34-3.25-.45-3.4v-49.3l-.53-1.27-1.54-.64 1.14-2.78zm528.4 52.86l-.44 3.4-1.35 3.25-2.15 2.8-2.8 2.17-3.25 1.34-3.4.45H844.48v-3h310.72l2.82-.36 2.52-1.04 2.18-1.68 1.67-2.18 1.05-2.5.37-2.83V498.94h3zM1171.96 497.43h-9.27l4.62-14.27z"/><path d="M1174.02 498.93h-13.4l6.7-20.62zm-9.27-3h5.14l-2.58-7.92zM635.65 557.94l-14.27-4.63 14.27-4.63z"/><path d="M637.15 560l-20.62-6.7 20.62-6.7zm-10.9-6.7l7.9 2.58v-5.15z"/><use xlink:href="#K" transform="matrix(1,0,0,1,782.0410482374765,607.0055555556003) translate(0.004999999999999005 14.4)"/><path d="M1024.86 547.8c0 33.14-26.86 60-60 60-33.13 0-60-26.86-60-60 0-33.13 26.87-60 60-60 33.14 0 60 26.87 60 60z" stroke="#333" fill="#fff"/><use xlink:href="#M" transform="matrix(1,0,0,1,904.8634414911135,487.80555555560113) translate(24.529999999999998 63.15)"/><path d="M884.86 447.8h88l12 12v48h-100z" stroke="#333" fill="#fff"/><path d="M972.86 448.28v11.53h11.53" stroke="#333" fill="#fff"/><use xlink:href="#l" transform="matrix(1,0,0,1,884.8634414911135,447.80555555560113) translate(26.525 33.15)"/><path d="M1227.32 417.8c0 33.14-26.86 60-60 60s-60-26.86-60-60c0-33.13 26.86-60 60-60s60 26.87 60 60z" stroke="#333" fill="#fff"/><use xlink:href="#J" transform="matrix(1,0,0,1,1107.3218237003625,357.80555555560113) translate(31.53 63.15)"/><path d="M1087.32 317.8h88l12 12v48h-100z" stroke="#333" fill="#fff"/><path d="M1175.32 318.28v11.53h11.53" stroke="#333" fill="#fff"/><g><use xlink:href="#l" transform="matrix(1,0,0,1,1087.3218237003625,317.80555555560113) translate(26.525 33.15)"/></g><path d="M1067.6 535.9l-.45 3.4-1.35 3.25-2.15 2.8-2.8 2.17-3.25 1.34-3.4.45h-8.22v-3h8l2.84-.36 2.5-1.04 2.2-1.68 1.66-2.18 1.04-2.5.37-2.83v-42.1h3zm18.6-116.6h-8l-2.83.38-2.5 1.04-2.2 1.67-1.67 2.17-1.04 2.5-.37 2.83V472h-3v-42.3l.44-3.4 1.34-3.24 2.16-2.8 2.8-2.16 3.25-1.35 3.4-.44h8.2zM1101.97 417.8l-14.27 4.64v-9.27z" fill="#333"/><path d="M1106.82 417.8l-20.62 6.7v-13.4zm-17.62 2.58l7.9-2.57-7.9-2.57zM1044.48 552.44l-14.26-4.63 14.26-4.63z" fill="#333"/><path d="M1045.98 554.5l-20.62-6.7 20.62-6.7zm-10.9-6.7l7.9 2.58v-5.15z" fill="#333"/><g><use xlink:href="#K" transform="matrix(1,0,0,1,1034.867632595738,472.0055555556011) translate(0.004999999999999005 14.4)"/></g><path d="M959.85 419.7l-3.24 1.35-3.4.45H839.6v-3H953l.5-.06h8zm130.74-22.93H977.2l-.5.07h-8l1.65-1.28 3.25-1.34 3.4-.45h113.6zM838.1 424.64L823.85 420l14.27-4.64z"/><path d="M839.6 426.7L819 420l20.6-6.7zm-10.9-6.7l7.9 2.57v-5.14zM1106.36 395.27l-14.27 4.64v-9.26z"/><path d="M1111.2 395.27l-20.6 6.7v-13.4zm-17.6 2.57l7.9-2.57-7.9-2.57z"/><g><use xlink:href="#N" transform="matrix(1,0,0,1,865.8749343294605,396.83660989951994) translate(0.0049999999999954525 14.4)"/></g><path d="M-1715.78-234.2c0-4.4 3.58-8 8-8h210.4c4.43 0 8 3.6 8 8v44c0 4.42-3.57 8-8 8h-210.4c-4.42 0-8-3.58-8-8z" stroke="#000" stroke-opacity="0" fill="#fff" fill-opacity="0"/><g><use xlink:href="#O" transform="matrix(1,0,0,1,-1715.7787408987874,-242.19444444439887) translate(13.393888888888876 19.555555555555557)"/><use xlink:href="#P" transform="matrix(1,0,0,1,-1715.7787408987874,-242.19444444439887) translate(102.75191358024692 19.555555555555557)"/><use xlink:href="#Q" transform="matrix(1,0,0,1,-1715.7787408987874,-242.19444444439887) translate(154.28895061728394 19.555555555555557)"/><use xlink:href="#R" transform="matrix(1,0,0,1,-1715.7787408987874,-242.19444444439887) translate(99.42475308641976 48.88888888888889)"/></g><path d="M840-192c0-4.42 3.58-8 8-8h116.55c4.42 0 8 3.58 8 8v26.2c0 4.4-3.58 8-8 8H848c-4.42 0-8-3.6-8-8z" stroke="#000" stroke-opacity="0" fill="#ffeca9"/><g><use xlink:href="#S" transform="matrix(1,0,0,1,840,-200) translate(25.099999999999994 25.15)"/><use xlink:href="#H" transform="matrix(1,0,0,1,840,-200) translate(64 25.15)"/></g><path d="M852.55 268c0-4.42 3.58-8 8-8h104c4.42 0 8 3.58 8 8v24c0 4.42-3.58 8-8 8h-104c-4.42 0-8-3.58-8-8z" stroke="#000" stroke-opacity="0" fill="#ffeca9"/><g><use xlink:href="#S" transform="matrix(1,0,0,1,852.5503910892553,260) translate(18.599999999999994 24.4)"/><use xlink:href="#H" transform="matrix(1,0,0,1,852.5503910892553,260) translate(57.5 24.4)"/></g><path d="M-1479.63-241.54c0-4.42 3.58-8 8-8h19.64c4.43 0 8 3.58 8 8v17.35c0 4.43-3.57 8-8 8h-19.63c-4.42 0-8-3.57-8-8z" stroke="#333" fill="#ff8f80"/><path d="M-1444-255.08h339.1v44.43H-1444z" stroke="#000" stroke-opacity="0" stroke-width="2" fill="#fff" fill-opacity="0"/><g><use xlink:href="#T" transform="matrix(1,0,0,1,-1438.9851718491796,-250.07913739869696) translate(16.150000000000006 20.9625)"/><use xlink:href="#U" transform="matrix(1,0,0,1,-1438.9851718491796,-250.07913739869696) translate(31.650000000000006 20.9625)"/></g><path d="M-1516.48-192.84h446.38v44.43h-446.38z" stroke="#000" stroke-opacity="0" stroke-width="2" fill="#fff" fill-opacity="0"/><g><use xlink:href="#T" transform="matrix(1,0,0,1,-1511.4765720325522,-187.83608184310742) translate(80.60000000000002 20.9625)"/><use xlink:href="#V" transform="matrix(1,0,0,1,-1511.4765720325522,-187.83608184310742) translate(96.10000000000002 20.9625)"/></g><path d="M-1479.63-179.3c0-4.4 3.58-8 8-8h19.64c4.43 0 8 3.6 8 8v17.35c0 4.42-3.57 8-8 8h-19.63c-4.42 0-8-3.58-8-8z" stroke="#333" fill="#c7e8ac"/><defs><path d="M127-220V0H93v-220H8v-28h204v28h-85" id="W"/><path d="M100-194c63 0 86 42 84 106H49c0 40 14 67 53 68 26 1 43-12 49-29l28 8c-11 28-37 45-77 45C44 4 14-33 15-96c1-61 26-98 85-98zm52 81c6-60-76-77-97-28-3 7-6 17-6 28h103" id="X"/><path d="M141 0L90-78 38 0H4l68-98-65-92h35l48 74 47-74h35l-64 92 68 98h-35" id="Y"/><path d="M59-47c-2 24 18 29 38 22v24C64 9 27 4 27-40v-127H5v-23h24l9-43h21v43h35v23H59v120" id="Z"/><g id="a"><use transform="matrix(0.05,0,0,0.05,0,0)" xlink:href="#W"/><use transform="matrix(0.05,0,0,0.05,8.950000000000001,0)" xlink:href="#X"/><use transform="matrix(0.05,0,0,0.05,18.950000000000003,0)" xlink:href="#Y"/><use transform="matrix(0.05,0,0,0.05,27.950000000000003,0)" xlink:href="#Z"/></g><path fill="#333" d="M127-220V0H93v-220H8v-28h204v28h-85" id="aa"/><path fill="#333" d="M206 0h-36l-40-164L89 0H53L-1-190h32L70-26l43-164h34l41 164 42-164h31" id="ab"/><path fill="#333" d="M100-194c62-1 85 37 85 99 1 63-27 99-86 99S16-35 15-95c0-66 28-99 85-99zM99-20c44 1 53-31 53-75 0-43-8-75-51-75s-53 32-53 75 10 74 51 75" id="ac"/><g id="b"><use transform="matrix(0.05,0,0,0.05,0,0)" xlink:href="#aa"/><use transform="matrix(0.05,0,0,0.05,9.950000000000001,0)" xlink:href="#ab"/><use transform="matrix(0.05,0,0,0.05,22.900000000000002,0)" xlink:href="#ac"/></g><path fill="#333" d="M115-194c55 1 70 41 70 98S169 2 115 4C84 4 66-9 55-30l1 105H24l-1-265h31l2 30c10-21 28-34 59-34zm-8 174c40 0 45-34 45-75s-6-73-45-74c-42 0-51 32-51 76 0 43 10 73 51 73" id="ad"/><path fill="#333" d="M141-36C126-15 110 5 73 4 37 3 15-17 15-53c-1-64 63-63 125-63 3-35-9-54-41-54-24 1-41 7-42 31l-33-3c5-37 33-52 76-52 45 0 72 20 72 64v82c-1 20 7 32 28 27v20c-31 9-61-2-59-35zM48-53c0 20 12 33 32 33 41-3 63-29 60-74-43 2-92-5-92 41" id="ae"/><path fill="#333" d="M59-47c-2 24 18 29 38 22v24C64 9 27 4 27-40v-127H5v-23h24l9-43h21v43h35v23H59v120" id="af"/><path fill="#333" d="M24-231v-30h32v30H24zM24 0v-190h32V0H24" id="ag"/><path fill="#333" d="M100-194c63 0 86 42 84 106H49c0 40 14 67 53 68 26 1 43-12 49-29l28 8c-11 28-37 45-77 45C44 4 14-33 15-96c1-61 26-98 85-98zm52 81c6-60-76-77-97-28-3 7-6 17-6 28h103" id="ah"/><path fill="#333" d="M117-194c89-4 53 116 60 194h-32v-121c0-31-8-49-39-48C34-167 62-67 57 0H25l-1-190h30c1 10-1 24 2 32 11-22 29-35 61-36" id="ai"/><path fill="#333" d="M135-143c-3-34-86-38-87 0 15 53 115 12 119 90S17 21 10-45l28-5c4 36 97 45 98 0-10-56-113-15-118-90-4-57 82-63 122-42 12 7 21 19 24 35" id="aj"/><path fill="#333" d="M68-38c1 34 0 65-14 84H32c9-13 17-26 17-46H33v-38h35" id="ak"/><g id="c"><use transform="matrix(0.05,0,0,0.05,0,0)" xlink:href="#ad"/><use transform="matrix(0.05,0,0,0.05,10,0)" xlink:href="#ae"/><use transform="matrix(0.05,0,0,0.05,20,0)" xlink:href="#af"/><use transform="matrix(0.05,0,0,0.05,25,0)" xlink:href="#ag"/><use transform="matrix(0.05,0,0,0.05,28.950000000000003,0)" xlink:href="#ah"/><use transform="matrix(0.05,0,0,0.05,38.95,0)" xlink:href="#ai"/><use transform="matrix(0.05,0,0,0.05,48.95,0)" xlink:href="#af"/><use transform="matrix(0.05,0,0,0.05,53.95,0)" xlink:href="#aj"/><use transform="matrix(0.05,0,0,0.05,62.95,0)" xlink:href="#ak"/></g><path fill="#333" d="M96-169c-40 0-48 33-48 73s9 75 48 75c24 0 41-14 43-38l32 2c-6 37-31 61-74 61-59 0-76-41-82-99-10-93 101-131 147-64 4 7 5 14 7 22l-32 3c-4-21-16-35-41-35" id="al"/><path fill="#333" d="M106-169C34-169 62-67 57 0H25v-261h32l-1 103c12-21 28-36 61-36 89 0 53 116 60 194h-32v-121c2-32-8-49-39-48" id="am"/><g id="d"><use transform="matrix(0.05,0,0,0.05,0,0)" xlink:href="#ah"/><use transform="matrix(0.05,0,0,0.05,10,0)" xlink:href="#ae"/><use transform="matrix(0.05,0,0,0.05,20,0)" xlink:href="#al"/><use transform="matrix(0.05,0,0,0.05,29,0)" xlink:href="#am"/></g><path fill="#333" d="M24 0v-261h32V0H24" id="an"/><path fill="#333" d="M143 0L79-87 56-68V0H24v-261h32v163l83-92h37l-77 82L181 0h-38" id="ao"/><path fill="#333" d="M85-194c31 0 48 13 60 33l-1-100h32l1 261h-30c-2-10 0-23-3-31C134-8 116 4 85 4 32 4 16-35 15-94c0-66 23-100 70-100zm9 24c-40 0-46 34-46 75 0 40 6 74 45 74 42 0 51-32 51-76 0-42-9-74-50-73" id="ap"/><g id="e"><use transform="matrix(0.05,0,0,0.05,0,0)" xlink:href="#an"/><use transform="matrix(0.05,0,0,0.05,3.95,0)" xlink:href="#ag"/><use transform="matrix(0.05,0,0,0.05,7.9,0)" xlink:href="#ai"/><use transform="matrix(0.05,0,0,0.05,17.9,0)" xlink:href="#ao"/><use transform="matrix(0.05,0,0,0.05,26.899999999999995,0)" xlink:href="#ah"/><use transform="matrix(0.05,0,0,0.05,36.9,0)" xlink:href="#ap"/></g><g id="f"><use transform="matrix(0.05,0,0,0.05,0,0)" xlink:href="#af"/><use transform="matrix(0.05,0,0,0.05,5,0)" xlink:href="#ac"/></g><path fill="#333" d="M114-163C36-179 61-72 57 0H25l-1-190h30c1 12-1 29 2 39 6-27 23-49 58-41v29" id="aq"/><g id="g"><use transform="matrix(0.05,0,0,0.05,0,0)" xlink:href="#af"/><use transform="matrix(0.05,0,0,0.05,5,0)" xlink:href="#am"/><use transform="matrix(0.05,0,0,0.05,15,0)" xlink:href="#ah"/><use transform="matrix(0.05,0,0,0.05,25,0)" xlink:href="#ag"/><use transform="matrix(0.05,0,0,0.05,28.950000000000003,0)" xlink:href="#aq"/></g><g id="h"><use transform="matrix(0.05,0,0,0.05,0,0)" xlink:href="#ac"/><use transform="matrix(0.05,0,0,0.05,10,0)" xlink:href="#ab"/><use transform="matrix(0.05,0,0,0.05,22.950000000000003,0)" xlink:href="#ai"/></g><g id="i"><use transform="matrix(0.05,0,0,0.05,0,0)" xlink:href="#ad"/><use transform="matrix(0.05,0,0,0.05,10,0)" xlink:href="#ah"/><use transform="matrix(0.05,0,0,0.05,20,0)" xlink:href="#aq"/><use transform="matrix(0.05,0,0,0.05,25.950000000000003,0)" xlink:href="#aj"/><use transform="matrix(0.05,0,0,0.05,34.95,0)" xlink:href="#ac"/><use transform="matrix(0.05,0,0,0.05,44.95,0)" xlink:href="#ai"/></g><path fill="#333" d="M63-220v92h138v28H63V0H30v-248h175v28H63" id="ar"/><path fill="#333" d="M115-194c53 0 69 39 70 98 0 66-23 100-70 100C84 3 66-7 56-30L54 0H23l1-261h32v101c10-23 28-34 59-34zm-8 174c40 0 45-34 45-75 0-40-5-75-45-74-42 0-51 32-51 76 0 43 10 73 51 73" id="as"/><path fill="#333" d="M63-70H37l-4-178h34zM33 0v-35h34V0H33" id="at"/><g id="j"><use transform="matrix(0.05,0,0,0.05,0,0)" xlink:href="#ar"/><use transform="matrix(0.05,0,0,0.05,10.950000000000001,0)" xlink:href="#ac"/><use transform="matrix(0.05,0,0,0.05,20.950000000000003,0)" xlink:href="#aq"/><use transform="matrix(0.05,0,0,0.05,26.900000000000002,0)" xlink:href="#as"/><use transform="matrix(0.05,0,0,0.05,36.900000000000006,0)" xlink:href="#ag"/><use transform="matrix(0.05,0,0,0.05,40.85000000000001,0)" xlink:href="#ap"/><use transform="matrix(0.05,0,0,0.05,50.85000000000001,0)" xlink:href="#ap"/><use transform="matrix(0.05,0,0,0.05,60.85,0)" xlink:href="#ah"/><use transform="matrix(0.05,0,0,0.05,70.85000000000001,0)" xlink:href="#ai"/><use transform="matrix(0.05,0,0,0.05,80.85000000000001,0)" xlink:href="#at"/></g><path d="M30-248c87 1 191-15 191 75 0 78-77 80-158 76V0H30v-248zm33 125c57 0 124 11 124-50 0-59-68-47-124-48v98" id="au"/><path d="M141-36C126-15 110 5 73 4 37 3 15-17 15-53c-1-64 63-63 125-63 3-35-9-54-41-54-24 1-41 7-42 31l-33-3c5-37 33-52 76-52 45 0 72 20 72 64v82c-1 20 7 32 28 27v20c-31 9-61-2-59-35zM48-53c0 20 12 33 32 33 41-3 63-29 60-74-43 2-92-5-92 41" id="av"/><path d="M24-231v-30h32v30H24zM24 0v-190h32V0H24" id="aw"/><path d="M117-194c89-4 53 116 60 194h-32v-121c0-31-8-49-39-48C34-167 62-67 57 0H25l-1-190h30c1 10-1 24 2 32 11-22 29-35 61-36" id="ax"/><path d="M0 4l72-265h28L28 4H0" id="ay"/><path d="M27 0v-27h64v-190l-56 39v-29l58-41h29v221h61V0H27" id="az"/><g id="k"><use transform="matrix(0.05,0,0,0.05,0,0)" xlink:href="#au"/><use transform="matrix(0.05,0,0,0.05,12,0)" xlink:href="#av"/><use transform="matrix(0.05,0,0,0.05,22,0)" xlink:href="#Z"/><use transform="matrix(0.05,0,0,0.05,27,0)" xlink:href="#aw"/><use transform="matrix(0.05,0,0,0.05,30.950000000000003,0)" xlink:href="#X"/><use transform="matrix(0.05,0,0,0.05,40.95,0)" xlink:href="#ax"/><use transform="matrix(0.05,0,0,0.05,50.95,0)" xlink:href="#Z"/><use transform="matrix(0.05,0,0,0.05,55.95,0)" xlink:href="#ay"/><use transform="matrix(0.05,0,0,0.05,60.95,0)" xlink:href="#az"/></g><path fill="#333" d="M30 0v-248h187v28H63v79h144v27H63v87h162V0H30" id="aA"/><path fill="#333" d="M33 0v-248h34V0H33" id="aB"/><path fill="#333" d="M30-248c118-7 216 8 213 122C240-48 200 0 122 0H30v-248zM63-27c89 8 146-16 146-99s-60-101-146-95v194" id="aC"/><path fill="#333" d="M33-154v-36h34v36H33zM33 0v-36h34V0H33" id="aD"/><path fill="#333" d="M160-131c35 5 61 23 61 61C221 17 115-2 30 0v-248c76 3 177-17 177 60 0 33-19 50-47 57zm-97-11c50-1 110 9 110-42 0-47-63-36-110-37v79zm0 115c55-2 124 14 124-45 0-56-70-42-124-44v89" id="aE"/><g id="l"><use transform="matrix(0.05,0,0,0.05,0,0)" xlink:href="#aA"/><use transform="matrix(0.05,0,0,0.05,12,0)" xlink:href="#aB"/><use transform="matrix(0.05,0,0,0.05,17,0)" xlink:href="#aC"/><use transform="matrix(0.05,0,0,0.05,29.950000000000003,0)" xlink:href="#aD"/><use transform="matrix(0.05,0,0,0.05,34.95,0)" xlink:href="#aE"/></g><g id="m"><use transform="matrix(0.048148148148148155,0,0,0.048148148148148155,0,0)" xlink:href="#au"/><use transform="matrix(0.048148148148148155,0,0,0.048148148148148155,11.555555555555557,0)" xlink:href="#av"/><use transform="matrix(0.048148148148148155,0,0,0.048148148148148155,21.18518518518519,0)" xlink:href="#Z"/><use transform="matrix(0.048148148148148155,0,0,0.048148148148148155,26.00000000000001,0)" xlink:href="#aw"/><use transform="matrix(0.048148148148148155,0,0,0.048148148148148155,29.803703703703714,0)" xlink:href="#X"/><use transform="matrix(0.048148148148148155,0,0,0.048148148148148155,39.433333333333344,0)" xlink:href="#ax"/><use transform="matrix(0.048148148148148155,0,0,0.048148148148148155,49.06296296296298,0)" xlink:href="#Z"/></g><path d="M135-143c-3-34-86-38-87 0 15 53 115 12 119 90S17 21 10-45l28-5c4 36 97 45 98 0-10-56-113-15-118-90-4-57 82-63 122-42 12 7 21 19 24 35" id="aF"/><g id="n"><use transform="matrix(0.048148148148148155,0,0,0.048148148148148155,0,0)" xlink:href="#aw"/><use transform="matrix(0.048148148148148155,0,0,0.048148148148148155,3.8037037037037043,0)" xlink:href="#aF"/></g><path d="M84 4C-5 8 30-112 23-190h32v120c0 31 7 50 39 49 72-2 45-101 50-169h31l1 190h-30c-1-10 1-25-2-33-11 22-28 36-60 37" id="aG"/><path d="M115-194c55 1 70 41 70 98S169 2 115 4C84 4 66-9 55-30l1 105H24l-1-265h31l2 30c10-21 28-34 59-34zm-8 174c40 0 45-34 45-75s-6-73-45-74c-42 0-51 32-51 76 0 43 10 73 51 73" id="aH"/><path d="M85-194c31 0 48 13 60 33l-1-100h32l1 261h-30c-2-10 0-23-3-31C134-8 116 4 85 4 32 4 16-35 15-94c0-66 23-100 70-100zm9 24c-40 0-46 34-46 75 0 40 6 74 45 74 42 0 51-32 51-76 0-42-9-74-50-73" id="aI"/><g id="o"><use transform="matrix(0.048148148148148155,0,0,0.048148148148148155,0,0)" xlink:href="#aG"/><use transform="matrix(0.048148148148148155,0,0,0.048148148148148155,9.629629629629632,0)" xlink:href="#aH"/><use transform="matrix(0.048148148148148155,0,0,0.048148148148148155,19.259259259259263,0)" xlink:href="#aI"/><use transform="matrix(0.048148148148148155,0,0,0.048148148148148155,28.888888888888893,0)" xlink:href="#av"/><use transform="matrix(0.048148148148148155,0,0,0.048148148148148155,38.518518518518526,0)" xlink:href="#Z"/><use transform="matrix(0.048148148148148155,0,0,0.048148148148148155,43.33333333333334,0)" xlink:href="#X"/><use transform="matrix(0.048148148148148155,0,0,0.048148148148148155,52.96296296296297,0)" xlink:href="#aI"/></g><path d="M206 0h-36l-40-164L89 0H53L-1-190h32L70-26l43-164h34l41 164 42-164h31" id="aJ"/><path d="M106-169C34-169 62-67 57 0H25v-261h32l-1 103c12-21 28-36 61-36 89 0 53 116 60 194h-32v-121c2-32-8-49-39-48" id="aK"/><g id="p"><use transform="matrix(0.048148148148148155,0,0,0.048148148148148155,0,0)" xlink:href="#aJ"/><use transform="matrix(0.048148148148148155,0,0,0.048148148148148155,12.470370370370372,0)" xlink:href="#aw"/><use transform="matrix(0.048148148148148155,0,0,0.048148148148148155,16.274074074074075,0)" xlink:href="#Z"/><use transform="matrix(0.048148148148148155,0,0,0.048148148148148155,21.088888888888892,0)" xlink:href="#aK"/></g><use transform="matrix(0.048148148148148155,0,0,0.048148148148148155,0,0)" xlink:href="#av" id="q"/><path d="M96-169c-40 0-48 33-48 73s9 75 48 75c24 0 41-14 43-38l32 2c-6 37-31 61-74 61-59 0-76-41-82-99-10-93 101-131 147-64 4 7 5 14 7 22l-32 3c-4-21-16-35-41-35" id="aL"/><path d="M177-190C167-65 218 103 67 71c-23-6-38-20-44-43l32-5c15 47 100 32 89-28v-30C133-14 115 1 83 1 29 1 15-40 15-95c0-56 16-97 71-98 29-1 48 16 59 35 1-10 0-23 2-32h30zM94-22c36 0 50-32 50-73 0-42-14-75-50-75-39 0-46 34-46 75s6 73 46 73" id="aM"/><g id="r"><use transform="matrix(0.048148148148148155,0,0,0.048148148148148155,0,0)" xlink:href="#aL"/><use transform="matrix(0.048148148148148155,0,0,0.048148148148148155,8.666666666666668,0)" xlink:href="#aK"/><use transform="matrix(0.048148148148148155,0,0,0.048148148148148155,18.296296296296298,0)" xlink:href="#av"/><use transform="matrix(0.048148148148148155,0,0,0.048148148148148155,27.92592592592593,0)" xlink:href="#ax"/><use transform="matrix(0.048148148148148155,0,0,0.048148148148148155,37.555555555555564,0)" xlink:href="#aM"/><use transform="matrix(0.048148148148148155,0,0,0.048148148148148155,47.1851851851852,0)" xlink:href="#X"/></g><path d="M100-194c62-1 85 37 85 99 1 63-27 99-86 99S16-35 15-95c0-66 28-99 85-99zM99-20c44 1 53-31 53-75 0-43-8-75-51-75s-53 32-53 75 10 74 51 75" id="aN"/><g id="s"><use transform="matrix(0.048148148148148155,0,0,0.048148148148148155,0,0)" xlink:href="#Z"/><use transform="matrix(0.048148148148148155,0,0,0.048148148148148155,4.814814814814816,0)" xlink:href="#aN"/></g><path d="M114-163C36-179 61-72 57 0H25l-1-190h30c1 12-1 29 2 39 6-27 23-49 58-41v29" id="aO"/><g id="t"><use transform="matrix(0.048148148148148155,0,0,0.048148148148148155,0,0)" xlink:href="#Z"/><use transform="matrix(0.048148148148148155,0,0,0.048148148148148155,4.814814814814816,0)" xlink:href="#aK"/><use transform="matrix(0.048148148148148155,0,0,0.048148148148148155,14.444444444444446,0)" xlink:href="#X"/><use transform="matrix(0.048148148148148155,0,0,0.048148148148148155,24.074074074074076,0)" xlink:href="#aw"/><use transform="matrix(0.048148148148148155,0,0,0.048148148148148155,27.877777777777784,0)" xlink:href="#aO"/></g><path d="M24 0v-261h32V0H24" id="aP"/><g id="u"><use transform="matrix(0.048148148148148155,0,0,0.048148148148148155,0,0)" xlink:href="#X"/><use transform="matrix(0.048148148148148155,0,0,0.048148148148148155,9.629629629629632,0)" xlink:href="#Y"/><use transform="matrix(0.048148148148148155,0,0,0.048148148148148155,18.296296296296298,0)" xlink:href="#Z"/><use transform="matrix(0.048148148148148155,0,0,0.048148148148148155,23.111111111111114,0)" xlink:href="#X"/><use transform="matrix(0.048148148148148155,0,0,0.048148148148148155,32.74074074074075,0)" xlink:href="#aO"/><use transform="matrix(0.048148148148148155,0,0,0.048148148148148155,38.470370370370375,0)" xlink:href="#ax"/><use transform="matrix(0.048148148148148155,0,0,0.048148148148148155,48.10000000000001,0)" xlink:href="#av"/><use transform="matrix(0.048148148148148155,0,0,0.048148148148148155,57.729629629629635,0)" xlink:href="#aP"/></g><path d="M30 0v-248h187v28H63v79h144v27H63v87h162V0H30" id="aQ"/><path d="M33 0v-248h34V0H33" id="aR"/><path d="M30-248c118-7 216 8 213 122C240-48 200 0 122 0H30v-248zM63-27c89 8 146-16 146-99s-60-101-146-95v194" id="aS"/><path d="M33 0v-38h34V0H33" id="aT"/><g id="v"><use transform="matrix(0.048148148148148155,0,0,0.048148148148148155,0,0)" xlink:href="#aQ"/><use transform="matrix(0.048148148148148155,0,0,0.048148148148148155,11.555555555555557,0)" xlink:href="#aR"/><use transform="matrix(0.048148148148148155,0,0,0.048148148148148155,16.370370370370374,0)" xlink:href="#aS"/><use transform="matrix(0.048148148148148155,0,0,0.048148148148148155,28.840740740740745,0)" xlink:href="#aT"/></g><g id="w"><use transform="matrix(0.048148148148148155,0,0,0.048148148148148155,0,0)" xlink:href="#W"/><use transform="matrix(0.048148148148148155,0,0,0.048148148148148155,10.544444444444446,0)" xlink:href="#aK"/><use transform="matrix(0.048148148148148155,0,0,0.048148148148148155,20.174074074074078,0)" xlink:href="#aw"/><use transform="matrix(0.048148148148148155,0,0,0.048148148148148155,23.97777777777778,0)" xlink:href="#aF"/></g><g id="x"><use transform="matrix(0.048148148148148155,0,0,0.048148148148148155,0,0)" xlink:href="#ax"/><use transform="matrix(0.048148148148148155,0,0,0.048148148148148155,9.629629629629632,0)" xlink:href="#X"/><use transform="matrix(0.048148148148148155,0,0,0.048148148148148155,19.259259259259263,0)" xlink:href="#aJ"/></g><g id="y"><use transform="matrix(0.048148148148148155,0,0,0.048148148148148155,0,0)" xlink:href="#aQ"/><use transform="matrix(0.048148148148148155,0,0,0.048148148148148155,11.555555555555557,0)" xlink:href="#aR"/><use transform="matrix(0.048148148148148155,0,0,0.048148148148148155,16.370370370370374,0)" xlink:href="#aS"/></g><path d="M210-169c-67 3-38 105-44 169h-31v-121c0-29-5-50-35-48C34-165 62-65 56 0H25l-1-190h30c1 10-1 24 2 32 10-44 99-50 107 0 11-21 27-35 58-36 85-2 47 119 55 194h-31v-121c0-29-5-49-35-48" id="aU"/><g id="z"><use transform="matrix(0.048148148148148155,0,0,0.048148148148148155,0,0)" xlink:href="#aU"/><use transform="matrix(0.048148148148148155,0,0,0.048148148148148155,14.396296296296299,0)" xlink:href="#av"/><use transform="matrix(0.048148148148148155,0,0,0.048148148148148155,24.025925925925932,0)" xlink:href="#Z"/><use transform="matrix(0.048148148148148155,0,0,0.048148148148148155,28.84074074074075,0)" xlink:href="#aL"/><use transform="matrix(0.048148148148148155,0,0,0.048148148148148155,37.50740740740741,0)" xlink:href="#aK"/><use transform="matrix(0.048148148148148155,0,0,0.048148148148148155,47.13703703703705,0)" xlink:href="#X"/><use transform="matrix(0.048148148148148155,0,0,0.048148148148148155,56.76666666666667,0)" xlink:href="#aF"/></g><g id="A"><use transform="matrix(0.048148148148148155,0,0,0.048148148148148155,0,0)" xlink:href="#av"/><use transform="matrix(0.048148148148148155,0,0,0.048148148148148155,9.629629629629632,0)" xlink:href="#ax"/></g><g id="B"><use transform="matrix(0.048148148148148155,0,0,0.048148148148148155,0,0)" xlink:href="#X"/><use transform="matrix(0.048148148148148155,0,0,0.048148148148148155,9.629629629629632,0)" xlink:href="#Y"/><use transform="matrix(0.048148148148148155,0,0,0.048148148148148155,18.296296296296298,0)" xlink:href="#aw"/><use transform="matrix(0.048148148148148155,0,0,0.048148148148148155,22.1,0)" xlink:href="#aF"/><use transform="matrix(0.048148148148148155,0,0,0.048148148148148155,30.766666666666673,0)" xlink:href="#Z"/><use transform="matrix(0.048148148148148155,0,0,0.048148148148148155,35.58148148148148,0)" xlink:href="#aw"/><use transform="matrix(0.048148148148148155,0,0,0.048148148148148155,39.385185185185186,0)" xlink:href="#ax"/><use transform="matrix(0.048148148148148155,0,0,0.048148148148148155,49.01481481481482,0)" xlink:href="#aM"/></g><g id="C"><use transform="matrix(0.048148148148148155,0,0,0.048148148148148155,0,0)" xlink:href="#au"/><use transform="matrix(0.048148148148148155,0,0,0.048148148148148155,11.555555555555557,0)" xlink:href="#X"/><use transform="matrix(0.048148148148148155,0,0,0.048148148148148155,21.18518518518519,0)" xlink:href="#aO"/><use transform="matrix(0.048148148148148155,0,0,0.048148148148148155,26.914814814814825,0)" xlink:href="#aF"/><use transform="matrix(0.048148148148148155,0,0,0.048148148148148155,35.58148148148149,0)" xlink:href="#aN"/><use transform="matrix(0.048148148148148155,0,0,0.048148148148148155,45.21111111111112,0)" xlink:href="#ax"/></g><g id="D"><use transform="matrix(0.048148148148148155,0,0,0.048148148148148155,0,0)" xlink:href="#aw"/><use transform="matrix(0.048148148148148155,0,0,0.048148148148148155,3.8037037037037043,0)" xlink:href="#ax"/></g><g id="E"><use transform="matrix(0.048148148148148155,0,0,0.048148148148148155,0,0)" xlink:href="#Z"/><use transform="matrix(0.048148148148148155,0,0,0.048148148148148155,4.814814814814816,0)" xlink:href="#aK"/><use transform="matrix(0.048148148148148155,0,0,0.048148148148148155,14.444444444444446,0)" xlink:href="#X"/></g><path d="M179-190L93 31C79 59 56 82 12 73V49c39 6 53-20 64-50L1-190h34L92-34l54-156h33" id="aV"/><g id="F"><use transform="matrix(0.048148148148148155,0,0,0.048148148148148155,0,0)" xlink:href="#aF"/><use transform="matrix(0.048148148148148155,0,0,0.048148148148148155,8.666666666666668,0)" xlink:href="#aV"/><use transform="matrix(0.048148148148148155,0,0,0.048148148148148155,17.333333333333336,0)" xlink:href="#aF"/><use transform="matrix(0.048148148148148155,0,0,0.048148148148148155,26.000000000000004,0)" xlink:href="#Z"/><use transform="matrix(0.048148148148148155,0,0,0.048148148148148155,30.81481481481482,0)" xlink:href="#X"/><use transform="matrix(0.048148148148148155,0,0,0.048148148148148155,40.44444444444445,0)" xlink:href="#aU"/></g><path fill="#333" d="M169-182c-1-43-94-46-97-3 18 66 151 10 154 114 3 95-165 93-204 36-6-8-10-19-12-30l50-8c3 46 112 56 116 5-17-69-150-10-154-114-4-87 153-88 188-35 5 8 8 18 10 28" id="aW"/><path fill="#333" d="M115-3C79 11 28 4 28-45v-112H4v-33h27l15-45h31v45h36v33H77v99c-1 23 16 31 38 25v30" id="aX"/><path fill="#333" d="M133-34C117-15 103 5 69 4 32 3 11-16 11-54c-1-60 55-63 116-61 1-26-3-47-28-47-18 1-26 9-28 27l-52-2c7-38 36-58 82-57s74 22 75 68l1 82c-1 14 12 18 25 15v27c-30 8-71 5-69-32zm-48 3c29 0 43-24 42-57-32 0-66-3-65 30 0 17 8 27 23 27" id="aY"/><path fill="#333" d="M135-150c-39-12-60 13-60 57V0H25l-1-190h47c2 13-1 29 3 40 6-28 27-53 61-41v41" id="aZ"/><g id="G"><use transform="matrix(0.05,0,0,0.05,0,0)" xlink:href="#aW"/><use transform="matrix(0.05,0,0,0.05,12,0)" xlink:href="#aX"/><use transform="matrix(0.05,0,0,0.05,17.95,0)" xlink:href="#aY"/><use transform="matrix(0.05,0,0,0.05,27.950000000000003,0)" xlink:href="#aZ"/><use transform="matrix(0.05,0,0,0.05,34.95,0)" xlink:href="#aX"/></g><path fill="#333" d="M185-48c-13 30-37 53-82 52C43 2 14-33 14-96s30-98 90-98c62 0 83 45 84 108H66c0 31 8 55 39 56 18 0 30-7 34-22zm-45-69c5-46-57-63-70-21-2 6-4 13-4 21h74" id="ba"/><g id="H"><use transform="matrix(0.05,0,0,0.05,0,0)" xlink:href="#aW"/><use transform="matrix(0.05,0,0,0.05,12,0)" xlink:href="#aX"/><use transform="matrix(0.05,0,0,0.05,17.95,0)" xlink:href="#aY"/><use transform="matrix(0.05,0,0,0.05,27.950000000000003,0)" xlink:href="#aX"/><use transform="matrix(0.05,0,0,0.05,33.9,0)" xlink:href="#ba"/></g><path fill="#333" d="M205 0l-28-72H64L36 0H1l101-248h38L239 0h-34zm-38-99l-47-123c-12 45-31 82-46 123h93" id="bb"/><g id="I"><use transform="matrix(0.05,0,0,0.05,0,0)" xlink:href="#aA"/><use transform="matrix(0.05,0,0,0.05,12,0)" xlink:href="#aB"/><use transform="matrix(0.05,0,0,0.05,17,0)" xlink:href="#aC"/><use transform="matrix(0.05,0,0,0.05,29.950000000000003,0)" xlink:href="#aD"/><use transform="matrix(0.05,0,0,0.05,34.95,0)" xlink:href="#bb"/></g><g id="J"><use transform="matrix(0.05,0,0,0.05,0,0)" xlink:href="#au"/><use transform="matrix(0.05,0,0,0.05,12,0)" xlink:href="#X"/><use transform="matrix(0.05,0,0,0.05,22,0)" xlink:href="#aO"/><use transform="matrix(0.05,0,0,0.05,27.950000000000003,0)" xlink:href="#aF"/><use transform="matrix(0.05,0,0,0.05,36.95,0)" xlink:href="#aN"/><use transform="matrix(0.05,0,0,0.05,46.95,0)" xlink:href="#ax"/></g><path fill="#333" d="M240 0l2-218c-23 76-54 145-80 218h-23L58-218 59 0H30v-248h44l77 211c21-75 51-140 76-211h43V0h-30" id="bc"/><path fill="#333" d="M212-179c-10-28-35-45-73-45-59 0-87 40-87 99 0 60 29 101 89 101 43 0 62-24 78-52l27 14C228-24 195 4 139 4 59 4 22-46 18-125c-6-104 99-153 187-111 19 9 31 26 39 46" id="bd"/><path fill="#333" d="M197 0v-115H63V0H30v-248h33v105h134v-105h34V0h-34" id="be"/><g id="K"><use transform="matrix(0.05,0,0,0.05,0,0)" xlink:href="#bc"/><use transform="matrix(0.05,0,0,0.05,14.950000000000001,0)" xlink:href="#bb"/><use transform="matrix(0.05,0,0,0.05,25.6,0)" xlink:href="#aa"/><use transform="matrix(0.05,0,0,0.05,36.550000000000004,0)" xlink:href="#bd"/><use transform="matrix(0.05,0,0,0.05,49.50000000000001,0)" xlink:href="#be"/></g><path fill="#333" d="M199 0l-22-63H83L61 0H9l90-248h61L250 0h-51zm-33-102l-36-108c-10 38-24 72-36 108h72" id="bf"/><path fill="#333" d="M190-63c-7 42-38 67-86 67-59 0-84-38-90-98-12-110 154-137 174-36l-49 2c-2-19-15-32-35-32-30 0-35 28-38 64-6 74 65 87 74 30" id="bg"/><path fill="#333" d="M25-224v-37h50v37H25zM25 0v-190h50V0H25" id="bh"/><path fill="#333" d="M110-194c64 0 96 36 96 99 0 64-35 99-97 99-61 0-95-36-95-99 0-62 34-99 96-99zm-1 164c35 0 45-28 45-65 0-40-10-65-43-65-34 0-45 26-45 65 0 36 10 65 43 65" id="bi"/><path fill="#333" d="M135-194c87-1 58 113 63 194h-50c-7-57 23-157-34-157-59 0-34 97-39 157H25l-1-190h47c2 12-1 28 3 38 12-26 28-41 61-42" id="bj"/><g id="L"><use transform="matrix(0.05,0,0,0.05,0,0)" xlink:href="#bf"/><use transform="matrix(0.05,0,0,0.05,12.950000000000001,0)" xlink:href="#bg"/><use transform="matrix(0.05,0,0,0.05,22.950000000000003,0)" xlink:href="#aX"/><use transform="matrix(0.05,0,0,0.05,28.900000000000002,0)" xlink:href="#bh"/><use transform="matrix(0.05,0,0,0.05,33.900000000000006,0)" xlink:href="#bi"/><use transform="matrix(0.05,0,0,0.05,44.85000000000001,0)" xlink:href="#bj"/></g><path d="M101-251c82-7 93 87 43 132L82-64C71-53 59-42 53-27h129V0H18c2-99 128-94 128-182 0-28-16-43-45-43s-46 15-49 41l-32-3c6-41 34-60 81-64" id="bk"/><g id="M"><use transform="matrix(0.05,0,0,0.05,0,0)" xlink:href="#au"/><use transform="matrix(0.05,0,0,0.05,12,0)" xlink:href="#av"/><use transform="matrix(0.05,0,0,0.05,22,0)" xlink:href="#Z"/><use transform="matrix(0.05,0,0,0.05,27,0)" xlink:href="#aw"/><use transform="matrix(0.05,0,0,0.05,30.950000000000003,0)" xlink:href="#X"/><use transform="matrix(0.05,0,0,0.05,40.95,0)" xlink:href="#ax"/><use transform="matrix(0.05,0,0,0.05,50.95,0)" xlink:href="#Z"/><use transform="matrix(0.05,0,0,0.05,55.95,0)" xlink:href="#ay"/><use transform="matrix(0.05,0,0,0.05,60.95,0)" xlink:href="#bk"/></g><path d="M140-251c81 0 123 46 123 126C263-46 219 4 140 4 59 4 17-45 17-125s42-126 123-126zm0 227c63 0 89-41 89-101s-29-99-89-99c-61 0-89 39-89 99S79-25 140-24" id="bl"/><path d="M185-189c-5-48-123-54-124 2 14 75 158 14 163 119 3 78-121 87-175 55-17-10-28-26-33-46l33-7c5 56 141 63 141-1 0-78-155-14-162-118-5-82 145-84 179-34 5 7 8 16 11 25" id="bm"/><path d="M160-131c35 5 61 23 61 61C221 17 115-2 30 0v-248c76 3 177-17 177 60 0 33-19 50-47 57zm-97-11c50-1 110 9 110-42 0-47-63-36-110-37v79zm0 115c55-2 124 14 124-45 0-56-70-42-124-44v89" id="bn"/><path d="M30 0v-248h33v221h125V0H30" id="bo"/><path d="M-5 72V49h209v23H-5" id="bp"/><path d="M232-93c-1 65-40 97-104 97C67 4 28-28 28-90v-158h33c8 89-33 224 67 224 102 0 64-133 71-224h33v155" id="bq"/><path d="M212-179c-10-28-35-45-73-45-59 0-87 40-87 99 0 60 29 101 89 101 43 0 62-24 78-52l27 14C228-24 195 4 139 4 59 4 22-46 18-125c-6-104 99-153 187-111 19 9 31 26 39 46" id="br"/><path d="M205 0l-28-72H64L36 0H1l101-248h38L239 0h-34zm-38-99l-47-123c-12 45-31 82-46 123h93" id="bs"/><g id="N"><use transform="matrix(0.05,0,0,0.05,0,0)" xlink:href="#au"/><use transform="matrix(0.05,0,0,0.05,12,0)" xlink:href="#bl"/><use transform="matrix(0.05,0,0,0.05,26,0)" xlink:href="#bm"/><use transform="matrix(0.05,0,0,0.05,38,0)" xlink:href="#bm"/><use transform="matrix(0.05,0,0,0.05,50,0)" xlink:href="#aR"/><use transform="matrix(0.05,0,0,0.05,55,0)" xlink:href="#bn"/><use transform="matrix(0.05,0,0,0.05,67,0)" xlink:href="#bo"/><use transform="matrix(0.05,0,0,0.05,77,0)" xlink:href="#aQ"/><use transform="matrix(0.05,0,0,0.05,89,0)" xlink:href="#bp"/><use transform="matrix(0.05,0,0,0.05,99,0)" xlink:href="#aS"/><use transform="matrix(0.05,0,0,0.05,111.95,0)" xlink:href="#bq"/><use transform="matrix(0.05,0,0,0.05,124.9,0)" xlink:href="#au"/><use transform="matrix(0.05,0,0,0.05,136.9,0)" xlink:href="#bo"/><use transform="matrix(0.05,0,0,0.05,146.9,0)" xlink:href="#aR"/><use transform="matrix(0.05,0,0,0.05,151.9,0)" xlink:href="#br"/><use transform="matrix(0.05,0,0,0.05,164.85,0)" xlink:href="#bs"/><use transform="matrix(0.05,0,0,0.05,175.5,0)" xlink:href="#W"/><use transform="matrix(0.05,0,0,0.05,186.45,0)" xlink:href="#aQ"/></g><path fill="#333" d="M238-95c0 69-44 99-111 99C63 4 22-25 22-93v-155h51v151c-1 38 19 59 55 60 90 1 49-130 58-211h52v153" id="bt"/><path fill="#333" d="M135-194c53 0 70 44 70 98 0 56-19 98-73 100-31 1-45-17-59-34 3 33 2 69 2 105H25l-1-265h48c2 10 0 23 3 31 11-24 29-35 60-35zM114-30c33 0 39-31 40-66 0-38-9-64-40-64-56 0-55 130 0 130" id="bu"/><path fill="#333" d="M88-194c31-1 46 15 58 34l-1-101h50l1 261h-48c-2-10 0-23-3-31C134-8 116 4 84 4 32 4 16-41 15-95c0-56 19-97 73-99zm17 164c33 0 40-30 41-66 1-37-9-64-41-64s-38 30-39 65c0 43 13 65 39 65" id="bv"/><g id="O"><use transform="matrix(0.06790123456790124,0,0,0.06790123456790124,0,0)" xlink:href="#bt"/><use transform="matrix(0.06790123456790124,0,0,0.06790123456790124,17.58641975308642,0)" xlink:href="#bu"/><use transform="matrix(0.06790123456790124,0,0,0.06790123456790124,32.45679012345679,0)" xlink:href="#bv"/><use transform="matrix(0.06790123456790124,0,0,0.06790123456790124,47.327160493827165,0)" xlink:href="#aY"/><use transform="matrix(0.06790123456790124,0,0,0.06790123456790124,60.90740740740741,0)" xlink:href="#aX"/><use transform="matrix(0.06790123456790124,0,0,0.06790123456790124,68.98765432098766,0)" xlink:href="#ba"/></g><path fill="#333" d="M137-138c1-29-70-34-71-4 15 46 118 7 119 86 1 83-164 76-172 9l43-7c4 19 20 25 44 25 33 8 57-30 24-41C81-84 22-81 20-136c-2-80 154-74 161-7" id="bw"/><g id="P"><use transform="matrix(0.06790123456790124,0,0,0.06790123456790124,0,0)" xlink:href="#bt"/><use transform="matrix(0.06790123456790124,0,0,0.06790123456790124,17.58641975308642,0)" xlink:href="#bw"/><use transform="matrix(0.06790123456790124,0,0,0.06790123456790124,31.16666666666667,0)" xlink:href="#ba"/></g><path fill="#333" d="M67-125c0 53 21 87 73 88 37 1 54-22 65-47l45 17C233-25 199 4 140 4 58 4 20-42 15-125 8-235 124-281 211-232c18 10 29 29 36 50l-46 12c-8-25-30-41-62-41-52 0-71 34-72 86" id="bx"/><g id="Q"><use transform="matrix(0.06790123456790124,0,0,0.06790123456790124,0,0)" xlink:href="#bx"/><use transform="matrix(0.06790123456790124,0,0,0.06790123456790124,17.58641975308642,0)" xlink:href="#aY"/><use transform="matrix(0.06790123456790124,0,0,0.06790123456790124,31.16666666666667,0)" xlink:href="#bw"/><use transform="matrix(0.06790123456790124,0,0,0.06790123456790124,44.74691358024692,0)" xlink:href="#ba"/></g><path fill="#333" d="M160-152l-12 59h37v26h-43L128 0h-28l14-67H60L46 0H20l13-67H6v-26h33l13-59H15v-26h42l15-67h27l-15 67h54l15-67h27l-14 67h28v26h-34zm-81 0L66-93h55l12-59H79" id="by"/><path fill="#333" d="M128-127c34 4 56 21 59 58 7 91-148 94-172 28-4-9-6-17-7-26l51-5c1 24 16 35 40 36 23 0 39-12 38-36-1-31-31-36-65-34v-40c32 2 59-3 59-33 0-20-13-33-34-33s-33 13-35 32l-50-3c6-44 37-68 86-68 50 0 83 20 83 66 0 35-22 52-53 58" id="bz"/><g id="R"><use transform="matrix(0.06790123456790124,0,0,0.06790123456790124,0,0)" xlink:href="#by"/><use transform="matrix(0.06790123456790124,0,0,0.06790123456790124,13.580246913580249,0)" xlink:href="#bz"/></g><path fill="#333" d="M24 0v-248h195v40H76v63h132v40H76v65h150V0H24" id="bA"/><g id="S"><use transform="matrix(0.05,0,0,0.05,0,0)" xlink:href="#bA"/><use transform="matrix(0.05,0,0,0.05,12,0)" xlink:href="#bj"/><use transform="matrix(0.05,0,0,0.05,22.950000000000003,0)" xlink:href="#bv"/></g><path d="M18-150v-26h174v26H18zm0 90v-26h174v26H18" id="bB"/><use transform="matrix(0.05,0,0,0.05,0,0)" xlink:href="#bB" id="T"/><path d="M233-177c-1 41-23 64-60 70L243 0h-38l-65-103H63V0H30v-248c88 3 205-21 203 71zM63-129c60-2 137 13 137-47 0-61-80-42-137-45v92" id="bC"/><path d="M137 0h-34L2-248h35l83 218 83-218h36" id="bD"/><path d="M190 0L58-211 59 0H30v-248h39L202-35l-2-213h31V0h-41" id="bE"/><path d="M240 0l2-218c-23 76-54 145-80 218h-23L58-218 59 0H30v-248h44l77 211c21-75 51-140 76-211h43V0h-30" id="bF"/><g id="U"><use transform="matrix(0.05,0,0,0.05,0,0)" xlink:href="#au"/><use transform="matrix(0.05,0,0,0.05,12,0)" xlink:href="#bC"/><use transform="matrix(0.05,0,0,0.05,24.950000000000003,0)" xlink:href="#aQ"/><use transform="matrix(0.05,0,0,0.05,36.95,0)" xlink:href="#bD"/><use transform="matrix(0.05,0,0,0.05,48.95,0)" xlink:href="#aQ"/><use transform="matrix(0.05,0,0,0.05,60.95,0)" xlink:href="#bE"/><use transform="matrix(0.05,0,0,0.05,73.9,0)" xlink:href="#W"/><use transform="matrix(0.05,0,0,0.05,84.85000000000001,0)" xlink:href="#bp"/><use transform="matrix(0.05,0,0,0.05,94.85000000000001,0)" xlink:href="#aQ"/><use transform="matrix(0.05,0,0,0.05,106.85000000000001,0)" xlink:href="#aR"/><use transform="matrix(0.05,0,0,0.05,111.85000000000001,0)" xlink:href="#aS"/><use transform="matrix(0.05,0,0,0.05,124.80000000000001,0)" xlink:href="#bp"/><use transform="matrix(0.05,0,0,0.05,134.8,0)" xlink:href="#bq"/><use transform="matrix(0.05,0,0,0.05,147.75,0)" xlink:href="#au"/><use transform="matrix(0.05,0,0,0.05,159.75,0)" xlink:href="#aS"/><use transform="matrix(0.05,0,0,0.05,172.7,0)" xlink:href="#bs"/><use transform="matrix(0.05,0,0,0.05,183.35,0)" xlink:href="#W"/><use transform="matrix(0.05,0,0,0.05,194.29999999999998,0)" xlink:href="#aQ"/><use transform="matrix(0.05,0,0,0.05,206.29999999999995,0)" xlink:href="#bm"/><use transform="matrix(0.05,0,0,0.05,218.29999999999995,0)" xlink:href="#bp"/><use transform="matrix(0.05,0,0,0.05,228.29999999999995,0)" xlink:href="#bF"/><use transform="matrix(0.05,0,0,0.05,243.24999999999997,0)" xlink:href="#bl"/><use transform="matrix(0.05,0,0,0.05,257.25,0)" xlink:href="#aS"/><use transform="matrix(0.05,0,0,0.05,270.2,0)" xlink:href="#aQ"/></g><path d="M266 0h-40l-56-210L115 0H75L2-248h35L96-30l15-64 43-154h32l59 218 59-218h35" id="bG"/><g id="V"><use transform="matrix(0.05,0,0,0.05,0,0)" xlink:href="#bs"/><use transform="matrix(0.05,0,0,0.05,12,0)" xlink:href="#bo"/><use transform="matrix(0.05,0,0,0.05,22,0)" xlink:href="#bo"/><use transform="matrix(0.05,0,0,0.05,32,0)" xlink:href="#bl"/><use transform="matrix(0.05,0,0,0.05,46,0)" xlink:href="#bG"/><use transform="matrix(0.05,0,0,0.05,62.95,0)" xlink:href="#bp"/><use transform="matrix(0.05,0,0,0.05,72.95,0)" xlink:href="#aQ"/><use transform="matrix(0.05,0,0,0.05,84.95,0)" xlink:href="#aR"/><use transform="matrix(0.05,0,0,0.05,89.95,0)" xlink:href="#aS"/><use transform="matrix(0.05,0,0,0.05,102.9,0)" xlink:href="#bp"/><use transform="matrix(0.05,0,0,0.05,112.9,0)" xlink:href="#bq"/><use transform="matrix(0.05,0,0,0.05,125.85000000000001,0)" xlink:href="#au"/><use transform="matrix(0.05,0,0,0.05,137.85000000000002,0)" xlink:href="#aS"/><use transform="matrix(0.05,0,0,0.05,150.8,0)" xlink:href="#bs"/><use transform="matrix(0.05,0,0,0.05,161.45000000000002,0)" xlink:href="#W"/><use transform="matrix(0.05,0,0,0.05,172.4,0)" xlink:href="#aQ"/><use transform="matrix(0.05,0,0,0.05,184.4,0)" xlink:href="#bm"/><use transform="matrix(0.05,0,0,0.05,196.4,0)" xlink:href="#bp"/><use transform="matrix(0.05,0,0,0.05,206.4,0)" xlink:href="#bF"/><use transform="matrix(0.05,0,0,0.05,221.35000000000002,0)" xlink:href="#bl"/><use transform="matrix(0.05,0,0,0.05,235.35000000000002,0)" xlink:href="#aS"/><use transform="matrix(0.05,0,0,0.05,248.29999999999995,0)" xlink:href="#aQ"/></g></defs></g></svg>