<svg xmlns="http://www.w3.org/2000/svg" xmlns:xlink="http://www.w3.org/1999/xlink" xmlns:lucid="lucid" width="2034" height="562"><g transform="translate(1771 1911)" lucid:page-tab-id="0_0"><path d="M-1806.4-2518.4h3676.8v7619.2h-3676.8z" fill="#fff"/><path d="M-1720-1360H120v1100h-1840zM-1728.28-1900H118.98v540h-1847.26z" stroke="#fff" stroke-width="2" fill="#fff"/><use xlink:href="#a" transform="matrix(1,0,0,1,-1723.2759146673782,-1895) translate(902.525 271.11875)"/><path d="M-1552.48-1844.2c0-4.4 3.58-8 8-8h275.24c4.42 0 8 3.6 8 8v44c0 4.42-3.58 8-8 8h-275.24c-4.42 0-8-3.58-8-8z" fill="none"/><use xlink:href="#b" transform="matrix(1,0,0,1,-1552.4845960575306,-1852.1944444443989) translate(2.674999999999983 33.6)"/><use xlink:href="#c" transform="matrix(1,0,0,1,-1552.4845960575306,-1852.1944444443989) translate(18.674999999999983 33.6)"/><use xlink:href="#d" transform="matrix(1,0,0,1,-1552.4845960575306,-1852.1944444443989) translate(70.57499999999999 33.6)"/><use xlink:href="#e" transform="matrix(1,0,0,1,-1552.4845960575306,-1852.1944444443989) translate(129.52499999999998 33.6)"/><use xlink:href="#f" transform="matrix(1,0,0,1,-1552.4845960575306,-1852.1944444443989) translate(147.475 33.6)"/><use xlink:href="#g" transform="matrix(1,0,0,1,-1552.4845960575306,-1852.1944444443989) translate(199.375 33.6)"/><use xlink:href="#h" transform="matrix(1,0,0,1,-1552.4845960575306,-1852.1944444443989) translate(219.375 33.6)"/><use xlink:href="#i" transform="matrix(1,0,0,1,-1552.4845960575306,-1852.1944444443989) translate(234.375 33.6)"/><path d="M-970.8-1586.7c0 33.14-26.86 60-60 60s-60-26.86-60-60c0-33.13 26.86-60 60-60s60 26.87 60 60z" stroke="#333" fill="#fff"/><use xlink:href="#j" transform="matrix(1,0,0,1,-1090.7992995867216,-1646.6944444444898) translate(24.529999999999994 51.9)"/><use xlink:href="#k" transform="matrix(1,0,0,1,-1090.7992995867216,-1646.6944444444898) translate(36.18 73.5)"/><path d="M-949.68-1586.7h12.77c.26 0 .5-.22.5-.5 0-.27.2-.5.5-.5h12.75" stroke="#333" stroke-width="3" fill="none"/><path d="M-965.44-1586.7l14.26-4.63v9.27zM-907.38-1587.7l-14.27 4.64v-9.27z" stroke="#333" stroke-width="3" fill="#333"/><path d="M-370.8-1758.7c0-4.4 3.58-8 8-8h384c4.42 0 8 3.6 8 8v344c0 4.42-3.58 8-8 8h-384c-4.42 0-8-3.58-8-8z" stroke="#333" fill="#fff"/><path d="M-219.57-1506.7c0 33.14-26.86 60-60 60s-60-26.86-60-60c0-33.13 26.86-60 60-60s60 26.87 60 60z" stroke="#333" fill="#fff"/><use xlink:href="#j" transform="matrix(1,0,0,1,-339.57010848209666,-1566.6944444444898) translate(24.529999999999994 51.9)"/><use xlink:href="#k" transform="matrix(1,0,0,1,-339.57010848209666,-1566.6944444444898) translate(36.18 73.5)"/><path d="M-226.88-1795.35c0-4.42 3.58-8 8-8h120.4c4.43 0 8 3.58 8 8v37.3c0 4.43-3.57 8-8 8h-120.4c-4.42 0-8-3.57-8-8z" stroke="#000" stroke-opacity="0" fill="#ffeca9"/><use xlink:href="#l" transform="matrix(1,0,0,1,-226.88451329142356,-1803.347222222245) translate(26.599999999999994 31.275)"/><use xlink:href="#m" transform="matrix(1,0,0,1,-226.88451329142356,-1803.347222222245) translate(65.5 31.275)"/><path d="M12.9-1642.2c0 33.14-26.87 60-60 60-33.15 0-60-26.86-60-60 0-33.13 26.85-60 60-60 33.13 0 60 26.87 60 60z" stroke="#333" fill="#fff"/><use xlink:href="#n" transform="matrix(1,0,0,1,-107.11172627284714,-1702.1944444443989) translate(31.53 51.9)"/><use xlink:href="#o" transform="matrix(1,0,0,1,-107.11172627284714,-1702.1944444443989) translate(36.18 73.5)"/><path d="M-161.84-1518.6l-.45 3.4-1.33 3.25-2.16 2.8-2.8 2.17-3.24 1.34-3.4.45h-23.2v-3h23l2.82-.36 2.5-1.05 2.2-1.68 1.67-2.18 1.04-2.5.36-2.83v-44.84h3zm33.6-122.1h-23l-2.82.38-2.52 1.04-2.18 1.67-1.67 2.17-1.04 2.5-.37 2.83v44.86h-3v-45.05l.45-3.4 1.35-3.24 2.15-2.8 2.8-2.16 3.25-1.35 3.4-.44h23.22zM-199.95-1502.06l-14.27-4.63 14.27-4.63z" fill="#333"/><path d="M-198.45-1500l-20.62-6.7 20.62-6.7zm-10.9-6.7l7.9 2.58v-5.15zM-112.47-1642.2l-14.26 4.64v-9.27z" fill="#333"/><path d="M-107.6-1642.2l-20.63 6.7v-13.4zm-17.63 2.58l7.9-2.57-7.9-2.57z" fill="#333"/><use xlink:href="#p" transform="matrix(1,0,0,1,-194.56591737747192,-1585.2444444444443) translate(0.004999999999999005 14.4)"/><path d="M-161.84-1518.6l-.45 3.4-1.33 3.25-2.16 2.8-2.8 2.17-3.24 1.34-3.4.45h-23.2v-3h23l2.82-.36 2.5-1.04 2.2-1.68 1.67-2.18 1.04-2.5.36-2.83v-44.84h3zm33.6-122.1h-23l-2.82.38-2.52 1.04-2.18 1.67-1.67 2.17-1.04 2.5-.37 2.83v44.86h-3v-45.05l.45-3.4 1.35-3.24 2.15-2.8 2.8-2.16 3.25-1.35 3.4-.44h23.22zM-112.47-1642.2l-14.26 4.64v-9.27z" fill="#333"/><path d="M-107.6-1642.2l-20.63 6.7v-13.4zm-17.63 2.58l7.9-2.57-7.9-2.57zM-199.95-1502.06l-14.27-4.63 14.27-4.63z" fill="#333"/><path d="M-198.45-1500l-20.62-6.7 20.62-6.7zm-10.9-6.7l7.9 2.58v-5.15z" fill="#333"/><path d="M-903.28-1852c0-4.42 3.58-8 8-8h384c4.42 0 8 3.58 8 8v44c0 4.42-3.58 8-8 8h-384c-4.42 0-8-3.58-8-8z" stroke="#000" stroke-opacity="0" fill="#fff" fill-opacity="0"/><use xlink:href="#q" transform="matrix(1,0,0,1,-903.2792703360134,-1860) translate(27.316666666666634 21.366666666666667)"/><use xlink:href="#r" transform="matrix(1,0,0,1,-903.2792703360134,-1860) translate(86.00925925925924 21.366666666666667)"/><use xlink:href="#s" transform="matrix(1,0,0,1,-903.2792703360134,-1860) translate(103.29444444444444 21.366666666666667)"/><use xlink:href="#t" transform="matrix(1,0,0,1,-903.2792703360134,-1860) translate(170.70185185185184 21.366666666666667)"/><use xlink:href="#u" transform="matrix(1,0,0,1,-903.2792703360134,-1860) translate(188.95 21.366666666666667)"/><use xlink:href="#v" transform="matrix(1,0,0,1,-903.2792703360134,-1860) translate(230.3574074074074 21.366666666666667)"/><use xlink:href="#w" transform="matrix(1,0,0,1,-903.2792703360134,-1860) translate(244.80185185185186 21.366666666666667)"/><use xlink:href="#x" transform="matrix(1,0,0,1,-903.2792703360134,-1860) translate(280.3833333333333 21.366666666666667)"/><use xlink:href="#y" transform="matrix(1,0,0,1,-903.2792703360134,-1860) translate(314.087037037037 21.366666666666667)"/><use xlink:href="#z" transform="matrix(1,0,0,1,-903.2792703360134,-1860) translate(327.5203703703704 21.366666666666667)"/><use xlink:href="#A" transform="matrix(1,0,0,1,-903.2792703360134,-1860) translate(63.861111111111086 42.16666666666667)"/><use xlink:href="#v" transform="matrix(1,0,0,1,-903.2792703360134,-1860) translate(125.49074074074073 42.16666666666667)"/><use xlink:href="#B" transform="matrix(1,0,0,1,-903.2792703360134,-1860) translate(139.93518518518516 42.16666666666667)"/><use xlink:href="#C" transform="matrix(1,0,0,1,-903.2792703360134,-1860) translate(170.65370370370368 42.16666666666667)"/><use xlink:href="#D" transform="matrix(1,0,0,1,-903.2792703360134,-1860) translate(222.6537037037037 42.16666666666667)"/><use xlink:href="#E" transform="matrix(1,0,0,1,-903.2792703360134,-1860) translate(246.7277777777778 42.16666666666667)"/><use xlink:href="#F" transform="matrix(1,0,0,1,-903.2792703360134,-1860) translate(293.86481481481485 42.16666666666667)"/><path d="M-1591.3-1754.2c0-4.4 3.58-8 8-8h372.77c4.42 0 8 3.6 8 8v344c0 4.42-3.58 8-8 8h-372.77c-4.42 0-8-3.58-8-8z" stroke="#333" fill="#fff"/><path d="M-1440.07-1506.7c0 33.14-26.86 60-60 60s-60-26.86-60-60c0-33.13 26.86-60 60-60s60 26.87 60 60z" stroke="#333" fill="#fff"/><use xlink:href="#j" transform="matrix(1,0,0,1,-1560.0704203399628,-1566.6944444444898) translate(24.529999999999994 51.9)"/><use xlink:href="#G" transform="matrix(1,0,0,1,-1560.0704203399628,-1566.6944444444898) translate(39.154999999999994 73.5)"/><path d="M-1476.48-1792c0-4.42 3.6-8 8-8h123.23c4.42 0 8 3.58 8 8v30.7c0 4.4-3.58 8-8 8h-123.23c-4.4 0-8-3.6-8-8z" stroke="#000" stroke-opacity="0" fill="#ffeca9"/><use xlink:href="#H" transform="matrix(1,0,0,1,-1476.4765720326009,-1800) translate(24.599999999999994 26.15)"/><use xlink:href="#m" transform="matrix(1,0,0,1,-1476.4765720326009,-1800) translate(70.5 26.15)"/><path d="M-1237.6-1636.7c0 33.14-26.87 60-60 60-33.15 0-60-26.86-60-60 0-33.13 26.85-60 60-60 33.13 0 60 26.87 60 60z" stroke="#333" fill="#fff"/><use xlink:href="#n" transform="matrix(1,0,0,1,-1357.6120381307132,-1696.6944444444898) translate(31.53 51.9)"/><use xlink:href="#G" transform="matrix(1,0,0,1,-1357.6120381307132,-1696.6944444444898) translate(39.154999999999994 73.5)"/><path d="M-1400-1736.7h110.4l12 12v48H-1400z" stroke="#333" fill="#fff"/><path d="M-1289.6-1736.22v11.53h11.5" stroke="#333" fill="#fff"/><use xlink:href="#I" transform="matrix(1,0,0,1,-1400,-1736.6944444444898) translate(3.624999999999993 33.15)"/><path d="M-1397.34-1518.6l-.45 3.4-1.33 3.25-2.16 2.8-2.8 2.17-3.24 1.34-3.4.45h-8.2v-3h8l2.82-.36 2.5-1.05 2.2-1.68 1.67-2.18 1.04-2.5.36-2.83v-42.1h3zm18.6-116.6h-8l-2.82.38-2.52 1.04-2.18 1.67-1.67 2.17-1.04 2.5-.37 2.83v42.1h-3v-42.3l.45-3.4 1.35-3.24 2.15-2.8 2.8-2.16 3.25-1.35 3.4-.44h8.22zM-1420.45-1502.06l-14.27-4.63 14.27-4.63z" fill="#333"/><path d="M-1418.95-1500l-20.62-6.7 20.62-6.7zm-10.9-6.7l7.9 2.58v-5.15zM-1362.97-1636.7l-14.26 4.64v-9.27z" fill="#333"/><path d="M-1358.1-1636.7l-20.63 6.7v-13.4zm-17.63 2.58l7.9-2.57-7.9-2.57z" fill="#333"/><use xlink:href="#p" transform="matrix(1,0,0,1,-1430.066229235338,-1582.4944444444898) translate(0.004999999999999005 14.4)"/><path d="M-1397.34-1518.6l-.45 3.4-1.33 3.25-2.16 2.8-2.8 2.17-3.24 1.34-3.4.45h-8.2v-3h8l2.82-.36 2.5-1.04 2.2-1.68 1.67-2.18 1.04-2.5.36-2.83v-42.1h3zm18.6-116.6h-8l-2.82.38-2.52 1.04-2.18 1.67-1.67 2.17-1.04 2.5-.37 2.83v42.1h-3v-42.3l.45-3.4 1.35-3.24 2.15-2.8 2.8-2.16 3.25-1.35 3.4-.44h8.22zM-1362.97-1636.7l-14.26 4.64v-9.27z" fill="#333"/><path d="M-1358.1-1636.7l-20.63 6.7v-13.4zm-17.63 2.58l7.9-2.57-7.9-2.57zM-1420.45-1502.06l-14.27-4.63 14.27-4.63z" fill="#333"/><path d="M-1418.95-1500l-20.62-6.7 20.62-6.7zm-10.9-6.7l7.9 2.58v-5.15z" fill="#333"/><path d="M-902.03-1759.7c0-4.4 3.58-8 8-8h372.77c4.42 0 8 3.6 8 8v344c0 4.42-3.58 8-8 8h-372.77c-4.42 0-8-3.58-8-8z" stroke="#333" fill="#fff"/><path d="M-750.8-1512.2c0 33.14-26.86 60-60 60s-60-26.86-60-60c0-33.13 26.86-60 60-60s60 26.87 60 60z" stroke="#333" fill="#fff"/><g><use xlink:href="#j" transform="matrix(1,0,0,1,-870.799299586721,-1572.1944444443989) translate(24.529999999999994 51.9)"/><use xlink:href="#G" transform="matrix(1,0,0,1,-870.799299586721,-1572.1944444443989) translate(39.154999999999994 73.5)"/></g><path d="M-757.64-1792.6c0-4.42 3.58-8 8-8h112.08c4.4 0 8 3.58 8 8v31.8c0 4.43-3.6 8-8 8h-112.08c-4.42 0-8-3.57-8-8z" stroke="#000" stroke-opacity="0" fill="#ffeca9"/><g><use xlink:href="#J" transform="matrix(1,0,0,1,-757.6378761931828,-1800.5972222222904) translate(36.099999999999994 26.4)"/></g><path d="M-548.34-1642.2c0 33.14-26.86 60-60 60s-60-26.86-60-60c0-33.13 26.86-60 60-60s60 26.87 60 60z" stroke="#333" fill="#fff"/><g><use xlink:href="#n" transform="matrix(1,0,0,1,-668.3409173774717,-1702.1944444443989) translate(31.53 51.9)"/><use xlink:href="#G" transform="matrix(1,0,0,1,-668.3409173774717,-1702.1944444443989) translate(39.154999999999994 73.5)"/></g><path d="M-699.57-1742.2h99.23l12 12v48h-111.23z" stroke="#333" fill="#fff"/><path d="M-600.34-1741.72v11.53h11.52" stroke="#333" fill="#fff"/><g><use xlink:href="#I" transform="matrix(1,0,0,1,-699.5701084820967,-1742.1944444443989) translate(-1.375000000000007 33.6)"/></g><path d="M-708.07-1524.1l-.45 3.4-1.34 3.25-2.15 2.8-2.82 2.17-3.24 1.34-3.4.45h-8.22v-3h8l2.83-.36 2.5-1.05 2.2-1.68 1.67-2.18 1.04-2.5.37-2.83v-42.1h3zm18.6-116.6h-8l-2.82.38-2.5 1.04-2.2 1.67-1.66 2.17-1.04 2.5-.37 2.83v42.1h-3v-42.3l.45-3.4 1.34-3.24 2.15-2.8 2.8-2.16 3.25-1.35 3.4-.44h8.22zM-731.18-1507.56l-14.26-4.63 14.26-4.63z" fill="#333"/><path d="M-729.68-1505.5l-20.62-6.7 20.62-6.7zm-10.9-6.7l7.9 2.58v-5.15zM-673.7-1642.2l-14.26 4.64v-9.27z" fill="#333"/><path d="M-668.84-1642.2l-20.62 6.7v-13.4zm-17.62 2.58l7.9-2.57-7.9-2.57z" fill="#333"/><g><use xlink:href="#p" transform="matrix(1,0,0,1,-740.7951084820963,-1587.9944444443988) translate(0.004999999999999005 14.4)"/></g><path d="M-708.07-1524.1l-.45 3.4-1.34 3.25-2.16 2.8-2.8 2.17-3.25 1.34-3.4.45h-8.2v-3h8l2.82-.36 2.5-1.04 2.2-1.68 1.67-2.18 1.04-2.5.37-2.83v-42.1h3zm18.6-116.6h-8l-2.82.38-2.5 1.04-2.2 1.67-1.66 2.17-1.04 2.5-.37 2.83v42.1h-3v-42.3l.45-3.4 1.34-3.24 2.15-2.8 2.8-2.16 3.25-1.35 3.4-.44h8.22zM-673.7-1642.2l-14.26 4.64v-9.27z" fill="#333"/><path d="M-668.84-1642.2l-20.62 6.7v-13.4zm-17.62 2.58l7.9-2.57-7.9-2.57zM-731.18-1507.56l-14.26-4.63 14.26-4.63z" fill="#333"/><path d="M-729.68-1505.5l-20.62-6.7 20.62-6.7zm-10.9-6.7l7.9 2.58v-5.15z" fill="#333"/><path d="M-360.8-1844.2c0-4.4 3.58-8 8-8h384c4.42 0 8 3.6 8 8v44c0 4.42-3.58 8-8 8h-384c-4.42 0-8-3.58-8-8z" stroke="#000" stroke-opacity="0" fill="#fff" fill-opacity="0"/><g><use xlink:href="#K" transform="matrix(1,0,0,1,-360.79929958672244,-1852.1944444443989) translate(58.083333333333314 32.61666666666667)"/><use xlink:href="#r" transform="matrix(1,0,0,1,-360.79929958672244,-1852.1944444443989) translate(99.44259259259258 32.61666666666667)"/><use xlink:href="#s" transform="matrix(1,0,0,1,-360.79929958672244,-1852.1944444443989) translate(116.72777777777777 32.61666666666667)"/><use xlink:href="#t" transform="matrix(1,0,0,1,-360.79929958672244,-1852.1944444443989) translate(184.1351851851852 32.61666666666667)"/><use xlink:href="#L" transform="matrix(1,0,0,1,-360.79929958672244,-1852.1944444443989) translate(202.38333333333335 32.61666666666667)"/><use xlink:href="#M" transform="matrix(1,0,0,1,-360.79929958672244,-1852.1944444443989) translate(231.27222222222224 32.61666666666667)"/><use xlink:href="#N" transform="matrix(1,0,0,1,-360.79929958672244,-1852.1944444443989) translate(290.9277777777778 32.61666666666667)"/></g><path d="M-169.55-1736.7h107.5l12 12v48h-119.5z" stroke="#333" fill="#fff"/><path d="M-62.05-1736.22v11.53h11.52" stroke="#333" fill="#fff"/><g><use xlink:href="#I" transform="matrix(1,0,0,1,-169.54851994205455,-1736.6944444444898) translate(2.124999999999993 33.15)"/></g><path d="M-1720-1868.7c0-4.4 3.58-8 8-8h210.4c4.43 0 8 3.6 8 8v44c0 4.42-3.57 8-8 8H-1712c-4.42 0-8-3.58-8-8z" stroke="#000" stroke-opacity="0" fill="#fff" fill-opacity="0"/><g><use xlink:href="#O" transform="matrix(1,0,0,1,-1720,-1876.6944444444898) translate(13.393888888888876 19.555555555555557)"/><use xlink:href="#P" transform="matrix(1,0,0,1,-1720,-1876.6944444444898) translate(102.75191358024692 19.555555555555557)"/><use xlink:href="#Q" transform="matrix(1,0,0,1,-1720,-1876.6944444444898) translate(154.28895061728394 19.555555555555557)"/><use xlink:href="#R" transform="matrix(1,0,0,1,-1720,-1876.6944444444898) translate(99.42475308641976 48.88888888888889)"/></g><path d="M-1706.48-1332c0-4.42 3.58-8 8-8h210.4c4.43 0 8 3.58 8 8v44c0 4.42-3.57 8-8 8h-210.4c-4.42 0-8-3.58-8-8z" stroke="#000" stroke-opacity="0" fill="#fff" fill-opacity="0"/><g><use xlink:href="#O" transform="matrix(1,0,0,1,-1706.4817820830763,-1340) translate(13.393888888888876 19.555555555555557)"/><use xlink:href="#P" transform="matrix(1,0,0,1,-1706.4817820830763,-1340) translate(102.75191358024692 19.555555555555557)"/><use xlink:href="#Q" transform="matrix(1,0,0,1,-1706.4817820830763,-1340) translate(154.28895061728394 19.555555555555557)"/><use xlink:href="#S" transform="matrix(1,0,0,1,-1706.4817820830763,-1340) translate(99.42475308641976 48.88888888888889)"/></g><defs><path d="M127-220V0H93v-220H8v-28h204v28h-85" id="T"/><path d="M100-194c63 0 86 42 84 106H49c0 40 14 67 53 68 26 1 43-12 49-29l28 8c-11 28-37 45-77 45C44 4 14-33 15-96c1-61 26-98 85-98zm52 81c6-60-76-77-97-28-3 7-6 17-6 28h103" id="U"/><path d="M141 0L90-78 38 0H4l68-98-65-92h35l48 74 47-74h35l-64 92 68 98h-35" id="V"/><path d="M59-47c-2 24 18 29 38 22v24C64 9 27 4 27-40v-127H5v-23h24l9-43h21v43h35v23H59v120" id="W"/><g id="a"><use transform="matrix(0.05,0,0,0.05,0,0)" xlink:href="#T"/><use transform="matrix(0.05,0,0,0.05,8.950000000000001,0)" xlink:href="#U"/><use transform="matrix(0.05,0,0,0.05,18.950000000000003,0)" xlink:href="#V"/><use transform="matrix(0.05,0,0,0.05,27.950000000000003,0)" xlink:href="#W"/></g><path fill="#333" d="M205 0l-28-72H64L36 0H1l101-248h38L239 0h-34zm-38-99l-47-123c-12 45-31 82-46 123h93" id="X"/><use transform="matrix(0.05,0,0,0.05,0,0)" xlink:href="#X" id="b"/><path fill="#333" d="M135-143c-3-34-86-38-87 0 15 53 115 12 119 90S17 21 10-45l28-5c4 36 97 45 98 0-10-56-113-15-118-90-4-57 82-63 122-42 12 7 21 19 24 35" id="Y"/><path fill="#333" d="M24-231v-30h32v30H24zM24 0v-190h32V0H24" id="Z"/><path fill="#333" d="M117-194c89-4 53 116 60 194h-32v-121c0-31-8-49-39-48C34-167 62-67 57 0H25l-1-190h30c1 10-1 24 2 32 11-22 29-35 61-36" id="aa"/><path fill="#333" d="M177-190C167-65 218 103 67 71c-23-6-38-20-44-43l32-5c15 47 100 32 89-28v-30C133-14 115 1 83 1 29 1 15-40 15-95c0-56 16-97 71-98 29-1 48 16 59 35 1-10 0-23 2-32h30zM94-22c36 0 50-32 50-73 0-42-14-75-50-75-39 0-46 34-46 75s6 73 46 73" id="ab"/><path fill="#333" d="M24 0v-261h32V0H24" id="ac"/><path fill="#333" d="M100-194c63 0 86 42 84 106H49c0 40 14 67 53 68 26 1 43-12 49-29l28 8c-11 28-37 45-77 45C44 4 14-33 15-96c1-61 26-98 85-98zm52 81c6-60-76-77-97-28-3 7-6 17-6 28h103" id="ad"/><g id="c"><use transform="matrix(0.05,0,0,0.05,0,0)" xlink:href="#Y"/><use transform="matrix(0.05,0,0,0.05,9,0)" xlink:href="#Z"/><use transform="matrix(0.05,0,0,0.05,12.949999999999998,0)" xlink:href="#aa"/><use transform="matrix(0.05,0,0,0.05,22.95,0)" xlink:href="#ab"/><use transform="matrix(0.05,0,0,0.05,32.95,0)" xlink:href="#ac"/><use transform="matrix(0.05,0,0,0.05,36.900000000000006,0)" xlink:href="#ad"/></g><path fill="#333" d="M115-194c55 1 70 41 70 98S169 2 115 4C84 4 66-9 55-30l1 105H24l-1-265h31l2 30c10-21 28-34 59-34zm-8 174c40 0 45-34 45-75s-6-73-45-74c-42 0-51 32-51 76 0 43 10 73 51 73" id="ae"/><path fill="#333" d="M141-36C126-15 110 5 73 4 37 3 15-17 15-53c-1-64 63-63 125-63 3-35-9-54-41-54-24 1-41 7-42 31l-33-3c5-37 33-52 76-52 45 0 72 20 72 64v82c-1 20 7 32 28 27v20c-31 9-61-2-59-35zM48-53c0 20 12 33 32 33 41-3 63-29 60-74-43 2-92-5-92 41" id="af"/><path fill="#333" d="M59-47c-2 24 18 29 38 22v24C64 9 27 4 27-40v-127H5v-23h24l9-43h21v43h35v23H59v120" id="ag"/><g id="d"><use transform="matrix(0.05,0,0,0.05,0,0)" xlink:href="#ae"/><use transform="matrix(0.05,0,0,0.05,10,0)" xlink:href="#af"/><use transform="matrix(0.05,0,0,0.05,20,0)" xlink:href="#ag"/><use transform="matrix(0.05,0,0,0.05,25,0)" xlink:href="#Z"/><use transform="matrix(0.05,0,0,0.05,28.950000000000003,0)" xlink:href="#ad"/><use transform="matrix(0.05,0,0,0.05,38.95,0)" xlink:href="#aa"/><use transform="matrix(0.05,0,0,0.05,48.95,0)" xlink:href="#ag"/></g><g id="e"><use transform="matrix(0.05,0,0,0.05,0,0)" xlink:href="#Z"/><use transform="matrix(0.05,0,0,0.05,3.95,0)" xlink:href="#Y"/></g><path fill="#333" d="M143 0L79-87 56-68V0H24v-261h32v163l83-92h37l-77 82L181 0h-38" id="ah"/><path fill="#333" d="M85-194c31 0 48 13 60 33l-1-100h32l1 261h-30c-2-10 0-23-3-31C134-8 116 4 85 4 32 4 16-35 15-94c0-66 23-100 70-100zm9 24c-40 0-46 34-46 75 0 40 6 74 45 74 42 0 51-32 51-76 0-42-9-74-50-73" id="ai"/><g id="f"><use transform="matrix(0.05,0,0,0.05,0,0)" xlink:href="#ac"/><use transform="matrix(0.05,0,0,0.05,3.95,0)" xlink:href="#Z"/><use transform="matrix(0.05,0,0,0.05,7.9,0)" xlink:href="#aa"/><use transform="matrix(0.05,0,0,0.05,17.9,0)" xlink:href="#ah"/><use transform="matrix(0.05,0,0,0.05,26.899999999999995,0)" xlink:href="#ad"/><use transform="matrix(0.05,0,0,0.05,36.9,0)" xlink:href="#ai"/></g><path fill="#333" d="M100-194c62-1 85 37 85 99 1 63-27 99-86 99S16-35 15-95c0-66 28-99 85-99zM99-20c44 1 53-31 53-75 0-43-8-75-51-75s-53 32-53 75 10 74 51 75" id="aj"/><g id="g"><use transform="matrix(0.05,0,0,0.05,0,0)" xlink:href="#ag"/><use transform="matrix(0.05,0,0,0.05,5,0)" xlink:href="#aj"/></g><use transform="matrix(0.05,0,0,0.05,0,0)" xlink:href="#af" id="h"/><path fill="#333" d="M114-163C36-179 61-72 57 0H25l-1-190h30c1 12-1 29 2 39 6-27 23-49 58-41v29" id="ak"/><g id="i"><use transform="matrix(0.05,0,0,0.05,0,0)" xlink:href="#ae"/><use transform="matrix(0.05,0,0,0.05,10,0)" xlink:href="#ad"/><use transform="matrix(0.05,0,0,0.05,20,0)" xlink:href="#ak"/><use transform="matrix(0.05,0,0,0.05,25.950000000000003,0)" xlink:href="#Y"/><use transform="matrix(0.05,0,0,0.05,34.95,0)" xlink:href="#aj"/><use transform="matrix(0.05,0,0,0.05,44.95,0)" xlink:href="#aa"/></g><path d="M30-248c87 1 191-15 191 75 0 78-77 80-158 76V0H30v-248zm33 125c57 0 124 11 124-50 0-59-68-47-124-48v98" id="al"/><path d="M141-36C126-15 110 5 73 4 37 3 15-17 15-53c-1-64 63-63 125-63 3-35-9-54-41-54-24 1-41 7-42 31l-33-3c5-37 33-52 76-52 45 0 72 20 72 64v82c-1 20 7 32 28 27v20c-31 9-61-2-59-35zM48-53c0 20 12 33 32 33 41-3 63-29 60-74-43 2-92-5-92 41" id="am"/><path d="M24-231v-30h32v30H24zM24 0v-190h32V0H24" id="an"/><path d="M117-194c89-4 53 116 60 194h-32v-121c0-31-8-49-39-48C34-167 62-67 57 0H25l-1-190h30c1 10-1 24 2 32 11-22 29-35 61-36" id="ao"/><path d="M0 4l72-265h28L28 4H0" id="ap"/><path d="M27 0v-27h64v-190l-56 39v-29l58-41h29v221h61V0H27" id="aq"/><g id="j"><use transform="matrix(0.05,0,0,0.05,0,0)" xlink:href="#al"/><use transform="matrix(0.05,0,0,0.05,12,0)" xlink:href="#am"/><use transform="matrix(0.05,0,0,0.05,22,0)" xlink:href="#W"/><use transform="matrix(0.05,0,0,0.05,27,0)" xlink:href="#an"/><use transform="matrix(0.05,0,0,0.05,30.950000000000003,0)" xlink:href="#U"/><use transform="matrix(0.05,0,0,0.05,40.95,0)" xlink:href="#ao"/><use transform="matrix(0.05,0,0,0.05,50.95,0)" xlink:href="#W"/><use transform="matrix(0.05,0,0,0.05,55.95,0)" xlink:href="#ap"/><use transform="matrix(0.05,0,0,0.05,60.95,0)" xlink:href="#aq"/></g><path d="M109-170H84l-4-78h32zm-65 0H19l-4-78h33" id="ar"/><path d="M177-190C167-65 218 103 67 71c-23-6-38-20-44-43l32-5c15 47 100 32 89-28v-30C133-14 115 1 83 1 29 1 15-40 15-95c0-56 16-97 71-98 29-1 48 16 59 35 1-10 0-23 2-32h30zM94-22c36 0 50-32 50-73 0-42-14-75-50-75-39 0-46 34-46 75s6 73 46 73" id="as"/><path d="M114-163C36-179 61-72 57 0H25l-1-190h30c1 12-1 29 2 39 6-27 23-49 58-41v29" id="at"/><path d="M179-190L93 31C79 59 56 82 12 73V49c39 6 53-20 64-50L1-190h34L92-34l54-156h33" id="au"/><g id="k"><use transform="matrix(0.05,0,0,0.05,0,0)" xlink:href="#ar"/><use transform="matrix(0.05,0,0,0.05,6.3500000000000005,0)" xlink:href="#as"/><use transform="matrix(0.05,0,0,0.05,16.35,0)" xlink:href="#am"/><use transform="matrix(0.05,0,0,0.05,26.35,0)" xlink:href="#at"/><use transform="matrix(0.05,0,0,0.05,32.300000000000004,0)" xlink:href="#au"/><use transform="matrix(0.05,0,0,0.05,41.300000000000004,0)" xlink:href="#ar"/></g><path fill="#333" d="M24 0v-248h195v40H76v63h132v40H76v65h150V0H24" id="av"/><path fill="#333" d="M135-194c87-1 58 113 63 194h-50c-7-57 23-157-34-157-59 0-34 97-39 157H25l-1-190h47c2 12-1 28 3 38 12-26 28-41 61-42" id="aw"/><path fill="#333" d="M88-194c31-1 46 15 58 34l-1-101h50l1 261h-48c-2-10 0-23-3-31C134-8 116 4 84 4 32 4 16-41 15-95c0-56 19-97 73-99zm17 164c33 0 40-30 41-66 1-37-9-64-41-64s-38 30-39 65c0 43 13 65 39 65" id="ax"/><g id="l"><use transform="matrix(0.05,0,0,0.05,0,0)" xlink:href="#av"/><use transform="matrix(0.05,0,0,0.05,12,0)" xlink:href="#aw"/><use transform="matrix(0.05,0,0,0.05,22.950000000000003,0)" xlink:href="#ax"/></g><path fill="#333" d="M169-182c-1-43-94-46-97-3 18 66 151 10 154 114 3 95-165 93-204 36-6-8-10-19-12-30l50-8c3 46 112 56 116 5-17-69-150-10-154-114-4-87 153-88 188-35 5 8 8 18 10 28" id="ay"/><path fill="#333" d="M115-3C79 11 28 4 28-45v-112H4v-33h27l15-45h31v45h36v33H77v99c-1 23 16 31 38 25v30" id="az"/><path fill="#333" d="M133-34C117-15 103 5 69 4 32 3 11-16 11-54c-1-60 55-63 116-61 1-26-3-47-28-47-18 1-26 9-28 27l-52-2c7-38 36-58 82-57s74 22 75 68l1 82c-1 14 12 18 25 15v27c-30 8-71 5-69-32zm-48 3c29 0 43-24 42-57-32 0-66-3-65 30 0 17 8 27 23 27" id="aA"/><path fill="#333" d="M185-48c-13 30-37 53-82 52C43 2 14-33 14-96s30-98 90-98c62 0 83 45 84 108H66c0 31 8 55 39 56 18 0 30-7 34-22zm-45-69c5-46-57-63-70-21-2 6-4 13-4 21h74" id="aB"/><g id="m"><use transform="matrix(0.05,0,0,0.05,0,0)" xlink:href="#ay"/><use transform="matrix(0.05,0,0,0.05,12,0)" xlink:href="#az"/><use transform="matrix(0.05,0,0,0.05,17.95,0)" xlink:href="#aA"/><use transform="matrix(0.05,0,0,0.05,27.950000000000003,0)" xlink:href="#az"/><use transform="matrix(0.05,0,0,0.05,33.9,0)" xlink:href="#aB"/></g><path d="M135-143c-3-34-86-38-87 0 15 53 115 12 119 90S17 21 10-45l28-5c4 36 97 45 98 0-10-56-113-15-118-90-4-57 82-63 122-42 12 7 21 19 24 35" id="aC"/><path d="M100-194c62-1 85 37 85 99 1 63-27 99-86 99S16-35 15-95c0-66 28-99 85-99zM99-20c44 1 53-31 53-75 0-43-8-75-51-75s-53 32-53 75 10 74 51 75" id="aD"/><g id="n"><use transform="matrix(0.05,0,0,0.05,0,0)" xlink:href="#al"/><use transform="matrix(0.05,0,0,0.05,12,0)" xlink:href="#U"/><use transform="matrix(0.05,0,0,0.05,22,0)" xlink:href="#at"/><use transform="matrix(0.05,0,0,0.05,27.950000000000003,0)" xlink:href="#aC"/><use transform="matrix(0.05,0,0,0.05,36.95,0)" xlink:href="#aD"/><use transform="matrix(0.05,0,0,0.05,46.95,0)" xlink:href="#ao"/></g><g id="o"><use transform="matrix(0.05,0,0,0.05,0,0)" xlink:href="#ar"/><use transform="matrix(0.05,0,0,0.05,6.3500000000000005,0)" xlink:href="#as"/><use transform="matrix(0.05,0,0,0.05,16.35,0)" xlink:href="#am"/><use transform="matrix(0.05,0,0,0.05,26.35,0)" xlink:href="#at"/><use transform="matrix(0.05,0,0,0.05,32.300000000000004,0)" xlink:href="#au"/><use transform="matrix(0.05,0,0,0.05,41.300000000000004,0)" xlink:href="#ar"/></g><path fill="#333" d="M240 0l2-218c-23 76-54 145-80 218h-23L58-218 59 0H30v-248h44l77 211c21-75 51-140 76-211h43V0h-30" id="aE"/><path fill="#333" d="M127-220V0H93v-220H8v-28h204v28h-85" id="aF"/><path fill="#333" d="M212-179c-10-28-35-45-73-45-59 0-87 40-87 99 0 60 29 101 89 101 43 0 62-24 78-52l27 14C228-24 195 4 139 4 59 4 22-46 18-125c-6-104 99-153 187-111 19 9 31 26 39 46" id="aG"/><path fill="#333" d="M197 0v-115H63V0H30v-248h33v105h134v-105h34V0h-34" id="aH"/><g id="p"><use transform="matrix(0.05,0,0,0.05,0,0)" xlink:href="#aE"/><use transform="matrix(0.05,0,0,0.05,14.950000000000001,0)" xlink:href="#X"/><use transform="matrix(0.05,0,0,0.05,25.6,0)" xlink:href="#aF"/><use transform="matrix(0.05,0,0,0.05,36.550000000000004,0)" xlink:href="#aG"/><use transform="matrix(0.05,0,0,0.05,49.50000000000001,0)" xlink:href="#aH"/></g><g id="q"><use transform="matrix(0.048148148148148155,0,0,0.048148148148148155,0,0)" xlink:href="#al"/><use transform="matrix(0.048148148148148155,0,0,0.048148148148148155,11.555555555555557,0)" xlink:href="#am"/><use transform="matrix(0.048148148148148155,0,0,0.048148148148148155,21.18518518518519,0)" xlink:href="#W"/><use transform="matrix(0.048148148148148155,0,0,0.048148148148148155,26.00000000000001,0)" xlink:href="#an"/><use transform="matrix(0.048148148148148155,0,0,0.048148148148148155,29.803703703703714,0)" xlink:href="#U"/><use transform="matrix(0.048148148148148155,0,0,0.048148148148148155,39.433333333333344,0)" xlink:href="#ao"/><use transform="matrix(0.048148148148148155,0,0,0.048148148148148155,49.06296296296298,0)" xlink:href="#W"/></g><g id="r"><use transform="matrix(0.048148148148148155,0,0,0.048148148148148155,0,0)" xlink:href="#an"/><use transform="matrix(0.048148148148148155,0,0,0.048148148148148155,3.8037037037037043,0)" xlink:href="#aC"/></g><path d="M84 4C-5 8 30-112 23-190h32v120c0 31 7 50 39 49 72-2 45-101 50-169h31l1 190h-30c-1-10 1-25-2-33-11 22-28 36-60 37" id="aI"/><path d="M115-194c55 1 70 41 70 98S169 2 115 4C84 4 66-9 55-30l1 105H24l-1-265h31l2 30c10-21 28-34 59-34zm-8 174c40 0 45-34 45-75s-6-73-45-74c-42 0-51 32-51 76 0 43 10 73 51 73" id="aJ"/><path d="M85-194c31 0 48 13 60 33l-1-100h32l1 261h-30c-2-10 0-23-3-31C134-8 116 4 85 4 32 4 16-35 15-94c0-66 23-100 70-100zm9 24c-40 0-46 34-46 75 0 40 6 74 45 74 42 0 51-32 51-76 0-42-9-74-50-73" id="aK"/><g id="s"><use transform="matrix(0.048148148148148155,0,0,0.048148148148148155,0,0)" xlink:href="#aI"/><use transform="matrix(0.048148148148148155,0,0,0.048148148148148155,9.629629629629632,0)" xlink:href="#aJ"/><use transform="matrix(0.048148148148148155,0,0,0.048148148148148155,19.259259259259263,0)" xlink:href="#aK"/><use transform="matrix(0.048148148148148155,0,0,0.048148148148148155,28.888888888888893,0)" xlink:href="#am"/><use transform="matrix(0.048148148148148155,0,0,0.048148148148148155,38.518518518518526,0)" xlink:href="#W"/><use transform="matrix(0.048148148148148155,0,0,0.048148148148148155,43.33333333333334,0)" xlink:href="#U"/><use transform="matrix(0.048148148148148155,0,0,0.048148148148148155,52.96296296296297,0)" xlink:href="#aK"/></g><g id="t"><use transform="matrix(0.048148148148148155,0,0,0.048148148148148155,0,0)" xlink:href="#an"/><use transform="matrix(0.048148148148148155,0,0,0.048148148148148155,3.8037037037037043,0)" xlink:href="#ao"/></g><path d="M96-169c-40 0-48 33-48 73s9 75 48 75c24 0 41-14 43-38l32 2c-6 37-31 61-74 61-59 0-76-41-82-99-10-93 101-131 147-64 4 7 5 14 7 22l-32 3c-4-21-16-35-41-35" id="aL"/><path d="M106-169C34-169 62-67 57 0H25v-261h32l-1 103c12-21 28-36 61-36 89 0 53 116 60 194h-32v-121c2-32-8-49-39-48" id="aM"/><g id="u"><use transform="matrix(0.048148148148148155,0,0,0.048148148148148155,0,0)" xlink:href="#aC"/><use transform="matrix(0.048148148148148155,0,0,0.048148148148148155,8.666666666666668,0)" xlink:href="#aI"/><use transform="matrix(0.048148148148148155,0,0,0.048148148148148155,18.296296296296298,0)" xlink:href="#aL"/><use transform="matrix(0.048148148148148155,0,0,0.048148148148148155,26.962962962962965,0)" xlink:href="#aM"/></g><use transform="matrix(0.048148148148148155,0,0,0.048148148148148155,0,0)" xlink:href="#am" id="v"/><path d="M206 0h-36l-40-164L89 0H53L-1-190h32L70-26l43-164h34l41 164 42-164h31" id="aN"/><g id="w"><use transform="matrix(0.048148148148148155,0,0,0.048148148148148155,0,0)" xlink:href="#aN"/><use transform="matrix(0.048148148148148155,0,0,0.048148148148148155,12.470370370370372,0)" xlink:href="#am"/><use transform="matrix(0.048148148148148155,0,0,0.048148148148148155,22.1,0)" xlink:href="#au"/></g><g id="x"><use transform="matrix(0.048148148148148155,0,0,0.048148148148148155,0,0)" xlink:href="#W"/><use transform="matrix(0.048148148148148155,0,0,0.048148148148148155,4.814814814814816,0)" xlink:href="#aM"/><use transform="matrix(0.048148148148148155,0,0,0.048148148148148155,14.444444444444446,0)" xlink:href="#am"/><use transform="matrix(0.048148148148148155,0,0,0.048148148148148155,24.074074074074076,0)" xlink:href="#W"/></g><g id="y"><use transform="matrix(0.048148148148148155,0,0,0.048148148148148155,0,0)" xlink:href="#an"/><use transform="matrix(0.048148148148148155,0,0,0.048148148148148155,3.8037037037037043,0)" xlink:href="#W"/></g><path d="M24 0v-261h32V0H24" id="aO"/><g id="z"><use transform="matrix(0.048148148148148155,0,0,0.048148148148148155,0,0)" xlink:href="#aN"/><use transform="matrix(0.048148148148148155,0,0,0.048148148148148155,12.470370370370372,0)" xlink:href="#aD"/><use transform="matrix(0.048148148148148155,0,0,0.048148148148148155,22.1,0)" xlink:href="#aI"/><use transform="matrix(0.048148148148148155,0,0,0.048148148148148155,31.729629629629635,0)" xlink:href="#aO"/><use transform="matrix(0.048148148148148155,0,0,0.048148148148148155,35.53333333333334,0)" xlink:href="#aK"/></g><g id="A"><use transform="matrix(0.048148148148148155,0,0,0.048148148148148155,0,0)" xlink:href="#aL"/><use transform="matrix(0.048148148148148155,0,0,0.048148148148148155,8.666666666666668,0)" xlink:href="#aM"/><use transform="matrix(0.048148148148148155,0,0,0.048148148148148155,18.296296296296298,0)" xlink:href="#am"/><use transform="matrix(0.048148148148148155,0,0,0.048148148148148155,27.92592592592593,0)" xlink:href="#ao"/><use transform="matrix(0.048148148148148155,0,0,0.048148148148148155,37.555555555555564,0)" xlink:href="#as"/><use transform="matrix(0.048148148148148155,0,0,0.048148148148148155,47.1851851851852,0)" xlink:href="#U"/></g><path d="M143 0L79-87 56-68V0H24v-261h32v163l83-92h37l-77 82L181 0h-38" id="aP"/><g id="B"><use transform="matrix(0.048148148148148155,0,0,0.048148148148148155,0,0)" xlink:href="#aO"/><use transform="matrix(0.048148148148148155,0,0,0.048148148148148155,3.8037037037037043,0)" xlink:href="#an"/><use transform="matrix(0.048148148148148155,0,0,0.048148148148148155,7.6074074074074085,0)" xlink:href="#ao"/><use transform="matrix(0.048148148148148155,0,0,0.048148148148148155,17.23703703703704,0)" xlink:href="#aP"/></g><path d="M115-194c53 0 69 39 70 98 0 66-23 100-70 100C84 3 66-7 56-30L54 0H23l1-261h32v101c10-23 28-34 59-34zm-8 174c40 0 45-34 45-75 0-40-5-75-45-74-42 0-51 32-51 76 0 43 10 73 51 73" id="aQ"/><g id="C"><use transform="matrix(0.048148148148148155,0,0,0.048148148148148155,0,0)" xlink:href="#aQ"/><use transform="matrix(0.048148148148148155,0,0,0.048148148148148155,9.629629629629632,0)" xlink:href="#am"/><use transform="matrix(0.048148148148148155,0,0,0.048148148148148155,19.259259259259263,0)" xlink:href="#aC"/><use transform="matrix(0.048148148148148155,0,0,0.048148148148148155,27.92592592592593,0)" xlink:href="#U"/><use transform="matrix(0.048148148148148155,0,0,0.048148148148148155,37.555555555555564,0)" xlink:href="#aK"/></g><g id="D"><use transform="matrix(0.048148148148148155,0,0,0.048148148148148155,0,0)" xlink:href="#aD"/><use transform="matrix(0.048148148148148155,0,0,0.048148148148148155,9.629629629629632,0)" xlink:href="#ao"/></g><path d="M30 0v-248h187v28H63v79h144v27H63v87h162V0H30" id="aR"/><path d="M240 0l2-218c-23 76-54 145-80 218h-23L58-218 59 0H30v-248h44l77 211c21-75 51-140 76-211h43V0h-30" id="aS"/><path d="M33 0v-248h34V0H33" id="aT"/><g id="E"><use transform="matrix(0.048148148148148155,0,0,0.048148148148148155,0,0)" xlink:href="#aR"/><use transform="matrix(0.048148148148148155,0,0,0.048148148148148155,11.555555555555557,0)" xlink:href="#aS"/><use transform="matrix(0.048148148148148155,0,0,0.048148148148148155,25.951851851851856,0)" xlink:href="#al"/><use transform="matrix(0.048148148148148155,0,0,0.048148148148148155,37.50740740740741,0)" xlink:href="#aT"/></g><path d="M33 0v-38h34V0H33" id="aU"/><g id="F"><use transform="matrix(0.048148148148148155,0,0,0.048148148148148155,0,0)" xlink:href="#at"/><use transform="matrix(0.048148148148148155,0,0,0.048148148148148155,5.72962962962963,0)" xlink:href="#aI"/><use transform="matrix(0.048148148148148155,0,0,0.048148148148148155,15.359259259259261,0)" xlink:href="#aO"/><use transform="matrix(0.048148148148148155,0,0,0.048148148148148155,19.162962962962965,0)" xlink:href="#U"/><use transform="matrix(0.048148148148148155,0,0,0.048148148148148155,28.792592592592598,0)" xlink:href="#aC"/><use transform="matrix(0.048148148148148155,0,0,0.048148148148148155,37.45925925925927,0)" xlink:href="#aU"/></g><g id="G"><use transform="matrix(0.05,0,0,0.05,0,0)" xlink:href="#ar"/><use transform="matrix(0.05,0,0,0.05,6.3500000000000005,0)" xlink:href="#aP"/><use transform="matrix(0.05,0,0,0.05,15.350000000000001,0)" xlink:href="#U"/><use transform="matrix(0.05,0,0,0.05,25.35,0)" xlink:href="#ao"/><use transform="matrix(0.05,0,0,0.05,35.35,0)" xlink:href="#ar"/></g><path fill="#333" d="M135-150c-39-12-60 13-60 57V0H25l-1-190h47c2 13-1 29 3 40 6-28 27-53 61-41v41" id="aV"/><g id="H"><use transform="matrix(0.05,0,0,0.05,0,0)" xlink:href="#ay"/><use transform="matrix(0.05,0,0,0.05,12,0)" xlink:href="#az"/><use transform="matrix(0.05,0,0,0.05,17.95,0)" xlink:href="#aA"/><use transform="matrix(0.05,0,0,0.05,27.950000000000003,0)" xlink:href="#aV"/><use transform="matrix(0.05,0,0,0.05,34.95,0)" xlink:href="#az"/></g><path fill="#333" d="M30 0v-248h187v28H63v79h144v27H63v87h162V0H30" id="aW"/><path fill="#333" d="M33 0v-248h34V0H33" id="aX"/><path fill="#333" d="M30-248c118-7 216 8 213 122C240-48 200 0 122 0H30v-248zM63-27c89 8 146-16 146-99s-60-101-146-95v194" id="aY"/><path fill="#333" d="M33-154v-36h34v36H33zM33 0v-36h34V0H33" id="aZ"/><path fill="#333" d="M232-93c-1 65-40 97-104 97C67 4 28-28 28-90v-158h33c8 89-33 224 67 224 102 0 64-133 71-224h33v155" id="ba"/><path fill="#333" d="M16-82v-28h88v28H16" id="bb"/><path fill="#333" d="M27 0v-27h64v-190l-56 39v-29l58-41h29v221h61V0H27" id="bc"/><path fill="#333" d="M101-251c82-7 93 87 43 132L82-64C71-53 59-42 53-27h129V0H18c2-99 128-94 128-182 0-28-16-43-45-43s-46 15-49 41l-32-3c6-41 34-60 81-64" id="bd"/><path fill="#333" d="M126-127c33 6 58 20 58 59 0 88-139 92-164 29-3-8-5-16-6-25l32-3c6 27 21 44 54 44 32 0 52-15 52-46 0-38-36-46-79-43v-28c39 1 72-4 72-42 0-27-17-43-46-43-28 0-47 15-49 41l-32-3c6-42 35-63 81-64 48-1 79 21 79 65 0 36-21 52-52 59" id="be"/><g id="I"><use transform="matrix(0.05,0,0,0.05,0,0)" xlink:href="#aW"/><use transform="matrix(0.05,0,0,0.05,12,0)" xlink:href="#aX"/><use transform="matrix(0.05,0,0,0.05,17,0)" xlink:href="#aY"/><use transform="matrix(0.05,0,0,0.05,29.950000000000003,0)" xlink:href="#aZ"/><use transform="matrix(0.05,0,0,0.05,34.95,0)" xlink:href="#ba"/><use transform="matrix(0.05,0,0,0.05,47.900000000000006,0)" xlink:href="#ba"/><use transform="matrix(0.05,0,0,0.05,60.85,0)" xlink:href="#aX"/><use transform="matrix(0.05,0,0,0.05,65.85000000000001,0)" xlink:href="#aY"/><use transform="matrix(0.05,0,0,0.05,78.80000000000001,0)" xlink:href="#bb"/><use transform="matrix(0.05,0,0,0.05,84.75000000000001,0)" xlink:href="#bc"/><use transform="matrix(0.05,0,0,0.05,94.75000000000001,0)" xlink:href="#bd"/><use transform="matrix(0.05,0,0,0.05,104.75,0)" xlink:href="#be"/></g><path fill="#333" d="M199 0l-22-63H83L61 0H9l90-248h61L250 0h-51zm-33-102l-36-108c-10 38-24 72-36 108h72" id="bf"/><path fill="#333" d="M190-63c-7 42-38 67-86 67-59 0-84-38-90-98-12-110 154-137 174-36l-49 2c-2-19-15-32-35-32-30 0-35 28-38 64-6 74 65 87 74 30" id="bg"/><path fill="#333" d="M25-224v-37h50v37H25zM25 0v-190h50V0H25" id="bh"/><path fill="#333" d="M110-194c64 0 96 36 96 99 0 64-35 99-97 99-61 0-95-36-95-99 0-62 34-99 96-99zm-1 164c35 0 45-28 45-65 0-40-10-65-43-65-34 0-45 26-45 65 0 36 10 65 43 65" id="bi"/><g id="J"><use transform="matrix(0.05,0,0,0.05,0,0)" xlink:href="#bf"/><use transform="matrix(0.05,0,0,0.05,12.950000000000001,0)" xlink:href="#bg"/><use transform="matrix(0.05,0,0,0.05,22.950000000000003,0)" xlink:href="#az"/><use transform="matrix(0.05,0,0,0.05,28.900000000000002,0)" xlink:href="#bh"/><use transform="matrix(0.05,0,0,0.05,33.900000000000006,0)" xlink:href="#bi"/><use transform="matrix(0.05,0,0,0.05,44.85000000000001,0)" xlink:href="#aw"/></g><path d="M30-248c118-7 216 8 213 122C240-48 200 0 122 0H30v-248zM63-27c89 8 146-16 146-99s-60-101-146-95v194" id="bj"/><g id="K"><use transform="matrix(0.048148148148148155,0,0,0.048148148148148155,0,0)" xlink:href="#bj"/><use transform="matrix(0.048148148148148155,0,0,0.048148148148148155,12.470370370370372,0)" xlink:href="#am"/><use transform="matrix(0.048148148148148155,0,0,0.048148148148148155,22.1,0)" xlink:href="#W"/><use transform="matrix(0.048148148148148155,0,0,0.048148148148148155,26.914814814814818,0)" xlink:href="#am"/></g><g id="L"><use transform="matrix(0.048148148148148155,0,0,0.048148148148148155,0,0)" xlink:href="#W"/><use transform="matrix(0.048148148148148155,0,0,0.048148148148148155,4.814814814814816,0)" xlink:href="#aM"/><use transform="matrix(0.048148148148148155,0,0,0.048148148148148155,14.444444444444446,0)" xlink:href="#U"/></g><g id="M"><use transform="matrix(0.048148148148148155,0,0,0.048148148148148155,0,0)" xlink:href="#al"/><use transform="matrix(0.048148148148148155,0,0,0.048148148148148155,11.555555555555557,0)" xlink:href="#U"/><use transform="matrix(0.048148148148148155,0,0,0.048148148148148155,21.18518518518519,0)" xlink:href="#at"/><use transform="matrix(0.048148148148148155,0,0,0.048148148148148155,26.914814814814825,0)" xlink:href="#aC"/><use transform="matrix(0.048148148148148155,0,0,0.048148148148148155,35.58148148148149,0)" xlink:href="#aD"/><use transform="matrix(0.048148148148148155,0,0,0.048148148148148155,45.21111111111112,0)" xlink:href="#ao"/></g><path d="M24-231v-30h32v30H24zM-9 49c24 4 33-6 33-30v-209h32V24c2 40-23 58-65 49V49" id="bk"/><g id="N"><use transform="matrix(0.048148148148148155,0,0,0.048148148148148155,0,0)" xlink:href="#aD"/><use transform="matrix(0.048148148148148155,0,0,0.048148148148148155,9.629629629629632,0)" xlink:href="#aQ"/><use transform="matrix(0.048148148148148155,0,0,0.048148148148148155,19.259259259259263,0)" xlink:href="#bk"/><use transform="matrix(0.048148148148148155,0,0,0.048148148148148155,23.062962962962967,0)" xlink:href="#U"/><use transform="matrix(0.048148148148148155,0,0,0.048148148148148155,32.6925925925926,0)" xlink:href="#aL"/><use transform="matrix(0.048148148148148155,0,0,0.048148148148148155,41.35925925925926,0)" xlink:href="#W"/><use transform="matrix(0.048148148148148155,0,0,0.048148148148148155,46.17407407407408,0)" xlink:href="#aU"/></g><path fill="#333" d="M238-95c0 69-44 99-111 99C63 4 22-25 22-93v-155h51v151c-1 38 19 59 55 60 90 1 49-130 58-211h52v153" id="bl"/><path fill="#333" d="M135-194c53 0 70 44 70 98 0 56-19 98-73 100-31 1-45-17-59-34 3 33 2 69 2 105H25l-1-265h48c2 10 0 23 3 31 11-24 29-35 60-35zM114-30c33 0 39-31 40-66 0-38-9-64-40-64-56 0-55 130 0 130" id="bm"/><g id="O"><use transform="matrix(0.06790123456790124,0,0,0.06790123456790124,0,0)" xlink:href="#bl"/><use transform="matrix(0.06790123456790124,0,0,0.06790123456790124,17.58641975308642,0)" xlink:href="#bm"/><use transform="matrix(0.06790123456790124,0,0,0.06790123456790124,32.45679012345679,0)" xlink:href="#ax"/><use transform="matrix(0.06790123456790124,0,0,0.06790123456790124,47.327160493827165,0)" xlink:href="#aA"/><use transform="matrix(0.06790123456790124,0,0,0.06790123456790124,60.90740740740741,0)" xlink:href="#az"/><use transform="matrix(0.06790123456790124,0,0,0.06790123456790124,68.98765432098766,0)" xlink:href="#aB"/></g><path fill="#333" d="M137-138c1-29-70-34-71-4 15 46 118 7 119 86 1 83-164 76-172 9l43-7c4 19 20 25 44 25 33 8 57-30 24-41C81-84 22-81 20-136c-2-80 154-74 161-7" id="bn"/><g id="P"><use transform="matrix(0.06790123456790124,0,0,0.06790123456790124,0,0)" xlink:href="#bl"/><use transform="matrix(0.06790123456790124,0,0,0.06790123456790124,17.58641975308642,0)" xlink:href="#bn"/><use transform="matrix(0.06790123456790124,0,0,0.06790123456790124,31.16666666666667,0)" xlink:href="#aB"/></g><path fill="#333" d="M67-125c0 53 21 87 73 88 37 1 54-22 65-47l45 17C233-25 199 4 140 4 58 4 20-42 15-125 8-235 124-281 211-232c18 10 29 29 36 50l-46 12c-8-25-30-41-62-41-52 0-71 34-72 86" id="bo"/><g id="Q"><use transform="matrix(0.06790123456790124,0,0,0.06790123456790124,0,0)" xlink:href="#bo"/><use transform="matrix(0.06790123456790124,0,0,0.06790123456790124,17.58641975308642,0)" xlink:href="#aA"/><use transform="matrix(0.06790123456790124,0,0,0.06790123456790124,31.16666666666667,0)" xlink:href="#bn"/><use transform="matrix(0.06790123456790124,0,0,0.06790123456790124,44.74691358024692,0)" xlink:href="#aB"/></g><path fill="#333" d="M160-152l-12 59h37v26h-43L128 0h-28l14-67H60L46 0H20l13-67H6v-26h33l13-59H15v-26h42l15-67h27l-15 67h54l15-67h27l-14 67h28v26h-34zm-81 0L66-93h55l12-59H79" id="bp"/><path fill="#333" d="M23 0v-37h61v-169l-59 37v-38l62-41h46v211h57V0H23" id="bq"/><g id="R"><use transform="matrix(0.06790123456790124,0,0,0.06790123456790124,0,0)" xlink:href="#bp"/><use transform="matrix(0.06790123456790124,0,0,0.06790123456790124,13.580246913580249,0)" xlink:href="#bq"/></g><path fill="#333" d="M182-182c0 78-84 86-111 141h115V0H12c-6-101 99-100 120-180 1-22-12-31-33-32-23 0-32 14-35 34l-49-3c5-45 32-70 84-70 51 0 83 22 83 69" id="br"/><g id="S"><use transform="matrix(0.06790123456790124,0,0,0.06790123456790124,0,0)" xlink:href="#bp"/><use transform="matrix(0.06790123456790124,0,0,0.06790123456790124,13.580246913580249,0)" xlink:href="#br"/></g></defs></g></svg>