<svg xmlns="http://www.w3.org/2000/svg" xmlns:xlink="http://www.w3.org/1999/xlink" xmlns:lucid="lucid" width="760" height="411.6"><g transform="translate(-160 -110)" lucid:page-tab-id="aqTjdRb2s_R8"><path d="M180 130h200v120c-33.4-20.04-54.2-20.04-66.8-20.04-20 0-46.6 20.04-66.6 20.04-12.4 0-33.4 0-66.6-20.04z" stroke="#666" stroke-width="3" fill="#e5e5e5"/><use xlink:href="#a" transform="matrix(1,0,0,1,185,135) translate(47.574999999999996 16.19999999999999)"/><use xlink:href="#b" transform="matrix(1,0,0,1,185,135) translate(95 37.79999999999999)"/><use xlink:href="#c" transform="matrix(1,0,0,1,185,135) translate(0 59.39999999999999)"/><use xlink:href="#d" transform="matrix(1,0,0,1,185,135) translate(57.900000000000006 59.39999999999999)"/><use xlink:href="#e" transform="matrix(1,0,0,1,185,135) translate(116.80000000000001 59.39999999999999)"/><use xlink:href="#f" transform="matrix(1,0,0,1,185,135) translate(0 81)"/><use xlink:href="#g" transform="matrix(1,0,0,1,185,135) translate(48.95 81)"/><path d="M440 130h200v120c-33.4-20.04-54.2-20.04-66.8-20.04-20 0-46.6 20.04-66.6 20.04-12.4 0-33.4 0-66.6-20.04z" stroke="#666" stroke-width="3" fill="#e5e5e5"/><use xlink:href="#h" transform="matrix(1,0,0,1,445,135) translate(47.574999999999996 16.19999999999999)"/><use xlink:href="#b" transform="matrix(1,0,0,1,445,135) translate(95 37.79999999999999)"/><use xlink:href="#c" transform="matrix(1,0,0,1,445,135) translate(0 59.39999999999999)"/><use xlink:href="#i" transform="matrix(1,0,0,1,445,135) translate(57.900000000000006 59.39999999999999)"/><use xlink:href="#e" transform="matrix(1,0,0,1,445,135) translate(94.9 59.39999999999999)"/><use xlink:href="#f" transform="matrix(1,0,0,1,445,135) translate(0 81)"/><use xlink:href="#g" transform="matrix(1,0,0,1,445,135) translate(48.95 81)"/><path d="M320 360h200v141.6c-33.4-23.65-54.2-23.65-66.8-23.65-20 0-46.6 23.65-66.6 23.65-12.4 0-33.4 0-66.6-23.65z" stroke="#666" stroke-width="3" fill="#e5e5e5"/><use xlink:href="#j" transform="matrix(1,0,0,1,325,365) translate(47.05 14.899999999999993)"/><use xlink:href="#b" transform="matrix(1,0,0,1,325,365) translate(95 36.49999999999999)"/><use xlink:href="#c" transform="matrix(1,0,0,1,325,365) translate(0 58.099999999999994)"/><use xlink:href="#i" transform="matrix(1,0,0,1,325,365) translate(57.900000000000006 58.099999999999994)"/><use xlink:href="#e" transform="matrix(1,0,0,1,325,365) translate(94.9 58.099999999999994)"/><use xlink:href="#f" transform="matrix(1,0,0,1,325,365) translate(0 79.70000000000002)"/><use xlink:href="#k" transform="matrix(1,0,0,1,325,365) translate(48.95 79.70000000000002)"/><use xlink:href="#l" transform="matrix(1,0,0,1,325,365) translate(0 101.30000000000001)"/><use xlink:href="#m" transform="matrix(1,0,0,1,325,365) translate(39.95 101.30000000000001)"/><path d="M419.97 357l-.02-.7-.12-2.04-.2-1.93-.28-1.82-.33-1.73-.4-1.67-.43-1.6-.5-1.54-.57-1.5-.6-1.44-.68-1.43-.73-1.4-.8-1.37-.86-1.36-.93-1.35-1.03-1.35-1.1-1.35-1.24-1.36-1.34-1.37-1.5-1.4-1.64-1.43-1.85-1.47-2.1-1.5-2.38-1.6-2.77-1.67-3.27-1.8-3.95-1.96-5.02-2.23-6.88-2.7-12.05-4.17-35.18-11.5-7.33-2.88-5.44-2.43-4.35-2.15-3.62-2-3.1-1.87-2.7-1.8-2.36-1.7-2.12-1.7-1.9-1.63-1.73-1.62-1.56-1.6-1.43-1.6-1.3-1.57-1.22-1.6-1.12-1.6-1.03-1.63-.95-1.65-.88-1.68-.57-1.22" stroke="#0c7cba" stroke-width="3" fill="none"/><path d="M421.5 358.5h-3l-.03-1.5 3-.07z" fill="#0c7cba"/><path d="M281.07 246.1l7.65 12.9-9.04 2.04z" stroke="#0c7cba" stroke-width="3" fill="#0c7cba"/><path d="M420.03 357v-.54l.13-1.9.2-1.82.25-1.72.32-1.64.37-1.57.4-1.5.5-1.47.5-1.42.6-1.38.64-1.37.7-1.34.77-1.32.85-1.32.9-1.3 1-1.33 1.1-1.33 1.23-1.35 1.34-1.37 1.5-1.4 1.68-1.45 1.9-1.5 2.2-1.6 2.53-1.7 3.03-1.82 3.73-2.04 4.83-2.4 7.06-3.12 40.42-16.27 5.32-2.64 4.17-2.3 3.46-2.07 2.93-1.95 2.53-1.83 2.24-1.78 2-1.73 1.8-1.68 1.6-1.67 1.5-1.64 1.34-1.64 1.25-1.63 1.14-1.64 1.04-1.66.96-1.67.9-1.7.82-1.75.75-1.8.68-1.83.13-.4" stroke="#0c7cba" stroke-width="3" fill="none"/><path d="M421.53 357l-.03 1.5h-3l.03-1.57z" fill="#0c7cba"/><path d="M539.36 246.18l2.7 14.75-9.2-1.22z" stroke="#0c7cba" stroke-width="3" fill="#0c7cba"/><path d="M464 279.6h72l24 20-24 20h-72l-24-20z" stroke="#0c7cba" stroke-width="2" fill="#b2d6ef"/><g><use xlink:href="#n" transform="matrix(1,0,0,1,445,284.6) translate(42.79629629629629 10.666666666666668)"/><use xlink:href="#o" transform="matrix(1,0,0,1,445,284.6) translate(17.98148148148148 26.666666666666668)"/><use xlink:href="#p" transform="matrix(1,0,0,1,445,284.6) translate(84.61111111111111 26.666666666666668)"/></g><path d="M304 279.6h72l24 20-24 20h-72l-24-20z" stroke="#0c7cba" stroke-width="2" fill="#b2d6ef"/><g><use xlink:href="#n" transform="matrix(1,0,0,1,285,284.6) translate(42.79629629629629 10.666666666666668)"/><use xlink:href="#o" transform="matrix(1,0,0,1,285,284.6) translate(17.98148148148148 26.666666666666668)"/><use xlink:href="#q" transform="matrix(1,0,0,1,285,284.6) translate(84.61111111111111 26.666666666666668)"/></g><path d="M700 130h200v120c-33.4-20.04-54.2-20.04-66.8-20.04-20 0-46.6 20.04-66.6 20.04-12.4 0-33.4 0-66.6-20.04z" stroke="#666" stroke-width="3" fill="#e5e5e5"/><g><use xlink:href="#r" transform="matrix(1,0,0,1,705,135) translate(47.574999999999996 16.19999999999999)"/><use xlink:href="#b" transform="matrix(1,0,0,1,705,135) translate(95 37.79999999999999)"/><use xlink:href="#c" transform="matrix(1,0,0,1,705,135) translate(0 59.39999999999999)"/><use xlink:href="#s" transform="matrix(1,0,0,1,705,135) translate(57.900000000000006 59.39999999999999)"/><use xlink:href="#e" transform="matrix(1,0,0,1,705,135) translate(103.9 59.39999999999999)"/><use xlink:href="#f" transform="matrix(1,0,0,1,705,135) translate(0 81)"/><use xlink:href="#t" transform="matrix(1,0,0,1,705,135) translate(48.95 81)"/></g><path d="M700 360h200v141.6c-33.4-23.65-54.2-23.65-66.8-23.65-20 0-46.6 23.65-66.6 23.65-12.4 0-33.4 0-66.6-23.65z" stroke="#666" stroke-width="3" fill="#e5e5e5"/><g><use xlink:href="#u" transform="matrix(1,0,0,1,705,365) translate(47.05 14.899999999999993)"/><use xlink:href="#b" transform="matrix(1,0,0,1,705,365) translate(95 36.49999999999999)"/><use xlink:href="#c" transform="matrix(1,0,0,1,705,365) translate(0 58.099999999999994)"/><use xlink:href="#s" transform="matrix(1,0,0,1,705,365) translate(57.900000000000006 58.099999999999994)"/><use xlink:href="#e" transform="matrix(1,0,0,1,705,365) translate(103.9 58.099999999999994)"/><use xlink:href="#f" transform="matrix(1,0,0,1,705,365) translate(0 79.70000000000002)"/><use xlink:href="#v" transform="matrix(1,0,0,1,705,365) translate(48.95 79.70000000000002)"/><use xlink:href="#l" transform="matrix(1,0,0,1,705,365) translate(0 101.30000000000001)"/><use xlink:href="#w" transform="matrix(1,0,0,1,705,365) translate(39.95 101.30000000000001)"/></g><path d="M800 357v-95" stroke="#0c7cba" stroke-width="3" fill="none"/><path d="M801.5 358.5h-3v-1.54h3z" fill="#0c7cba"/><path d="M800 246.22l4.64 14.27h-9.28z" stroke="#0c7cba" stroke-width="3" fill="#0c7cba"/><path d="M764 285h72l24 20-24 20h-72l-24-20z" stroke="#0c7cba" stroke-width="2" fill="#b2d6ef"/><g><use xlink:href="#n" transform="matrix(1,0,0,1,745,290) translate(42.79629629629629 10.666666666666668)"/><use xlink:href="#o" transform="matrix(1,0,0,1,745,290) translate(17.98148148148148 26.666666666666668)"/><use xlink:href="#q" transform="matrix(1,0,0,1,745,290) translate(84.61111111111111 26.666666666666668)"/></g><defs><path d="M24-248c93 1 206-16 204 79-1 75-69 88-152 82V0H24v-248zm52 121c47 0 100 7 100-41 0-47-54-39-100-39v80" id="x"/><path d="M133-34C117-15 103 5 69 4 32 3 11-16 11-54c-1-60 55-63 116-61 1-26-3-47-28-47-18 1-26 9-28 27l-52-2c7-38 36-58 82-57s74 22 75 68l1 82c-1 14 12 18 25 15v27c-30 8-71 5-69-32zm-48 3c29 0 43-24 42-57-32 0-66-3-65 30 0 17 8 27 23 27" id="y"/><path d="M115-3C79 11 28 4 28-45v-112H4v-33h27l15-45h31v45h36v33H77v99c-1 23 16 31 38 25v30" id="z"/><path d="M25-224v-37h50v37H25zM25 0v-190h50V0H25" id="A"/><path d="M185-48c-13 30-37 53-82 52C43 2 14-33 14-96s30-98 90-98c62 0 83 45 84 108H66c0 31 8 55 39 56 18 0 30-7 34-22zm-45-69c5-46-57-63-70-21-2 6-4 13-4 21h74" id="B"/><path d="M135-194c87-1 58 113 63 194h-50c-7-57 23-157-34-157-59 0-34 97-39 157H25l-1-190h47c2 12-1 28 3 38 12-26 28-41 61-42" id="C"/><path d="M4 7l51-268h42L46 7H4" id="D"/><path d="M23 0v-37h61v-169l-59 37v-38l62-41h46v211h57V0H23" id="E"/><path d="M101-251c68 0 84 54 84 127C185-50 166 4 99 4S15-52 14-124c-1-75 17-127 87-127zm-1 216c37-5 36-46 36-89s4-89-36-89c-39 0-36 45-36 89 0 43-3 85 36 89" id="F"/><g id="a"><use transform="matrix(0.05,0,0,0.05,0,0)" xlink:href="#x"/><use transform="matrix(0.05,0,0,0.05,12,0)" xlink:href="#y"/><use transform="matrix(0.05,0,0,0.05,22,0)" xlink:href="#z"/><use transform="matrix(0.05,0,0,0.05,27.950000000000003,0)" xlink:href="#A"/><use transform="matrix(0.05,0,0,0.05,32.95,0)" xlink:href="#B"/><use transform="matrix(0.05,0,0,0.05,42.95,0)" xlink:href="#C"/><use transform="matrix(0.05,0,0,0.05,53.900000000000006,0)" xlink:href="#z"/><use transform="matrix(0.05,0,0,0.05,59.85,0)" xlink:href="#D"/><use transform="matrix(0.05,0,0,0.05,64.85000000000001,0)" xlink:href="#E"/><use transform="matrix(0.05,0,0,0.05,74.85000000000001,0)" xlink:href="#F"/><use transform="matrix(0.05,0,0,0.05,84.85000000000001,0)" xlink:href="#F"/></g><path d="M190 0L58-211 59 0H30v-248h39L202-35l-2-213h31V0h-41" id="G"/><path d="M141-36C126-15 110 5 73 4 37 3 15-17 15-53c-1-64 63-63 125-63 3-35-9-54-41-54-24 1-41 7-42 31l-33-3c5-37 33-52 76-52 45 0 72 20 72 64v82c-1 20 7 32 28 27v20c-31 9-61-2-59-35zM48-53c0 20 12 33 32 33 41-3 63-29 60-74-43 2-92-5-92 41" id="H"/><path d="M210-169c-67 3-38 105-44 169h-31v-121c0-29-5-50-35-48C34-165 62-65 56 0H25l-1-190h30c1 10-1 24 2 32 10-44 99-50 107 0 11-21 27-35 58-36 85-2 47 119 55 194h-31v-121c0-29-5-49-35-48" id="I"/><path d="M100-194c63 0 86 42 84 106H49c0 40 14 67 53 68 26 1 43-12 49-29l28 8c-11 28-37 45-77 45C44 4 14-33 15-96c1-61 26-98 85-98zm52 81c6-60-76-77-97-28-3 7-6 17-6 28h103" id="J"/><path d="M33-154v-36h34v36H33zM33 0v-36h34V0H33" id="K"/><g id="c"><use transform="matrix(0.05,0,0,0.05,0,0)" xlink:href="#G"/><use transform="matrix(0.05,0,0,0.05,12.950000000000001,0)" xlink:href="#H"/><use transform="matrix(0.05,0,0,0.05,22.950000000000003,0)" xlink:href="#I"/><use transform="matrix(0.05,0,0,0.05,37.900000000000006,0)" xlink:href="#J"/><use transform="matrix(0.05,0,0,0.05,47.900000000000006,0)" xlink:href="#K"/></g><path d="M233-177c-1 41-23 64-60 70L243 0h-38l-65-103H63V0H30v-248c88 3 205-21 203 71zM63-129c60-2 137 13 137-47 0-61-80-42-137-45v92" id="L"/><path d="M100-194c62-1 85 37 85 99 1 63-27 99-86 99S16-35 15-95c0-66 28-99 85-99zM99-20c44 1 53-31 53-75 0-43-8-75-51-75s-53 32-53 75 10 74 51 75" id="M"/><path d="M115-194c53 0 69 39 70 98 0 66-23 100-70 100C84 3 66-7 56-30L54 0H23l1-261h32v101c10-23 28-34 59-34zm-8 174c40 0 45-34 45-75 0-40-5-75-45-74-42 0-51 32-51 76 0 43 10 73 51 73" id="N"/><path d="M114-163C36-179 61-72 57 0H25l-1-190h30c1 12-1 29 2 39 6-27 23-49 58-41v29" id="O"/><path d="M59-47c-2 24 18 29 38 22v24C64 9 27 4 27-40v-127H5v-23h24l9-43h21v43h35v23H59v120" id="P"/><g id="d"><use transform="matrix(0.05,0,0,0.05,0,0)" xlink:href="#L"/><use transform="matrix(0.05,0,0,0.05,12.950000000000001,0)" xlink:href="#M"/><use transform="matrix(0.05,0,0,0.05,22.950000000000003,0)" xlink:href="#N"/><use transform="matrix(0.05,0,0,0.05,32.95,0)" xlink:href="#J"/><use transform="matrix(0.05,0,0,0.05,42.95,0)" xlink:href="#O"/><use transform="matrix(0.05,0,0,0.05,48.900000000000006,0)" xlink:href="#P"/></g><path d="M185-189c-5-48-123-54-124 2 14 75 158 14 163 119 3 78-121 87-175 55-17-10-28-26-33-46l33-7c5 56 141 63 141-1 0-78-155-14-162-118-5-82 145-84 179-34 5 7 8 16 11 25" id="Q"/><path d="M24-231v-30h32v30H24zM24 0v-190h32V0H24" id="R"/><path d="M106-169C34-169 62-67 57 0H25v-261h32l-1 103c12-21 28-36 61-36 89 0 53 116 60 194h-32v-121c2-32-8-49-39-48" id="S"/><g id="e"><use transform="matrix(0.05,0,0,0.05,0,0)" xlink:href="#Q"/><use transform="matrix(0.05,0,0,0.05,12,0)" xlink:href="#I"/><use transform="matrix(0.05,0,0,0.05,26.950000000000003,0)" xlink:href="#R"/><use transform="matrix(0.05,0,0,0.05,30.900000000000002,0)" xlink:href="#P"/><use transform="matrix(0.05,0,0,0.05,35.900000000000006,0)" xlink:href="#S"/></g><path d="M30-248c118-7 216 8 213 122C240-48 200 0 122 0H30v-248zM63-27c89 8 146-16 146-99s-60-101-146-95v194" id="T"/><path d="M140-251c81 0 123 46 123 126C263-46 219 4 140 4 59 4 17-45 17-125s42-126 123-126zm0 227c63 0 89-41 89-101s-29-99-89-99c-61 0-89 39-89 99S79-25 140-24" id="U"/><path d="M160-131c35 5 61 23 61 61C221 17 115-2 30 0v-248c76 3 177-17 177 60 0 33-19 50-47 57zm-97-11c50-1 110 9 110-42 0-47-63-36-110-37v79zm0 115c55-2 124 14 124-45 0-56-70-42-124-44v89" id="V"/><g id="f"><use transform="matrix(0.05,0,0,0.05,0,0)" xlink:href="#T"/><use transform="matrix(0.05,0,0,0.05,12.950000000000001,0)" xlink:href="#U"/><use transform="matrix(0.05,0,0,0.05,26.950000000000003,0)" xlink:href="#V"/><use transform="matrix(0.05,0,0,0.05,38.95,0)" xlink:href="#K"/></g><path d="M27 0v-27h64v-190l-56 39v-29l58-41h29v221h61V0H27" id="W"/><path d="M99-251c64 0 84 50 84 122C183-37 130 33 47-8c-14-7-20-23-25-40l30-5c6 39 69 39 84 7 9-19 16-44 16-74-10 22-31 35-62 35-49 0-73-33-73-83 0-54 28-83 82-83zm-1 141c31-1 51-18 51-49 0-36-14-67-51-67-34 0-49 23-49 58 0 34 15 58 49 58" id="X"/><path d="M110-160c48 1 74 30 74 79 0 53-28 85-80 85-65 0-83-55-86-122-5-90 50-162 133-122 14 7 22 21 27 39l-31 6c-5-40-67-38-82-6-9 19-15 44-15 74 11-20 30-34 60-33zm-7 138c34 0 49-23 49-58s-16-56-50-56c-29 0-50 16-49 49 1 36 15 65 50 65" id="Y"/><path d="M126-127c33 6 58 20 58 59 0 88-139 92-164 29-3-8-5-16-6-25l32-3c6 27 21 44 54 44 32 0 52-15 52-46 0-38-36-46-79-43v-28c39 1 72-4 72-42 0-27-17-43-46-43-28 0-47 15-49 41l-32-3c6-42 35-63 81-64 48-1 79 21 79 65 0 36-21 52-52 59" id="Z"/><path d="M16-82v-28h88v28H16" id="aa"/><path d="M101-251c68 0 85 55 85 127S166 4 100 4C33 4 14-52 14-124c0-73 17-127 87-127zm-1 229c47 0 54-49 54-102s-4-102-53-102c-51 0-55 48-55 102 0 53 5 102 54 102" id="ab"/><path d="M101-251c82-7 93 87 43 132L82-64C71-53 59-42 53-27h129V0H18c2-99 128-94 128-182 0-28-16-43-45-43s-46 15-49 41l-32-3c6-41 34-60 81-64" id="ac"/><g id="g"><use transform="matrix(0.05,0,0,0.05,0,0)" xlink:href="#W"/><use transform="matrix(0.05,0,0,0.05,10,0)" xlink:href="#X"/><use transform="matrix(0.05,0,0,0.05,20,0)" xlink:href="#Y"/><use transform="matrix(0.05,0,0,0.05,30,0)" xlink:href="#Z"/><use transform="matrix(0.05,0,0,0.05,40,0)" xlink:href="#aa"/><use transform="matrix(0.05,0,0,0.05,45.95,0)" xlink:href="#ab"/><use transform="matrix(0.05,0,0,0.05,55.95,0)" xlink:href="#ac"/><use transform="matrix(0.05,0,0,0.05,65.95,0)" xlink:href="#aa"/><use transform="matrix(0.05,0,0,0.05,71.9,0)" xlink:href="#W"/><use transform="matrix(0.05,0,0,0.05,81.9,0)" xlink:href="#ac"/></g><g id="h"><use transform="matrix(0.05,0,0,0.05,0,0)" xlink:href="#x"/><use transform="matrix(0.05,0,0,0.05,12,0)" xlink:href="#y"/><use transform="matrix(0.05,0,0,0.05,22,0)" xlink:href="#z"/><use transform="matrix(0.05,0,0,0.05,27.950000000000003,0)" xlink:href="#A"/><use transform="matrix(0.05,0,0,0.05,32.95,0)" xlink:href="#B"/><use transform="matrix(0.05,0,0,0.05,42.95,0)" xlink:href="#C"/><use transform="matrix(0.05,0,0,0.05,53.900000000000006,0)" xlink:href="#z"/><use transform="matrix(0.05,0,0,0.05,59.85,0)" xlink:href="#D"/><use transform="matrix(0.05,0,0,0.05,64.85000000000001,0)" xlink:href="#E"/><use transform="matrix(0.05,0,0,0.05,74.85000000000001,0)" xlink:href="#F"/><use transform="matrix(0.05,0,0,0.05,84.85000000000001,0)" xlink:href="#E"/></g><g id="i"><use transform="matrix(0.05,0,0,0.05,0,0)" xlink:href="#V"/><use transform="matrix(0.05,0,0,0.05,12,0)" xlink:href="#M"/><use transform="matrix(0.05,0,0,0.05,22,0)" xlink:href="#N"/></g><path d="M135-150c-39-12-60 13-60 57V0H25l-1-190h47c2 13-1 29 3 40 6-28 27-53 61-41v41" id="ad"/><path d="M137-138c1-29-70-34-71-4 15 46 118 7 119 86 1 83-164 76-172 9l43-7c4 19 20 25 44 25 33 8 57-30 24-41C81-84 22-81 20-136c-2-80 154-74 161-7" id="ae"/><path d="M110-194c64 0 96 36 96 99 0 64-35 99-97 99-61 0-95-36-95-99 0-62 34-99 96-99zm-1 164c35 0 45-28 45-65 0-40-10-65-43-65-34 0-45 26-45 65 0 36 10 65 43 65" id="af"/><path d="M52 0c1-96 47-148 87-207H15v-41h169v40c-36 62-79 113-81 208H52" id="ag"/><path d="M139-81c0-46-55-55-73-27H18l9-140h149v37H72l-4 63c44-38 133-4 122 66C201 21 21 35 11-62l49-4c5 18 15 30 39 30 26 0 40-18 40-45" id="ah"/><g id="j"><use transform="matrix(0.05,0,0,0.05,0,0)" xlink:href="#x"/><use transform="matrix(0.05,0,0,0.05,12,0)" xlink:href="#B"/><use transform="matrix(0.05,0,0,0.05,22,0)" xlink:href="#ad"/><use transform="matrix(0.05,0,0,0.05,29,0)" xlink:href="#ae"/><use transform="matrix(0.05,0,0,0.05,39,0)" xlink:href="#af"/><use transform="matrix(0.05,0,0,0.05,49.95,0)" xlink:href="#C"/><use transform="matrix(0.05,0,0,0.05,60.900000000000006,0)" xlink:href="#D"/><use transform="matrix(0.05,0,0,0.05,65.9,0)" xlink:href="#ag"/><use transform="matrix(0.05,0,0,0.05,75.9,0)" xlink:href="#ah"/><use transform="matrix(0.05,0,0,0.05,85.9,0)" xlink:href="#ah"/></g><g id="k"><use transform="matrix(0.05,0,0,0.05,0,0)" xlink:href="#W"/><use transform="matrix(0.05,0,0,0.05,10,0)" xlink:href="#X"/><use transform="matrix(0.05,0,0,0.05,20,0)" xlink:href="#Y"/><use transform="matrix(0.05,0,0,0.05,30,0)" xlink:href="#Z"/><use transform="matrix(0.05,0,0,0.05,40,0)" xlink:href="#aa"/><use transform="matrix(0.05,0,0,0.05,45.95,0)" xlink:href="#ab"/><use transform="matrix(0.05,0,0,0.05,55.95,0)" xlink:href="#ac"/><use transform="matrix(0.05,0,0,0.05,65.95,0)" xlink:href="#aa"/><use transform="matrix(0.05,0,0,0.05,71.9,0)" xlink:href="#W"/><use transform="matrix(0.05,0,0,0.05,81.9,0)" xlink:href="#ac"/></g><path d="M30 0v-248h187v28H63v79h144v27H63v87h162V0H30" id="ai"/><path d="M33 0v-248h34V0H33" id="aj"/><g id="l"><use transform="matrix(0.05,0,0,0.05,0,0)" xlink:href="#ai"/><use transform="matrix(0.05,0,0,0.05,12,0)" xlink:href="#aj"/><use transform="matrix(0.05,0,0,0.05,17,0)" xlink:href="#T"/><use transform="matrix(0.05,0,0,0.05,29.950000000000003,0)" xlink:href="#K"/></g><path d="M85-194c31 0 48 13 60 33l-1-100h32l1 261h-30c-2-10 0-23-3-31C134-8 116 4 85 4 32 4 16-35 15-94c0-66 23-100 70-100zm9 24c-40 0-46 34-46 75 0 40 6 74 45 74 42 0 51-32 51-76 0-42-9-74-50-73" id="ak"/><path d="M24-231v-30h32v30H24zM-9 49c24 4 33-6 33-30v-209h32V24c2 40-23 58-65 49V49" id="al"/><path d="M155-56V0h-30v-56H8v-25l114-167h33v167h35v25h-35zm-30-156c-27 46-58 90-88 131h88v-131" id="am"/><path d="M145-31C134-9 116 4 85 4 32 4 16-35 15-94c0-59 17-99 70-100 32-1 48 14 60 33 0-11-1-24 2-32h30l-1 268h-32zM93-21c41 0 51-33 51-76s-8-73-50-73c-40 0-46 35-46 75s5 74 45 74" id="an"/><path d="M84 4C-5 8 30-112 23-190h32v120c0 31 7 50 39 49 72-2 45-101 50-169h31l1 190h-30c-1-10 1-25-2-33-11 22-28 36-60 37" id="ao"/><path d="M134-131c28 9 52 24 51 62-1 50-34 73-85 73S17-19 16-69c0-36 21-54 49-61-75-25-45-126 34-121 46 3 78 18 79 63 0 33-17 51-44 57zm-34-11c31 1 46-15 46-44 0-28-17-43-47-42-29 0-46 13-45 42 1 28 16 44 46 44zm1 122c35 0 51-18 51-52 0-30-18-46-53-46-33 0-51 17-51 47 0 34 19 51 53 51" id="ap"/><g id="m"><use transform="matrix(0.05,0,0,0.05,0,0)" xlink:href="#ak"/><use transform="matrix(0.05,0,0,0.05,10,0)" xlink:href="#X"/><use transform="matrix(0.05,0,0,0.05,20,0)" xlink:href="#ak"/><use transform="matrix(0.05,0,0,0.05,30,0)" xlink:href="#X"/><use transform="matrix(0.05,0,0,0.05,40,0)" xlink:href="#Z"/><use transform="matrix(0.05,0,0,0.05,50,0)" xlink:href="#al"/><use transform="matrix(0.05,0,0,0.05,53.95,0)" xlink:href="#R"/><use transform="matrix(0.05,0,0,0.05,57.900000000000006,0)" xlink:href="#am"/><use transform="matrix(0.05,0,0,0.05,67.9,0)" xlink:href="#aa"/><use transform="matrix(0.05,0,0,0.05,73.85000000000001,0)" xlink:href="#ak"/><use transform="matrix(0.05,0,0,0.05,83.85000000000001,0)" xlink:href="#al"/><use transform="matrix(0.05,0,0,0.05,87.80000000000001,0)" xlink:href="#an"/><use transform="matrix(0.05,0,0,0.05,97.80000000000001,0)" xlink:href="#Z"/><use transform="matrix(0.05,0,0,0.05,107.80000000000001,0)" xlink:href="#ao"/><use transform="matrix(0.05,0,0,0.05,117.80000000000001,0)" xlink:href="#ap"/></g><path d="M30 0v-248h33v221h125V0H30" id="aq"/><path d="M117-194c89-4 53 116 60 194h-32v-121c0-31-8-49-39-48C34-167 62-67 57 0H25l-1-190h30c1 10-1 24 2 32 11-22 29-35 61-36" id="ar"/><path d="M143 0L79-87 56-68V0H24v-261h32v163l83-92h37l-77 82L181 0h-38" id="as"/><g id="n"><use transform="matrix(0.03703703703703704,0,0,0.03703703703703704,0,0)" xlink:href="#aq"/><use transform="matrix(0.03703703703703704,0,0,0.03703703703703704,7.407407407407408,0)" xlink:href="#R"/><use transform="matrix(0.03703703703703704,0,0,0.03703703703703704,10.333333333333334,0)" xlink:href="#ar"/><use transform="matrix(0.03703703703703704,0,0,0.03703703703703704,17.740740740740744,0)" xlink:href="#as"/></g><path d="M205 0l-28-72H64L36 0H1l101-248h38L239 0h-34zm-38-99l-47-123c-12 45-31 82-46 123h93" id="at"/><path d="M135-143c-3-34-86-38-87 0 15 53 115 12 119 90S17 21 10-45l28-5c4 36 97 45 98 0-10-56-113-15-118-90-4-57 82-63 122-42 12 7 21 19 24 35" id="au"/><path d="M96-169c-40 0-48 33-48 73s9 75 48 75c24 0 41-14 43-38l32 2c-6 37-31 61-74 61-59 0-76-41-82-99-10-93 101-131 147-64 4 7 5 14 7 22l-32 3c-4-21-16-35-41-35" id="av"/><g id="o"><use transform="matrix(0.03703703703703704,0,0,0.03703703703703704,0,0)" xlink:href="#at"/><use transform="matrix(0.03703703703703704,0,0,0.03703703703703704,8.88888888888889,0)" xlink:href="#au"/><use transform="matrix(0.03703703703703704,0,0,0.03703703703703704,15.555555555555557,0)" xlink:href="#au"/><use transform="matrix(0.03703703703703704,0,0,0.03703703703703704,22.222222222222225,0)" xlink:href="#ao"/><use transform="matrix(0.03703703703703704,0,0,0.03703703703703704,29.629629629629633,0)" xlink:href="#O"/><use transform="matrix(0.03703703703703704,0,0,0.03703703703703704,34.03703703703704,0)" xlink:href="#H"/><use transform="matrix(0.03703703703703704,0,0,0.03703703703703704,41.44444444444444,0)" xlink:href="#ar"/><use transform="matrix(0.03703703703703704,0,0,0.03703703703703704,48.85185185185185,0)" xlink:href="#av"/><use transform="matrix(0.03703703703703704,0,0,0.03703703703703704,55.51851851851852,0)" xlink:href="#J"/></g><use transform="matrix(0.03703703703703704,0,0,0.03703703703703704,0,0)" xlink:href="#ac" id="p"/><use transform="matrix(0.03703703703703704,0,0,0.03703703703703704,0,0)" xlink:href="#am" id="q"/><path d="M182-182c0 78-84 86-111 141h115V0H12c-6-101 99-100 120-180 1-22-12-31-33-32-23 0-32 14-35 34l-49-3c5-45 32-70 84-70 51 0 83 22 83 69" id="aw"/><g id="r"><use transform="matrix(0.05,0,0,0.05,0,0)" xlink:href="#x"/><use transform="matrix(0.05,0,0,0.05,12,0)" xlink:href="#y"/><use transform="matrix(0.05,0,0,0.05,22,0)" xlink:href="#z"/><use transform="matrix(0.05,0,0,0.05,27.950000000000003,0)" xlink:href="#A"/><use transform="matrix(0.05,0,0,0.05,32.95,0)" xlink:href="#B"/><use transform="matrix(0.05,0,0,0.05,42.95,0)" xlink:href="#C"/><use transform="matrix(0.05,0,0,0.05,53.900000000000006,0)" xlink:href="#z"/><use transform="matrix(0.05,0,0,0.05,59.85,0)" xlink:href="#D"/><use transform="matrix(0.05,0,0,0.05,64.85000000000001,0)" xlink:href="#E"/><use transform="matrix(0.05,0,0,0.05,74.85000000000001,0)" xlink:href="#F"/><use transform="matrix(0.05,0,0,0.05,84.85000000000001,0)" xlink:href="#aw"/></g><path d="M179-190L93 31C79 59 56 82 12 73V49c39 6 53-20 64-50L1-190h34L92-34l54-156h33" id="ax"/><g id="s"><use transform="matrix(0.05,0,0,0.05,0,0)" xlink:href="#V"/><use transform="matrix(0.05,0,0,0.05,12,0)" xlink:href="#J"/><use transform="matrix(0.05,0,0,0.05,22,0)" xlink:href="#P"/><use transform="matrix(0.05,0,0,0.05,27,0)" xlink:href="#P"/><use transform="matrix(0.05,0,0,0.05,32,0)" xlink:href="#ax"/></g><g id="t"><use transform="matrix(0.05,0,0,0.05,0,0)" xlink:href="#W"/><use transform="matrix(0.05,0,0,0.05,10,0)" xlink:href="#X"/><use transform="matrix(0.05,0,0,0.05,20,0)" xlink:href="#Y"/><use transform="matrix(0.05,0,0,0.05,30,0)" xlink:href="#ap"/><use transform="matrix(0.05,0,0,0.05,40,0)" xlink:href="#aa"/><use transform="matrix(0.05,0,0,0.05,45.95,0)" xlink:href="#W"/><use transform="matrix(0.05,0,0,0.05,55.95,0)" xlink:href="#ab"/><use transform="matrix(0.05,0,0,0.05,65.95,0)" xlink:href="#aa"/><use transform="matrix(0.05,0,0,0.05,71.9,0)" xlink:href="#W"/><use transform="matrix(0.05,0,0,0.05,81.9,0)" xlink:href="#am"/></g><path d="M138-131c27 9 52 24 51 61 0 53-36 74-89 74S11-19 11-69c0-35 22-54 51-61-78-25-46-121 38-121 51 0 83 19 83 66 0 30-18 49-45 54zm-38-16c24 0 32-13 32-36 1-23-11-34-32-34-22 0-33 12-32 34 0 22 9 36 32 36zm1 116c27 0 37-17 37-43 0-25-13-39-39-39-24 0-37 15-37 40 0 27 11 42 39 42" id="ay"/><path d="M128-127c34 4 56 21 59 58 7 91-148 94-172 28-4-9-6-17-7-26l51-5c1 24 16 35 40 36 23 0 39-12 38-36-1-31-31-36-65-34v-40c32 2 59-3 59-33 0-20-13-33-34-33s-33 13-35 32l-50-3c6-44 37-68 86-68 50 0 83 20 83 66 0 35-22 52-53 58" id="az"/><g id="u"><use transform="matrix(0.05,0,0,0.05,0,0)" xlink:href="#x"/><use transform="matrix(0.05,0,0,0.05,12,0)" xlink:href="#B"/><use transform="matrix(0.05,0,0,0.05,22,0)" xlink:href="#ad"/><use transform="matrix(0.05,0,0,0.05,29,0)" xlink:href="#ae"/><use transform="matrix(0.05,0,0,0.05,39,0)" xlink:href="#af"/><use transform="matrix(0.05,0,0,0.05,49.95,0)" xlink:href="#C"/><use transform="matrix(0.05,0,0,0.05,60.900000000000006,0)" xlink:href="#D"/><use transform="matrix(0.05,0,0,0.05,65.9,0)" xlink:href="#ay"/><use transform="matrix(0.05,0,0,0.05,75.9,0)" xlink:href="#az"/><use transform="matrix(0.05,0,0,0.05,85.9,0)" xlink:href="#ah"/></g><g id="v"><use transform="matrix(0.05,0,0,0.05,0,0)" xlink:href="#W"/><use transform="matrix(0.05,0,0,0.05,10,0)" xlink:href="#X"/><use transform="matrix(0.05,0,0,0.05,20,0)" xlink:href="#Y"/><use transform="matrix(0.05,0,0,0.05,30,0)" xlink:href="#ap"/><use transform="matrix(0.05,0,0,0.05,40,0)" xlink:href="#aa"/><use transform="matrix(0.05,0,0,0.05,45.95,0)" xlink:href="#W"/><use transform="matrix(0.05,0,0,0.05,55.95,0)" xlink:href="#ab"/><use transform="matrix(0.05,0,0,0.05,65.95,0)" xlink:href="#aa"/><use transform="matrix(0.05,0,0,0.05,71.9,0)" xlink:href="#W"/><use transform="matrix(0.05,0,0,0.05,81.9,0)" xlink:href="#am"/></g><path d="M115-194c55 1 70 41 70 98S169 2 115 4C84 4 66-9 55-30l1 105H24l-1-265h31l2 30c10-21 28-34 59-34zm-8 174c40 0 45-34 45-75s-6-73-45-74c-42 0-51 32-51 76 0 43 10 73 51 73" id="aA"/><path d="M177-190C167-65 218 103 67 71c-23-6-38-20-44-43l32-5c15 47 100 32 89-28v-30C133-14 115 1 83 1 29 1 15-40 15-95c0-56 16-97 71-98 29-1 48 16 59 35 1-10 0-23 2-32h30zM94-22c36 0 50-32 50-73 0-42-14-75-50-75-39 0-46 34-46 75s6 73 46 73" id="aB"/><g id="w"><use transform="matrix(0.05,0,0,0.05,0,0)" xlink:href="#ap"/><use transform="matrix(0.05,0,0,0.05,10,0)" xlink:href="#ac"/><use transform="matrix(0.05,0,0,0.05,20,0)" xlink:href="#al"/><use transform="matrix(0.05,0,0,0.05,23.95,0)" xlink:href="#ao"/><use transform="matrix(0.05,0,0,0.05,33.95,0)" xlink:href="#ak"/><use transform="matrix(0.05,0,0,0.05,43.95,0)" xlink:href="#ao"/><use transform="matrix(0.05,0,0,0.05,53.95,0)" xlink:href="#ak"/><use transform="matrix(0.05,0,0,0.05,63.95,0)" xlink:href="#aa"/><use transform="matrix(0.05,0,0,0.05,69.9,0)" xlink:href="#aA"/><use transform="matrix(0.05,0,0,0.05,79.9,0)" xlink:href="#Y"/><use transform="matrix(0.05,0,0,0.05,89.9,0)" xlink:href="#al"/><use transform="matrix(0.05,0,0,0.05,93.85000000000001,0)" xlink:href="#aB"/><use transform="matrix(0.05,0,0,0.05,103.85000000000001,0)" xlink:href="#am"/><use transform="matrix(0.05,0,0,0.05,113.85000000000001,0)" xlink:href="#am"/></g></defs></g></svg>