<svg xmlns="http://www.w3.org/2000/svg" xmlns:xlink="http://www.w3.org/1999/xlink" xmlns:lucid="lucid" width="2133" height="1277"><g transform="translate(0 -3945)" lucid:page-tab-id="9QdXEr~dY.W-"><path d="M0 0h3615.47v6718.57H0z" fill="#fff"/><path d="M47.6 5248c0-4.42 3.6-8 8-8H3253.8c4.4 0 8 3.58 8 8v1234c0 4.42-3.6 8-8 8H55.6c-4.4 0-8-3.58-8-8zM94.33 4048c0-4.42 3.6-8 8-8h1951.23c4.42 0 8 3.58 8 8v1144c0 4.42-3.58 8-8 8H102.33c-4.4 0-8-3.58-8-8z" stroke="#fff" fill="#fff"/><path d="M110.36 4068c0-4.42 3.58-8 8-8h280.38c4.42 0 8 3.58 8 8v44c0 4.42-3.58 8-8 8H118.36c-4.42 0-8-3.58-8-8z" stroke="#000" stroke-opacity="0" fill="#fff" fill-opacity="0"/><use xlink:href="#a" transform="matrix(1,0,0,1,130.35506129390296,4060) translate(11.913580246913554 34.888888888888886)"/><use xlink:href="#b" transform="matrix(1,0,0,1,130.35506129390296,4060) translate(101.2716049382716 34.888888888888886)"/><use xlink:href="#c" transform="matrix(1,0,0,1,130.35506129390296,4060) translate(152.80864197530866 34.888888888888886)"/><use xlink:href="#d" transform="matrix(1,0,0,1,130.35506129390296,4060) translate(217.92592592592592 34.888888888888886)"/><path d="M170.25 4144.56c0-4.42 3.58-8 8-8h16.62c4.42 0 8 3.58 8 8v10.88c0 4.42-3.58 8-8 8h-16.62c-4.42 0-8-3.58-8-8z" stroke="#333" fill="#ff8f80"/><path d="M170.25 4204.56c0-4.42 3.58-8 8-8h16.62c4.42 0 8 3.58 8 8v10.88c0 4.42-3.58 8-8 8h-16.62c-4.42 0-8-3.58-8-8z" stroke="#333" fill="#c7e8ac"/><path d="M110.36 4128c0-4.42 3.58-8 8-8h492.66c4.42 0 8 3.58 8 8v44c0 4.42-3.58 8-8 8H118.36c-4.42 0-8-3.58-8-8z" stroke="#000" stroke-opacity="0" fill="#fff" fill-opacity="0"/><use xlink:href="#e" transform="matrix(1,0,0,1,130.35506129390302,4120) translate(85.65 33.6)"/><use xlink:href="#f" transform="matrix(1,0,0,1,130.35506129390302,4120) translate(101.15 33.6)"/><path d="M110.36 4188c0-4.42 3.58-8 8-8h725.37c4.42 0 8 3.58 8 8v44c0 4.42-3.58 8-8 8H118.36c-4.42 0-8-3.58-8-8z" stroke="#000" stroke-opacity="0" fill="#fff" fill-opacity="0"/><use xlink:href="#e" transform="matrix(1,0,0,1,130.35506129390302,4180) translate(83.85000000000002 33.6)"/><use xlink:href="#g" transform="matrix(1,0,0,1,130.35506129390302,4180) translate(99.35000000000002 33.6)"/><use xlink:href="#h" transform="matrix(1,0,0,1,130.35506129390302,4180) translate(364.65 33.6)"/><use xlink:href="#i" transform="matrix(1,0,0,1,130.35506129390302,4180) translate(400.59999999999997 33.6)"/><use xlink:href="#j" transform="matrix(1,0,0,1,130.35506129390302,4180) translate(467.4 33.6)"/><use xlink:href="#k" transform="matrix(1,0,0,1,130.35506129390302,4180) translate(514.3499999999999 33.6)"/><use xlink:href="#l" transform="matrix(1,0,0,1,130.35506129390302,4180) translate(545.3 33.6)"/><path d="M174.1 4378c0-4.42 3.6-8 8-8h415.46c4.42 0 8 3.58 8 8v414c0 4.42-3.58 8-8 8H182.1c-4.4 0-8-3.58-8-8z" stroke="#333" fill="#fff"/><path d="M318.78 4348c0-4.42 3.58-8 8-8H452.9c4.42 0 8 3.58 8 8v24c0 4.42-3.58 8-8 8H326.78c-4.42 0-8-3.58-8-8z" stroke="#000" stroke-opacity="0" fill="#ffeca9"/><use xlink:href="#m" transform="matrix(1,0,0,1,338.7797223799549,4340) translate(6.599999999999994 23.6)"/><use xlink:href="#n" transform="matrix(1,0,0,1,338.7797223799549,4340) translate(52.5 23.6)"/><path d="M193.36 4288c0-4.42 3.58-8 8-8h384c4.42 0 8 3.58 8 8v44c0 4.42-3.58 8-8 8h-384c-4.42 0-8-3.58-8-8z" stroke="#000" stroke-opacity="0" fill="#fff" fill-opacity="0"/><use xlink:href="#o" transform="matrix(1,0,0,1,213.36089258674758,4280) translate(10.687037037037015 23.066666666666663)"/><use xlink:href="#p" transform="matrix(1,0,0,1,213.36089258674758,4280) translate(47.183333333333316 23.066666666666663)"/><use xlink:href="#q" transform="matrix(1,0,0,1,213.36089258674758,4280) translate(112.61666666666665 23.066666666666663)"/><use xlink:href="#r" transform="matrix(1,0,0,1,213.36089258674758,4280) translate(142.42037037037036 23.066666666666663)"/><use xlink:href="#s" transform="matrix(1,0,0,1,213.36089258674758,4280) translate(213.63148148148147 23.066666666666663)"/><use xlink:href="#t" transform="matrix(1,0,0,1,213.36089258674758,4280) translate(232.89074074074074 23.066666666666663)"/><use xlink:href="#u" transform="matrix(1,0,0,1,213.36089258674758,4280) translate(247.3351851851852 23.066666666666663)"/><use xlink:href="#v" transform="matrix(1,0,0,1,213.36089258674758,4280) translate(293.50925925925924 23.066666666666663)"/><use xlink:href="#w" transform="matrix(1,0,0,1,213.36089258674758,4280) translate(122.77592592592592 43.86666666666667)"/><use xlink:href="#x" transform="matrix(1,0,0,1,213.36089258674758,4280) translate(183.3462962962963 43.86666666666667)"/><path d="M351.38 4630c0 33.14-26.87 60-60 60-33.14 0-60-26.86-60-60s26.86-60 60-60c33.13 0 60 26.86 60 60z" stroke="#333" fill="#fff"/><use xlink:href="#y" transform="matrix(1,0,0,1,249.37502565434227,4594) translate(6.524999999999999 39.6)"/><path d="M553.83 4500c0 33.14-26.86 60-60 60-33.13 0-60-26.86-60-60s26.87-60 60-60c33.14 0 60 26.86 60 60z" stroke="#333" fill="#fff"/><use xlink:href="#z" transform="matrix(1,0,0,1,451.83340786359184,4464) translate(14.024999999999999 32.8)"/><use xlink:href="#A" transform="matrix(1,0,0,1,451.83340786359184,4464) translate(3.954629629629622 49.06666666666667)"/><use xlink:href="#B" transform="matrix(1,0,0,1,451.83340786359184,4464) translate(43.58981481481481 49.06666666666667)"/><path d="M419.96 4400h81.87l12 12v48h-93.87z" stroke="#333" fill="#fff"/><path d="M501.83 4400.48V4412h11.53" stroke="#333" fill="#fff"/><use xlink:href="#C" transform="matrix(1,0,0,1,425.96160704627323,4407.2) translate(17.525 27.6)"/><path d="M394.1 4618.1l-.44 3.4-1.35 3.25-2.14 2.8-2.8 2.16-3.25 1.35-3.4.45h-8.2v-3h8l2.83-.37 2.5-1.04 2.2-1.68 1.66-2.2 1.03-2.5.37-2.82v-42.1h3zm18.6-116.6h-8l-2.82.37-2.5 1.04-2.2 1.68-1.67 2.2-1.03 2.5-.37 2.82v42.1h-3v-42.3l.45-3.4 1.34-3.25 2.15-2.8 2.8-2.16 3.25-1.35 3.4-.45h8.2zM371 4634.64l-14.27-4.64 14.27-4.64z" fill="#333"/><path d="M372.5 4636.7l-20.62-6.7 20.62-6.7zm-10.92-6.7l7.92 2.57v-5.14zM428.48 4500l-14.27 4.64v-9.28z" fill="#333"/><path d="M433.33 4500l-20.62 6.7v-13.4zm-17.62 2.57l7.92-2.57-7.9-2.57z" fill="#333"/><use xlink:href="#D" transform="matrix(1,0,0,1,361.379216758967,4554.2) translate(0.004999999999999005 14.4)"/><path d="M216.1 4526.47h81.86l12 12v48H216.1z" stroke="#333" fill="#fff"/><path d="M297.96 4526.95v11.52h11.53" stroke="#333" fill="#fff"/><use xlink:href="#C" transform="matrix(1,0,0,1,222.09037329868679,4533.671634153112) translate(17.525 27.6)"/><path d="M540.6 4723.53c0 33.14-26.85 60-60 60-33.13 0-60-26.86-60-60s26.87-60 60-60c33.15 0 60 26.86 60 60z" stroke="#333" fill="#fff"/><use xlink:href="#E" transform="matrix(1,0,0,1,438.61142526381684,4687.528365846888) translate(6.524999999999999 39.6)"/><path d="M405.33 4620h81.87l12 12v48h-93.87z" stroke="#333" fill="#fff"/><path d="M487.2 4620.48V4632h11.52" stroke="#333" fill="#fff"/><use xlink:href="#C" transform="matrix(1,0,0,1,411.3267729081614,4627.2) translate(17.525 27.6)"/><path d="M521.3 4676h-3v-49.48h3zm1.43-71.08h-3v-30.38h3z" fill="#333"/><path d="M521.3 4678.8l-3-2.57v-.25h3zM525.86 4573.04h-9.27l4.63-14.27z" fill="#333"/><path d="M527.93 4574.54h-13.4l6.7-20.62zm-9.27-3h5.14l-2.57-7.9z" fill="#333"/><use xlink:href="#D" transform="matrix(1,0,0,1,489.29541275130885,4604.917692260954) translate(0.004999999999999005 14.4)"/><path d="M910.1 4378c0-4.42 3.6-8 8-8h415.46c4.42 0 8 3.58 8 8v414c0 4.42-3.58 8-8 8H918.1c-4.4 0-8-3.58-8-8z" stroke="#333" fill="#fff"/><path d="M1054.78 4348c0-4.42 3.58-8 8-8h126.1c4.43 0 8 3.58 8 8v24c0 4.42-3.57 8-8 8h-126.1c-4.42 0-8-3.58-8-8z" stroke="#000" stroke-opacity="0" fill="#ffeca9"/><use xlink:href="#F" transform="matrix(1,0,0,1,1074.7758655829316,4340) translate(23.599999999999994 23.6)"/><path d="M929.36 4288c0-4.42 3.58-8 8-8h384c4.42 0 8 3.58 8 8v44c0 4.42-3.58 8-8 8h-384c-4.42 0-8-3.58-8-8z" stroke="#000" stroke-opacity="0" fill="#fff" fill-opacity="0"/><use xlink:href="#G" transform="matrix(1,0,0,1,949.357035789724,4280) translate(14.490740740740705 23.066666666666663)"/><use xlink:href="#H" transform="matrix(1,0,0,1,949.357035789724,4280) translate(52.04629629629627 23.066666666666663)"/><use xlink:href="#I" transform="matrix(1,0,0,1,949.357035789724,4280) translate(71.30555555555553 23.066666666666663)"/><use xlink:href="#J" transform="matrix(1,0,0,1,949.357035789724,4280) translate(118.49074074074073 23.066666666666663)"/><use xlink:href="#K" transform="matrix(1,0,0,1,949.357035789724,4280) translate(150.22037037037038 23.066666666666663)"/><use xlink:href="#L" transform="matrix(1,0,0,1,949.357035789724,4280) translate(215.6537037037037 23.066666666666663)"/><use xlink:href="#M" transform="matrix(1,0,0,1,949.357035789724,4280) translate(232.9388888888889 23.066666666666663)"/><use xlink:href="#N" transform="matrix(1,0,0,1,949.357035789724,4280) translate(300.3462962962963 23.066666666666663)"/><use xlink:href="#O" transform="matrix(1,0,0,1,949.357035789724,4280) translate(335.8796296296297 23.066666666666663)"/><use xlink:href="#P" transform="matrix(1,0,0,1,949.357035789724,4280) translate(113.17037037037036 43.86666666666667)"/><use xlink:href="#Q" transform="matrix(1,0,0,1,949.357035789724,4280) translate(149.71481481481482 43.86666666666667)"/><use xlink:href="#R" transform="matrix(1,0,0,1,949.357035789724,4280) translate(217.98888888888888 43.86666666666667)"/><path d="M1087.37 4630c0 33.14-26.86 60-60 60s-60-26.86-60-60 26.86-60 60-60 60 26.86 60 60z" stroke="#333" fill="#fff"/><use xlink:href="#y" transform="matrix(1,0,0,1,985.3711688573187,4594) translate(6.524999999999999 39.6)"/><path d="M1289.83 4500c0 33.14-26.86 60-60 60s-60-26.86-60-60 26.86-60 60-60 60 26.86 60 60z" stroke="#333" fill="#fff"/><use xlink:href="#z" transform="matrix(1,0,0,1,1187.8295510665682,4464) translate(14.024999999999999 32.8)"/><use xlink:href="#A" transform="matrix(1,0,0,1,1187.8295510665682,4464) translate(3.954629629629622 49.06666666666667)"/><use xlink:href="#B" transform="matrix(1,0,0,1,1187.8295510665682,4464) translate(43.58981481481481 49.06666666666667)"/><path d="M1155.96 4400h81.87l12 12v48h-93.87z" stroke="#333" fill="#fff"/><path d="M1237.83 4400.48V4412h11.52" stroke="#333" fill="#fff"/><use xlink:href="#C" transform="matrix(1,0,0,1,1161.9577502492496,4407.2) translate(17.525 27.6)"/><path d="M1130.1 4618.1l-.45 3.4-1.34 3.25-2.14 2.8-2.8 2.16-3.25 1.35-3.4.45h-8.2v-3h8l2.82-.37 2.52-1.04 2.18-1.68 1.67-2.2 1.03-2.5.37-2.82v-42.1h3zm18.6-116.6h-8l-2.82.37-2.5 1.04-2.2 1.68-1.67 2.2-1.03 2.5-.37 2.82v42.1h-3v-42.3l.45-3.4 1.34-3.25 2.15-2.8 2.8-2.16 3.25-1.35 3.4-.45h8.2zM1107 4634.64l-14.27-4.64 14.26-4.64z" fill="#333"/><path d="M1108.5 4636.7l-20.63-6.7 20.62-6.7zm-10.92-6.7l7.9 2.57v-5.14zM1164.48 4500l-14.27 4.64v-9.28z" fill="#333"/><path d="M1169.33 4500l-20.62 6.7v-13.4zm-17.62 2.57l7.92-2.57-7.9-2.57z" fill="#333"/><use xlink:href="#D" transform="matrix(1,0,0,1,1097.3753599619436,4554.2) translate(0.004999999999999005 14.4)"/><path d="M952.1 4526.47h81.86l12 12v48H952.1z" stroke="#333" fill="#fff"/><path d="M1033.96 4526.95v11.52h11.52" stroke="#333" fill="#fff"/><use xlink:href="#C" transform="matrix(1,0,0,1,958.0865165016631,4533.671634153112) translate(17.525 27.6)"/><path d="M1276.6 4723.53c0 33.14-26.86 60-60 60-33.13 0-60-26.86-60-60s26.87-60 60-60c33.14 0 60 26.86 60 60z" stroke="#333" fill="#fff"/><use xlink:href="#E" transform="matrix(1,0,0,1,1174.6075684667933,4687.528365846888) translate(6.524999999999999 39.6)"/><path d="M1141.32 4620h81.87l12 12v48h-93.88z" stroke="#333" fill="#fff"/><path d="M1223.2 4620.48V4632h11.52" stroke="#333" fill="#fff"/><use xlink:href="#C" transform="matrix(1,0,0,1,1147.3229161111376,4627.2) translate(17.525 27.6)"/><path d="M1257.3 4676h-3v-49.48h3zm1.42-71.08h-3v-30.38h3z" fill="#333"/><path d="M1257.3 4678.8l-3-2.57v-.25h3zM1261.86 4573.04h-9.27l4.62-14.27z" fill="#333"/><path d="M1263.92 4574.54h-13.4l6.7-20.62zm-9.27-3h5.14l-2.58-7.9z" fill="#333"/><use xlink:href="#D" transform="matrix(1,0,0,1,1225.2915559542855,4604.917692260954) translate(0.004999999999999005 14.4)"/><path d="M829.43 4585c0 33.14-26.86 60-60 60-33.13 0-60-26.86-60-60s26.87-60 60-60c33.14 0 60 26.86 60 60z" stroke="#333" fill="#fff"/><use xlink:href="#y" transform="matrix(1,0,0,1,727.4341445736695,4549) translate(6.524999999999999 39.6)"/><path d="M850.55 4585H889" stroke="#333" stroke-width="3" fill="none"/><path d="M834.8 4585l14.25-4.64v9.28zM904.76 4585l-14.27 4.64v-9.28z" stroke="#333" stroke-width="3" fill="#333"/><path d="M691.7 4480h81.86l12 12v48H691.7z" stroke="#333" fill="#fff"/><path d="M773.56 4480.48V4492h11.53" stroke="#333" fill="#fff"/><use xlink:href="#S" transform="matrix(1,0,0,1,697.6911100087643,4487.2) translate(17.525 27.6)"/><path d="M1448.43 4153c0-4.42 3.58-8 8-8h415.45c4.42 0 8 3.58 8 8v414c0 4.42-3.58 8-8 8h-415.45c-4.42 0-8-3.58-8-8z" stroke="#333" fill="#ff8f80"/><path d="M1593.1 4123c0-4.42 3.58-8 8-8h126.1c4.43 0 8 3.58 8 8v24c0 4.42-3.57 8-8 8h-126.1c-4.42 0-8-3.58-8-8z" stroke="#000" stroke-opacity="0" fill="#ffeca9"/><use xlink:href="#T" transform="matrix(1,0,0,1,1613.0938616154067,4115) translate(10.099999999999994 23.6)"/><use xlink:href="#n" transform="matrix(1,0,0,1,1613.0938616154067,4115) translate(49 23.6)"/><path d="M1467.68 4063c0-4.42 3.58-8 8-8h384c4.4 0 8 3.58 8 8v44c0 4.42-3.6 8-8 8h-384c-4.42 0-8-3.58-8-8z" stroke="#000" stroke-opacity="0" fill="#fff" fill-opacity="0"/><use xlink:href="#U" transform="matrix(1,0,0,1,1487.6750318221991,4055) translate(138.6648148148148 33.46666666666667)"/><path d="M1625.7 4405c0 33.14-26.87 60-60 60-33.15 0-60-26.86-60-60s26.85-60 60-60c33.13 0 60 26.86 60 60z" stroke="#333" fill="#fff"/><use xlink:href="#y" transform="matrix(1,0,0,1,1523.6891648897938,4369) translate(6.524999999999999 39.6)"/><path d="M1828.15 4275c0 33.14-26.87 60-60 60-33.14 0-60-26.86-60-60s26.86-60 60-60c33.13 0 60 26.86 60 60z" stroke="#333" fill="#fff"/><use xlink:href="#z" transform="matrix(1,0,0,1,1726.1475470990433,4239) translate(14.024999999999999 32.8)"/><use xlink:href="#A" transform="matrix(1,0,0,1,1726.1475470990433,4239) translate(3.954629629629622 49.06666666666667)"/><use xlink:href="#B" transform="matrix(1,0,0,1,1726.1475470990433,4239) translate(43.58981481481481 49.06666666666667)"/><path d="M1694.28 4175h81.87l12 12v48h-93.87z" stroke="#333" fill="#fff"/><path d="M1776.15 4175.48V4187h11.52" stroke="#333" fill="#fff"/><use xlink:href="#C" transform="matrix(1,0,0,1,1700.2757462817247,4182.2) translate(17.525 27.6)"/><path d="M1668.42 4393.1l-.45 3.4-1.34 3.25-2.16 2.8-2.8 2.16-3.25 1.35-3.4.45h-8.2v-3h8l2.82-.37 2.5-1.04 2.2-1.68 1.67-2.2 1.05-2.5.37-2.82v-42.1h3zm18.6-116.6h-8l-2.82.37-2.52 1.04-2.18 1.68-1.67 2.2-1.04 2.5-.38 2.82v42.1h-3v-42.3l.44-3.4 1.35-3.25 2.16-2.8 2.8-2.16 3.25-1.35 3.42-.45h8.2zM1645.3 4409.64l-14.26-4.64 14.27-4.64z" fill="#333"/><path d="M1646.8 4411.7l-20.6-6.7 20.6-6.7zm-10.9-6.7l7.9 2.57v-5.14zM1702.8 4275l-14.27 4.64v-9.28z" fill="#333"/><path d="M1707.65 4275l-20.62 6.7v-13.4zm-17.62 2.57l7.9-2.57-7.9-2.57z" fill="#333"/><use xlink:href="#D" transform="matrix(1,0,0,1,1635.6933559944187,4329.2) translate(0.004999999999999005 14.4)"/><path d="M1490.4 4301.47h81.88l12 12v48h-93.88z" stroke="#333" fill="#fff"/><path d="M1572.28 4301.95v11.52h11.52" stroke="#333" fill="#fff"/><use xlink:href="#C" transform="matrix(1,0,0,1,1496.4045125341381,4308.671634153112) translate(17.525 27.6)"/><path d="M1814.93 4498.53c0 33.14-26.87 60-60 60-33.14 0-60-26.86-60-60s26.86-60 60-60c33.13 0 60 26.86 60 60z" stroke="#333" fill="#fff"/><use xlink:href="#E" transform="matrix(1,0,0,1,1712.9255644992684,4462.528365846888) translate(6.524999999999999 39.6)"/><path d="M1679.64 4395h81.87l12 12v48h-93.86z" stroke="#333" fill="#fff"/><path d="M1761.5 4395.48V4407h11.54" stroke="#333" fill="#fff"/><use xlink:href="#C" transform="matrix(1,0,0,1,1685.6409121436127,4402.2) translate(17.525 27.6)"/><path d="M1795.63 4451h-3v-49.48h3zm1.4-71.08h-3v-30.38h3z" fill="#333"/><path d="M1795.63 4453.8l-3-2.57v-.25h3zM1800.18 4348.04h-9.27l4.64-14.27z" fill="#333"/><path d="M1802.24 4349.54h-13.4l6.7-20.62zm-9.27-3h5.14l-2.56-7.9z" fill="#333"/><use xlink:href="#D" transform="matrix(1,0,0,1,1763.6095519867606,4379.917692260954) translate(0.004999999999999005 14.4)"/><path d="M1386.5 4693c0-4.42 3.6-8 8-8h600.4c4.43 0 8 3.58 8 8v439c0 4.42-3.57 8-8 8h-600.4c-4.4 0-8-3.58-8-8z" stroke="#834187" fill="#c7e8ac"/><path d="M1600.94 4663c0-4.42 3.58-8 8-8h126.1c4.43 0 8 3.58 8 8v24c0 4.42-3.57 8-8 8h-126.1c-4.42 0-8-3.58-8-8z" stroke="#000" stroke-opacity="0" fill="#ffeca9"/><use xlink:href="#T" transform="matrix(1,0,0,1,1620.9357922327254,4655) translate(10.099999999999994 23.6)"/><use xlink:href="#n" transform="matrix(1,0,0,1,1620.9357922327254,4655) translate(49 23.6)"/><path d="M1381.86 4603c0-4.42 3.58-8 8-8h541.54c4.42 0 8 3.58 8 8v34c0 4.42-3.58 8-8 8h-541.54c-4.42 0-8-3.58-8-8z" stroke="#000" stroke-opacity="0" fill="#fff" fill-opacity="0"/><use xlink:href="#V" transform="matrix(1,0,0,1,1401.857076539582,4595) translate(2.5148148148147698 18.066666666666663)"/><use xlink:href="#W" transform="matrix(1,0,0,1,1401.857076539582,4595) translate(50.614814814814785 18.066666666666663)"/><use xlink:href="#X" transform="matrix(1,0,0,1,1401.857076539582,4595) translate(114.94074074074072 18.066666666666663)"/><use xlink:href="#Y" transform="matrix(1,0,0,1,1401.857076539582,4595) translate(157.26296296296294 18.066666666666663)"/><use xlink:href="#Z" transform="matrix(1,0,0,1,1401.857076539582,4595) translate(204.78518518518518 18.066666666666663)"/><use xlink:href="#aa" transform="matrix(1,0,0,1,1401.857076539582,4595) translate(268.19629629629634 18.066666666666663)"/><use xlink:href="#ab" transform="matrix(1,0,0,1,1401.857076539582,4595) translate(292.2703703703704 18.066666666666663)"/><use xlink:href="#ac" transform="matrix(1,0,0,1,1401.857076539582,4595) translate(306.7148148148149 18.066666666666663)"/><use xlink:href="#ad" transform="matrix(1,0,0,1,1401.857076539582,4595) translate(76.66296296296292 38.86666666666667)"/><use xlink:href="#ab" transform="matrix(1,0,0,1,1401.857076539582,4595) translate(129.57777777777775 38.86666666666667)"/><use xlink:href="#P" transform="matrix(1,0,0,1,1401.857076539582,4595) translate(144.02222222222218 38.86666666666667)"/><use xlink:href="#ae" transform="matrix(1,0,0,1,1401.857076539582,4595) translate(180.56666666666666 38.86666666666667)"/><use xlink:href="#af" transform="matrix(1,0,0,1,1401.857076539582,4595) translate(219.08518518518517 38.86666666666667)"/><use xlink:href="#ag" transform="matrix(1,0,0,1,1401.857076539582,4595) translate(252.7888888888889 38.86666666666667)"/><use xlink:href="#ah" transform="matrix(1,0,0,1,1401.857076539582,4595) translate(280.7148148148148 38.86666666666667)"/><use xlink:href="#ai" transform="matrix(1,0,0,1,1401.857076539582,4595) translate(303.82592592592596 38.86666666666667)"/><use xlink:href="#aj" transform="matrix(1,0,0,1,1401.857076539582,4595) translate(372.1 38.86666666666667)"/><path d="M1572.9 5038.53c0 33.14-26.85 60-60 60-33.13 0-60-26.86-60-60s26.87-60 60-60c33.15 0 60 26.86 60 60z" stroke="#333" fill="#fff"/><g><use xlink:href="#y" transform="matrix(1,0,0,1,1470.9119546985403,5002.528365846888) translate(6.524999999999999 39.6)"/></g><path d="M1963.88 4807.5c0 33.14-26.87 60-60 60-33.14 0-60-26.86-60-60s26.86-60 60-60c33.13 0 60 26.86 60 60z" stroke="#333" fill="#fff"/><g><use xlink:href="#z" transform="matrix(1,0,0,1,1861.8769718632204,4771.5) translate(14.024999999999999 32.8)"/><use xlink:href="#A" transform="matrix(1,0,0,1,1861.8769718632204,4771.5) translate(3.954629629629622 49.06666666666667)"/><use xlink:href="#B" transform="matrix(1,0,0,1,1861.8769718632204,4771.5) translate(43.58981481481481 49.06666666666667)"/></g><path d="M1832.07 4707.5h81.87l12 12v48h-93.87z" stroke="#333" fill="#fff"/><path d="M1913.94 4707.98v11.52h11.52" stroke="#333" fill="#fff"/><g><use xlink:href="#C" transform="matrix(1,0,0,1,1838.0678408017823,4714.7) translate(17.525 27.6)"/></g><path d="M1437.63 4935h81.87l12 12v48h-93.87z" stroke="#333" fill="#fff"/><path d="M1519.5 4935.48V4947h11.52" stroke="#333" fill="#fff"/><g><use xlink:href="#S" transform="matrix(1,0,0,1,1443.6273023428846,4942.2) translate(17.525 27.6)"/></g><path d="M1952.07 5038.53c0 33.14-26.87 60-60 60-33.14 0-60-26.86-60-60s26.86-60 60-60c33.13 0 60 26.86 60 60z" stroke="#333" fill="#fff"/><g><use xlink:href="#E" transform="matrix(1,0,0,1,1850.0678408017823,5002.528365846888) translate(6.524999999999999 39.6)"/></g><path d="M1816.78 4935h81.87l12 12v48h-93.87z" stroke="#333" fill="#fff"/><path d="M1898.65 4935.48V4947h11.53" stroke="#333" fill="#fff"/><g><use xlink:href="#C" transform="matrix(1,0,0,1,1822.7831884461266,4942.2) translate(17.525 27.6)"/></g><path d="M1932.77 4991h-3v-65.9h3zm0-87.5h-3v-21.46h3z" fill="#333"/><path d="M1932.77 4993.8l-3-2.57v-.25h3zM1935.9 4880.54h-9.26l4.63-14.27z" fill="#333"/><path d="M1937.97 4882.04h-13.4l6.7-20.62zm-9.27-3h5.14l-2.57-7.9z" fill="#333"/><g><use xlink:href="#D" transform="matrix(1,0,0,1,1900.0454025201057,4903.493487942189) translate(0.004999999999999005 14.4)"/></g><path d="M1578.92 4812.5c0 33.14-26.87 60-60 60-33.14 0-60-26.86-60-60s26.86-60 60-60c33.13 0 60 26.86 60 60z" stroke="#333" fill="#834187"/><g><use xlink:href="#ak" transform="matrix(1,0,0,1,1476.916444316365,4776.5) translate(14.024999999999999 32.8)"/><use xlink:href="#al" transform="matrix(1,0,0,1,1476.916444316365,4776.5) translate(3.954629629629622 49.06666666666667)"/><use xlink:href="#am" transform="matrix(1,0,0,1,1476.916444316365,4776.5) translate(43.58981481481481 49.06666666666667)"/></g><path d="M1442.13 4707.5H1524l12 12v48h-93.87z" stroke="#333" fill="#834187"/><path d="M1524 4707.98v11.52h11.53" stroke="#333" fill="#834187"/><g><use xlink:href="#an" transform="matrix(1,0,0,1,1448.1332558702406,4714.7) translate(17.525 27.6)"/></g><path d="M1932.77 4991h-3v-65.9h3zm0-87.5h-3v-21.46h3zM1932.77 4992.5h-3V4991h3zM1935.9 4880.54h-9.26l4.63-14.27z" fill="#333"/><path d="M1937.97 4882.04h-13.4l6.7-20.62zm-9.27-3h5.14l-2.57-7.9z" fill="#333"/><g><use xlink:href="#D" transform="matrix(1,0,0,1,1900.0454025201057,4903.493487942189) translate(0.004999999999999005 14.4)"/></g><path d="M1556.05 4993.17h-3v-67.25h3zm0-88.85h-3v-22.35h3z" fill="#333"/><path fill="#333"/><path d="M1559.2 4880.47h-9.28l4.63-14.27z" fill="#333"/><path d="M1561.25 4881.97h-13.4l6.7-20.62zm-9.27-3h5.14l-2.57-7.92z" fill="#333"/><g><use xlink:href="#D" transform="matrix(1,0,0,1,1523.3264168943758,4904.317306520263) translate(0.004999999999999005 14.4)"/></g><path d="M1612.3 4814h-12.26v-3h12.25zm210.68 0h-12.24v-3h12.24zM1838.75 4812.5l-14.27 4.64v-9.28z" fill="#834187"/><path d="M1843.6 4812.5l-20.62 6.7v-13.4zm-17.62 2.57l7.92-2.57-7.92-2.57zM1598.54 4817.14l-14.27-4.64 14.27-4.64z" fill="#834187"/><path d="M1600.04 4819.2l-20.62-6.7 20.62-6.7zm-10.92-6.7l7.92 2.57v-5.14z" fill="#834187"/><g><use xlink:href="#ao" transform="matrix(1,0,0,1,1612.2855236352352,4801.7) translate(0.0049999999999954525 14.4)"/></g><path d="M45.8 5248c0-4.42 3.57-8 8-8h280.37c4.42 0 8 3.58 8 8v44c0 4.42-3.58 8-8 8H53.8c-4.43 0-8-3.58-8-8z" stroke="#000" stroke-opacity="0" fill="#fff" fill-opacity="0"/><g><use xlink:href="#a" transform="matrix(1,0,0,1,65.78723126827805,5240) translate(11.913580246913554 34.888888888888886)"/><use xlink:href="#b" transform="matrix(1,0,0,1,65.78723126827805,5240) translate(101.2716049382716 34.888888888888886)"/><use xlink:href="#c" transform="matrix(1,0,0,1,65.78723126827805,5240) translate(152.80864197530866 34.888888888888886)"/><use xlink:href="#ap" transform="matrix(1,0,0,1,65.78723126827805,5240) translate(217.92592592592592 34.888888888888886)"/></g><defs><path fill="#333" d="M238-95c0 69-44 99-111 99C63 4 22-25 22-93v-155h51v151c-1 38 19 59 55 60 90 1 49-130 58-211h52v153" id="aq"/><path fill="#333" d="M135-194c53 0 70 44 70 98 0 56-19 98-73 100-31 1-45-17-59-34 3 33 2 69 2 105H25l-1-265h48c2 10 0 23 3 31 11-24 29-35 60-35zM114-30c33 0 39-31 40-66 0-38-9-64-40-64-56 0-55 130 0 130" id="ar"/><path fill="#333" d="M88-194c31-1 46 15 58 34l-1-101h50l1 261h-48c-2-10 0-23-3-31C134-8 116 4 84 4 32 4 16-41 15-95c0-56 19-97 73-99zm17 164c33 0 40-30 41-66 1-37-9-64-41-64s-38 30-39 65c0 43 13 65 39 65" id="as"/><path fill="#333" d="M133-34C117-15 103 5 69 4 32 3 11-16 11-54c-1-60 55-63 116-61 1-26-3-47-28-47-18 1-26 9-28 27l-52-2c7-38 36-58 82-57s74 22 75 68l1 82c-1 14 12 18 25 15v27c-30 8-71 5-69-32zm-48 3c29 0 43-24 42-57-32 0-66-3-65 30 0 17 8 27 23 27" id="at"/><path fill="#333" d="M115-3C79 11 28 4 28-45v-112H4v-33h27l15-45h31v45h36v33H77v99c-1 23 16 31 38 25v30" id="au"/><path fill="#333" d="M185-48c-13 30-37 53-82 52C43 2 14-33 14-96s30-98 90-98c62 0 83 45 84 108H66c0 31 8 55 39 56 18 0 30-7 34-22zm-45-69c5-46-57-63-70-21-2 6-4 13-4 21h74" id="av"/><g id="a"><use transform="matrix(0.06790123456790124,0,0,0.06790123456790124,0,0)" xlink:href="#aq"/><use transform="matrix(0.06790123456790124,0,0,0.06790123456790124,17.58641975308642,0)" xlink:href="#ar"/><use transform="matrix(0.06790123456790124,0,0,0.06790123456790124,32.45679012345679,0)" xlink:href="#as"/><use transform="matrix(0.06790123456790124,0,0,0.06790123456790124,47.327160493827165,0)" xlink:href="#at"/><use transform="matrix(0.06790123456790124,0,0,0.06790123456790124,60.90740740740741,0)" xlink:href="#au"/><use transform="matrix(0.06790123456790124,0,0,0.06790123456790124,68.98765432098766,0)" xlink:href="#av"/></g><path fill="#333" d="M137-138c1-29-70-34-71-4 15 46 118 7 119 86 1 83-164 76-172 9l43-7c4 19 20 25 44 25 33 8 57-30 24-41C81-84 22-81 20-136c-2-80 154-74 161-7" id="aw"/><g id="b"><use transform="matrix(0.06790123456790124,0,0,0.06790123456790124,0,0)" xlink:href="#aq"/><use transform="matrix(0.06790123456790124,0,0,0.06790123456790124,17.58641975308642,0)" xlink:href="#aw"/><use transform="matrix(0.06790123456790124,0,0,0.06790123456790124,31.16666666666667,0)" xlink:href="#av"/></g><path fill="#333" d="M67-125c0 53 21 87 73 88 37 1 54-22 65-47l45 17C233-25 199 4 140 4 58 4 20-42 15-125 8-235 124-281 211-232c18 10 29 29 36 50l-46 12c-8-25-30-41-62-41-52 0-71 34-72 86" id="ax"/><g id="c"><use transform="matrix(0.06790123456790124,0,0,0.06790123456790124,0,0)" xlink:href="#ax"/><use transform="matrix(0.06790123456790124,0,0,0.06790123456790124,17.58641975308642,0)" xlink:href="#at"/><use transform="matrix(0.06790123456790124,0,0,0.06790123456790124,31.16666666666667,0)" xlink:href="#aw"/><use transform="matrix(0.06790123456790124,0,0,0.06790123456790124,44.74691358024692,0)" xlink:href="#av"/></g><path fill="#333" d="M160-152l-12 59h37v26h-43L128 0h-28l14-67H60L46 0H20l13-67H6v-26h33l13-59H15v-26h42l15-67h27l-15 67h54l15-67h27l-14 67h28v26h-34zm-81 0L66-93h55l12-59H79" id="ay"/><path fill="#333" d="M139-81c0-46-55-55-73-27H18l9-140h149v37H72l-4 63c44-38 133-4 122 66C201 21 21 35 11-62l49-4c5 18 15 30 39 30 26 0 40-18 40-45" id="az"/><g id="d"><use transform="matrix(0.06790123456790124,0,0,0.06790123456790124,0,0)" xlink:href="#ay"/><use transform="matrix(0.06790123456790124,0,0,0.06790123456790124,13.580246913580249,0)" xlink:href="#az"/></g><path fill="#333" d="M18-150v-26h174v26H18zm0 90v-26h174v26H18" id="aA"/><use transform="matrix(0.05,0,0,0.05,0,0)" xlink:href="#aA" id="e"/><path fill="#333" d="M30-248c87 1 191-15 191 75 0 78-77 80-158 76V0H30v-248zm33 125c57 0 124 11 124-50 0-59-68-47-124-48v98" id="aB"/><path fill="#333" d="M233-177c-1 41-23 64-60 70L243 0h-38l-65-103H63V0H30v-248c88 3 205-21 203 71zM63-129c60-2 137 13 137-47 0-61-80-42-137-45v92" id="aC"/><path fill="#333" d="M30 0v-248h187v28H63v79h144v27H63v87h162V0H30" id="aD"/><path fill="#333" d="M137 0h-34L2-248h35l83 218 83-218h36" id="aE"/><path fill="#333" d="M190 0L58-211 59 0H30v-248h39L202-35l-2-213h31V0h-41" id="aF"/><path fill="#333" d="M127-220V0H93v-220H8v-28h204v28h-85" id="aG"/><path fill="#333" d="M-5 72V49h209v23H-5" id="aH"/><path fill="#333" d="M33 0v-248h34V0H33" id="aI"/><path fill="#333" d="M30-248c118-7 216 8 213 122C240-48 200 0 122 0H30v-248zM63-27c89 8 146-16 146-99s-60-101-146-95v194" id="aJ"/><path fill="#333" d="M232-93c-1 65-40 97-104 97C67 4 28-28 28-90v-158h33c8 89-33 224 67 224 102 0 64-133 71-224h33v155" id="aK"/><path fill="#333" d="M205 0l-28-72H64L36 0H1l101-248h38L239 0h-34zm-38-99l-47-123c-12 45-31 82-46 123h93" id="aL"/><path fill="#333" d="M185-189c-5-48-123-54-124 2 14 75 158 14 163 119 3 78-121 87-175 55-17-10-28-26-33-46l33-7c5 56 141 63 141-1 0-78-155-14-162-118-5-82 145-84 179-34 5 7 8 16 11 25" id="aM"/><path fill="#333" d="M240 0l2-218c-23 76-54 145-80 218h-23L58-218 59 0H30v-248h44l77 211c21-75 51-140 76-211h43V0h-30" id="aN"/><path fill="#333" d="M140-251c81 0 123 46 123 126C263-46 219 4 140 4 59 4 17-45 17-125s42-126 123-126zm0 227c63 0 89-41 89-101s-29-99-89-99c-61 0-89 39-89 99S79-25 140-24" id="aO"/><g id="f"><use transform="matrix(0.05,0,0,0.05,0,0)" xlink:href="#aB"/><use transform="matrix(0.05,0,0,0.05,12,0)" xlink:href="#aC"/><use transform="matrix(0.05,0,0,0.05,24.950000000000003,0)" xlink:href="#aD"/><use transform="matrix(0.05,0,0,0.05,36.95,0)" xlink:href="#aE"/><use transform="matrix(0.05,0,0,0.05,48.95,0)" xlink:href="#aD"/><use transform="matrix(0.05,0,0,0.05,60.95,0)" xlink:href="#aF"/><use transform="matrix(0.05,0,0,0.05,73.9,0)" xlink:href="#aG"/><use transform="matrix(0.05,0,0,0.05,84.85000000000001,0)" xlink:href="#aH"/><use transform="matrix(0.05,0,0,0.05,94.85000000000001,0)" xlink:href="#aD"/><use transform="matrix(0.05,0,0,0.05,106.85000000000001,0)" xlink:href="#aI"/><use transform="matrix(0.05,0,0,0.05,111.85000000000001,0)" xlink:href="#aJ"/><use transform="matrix(0.05,0,0,0.05,124.80000000000001,0)" xlink:href="#aH"/><use transform="matrix(0.05,0,0,0.05,134.8,0)" xlink:href="#aK"/><use transform="matrix(0.05,0,0,0.05,147.75,0)" xlink:href="#aB"/><use transform="matrix(0.05,0,0,0.05,159.75,0)" xlink:href="#aJ"/><use transform="matrix(0.05,0,0,0.05,172.7,0)" xlink:href="#aL"/><use transform="matrix(0.05,0,0,0.05,183.35,0)" xlink:href="#aG"/><use transform="matrix(0.05,0,0,0.05,194.29999999999998,0)" xlink:href="#aD"/><use transform="matrix(0.05,0,0,0.05,206.29999999999995,0)" xlink:href="#aM"/><use transform="matrix(0.05,0,0,0.05,218.29999999999995,0)" xlink:href="#aH"/><use transform="matrix(0.05,0,0,0.05,228.29999999999995,0)" xlink:href="#aN"/><use transform="matrix(0.05,0,0,0.05,243.24999999999997,0)" xlink:href="#aO"/><use transform="matrix(0.05,0,0,0.05,257.25,0)" xlink:href="#aJ"/><use transform="matrix(0.05,0,0,0.05,270.2,0)" xlink:href="#aD"/></g><path fill="#333" d="M30 0v-248h33v221h125V0H30" id="aP"/><path fill="#333" d="M266 0h-40l-56-210L115 0H75L2-248h35L96-30l15-64 43-154h32l59 218 59-218h35" id="aQ"/><g id="g"><use transform="matrix(0.05,0,0,0.05,0,0)" xlink:href="#aL"/><use transform="matrix(0.05,0,0,0.05,12,0)" xlink:href="#aP"/><use transform="matrix(0.05,0,0,0.05,22,0)" xlink:href="#aP"/><use transform="matrix(0.05,0,0,0.05,32,0)" xlink:href="#aO"/><use transform="matrix(0.05,0,0,0.05,46,0)" xlink:href="#aQ"/><use transform="matrix(0.05,0,0,0.05,62.95,0)" xlink:href="#aH"/><use transform="matrix(0.05,0,0,0.05,72.95,0)" xlink:href="#aD"/><use transform="matrix(0.05,0,0,0.05,84.95,0)" xlink:href="#aI"/><use transform="matrix(0.05,0,0,0.05,89.95,0)" xlink:href="#aJ"/><use transform="matrix(0.05,0,0,0.05,102.9,0)" xlink:href="#aH"/><use transform="matrix(0.05,0,0,0.05,112.9,0)" xlink:href="#aK"/><use transform="matrix(0.05,0,0,0.05,125.85000000000001,0)" xlink:href="#aB"/><use transform="matrix(0.05,0,0,0.05,137.85000000000002,0)" xlink:href="#aJ"/><use transform="matrix(0.05,0,0,0.05,150.8,0)" xlink:href="#aL"/><use transform="matrix(0.05,0,0,0.05,161.45000000000002,0)" xlink:href="#aG"/><use transform="matrix(0.05,0,0,0.05,172.4,0)" xlink:href="#aD"/><use transform="matrix(0.05,0,0,0.05,184.4,0)" xlink:href="#aM"/><use transform="matrix(0.05,0,0,0.05,196.4,0)" xlink:href="#aH"/><use transform="matrix(0.05,0,0,0.05,206.4,0)" xlink:href="#aN"/><use transform="matrix(0.05,0,0,0.05,221.35000000000002,0)" xlink:href="#aO"/><use transform="matrix(0.05,0,0,0.05,235.35000000000002,0)" xlink:href="#aJ"/><use transform="matrix(0.05,0,0,0.05,248.29999999999995,0)" xlink:href="#aD"/></g><path fill="#333" d="M87 75C49 33 22-17 22-94c0-76 28-126 65-167h31c-38 41-64 92-64 168S80 34 118 75H87" id="aR"/><path fill="#333" d="M115-194c53 0 69 39 70 98 0 66-23 100-70 100C84 3 66-7 56-30L54 0H23l1-261h32v101c10-23 28-34 59-34zm-8 174c40 0 45-34 45-75 0-40-5-75-45-74-42 0-51 32-51 76 0 43 10 73 51 73" id="aS"/><path fill="#333" d="M84 4C-5 8 30-112 23-190h32v120c0 31 7 50 39 49 72-2 45-101 50-169h31l1 190h-30c-1-10 1-25-2-33-11 22-28 36-60 37" id="aT"/><path fill="#333" d="M59-47c-2 24 18 29 38 22v24C64 9 27 4 27-40v-127H5v-23h24l9-43h21v43h35v23H59v120" id="aU"/><g id="h"><use transform="matrix(0.05,0,0,0.05,0,0)" xlink:href="#aR"/><use transform="matrix(0.05,0,0,0.05,5.95,0)" xlink:href="#aS"/><use transform="matrix(0.05,0,0,0.05,15.949999999999998,0)" xlink:href="#aT"/><use transform="matrix(0.05,0,0,0.05,25.950000000000003,0)" xlink:href="#aU"/></g><path fill="#333" d="M210-169c-67 3-38 105-44 169h-31v-121c0-29-5-50-35-48C34-165 62-65 56 0H25l-1-190h30c1 10-1 24 2 32 10-44 99-50 107 0 11-21 27-35 58-36 85-2 47 119 55 194h-31v-121c0-29-5-49-35-48" id="aV"/><path fill="#333" d="M24 0v-261h32V0H24" id="aW"/><path fill="#333" d="M24-231v-30h32v30H24zM24 0v-190h32V0H24" id="aX"/><path fill="#333" d="M115-194c55 1 70 41 70 98S169 2 115 4C84 4 66-9 55-30l1 105H24l-1-265h31l2 30c10-21 28-34 59-34zm-8 174c40 0 45-34 45-75s-6-73-45-74c-42 0-51 32-51 76 0 43 10 73 51 73" id="aY"/><path fill="#333" d="M100-194c63 0 86 42 84 106H49c0 40 14 67 53 68 26 1 43-12 49-29l28 8c-11 28-37 45-77 45C44 4 14-33 15-96c1-61 26-98 85-98zm52 81c6-60-76-77-97-28-3 7-6 17-6 28h103" id="aZ"/><g id="i"><use transform="matrix(0.05,0,0,0.05,0,0)" xlink:href="#aV"/><use transform="matrix(0.05,0,0,0.05,14.950000000000001,0)" xlink:href="#aT"/><use transform="matrix(0.05,0,0,0.05,24.950000000000003,0)" xlink:href="#aW"/><use transform="matrix(0.05,0,0,0.05,28.900000000000002,0)" xlink:href="#aU"/><use transform="matrix(0.05,0,0,0.05,33.900000000000006,0)" xlink:href="#aX"/><use transform="matrix(0.05,0,0,0.05,37.85000000000001,0)" xlink:href="#aY"/><use transform="matrix(0.05,0,0,0.05,47.85000000000001,0)" xlink:href="#aW"/><use transform="matrix(0.05,0,0,0.05,51.80000000000001,0)" xlink:href="#aZ"/></g><g id="j"><use transform="matrix(0.05,0,0,0.05,0,0)" xlink:href="#aD"/><use transform="matrix(0.05,0,0,0.05,12,0)" xlink:href="#aI"/><use transform="matrix(0.05,0,0,0.05,17,0)" xlink:href="#aJ"/><use transform="matrix(0.05,0,0,0.05,29.950000000000003,0)" xlink:href="#aM"/></g><path fill="#333" d="M141-36C126-15 110 5 73 4 37 3 15-17 15-53c-1-64 63-63 125-63 3-35-9-54-41-54-24 1-41 7-42 31l-33-3c5-37 33-52 76-52 45 0 72 20 72 64v82c-1 20 7 32 28 27v20c-31 9-61-2-59-35zM48-53c0 20 12 33 32 33 41-3 63-29 60-74-43 2-92-5-92 41" id="ba"/><path fill="#333" d="M114-163C36-179 61-72 57 0H25l-1-190h30c1 12-1 29 2 39 6-27 23-49 58-41v29" id="bb"/><g id="k"><use transform="matrix(0.05,0,0,0.05,0,0)" xlink:href="#ba"/><use transform="matrix(0.05,0,0,0.05,10,0)" xlink:href="#bb"/><use transform="matrix(0.05,0,0,0.05,15.949999999999998,0)" xlink:href="#aZ"/></g><path fill="#333" d="M85-194c31 0 48 13 60 33l-1-100h32l1 261h-30c-2-10 0-23-3-31C134-8 116 4 85 4 32 4 16-35 15-94c0-66 23-100 70-100zm9 24c-40 0-46 34-46 75 0 40 6 74 45 74 42 0 51-32 51-76 0-42-9-74-50-73" id="bc"/><path fill="#333" d="M135-143c-3-34-86-38-87 0 15 53 115 12 119 90S17 21 10-45l28-5c4 36 97 45 98 0-10-56-113-15-118-90-4-57 82-63 122-42 12 7 21 19 24 35" id="bd"/><path fill="#333" d="M33-261c38 41 65 92 65 168S71 34 33 75H2C39 34 66-17 66-93S39-220 2-261h31" id="be"/><g id="l"><use transform="matrix(0.05,0,0,0.05,0,0)" xlink:href="#bc"/><use transform="matrix(0.05,0,0,0.05,10,0)" xlink:href="#aX"/><use transform="matrix(0.05,0,0,0.05,13.949999999999998,0)" xlink:href="#bd"/><use transform="matrix(0.05,0,0,0.05,22.95,0)" xlink:href="#ba"/><use transform="matrix(0.05,0,0,0.05,32.95,0)" xlink:href="#aS"/><use transform="matrix(0.05,0,0,0.05,42.95,0)" xlink:href="#aW"/><use transform="matrix(0.05,0,0,0.05,46.900000000000006,0)" xlink:href="#aZ"/><use transform="matrix(0.05,0,0,0.05,56.900000000000006,0)" xlink:href="#bc"/><use transform="matrix(0.05,0,0,0.05,66.9,0)" xlink:href="#be"/></g><path fill="#333" d="M169-182c-1-43-94-46-97-3 18 66 151 10 154 114 3 95-165 93-204 36-6-8-10-19-12-30l50-8c3 46 112 56 116 5-17-69-150-10-154-114-4-87 153-88 188-35 5 8 8 18 10 28" id="bf"/><path fill="#333" d="M135-150c-39-12-60 13-60 57V0H25l-1-190h47c2 13-1 29 3 40 6-28 27-53 61-41v41" id="bg"/><g id="m"><use transform="matrix(0.05,0,0,0.05,0,0)" xlink:href="#bf"/><use transform="matrix(0.05,0,0,0.05,12,0)" xlink:href="#au"/><use transform="matrix(0.05,0,0,0.05,17.95,0)" xlink:href="#at"/><use transform="matrix(0.05,0,0,0.05,27.950000000000003,0)" xlink:href="#bg"/><use transform="matrix(0.05,0,0,0.05,34.95,0)" xlink:href="#au"/></g><g id="n"><use transform="matrix(0.05,0,0,0.05,0,0)" xlink:href="#bf"/><use transform="matrix(0.05,0,0,0.05,12,0)" xlink:href="#au"/><use transform="matrix(0.05,0,0,0.05,17.95,0)" xlink:href="#at"/><use transform="matrix(0.05,0,0,0.05,27.950000000000003,0)" xlink:href="#au"/><use transform="matrix(0.05,0,0,0.05,33.9,0)" xlink:href="#av"/></g><path d="M127-220V0H93v-220H8v-28h204v28h-85" id="bh"/><path d="M206 0h-36l-40-164L89 0H53L-1-190h32L70-26l43-164h34l41 164 42-164h31" id="bi"/><path d="M100-194c62-1 85 37 85 99 1 63-27 99-86 99S16-35 15-95c0-66 28-99 85-99zM99-20c44 1 53-31 53-75 0-43-8-75-51-75s-53 32-53 75 10 74 51 75" id="bj"/><g id="o"><use transform="matrix(0.048148148148148155,0,0,0.048148148148148155,0,0)" xlink:href="#bh"/><use transform="matrix(0.048148148148148155,0,0,0.048148148148148155,9.581481481481482,0)" xlink:href="#bi"/><use transform="matrix(0.048148148148148155,0,0,0.048148148148148155,22.051851851851854,0)" xlink:href="#bj"/></g><path d="M115-194c55 1 70 41 70 98S169 2 115 4C84 4 66-9 55-30l1 105H24l-1-265h31l2 30c10-21 28-34 59-34zm-8 174c40 0 45-34 45-75s-6-73-45-74c-42 0-51 32-51 76 0 43 10 73 51 73" id="bk"/><path d="M141-36C126-15 110 5 73 4 37 3 15-17 15-53c-1-64 63-63 125-63 3-35-9-54-41-54-24 1-41 7-42 31l-33-3c5-37 33-52 76-52 45 0 72 20 72 64v82c-1 20 7 32 28 27v20c-31 9-61-2-59-35zM48-53c0 20 12 33 32 33 41-3 63-29 60-74-43 2-92-5-92 41" id="bl"/><path d="M59-47c-2 24 18 29 38 22v24C64 9 27 4 27-40v-127H5v-23h24l9-43h21v43h35v23H59v120" id="bm"/><path d="M24-231v-30h32v30H24zM24 0v-190h32V0H24" id="bn"/><path d="M100-194c63 0 86 42 84 106H49c0 40 14 67 53 68 26 1 43-12 49-29l28 8c-11 28-37 45-77 45C44 4 14-33 15-96c1-61 26-98 85-98zm52 81c6-60-76-77-97-28-3 7-6 17-6 28h103" id="bo"/><path d="M117-194c89-4 53 116 60 194h-32v-121c0-31-8-49-39-48C34-167 62-67 57 0H25l-1-190h30c1 10-1 24 2 32 11-22 29-35 61-36" id="bp"/><path d="M135-143c-3-34-86-38-87 0 15 53 115 12 119 90S17 21 10-45l28-5c4 36 97 45 98 0-10-56-113-15-118-90-4-57 82-63 122-42 12 7 21 19 24 35" id="bq"/><g id="p"><use transform="matrix(0.048148148148148155,0,0,0.048148148148148155,0,0)" xlink:href="#bk"/><use transform="matrix(0.048148148148148155,0,0,0.048148148148148155,9.629629629629632,0)" xlink:href="#bl"/><use transform="matrix(0.048148148148148155,0,0,0.048148148148148155,19.259259259259263,0)" xlink:href="#bm"/><use transform="matrix(0.048148148148148155,0,0,0.048148148148148155,24.07407407407408,0)" xlink:href="#bn"/><use transform="matrix(0.048148148148148155,0,0,0.048148148148148155,27.877777777777784,0)" xlink:href="#bo"/><use transform="matrix(0.048148148148148155,0,0,0.048148148148148155,37.50740740740741,0)" xlink:href="#bp"/><use transform="matrix(0.048148148148148155,0,0,0.048148148148148155,47.13703703703705,0)" xlink:href="#bm"/><use transform="matrix(0.048148148148148155,0,0,0.048148148148148155,51.951851851851856,0)" xlink:href="#bq"/></g><path d="M114-163C36-179 61-72 57 0H25l-1-190h30c1 12-1 29 2 39 6-27 23-49 58-41v29" id="br"/><g id="q"><use transform="matrix(0.048148148148148155,0,0,0.048148148148148155,0,0)" xlink:href="#bl"/><use transform="matrix(0.048148148148148155,0,0,0.048148148148148155,9.629629629629632,0)" xlink:href="#br"/><use transform="matrix(0.048148148148148155,0,0,0.048148148148148155,15.359259259259261,0)" xlink:href="#bo"/></g><path d="M210-169c-67 3-38 105-44 169h-31v-121c0-29-5-50-35-48C34-165 62-65 56 0H25l-1-190h30c1 10-1 24 2 32 10-44 99-50 107 0 11-21 27-35 58-36 85-2 47 119 55 194h-31v-121c0-29-5-49-35-48" id="bs"/><path d="M96-169c-40 0-48 33-48 73s9 75 48 75c24 0 41-14 43-38l32 2c-6 37-31 61-74 61-59 0-76-41-82-99-10-93 101-131 147-64 4 7 5 14 7 22l-32 3c-4-21-16-35-41-35" id="bt"/><path d="M106-169C34-169 62-67 57 0H25v-261h32l-1 103c12-21 28-36 61-36 89 0 53 116 60 194h-32v-121c2-32-8-49-39-48" id="bu"/><path d="M85-194c31 0 48 13 60 33l-1-100h32l1 261h-30c-2-10 0-23-3-31C134-8 116 4 85 4 32 4 16-35 15-94c0-66 23-100 70-100zm9 24c-40 0-46 34-46 75 0 40 6 74 45 74 42 0 51-32 51-76 0-42-9-74-50-73" id="bv"/><g id="r"><use transform="matrix(0.048148148148148155,0,0,0.048148148148148155,0,0)" xlink:href="#bs"/><use transform="matrix(0.048148148148148155,0,0,0.048148148148148155,14.396296296296299,0)" xlink:href="#bl"/><use transform="matrix(0.048148148148148155,0,0,0.048148148148148155,24.025925925925932,0)" xlink:href="#bm"/><use transform="matrix(0.048148148148148155,0,0,0.048148148148148155,28.84074074074075,0)" xlink:href="#bt"/><use transform="matrix(0.048148148148148155,0,0,0.048148148148148155,37.50740740740741,0)" xlink:href="#bu"/><use transform="matrix(0.048148148148148155,0,0,0.048148148148148155,47.13703703703705,0)" xlink:href="#bo"/><use transform="matrix(0.048148148148148155,0,0,0.048148148148148155,56.76666666666667,0)" xlink:href="#bv"/></g><g id="s"><use transform="matrix(0.048148148148148155,0,0,0.048148148148148155,0,0)" xlink:href="#bm"/><use transform="matrix(0.048148148148148155,0,0,0.048148148148148155,4.814814814814816,0)" xlink:href="#bj"/></g><use transform="matrix(0.048148148148148155,0,0,0.048148148148148155,0,0)" xlink:href="#bl" id="t"/><path d="M177-190C167-65 218 103 67 71c-23-6-38-20-44-43l32-5c15 47 100 32 89-28v-30C133-14 115 1 83 1 29 1 15-40 15-95c0-56 16-97 71-98 29-1 48 16 59 35 1-10 0-23 2-32h30zM94-22c36 0 50-32 50-73 0-42-14-75-50-75-39 0-46 34-46 75s6 73 46 73" id="bw"/><path d="M108 0H70L1-190h34L89-25l56-165h34" id="bx"/><g id="u"><use transform="matrix(0.048148148148148155,0,0,0.048148148148148155,0,0)" xlink:href="#bw"/><use transform="matrix(0.048148148148148155,0,0,0.048148148148148155,9.629629629629632,0)" xlink:href="#bn"/><use transform="matrix(0.048148148148148155,0,0,0.048148148148148155,13.433333333333335,0)" xlink:href="#bx"/><use transform="matrix(0.048148148148148155,0,0,0.048148148148148155,22.1,0)" xlink:href="#bo"/><use transform="matrix(0.048148148148148155,0,0,0.048148148148148155,31.729629629629635,0)" xlink:href="#bp"/></g><path d="M143 4C61 4 22-44 18-125c-5-107 100-154 193-111 17 8 29 25 37 43l-32 9c-13-25-37-40-76-40-61 0-88 39-88 99 0 61 29 100 91 101 35 0 62-11 79-27v-45h-74v-28h105v86C228-13 192 4 143 4" id="by"/><path d="M24 0v-261h32V0H24" id="bz"/><g id="v"><use transform="matrix(0.048148148148148155,0,0,0.048148148148148155,0,0)" xlink:href="#by"/><use transform="matrix(0.048148148148148155,0,0,0.048148148148148155,13.481481481481483,0)" xlink:href="#bj"/><use transform="matrix(0.048148148148148155,0,0,0.048148148148148155,23.111111111111114,0)" xlink:href="#bz"/><use transform="matrix(0.048148148148148155,0,0,0.048148148148148155,26.914814814814818,0)" xlink:href="#bv"/><use transform="matrix(0.048148148148148155,0,0,0.048148148148148155,36.54444444444445,0)" xlink:href="#bo"/><use transform="matrix(0.048148148148148155,0,0,0.048148148148148155,46.174074074074085,0)" xlink:href="#bp"/></g><path d="M233-177c-1 41-23 64-60 70L243 0h-38l-65-103H63V0H30v-248c88 3 205-21 203 71zM63-129c60-2 137 13 137-47 0-61-80-42-137-45v92" id="bA"/><g id="w"><use transform="matrix(0.048148148148148155,0,0,0.048148148148148155,0,0)" xlink:href="#bA"/><use transform="matrix(0.048148148148148155,0,0,0.048148148148148155,12.470370370370372,0)" xlink:href="#bo"/><use transform="matrix(0.048148148148148155,0,0,0.048148148148148155,22.1,0)" xlink:href="#bt"/><use transform="matrix(0.048148148148148155,0,0,0.048148148148148155,30.766666666666673,0)" xlink:href="#bj"/><use transform="matrix(0.048148148148148155,0,0,0.048148148148148155,40.3962962962963,0)" xlink:href="#br"/><use transform="matrix(0.048148148148148155,0,0,0.048148148148148155,46.12592592592593,0)" xlink:href="#bv"/></g><path d="M30-248c87 1 191-15 191 75 0 78-77 80-158 76V0H30v-248zm33 125c57 0 124 11 124-50 0-59-68-47-124-48v98" id="bB"/><g id="x"><use transform="matrix(0.048148148148148155,0,0,0.048148148148148155,0,0)" xlink:href="#bB"/><use transform="matrix(0.048148148148148155,0,0,0.048148148148148155,11.555555555555557,0)" xlink:href="#bl"/><use transform="matrix(0.048148148148148155,0,0,0.048148148148148155,21.18518518518519,0)" xlink:href="#bm"/><use transform="matrix(0.048148148148148155,0,0,0.048148148148148155,26.00000000000001,0)" xlink:href="#bn"/><use transform="matrix(0.048148148148148155,0,0,0.048148148148148155,29.803703703703714,0)" xlink:href="#bo"/><use transform="matrix(0.048148148148148155,0,0,0.048148148148148155,39.433333333333344,0)" xlink:href="#bp"/><use transform="matrix(0.048148148148148155,0,0,0.048148148148148155,49.06296296296298,0)" xlink:href="#bm"/></g><path d="M0 4l72-265h28L28 4H0" id="bC"/><path d="M27 0v-27h64v-190l-56 39v-29l58-41h29v221h61V0H27" id="bD"/><g id="y"><use transform="matrix(0.05,0,0,0.05,0,0)" xlink:href="#bB"/><use transform="matrix(0.05,0,0,0.05,12,0)" xlink:href="#bl"/><use transform="matrix(0.05,0,0,0.05,22,0)" xlink:href="#bm"/><use transform="matrix(0.05,0,0,0.05,27,0)" xlink:href="#bn"/><use transform="matrix(0.05,0,0,0.05,30.950000000000003,0)" xlink:href="#bo"/><use transform="matrix(0.05,0,0,0.05,40.95,0)" xlink:href="#bp"/><use transform="matrix(0.05,0,0,0.05,50.95,0)" xlink:href="#bm"/><use transform="matrix(0.05,0,0,0.05,55.95,0)" xlink:href="#bC"/><use transform="matrix(0.05,0,0,0.05,60.95,0)" xlink:href="#bD"/></g><g id="z"><use transform="matrix(0.05,0,0,0.05,0,0)" xlink:href="#bB"/><use transform="matrix(0.05,0,0,0.05,12,0)" xlink:href="#bl"/><use transform="matrix(0.05,0,0,0.05,22,0)" xlink:href="#bm"/><use transform="matrix(0.05,0,0,0.05,27,0)" xlink:href="#bn"/><use transform="matrix(0.05,0,0,0.05,30.950000000000003,0)" xlink:href="#bo"/><use transform="matrix(0.05,0,0,0.05,40.95,0)" xlink:href="#bp"/><use transform="matrix(0.05,0,0,0.05,50.95,0)" xlink:href="#bm"/></g><g id="A"><use transform="matrix(0.031481481481481485,0,0,0.031481481481481485,0,0)" xlink:href="#by"/><use transform="matrix(0.031481481481481485,0,0,0.031481481481481485,8.814814814814817,0)" xlink:href="#bj"/><use transform="matrix(0.031481481481481485,0,0,0.031481481481481485,15.111111111111114,0)" xlink:href="#bz"/><use transform="matrix(0.031481481481481485,0,0,0.031481481481481485,17.59814814814815,0)" xlink:href="#bv"/><use transform="matrix(0.031481481481481485,0,0,0.031481481481481485,23.89444444444445,0)" xlink:href="#bo"/><use transform="matrix(0.031481481481481485,0,0,0.031481481481481485,30.190740740740747,0)" xlink:href="#bp"/></g><g id="B"><use transform="matrix(0.031481481481481485,0,0,0.031481481481481485,0,0)" xlink:href="#bA"/><use transform="matrix(0.031481481481481485,0,0,0.031481481481481485,8.153703703703705,0)" xlink:href="#bo"/><use transform="matrix(0.031481481481481485,0,0,0.031481481481481485,14.450000000000003,0)" xlink:href="#bt"/><use transform="matrix(0.031481481481481485,0,0,0.031481481481481485,20.11666666666667,0)" xlink:href="#bj"/><use transform="matrix(0.031481481481481485,0,0,0.031481481481481485,26.41296296296297,0)" xlink:href="#br"/><use transform="matrix(0.031481481481481485,0,0,0.031481481481481485,30.159259259259265,0)" xlink:href="#bv"/></g><path fill="#333" d="M33-154v-36h34v36H33zM33 0v-36h34V0H33" id="bE"/><g id="C"><use transform="matrix(0.05,0,0,0.05,0,0)" xlink:href="#aD"/><use transform="matrix(0.05,0,0,0.05,12,0)" xlink:href="#aI"/><use transform="matrix(0.05,0,0,0.05,17,0)" xlink:href="#aJ"/><use transform="matrix(0.05,0,0,0.05,29.950000000000003,0)" xlink:href="#bE"/><use transform="matrix(0.05,0,0,0.05,34.95,0)" xlink:href="#aL"/></g><path fill="#333" d="M212-179c-10-28-35-45-73-45-59 0-87 40-87 99 0 60 29 101 89 101 43 0 62-24 78-52l27 14C228-24 195 4 139 4 59 4 22-46 18-125c-6-104 99-153 187-111 19 9 31 26 39 46" id="bF"/><path fill="#333" d="M197 0v-115H63V0H30v-248h33v105h134v-105h34V0h-34" id="bG"/><g id="D"><use transform="matrix(0.05,0,0,0.05,0,0)" xlink:href="#aN"/><use transform="matrix(0.05,0,0,0.05,14.950000000000001,0)" xlink:href="#aL"/><use transform="matrix(0.05,0,0,0.05,25.6,0)" xlink:href="#aG"/><use transform="matrix(0.05,0,0,0.05,36.550000000000004,0)" xlink:href="#bF"/><use transform="matrix(0.05,0,0,0.05,49.50000000000001,0)" xlink:href="#bG"/></g><path d="M101-251c82-7 93 87 43 132L82-64C71-53 59-42 53-27h129V0H18c2-99 128-94 128-182 0-28-16-43-45-43s-46 15-49 41l-32-3c6-41 34-60 81-64" id="bH"/><g id="E"><use transform="matrix(0.05,0,0,0.05,0,0)" xlink:href="#bB"/><use transform="matrix(0.05,0,0,0.05,12,0)" xlink:href="#bl"/><use transform="matrix(0.05,0,0,0.05,22,0)" xlink:href="#bm"/><use transform="matrix(0.05,0,0,0.05,27,0)" xlink:href="#bn"/><use transform="matrix(0.05,0,0,0.05,30.950000000000003,0)" xlink:href="#bo"/><use transform="matrix(0.05,0,0,0.05,40.95,0)" xlink:href="#bp"/><use transform="matrix(0.05,0,0,0.05,50.95,0)" xlink:href="#bm"/><use transform="matrix(0.05,0,0,0.05,55.95,0)" xlink:href="#bC"/><use transform="matrix(0.05,0,0,0.05,60.95,0)" xlink:href="#bH"/></g><path fill="#333" d="M199 0l-22-63H83L61 0H9l90-248h61L250 0h-51zm-33-102l-36-108c-10 38-24 72-36 108h72" id="bI"/><path fill="#333" d="M190-63c-7 42-38 67-86 67-59 0-84-38-90-98-12-110 154-137 174-36l-49 2c-2-19-15-32-35-32-30 0-35 28-38 64-6 74 65 87 74 30" id="bJ"/><path fill="#333" d="M25-224v-37h50v37H25zM25 0v-190h50V0H25" id="bK"/><path fill="#333" d="M110-194c64 0 96 36 96 99 0 64-35 99-97 99-61 0-95-36-95-99 0-62 34-99 96-99zm-1 164c35 0 45-28 45-65 0-40-10-65-43-65-34 0-45 26-45 65 0 36 10 65 43 65" id="bL"/><path fill="#333" d="M135-194c87-1 58 113 63 194h-50c-7-57 23-157-34-157-59 0-34 97-39 157H25l-1-190h47c2 12-1 28 3 38 12-26 28-41 61-42" id="bM"/><g id="F"><use transform="matrix(0.05,0,0,0.05,0,0)" xlink:href="#bI"/><use transform="matrix(0.05,0,0,0.05,12.950000000000001,0)" xlink:href="#bJ"/><use transform="matrix(0.05,0,0,0.05,22.950000000000003,0)" xlink:href="#au"/><use transform="matrix(0.05,0,0,0.05,28.900000000000002,0)" xlink:href="#bK"/><use transform="matrix(0.05,0,0,0.05,33.900000000000006,0)" xlink:href="#bL"/><use transform="matrix(0.05,0,0,0.05,44.85000000000001,0)" xlink:href="#bM"/></g><path d="M140-251c81 0 123 46 123 126C263-46 219 4 140 4 59 4 17-45 17-125s42-126 123-126zm0 227c63 0 89-41 89-101s-29-99-89-99c-61 0-89 39-89 99S79-25 140-24" id="bN"/><g id="G"><use transform="matrix(0.048148148148148155,0,0,0.048148148148148155,0,0)" xlink:href="#bN"/><use transform="matrix(0.048148148148148155,0,0,0.048148148148148155,13.481481481481483,0)" xlink:href="#bp"/><use transform="matrix(0.048148148148148155,0,0,0.048148148148148155,23.111111111111114,0)" xlink:href="#bo"/></g><path d="M101-234c-31-9-42 10-38 44h38v23H63V0H32v-167H5v-23h27c-7-52 17-82 69-68v24" id="bO"/><g id="H"><use transform="matrix(0.048148148148148155,0,0,0.048148148148148155,0,0)" xlink:href="#bj"/><use transform="matrix(0.048148148148148155,0,0,0.048148148148148155,9.629629629629632,0)" xlink:href="#bO"/></g><g id="I"><use transform="matrix(0.048148148148148155,0,0,0.048148148148148155,0,0)" xlink:href="#bm"/><use transform="matrix(0.048148148148148155,0,0,0.048148148148148155,4.814814814814816,0)" xlink:href="#bu"/><use transform="matrix(0.048148148148148155,0,0,0.048148148148148155,14.444444444444446,0)" xlink:href="#bo"/><use transform="matrix(0.048148148148148155,0,0,0.048148148148148155,24.074074074074076,0)" xlink:href="#bq"/><use transform="matrix(0.048148148148148155,0,0,0.048148148148148155,32.74074074074075,0)" xlink:href="#bo"/></g><g id="J"><use transform="matrix(0.048148148148148155,0,0,0.048148148148148155,0,0)" xlink:href="#bm"/><use transform="matrix(0.048148148148148155,0,0,0.048148148148148155,4.814814814814816,0)" xlink:href="#bi"/><use transform="matrix(0.048148148148148155,0,0,0.048148148148148155,17.28518518518519,0)" xlink:href="#bj"/></g><g id="K"><use transform="matrix(0.048148148148148155,0,0,0.048148148148148155,0,0)" xlink:href="#bk"/><use transform="matrix(0.048148148148148155,0,0,0.048148148148148155,9.629629629629632,0)" xlink:href="#bl"/><use transform="matrix(0.048148148148148155,0,0,0.048148148148148155,19.259259259259263,0)" xlink:href="#bm"/><use transform="matrix(0.048148148148148155,0,0,0.048148148148148155,24.07407407407408,0)" xlink:href="#bn"/><use transform="matrix(0.048148148148148155,0,0,0.048148148148148155,27.877777777777784,0)" xlink:href="#bo"/><use transform="matrix(0.048148148148148155,0,0,0.048148148148148155,37.50740740740741,0)" xlink:href="#bp"/><use transform="matrix(0.048148148148148155,0,0,0.048148148148148155,47.13703703703705,0)" xlink:href="#bm"/><use transform="matrix(0.048148148148148155,0,0,0.048148148148148155,51.951851851851856,0)" xlink:href="#bq"/></g><g id="L"><use transform="matrix(0.048148148148148155,0,0,0.048148148148148155,0,0)" xlink:href="#bn"/><use transform="matrix(0.048148148148148155,0,0,0.048148148148148155,3.8037037037037043,0)" xlink:href="#bq"/></g><path d="M84 4C-5 8 30-112 23-190h32v120c0 31 7 50 39 49 72-2 45-101 50-169h31l1 190h-30c-1-10 1-25-2-33-11 22-28 36-60 37" id="bP"/><g id="M"><use transform="matrix(0.048148148148148155,0,0,0.048148148148148155,0,0)" xlink:href="#bP"/><use transform="matrix(0.048148148148148155,0,0,0.048148148148148155,9.629629629629632,0)" xlink:href="#bk"/><use transform="matrix(0.048148148148148155,0,0,0.048148148148148155,19.259259259259263,0)" xlink:href="#bv"/><use transform="matrix(0.048148148148148155,0,0,0.048148148148148155,28.888888888888893,0)" xlink:href="#bl"/><use transform="matrix(0.048148148148148155,0,0,0.048148148148148155,38.518518518518526,0)" xlink:href="#bm"/><use transform="matrix(0.048148148148148155,0,0,0.048148148148148155,43.33333333333334,0)" xlink:href="#bo"/><use transform="matrix(0.048148148148148155,0,0,0.048148148148148155,52.96296296296297,0)" xlink:href="#bv"/></g><g id="N"><use transform="matrix(0.048148148148148155,0,0,0.048148148148148155,0,0)" xlink:href="#bi"/><use transform="matrix(0.048148148148148155,0,0,0.048148148148148155,12.470370370370372,0)" xlink:href="#bn"/><use transform="matrix(0.048148148148148155,0,0,0.048148148148148155,16.274074074074075,0)" xlink:href="#bm"/><use transform="matrix(0.048148148148148155,0,0,0.048148148148148155,21.088888888888892,0)" xlink:href="#bu"/></g><use transform="matrix(0.048148148148148155,0,0,0.048148148148148155,0,0)" xlink:href="#bl" id="O"/><g id="P"><use transform="matrix(0.048148148148148155,0,0,0.048148148148148155,0,0)" xlink:href="#bp"/><use transform="matrix(0.048148148148148155,0,0,0.048148148148148155,9.629629629629632,0)" xlink:href="#bo"/><use transform="matrix(0.048148148148148155,0,0,0.048148148148148155,19.259259259259263,0)" xlink:href="#bi"/></g><path d="M30 0v-248h187v28H63v79h144v27H63v87h162V0H30" id="bQ"/><path d="M141 0L90-78 38 0H4l68-98-65-92h35l48 74 47-74h35l-64 92 68 98h-35" id="bR"/><g id="Q"><use transform="matrix(0.048148148148148155,0,0,0.048148148148148155,0,0)" xlink:href="#bQ"/><use transform="matrix(0.048148148148148155,0,0,0.048148148148148155,11.555555555555557,0)" xlink:href="#bR"/><use transform="matrix(0.048148148148148155,0,0,0.048148148148148155,20.222222222222225,0)" xlink:href="#bm"/><use transform="matrix(0.048148148148148155,0,0,0.048148148148148155,25.03703703703704,0)" xlink:href="#bo"/><use transform="matrix(0.048148148148148155,0,0,0.048148148148148155,34.66666666666667,0)" xlink:href="#br"/><use transform="matrix(0.048148148148148155,0,0,0.048148148148148155,40.3962962962963,0)" xlink:href="#bp"/><use transform="matrix(0.048148148148148155,0,0,0.048148148148148155,50.02592592592593,0)" xlink:href="#bl"/><use transform="matrix(0.048148148148148155,0,0,0.048148148148148155,59.655555555555566,0)" xlink:href="#bz"/></g><path d="M33 0v-248h34V0H33" id="bS"/><path d="M30-248c118-7 216 8 213 122C240-48 200 0 122 0H30v-248zM63-27c89 8 146-16 146-99s-60-101-146-95v194" id="bT"/><g id="R"><use transform="matrix(0.048148148148148155,0,0,0.048148148148148155,0,0)" xlink:href="#bQ"/><use transform="matrix(0.048148148148148155,0,0,0.048148148148148155,11.555555555555557,0)" xlink:href="#bS"/><use transform="matrix(0.048148148148148155,0,0,0.048148148148148155,16.370370370370374,0)" xlink:href="#bT"/></g><path fill="#333" d="M160-131c35 5 61 23 61 61C221 17 115-2 30 0v-248c76 3 177-17 177 60 0 33-19 50-47 57zm-97-11c50-1 110 9 110-42 0-47-63-36-110-37v79zm0 115c55-2 124 14 124-45 0-56-70-42-124-44v89" id="bU"/><g id="S"><use transform="matrix(0.05,0,0,0.05,0,0)" xlink:href="#aD"/><use transform="matrix(0.05,0,0,0.05,12,0)" xlink:href="#aI"/><use transform="matrix(0.05,0,0,0.05,17,0)" xlink:href="#aJ"/><use transform="matrix(0.05,0,0,0.05,29.950000000000003,0)" xlink:href="#bE"/><use transform="matrix(0.05,0,0,0.05,34.95,0)" xlink:href="#bU"/></g><path fill="#333" d="M24 0v-248h195v40H76v63h132v40H76v65h150V0H24" id="bV"/><g id="T"><use transform="matrix(0.05,0,0,0.05,0,0)" xlink:href="#bV"/><use transform="matrix(0.05,0,0,0.05,12,0)" xlink:href="#bM"/><use transform="matrix(0.05,0,0,0.05,22.950000000000003,0)" xlink:href="#as"/></g><path d="M63-220v92h138v28H63V0H30v-248h175v28H63" id="bW"/><path d="M115-194c53 0 69 39 70 98 0 66-23 100-70 100C84 3 66-7 56-30L54 0H23l1-261h32v101c10-23 28-34 59-34zm-8 174c40 0 45-34 45-75 0-40-5-75-45-74-42 0-51 32-51 76 0 43 10 73 51 73" id="bX"/><path d="M63-70H37l-4-178h34zM33 0v-35h34V0H33" id="bY"/><g id="U"><use transform="matrix(0.048148148148148155,0,0,0.048148148148148155,0,0)" xlink:href="#bW"/><use transform="matrix(0.048148148148148155,0,0,0.048148148148148155,10.544444444444446,0)" xlink:href="#bj"/><use transform="matrix(0.048148148148148155,0,0,0.048148148148148155,20.174074074074078,0)" xlink:href="#br"/><use transform="matrix(0.048148148148148155,0,0,0.048148148148148155,25.90370370370371,0)" xlink:href="#bX"/><use transform="matrix(0.048148148148148155,0,0,0.048148148148148155,35.53333333333334,0)" xlink:href="#bn"/><use transform="matrix(0.048148148148148155,0,0,0.048148148148148155,39.33703703703704,0)" xlink:href="#bv"/><use transform="matrix(0.048148148148148155,0,0,0.048148148148148155,48.966666666666676,0)" xlink:href="#bv"/><use transform="matrix(0.048148148148148155,0,0,0.048148148148148155,58.5962962962963,0)" xlink:href="#bo"/><use transform="matrix(0.048148148148148155,0,0,0.048148148148148155,68.22592592592594,0)" xlink:href="#bp"/><use transform="matrix(0.048148148148148155,0,0,0.048148148148148155,77.85555555555557,0)" xlink:href="#bY"/></g><path d="M185-189c-5-48-123-54-124 2 14 75 158 14 163 119 3 78-121 87-175 55-17-10-28-26-33-46l33-7c5 56 141 63 141-1 0-78-155-14-162-118-5-82 145-84 179-34 5 7 8 16 11 25" id="bZ"/><g id="V"><use transform="matrix(0.048148148148148155,0,0,0.048148148148148155,0,0)" xlink:href="#bZ"/><use transform="matrix(0.048148148148148155,0,0,0.048148148148148155,11.555555555555557,0)" xlink:href="#bn"/><use transform="matrix(0.048148148148148155,0,0,0.048148148148148155,15.359259259259261,0)" xlink:href="#bp"/><use transform="matrix(0.048148148148148155,0,0,0.048148148148148155,24.988888888888894,0)" xlink:href="#bt"/><use transform="matrix(0.048148148148148155,0,0,0.048148148148148155,33.655555555555566,0)" xlink:href="#bo"/></g><g id="W"><use transform="matrix(0.048148148148148155,0,0,0.048148148148148155,0,0)" xlink:href="#bs"/><use transform="matrix(0.048148148148148155,0,0,0.048148148148148155,14.396296296296299,0)" xlink:href="#bP"/><use transform="matrix(0.048148148148148155,0,0,0.048148148148148155,24.025925925925932,0)" xlink:href="#bz"/><use transform="matrix(0.048148148148148155,0,0,0.048148148148148155,27.829629629629633,0)" xlink:href="#bm"/><use transform="matrix(0.048148148148148155,0,0,0.048148148148148155,32.64444444444445,0)" xlink:href="#bn"/><use transform="matrix(0.048148148148148155,0,0,0.048148148148148155,36.44814814814816,0)" xlink:href="#bk"/><use transform="matrix(0.048148148148148155,0,0,0.048148148148148155,46.07777777777779,0)" xlink:href="#bz"/><use transform="matrix(0.048148148148148155,0,0,0.048148148148148155,49.88148148148149,0)" xlink:href="#bo"/></g><g id="X"><use transform="matrix(0.048148148148148155,0,0,0.048148148148148155,0,0)" xlink:href="#bQ"/><use transform="matrix(0.048148148148148155,0,0,0.048148148148148155,11.555555555555557,0)" xlink:href="#bS"/><use transform="matrix(0.048148148148148155,0,0,0.048148148148148155,16.370370370370374,0)" xlink:href="#bT"/><use transform="matrix(0.048148148148148155,0,0,0.048148148148148155,28.840740740740745,0)" xlink:href="#bq"/></g><path d="M47-170H22l-4-78h33" id="ca"/><g id="Y"><use transform="matrix(0.048148148148148155,0,0,0.048148148148148155,0,0)" xlink:href="#bl"/><use transform="matrix(0.048148148148148155,0,0,0.048148148148148155,9.629629629629632,0)" xlink:href="#br"/><use transform="matrix(0.048148148148148155,0,0,0.048148148148148155,15.359259259259261,0)" xlink:href="#bo"/><use transform="matrix(0.048148148148148155,0,0,0.048148148148148155,24.988888888888894,0)" xlink:href="#bp"/><use transform="matrix(0.048148148148148155,0,0,0.048148148148148155,34.61851851851853,0)" xlink:href="#ca"/><use transform="matrix(0.048148148148148155,0,0,0.048148148148148155,37.8925925925926,0)" xlink:href="#bm"/></g><g id="Z"><use transform="matrix(0.048148148148148155,0,0,0.048148148148148155,0,0)" xlink:href="#bl"/><use transform="matrix(0.048148148148148155,0,0,0.048148148148148155,9.629629629629632,0)" xlink:href="#bz"/><use transform="matrix(0.048148148148148155,0,0,0.048148148148148155,13.433333333333335,0)" xlink:href="#bz"/><use transform="matrix(0.048148148148148155,0,0,0.048148148148148155,17.23703703703704,0)" xlink:href="#bj"/><use transform="matrix(0.048148148148148155,0,0,0.048148148148148155,26.866666666666678,0)" xlink:href="#bi"/><use transform="matrix(0.048148148148148155,0,0,0.048148148148148155,39.33703703703705,0)" xlink:href="#bo"/><use transform="matrix(0.048148148148148155,0,0,0.048148148148148155,48.96666666666668,0)" xlink:href="#bv"/></g><g id="aa"><use transform="matrix(0.048148148148148155,0,0,0.048148148148148155,0,0)" xlink:href="#bj"/><use transform="matrix(0.048148148148148155,0,0,0.048148148148148155,9.629629629629632,0)" xlink:href="#bp"/></g><use transform="matrix(0.048148148148148155,0,0,0.048148148148148155,0,0)" xlink:href="#bl" id="ab"/><path d="M18-100v-36l175-74v27L42-118l151 64v27" id="cb"/><path d="M18-27v-27l151-64-151-65v-27l175 74v36" id="cc"/><path d="M68-38c1 34 0 65-14 84H32c9-13 17-26 17-46H33v-38h35" id="cd"/><g id="ac"><use transform="matrix(0.048148148148148155,0,0,0.048148148148148155,0,0)" xlink:href="#bB"/><use transform="matrix(0.048148148148148155,0,0,0.048148148148148155,11.555555555555557,0)" xlink:href="#bl"/><use transform="matrix(0.048148148148148155,0,0,0.048148148148148155,21.18518518518519,0)" xlink:href="#bm"/><use transform="matrix(0.048148148148148155,0,0,0.048148148148148155,26.00000000000001,0)" xlink:href="#bn"/><use transform="matrix(0.048148148148148155,0,0,0.048148148148148155,29.803703703703714,0)" xlink:href="#bo"/><use transform="matrix(0.048148148148148155,0,0,0.048148148148148155,39.433333333333344,0)" xlink:href="#bp"/><use transform="matrix(0.048148148148148155,0,0,0.048148148148148155,49.06296296296298,0)" xlink:href="#bm"/><use transform="matrix(0.048148148148148155,0,0,0.048148148148148155,53.877777777777794,0)" xlink:href="#cb"/><use transform="matrix(0.048148148148148155,0,0,0.048148148148148155,63.98888888888891,0)" xlink:href="#by"/><use transform="matrix(0.048148148148148155,0,0,0.048148148148148155,77.47037037037039,0)" xlink:href="#bj"/><use transform="matrix(0.048148148148148155,0,0,0.048148148148148155,87.10000000000002,0)" xlink:href="#bz"/><use transform="matrix(0.048148148148148155,0,0,0.048148148148148155,90.90370370370373,0)" xlink:href="#bv"/><use transform="matrix(0.048148148148148155,0,0,0.048148148148148155,100.53333333333337,0)" xlink:href="#bo"/><use transform="matrix(0.048148148148148155,0,0,0.048148148148148155,110.16296296296301,0)" xlink:href="#bp"/><use transform="matrix(0.048148148148148155,0,0,0.048148148148148155,119.79259259259263,0)" xlink:href="#bA"/><use transform="matrix(0.048148148148148155,0,0,0.048148148148148155,132.262962962963,0)" xlink:href="#bo"/><use transform="matrix(0.048148148148148155,0,0,0.048148148148148155,141.89259259259262,0)" xlink:href="#bq"/><use transform="matrix(0.048148148148148155,0,0,0.048148148148148155,150.55925925925928,0)" xlink:href="#bj"/><use transform="matrix(0.048148148148148155,0,0,0.048148148148148155,160.1888888888889,0)" xlink:href="#bP"/><use transform="matrix(0.048148148148148155,0,0,0.048148148148148155,169.81851851851852,0)" xlink:href="#br"/><use transform="matrix(0.048148148148148155,0,0,0.048148148148148155,175.54814814814816,0)" xlink:href="#bt"/><use transform="matrix(0.048148148148148155,0,0,0.048148148148148155,184.21481481481482,0)" xlink:href="#bo"/><use transform="matrix(0.048148148148148155,0,0,0.048148148148148155,193.84444444444443,0)" xlink:href="#cc"/><use transform="matrix(0.048148148148148155,0,0,0.048148148148148155,203.95555555555555,0)" xlink:href="#cd"/></g><g id="ad"><use transform="matrix(0.048148148148148155,0,0,0.048148148148148155,0,0)" xlink:href="#bt"/><use transform="matrix(0.048148148148148155,0,0,0.048148148148148155,8.666666666666668,0)" xlink:href="#br"/><use transform="matrix(0.048148148148148155,0,0,0.048148148148148155,14.396296296296299,0)" xlink:href="#bo"/><use transform="matrix(0.048148148148148155,0,0,0.048148148148148155,24.025925925925932,0)" xlink:href="#bl"/><use transform="matrix(0.048148148148148155,0,0,0.048148148148148155,33.655555555555566,0)" xlink:href="#bm"/><use transform="matrix(0.048148148148148155,0,0,0.048148148148148155,38.47037037037038,0)" xlink:href="#bo"/></g><g id="ae"><use transform="matrix(0.048148148148148155,0,0,0.048148148148148155,0,0)" xlink:href="#bj"/><use transform="matrix(0.048148148148148155,0,0,0.048148148148148155,9.629629629629632,0)" xlink:href="#bp"/><use transform="matrix(0.048148148148148155,0,0,0.048148148148148155,19.259259259259263,0)" xlink:href="#bo"/><use transform="matrix(0.048148148148148155,0,0,0.048148148148148155,28.888888888888893,0)" xlink:href="#cd"/></g><g id="af"><use transform="matrix(0.048148148148148155,0,0,0.048148148148148155,0,0)" xlink:href="#bl"/><use transform="matrix(0.048148148148148155,0,0,0.048148148148148155,9.629629629629632,0)" xlink:href="#bp"/><use transform="matrix(0.048148148148148155,0,0,0.048148148148148155,19.259259259259263,0)" xlink:href="#bv"/></g><g id="ag"><use transform="matrix(0.048148148148148155,0,0,0.048148148148148155,0,0)" xlink:href="#bq"/><use transform="matrix(0.048148148148148155,0,0,0.048148148148148155,8.666666666666668,0)" xlink:href="#bo"/><use transform="matrix(0.048148148148148155,0,0,0.048148148148148155,18.296296296296298,0)" xlink:href="#bm"/></g><g id="ah"><use transform="matrix(0.048148148148148155,0,0,0.048148148148148155,0,0)" xlink:href="#bl"/><use transform="matrix(0.048148148148148155,0,0,0.048148148148148155,9.629629629629632,0)" xlink:href="#bq"/></g><g id="ai"><use transform="matrix(0.048148148148148155,0,0,0.048148148148148155,0,0)" xlink:href="#bk"/><use transform="matrix(0.048148148148148155,0,0,0.048148148148148155,9.629629629629632,0)" xlink:href="#bj"/><use transform="matrix(0.048148148148148155,0,0,0.048148148148148155,19.259259259259263,0)" xlink:href="#bq"/><use transform="matrix(0.048148148148148155,0,0,0.048148148148148155,27.92592592592593,0)" xlink:href="#bq"/><use transform="matrix(0.048148148148148155,0,0,0.048148148148148155,36.592592592592595,0)" xlink:href="#bn"/><use transform="matrix(0.048148148148148155,0,0,0.048148148148148155,40.3962962962963,0)" xlink:href="#bX"/><use transform="matrix(0.048148148148148155,0,0,0.048148148148148155,50.02592592592593,0)" xlink:href="#bz"/><use transform="matrix(0.048148148148148155,0,0,0.048148148148148155,53.829629629629636,0)" xlink:href="#bo"/></g><g id="aj"><use transform="matrix(0.048148148148148155,0,0,0.048148148148148155,0,0)" xlink:href="#bv"/><use transform="matrix(0.048148148148148155,0,0,0.048148148148148155,9.629629629629632,0)" xlink:href="#bP"/><use transform="matrix(0.048148148148148155,0,0,0.048148148148148155,19.259259259259263,0)" xlink:href="#bk"/><use transform="matrix(0.048148148148148155,0,0,0.048148148148148155,28.888888888888893,0)" xlink:href="#bz"/><use transform="matrix(0.048148148148148155,0,0,0.048148148148148155,32.6925925925926,0)" xlink:href="#bn"/><use transform="matrix(0.048148148148148155,0,0,0.048148148148148155,36.4962962962963,0)" xlink:href="#bt"/><use transform="matrix(0.048148148148148155,0,0,0.048148148148148155,45.162962962962965,0)" xlink:href="#bl"/><use transform="matrix(0.048148148148148155,0,0,0.048148148148148155,54.7925925925926,0)" xlink:href="#bm"/><use transform="matrix(0.048148148148148155,0,0,0.048148148148148155,59.607407407407415,0)" xlink:href="#bo"/></g><path fill="#fff" d="M30-248c87 1 191-15 191 75 0 78-77 80-158 76V0H30v-248zm33 125c57 0 124 11 124-50 0-59-68-47-124-48v98" id="ce"/><path fill="#fff" d="M141-36C126-15 110 5 73 4 37 3 15-17 15-53c-1-64 63-63 125-63 3-35-9-54-41-54-24 1-41 7-42 31l-33-3c5-37 33-52 76-52 45 0 72 20 72 64v82c-1 20 7 32 28 27v20c-31 9-61-2-59-35zM48-53c0 20 12 33 32 33 41-3 63-29 60-74-43 2-92-5-92 41" id="cf"/><path fill="#fff" d="M59-47c-2 24 18 29 38 22v24C64 9 27 4 27-40v-127H5v-23h24l9-43h21v43h35v23H59v120" id="cg"/><path fill="#fff" d="M24-231v-30h32v30H24zM24 0v-190h32V0H24" id="ch"/><path fill="#fff" d="M100-194c63 0 86 42 84 106H49c0 40 14 67 53 68 26 1 43-12 49-29l28 8c-11 28-37 45-77 45C44 4 14-33 15-96c1-61 26-98 85-98zm52 81c6-60-76-77-97-28-3 7-6 17-6 28h103" id="ci"/><path fill="#fff" d="M117-194c89-4 53 116 60 194h-32v-121c0-31-8-49-39-48C34-167 62-67 57 0H25l-1-190h30c1 10-1 24 2 32 11-22 29-35 61-36" id="cj"/><g id="ak"><use transform="matrix(0.05,0,0,0.05,0,0)" xlink:href="#ce"/><use transform="matrix(0.05,0,0,0.05,12,0)" xlink:href="#cf"/><use transform="matrix(0.05,0,0,0.05,22,0)" xlink:href="#cg"/><use transform="matrix(0.05,0,0,0.05,27,0)" xlink:href="#ch"/><use transform="matrix(0.05,0,0,0.05,30.950000000000003,0)" xlink:href="#ci"/><use transform="matrix(0.05,0,0,0.05,40.95,0)" xlink:href="#cj"/><use transform="matrix(0.05,0,0,0.05,50.95,0)" xlink:href="#cg"/></g><path fill="#fff" d="M143 4C61 4 22-44 18-125c-5-107 100-154 193-111 17 8 29 25 37 43l-32 9c-13-25-37-40-76-40-61 0-88 39-88 99 0 61 29 100 91 101 35 0 62-11 79-27v-45h-74v-28h105v86C228-13 192 4 143 4" id="ck"/><path fill="#fff" d="M100-194c62-1 85 37 85 99 1 63-27 99-86 99S16-35 15-95c0-66 28-99 85-99zM99-20c44 1 53-31 53-75 0-43-8-75-51-75s-53 32-53 75 10 74 51 75" id="cl"/><path fill="#fff" d="M24 0v-261h32V0H24" id="cm"/><path fill="#fff" d="M85-194c31 0 48 13 60 33l-1-100h32l1 261h-30c-2-10 0-23-3-31C134-8 116 4 85 4 32 4 16-35 15-94c0-66 23-100 70-100zm9 24c-40 0-46 34-46 75 0 40 6 74 45 74 42 0 51-32 51-76 0-42-9-74-50-73" id="cn"/><g id="al"><use transform="matrix(0.031481481481481485,0,0,0.031481481481481485,0,0)" xlink:href="#ck"/><use transform="matrix(0.031481481481481485,0,0,0.031481481481481485,8.814814814814817,0)" xlink:href="#cl"/><use transform="matrix(0.031481481481481485,0,0,0.031481481481481485,15.111111111111114,0)" xlink:href="#cm"/><use transform="matrix(0.031481481481481485,0,0,0.031481481481481485,17.59814814814815,0)" xlink:href="#cn"/><use transform="matrix(0.031481481481481485,0,0,0.031481481481481485,23.89444444444445,0)" xlink:href="#ci"/><use transform="matrix(0.031481481481481485,0,0,0.031481481481481485,30.190740740740747,0)" xlink:href="#cj"/></g><path fill="#fff" d="M233-177c-1 41-23 64-60 70L243 0h-38l-65-103H63V0H30v-248c88 3 205-21 203 71zM63-129c60-2 137 13 137-47 0-61-80-42-137-45v92" id="co"/><path fill="#fff" d="M96-169c-40 0-48 33-48 73s9 75 48 75c24 0 41-14 43-38l32 2c-6 37-31 61-74 61-59 0-76-41-82-99-10-93 101-131 147-64 4 7 5 14 7 22l-32 3c-4-21-16-35-41-35" id="cp"/><path fill="#fff" d="M114-163C36-179 61-72 57 0H25l-1-190h30c1 12-1 29 2 39 6-27 23-49 58-41v29" id="cq"/><g id="am"><use transform="matrix(0.031481481481481485,0,0,0.031481481481481485,0,0)" xlink:href="#co"/><use transform="matrix(0.031481481481481485,0,0,0.031481481481481485,8.153703703703705,0)" xlink:href="#ci"/><use transform="matrix(0.031481481481481485,0,0,0.031481481481481485,14.450000000000003,0)" xlink:href="#cp"/><use transform="matrix(0.031481481481481485,0,0,0.031481481481481485,20.11666666666667,0)" xlink:href="#cl"/><use transform="matrix(0.031481481481481485,0,0,0.031481481481481485,26.41296296296297,0)" xlink:href="#cq"/><use transform="matrix(0.031481481481481485,0,0,0.031481481481481485,30.159259259259265,0)" xlink:href="#cn"/></g><path fill="#fff" d="M30 0v-248h187v28H63v79h144v27H63v87h162V0H30" id="cr"/><path fill="#fff" d="M33 0v-248h34V0H33" id="cs"/><path fill="#fff" d="M30-248c118-7 216 8 213 122C240-48 200 0 122 0H30v-248zM63-27c89 8 146-16 146-99s-60-101-146-95v194" id="ct"/><path fill="#fff" d="M33-154v-36h34v36H33zM33 0v-36h34V0H33" id="cu"/><path fill="#fff" d="M160-131c35 5 61 23 61 61C221 17 115-2 30 0v-248c76 3 177-17 177 60 0 33-19 50-47 57zm-97-11c50-1 110 9 110-42 0-47-63-36-110-37v79zm0 115c55-2 124 14 124-45 0-56-70-42-124-44v89" id="cv"/><g id="an"><use transform="matrix(0.05,0,0,0.05,0,0)" xlink:href="#cr"/><use transform="matrix(0.05,0,0,0.05,12,0)" xlink:href="#cs"/><use transform="matrix(0.05,0,0,0.05,17,0)" xlink:href="#ct"/><use transform="matrix(0.05,0,0,0.05,29.950000000000003,0)" xlink:href="#cu"/><use transform="matrix(0.05,0,0,0.05,34.95,0)" xlink:href="#cv"/></g><path fill="#834187" d="M30-248c87 1 191-15 191 75 0 78-77 80-158 76V0H30v-248zm33 125c57 0 124 11 124-50 0-59-68-47-124-48v98" id="cw"/><path fill="#834187" d="M140-251c81 0 123 46 123 126C263-46 219 4 140 4 59 4 17-45 17-125s42-126 123-126zm0 227c63 0 89-41 89-101s-29-99-89-99c-61 0-89 39-89 99S79-25 140-24" id="cx"/><path fill="#834187" d="M185-189c-5-48-123-54-124 2 14 75 158 14 163 119 3 78-121 87-175 55-17-10-28-26-33-46l33-7c5 56 141 63 141-1 0-78-155-14-162-118-5-82 145-84 179-34 5 7 8 16 11 25" id="cy"/><path fill="#834187" d="M33 0v-248h34V0H33" id="cz"/><path fill="#834187" d="M160-131c35 5 61 23 61 61C221 17 115-2 30 0v-248c76 3 177-17 177 60 0 33-19 50-47 57zm-97-11c50-1 110 9 110-42 0-47-63-36-110-37v79zm0 115c55-2 124 14 124-45 0-56-70-42-124-44v89" id="cA"/><path fill="#834187" d="M30 0v-248h33v221h125V0H30" id="cB"/><path fill="#834187" d="M30 0v-248h187v28H63v79h144v27H63v87h162V0H30" id="cC"/><path fill="#834187" d="M-5 72V49h209v23H-5" id="cD"/><path fill="#834187" d="M30-248c118-7 216 8 213 122C240-48 200 0 122 0H30v-248zM63-27c89 8 146-16 146-99s-60-101-146-95v194" id="cE"/><path fill="#834187" d="M232-93c-1 65-40 97-104 97C67 4 28-28 28-90v-158h33c8 89-33 224 67 224 102 0 64-133 71-224h33v155" id="cF"/><path fill="#834187" d="M212-179c-10-28-35-45-73-45-59 0-87 40-87 99 0 60 29 101 89 101 43 0 62-24 78-52l27 14C228-24 195 4 139 4 59 4 22-46 18-125c-6-104 99-153 187-111 19 9 31 26 39 46" id="cG"/><path fill="#834187" d="M205 0l-28-72H64L36 0H1l101-248h38L239 0h-34zm-38-99l-47-123c-12 45-31 82-46 123h93" id="cH"/><path fill="#834187" d="M127-220V0H93v-220H8v-28h204v28h-85" id="cI"/><g id="ao"><use transform="matrix(0.05,0,0,0.05,0,0)" xlink:href="#cw"/><use transform="matrix(0.05,0,0,0.05,12,0)" xlink:href="#cx"/><use transform="matrix(0.05,0,0,0.05,26,0)" xlink:href="#cy"/><use transform="matrix(0.05,0,0,0.05,38,0)" xlink:href="#cy"/><use transform="matrix(0.05,0,0,0.05,50,0)" xlink:href="#cz"/><use transform="matrix(0.05,0,0,0.05,55,0)" xlink:href="#cA"/><use transform="matrix(0.05,0,0,0.05,67,0)" xlink:href="#cB"/><use transform="matrix(0.05,0,0,0.05,77,0)" xlink:href="#cC"/><use transform="matrix(0.05,0,0,0.05,89,0)" xlink:href="#cD"/><use transform="matrix(0.05,0,0,0.05,99,0)" xlink:href="#cE"/><use transform="matrix(0.05,0,0,0.05,111.95,0)" xlink:href="#cF"/><use transform="matrix(0.05,0,0,0.05,124.9,0)" xlink:href="#cw"/><use transform="matrix(0.05,0,0,0.05,136.9,0)" xlink:href="#cB"/><use transform="matrix(0.05,0,0,0.05,146.9,0)" xlink:href="#cz"/><use transform="matrix(0.05,0,0,0.05,151.9,0)" xlink:href="#cG"/><use transform="matrix(0.05,0,0,0.05,164.85,0)" xlink:href="#cH"/><use transform="matrix(0.05,0,0,0.05,175.5,0)" xlink:href="#cI"/><use transform="matrix(0.05,0,0,0.05,186.45,0)" xlink:href="#cC"/></g><path fill="#333" d="M115-159c48 0 72 30 72 78 0 54-30 85-83 85-64 0-91-50-91-122 0-98 58-163 141-120 15 8 21 24 27 44l-47 6c-5-31-48-31-61-4-7 14-11 33-11 60 9-17 28-27 53-27zM102-35c24 0 36-20 36-45s-11-43-37-43c-23 0-36 14-36 38 0 27 11 50 37 50" id="cJ"/><g id="ap"><use transform="matrix(0.06790123456790124,0,0,0.06790123456790124,0,0)" xlink:href="#ay"/><use transform="matrix(0.06790123456790124,0,0,0.06790123456790124,13.580246913580249,0)" xlink:href="#cJ"/></g></defs></g></svg>