<svg xmlns="http://www.w3.org/2000/svg" xmlns:xlink="http://www.w3.org/1999/xlink" xmlns:lucid="lucid" width="1539" height="1596"><g transform="translate(-219 -240)" lucid:page-tab-id="z5lRVyMBYKtu"><path d="M280 260h300v72H280z" fill="#83bbe5"/><path d="M280 260h300v72H280zM280 300h300M340 300v32" stroke="#0c7cba" stroke-width="4" fill="none"/><use xlink:href="#a" transform="matrix(1,0,0,1,290,260) translate(67.14999999999999 23.6)"/><use xlink:href="#b" transform="matrix(1,0,0,1,285,302.5) translate(13 17.1)"/><use xlink:href="#c" transform="matrix(1,0,0,1,345,302.5) translate(0 17.1)"/><use xlink:href="#d" transform="matrix(1,0,0,1,345,302.5) translate(69.9 17.1)"/><path d="M280 420h420v392H280z" fill="#c1e4f7"/><path d="M280 420h420v392H280zM280 460h420M340 460v352" stroke="#0c7cba" stroke-width="2" fill="none"/><use xlink:href="#e" transform="matrix(1,0,0,1,290,420) translate(106.65 23.6)"/><use xlink:href="#f" transform="matrix(1,0,0,1,345,462.5) translate(0 17.1)"/><use xlink:href="#g" transform="matrix(1,0,0,1,345,462.5) translate(127.05000000000001 17.1)"/><use xlink:href="#h" transform="matrix(1,0,0,1,345,494.5) translate(0 17.1)"/><use xlink:href="#i" transform="matrix(1,0,0,1,345,494.5) translate(155.65 17.1)"/><use xlink:href="#b" transform="matrix(1,0,0,1,285,526.5) translate(13 17.1)"/><use xlink:href="#j" transform="matrix(1,0,0,1,345,526.5) translate(0 17.1)"/><use xlink:href="#d" transform="matrix(1,0,0,1,345,526.5) translate(56.95 17.1)"/><use xlink:href="#k" transform="matrix(1,0,0,1,285,558.5) translate(13.524999999999999 17.1)"/><use xlink:href="#l" transform="matrix(1,0,0,1,345,558.5) translate(0 17.1)"/><use xlink:href="#m" transform="matrix(1,0,0,1,345,590.5) translate(0 17.1)"/><use xlink:href="#n" transform="matrix(1,0,0,1,345,590.5) translate(90.9 17.1)"/><use xlink:href="#o" transform="matrix(1,0,0,1,345,622.5) translate(0 17.1)"/><use xlink:href="#n" transform="matrix(1,0,0,1,345,622.5) translate(98.9 17.1)"/><use xlink:href="#p" transform="matrix(1,0,0,1,345,654.5) translate(0 17.1)"/><use xlink:href="#i" transform="matrix(1,0,0,1,345,654.5) translate(123.45000000000002 17.1)"/><use xlink:href="#q" transform="matrix(1,0,0,1,345,686.5) translate(0 17.1)"/><use xlink:href="#r" transform="matrix(1,0,0,1,345,686.5) translate(114.9 17.1)"/><use xlink:href="#s" transform="matrix(1,0,0,1,345,718.5) translate(0 17.1)"/><use xlink:href="#t" transform="matrix(1,0,0,1,345,718.5) translate(124.45 17.1)"/><use xlink:href="#u" transform="matrix(1,0,0,1,345,750.5) translate(0 17.1)"/><use xlink:href="#t" transform="matrix(1,0,0,1,345,750.5) translate(143.8 17.1)"/><use xlink:href="#v" transform="matrix(1,0,0,1,345,782.5) translate(0 17.1)"/><use xlink:href="#w" transform="matrix(1,0,0,1,345,782.5) translate(146.35000000000002 17.1)"/><path d="M240 572h-10V370h510v-54H602" stroke="#000" stroke-width="2" fill="none"/><path d="M278.55 582l-20-10 20-10M278.55 572h-20M258.55 572c0 5.52-4.47 10-10 10-5.52 0-10-4.48-10-10s4.48-10 10-10c5.53 0 10 4.48 10 10M602 326v-20M582 316h20" stroke="#000" stroke-width="2" fill="#fff"/><path d="M280 860h420v392H280z" fill="#c1e4f7"/><path d="M280 860h420v392H280zM280 900h420M340 900v352" stroke="#0c7cba" stroke-width="2" fill="none"/><use xlink:href="#x" transform="matrix(1,0,0,1,290,860) translate(122.325 23.6)"/><use xlink:href="#f" transform="matrix(1,0,0,1,345,902.5) translate(0 17.1)"/><use xlink:href="#g" transform="matrix(1,0,0,1,345,902.5) translate(127.05000000000001 17.1)"/><use xlink:href="#h" transform="matrix(1,0,0,1,345,934.5) translate(0 17.1)"/><use xlink:href="#i" transform="matrix(1,0,0,1,345,934.5) translate(155.65 17.1)"/><use xlink:href="#b" transform="matrix(1,0,0,1,285,966.5) translate(13 17.1)"/><use xlink:href="#j" transform="matrix(1,0,0,1,345,966.5) translate(0 17.1)"/><use xlink:href="#d" transform="matrix(1,0,0,1,345,966.5) translate(56.95 17.1)"/><use xlink:href="#k" transform="matrix(1,0,0,1,285,998.5) translate(13.524999999999999 17.1)"/><use xlink:href="#l" transform="matrix(1,0,0,1,345,998.5) translate(0 17.1)"/><use xlink:href="#m" transform="matrix(1,0,0,1,345,1030.5) translate(0 17.1)"/><use xlink:href="#n" transform="matrix(1,0,0,1,345,1030.5) translate(90.9 17.1)"/><use xlink:href="#o" transform="matrix(1,0,0,1,345,1062.5) translate(0 17.1)"/><use xlink:href="#n" transform="matrix(1,0,0,1,345,1062.5) translate(98.9 17.1)"/><use xlink:href="#p" transform="matrix(1,0,0,1,345,1094.5) translate(0 17.1)"/><use xlink:href="#i" transform="matrix(1,0,0,1,345,1094.5) translate(123.45000000000002 17.1)"/><use xlink:href="#q" transform="matrix(1,0,0,1,345,1126.5) translate(0 17.1)"/><use xlink:href="#r" transform="matrix(1,0,0,1,345,1126.5) translate(114.9 17.1)"/><use xlink:href="#y" transform="matrix(1,0,0,1,345,1158.5) translate(0 17.1)"/><use xlink:href="#i" transform="matrix(1,0,0,1,345,1158.5) translate(151.5 17.1)"/><use xlink:href="#z" transform="matrix(1,0,0,1,345,1190.5) translate(0 17.1)"/><use xlink:href="#i" transform="matrix(1,0,0,1,345,1190.5) translate(147.55 17.1)"/><use xlink:href="#v" transform="matrix(1,0,0,1,345,1222.5) translate(0 17.1)"/><use xlink:href="#w" transform="matrix(1,0,0,1,345,1222.5) translate(146.35000000000002 17.1)"/><path d="M798 420h420v360H798z" fill="#c1e4f7"/><path d="M798 420h420v360H798zM798 460h420M858 460v320" stroke="#0c7cba" stroke-width="2" fill="none"/><use xlink:href="#A" transform="matrix(1,0,0,1,808,420) translate(106.70000000000002 23.6)"/><use xlink:href="#f" transform="matrix(1,0,0,1,863,462.5) translate(0 17.1)"/><use xlink:href="#g" transform="matrix(1,0,0,1,863,462.5) translate(127.05000000000001 17.1)"/><use xlink:href="#h" transform="matrix(1,0,0,1,863,494.5) translate(0 17.1)"/><use xlink:href="#i" transform="matrix(1,0,0,1,863,494.5) translate(155.65 17.1)"/><use xlink:href="#b" transform="matrix(1,0,0,1,803,526.5) translate(13 17.1)"/><use xlink:href="#j" transform="matrix(1,0,0,1,863,526.5) translate(0 17.1)"/><use xlink:href="#d" transform="matrix(1,0,0,1,863,526.5) translate(56.95 17.1)"/><use xlink:href="#k" transform="matrix(1,0,0,1,803,558.5) translate(13.524999999999999 17.1)"/><use xlink:href="#l" transform="matrix(1,0,0,1,863,558.5) translate(0 17.1)"/><use xlink:href="#m" transform="matrix(1,0,0,1,863,590.5) translate(0 17.1)"/><use xlink:href="#n" transform="matrix(1,0,0,1,863,590.5) translate(90.9 17.1)"/><use xlink:href="#o" transform="matrix(1,0,0,1,863,622.5) translate(0 17.1)"/><use xlink:href="#n" transform="matrix(1,0,0,1,863,622.5) translate(98.9 17.1)"/><use xlink:href="#p" transform="matrix(1,0,0,1,863,654.5) translate(0 17.1)"/><use xlink:href="#i" transform="matrix(1,0,0,1,863,654.5) translate(123.45000000000002 17.1)"/><use xlink:href="#q" transform="matrix(1,0,0,1,863,686.5) translate(0 17.1)"/><use xlink:href="#r" transform="matrix(1,0,0,1,863,686.5) translate(114.9 17.1)"/><use xlink:href="#B" transform="matrix(1,0,0,1,863,718.5) translate(0 17.1)"/><use xlink:href="#C" transform="matrix(1,0,0,1,863,718.5) translate(96.60000000000001 17.1)"/><use xlink:href="#v" transform="matrix(1,0,0,1,863,750.5) translate(0 17.1)"/><use xlink:href="#w" transform="matrix(1,0,0,1,863,750.5) translate(146.35000000000002 17.1)"/><path d="M798 820h420v488H798z" fill="#c1e4f7"/><path d="M798 820h420v488H798zM798 860h420M858 860v448" stroke="#0c7cba" stroke-width="2" fill="none"/><use xlink:href="#D" transform="matrix(1,0,0,1,808,820) translate(100.20000000000002 23.6)"/><use xlink:href="#f" transform="matrix(1,0,0,1,863,862.5) translate(0 17.1)"/><use xlink:href="#g" transform="matrix(1,0,0,1,863,862.5) translate(127.05000000000001 17.1)"/><use xlink:href="#h" transform="matrix(1,0,0,1,863,894.5) translate(0 17.1)"/><use xlink:href="#i" transform="matrix(1,0,0,1,863,894.5) translate(155.65 17.1)"/><use xlink:href="#b" transform="matrix(1,0,0,1,803,926.5) translate(13 17.1)"/><use xlink:href="#j" transform="matrix(1,0,0,1,863,926.5) translate(0 17.1)"/><use xlink:href="#d" transform="matrix(1,0,0,1,863,926.5) translate(56.95 17.1)"/><use xlink:href="#k" transform="matrix(1,0,0,1,803,958.5) translate(13.524999999999999 17.1)"/><use xlink:href="#l" transform="matrix(1,0,0,1,863,958.5) translate(0 17.1)"/><use xlink:href="#m" transform="matrix(1,0,0,1,863,990.5) translate(0 17.1)"/><use xlink:href="#n" transform="matrix(1,0,0,1,863,990.5) translate(90.9 17.1)"/><use xlink:href="#o" transform="matrix(1,0,0,1,863,1022.5) translate(0 17.1)"/><use xlink:href="#n" transform="matrix(1,0,0,1,863,1022.5) translate(98.9 17.1)"/><use xlink:href="#p" transform="matrix(1,0,0,1,863,1054.5) translate(0 17.1)"/><use xlink:href="#i" transform="matrix(1,0,0,1,863,1054.5) translate(123.45000000000002 17.1)"/><use xlink:href="#q" transform="matrix(1,0,0,1,863,1086.5) translate(0 17.1)"/><use xlink:href="#r" transform="matrix(1,0,0,1,863,1086.5) translate(114.9 17.1)"/><use xlink:href="#E" transform="matrix(1,0,0,1,863,1118.5) translate(0 17.1)"/><use xlink:href="#n" transform="matrix(1,0,0,1,863,1118.5) translate(112.9 17.1)"/><use xlink:href="#F" transform="matrix(1,0,0,1,863,1150.5) translate(0 17.1)"/><use xlink:href="#n" transform="matrix(1,0,0,1,863,1150.5) translate(92.85000000000001 17.1)"/><use xlink:href="#B" transform="matrix(1,0,0,1,863,1182.5) translate(0 17.1)"/><use xlink:href="#C" transform="matrix(1,0,0,1,863,1182.5) translate(96.60000000000001 17.1)"/><use xlink:href="#v" transform="matrix(1,0,0,1,863,1214.5) translate(0 17.1)"/><use xlink:href="#w" transform="matrix(1,0,0,1,863,1214.5) translate(146.35000000000002 17.1)"/><use xlink:href="#G" transform="matrix(1,0,0,1,863,1246.5) translate(0 17.1)"/><use xlink:href="#w" transform="matrix(1,0,0,1,863,1246.5) translate(258.44999999999993 17.1)"/><use xlink:href="#H" transform="matrix(1,0,0,1,863,1278.5) translate(0 17.1)"/><use xlink:href="#w" transform="matrix(1,0,0,1,863,1278.5) translate(256.54999999999995 17.1)"/><path d="M602 316h138v54H230v641.8h10" stroke="#000" stroke-width="2" fill="none"/><path d="M602 326v-20M582 316h20M278.55 1021.8l-20-10 20-10M278.55 1011.8h-20M258.55 1011.8c0 5.5-4.47 10-10 10-5.52 0-10-4.5-10-10 0-5.53 4.48-10 10-10 5.53 0 10 4.47 10 10" stroke="#000" stroke-width="2" fill="#fff"/><path d="M602 316h658v255.56h18" stroke="#000" stroke-width="2" fill="none"/><path d="M602 326v-20M582 316h20M1316.55 581.56l-20-10 20-10M1316.55 571.56h-20M1296.55 571.56c0 5.52-4.47 10-10 10-5.52 0-10-4.48-10-10s4.48-10 10-10c5.53 0 10 4.48 10 10" stroke="#000" stroke-width="2" fill="#fff"/><path d="M798 1360h420v456H798z" fill="#c1e4f7"/><path d="M798 1360h420v456H798zM798 1400h420M858 1400v416" stroke="#0c7cba" stroke-width="2" fill="none"/><use xlink:href="#I" transform="matrix(1,0,0,1,808,1360) translate(112.15 23.6)"/><use xlink:href="#f" transform="matrix(1,0,0,1,863,1402.5) translate(0 17.1)"/><use xlink:href="#g" transform="matrix(1,0,0,1,863,1402.5) translate(127.05000000000001 17.1)"/><use xlink:href="#h" transform="matrix(1,0,0,1,863,1434.5) translate(0 17.1)"/><use xlink:href="#i" transform="matrix(1,0,0,1,863,1434.5) translate(155.65 17.1)"/><use xlink:href="#b" transform="matrix(1,0,0,1,803,1466.5) translate(13 17.1)"/><use xlink:href="#j" transform="matrix(1,0,0,1,863,1466.5) translate(0 17.1)"/><use xlink:href="#d" transform="matrix(1,0,0,1,863,1466.5) translate(56.95 17.1)"/><use xlink:href="#k" transform="matrix(1,0,0,1,803,1498.5) translate(13.524999999999999 17.1)"/><use xlink:href="#l" transform="matrix(1,0,0,1,863,1498.5) translate(0 17.1)"/><use xlink:href="#m" transform="matrix(1,0,0,1,863,1530.5) translate(0 17.1)"/><use xlink:href="#n" transform="matrix(1,0,0,1,863,1530.5) translate(90.9 17.1)"/><use xlink:href="#o" transform="matrix(1,0,0,1,863,1562.5) translate(0 17.1)"/><use xlink:href="#n" transform="matrix(1,0,0,1,863,1562.5) translate(98.9 17.1)"/><use xlink:href="#p" transform="matrix(1,0,0,1,863,1594.5) translate(0 17.1)"/><use xlink:href="#i" transform="matrix(1,0,0,1,863,1594.5) translate(123.45000000000002 17.1)"/><use xlink:href="#q" transform="matrix(1,0,0,1,863,1626.5) translate(0 17.1)"/><use xlink:href="#r" transform="matrix(1,0,0,1,863,1626.5) translate(114.9 17.1)"/><use xlink:href="#J" transform="matrix(1,0,0,1,863,1658.5) translate(0 17.1)"/><use xlink:href="#n" transform="matrix(1,0,0,1,863,1658.5) translate(224.34999999999997 17.1)"/><use xlink:href="#K" transform="matrix(1,0,0,1,863,1690.5) translate(0 17.1)"/><use xlink:href="#n" transform="matrix(1,0,0,1,863,1690.5) translate(166.15 17.1)"/><use xlink:href="#v" transform="matrix(1,0,0,1,863,1722.5) translate(0 17.1)"/><use xlink:href="#w" transform="matrix(1,0,0,1,863,1722.5) translate(146.35000000000002 17.1)"/><use xlink:href="#L" transform="matrix(1,0,0,1,863,1754.5) translate(0 17.1)"/><use xlink:href="#w" transform="matrix(1,0,0,1,863,1754.5) translate(194.64999999999998 17.1)"/><use xlink:href="#M" transform="matrix(1,0,0,1,863,1786.5) translate(0 17.1)"/><use xlink:href="#w" transform="matrix(1,0,0,1,863,1786.5) translate(124.45000000000002 17.1)"/><path d="M1318 420h420v488h-420z" fill="#c1e4f7"/><path d="M1318 420h420v488h-420zM1318 460h420M1378 460v448" stroke="#0c7cba" stroke-width="2" fill="none"/><use xlink:href="#N" transform="matrix(1,0,0,1,1328,420) translate(114.825 23.6)"/><use xlink:href="#f" transform="matrix(1,0,0,1,1383,462.5) translate(0 17.1)"/><use xlink:href="#g" transform="matrix(1,0,0,1,1383,462.5) translate(127.05000000000001 17.1)"/><use xlink:href="#h" transform="matrix(1,0,0,1,1383,494.5) translate(0 17.1)"/><use xlink:href="#i" transform="matrix(1,0,0,1,1383,494.5) translate(155.65 17.1)"/><use xlink:href="#b" transform="matrix(1,0,0,1,1323,526.5) translate(13 17.1)"/><use xlink:href="#j" transform="matrix(1,0,0,1,1383,526.5) translate(0 17.1)"/><use xlink:href="#d" transform="matrix(1,0,0,1,1383,526.5) translate(56.95 17.1)"/><g><use xlink:href="#k" transform="matrix(1,0,0,1,1323,558.5) translate(13.524999999999999 17.1)"/></g><g><use xlink:href="#l" transform="matrix(1,0,0,1,1383,558.5) translate(0 17.1)"/></g><g><use xlink:href="#m" transform="matrix(1,0,0,1,1383,590.5) translate(0 17.1)"/><use xlink:href="#n" transform="matrix(1,0,0,1,1383,590.5) translate(90.9 17.1)"/></g><g><use xlink:href="#o" transform="matrix(1,0,0,1,1383,622.5) translate(0 17.1)"/><use xlink:href="#n" transform="matrix(1,0,0,1,1383,622.5) translate(98.9 17.1)"/></g><g><use xlink:href="#p" transform="matrix(1,0,0,1,1383,654.5) translate(0 17.1)"/><use xlink:href="#i" transform="matrix(1,0,0,1,1383,654.5) translate(123.45000000000002 17.1)"/></g><g><use xlink:href="#q" transform="matrix(1,0,0,1,1383,686.5) translate(0 17.1)"/><use xlink:href="#r" transform="matrix(1,0,0,1,1383,686.5) translate(114.9 17.1)"/></g><g><use xlink:href="#E" transform="matrix(1,0,0,1,1383,718.5) translate(0 17.1)"/><use xlink:href="#n" transform="matrix(1,0,0,1,1383,718.5) translate(112.9 17.1)"/></g><g><use xlink:href="#B" transform="matrix(1,0,0,1,1383,750.5) translate(0 17.1)"/><use xlink:href="#n" transform="matrix(1,0,0,1,1383,750.5) translate(96.60000000000001 17.1)"/></g><g><use xlink:href="#v" transform="matrix(1,0,0,1,1383,782.5) translate(0 17.1)"/><use xlink:href="#w" transform="matrix(1,0,0,1,1383,782.5) translate(146.35000000000002 17.1)"/></g><g><use xlink:href="#O" transform="matrix(1,0,0,1,1383,814.5) translate(0 17.1)"/><use xlink:href="#w" transform="matrix(1,0,0,1,1383,814.5) translate(100.9 17.1)"/></g><g><use xlink:href="#P" transform="matrix(1,0,0,1,1383,846.5) translate(0 17.1)"/><use xlink:href="#w" transform="matrix(1,0,0,1,1383,846.5) translate(216.39999999999998 17.1)"/></g><g><use xlink:href="#Q" transform="matrix(1,0,0,1,1383,878.5) translate(0 17.1)"/><use xlink:href="#n" transform="matrix(1,0,0,1,1383,878.5) translate(122.50000000000001 17.1)"/></g><path d="M984 688h15.95v31.6H984z" fill="#fff" fill-opacity="0"/><g><use xlink:href="#R" transform="matrix(1,0,0,1,989,693) translate(0.02499999999999991 15.775)"/></g><path d="M1318 960h420v392h-420z" fill="#c1e4f7"/><path d="M1318 960h420v392h-420zM1318 1000h420M1378 1000v352" stroke="#0c7cba" stroke-width="2" fill="none"/><g><use xlink:href="#N" transform="matrix(1,0,0,1,1328,960) translate(114.825 23.6)"/></g><g><use xlink:href="#f" transform="matrix(1,0,0,1,1383,1002.5) translate(0 17.1)"/><use xlink:href="#g" transform="matrix(1,0,0,1,1383,1002.5) translate(127.05000000000001 17.1)"/></g><g><use xlink:href="#h" transform="matrix(1,0,0,1,1383,1034.5) translate(0 17.1)"/><use xlink:href="#i" transform="matrix(1,0,0,1,1383,1034.5) translate(155.65 17.1)"/></g><g><use xlink:href="#b" transform="matrix(1,0,0,1,1323,1066.5) translate(13 17.1)"/></g><g><use xlink:href="#j" transform="matrix(1,0,0,1,1383,1066.5) translate(0 17.1)"/><use xlink:href="#d" transform="matrix(1,0,0,1,1383,1066.5) translate(56.95 17.1)"/></g><g><use xlink:href="#k" transform="matrix(1,0,0,1,1323,1098.5) translate(13.524999999999999 17.1)"/></g><g><use xlink:href="#l" transform="matrix(1,0,0,1,1383,1098.5) translate(0 17.1)"/></g><g><use xlink:href="#m" transform="matrix(1,0,0,1,1383,1130.5) translate(0 17.1)"/><use xlink:href="#n" transform="matrix(1,0,0,1,1383,1130.5) translate(90.9 17.1)"/></g><g><use xlink:href="#o" transform="matrix(1,0,0,1,1383,1162.5) translate(0 17.1)"/><use xlink:href="#n" transform="matrix(1,0,0,1,1383,1162.5) translate(98.9 17.1)"/></g><g><use xlink:href="#p" transform="matrix(1,0,0,1,1383,1194.5) translate(0 17.1)"/><use xlink:href="#i" transform="matrix(1,0,0,1,1383,1194.5) translate(123.45000000000002 17.1)"/></g><g><use xlink:href="#q" transform="matrix(1,0,0,1,1383,1226.5) translate(0 17.1)"/><use xlink:href="#r" transform="matrix(1,0,0,1,1383,1226.5) translate(114.9 17.1)"/></g><g><use xlink:href="#S" transform="matrix(1,0,0,1,1383,1258.5) translate(0 17.1)"/><use xlink:href="#n" transform="matrix(1,0,0,1,1383,1258.5) translate(69.9 17.1)"/></g><g><use xlink:href="#v" transform="matrix(1,0,0,1,1383,1290.5) translate(0 17.1)"/><use xlink:href="#w" transform="matrix(1,0,0,1,1383,1290.5) translate(146.35000000000002 17.1)"/></g><g><use xlink:href="#T" transform="matrix(1,0,0,1,1383,1322.5) translate(0 17.1)"/><use xlink:href="#w" transform="matrix(1,0,0,1,1383,1322.5) translate(95.80000000000001 17.1)"/></g><path d="M602 316h138v255.87h18" stroke="#000" stroke-width="2" fill="none"/><path d="M602 326v-20M582 316h20M796.55 581.87l-20-10 20-10M796.55 571.87h-20M776.55 571.87c0 5.52-4.47 10-10 10-5.52 0-10-4.48-10-10 0-5.53 4.48-10 10-10 5.53 0 10 4.47 10 10" stroke="#000" stroke-width="2" fill="#fff"/><path d="M602 316h138v655.56h18" stroke="#000" stroke-width="2" fill="none"/><path d="M602 326v-20M582 316h20M796.55 981.56l-20-10 20-10M796.55 971.56h-20M776.55 971.56c0 5.52-4.47 10-10 10-5.52 0-10-4.48-10-10s4.48-10 10-10c5.53 0 10 4.48 10 10" stroke="#000" stroke-width="2" fill="#fff"/><path d="M602 316h138v1195.64h18" stroke="#000" stroke-width="2" fill="none"/><path d="M602 326v-20M582 316h20M796.55 1521.64l-20-10 20-10M796.55 1511.64h-20M776.55 1511.64c0 5.52-4.47 10-10 10-5.52 0-10-4.48-10-10s4.48-10 10-10c5.53 0 10 4.48 10 10" stroke="#000" stroke-width="2" fill="#fff"/><path d="M602 316h658v795.8h18" stroke="#000" stroke-width="2" fill="none"/><path d="M602 326v-20M582 316h20M1316.55 1121.8l-20-10 20-10M1316.55 1111.8h-20M1296.55 1111.8c0 5.5-4.47 10-10 10-5.52 0-10-4.5-10-10 0-5.53 4.48-10 10-10 5.53 0 10 4.47 10 10" stroke="#000" stroke-width="2" fill="#fff"/><defs><path d="M186 0v-106H76V0H24v-248h52v99h110v-99h50V0h-50" id="U"/><path d="M76-208v77h127v40H76V0H24v-248h183v40H76" id="V"/><path d="M176-78C186 10 51 31 16-35c-5-9-9-19-11-32l52-8c4 21 12 37 35 38 23 0 32-16 32-40v-130H75v-41h101v170" id="W"/><path d="M-4 44V30h207v14H-4" id="X"/><path d="M240-174c0 40-23 61-54 70L253 0h-59l-57-94H76V0H24v-248c93 4 217-23 216 74zM76-134c48-2 112 12 112-38 0-48-66-32-112-35v73" id="Y"/><path d="M24 0v-248h195v40H76v63h132v40H76v65h150V0H24" id="Z"/><path d="M169-182c-1-43-94-46-97-3 18 66 151 10 154 114 3 95-165 93-204 36-6-8-10-19-12-30l50-8c3 46 112 56 116 5-17-69-150-10-154-114-4-87 153-88 188-35 5 8 8 18 10 28" id="aa"/><path d="M140-251c80 0 125 45 125 126S219 4 139 4C58 4 15-44 15-125s44-126 125-126zm-1 214c52 0 73-35 73-88 0-50-21-86-72-86-52 0-73 35-73 86s22 88 72 88" id="ab"/><path d="M238-95c0 69-44 99-111 99C63 4 22-25 22-93v-155h51v151c-1 38 19 59 55 60 90 1 49-130 58-211h52v153" id="ac"/><path d="M67-125c0 53 21 87 73 88 37 1 54-22 65-47l45 17C233-25 199 4 140 4 58 4 20-42 15-125 8-235 124-281 211-232c18 10 29 29 36 50l-46 12c-8-25-30-41-62-41-52 0-71 34-72 86" id="ad"/><g id="a"><use transform="matrix(0.05,0,0,0.05,0,0)" xlink:href="#U"/><use transform="matrix(0.05,0,0,0.05,12.950000000000001,0)" xlink:href="#V"/><use transform="matrix(0.05,0,0,0.05,23.900000000000002,0)" xlink:href="#W"/><use transform="matrix(0.05,0,0,0.05,33.900000000000006,0)" xlink:href="#X"/><use transform="matrix(0.05,0,0,0.05,43.900000000000006,0)" xlink:href="#Y"/><use transform="matrix(0.05,0,0,0.05,56.85,0)" xlink:href="#Z"/><use transform="matrix(0.05,0,0,0.05,68.85000000000001,0)" xlink:href="#aa"/><use transform="matrix(0.05,0,0,0.05,80.85000000000001,0)" xlink:href="#ab"/><use transform="matrix(0.05,0,0,0.05,94.85000000000001,0)" xlink:href="#ac"/><use transform="matrix(0.05,0,0,0.05,107.80000000000001,0)" xlink:href="#Y"/><use transform="matrix(0.05,0,0,0.05,120.75,0)" xlink:href="#ad"/><use transform="matrix(0.05,0,0,0.05,133.70000000000002,0)" xlink:href="#Z"/></g><path d="M30-248c87 1 191-15 191 75 0 78-77 80-158 76V0H30v-248zm33 125c57 0 124 11 124-50 0-59-68-47-124-48v98" id="ae"/><path d="M194 0L95-120 63-95V0H30v-248h33v124l119-124h40L117-140 236 0h-42" id="af"/><g id="b"><use transform="matrix(0.05,0,0,0.05,0,0)" xlink:href="#ae"/><use transform="matrix(0.05,0,0,0.05,12,0)" xlink:href="#af"/></g><path d="M233-177c-1 41-23 64-60 70L243 0h-38l-65-103H63V0H30v-248c88 3 205-21 203 71zM63-129c60-2 137 13 137-47 0-61-80-42-137-45v92" id="ag"/><path d="M30 0v-248h187v28H63v79h144v27H63v87h162V0H30" id="ah"/><path d="M185-189c-5-48-123-54-124 2 14 75 158 14 163 119 3 78-121 87-175 55-17-10-28-26-33-46l33-7c5 56 141 63 141-1 0-78-155-14-162-118-5-82 145-84 179-34 5 7 8 16 11 25" id="ai"/><path d="M-5 72V49h209v23H-5" id="aj"/><path d="M33 0v-248h34V0H33" id="ak"/><path d="M30-248c118-7 216 8 213 122C240-48 200 0 122 0H30v-248zM63-27c89 8 146-16 146-99s-60-101-146-95v194" id="al"/><g id="c"><use transform="matrix(0.05,0,0,0.05,0,0)" xlink:href="#ag"/><use transform="matrix(0.05,0,0,0.05,12.950000000000001,0)" xlink:href="#ah"/><use transform="matrix(0.05,0,0,0.05,24.950000000000003,0)" xlink:href="#ai"/><use transform="matrix(0.05,0,0,0.05,36.95,0)" xlink:href="#aj"/><use transform="matrix(0.05,0,0,0.05,46.95,0)" xlink:href="#ak"/><use transform="matrix(0.05,0,0,0.05,51.95,0)" xlink:href="#al"/></g><path d="M87 75C49 33 22-17 22-94c0-76 28-126 65-167h31c-38 41-64 92-64 168S80 34 118 75H87" id="am"/><path d="M30 0v-248h33v221h125V0H30" id="an"/><path d="M100-194c62-1 85 37 85 99 1 63-27 99-86 99S16-35 15-95c0-66 28-99 85-99zM99-20c44 1 53-31 53-75 0-43-8-75-51-75s-53 32-53 75 10 74 51 75" id="ao"/><path d="M117-194c89-4 53 116 60 194h-32v-121c0-31-8-49-39-48C34-167 62-67 57 0H25l-1-190h30c1 10-1 24 2 32 11-22 29-35 61-36" id="ap"/><path d="M177-190C167-65 218 103 67 71c-23-6-38-20-44-43l32-5c15 47 100 32 89-28v-30C133-14 115 1 83 1 29 1 15-40 15-95c0-56 16-97 71-98 29-1 48 16 59 35 1-10 0-23 2-32h30zM94-22c36 0 50-32 50-73 0-42-14-75-50-75-39 0-46 34-46 75s6 73 46 73" id="aq"/><path d="M33-261c38 41 65 92 65 168S71 34 33 75H2C39 34 66-17 66-93S39-220 2-261h31" id="ar"/><g id="d"><use transform="matrix(0.05,0,0,0.05,0,0)" xlink:href="#am"/><use transform="matrix(0.05,0,0,0.05,5.95,0)" xlink:href="#an"/><use transform="matrix(0.05,0,0,0.05,15.949999999999998,0)" xlink:href="#ao"/><use transform="matrix(0.05,0,0,0.05,25.950000000000003,0)" xlink:href="#ap"/><use transform="matrix(0.05,0,0,0.05,35.95,0)" xlink:href="#aq"/><use transform="matrix(0.05,0,0,0.05,45.95,0)" xlink:href="#ar"/></g><path d="M24-248c93 1 206-16 204 79-1 75-69 88-152 82V0H24v-248zm52 121c47 0 100 7 100-41 0-47-54-39-100-39v80" id="as"/><path d="M24 0v-248h52V0H24" id="at"/><path d="M24-248c120-7 223 5 221 122C244-46 201 0 124 0H24v-248zM76-40c74 7 117-18 117-86 0-67-45-88-117-82v168" id="au"/><path d="M182 0l-62-99L58 0H3l86-130-79-118h55l55 88 55-88h55l-75 118L237 0h-55" id="av"/><g id="e"><use transform="matrix(0.05,0,0,0.05,0,0)" xlink:href="#U"/><use transform="matrix(0.05,0,0,0.05,12.950000000000001,0)" xlink:href="#V"/><use transform="matrix(0.05,0,0,0.05,23.900000000000002,0)" xlink:href="#W"/><use transform="matrix(0.05,0,0,0.05,33.900000000000006,0)" xlink:href="#X"/><use transform="matrix(0.05,0,0,0.05,43.900000000000006,0)" xlink:href="#aa"/><use transform="matrix(0.05,0,0,0.05,55.900000000000006,0)" xlink:href="#as"/><use transform="matrix(0.05,0,0,0.05,67.9,0)" xlink:href="#at"/><use transform="matrix(0.05,0,0,0.05,72.9,0)" xlink:href="#au"/><use transform="matrix(0.05,0,0,0.05,85.85000000000001,0)" xlink:href="#av"/><use transform="matrix(0.05,0,0,0.05,97.85000000000001,0)" xlink:href="#X"/><use transform="matrix(0.05,0,0,0.05,107.85000000000001,0)" xlink:href="#ad"/><use transform="matrix(0.05,0,0,0.05,120.80000000000001,0)" xlink:href="#ab"/><use transform="matrix(0.05,0,0,0.05,134.8,0)" xlink:href="#ab"/><use transform="matrix(0.05,0,0,0.05,148.8,0)" xlink:href="#Y"/><use transform="matrix(0.05,0,0,0.05,161.75,0)" xlink:href="#au"/><use transform="matrix(0.05,0,0,0.05,174.7,0)" xlink:href="#aa"/></g><path d="M205 0l-28-72H64L36 0H1l101-248h38L239 0h-34zm-38-99l-47-123c-12 45-31 82-46 123h93" id="aw"/><path d="M127-220V0H93v-220H8v-28h204v28h-85" id="ax"/><path d="M140-251c81 0 123 46 123 126C263-46 219 4 140 4 59 4 17-45 17-125s42-126 123-126zm0 227c63 0 89-41 89-101s-29-99-89-99c-61 0-89 39-89 99S79-25 140-24" id="ay"/><path d="M190 0L58-211 59 0H30v-248h39L202-35l-2-213h31V0h-41" id="az"/><g id="f"><use transform="matrix(0.05,0,0,0.05,0,0)" xlink:href="#ae"/><use transform="matrix(0.05,0,0,0.05,10.65,0)" xlink:href="#aw"/><use transform="matrix(0.05,0,0,0.05,22.65,0)" xlink:href="#ag"/><use transform="matrix(0.05,0,0,0.05,35.25,0)" xlink:href="#ax"/><use transform="matrix(0.05,0,0,0.05,46.2,0)" xlink:href="#ak"/><use transform="matrix(0.05,0,0,0.05,51.2,0)" xlink:href="#ax"/><use transform="matrix(0.05,0,0,0.05,62.150000000000006,0)" xlink:href="#ak"/><use transform="matrix(0.05,0,0,0.05,67.15,0)" xlink:href="#ay"/><use transform="matrix(0.05,0,0,0.05,81.15,0)" xlink:href="#az"/><use transform="matrix(0.05,0,0,0.05,94.10000000000001,0)" xlink:href="#aj"/><use transform="matrix(0.05,0,0,0.05,104.10000000000001,0)" xlink:href="#ak"/><use transform="matrix(0.05,0,0,0.05,109.10000000000001,0)" xlink:href="#al"/></g><path d="M59-47c-2 24 18 29 38 22v24C64 9 27 4 27-40v-127H5v-23h24l9-43h21v43h35v23H59v120" id="aA"/><path d="M100-194c63 0 86 42 84 106H49c0 40 14 67 53 68 26 1 43-12 49-29l28 8c-11 28-37 45-77 45C44 4 14-33 15-96c1-61 26-98 85-98zm52 81c6-60-76-77-97-28-3 7-6 17-6 28h103" id="aB"/><path d="M114-163C36-179 61-72 57 0H25l-1-190h30c1 12-1 29 2 39 6-27 23-49 58-41v29" id="aC"/><g id="g"><use transform="matrix(0.05,0,0,0.05,0,0)" xlink:href="#am"/><use transform="matrix(0.05,0,0,0.05,5.95,0)" xlink:href="#ak"/><use transform="matrix(0.05,0,0,0.05,10.95,0)" xlink:href="#ap"/><use transform="matrix(0.05,0,0,0.05,20.95,0)" xlink:href="#aA"/><use transform="matrix(0.05,0,0,0.05,25.950000000000003,0)" xlink:href="#aB"/><use transform="matrix(0.05,0,0,0.05,35.95,0)" xlink:href="#aq"/><use transform="matrix(0.05,0,0,0.05,45.95,0)" xlink:href="#aB"/><use transform="matrix(0.05,0,0,0.05,55.95,0)" xlink:href="#aC"/><use transform="matrix(0.05,0,0,0.05,61.900000000000006,0)" xlink:href="#ar"/></g><g id="h"><use transform="matrix(0.05,0,0,0.05,0,0)" xlink:href="#ae"/><use transform="matrix(0.05,0,0,0.05,10.65,0)" xlink:href="#aw"/><use transform="matrix(0.05,0,0,0.05,22.65,0)" xlink:href="#ag"/><use transform="matrix(0.05,0,0,0.05,35.25,0)" xlink:href="#ax"/><use transform="matrix(0.05,0,0,0.05,46.2,0)" xlink:href="#ak"/><use transform="matrix(0.05,0,0,0.05,51.2,0)" xlink:href="#ax"/><use transform="matrix(0.05,0,0,0.05,62.150000000000006,0)" xlink:href="#ak"/><use transform="matrix(0.05,0,0,0.05,67.15,0)" xlink:href="#ay"/><use transform="matrix(0.05,0,0,0.05,81.15,0)" xlink:href="#az"/><use transform="matrix(0.05,0,0,0.05,94.10000000000001,0)" xlink:href="#aj"/><use transform="matrix(0.05,0,0,0.05,104.10000000000001,0)" xlink:href="#al"/><use transform="matrix(0.05,0,0,0.05,117.05000000000001,0)" xlink:href="#aw"/><use transform="matrix(0.05,0,0,0.05,127.7,0)" xlink:href="#ax"/><use transform="matrix(0.05,0,0,0.05,138.65,0)" xlink:href="#ah"/></g><path d="M24-231v-30h32v30H24zM24 0v-190h32V0H24" id="aD"/><path d="M210-169c-67 3-38 105-44 169h-31v-121c0-29-5-50-35-48C34-165 62-65 56 0H25l-1-190h30c1 10-1 24 2 32 10-44 99-50 107 0 11-21 27-35 58-36 85-2 47 119 55 194h-31v-121c0-29-5-49-35-48" id="aE"/><path d="M135-143c-3-34-86-38-87 0 15 53 115 12 119 90S17 21 10-45l28-5c4 36 97 45 98 0-10-56-113-15-118-90-4-57 82-63 122-42 12 7 21 19 24 35" id="aF"/><path d="M141-36C126-15 110 5 73 4 37 3 15-17 15-53c-1-64 63-63 125-63 3-35-9-54-41-54-24 1-41 7-42 31l-33-3c5-37 33-52 76-52 45 0 72 20 72 64v82c-1 20 7 32 28 27v20c-31 9-61-2-59-35zM48-53c0 20 12 33 32 33 41-3 63-29 60-74-43 2-92-5-92 41" id="aG"/><path d="M115-194c55 1 70 41 70 98S169 2 115 4C84 4 66-9 55-30l1 105H24l-1-265h31l2 30c10-21 28-34 59-34zm-8 174c40 0 45-34 45-75s-6-73-45-74c-42 0-51 32-51 76 0 43 10 73 51 73" id="aH"/><g id="i"><use transform="matrix(0.05,0,0,0.05,0,0)" xlink:href="#am"/><use transform="matrix(0.05,0,0,0.05,5.95,0)" xlink:href="#ax"/><use transform="matrix(0.05,0,0,0.05,16.25,0)" xlink:href="#aD"/><use transform="matrix(0.05,0,0,0.05,20.2,0)" xlink:href="#aE"/><use transform="matrix(0.05,0,0,0.05,35.15,0)" xlink:href="#aB"/><use transform="matrix(0.05,0,0,0.05,45.15,0)" xlink:href="#aF"/><use transform="matrix(0.05,0,0,0.05,54.150000000000006,0)" xlink:href="#aA"/><use transform="matrix(0.05,0,0,0.05,59.150000000000006,0)" xlink:href="#aG"/><use transform="matrix(0.05,0,0,0.05,69.15,0)" xlink:href="#aE"/><use transform="matrix(0.05,0,0,0.05,84.10000000000001,0)" xlink:href="#aH"/><use transform="matrix(0.05,0,0,0.05,94.10000000000001,0)" xlink:href="#ar"/></g><g id="j"><use transform="matrix(0.05,0,0,0.05,0,0)" xlink:href="#ai"/><use transform="matrix(0.05,0,0,0.05,12,0)" xlink:href="#ae"/><use transform="matrix(0.05,0,0,0.05,24,0)" xlink:href="#aj"/><use transform="matrix(0.05,0,0,0.05,34,0)" xlink:href="#ak"/><use transform="matrix(0.05,0,0,0.05,39,0)" xlink:href="#al"/></g><path d="M63-220v92h138v28H63V0H30v-248h175v28H63" id="aI"/><g id="k"><use transform="matrix(0.05,0,0,0.05,0,0)" xlink:href="#aI"/><use transform="matrix(0.05,0,0,0.05,10.950000000000001,0)" xlink:href="#af"/></g><g id="l"><use transform="matrix(0.05,0,0,0.05,0,0)" xlink:href="#ag"/><use transform="matrix(0.05,0,0,0.05,12.950000000000001,0)" xlink:href="#ah"/><use transform="matrix(0.05,0,0,0.05,24.950000000000003,0)" xlink:href="#ai"/><use transform="matrix(0.05,0,0,0.05,36.95,0)" xlink:href="#aj"/><use transform="matrix(0.05,0,0,0.05,46.95,0)" xlink:href="#ak"/><use transform="matrix(0.05,0,0,0.05,51.95,0)" xlink:href="#al"/></g><path d="M240 0l2-218c-23 76-54 145-80 218h-23L58-218 59 0H30v-248h44l77 211c21-75 51-140 76-211h43V0h-30" id="aJ"/><g id="m"><use transform="matrix(0.05,0,0,0.05,0,0)" xlink:href="#ai"/><use transform="matrix(0.05,0,0,0.05,12,0)" xlink:href="#ae"/><use transform="matrix(0.05,0,0,0.05,24,0)" xlink:href="#aj"/><use transform="matrix(0.05,0,0,0.05,34,0)" xlink:href="#az"/><use transform="matrix(0.05,0,0,0.05,46.95,0)" xlink:href="#aw"/><use transform="matrix(0.05,0,0,0.05,58.95,0)" xlink:href="#aJ"/><use transform="matrix(0.05,0,0,0.05,73.9,0)" xlink:href="#ah"/></g><g id="n"><use transform="matrix(0.05,0,0,0.05,0,0)" xlink:href="#am"/><use transform="matrix(0.05,0,0,0.05,5.95,0)" xlink:href="#ai"/><use transform="matrix(0.05,0,0,0.05,17.95,0)" xlink:href="#aA"/><use transform="matrix(0.05,0,0,0.05,22.95,0)" xlink:href="#aC"/><use transform="matrix(0.05,0,0,0.05,28.899999999999995,0)" xlink:href="#aD"/><use transform="matrix(0.05,0,0,0.05,32.85,0)" xlink:href="#ap"/><use transform="matrix(0.05,0,0,0.05,42.85,0)" xlink:href="#aq"/><use transform="matrix(0.05,0,0,0.05,52.85,0)" xlink:href="#ar"/></g><path d="M137-103V0h-34v-103L8-248h37l75 118 75-118h37" id="aK"/><g id="o"><use transform="matrix(0.05,0,0,0.05,0,0)" xlink:href="#ag"/><use transform="matrix(0.05,0,0,0.05,12.950000000000001,0)" xlink:href="#ah"/><use transform="matrix(0.05,0,0,0.05,24.950000000000003,0)" xlink:href="#ai"/><use transform="matrix(0.05,0,0,0.05,36.95,0)" xlink:href="#aj"/><use transform="matrix(0.05,0,0,0.05,46.95,0)" xlink:href="#ax"/><use transform="matrix(0.05,0,0,0.05,57.900000000000006,0)" xlink:href="#aK"/><use transform="matrix(0.05,0,0,0.05,69.9,0)" xlink:href="#ae"/><use transform="matrix(0.05,0,0,0.05,81.9,0)" xlink:href="#ah"/></g><path d="M232-93c-1 65-40 97-104 97C67 4 28-28 28-90v-158h33c8 89-33 224 67 224 102 0 64-133 71-224h33v155" id="aL"/><g id="p"><use transform="matrix(0.05,0,0,0.05,0,0)" xlink:href="#ai"/><use transform="matrix(0.05,0,0,0.05,12,0)" xlink:href="#ae"/><use transform="matrix(0.05,0,0,0.05,24,0)" xlink:href="#aj"/><use transform="matrix(0.05,0,0,0.05,34,0)" xlink:href="#aL"/><use transform="matrix(0.05,0,0,0.05,46.95,0)" xlink:href="#ae"/><use transform="matrix(0.05,0,0,0.05,58.95,0)" xlink:href="#al"/><use transform="matrix(0.05,0,0,0.05,71.9,0)" xlink:href="#aw"/><use transform="matrix(0.05,0,0,0.05,82.55000000000001,0)" xlink:href="#ax"/><use transform="matrix(0.05,0,0,0.05,93.50000000000001,0)" xlink:href="#ah"/><use transform="matrix(0.05,0,0,0.05,105.5,0)" xlink:href="#al"/></g><path d="M143 4C61 4 22-44 18-125c-5-107 100-154 193-111 17 8 29 25 37 43l-32 9c-13-25-37-40-76-40-61 0-88 39-88 99 0 61 29 100 91 101 35 0 62-11 79-27v-45h-74v-28h105v86C228-13 192 4 143 4" id="aM"/><g id="q"><use transform="matrix(0.05,0,0,0.05,0,0)" xlink:href="#ai"/><use transform="matrix(0.05,0,0,0.05,12,0)" xlink:href="#ae"/><use transform="matrix(0.05,0,0,0.05,24,0)" xlink:href="#aj"/><use transform="matrix(0.05,0,0,0.05,34,0)" xlink:href="#aJ"/><use transform="matrix(0.05,0,0,0.05,48.95,0)" xlink:href="#ak"/><use transform="matrix(0.05,0,0,0.05,53.95,0)" xlink:href="#ai"/><use transform="matrix(0.05,0,0,0.05,65.95,0)" xlink:href="#ai"/><use transform="matrix(0.05,0,0,0.05,77.95,0)" xlink:href="#ak"/><use transform="matrix(0.05,0,0,0.05,82.95,0)" xlink:href="#az"/><use transform="matrix(0.05,0,0,0.05,95.9,0)" xlink:href="#aM"/></g><path d="M160-131c35 5 61 23 61 61C221 17 115-2 30 0v-248c76 3 177-17 177 60 0 33-19 50-47 57zm-97-11c50-1 110 9 110-42 0-47-63-36-110-37v79zm0 115c55-2 124 14 124-45 0-56-70-42-124-44v89" id="aN"/><path d="M24 0v-261h32V0H24" id="aO"/><g id="r"><use transform="matrix(0.05,0,0,0.05,0,0)" xlink:href="#am"/><use transform="matrix(0.05,0,0,0.05,5.95,0)" xlink:href="#aN"/><use transform="matrix(0.05,0,0,0.05,17.95,0)" xlink:href="#ao"/><use transform="matrix(0.05,0,0,0.05,27.950000000000003,0)" xlink:href="#ao"/><use transform="matrix(0.05,0,0,0.05,37.95,0)" xlink:href="#aO"/><use transform="matrix(0.05,0,0,0.05,41.900000000000006,0)" xlink:href="#aB"/><use transform="matrix(0.05,0,0,0.05,51.900000000000006,0)" xlink:href="#aG"/><use transform="matrix(0.05,0,0,0.05,61.900000000000006,0)" xlink:href="#ap"/><use transform="matrix(0.05,0,0,0.05,71.9,0)" xlink:href="#ar"/></g><g id="s"><use transform="matrix(0.05,0,0,0.05,0,0)" xlink:href="#ai"/><use transform="matrix(0.05,0,0,0.05,12,0)" xlink:href="#ae"/><use transform="matrix(0.05,0,0,0.05,24,0)" xlink:href="#aj"/><use transform="matrix(0.05,0,0,0.05,34,0)" xlink:href="#an"/><use transform="matrix(0.05,0,0,0.05,44,0)" xlink:href="#aw"/><use transform="matrix(0.05,0,0,0.05,54.650000000000006,0)" xlink:href="#ax"/><use transform="matrix(0.05,0,0,0.05,65.6,0)" xlink:href="#ak"/><use transform="matrix(0.05,0,0,0.05,70.6,0)" xlink:href="#ax"/><use transform="matrix(0.05,0,0,0.05,81.55,0)" xlink:href="#aL"/><use transform="matrix(0.05,0,0,0.05,94.5,0)" xlink:href="#al"/><use transform="matrix(0.05,0,0,0.05,107.45,0)" xlink:href="#ah"/></g><path d="M84 4C-5 8 30-112 23-190h32v120c0 31 7 50 39 49 72-2 45-101 50-169h31l1 190h-30c-1-10 1-25-2-33-11 22-28 36-60 37" id="aP"/><path d="M115-194c53 0 69 39 70 98 0 66-23 100-70 100C84 3 66-7 56-30L54 0H23l1-261h32v101c10-23 28-34 59-34zm-8 174c40 0 45-34 45-75 0-40-5-75-45-74-42 0-51 32-51 76 0 43 10 73 51 73" id="aQ"/><g id="t"><use transform="matrix(0.05,0,0,0.05,0,0)" xlink:href="#am"/><use transform="matrix(0.05,0,0,0.05,5.95,0)" xlink:href="#al"/><use transform="matrix(0.05,0,0,0.05,18.900000000000002,0)" xlink:href="#ao"/><use transform="matrix(0.05,0,0,0.05,28.900000000000002,0)" xlink:href="#aP"/><use transform="matrix(0.05,0,0,0.05,38.900000000000006,0)" xlink:href="#aQ"/><use transform="matrix(0.05,0,0,0.05,48.900000000000006,0)" xlink:href="#aO"/><use transform="matrix(0.05,0,0,0.05,52.85,0)" xlink:href="#aB"/><use transform="matrix(0.05,0,0,0.05,62.85,0)" xlink:href="#ar"/></g><g id="u"><use transform="matrix(0.05,0,0,0.05,0,0)" xlink:href="#ai"/><use transform="matrix(0.05,0,0,0.05,12,0)" xlink:href="#ae"/><use transform="matrix(0.05,0,0,0.05,24,0)" xlink:href="#aj"/><use transform="matrix(0.05,0,0,0.05,34,0)" xlink:href="#an"/><use transform="matrix(0.05,0,0,0.05,44,0)" xlink:href="#ay"/><use transform="matrix(0.05,0,0,0.05,58,0)" xlink:href="#az"/><use transform="matrix(0.05,0,0,0.05,70.95,0)" xlink:href="#aM"/><use transform="matrix(0.05,0,0,0.05,84.95,0)" xlink:href="#ak"/><use transform="matrix(0.05,0,0,0.05,89.95,0)" xlink:href="#ax"/><use transform="matrix(0.05,0,0,0.05,100.9,0)" xlink:href="#aL"/><use transform="matrix(0.05,0,0,0.05,113.85000000000001,0)" xlink:href="#al"/><use transform="matrix(0.05,0,0,0.05,126.80000000000001,0)" xlink:href="#ah"/></g><path d="M197 0v-115H63V0H30v-248h33v105h134v-105h34V0h-34" id="aR"/><g id="v"><use transform="matrix(0.05,0,0,0.05,0,0)" xlink:href="#aR"/><use transform="matrix(0.05,0,0,0.05,12.950000000000001,0)" xlink:href="#aw"/><use transform="matrix(0.05,0,0,0.05,24.950000000000003,0)" xlink:href="#ai"/><use transform="matrix(0.05,0,0,0.05,36.95,0)" xlink:href="#aR"/><use transform="matrix(0.05,0,0,0.05,49.900000000000006,0)" xlink:href="#aj"/><use transform="matrix(0.05,0,0,0.05,59.900000000000006,0)" xlink:href="#ak"/><use transform="matrix(0.05,0,0,0.05,64.9,0)" xlink:href="#al"/><use transform="matrix(0.05,0,0,0.05,77.85000000000001,0)" xlink:href="#ah"/><use transform="matrix(0.05,0,0,0.05,89.85000000000001,0)" xlink:href="#az"/><use transform="matrix(0.05,0,0,0.05,102.80000000000001,0)" xlink:href="#ax"/><use transform="matrix(0.05,0,0,0.05,113.75,0)" xlink:href="#ak"/><use transform="matrix(0.05,0,0,0.05,118.75,0)" xlink:href="#ax"/><use transform="matrix(0.05,0,0,0.05,129.70000000000002,0)" xlink:href="#aK"/></g><g id="w"><use transform="matrix(0.05,0,0,0.05,0,0)" xlink:href="#am"/><use transform="matrix(0.05,0,0,0.05,5.95,0)" xlink:href="#an"/><use transform="matrix(0.05,0,0,0.05,15.949999999999998,0)" xlink:href="#ao"/><use transform="matrix(0.05,0,0,0.05,25.950000000000003,0)" xlink:href="#ap"/><use transform="matrix(0.05,0,0,0.05,35.95,0)" xlink:href="#aq"/><use transform="matrix(0.05,0,0,0.05,45.95,0)" xlink:href="#ar"/></g><path d="M199 0l-22-63H83L61 0H9l90-248h61L250 0h-51zm-33-102l-36-108c-10 38-24 72-36 108h72" id="aS"/><path d="M136-208V0H84v-208H4v-40h212v40h-80" id="aT"/><g id="x"><use transform="matrix(0.05,0,0,0.05,0,0)" xlink:href="#U"/><use transform="matrix(0.05,0,0,0.05,12.950000000000001,0)" xlink:href="#V"/><use transform="matrix(0.05,0,0,0.05,23.900000000000002,0)" xlink:href="#W"/><use transform="matrix(0.05,0,0,0.05,33.900000000000006,0)" xlink:href="#X"/><use transform="matrix(0.05,0,0,0.05,43.900000000000006,0)" xlink:href="#aa"/><use transform="matrix(0.05,0,0,0.05,55.900000000000006,0)" xlink:href="#as"/><use transform="matrix(0.05,0,0,0.05,67.9,0)" xlink:href="#at"/><use transform="matrix(0.05,0,0,0.05,72.9,0)" xlink:href="#au"/><use transform="matrix(0.05,0,0,0.05,85.85000000000001,0)" xlink:href="#av"/><use transform="matrix(0.05,0,0,0.05,97.85000000000001,0)" xlink:href="#X"/><use transform="matrix(0.05,0,0,0.05,107.85000000000001,0)" xlink:href="#au"/><use transform="matrix(0.05,0,0,0.05,120.80000000000001,0)" xlink:href="#aS"/><use transform="matrix(0.05,0,0,0.05,132.4,0)" xlink:href="#aT"/><use transform="matrix(0.05,0,0,0.05,143.35,0)" xlink:href="#Z"/></g><path d="M137 0h-34L2-248h35l83 218 83-218h36" id="aU"/><g id="y"><use transform="matrix(0.05,0,0,0.05,0,0)" xlink:href="#ai"/><use transform="matrix(0.05,0,0,0.05,12,0)" xlink:href="#ae"/><use transform="matrix(0.05,0,0,0.05,24,0)" xlink:href="#aj"/><use transform="matrix(0.05,0,0,0.05,34,0)" xlink:href="#aU"/><use transform="matrix(0.05,0,0,0.05,44.65,0)" xlink:href="#aw"/><use transform="matrix(0.05,0,0,0.05,56.650000000000006,0)" xlink:href="#an"/><use transform="matrix(0.05,0,0,0.05,66.65,0)" xlink:href="#aL"/><use transform="matrix(0.05,0,0,0.05,79.60000000000001,0)" xlink:href="#ah"/><use transform="matrix(0.05,0,0,0.05,91.60000000000001,0)" xlink:href="#aj"/><use transform="matrix(0.05,0,0,0.05,101.60000000000001,0)" xlink:href="#aR"/><use transform="matrix(0.05,0,0,0.05,114.55000000000001,0)" xlink:href="#ak"/><use transform="matrix(0.05,0,0,0.05,119.55000000000001,0)" xlink:href="#aM"/><use transform="matrix(0.05,0,0,0.05,133.55,0)" xlink:href="#aR"/></g><path d="M266 0h-40l-56-210L115 0H75L2-248h35L96-30l15-64 43-154h32l59 218 59-218h35" id="aV"/><g id="z"><use transform="matrix(0.05,0,0,0.05,0,0)" xlink:href="#ai"/><use transform="matrix(0.05,0,0,0.05,12,0)" xlink:href="#ae"/><use transform="matrix(0.05,0,0,0.05,24,0)" xlink:href="#aj"/><use transform="matrix(0.05,0,0,0.05,34,0)" xlink:href="#aU"/><use transform="matrix(0.05,0,0,0.05,44.65,0)" xlink:href="#aw"/><use transform="matrix(0.05,0,0,0.05,56.650000000000006,0)" xlink:href="#an"/><use transform="matrix(0.05,0,0,0.05,66.65,0)" xlink:href="#aL"/><use transform="matrix(0.05,0,0,0.05,79.60000000000001,0)" xlink:href="#ah"/><use transform="matrix(0.05,0,0,0.05,91.60000000000001,0)" xlink:href="#aj"/><use transform="matrix(0.05,0,0,0.05,101.60000000000001,0)" xlink:href="#an"/><use transform="matrix(0.05,0,0,0.05,111.60000000000001,0)" xlink:href="#ay"/><use transform="matrix(0.05,0,0,0.05,125.60000000000001,0)" xlink:href="#aV"/></g><path d="M175 0L67-191c6 58 2 128 3 191H24v-248h59L193-55c-6-58-2-129-3-193h46V0h-61" id="aW"/><path d="M230 0l2-204L168 0h-37L68-204 70 0H24v-248h70l56 185 57-185h69V0h-46" id="aX"/><path d="M182-130c37 4 62 22 62 59C244 23 116-4 24 0v-248c84 5 203-23 205 63 0 31-19 50-47 55zM76-148c40-3 101 13 101-30 0-44-60-28-101-31v61zm0 110c48-3 116 14 116-37 0-48-69-32-116-35v72" id="aY"/><g id="A"><use transform="matrix(0.05,0,0,0.05,0,0)" xlink:href="#U"/><use transform="matrix(0.05,0,0,0.05,12.950000000000001,0)" xlink:href="#V"/><use transform="matrix(0.05,0,0,0.05,23.900000000000002,0)" xlink:href="#W"/><use transform="matrix(0.05,0,0,0.05,33.900000000000006,0)" xlink:href="#X"/><use transform="matrix(0.05,0,0,0.05,43.900000000000006,0)" xlink:href="#aa"/><use transform="matrix(0.05,0,0,0.05,55.900000000000006,0)" xlink:href="#as"/><use transform="matrix(0.05,0,0,0.05,67.9,0)" xlink:href="#at"/><use transform="matrix(0.05,0,0,0.05,72.9,0)" xlink:href="#au"/><use transform="matrix(0.05,0,0,0.05,85.85000000000001,0)" xlink:href="#av"/><use transform="matrix(0.05,0,0,0.05,97.85000000000001,0)" xlink:href="#X"/><use transform="matrix(0.05,0,0,0.05,107.85000000000001,0)" xlink:href="#aW"/><use transform="matrix(0.05,0,0,0.05,120.80000000000001,0)" xlink:href="#ac"/><use transform="matrix(0.05,0,0,0.05,133.75,0)" xlink:href="#aX"/><use transform="matrix(0.05,0,0,0.05,148.7,0)" xlink:href="#aY"/><use transform="matrix(0.05,0,0,0.05,161.64999999999998,0)" xlink:href="#Z"/><use transform="matrix(0.05,0,0,0.05,173.64999999999998,0)" xlink:href="#Y"/></g><g id="B"><use transform="matrix(0.05,0,0,0.05,0,0)" xlink:href="#ai"/><use transform="matrix(0.05,0,0,0.05,12,0)" xlink:href="#ae"/><use transform="matrix(0.05,0,0,0.05,24,0)" xlink:href="#aj"/><use transform="matrix(0.05,0,0,0.05,34,0)" xlink:href="#aU"/><use transform="matrix(0.05,0,0,0.05,44.65,0)" xlink:href="#aw"/><use transform="matrix(0.05,0,0,0.05,56.650000000000006,0)" xlink:href="#an"/><use transform="matrix(0.05,0,0,0.05,66.65,0)" xlink:href="#aL"/><use transform="matrix(0.05,0,0,0.05,79.60000000000001,0)" xlink:href="#ah"/></g><path d="M96-169c-40 0-48 33-48 73s9 75 48 75c24 0 41-14 43-38l32 2c-6 37-31 61-74 61-59 0-76-41-82-99-10-93 101-131 147-64 4 7 5 14 7 22l-32 3c-4-21-16-35-41-35" id="aZ"/><g id="C"><use transform="matrix(0.05,0,0,0.05,0,0)" xlink:href="#am"/><use transform="matrix(0.05,0,0,0.05,5.95,0)" xlink:href="#aN"/><use transform="matrix(0.05,0,0,0.05,17.95,0)" xlink:href="#aD"/><use transform="matrix(0.05,0,0,0.05,21.9,0)" xlink:href="#aq"/><use transform="matrix(0.05,0,0,0.05,31.899999999999995,0)" xlink:href="#al"/><use transform="matrix(0.05,0,0,0.05,44.85,0)" xlink:href="#aB"/><use transform="matrix(0.05,0,0,0.05,54.85,0)" xlink:href="#aZ"/><use transform="matrix(0.05,0,0,0.05,63.85,0)" xlink:href="#aD"/><use transform="matrix(0.05,0,0,0.05,67.8,0)" xlink:href="#aE"/><use transform="matrix(0.05,0,0,0.05,82.75,0)" xlink:href="#aG"/><use transform="matrix(0.05,0,0,0.05,92.75,0)" xlink:href="#aO"/><use transform="matrix(0.05,0,0,0.05,96.7,0)" xlink:href="#ar"/></g><path d="M140-251c80 0 125 45 125 126 0 70-33 111-92 124 6 28 34 38 68 31l-1 36C177 83 129 55 120 2 51-6 15-50 15-125c0-81 44-126 125-126zm-1 214c52 0 73-35 73-88 0-50-21-86-72-86-52 0-73 35-73 86s22 88 72 88" id="ba"/><path d="M146-102V0H94v-102L6-248h54l60 105 60-105h54" id="bb"/><g id="D"><use transform="matrix(0.05,0,0,0.05,0,0)" xlink:href="#U"/><use transform="matrix(0.05,0,0,0.05,12.950000000000001,0)" xlink:href="#V"/><use transform="matrix(0.05,0,0,0.05,23.900000000000002,0)" xlink:href="#W"/><use transform="matrix(0.05,0,0,0.05,33.900000000000006,0)" xlink:href="#X"/><use transform="matrix(0.05,0,0,0.05,43.900000000000006,0)" xlink:href="#aa"/><use transform="matrix(0.05,0,0,0.05,55.900000000000006,0)" xlink:href="#as"/><use transform="matrix(0.05,0,0,0.05,67.9,0)" xlink:href="#at"/><use transform="matrix(0.05,0,0,0.05,72.9,0)" xlink:href="#au"/><use transform="matrix(0.05,0,0,0.05,85.85000000000001,0)" xlink:href="#av"/><use transform="matrix(0.05,0,0,0.05,97.85000000000001,0)" xlink:href="#X"/><use transform="matrix(0.05,0,0,0.05,107.85000000000001,0)" xlink:href="#ba"/><use transform="matrix(0.05,0,0,0.05,121.85000000000001,0)" xlink:href="#ac"/><use transform="matrix(0.05,0,0,0.05,134.8,0)" xlink:href="#aS"/><use transform="matrix(0.05,0,0,0.05,147.75,0)" xlink:href="#aW"/><use transform="matrix(0.05,0,0,0.05,160.7,0)" xlink:href="#aT"/><use transform="matrix(0.05,0,0,0.05,171.64999999999998,0)" xlink:href="#at"/><use transform="matrix(0.05,0,0,0.05,176.64999999999998,0)" xlink:href="#aT"/><use transform="matrix(0.05,0,0,0.05,187.59999999999997,0)" xlink:href="#bb"/></g><g id="E"><use transform="matrix(0.05,0,0,0.05,0,0)" xlink:href="#ai"/><use transform="matrix(0.05,0,0,0.05,12,0)" xlink:href="#ae"/><use transform="matrix(0.05,0,0,0.05,24,0)" xlink:href="#aj"/><use transform="matrix(0.05,0,0,0.05,34,0)" xlink:href="#ai"/><use transform="matrix(0.05,0,0,0.05,46,0)" xlink:href="#aK"/><use transform="matrix(0.05,0,0,0.05,58,0)" xlink:href="#ai"/><use transform="matrix(0.05,0,0,0.05,70,0)" xlink:href="#ax"/><use transform="matrix(0.05,0,0,0.05,80.95,0)" xlink:href="#ah"/><use transform="matrix(0.05,0,0,0.05,92.95,0)" xlink:href="#aJ"/></g><g id="F"><use transform="matrix(0.05,0,0,0.05,0,0)" xlink:href="#ai"/><use transform="matrix(0.05,0,0,0.05,12,0)" xlink:href="#ae"/><use transform="matrix(0.05,0,0,0.05,24,0)" xlink:href="#aj"/><use transform="matrix(0.05,0,0,0.05,34,0)" xlink:href="#aL"/><use transform="matrix(0.05,0,0,0.05,46.95,0)" xlink:href="#az"/><use transform="matrix(0.05,0,0,0.05,59.900000000000006,0)" xlink:href="#ak"/><use transform="matrix(0.05,0,0,0.05,64.9,0)" xlink:href="#ax"/><use transform="matrix(0.05,0,0,0.05,75.85000000000001,0)" xlink:href="#ai"/></g><g id="G"><use transform="matrix(0.05,0,0,0.05,0,0)" xlink:href="#aR"/><use transform="matrix(0.05,0,0,0.05,12.950000000000001,0)" xlink:href="#aw"/><use transform="matrix(0.05,0,0,0.05,24.950000000000003,0)" xlink:href="#ai"/><use transform="matrix(0.05,0,0,0.05,36.95,0)" xlink:href="#aR"/><use transform="matrix(0.05,0,0,0.05,49.900000000000006,0)" xlink:href="#aj"/><use transform="matrix(0.05,0,0,0.05,59.900000000000006,0)" xlink:href="#ak"/><use transform="matrix(0.05,0,0,0.05,64.9,0)" xlink:href="#al"/><use transform="matrix(0.05,0,0,0.05,77.85000000000001,0)" xlink:href="#ah"/><use transform="matrix(0.05,0,0,0.05,89.85000000000001,0)" xlink:href="#az"/><use transform="matrix(0.05,0,0,0.05,102.80000000000001,0)" xlink:href="#ax"/><use transform="matrix(0.05,0,0,0.05,113.75,0)" xlink:href="#ak"/><use transform="matrix(0.05,0,0,0.05,118.75,0)" xlink:href="#ax"/><use transform="matrix(0.05,0,0,0.05,129.70000000000002,0)" xlink:href="#aK"/><use transform="matrix(0.05,0,0,0.05,141.70000000000002,0)" xlink:href="#aj"/><use transform="matrix(0.05,0,0,0.05,151.70000000000002,0)" xlink:href="#aw"/><use transform="matrix(0.05,0,0,0.05,163.70000000000002,0)" xlink:href="#az"/><use transform="matrix(0.05,0,0,0.05,176.65,0)" xlink:href="#al"/><use transform="matrix(0.05,0,0,0.05,189.6,0)" xlink:href="#aj"/><use transform="matrix(0.05,0,0,0.05,199.6,0)" xlink:href="#aL"/><use transform="matrix(0.05,0,0,0.05,212.54999999999995,0)" xlink:href="#az"/><use transform="matrix(0.05,0,0,0.05,225.49999999999997,0)" xlink:href="#ak"/><use transform="matrix(0.05,0,0,0.05,230.49999999999997,0)" xlink:href="#ax"/><use transform="matrix(0.05,0,0,0.05,241.44999999999996,0)" xlink:href="#ai"/></g><g id="H"><use transform="matrix(0.05,0,0,0.05,0,0)" xlink:href="#aR"/><use transform="matrix(0.05,0,0,0.05,12.950000000000001,0)" xlink:href="#aw"/><use transform="matrix(0.05,0,0,0.05,24.950000000000003,0)" xlink:href="#ai"/><use transform="matrix(0.05,0,0,0.05,36.95,0)" xlink:href="#aR"/><use transform="matrix(0.05,0,0,0.05,49.900000000000006,0)" xlink:href="#aj"/><use transform="matrix(0.05,0,0,0.05,59.900000000000006,0)" xlink:href="#ak"/><use transform="matrix(0.05,0,0,0.05,64.9,0)" xlink:href="#al"/><use transform="matrix(0.05,0,0,0.05,77.85000000000001,0)" xlink:href="#ah"/><use transform="matrix(0.05,0,0,0.05,89.85000000000001,0)" xlink:href="#az"/><use transform="matrix(0.05,0,0,0.05,102.80000000000001,0)" xlink:href="#ax"/><use transform="matrix(0.05,0,0,0.05,113.75,0)" xlink:href="#ak"/><use transform="matrix(0.05,0,0,0.05,118.75,0)" xlink:href="#ax"/><use transform="matrix(0.05,0,0,0.05,129.70000000000002,0)" xlink:href="#aK"/><use transform="matrix(0.05,0,0,0.05,141.70000000000002,0)" xlink:href="#aj"/><use transform="matrix(0.05,0,0,0.05,151.70000000000002,0)" xlink:href="#ai"/><use transform="matrix(0.05,0,0,0.05,163.70000000000002,0)" xlink:href="#aK"/><use transform="matrix(0.05,0,0,0.05,175.70000000000002,0)" xlink:href="#ai"/><use transform="matrix(0.05,0,0,0.05,187.70000000000002,0)" xlink:href="#aj"/><use transform="matrix(0.05,0,0,0.05,197.70000000000002,0)" xlink:href="#aL"/><use transform="matrix(0.05,0,0,0.05,210.65,0)" xlink:href="#az"/><use transform="matrix(0.05,0,0,0.05,223.60000000000002,0)" xlink:href="#ak"/><use transform="matrix(0.05,0,0,0.05,228.60000000000002,0)" xlink:href="#ax"/><use transform="matrix(0.05,0,0,0.05,239.54999999999995,0)" xlink:href="#ai"/></g><path d="M67-125c0 54 23 88 75 88 28 0 53-7 68-21v-34h-60v-39h108v91C232-14 192 4 140 4 58 4 20-42 15-125 8-236 126-280 215-234c19 10 29 26 37 47l-47 15c-11-23-29-39-63-39-53 1-75 33-75 86" id="bc"/><g id="I"><use transform="matrix(0.05,0,0,0.05,0,0)" xlink:href="#U"/><use transform="matrix(0.05,0,0,0.05,12.950000000000001,0)" xlink:href="#V"/><use transform="matrix(0.05,0,0,0.05,23.900000000000002,0)" xlink:href="#W"/><use transform="matrix(0.05,0,0,0.05,33.900000000000006,0)" xlink:href="#X"/><use transform="matrix(0.05,0,0,0.05,43.900000000000006,0)" xlink:href="#aa"/><use transform="matrix(0.05,0,0,0.05,55.900000000000006,0)" xlink:href="#as"/><use transform="matrix(0.05,0,0,0.05,67.9,0)" xlink:href="#at"/><use transform="matrix(0.05,0,0,0.05,72.9,0)" xlink:href="#au"/><use transform="matrix(0.05,0,0,0.05,85.85000000000001,0)" xlink:href="#av"/><use transform="matrix(0.05,0,0,0.05,97.85000000000001,0)" xlink:href="#X"/><use transform="matrix(0.05,0,0,0.05,107.85000000000001,0)" xlink:href="#aa"/><use transform="matrix(0.05,0,0,0.05,119.85000000000001,0)" xlink:href="#aT"/><use transform="matrix(0.05,0,0,0.05,130.8,0)" xlink:href="#Y"/><use transform="matrix(0.05,0,0,0.05,143.75,0)" xlink:href="#at"/><use transform="matrix(0.05,0,0,0.05,148.75,0)" xlink:href="#aW"/><use transform="matrix(0.05,0,0,0.05,161.7,0)" xlink:href="#bc"/></g><path d="M209 0H11v-25l151-195H24v-28h176v25L50-27h159V0" id="bd"/><g id="J"><use transform="matrix(0.05,0,0,0.05,0,0)" xlink:href="#ai"/><use transform="matrix(0.05,0,0,0.05,12,0)" xlink:href="#ae"/><use transform="matrix(0.05,0,0,0.05,24,0)" xlink:href="#aj"/><use transform="matrix(0.05,0,0,0.05,34,0)" xlink:href="#aU"/><use transform="matrix(0.05,0,0,0.05,44.65,0)" xlink:href="#aw"/><use transform="matrix(0.05,0,0,0.05,56.650000000000006,0)" xlink:href="#an"/><use transform="matrix(0.05,0,0,0.05,66.65,0)" xlink:href="#aL"/><use transform="matrix(0.05,0,0,0.05,79.60000000000001,0)" xlink:href="#ah"/><use transform="matrix(0.05,0,0,0.05,91.60000000000001,0)" xlink:href="#aj"/><use transform="matrix(0.05,0,0,0.05,101.60000000000001,0)" xlink:href="#az"/><use transform="matrix(0.05,0,0,0.05,114.55000000000001,0)" xlink:href="#ay"/><use transform="matrix(0.05,0,0,0.05,128.55,0)" xlink:href="#ag"/><use transform="matrix(0.05,0,0,0.05,141.5,0)" xlink:href="#aJ"/><use transform="matrix(0.05,0,0,0.05,156.45,0)" xlink:href="#aw"/><use transform="matrix(0.05,0,0,0.05,168.45,0)" xlink:href="#an"/><use transform="matrix(0.05,0,0,0.05,178.45,0)" xlink:href="#ak"/><use transform="matrix(0.05,0,0,0.05,183.45,0)" xlink:href="#bd"/><use transform="matrix(0.05,0,0,0.05,194.39999999999998,0)" xlink:href="#ah"/><use transform="matrix(0.05,0,0,0.05,206.39999999999998,0)" xlink:href="#al"/></g><path d="M195 0l-74-108L45 0H8l94-129-87-119h37l69 98 67-98h37l-84 118L233 0h-38" id="be"/><path d="M212-179c-10-28-35-45-73-45-59 0-87 40-87 99 0 60 29 101 89 101 43 0 62-24 78-52l27 14C228-24 195 4 139 4 59 4 22-46 18-125c-6-104 99-153 187-111 19 9 31 26 39 46" id="bf"/><g id="K"><use transform="matrix(0.05,0,0,0.05,0,0)" xlink:href="#ai"/><use transform="matrix(0.05,0,0,0.05,12,0)" xlink:href="#ae"/><use transform="matrix(0.05,0,0,0.05,24,0)" xlink:href="#aj"/><use transform="matrix(0.05,0,0,0.05,34,0)" xlink:href="#aU"/><use transform="matrix(0.05,0,0,0.05,44.65,0)" xlink:href="#aw"/><use transform="matrix(0.05,0,0,0.05,56.650000000000006,0)" xlink:href="#an"/><use transform="matrix(0.05,0,0,0.05,66.65,0)" xlink:href="#aL"/><use transform="matrix(0.05,0,0,0.05,79.60000000000001,0)" xlink:href="#ah"/><use transform="matrix(0.05,0,0,0.05,91.60000000000001,0)" xlink:href="#aj"/><use transform="matrix(0.05,0,0,0.05,101.60000000000001,0)" xlink:href="#ah"/><use transform="matrix(0.05,0,0,0.05,113.60000000000001,0)" xlink:href="#be"/><use transform="matrix(0.05,0,0,0.05,125.60000000000001,0)" xlink:href="#aw"/><use transform="matrix(0.05,0,0,0.05,137.60000000000002,0)" xlink:href="#bf"/><use transform="matrix(0.05,0,0,0.05,150.55,0)" xlink:href="#ax"/></g><g id="L"><use transform="matrix(0.05,0,0,0.05,0,0)" xlink:href="#aR"/><use transform="matrix(0.05,0,0,0.05,12.950000000000001,0)" xlink:href="#aw"/><use transform="matrix(0.05,0,0,0.05,24.950000000000003,0)" xlink:href="#ai"/><use transform="matrix(0.05,0,0,0.05,36.95,0)" xlink:href="#aR"/><use transform="matrix(0.05,0,0,0.05,49.900000000000006,0)" xlink:href="#aj"/><use transform="matrix(0.05,0,0,0.05,59.900000000000006,0)" xlink:href="#az"/><use transform="matrix(0.05,0,0,0.05,72.85000000000001,0)" xlink:href="#ay"/><use transform="matrix(0.05,0,0,0.05,86.85000000000001,0)" xlink:href="#ag"/><use transform="matrix(0.05,0,0,0.05,99.80000000000001,0)" xlink:href="#aJ"/><use transform="matrix(0.05,0,0,0.05,114.75,0)" xlink:href="#aj"/><use transform="matrix(0.05,0,0,0.05,124.75,0)" xlink:href="#ae"/><use transform="matrix(0.05,0,0,0.05,136.75,0)" xlink:href="#ag"/><use transform="matrix(0.05,0,0,0.05,149.7,0)" xlink:href="#ah"/><use transform="matrix(0.05,0,0,0.05,161.7,0)" xlink:href="#aI"/><use transform="matrix(0.05,0,0,0.05,172.64999999999998,0)" xlink:href="#ak"/><use transform="matrix(0.05,0,0,0.05,177.64999999999998,0)" xlink:href="#be"/></g><g id="M"><use transform="matrix(0.05,0,0,0.05,0,0)" xlink:href="#aR"/><use transform="matrix(0.05,0,0,0.05,12.950000000000001,0)" xlink:href="#aw"/><use transform="matrix(0.05,0,0,0.05,24.950000000000003,0)" xlink:href="#ai"/><use transform="matrix(0.05,0,0,0.05,36.95,0)" xlink:href="#aR"/><use transform="matrix(0.05,0,0,0.05,49.900000000000006,0)" xlink:href="#aj"/><use transform="matrix(0.05,0,0,0.05,59.900000000000006,0)" xlink:href="#ah"/><use transform="matrix(0.05,0,0,0.05,71.9,0)" xlink:href="#be"/><use transform="matrix(0.05,0,0,0.05,83.9,0)" xlink:href="#aw"/><use transform="matrix(0.05,0,0,0.05,95.9,0)" xlink:href="#bf"/><use transform="matrix(0.05,0,0,0.05,108.85000000000001,0)" xlink:href="#ax"/></g><path d="M195 0l-88-114-31 24V0H24v-248h52v113l112-113h60L142-143 257 0h-62" id="bg"/><g id="N"><use transform="matrix(0.05,0,0,0.05,0,0)" xlink:href="#U"/><use transform="matrix(0.05,0,0,0.05,12.950000000000001,0)" xlink:href="#V"/><use transform="matrix(0.05,0,0,0.05,23.900000000000002,0)" xlink:href="#W"/><use transform="matrix(0.05,0,0,0.05,33.900000000000006,0)" xlink:href="#X"/><use transform="matrix(0.05,0,0,0.05,43.900000000000006,0)" xlink:href="#aa"/><use transform="matrix(0.05,0,0,0.05,55.900000000000006,0)" xlink:href="#as"/><use transform="matrix(0.05,0,0,0.05,67.9,0)" xlink:href="#at"/><use transform="matrix(0.05,0,0,0.05,72.9,0)" xlink:href="#au"/><use transform="matrix(0.05,0,0,0.05,85.85000000000001,0)" xlink:href="#av"/><use transform="matrix(0.05,0,0,0.05,97.85000000000001,0)" xlink:href="#X"/><use transform="matrix(0.05,0,0,0.05,107.85000000000001,0)" xlink:href="#aT"/><use transform="matrix(0.05,0,0,0.05,118.45,0)" xlink:href="#ab"/><use transform="matrix(0.05,0,0,0.05,132.45000000000002,0)" xlink:href="#bg"/><use transform="matrix(0.05,0,0,0.05,145.4,0)" xlink:href="#Z"/><use transform="matrix(0.05,0,0,0.05,157.4,0)" xlink:href="#aW"/></g><g id="O"><use transform="matrix(0.05,0,0,0.05,0,0)" xlink:href="#aR"/><use transform="matrix(0.05,0,0,0.05,12.950000000000001,0)" xlink:href="#aw"/><use transform="matrix(0.05,0,0,0.05,24.950000000000003,0)" xlink:href="#ai"/><use transform="matrix(0.05,0,0,0.05,36.95,0)" xlink:href="#aR"/><use transform="matrix(0.05,0,0,0.05,49.900000000000006,0)" xlink:href="#aj"/><use transform="matrix(0.05,0,0,0.05,59.900000000000006,0)" xlink:href="#ai"/><use transform="matrix(0.05,0,0,0.05,71.9,0)" xlink:href="#aK"/><use transform="matrix(0.05,0,0,0.05,83.9,0)" xlink:href="#ai"/></g><g id="P"><use transform="matrix(0.05,0,0,0.05,0,0)" xlink:href="#aR"/><use transform="matrix(0.05,0,0,0.05,12.950000000000001,0)" xlink:href="#aw"/><use transform="matrix(0.05,0,0,0.05,24.950000000000003,0)" xlink:href="#ai"/><use transform="matrix(0.05,0,0,0.05,36.95,0)" xlink:href="#aR"/><use transform="matrix(0.05,0,0,0.05,49.900000000000006,0)" xlink:href="#aj"/><use transform="matrix(0.05,0,0,0.05,59.900000000000006,0)" xlink:href="#ai"/><use transform="matrix(0.05,0,0,0.05,71.9,0)" xlink:href="#aK"/><use transform="matrix(0.05,0,0,0.05,83.9,0)" xlink:href="#ai"/><use transform="matrix(0.05,0,0,0.05,95.9,0)" xlink:href="#aj"/><use transform="matrix(0.05,0,0,0.05,105.9,0)" xlink:href="#aw"/><use transform="matrix(0.05,0,0,0.05,117.9,0)" xlink:href="#az"/><use transform="matrix(0.05,0,0,0.05,130.85,0)" xlink:href="#al"/><use transform="matrix(0.05,0,0,0.05,143.79999999999998,0)" xlink:href="#aj"/><use transform="matrix(0.05,0,0,0.05,153.79999999999998,0)" xlink:href="#aU"/><use transform="matrix(0.05,0,0,0.05,164.45,0)" xlink:href="#aw"/><use transform="matrix(0.05,0,0,0.05,176.45,0)" xlink:href="#an"/><use transform="matrix(0.05,0,0,0.05,186.45,0)" xlink:href="#aL"/><use transform="matrix(0.05,0,0,0.05,199.39999999999998,0)" xlink:href="#ah"/></g><g id="Q"><use transform="matrix(0.05,0,0,0.05,0,0)" xlink:href="#aR"/><use transform="matrix(0.05,0,0,0.05,12.950000000000001,0)" xlink:href="#aw"/><use transform="matrix(0.05,0,0,0.05,24.950000000000003,0)" xlink:href="#ai"/><use transform="matrix(0.05,0,0,0.05,36.95,0)" xlink:href="#aR"/><use transform="matrix(0.05,0,0,0.05,49.900000000000006,0)" xlink:href="#aj"/><use transform="matrix(0.05,0,0,0.05,59.900000000000006,0)" xlink:href="#aU"/><use transform="matrix(0.05,0,0,0.05,70.55000000000001,0)" xlink:href="#aw"/><use transform="matrix(0.05,0,0,0.05,82.55000000000001,0)" xlink:href="#an"/><use transform="matrix(0.05,0,0,0.05,92.55000000000001,0)" xlink:href="#aL"/><use transform="matrix(0.05,0,0,0.05,105.5,0)" xlink:href="#ah"/></g><use transform="matrix(0.05,0,0,0.05,0,0)" xlink:href="#ar" id="R"/><g id="S"><use transform="matrix(0.05,0,0,0.05,0,0)" xlink:href="#ai"/><use transform="matrix(0.05,0,0,0.05,12,0)" xlink:href="#ae"/><use transform="matrix(0.05,0,0,0.05,24,0)" xlink:href="#aj"/><use transform="matrix(0.05,0,0,0.05,34,0)" xlink:href="#aL"/><use transform="matrix(0.05,0,0,0.05,46.95,0)" xlink:href="#ag"/><use transform="matrix(0.05,0,0,0.05,59.900000000000006,0)" xlink:href="#ak"/></g><g id="T"><use transform="matrix(0.05,0,0,0.05,0,0)" xlink:href="#aR"/><use transform="matrix(0.05,0,0,0.05,12.950000000000001,0)" xlink:href="#aw"/><use transform="matrix(0.05,0,0,0.05,24.950000000000003,0)" xlink:href="#ai"/><use transform="matrix(0.05,0,0,0.05,36.95,0)" xlink:href="#aR"/><use transform="matrix(0.05,0,0,0.05,49.900000000000006,0)" xlink:href="#aj"/><use transform="matrix(0.05,0,0,0.05,59.900000000000006,0)" xlink:href="#aL"/><use transform="matrix(0.05,0,0,0.05,72.85000000000001,0)" xlink:href="#ag"/><use transform="matrix(0.05,0,0,0.05,85.80000000000001,0)" xlink:href="#ak"/></g></defs></g></svg>