<svg xmlns="http://www.w3.org/2000/svg" xmlns:xlink="http://www.w3.org/1999/xlink" xmlns:lucid="lucid" width="920" height="544"><g transform="translate(-260 -240)" lucid:page-tab-id="0_0"><path d="M280 260h360v360H280z" fill="#83bbe5"/><path d="M280 260h360v360H280zM280 300h360M340 300v320" stroke="#0c7cba" stroke-width="4" fill="none"/><use xlink:href="#a" transform="matrix(1,0,0,1,290,260) translate(97.14999999999999 23.6)"/><use xlink:href="#b" transform="matrix(1,0,0,1,345,302.5) translate(0 17.1)"/><use xlink:href="#c" transform="matrix(1,0,0,1,345,302.5) translate(127.05000000000001 17.1)"/><use xlink:href="#d" transform="matrix(1,0,0,1,345,334.5) translate(0 17.1)"/><use xlink:href="#e" transform="matrix(1,0,0,1,345,334.5) translate(155.65 17.1)"/><use xlink:href="#f" transform="matrix(1,0,0,1,285,366.5) translate(13 17.1)"/><use xlink:href="#g" transform="matrix(1,0,0,1,345,366.5) translate(0 17.1)"/><use xlink:href="#h" transform="matrix(1,0,0,1,345,366.5) translate(69.9 17.1)"/><use xlink:href="#i" transform="matrix(1,0,0,1,345,398.5) translate(0 17.1)"/><use xlink:href="#h" transform="matrix(1,0,0,1,345,398.5) translate(88.9 17.1)"/><use xlink:href="#j" transform="matrix(1,0,0,1,345,430.5) translate(0 17.1)"/><use xlink:href="#k" transform="matrix(1,0,0,1,345,430.5) translate(132.85000000000002 17.1)"/><use xlink:href="#l" transform="matrix(1,0,0,1,345,462.5) translate(0 17.1)"/><use xlink:href="#k" transform="matrix(1,0,0,1,345,462.5) translate(98.9 17.1)"/><use xlink:href="#m" transform="matrix(1,0,0,1,345,494.5) translate(0 17.1)"/><use xlink:href="#k" transform="matrix(1,0,0,1,345,494.5) translate(131.85000000000002 17.1)"/><use xlink:href="#n" transform="matrix(1,0,0,1,345,526.5) translate(0 17.1)"/><use xlink:href="#e" transform="matrix(1,0,0,1,345,526.5) translate(153.8 17.1)"/><use xlink:href="#o" transform="matrix(1,0,0,1,345,558.5) translate(0 17.1)"/><use xlink:href="#e" transform="matrix(1,0,0,1,345,558.5) translate(136.4 17.1)"/><use xlink:href="#p" transform="matrix(1,0,0,1,345,590.5) translate(0 17.1)"/><use xlink:href="#e" transform="matrix(1,0,0,1,345,590.5) translate(166.05 17.1)"/><path d="M820 500h340v264H820z" fill="#c1e4f7"/><path d="M820 500h340v264H820zM820 540h340M880 540v224" stroke="#0c7cba" stroke-width="2" fill="none"/><use xlink:href="#q" transform="matrix(1,0,0,1,830,500) translate(96.1 23.6)"/><use xlink:href="#b" transform="matrix(1,0,0,1,885,542.5) translate(0 17.1)"/><use xlink:href="#c" transform="matrix(1,0,0,1,885,542.5) translate(127.05000000000001 17.1)"/><use xlink:href="#d" transform="matrix(1,0,0,1,885,574.5) translate(0 17.1)"/><use xlink:href="#e" transform="matrix(1,0,0,1,885,574.5) translate(155.65 17.1)"/><use xlink:href="#f" transform="matrix(1,0,0,1,825,606.5) translate(13 17.1)"/><use xlink:href="#r" transform="matrix(1,0,0,1,885,606.5) translate(0 17.1)"/><use xlink:href="#h" transform="matrix(1,0,0,1,885,606.5) translate(34.95 17.1)"/><use xlink:href="#s" transform="matrix(1,0,0,1,825,638.5) translate(13.524999999999999 17.1)"/><use xlink:href="#t" transform="matrix(1,0,0,1,885,638.5) translate(0 17.1)"/><use xlink:href="#u" transform="matrix(1,0,0,1,885,638.5) translate(69.9 17.1)"/><use xlink:href="#i" transform="matrix(1,0,0,1,885,670.5) translate(0 17.1)"/><use xlink:href="#h" transform="matrix(1,0,0,1,885,670.5) translate(88.9 17.1)"/><use xlink:href="#v" transform="matrix(1,0,0,1,885,702.5) translate(0 17.1)"/><use xlink:href="#k" transform="matrix(1,0,0,1,885,702.5) translate(148.75 17.1)"/><use xlink:href="#w" transform="matrix(1,0,0,1,885,734.5) translate(0 17.1)"/><use xlink:href="#x" transform="matrix(1,0,0,1,885,734.5) translate(97.50000000000001 17.1)"/><path d="M820 260h340v200H820z" fill="#c1e4f7"/><path d="M820 260h340v200H820zM820 300h340M880 300v160" stroke="#0c7cba" stroke-width="2" fill="none"/><use xlink:href="#y" transform="matrix(1,0,0,1,830,260) translate(86.175 23.6)"/><use xlink:href="#b" transform="matrix(1,0,0,1,885,302.5) translate(0 17.1)"/><use xlink:href="#c" transform="matrix(1,0,0,1,885,302.5) translate(127.05000000000001 17.1)"/><use xlink:href="#d" transform="matrix(1,0,0,1,885,334.5) translate(0 17.1)"/><use xlink:href="#e" transform="matrix(1,0,0,1,885,334.5) translate(155.65 17.1)"/><g><use xlink:href="#f" transform="matrix(1,0,0,1,825,366.5) translate(13 17.1)"/></g><g><use xlink:href="#r" transform="matrix(1,0,0,1,885,366.5) translate(0 17.1)"/><use xlink:href="#h" transform="matrix(1,0,0,1,885,366.5) translate(34.95 17.1)"/></g><g><use xlink:href="#s" transform="matrix(1,0,0,1,825,398.5) translate(13.524999999999999 17.1)"/></g><g><use xlink:href="#z" transform="matrix(1,0,0,1,885,398.5) translate(0 17.1)"/><use xlink:href="#u" transform="matrix(1,0,0,1,885,398.5) translate(146.75 17.1)"/></g><g><use xlink:href="#A" transform="matrix(1,0,0,1,885,430.5) translate(0 17.1)"/><use xlink:href="#B" transform="matrix(1,0,0,1,885,430.5) translate(108.75000000000001 17.1)"/></g><path d="M780 412h-49.5v-32H662" stroke="#000" stroke-width="2" fill="none"/><path d="M809 402v20M819 412h-20M799 412c0 5.52-4.48 10-10 10s-10-4.48-10-10 4.48-10 10-10 10 4.48 10 10M662 390v-20M642 380h20" stroke="#000" stroke-width="2" fill="#fff"/><path d="M799 652h-68.5V380H662" stroke="#000" stroke-width="2" fill="none"/><path d="M818.55 662l-20-10 20-10M818.55 652h-20M798.55 642v20M662 390v-20M642 380h20" stroke="#000" stroke-width="2" fill="#fff"/><defs><path d="M186 0v-106H76V0H24v-248h52v99h110v-99h50V0h-50" id="C"/><path d="M76-208v77h127v40H76V0H24v-248h183v40H76" id="D"/><path d="M176-78C186 10 51 31 16-35c-5-9-9-19-11-32l52-8c4 21 12 37 35 38 23 0 32-16 32-40v-130H75v-41h101v170" id="E"/><path d="M-4 44V30h207v14H-4" id="F"/><path d="M240-174c0 40-23 61-54 70L253 0h-59l-57-94H76V0H24v-248c93 4 217-23 216 74zM76-134c48-2 112 12 112-38 0-48-66-32-112-35v73" id="G"/><path d="M24 0v-248h195v40H76v63h132v40H76v65h150V0H24" id="H"/><path d="M169-182c-1-43-94-46-97-3 18 66 151 10 154 114 3 95-165 93-204 36-6-8-10-19-12-30l50-8c3 46 112 56 116 5-17-69-150-10-154-114-4-87 153-88 188-35 5 8 8 18 10 28" id="I"/><path d="M140-251c80 0 125 45 125 126S219 4 139 4C58 4 15-44 15-125s44-126 125-126zm-1 214c52 0 73-35 73-88 0-50-21-86-72-86-52 0-73 35-73 86s22 88 72 88" id="J"/><path d="M238-95c0 69-44 99-111 99C63 4 22-25 22-93v-155h51v151c-1 38 19 59 55 60 90 1 49-130 58-211h52v153" id="K"/><path d="M67-125c0 53 21 87 73 88 37 1 54-22 65-47l45 17C233-25 199 4 140 4 58 4 20-42 15-125 8-235 124-281 211-232c18 10 29 29 36 50l-46 12c-8-25-30-41-62-41-52 0-71 34-72 86" id="L"/><g id="a"><use transform="matrix(0.05,0,0,0.05,0,0)" xlink:href="#C"/><use transform="matrix(0.05,0,0,0.05,12.950000000000001,0)" xlink:href="#D"/><use transform="matrix(0.05,0,0,0.05,23.900000000000002,0)" xlink:href="#E"/><use transform="matrix(0.05,0,0,0.05,33.900000000000006,0)" xlink:href="#F"/><use transform="matrix(0.05,0,0,0.05,43.900000000000006,0)" xlink:href="#G"/><use transform="matrix(0.05,0,0,0.05,56.85,0)" xlink:href="#H"/><use transform="matrix(0.05,0,0,0.05,68.85000000000001,0)" xlink:href="#I"/><use transform="matrix(0.05,0,0,0.05,80.85000000000001,0)" xlink:href="#J"/><use transform="matrix(0.05,0,0,0.05,94.85000000000001,0)" xlink:href="#K"/><use transform="matrix(0.05,0,0,0.05,107.80000000000001,0)" xlink:href="#G"/><use transform="matrix(0.05,0,0,0.05,120.75,0)" xlink:href="#L"/><use transform="matrix(0.05,0,0,0.05,133.70000000000002,0)" xlink:href="#H"/></g><path d="M30-248c87 1 191-15 191 75 0 78-77 80-158 76V0H30v-248zm33 125c57 0 124 11 124-50 0-59-68-47-124-48v98" id="M"/><path d="M205 0l-28-72H64L36 0H1l101-248h38L239 0h-34zm-38-99l-47-123c-12 45-31 82-46 123h93" id="N"/><path d="M233-177c-1 41-23 64-60 70L243 0h-38l-65-103H63V0H30v-248c88 3 205-21 203 71zM63-129c60-2 137 13 137-47 0-61-80-42-137-45v92" id="O"/><path d="M127-220V0H93v-220H8v-28h204v28h-85" id="P"/><path d="M33 0v-248h34V0H33" id="Q"/><path d="M140-251c81 0 123 46 123 126C263-46 219 4 140 4 59 4 17-45 17-125s42-126 123-126zm0 227c63 0 89-41 89-101s-29-99-89-99c-61 0-89 39-89 99S79-25 140-24" id="R"/><path d="M190 0L58-211 59 0H30v-248h39L202-35l-2-213h31V0h-41" id="S"/><path d="M-5 72V49h209v23H-5" id="T"/><path d="M30-248c118-7 216 8 213 122C240-48 200 0 122 0H30v-248zM63-27c89 8 146-16 146-99s-60-101-146-95v194" id="U"/><g id="b"><use transform="matrix(0.05,0,0,0.05,0,0)" xlink:href="#M"/><use transform="matrix(0.05,0,0,0.05,10.65,0)" xlink:href="#N"/><use transform="matrix(0.05,0,0,0.05,22.65,0)" xlink:href="#O"/><use transform="matrix(0.05,0,0,0.05,35.25,0)" xlink:href="#P"/><use transform="matrix(0.05,0,0,0.05,46.2,0)" xlink:href="#Q"/><use transform="matrix(0.05,0,0,0.05,51.2,0)" xlink:href="#P"/><use transform="matrix(0.05,0,0,0.05,62.150000000000006,0)" xlink:href="#Q"/><use transform="matrix(0.05,0,0,0.05,67.15,0)" xlink:href="#R"/><use transform="matrix(0.05,0,0,0.05,81.15,0)" xlink:href="#S"/><use transform="matrix(0.05,0,0,0.05,94.10000000000001,0)" xlink:href="#T"/><use transform="matrix(0.05,0,0,0.05,104.10000000000001,0)" xlink:href="#Q"/><use transform="matrix(0.05,0,0,0.05,109.10000000000001,0)" xlink:href="#U"/></g><path d="M87 75C49 33 22-17 22-94c0-76 28-126 65-167h31c-38 41-64 92-64 168S80 34 118 75H87" id="V"/><path d="M117-194c89-4 53 116 60 194h-32v-121c0-31-8-49-39-48C34-167 62-67 57 0H25l-1-190h30c1 10-1 24 2 32 11-22 29-35 61-36" id="W"/><path d="M59-47c-2 24 18 29 38 22v24C64 9 27 4 27-40v-127H5v-23h24l9-43h21v43h35v23H59v120" id="X"/><path d="M100-194c63 0 86 42 84 106H49c0 40 14 67 53 68 26 1 43-12 49-29l28 8c-11 28-37 45-77 45C44 4 14-33 15-96c1-61 26-98 85-98zm52 81c6-60-76-77-97-28-3 7-6 17-6 28h103" id="Y"/><path d="M177-190C167-65 218 103 67 71c-23-6-38-20-44-43l32-5c15 47 100 32 89-28v-30C133-14 115 1 83 1 29 1 15-40 15-95c0-56 16-97 71-98 29-1 48 16 59 35 1-10 0-23 2-32h30zM94-22c36 0 50-32 50-73 0-42-14-75-50-75-39 0-46 34-46 75s6 73 46 73" id="Z"/><path d="M114-163C36-179 61-72 57 0H25l-1-190h30c1 12-1 29 2 39 6-27 23-49 58-41v29" id="aa"/><path d="M33-261c38 41 65 92 65 168S71 34 33 75H2C39 34 66-17 66-93S39-220 2-261h31" id="ab"/><g id="c"><use transform="matrix(0.05,0,0,0.05,0,0)" xlink:href="#V"/><use transform="matrix(0.05,0,0,0.05,5.95,0)" xlink:href="#Q"/><use transform="matrix(0.05,0,0,0.05,10.95,0)" xlink:href="#W"/><use transform="matrix(0.05,0,0,0.05,20.95,0)" xlink:href="#X"/><use transform="matrix(0.05,0,0,0.05,25.950000000000003,0)" xlink:href="#Y"/><use transform="matrix(0.05,0,0,0.05,35.95,0)" xlink:href="#Z"/><use transform="matrix(0.05,0,0,0.05,45.95,0)" xlink:href="#Y"/><use transform="matrix(0.05,0,0,0.05,55.95,0)" xlink:href="#aa"/><use transform="matrix(0.05,0,0,0.05,61.900000000000006,0)" xlink:href="#ab"/></g><path d="M30 0v-248h187v28H63v79h144v27H63v87h162V0H30" id="ac"/><g id="d"><use transform="matrix(0.05,0,0,0.05,0,0)" xlink:href="#M"/><use transform="matrix(0.05,0,0,0.05,10.65,0)" xlink:href="#N"/><use transform="matrix(0.05,0,0,0.05,22.65,0)" xlink:href="#O"/><use transform="matrix(0.05,0,0,0.05,35.25,0)" xlink:href="#P"/><use transform="matrix(0.05,0,0,0.05,46.2,0)" xlink:href="#Q"/><use transform="matrix(0.05,0,0,0.05,51.2,0)" xlink:href="#P"/><use transform="matrix(0.05,0,0,0.05,62.150000000000006,0)" xlink:href="#Q"/><use transform="matrix(0.05,0,0,0.05,67.15,0)" xlink:href="#R"/><use transform="matrix(0.05,0,0,0.05,81.15,0)" xlink:href="#S"/><use transform="matrix(0.05,0,0,0.05,94.10000000000001,0)" xlink:href="#T"/><use transform="matrix(0.05,0,0,0.05,104.10000000000001,0)" xlink:href="#U"/><use transform="matrix(0.05,0,0,0.05,117.05000000000001,0)" xlink:href="#N"/><use transform="matrix(0.05,0,0,0.05,127.7,0)" xlink:href="#P"/><use transform="matrix(0.05,0,0,0.05,138.65,0)" xlink:href="#ac"/></g><path d="M24-231v-30h32v30H24zM24 0v-190h32V0H24" id="ad"/><path d="M210-169c-67 3-38 105-44 169h-31v-121c0-29-5-50-35-48C34-165 62-65 56 0H25l-1-190h30c1 10-1 24 2 32 10-44 99-50 107 0 11-21 27-35 58-36 85-2 47 119 55 194h-31v-121c0-29-5-49-35-48" id="ae"/><path d="M135-143c-3-34-86-38-87 0 15 53 115 12 119 90S17 21 10-45l28-5c4 36 97 45 98 0-10-56-113-15-118-90-4-57 82-63 122-42 12 7 21 19 24 35" id="af"/><path d="M141-36C126-15 110 5 73 4 37 3 15-17 15-53c-1-64 63-63 125-63 3-35-9-54-41-54-24 1-41 7-42 31l-33-3c5-37 33-52 76-52 45 0 72 20 72 64v82c-1 20 7 32 28 27v20c-31 9-61-2-59-35zM48-53c0 20 12 33 32 33 41-3 63-29 60-74-43 2-92-5-92 41" id="ag"/><path d="M115-194c55 1 70 41 70 98S169 2 115 4C84 4 66-9 55-30l1 105H24l-1-265h31l2 30c10-21 28-34 59-34zm-8 174c40 0 45-34 45-75s-6-73-45-74c-42 0-51 32-51 76 0 43 10 73 51 73" id="ah"/><g id="e"><use transform="matrix(0.05,0,0,0.05,0,0)" xlink:href="#V"/><use transform="matrix(0.05,0,0,0.05,5.95,0)" xlink:href="#P"/><use transform="matrix(0.05,0,0,0.05,16.25,0)" xlink:href="#ad"/><use transform="matrix(0.05,0,0,0.05,20.2,0)" xlink:href="#ae"/><use transform="matrix(0.05,0,0,0.05,35.15,0)" xlink:href="#Y"/><use transform="matrix(0.05,0,0,0.05,45.15,0)" xlink:href="#af"/><use transform="matrix(0.05,0,0,0.05,54.150000000000006,0)" xlink:href="#X"/><use transform="matrix(0.05,0,0,0.05,59.150000000000006,0)" xlink:href="#ag"/><use transform="matrix(0.05,0,0,0.05,69.15,0)" xlink:href="#ae"/><use transform="matrix(0.05,0,0,0.05,84.10000000000001,0)" xlink:href="#ah"/><use transform="matrix(0.05,0,0,0.05,94.10000000000001,0)" xlink:href="#ab"/></g><path d="M194 0L95-120 63-95V0H30v-248h33v124l119-124h40L117-140 236 0h-42" id="ai"/><g id="f"><use transform="matrix(0.05,0,0,0.05,0,0)" xlink:href="#M"/><use transform="matrix(0.05,0,0,0.05,12,0)" xlink:href="#ai"/></g><path d="M185-189c-5-48-123-54-124 2 14 75 158 14 163 119 3 78-121 87-175 55-17-10-28-26-33-46l33-7c5 56 141 63 141-1 0-78-155-14-162-118-5-82 145-84 179-34 5 7 8 16 11 25" id="aj"/><g id="g"><use transform="matrix(0.05,0,0,0.05,0,0)" xlink:href="#O"/><use transform="matrix(0.05,0,0,0.05,12.950000000000001,0)" xlink:href="#ac"/><use transform="matrix(0.05,0,0,0.05,24.950000000000003,0)" xlink:href="#aj"/><use transform="matrix(0.05,0,0,0.05,36.95,0)" xlink:href="#T"/><use transform="matrix(0.05,0,0,0.05,46.95,0)" xlink:href="#Q"/><use transform="matrix(0.05,0,0,0.05,51.95,0)" xlink:href="#U"/></g><path d="M30 0v-248h33v221h125V0H30" id="ak"/><path d="M100-194c62-1 85 37 85 99 1 63-27 99-86 99S16-35 15-95c0-66 28-99 85-99zM99-20c44 1 53-31 53-75 0-43-8-75-51-75s-53 32-53 75 10 74 51 75" id="al"/><g id="h"><use transform="matrix(0.05,0,0,0.05,0,0)" xlink:href="#V"/><use transform="matrix(0.05,0,0,0.05,5.95,0)" xlink:href="#ak"/><use transform="matrix(0.05,0,0,0.05,15.949999999999998,0)" xlink:href="#al"/><use transform="matrix(0.05,0,0,0.05,25.950000000000003,0)" xlink:href="#W"/><use transform="matrix(0.05,0,0,0.05,35.95,0)" xlink:href="#Z"/><use transform="matrix(0.05,0,0,0.05,45.95,0)" xlink:href="#ab"/></g><path d="M137 0h-34L2-248h35l83 218 83-218h36" id="am"/><g id="i"><use transform="matrix(0.05,0,0,0.05,0,0)" xlink:href="#O"/><use transform="matrix(0.05,0,0,0.05,12.950000000000001,0)" xlink:href="#ac"/><use transform="matrix(0.05,0,0,0.05,24.950000000000003,0)" xlink:href="#aj"/><use transform="matrix(0.05,0,0,0.05,36.95,0)" xlink:href="#T"/><use transform="matrix(0.05,0,0,0.05,46.95,0)" xlink:href="#am"/><use transform="matrix(0.05,0,0,0.05,58.95,0)" xlink:href="#ac"/><use transform="matrix(0.05,0,0,0.05,70.95,0)" xlink:href="#O"/></g><g id="j"><use transform="matrix(0.05,0,0,0.05,0,0)" xlink:href="#O"/><use transform="matrix(0.05,0,0,0.05,12.950000000000001,0)" xlink:href="#ac"/><use transform="matrix(0.05,0,0,0.05,24.950000000000003,0)" xlink:href="#aj"/><use transform="matrix(0.05,0,0,0.05,36.95,0)" xlink:href="#T"/><use transform="matrix(0.05,0,0,0.05,46.95,0)" xlink:href="#am"/><use transform="matrix(0.05,0,0,0.05,58.95,0)" xlink:href="#ac"/><use transform="matrix(0.05,0,0,0.05,70.95,0)" xlink:href="#O"/><use transform="matrix(0.05,0,0,0.05,83.9,0)" xlink:href="#aj"/><use transform="matrix(0.05,0,0,0.05,95.9,0)" xlink:href="#Q"/><use transform="matrix(0.05,0,0,0.05,100.9,0)" xlink:href="#R"/><use transform="matrix(0.05,0,0,0.05,114.9,0)" xlink:href="#S"/></g><g id="k"><use transform="matrix(0.05,0,0,0.05,0,0)" xlink:href="#V"/><use transform="matrix(0.05,0,0,0.05,5.95,0)" xlink:href="#aj"/><use transform="matrix(0.05,0,0,0.05,17.95,0)" xlink:href="#X"/><use transform="matrix(0.05,0,0,0.05,22.95,0)" xlink:href="#aa"/><use transform="matrix(0.05,0,0,0.05,28.899999999999995,0)" xlink:href="#ad"/><use transform="matrix(0.05,0,0,0.05,32.85,0)" xlink:href="#W"/><use transform="matrix(0.05,0,0,0.05,42.85,0)" xlink:href="#Z"/><use transform="matrix(0.05,0,0,0.05,52.85,0)" xlink:href="#ab"/></g><path d="M137-103V0h-34v-103L8-248h37l75 118 75-118h37" id="an"/><g id="l"><use transform="matrix(0.05,0,0,0.05,0,0)" xlink:href="#O"/><use transform="matrix(0.05,0,0,0.05,12.950000000000001,0)" xlink:href="#ac"/><use transform="matrix(0.05,0,0,0.05,24.950000000000003,0)" xlink:href="#aj"/><use transform="matrix(0.05,0,0,0.05,36.95,0)" xlink:href="#T"/><use transform="matrix(0.05,0,0,0.05,46.95,0)" xlink:href="#P"/><use transform="matrix(0.05,0,0,0.05,57.900000000000006,0)" xlink:href="#an"/><use transform="matrix(0.05,0,0,0.05,69.9,0)" xlink:href="#M"/><use transform="matrix(0.05,0,0,0.05,81.9,0)" xlink:href="#ac"/></g><path d="M197 0v-115H63V0H30v-248h33v105h134v-105h34V0h-34" id="ao"/><path d="M101-251c82-7 93 87 43 132L82-64C71-53 59-42 53-27h129V0H18c2-99 128-94 128-182 0-28-16-43-45-43s-46 15-49 41l-32-3c6-41 34-60 81-64" id="ap"/><path d="M54-142c48-35 137-8 131 61C196 18 31 33 14-55l32-4c7 23 22 37 52 37 35-1 51-22 54-58 4-55-73-65-99-34H22l8-134h141v27H59" id="aq"/><path d="M110-160c48 1 74 30 74 79 0 53-28 85-80 85-65 0-83-55-86-122-5-90 50-162 133-122 14 7 22 21 27 39l-31 6c-5-40-67-38-82-6-9 19-15 44-15 74 11-20 30-34 60-33zm-7 138c34 0 49-23 49-58s-16-56-50-56c-29 0-50 16-49 49 1 36 15 65 50 65" id="ar"/><g id="m"><use transform="matrix(0.05,0,0,0.05,0,0)" xlink:href="#ao"/><use transform="matrix(0.05,0,0,0.05,12.950000000000001,0)" xlink:href="#N"/><use transform="matrix(0.05,0,0,0.05,24.950000000000003,0)" xlink:href="#aj"/><use transform="matrix(0.05,0,0,0.05,36.95,0)" xlink:href="#ao"/><use transform="matrix(0.05,0,0,0.05,49.900000000000006,0)" xlink:href="#T"/><use transform="matrix(0.05,0,0,0.05,59.900000000000006,0)" xlink:href="#aj"/><use transform="matrix(0.05,0,0,0.05,71.9,0)" xlink:href="#ao"/><use transform="matrix(0.05,0,0,0.05,84.85000000000001,0)" xlink:href="#N"/><use transform="matrix(0.05,0,0,0.05,96.85000000000001,0)" xlink:href="#ap"/><use transform="matrix(0.05,0,0,0.05,106.85000000000001,0)" xlink:href="#aq"/><use transform="matrix(0.05,0,0,0.05,116.85000000000001,0)" xlink:href="#ar"/></g><path d="M232-93c-1 65-40 97-104 97C67 4 28-28 28-90v-158h33c8 89-33 224 67 224 102 0 64-133 71-224h33v155" id="as"/><path d="M160-131c35 5 61 23 61 61C221 17 115-2 30 0v-248c76 3 177-17 177 60 0 33-19 50-47 57zm-97-11c50-1 110 9 110-42 0-47-63-36-110-37v79zm0 115c55-2 124 14 124-45 0-56-70-42-124-44v89" id="at"/><g id="n"><use transform="matrix(0.05,0,0,0.05,0,0)" xlink:href="#O"/><use transform="matrix(0.05,0,0,0.05,12.950000000000001,0)" xlink:href="#ac"/><use transform="matrix(0.05,0,0,0.05,24.950000000000003,0)" xlink:href="#aj"/><use transform="matrix(0.05,0,0,0.05,36.95,0)" xlink:href="#T"/><use transform="matrix(0.05,0,0,0.05,46.95,0)" xlink:href="#M"/><use transform="matrix(0.05,0,0,0.05,58.95,0)" xlink:href="#as"/><use transform="matrix(0.05,0,0,0.05,71.9,0)" xlink:href="#at"/><use transform="matrix(0.05,0,0,0.05,83.9,0)" xlink:href="#ak"/><use transform="matrix(0.05,0,0,0.05,93.9,0)" xlink:href="#Q"/><use transform="matrix(0.05,0,0,0.05,98.9,0)" xlink:href="#aj"/><use transform="matrix(0.05,0,0,0.05,110.9,0)" xlink:href="#ao"/><use transform="matrix(0.05,0,0,0.05,123.85000000000001,0)" xlink:href="#ac"/><use transform="matrix(0.05,0,0,0.05,135.85000000000002,0)" xlink:href="#U"/></g><g id="o"><use transform="matrix(0.05,0,0,0.05,0,0)" xlink:href="#O"/><use transform="matrix(0.05,0,0,0.05,12.950000000000001,0)" xlink:href="#ac"/><use transform="matrix(0.05,0,0,0.05,24.950000000000003,0)" xlink:href="#aj"/><use transform="matrix(0.05,0,0,0.05,36.95,0)" xlink:href="#T"/><use transform="matrix(0.05,0,0,0.05,46.95,0)" xlink:href="#as"/><use transform="matrix(0.05,0,0,0.05,59.900000000000006,0)" xlink:href="#M"/><use transform="matrix(0.05,0,0,0.05,71.9,0)" xlink:href="#U"/><use transform="matrix(0.05,0,0,0.05,84.85000000000001,0)" xlink:href="#N"/><use transform="matrix(0.05,0,0,0.05,95.50000000000001,0)" xlink:href="#P"/><use transform="matrix(0.05,0,0,0.05,106.45,0)" xlink:href="#ac"/><use transform="matrix(0.05,0,0,0.05,118.45,0)" xlink:href="#U"/></g><g id="p"><use transform="matrix(0.05,0,0,0.05,0,0)" xlink:href="#O"/><use transform="matrix(0.05,0,0,0.05,12.950000000000001,0)" xlink:href="#ac"/><use transform="matrix(0.05,0,0,0.05,24.950000000000003,0)" xlink:href="#aj"/><use transform="matrix(0.05,0,0,0.05,36.95,0)" xlink:href="#T"/><use transform="matrix(0.05,0,0,0.05,46.95,0)" xlink:href="#U"/><use transform="matrix(0.05,0,0,0.05,59.900000000000006,0)" xlink:href="#ac"/><use transform="matrix(0.05,0,0,0.05,71.9,0)" xlink:href="#ak"/><use transform="matrix(0.05,0,0,0.05,81.9,0)" xlink:href="#ac"/><use transform="matrix(0.05,0,0,0.05,93.9,0)" xlink:href="#P"/><use transform="matrix(0.05,0,0,0.05,104.85000000000001,0)" xlink:href="#ac"/><use transform="matrix(0.05,0,0,0.05,116.85000000000001,0)" xlink:href="#U"/><use transform="matrix(0.05,0,0,0.05,129.8,0)" xlink:href="#T"/><use transform="matrix(0.05,0,0,0.05,139.8,0)" xlink:href="#N"/><use transform="matrix(0.05,0,0,0.05,150.45000000000002,0)" xlink:href="#P"/></g><path d="M147 0H94L2-248h55l64 206c17-72 42-137 63-206h54" id="au"/><g id="q"><use transform="matrix(0.05,0,0,0.05,0,0)" xlink:href="#C"/><use transform="matrix(0.05,0,0,0.05,12.950000000000001,0)" xlink:href="#D"/><use transform="matrix(0.05,0,0,0.05,23.900000000000002,0)" xlink:href="#E"/><use transform="matrix(0.05,0,0,0.05,33.900000000000006,0)" xlink:href="#F"/><use transform="matrix(0.05,0,0,0.05,43.900000000000006,0)" xlink:href="#G"/><use transform="matrix(0.05,0,0,0.05,56.85,0)" xlink:href="#H"/><use transform="matrix(0.05,0,0,0.05,68.85000000000001,0)" xlink:href="#I"/><use transform="matrix(0.05,0,0,0.05,80.85000000000001,0)" xlink:href="#F"/><use transform="matrix(0.05,0,0,0.05,90.85000000000001,0)" xlink:href="#au"/><use transform="matrix(0.05,0,0,0.05,102.85000000000001,0)" xlink:href="#H"/><use transform="matrix(0.05,0,0,0.05,114.85000000000001,0)" xlink:href="#G"/></g><g id="r"><use transform="matrix(0.05,0,0,0.05,0,0)" xlink:href="#M"/><use transform="matrix(0.05,0,0,0.05,12,0)" xlink:href="#Q"/><use transform="matrix(0.05,0,0,0.05,17,0)" xlink:href="#U"/></g><path d="M63-220v92h138v28H63V0H30v-248h175v28H63" id="av"/><g id="s"><use transform="matrix(0.05,0,0,0.05,0,0)" xlink:href="#av"/><use transform="matrix(0.05,0,0,0.05,10.950000000000001,0)" xlink:href="#ai"/></g><g id="t"><use transform="matrix(0.05,0,0,0.05,0,0)" xlink:href="#O"/><use transform="matrix(0.05,0,0,0.05,12.950000000000001,0)" xlink:href="#ac"/><use transform="matrix(0.05,0,0,0.05,24.950000000000003,0)" xlink:href="#aj"/><use transform="matrix(0.05,0,0,0.05,36.95,0)" xlink:href="#T"/><use transform="matrix(0.05,0,0,0.05,46.95,0)" xlink:href="#Q"/><use transform="matrix(0.05,0,0,0.05,51.95,0)" xlink:href="#U"/></g><g id="u"><use transform="matrix(0.05,0,0,0.05,0,0)" xlink:href="#V"/><use transform="matrix(0.05,0,0,0.05,5.95,0)" xlink:href="#ak"/><use transform="matrix(0.05,0,0,0.05,15.949999999999998,0)" xlink:href="#al"/><use transform="matrix(0.05,0,0,0.05,25.950000000000003,0)" xlink:href="#W"/><use transform="matrix(0.05,0,0,0.05,35.95,0)" xlink:href="#Z"/><use transform="matrix(0.05,0,0,0.05,45.95,0)" xlink:href="#ab"/></g><path d="M212-179c-10-28-35-45-73-45-59 0-87 40-87 99 0 60 29 101 89 101 43 0 62-24 78-52l27 14C228-24 195 4 139 4 59 4 22-46 18-125c-6-104 99-153 187-111 19 9 31 26 39 46" id="aw"/><path d="M143 4C61 4 22-44 18-125c-5-107 100-154 193-111 17 8 29 25 37 43l-32 9c-13-25-37-40-76-40-61 0-88 39-88 99 0 61 29 100 91 101 35 0 62-11 79-27v-45h-74v-28h105v86C228-13 192 4 143 4" id="ax"/><g id="v"><use transform="matrix(0.05,0,0,0.05,0,0)" xlink:href="#O"/><use transform="matrix(0.05,0,0,0.05,12.950000000000001,0)" xlink:href="#ac"/><use transform="matrix(0.05,0,0,0.05,24.950000000000003,0)" xlink:href="#aj"/><use transform="matrix(0.05,0,0,0.05,36.95,0)" xlink:href="#T"/><use transform="matrix(0.05,0,0,0.05,46.95,0)" xlink:href="#ac"/><use transform="matrix(0.05,0,0,0.05,58.95,0)" xlink:href="#S"/><use transform="matrix(0.05,0,0,0.05,71.9,0)" xlink:href="#aw"/><use transform="matrix(0.05,0,0,0.05,84.85000000000001,0)" xlink:href="#R"/><use transform="matrix(0.05,0,0,0.05,98.85000000000001,0)" xlink:href="#U"/><use transform="matrix(0.05,0,0,0.05,111.80000000000001,0)" xlink:href="#Q"/><use transform="matrix(0.05,0,0,0.05,116.80000000000001,0)" xlink:href="#S"/><use transform="matrix(0.05,0,0,0.05,129.75,0)" xlink:href="#ax"/></g><path d="M195 0l-74-108L45 0H8l94-129-87-119h37l69 98 67-98h37l-84 118L233 0h-38" id="ay"/><g id="w"><use transform="matrix(0.05,0,0,0.05,0,0)" xlink:href="#O"/><use transform="matrix(0.05,0,0,0.05,12.950000000000001,0)" xlink:href="#ac"/><use transform="matrix(0.05,0,0,0.05,24.950000000000003,0)" xlink:href="#aj"/><use transform="matrix(0.05,0,0,0.05,36.95,0)" xlink:href="#T"/><use transform="matrix(0.05,0,0,0.05,46.95,0)" xlink:href="#P"/><use transform="matrix(0.05,0,0,0.05,57.900000000000006,0)" xlink:href="#ac"/><use transform="matrix(0.05,0,0,0.05,69.9,0)" xlink:href="#ay"/><use transform="matrix(0.05,0,0,0.05,81.9,0)" xlink:href="#P"/></g><path d="M115-194c53 0 69 39 70 98 0 66-23 100-70 100C84 3 66-7 56-30L54 0H23l1-261h32v101c10-23 28-34 59-34zm-8 174c40 0 45-34 45-75 0-40-5-75-45-74-42 0-51 32-51 76 0 43 10 73 51 73" id="az"/><path d="M179-190L93 31C79 59 56 82 12 73V49c39 6 53-20 64-50L1-190h34L92-34l54-156h33" id="aA"/><path d="M26 75v-336h71v23H56V52h41v23H26" id="aB"/><path d="M3 75V52h41v-290H3v-23h71V75H3" id="aC"/><g id="x"><use transform="matrix(0.05,0,0,0.05,0,0)" xlink:href="#V"/><use transform="matrix(0.05,0,0,0.05,5.95,0)" xlink:href="#az"/><use transform="matrix(0.05,0,0,0.05,15.949999999999998,0)" xlink:href="#aA"/><use transform="matrix(0.05,0,0,0.05,24.95,0)" xlink:href="#X"/><use transform="matrix(0.05,0,0,0.05,29.950000000000003,0)" xlink:href="#Y"/><use transform="matrix(0.05,0,0,0.05,39.95,0)" xlink:href="#aB"/><use transform="matrix(0.05,0,0,0.05,44.95,0)" xlink:href="#aC"/><use transform="matrix(0.05,0,0,0.05,49.95,0)" xlink:href="#ab"/></g><path d="M24-248c120-7 223 5 221 122C244-46 201 0 124 0H24v-248zM76-40c74 7 117-18 117-86 0-67-45-88-117-82v168" id="aD"/><path d="M24 0v-248h52V0H24" id="aE"/><g id="y"><use transform="matrix(0.05,0,0,0.05,0,0)" xlink:href="#C"/><use transform="matrix(0.05,0,0,0.05,12.950000000000001,0)" xlink:href="#D"/><use transform="matrix(0.05,0,0,0.05,23.900000000000002,0)" xlink:href="#E"/><use transform="matrix(0.05,0,0,0.05,33.900000000000006,0)" xlink:href="#F"/><use transform="matrix(0.05,0,0,0.05,43.900000000000006,0)" xlink:href="#D"/><use transform="matrix(0.05,0,0,0.05,54.85,0)" xlink:href="#J"/><use transform="matrix(0.05,0,0,0.05,68.85000000000001,0)" xlink:href="#G"/><use transform="matrix(0.05,0,0,0.05,81.80000000000001,0)" xlink:href="#L"/><use transform="matrix(0.05,0,0,0.05,94.75000000000001,0)" xlink:href="#H"/><use transform="matrix(0.05,0,0,0.05,106.75,0)" xlink:href="#aD"/><use transform="matrix(0.05,0,0,0.05,119.7,0)" xlink:href="#F"/><use transform="matrix(0.05,0,0,0.05,129.70000000000002,0)" xlink:href="#aE"/><use transform="matrix(0.05,0,0,0.05,134.70000000000002,0)" xlink:href="#aD"/></g><g id="z"><use transform="matrix(0.05,0,0,0.05,0,0)" xlink:href="#O"/><use transform="matrix(0.05,0,0,0.05,12.950000000000001,0)" xlink:href="#ac"/><use transform="matrix(0.05,0,0,0.05,24.950000000000003,0)" xlink:href="#aj"/><use transform="matrix(0.05,0,0,0.05,36.95,0)" xlink:href="#R"/><use transform="matrix(0.05,0,0,0.05,50.95,0)" xlink:href="#as"/><use transform="matrix(0.05,0,0,0.05,63.900000000000006,0)" xlink:href="#O"/><use transform="matrix(0.05,0,0,0.05,76.85000000000001,0)" xlink:href="#aw"/><use transform="matrix(0.05,0,0,0.05,89.80000000000001,0)" xlink:href="#ac"/><use transform="matrix(0.05,0,0,0.05,101.80000000000001,0)" xlink:href="#T"/><use transform="matrix(0.05,0,0,0.05,111.80000000000001,0)" xlink:href="#M"/><use transform="matrix(0.05,0,0,0.05,123.80000000000001,0)" xlink:href="#Q"/><use transform="matrix(0.05,0,0,0.05,128.8,0)" xlink:href="#U"/></g><g id="A"><use transform="matrix(0.05,0,0,0.05,0,0)" xlink:href="#av"/><use transform="matrix(0.05,0,0,0.05,10.950000000000001,0)" xlink:href="#R"/><use transform="matrix(0.05,0,0,0.05,24.950000000000003,0)" xlink:href="#O"/><use transform="matrix(0.05,0,0,0.05,37.900000000000006,0)" xlink:href="#aw"/><use transform="matrix(0.05,0,0,0.05,50.85000000000001,0)" xlink:href="#ac"/><use transform="matrix(0.05,0,0,0.05,62.85,0)" xlink:href="#U"/><use transform="matrix(0.05,0,0,0.05,75.80000000000001,0)" xlink:href="#T"/><use transform="matrix(0.05,0,0,0.05,85.80000000000001,0)" xlink:href="#Q"/><use transform="matrix(0.05,0,0,0.05,90.80000000000001,0)" xlink:href="#U"/></g><g id="B"><use transform="matrix(0.05,0,0,0.05,0,0)" xlink:href="#V"/><use transform="matrix(0.05,0,0,0.05,5.95,0)" xlink:href="#aj"/><use transform="matrix(0.05,0,0,0.05,17.95,0)" xlink:href="#X"/><use transform="matrix(0.05,0,0,0.05,22.95,0)" xlink:href="#aa"/><use transform="matrix(0.05,0,0,0.05,28.899999999999995,0)" xlink:href="#ad"/><use transform="matrix(0.05,0,0,0.05,32.85,0)" xlink:href="#W"/><use transform="matrix(0.05,0,0,0.05,42.85,0)" xlink:href="#Z"/><use transform="matrix(0.05,0,0,0.05,52.85,0)" xlink:href="#ab"/></g></defs></g></svg>