<svg xmlns="http://www.w3.org/2000/svg" xmlns:xlink="http://www.w3.org/1999/xlink" xmlns:lucid="lucid" width="920" height="400"><g transform="translate(-260 -240)" lucid:page-tab-id="nBqQybMt1J-_"><path d="M280 260h300v72H280z" fill="#83bbe5"/><path d="M280 260h300v72H280zM280 300h300M340 300v32" stroke="#0c7cba" stroke-width="4" fill="none"/><use xlink:href="#a" transform="matrix(1,0,0,1,290,260) translate(67.14999999999999 23.6)"/><use xlink:href="#b" transform="matrix(1,0,0,1,285,302.5) translate(13 17.1)"/><use xlink:href="#c" transform="matrix(1,0,0,1,345,302.5) translate(0 17.1)"/><use xlink:href="#d" transform="matrix(1,0,0,1,345,302.5) translate(69.9 17.1)"/><path d="M740 260h420v360H740z" fill="#c1e4f7"/><path d="M740 260h420v360H740zM740 300h420M800 300v320" stroke="#0c7cba" stroke-width="2" fill="none"/><use xlink:href="#e" transform="matrix(1,0,0,1,750,260) translate(133.64999999999998 23.6)"/><use xlink:href="#f" transform="matrix(1,0,0,1,805,302.5) translate(0 17.1)"/><use xlink:href="#g" transform="matrix(1,0,0,1,805,302.5) translate(127.05000000000001 17.1)"/><use xlink:href="#h" transform="matrix(1,0,0,1,805,334.5) translate(0 17.1)"/><use xlink:href="#i" transform="matrix(1,0,0,1,805,334.5) translate(155.65 17.1)"/><use xlink:href="#b" transform="matrix(1,0,0,1,745,366.5) translate(13 17.1)"/><use xlink:href="#j" transform="matrix(1,0,0,1,805,366.5) translate(0 17.1)"/><use xlink:href="#d" transform="matrix(1,0,0,1,805,366.5) translate(34.95 17.1)"/><use xlink:href="#k" transform="matrix(1,0,0,1,805,398.5) translate(0 17.1)"/><use xlink:href="#l" transform="matrix(1,0,0,1,805,430.5) translate(0 17.1)"/><use xlink:href="#m" transform="matrix(1,0,0,1,805,430.5) translate(250.59999999999997 17.1)"/><use xlink:href="#n" transform="matrix(1,0,0,1,745,462.5) translate(13.524999999999999 17.1)"/><use xlink:href="#o" transform="matrix(1,0,0,1,805,462.5) translate(0 17.1)"/><use xlink:href="#p" transform="matrix(1,0,0,1,805,462.5) translate(182.65 17.1)"/><use xlink:href="#q" transform="matrix(1,0,0,1,805,494.5) translate(0 17.1)"/><use xlink:href="#m" transform="matrix(1,0,0,1,805,494.5) translate(245.24999999999994 17.1)"/><use xlink:href="#n" transform="matrix(1,0,0,1,745,526.5) translate(13.524999999999999 17.1)"/><use xlink:href="#r" transform="matrix(1,0,0,1,805,526.5) translate(0 17.1)"/><use xlink:href="#p" transform="matrix(1,0,0,1,805,526.5) translate(216.24999999999994 17.1)"/><use xlink:href="#s" transform="matrix(1,0,0,1,805,558.5) translate(0 17.1)"/><use xlink:href="#m" transform="matrix(1,0,0,1,805,558.5) translate(233.54999999999993 17.1)"/><use xlink:href="#t" transform="matrix(1,0,0,1,805,590.5) translate(0 17.1)"/><use xlink:href="#i" transform="matrix(1,0,0,1,805,590.5) translate(123.45000000000002 17.1)"/><path d="M720.18 476H660.5V316.27H602" stroke="#000" stroke-width="2" fill="none"/><path d="M738.55 486l-20-10 20-10M738.55 476h-20M602 326.27v-20M582 316.27h20" stroke="#000" stroke-width="2" fill="#fff"/><path d="M700 540h-39.5V316.27H602" stroke="#000" stroke-width="2" fill="none"/><path d="M738.55 550l-20-10 20-10M738.55 540h-20M718.55 540c0 5.52-4.47 10-10 10-5.52 0-10-4.48-10-10s4.48-10 10-10c5.53 0 10 4.48 10 10M602 326.27v-20M582 316.27h20" stroke="#000" stroke-width="2" fill="#fff"/><defs><path d="M186 0v-106H76V0H24v-248h52v99h110v-99h50V0h-50" id="u"/><path d="M76-208v77h127v40H76V0H24v-248h183v40H76" id="v"/><path d="M176-78C186 10 51 31 16-35c-5-9-9-19-11-32l52-8c4 21 12 37 35 38 23 0 32-16 32-40v-130H75v-41h101v170" id="w"/><path d="M-4 44V30h207v14H-4" id="x"/><path d="M240-174c0 40-23 61-54 70L253 0h-59l-57-94H76V0H24v-248c93 4 217-23 216 74zM76-134c48-2 112 12 112-38 0-48-66-32-112-35v73" id="y"/><path d="M24 0v-248h195v40H76v63h132v40H76v65h150V0H24" id="z"/><path d="M169-182c-1-43-94-46-97-3 18 66 151 10 154 114 3 95-165 93-204 36-6-8-10-19-12-30l50-8c3 46 112 56 116 5-17-69-150-10-154-114-4-87 153-88 188-35 5 8 8 18 10 28" id="A"/><path d="M140-251c80 0 125 45 125 126S219 4 139 4C58 4 15-44 15-125s44-126 125-126zm-1 214c52 0 73-35 73-88 0-50-21-86-72-86-52 0-73 35-73 86s22 88 72 88" id="B"/><path d="M238-95c0 69-44 99-111 99C63 4 22-25 22-93v-155h51v151c-1 38 19 59 55 60 90 1 49-130 58-211h52v153" id="C"/><path d="M67-125c0 53 21 87 73 88 37 1 54-22 65-47l45 17C233-25 199 4 140 4 58 4 20-42 15-125 8-235 124-281 211-232c18 10 29 29 36 50l-46 12c-8-25-30-41-62-41-52 0-71 34-72 86" id="D"/><g id="a"><use transform="matrix(0.05,0,0,0.05,0,0)" xlink:href="#u"/><use transform="matrix(0.05,0,0,0.05,12.950000000000001,0)" xlink:href="#v"/><use transform="matrix(0.05,0,0,0.05,23.900000000000002,0)" xlink:href="#w"/><use transform="matrix(0.05,0,0,0.05,33.900000000000006,0)" xlink:href="#x"/><use transform="matrix(0.05,0,0,0.05,43.900000000000006,0)" xlink:href="#y"/><use transform="matrix(0.05,0,0,0.05,56.85,0)" xlink:href="#z"/><use transform="matrix(0.05,0,0,0.05,68.85000000000001,0)" xlink:href="#A"/><use transform="matrix(0.05,0,0,0.05,80.85000000000001,0)" xlink:href="#B"/><use transform="matrix(0.05,0,0,0.05,94.85000000000001,0)" xlink:href="#C"/><use transform="matrix(0.05,0,0,0.05,107.80000000000001,0)" xlink:href="#y"/><use transform="matrix(0.05,0,0,0.05,120.75,0)" xlink:href="#D"/><use transform="matrix(0.05,0,0,0.05,133.70000000000002,0)" xlink:href="#z"/></g><path d="M30-248c87 1 191-15 191 75 0 78-77 80-158 76V0H30v-248zm33 125c57 0 124 11 124-50 0-59-68-47-124-48v98" id="E"/><path d="M194 0L95-120 63-95V0H30v-248h33v124l119-124h40L117-140 236 0h-42" id="F"/><g id="b"><use transform="matrix(0.05,0,0,0.05,0,0)" xlink:href="#E"/><use transform="matrix(0.05,0,0,0.05,12,0)" xlink:href="#F"/></g><path d="M233-177c-1 41-23 64-60 70L243 0h-38l-65-103H63V0H30v-248c88 3 205-21 203 71zM63-129c60-2 137 13 137-47 0-61-80-42-137-45v92" id="G"/><path d="M30 0v-248h187v28H63v79h144v27H63v87h162V0H30" id="H"/><path d="M185-189c-5-48-123-54-124 2 14 75 158 14 163 119 3 78-121 87-175 55-17-10-28-26-33-46l33-7c5 56 141 63 141-1 0-78-155-14-162-118-5-82 145-84 179-34 5 7 8 16 11 25" id="I"/><path d="M-5 72V49h209v23H-5" id="J"/><path d="M33 0v-248h34V0H33" id="K"/><path d="M30-248c118-7 216 8 213 122C240-48 200 0 122 0H30v-248zM63-27c89 8 146-16 146-99s-60-101-146-95v194" id="L"/><g id="c"><use transform="matrix(0.05,0,0,0.05,0,0)" xlink:href="#G"/><use transform="matrix(0.05,0,0,0.05,12.950000000000001,0)" xlink:href="#H"/><use transform="matrix(0.05,0,0,0.05,24.950000000000003,0)" xlink:href="#I"/><use transform="matrix(0.05,0,0,0.05,36.95,0)" xlink:href="#J"/><use transform="matrix(0.05,0,0,0.05,46.95,0)" xlink:href="#K"/><use transform="matrix(0.05,0,0,0.05,51.95,0)" xlink:href="#L"/></g><path d="M87 75C49 33 22-17 22-94c0-76 28-126 65-167h31c-38 41-64 92-64 168S80 34 118 75H87" id="M"/><path d="M30 0v-248h33v221h125V0H30" id="N"/><path d="M100-194c62-1 85 37 85 99 1 63-27 99-86 99S16-35 15-95c0-66 28-99 85-99zM99-20c44 1 53-31 53-75 0-43-8-75-51-75s-53 32-53 75 10 74 51 75" id="O"/><path d="M117-194c89-4 53 116 60 194h-32v-121c0-31-8-49-39-48C34-167 62-67 57 0H25l-1-190h30c1 10-1 24 2 32 11-22 29-35 61-36" id="P"/><path d="M177-190C167-65 218 103 67 71c-23-6-38-20-44-43l32-5c15 47 100 32 89-28v-30C133-14 115 1 83 1 29 1 15-40 15-95c0-56 16-97 71-98 29-1 48 16 59 35 1-10 0-23 2-32h30zM94-22c36 0 50-32 50-73 0-42-14-75-50-75-39 0-46 34-46 75s6 73 46 73" id="Q"/><path d="M33-261c38 41 65 92 65 168S71 34 33 75H2C39 34 66-17 66-93S39-220 2-261h31" id="R"/><g id="d"><use transform="matrix(0.05,0,0,0.05,0,0)" xlink:href="#M"/><use transform="matrix(0.05,0,0,0.05,5.95,0)" xlink:href="#N"/><use transform="matrix(0.05,0,0,0.05,15.949999999999998,0)" xlink:href="#O"/><use transform="matrix(0.05,0,0,0.05,25.950000000000003,0)" xlink:href="#P"/><use transform="matrix(0.05,0,0,0.05,35.95,0)" xlink:href="#Q"/><use transform="matrix(0.05,0,0,0.05,45.95,0)" xlink:href="#R"/></g><path d="M24 0v-248h52v208h133V0H24" id="S"/><path d="M24 0v-248h52V0H24" id="T"/><path d="M175 0L67-191c6 58 2 128 3 191H24v-248h59L193-55c-6-58-2-129-3-193h46V0h-61" id="U"/><path d="M195 0l-88-114-31 24V0H24v-248h52v113l112-113h60L142-143 257 0h-62" id="V"/><g id="e"><use transform="matrix(0.05,0,0,0.05,0,0)" xlink:href="#u"/><use transform="matrix(0.05,0,0,0.05,12.950000000000001,0)" xlink:href="#v"/><use transform="matrix(0.05,0,0,0.05,23.900000000000002,0)" xlink:href="#w"/><use transform="matrix(0.05,0,0,0.05,33.900000000000006,0)" xlink:href="#x"/><use transform="matrix(0.05,0,0,0.05,43.900000000000006,0)" xlink:href="#y"/><use transform="matrix(0.05,0,0,0.05,56.85,0)" xlink:href="#z"/><use transform="matrix(0.05,0,0,0.05,68.85000000000001,0)" xlink:href="#A"/><use transform="matrix(0.05,0,0,0.05,80.85000000000001,0)" xlink:href="#x"/><use transform="matrix(0.05,0,0,0.05,90.85000000000001,0)" xlink:href="#S"/><use transform="matrix(0.05,0,0,0.05,101.80000000000001,0)" xlink:href="#T"/><use transform="matrix(0.05,0,0,0.05,106.80000000000001,0)" xlink:href="#U"/><use transform="matrix(0.05,0,0,0.05,119.75,0)" xlink:href="#V"/></g><path d="M205 0l-28-72H64L36 0H1l101-248h38L239 0h-34zm-38-99l-47-123c-12 45-31 82-46 123h93" id="W"/><path d="M127-220V0H93v-220H8v-28h204v28h-85" id="X"/><path d="M140-251c81 0 123 46 123 126C263-46 219 4 140 4 59 4 17-45 17-125s42-126 123-126zm0 227c63 0 89-41 89-101s-29-99-89-99c-61 0-89 39-89 99S79-25 140-24" id="Y"/><path d="M190 0L58-211 59 0H30v-248h39L202-35l-2-213h31V0h-41" id="Z"/><g id="f"><use transform="matrix(0.05,0,0,0.05,0,0)" xlink:href="#E"/><use transform="matrix(0.05,0,0,0.05,10.65,0)" xlink:href="#W"/><use transform="matrix(0.05,0,0,0.05,22.65,0)" xlink:href="#G"/><use transform="matrix(0.05,0,0,0.05,35.25,0)" xlink:href="#X"/><use transform="matrix(0.05,0,0,0.05,46.2,0)" xlink:href="#K"/><use transform="matrix(0.05,0,0,0.05,51.2,0)" xlink:href="#X"/><use transform="matrix(0.05,0,0,0.05,62.150000000000006,0)" xlink:href="#K"/><use transform="matrix(0.05,0,0,0.05,67.15,0)" xlink:href="#Y"/><use transform="matrix(0.05,0,0,0.05,81.15,0)" xlink:href="#Z"/><use transform="matrix(0.05,0,0,0.05,94.10000000000001,0)" xlink:href="#J"/><use transform="matrix(0.05,0,0,0.05,104.10000000000001,0)" xlink:href="#K"/><use transform="matrix(0.05,0,0,0.05,109.10000000000001,0)" xlink:href="#L"/></g><path d="M59-47c-2 24 18 29 38 22v24C64 9 27 4 27-40v-127H5v-23h24l9-43h21v43h35v23H59v120" id="aa"/><path d="M100-194c63 0 86 42 84 106H49c0 40 14 67 53 68 26 1 43-12 49-29l28 8c-11 28-37 45-77 45C44 4 14-33 15-96c1-61 26-98 85-98zm52 81c6-60-76-77-97-28-3 7-6 17-6 28h103" id="ab"/><path d="M114-163C36-179 61-72 57 0H25l-1-190h30c1 12-1 29 2 39 6-27 23-49 58-41v29" id="ac"/><g id="g"><use transform="matrix(0.05,0,0,0.05,0,0)" xlink:href="#M"/><use transform="matrix(0.05,0,0,0.05,5.95,0)" xlink:href="#K"/><use transform="matrix(0.05,0,0,0.05,10.95,0)" xlink:href="#P"/><use transform="matrix(0.05,0,0,0.05,20.95,0)" xlink:href="#aa"/><use transform="matrix(0.05,0,0,0.05,25.950000000000003,0)" xlink:href="#ab"/><use transform="matrix(0.05,0,0,0.05,35.95,0)" xlink:href="#Q"/><use transform="matrix(0.05,0,0,0.05,45.95,0)" xlink:href="#ab"/><use transform="matrix(0.05,0,0,0.05,55.95,0)" xlink:href="#ac"/><use transform="matrix(0.05,0,0,0.05,61.900000000000006,0)" xlink:href="#R"/></g><g id="h"><use transform="matrix(0.05,0,0,0.05,0,0)" xlink:href="#E"/><use transform="matrix(0.05,0,0,0.05,10.65,0)" xlink:href="#W"/><use transform="matrix(0.05,0,0,0.05,22.65,0)" xlink:href="#G"/><use transform="matrix(0.05,0,0,0.05,35.25,0)" xlink:href="#X"/><use transform="matrix(0.05,0,0,0.05,46.2,0)" xlink:href="#K"/><use transform="matrix(0.05,0,0,0.05,51.2,0)" xlink:href="#X"/><use transform="matrix(0.05,0,0,0.05,62.150000000000006,0)" xlink:href="#K"/><use transform="matrix(0.05,0,0,0.05,67.15,0)" xlink:href="#Y"/><use transform="matrix(0.05,0,0,0.05,81.15,0)" xlink:href="#Z"/><use transform="matrix(0.05,0,0,0.05,94.10000000000001,0)" xlink:href="#J"/><use transform="matrix(0.05,0,0,0.05,104.10000000000001,0)" xlink:href="#L"/><use transform="matrix(0.05,0,0,0.05,117.05000000000001,0)" xlink:href="#W"/><use transform="matrix(0.05,0,0,0.05,127.7,0)" xlink:href="#X"/><use transform="matrix(0.05,0,0,0.05,138.65,0)" xlink:href="#H"/></g><path d="M24-231v-30h32v30H24zM24 0v-190h32V0H24" id="ad"/><path d="M210-169c-67 3-38 105-44 169h-31v-121c0-29-5-50-35-48C34-165 62-65 56 0H25l-1-190h30c1 10-1 24 2 32 10-44 99-50 107 0 11-21 27-35 58-36 85-2 47 119 55 194h-31v-121c0-29-5-49-35-48" id="ae"/><path d="M135-143c-3-34-86-38-87 0 15 53 115 12 119 90S17 21 10-45l28-5c4 36 97 45 98 0-10-56-113-15-118-90-4-57 82-63 122-42 12 7 21 19 24 35" id="af"/><path d="M141-36C126-15 110 5 73 4 37 3 15-17 15-53c-1-64 63-63 125-63 3-35-9-54-41-54-24 1-41 7-42 31l-33-3c5-37 33-52 76-52 45 0 72 20 72 64v82c-1 20 7 32 28 27v20c-31 9-61-2-59-35zM48-53c0 20 12 33 32 33 41-3 63-29 60-74-43 2-92-5-92 41" id="ag"/><path d="M115-194c55 1 70 41 70 98S169 2 115 4C84 4 66-9 55-30l1 105H24l-1-265h31l2 30c10-21 28-34 59-34zm-8 174c40 0 45-34 45-75s-6-73-45-74c-42 0-51 32-51 76 0 43 10 73 51 73" id="ah"/><g id="i"><use transform="matrix(0.05,0,0,0.05,0,0)" xlink:href="#M"/><use transform="matrix(0.05,0,0,0.05,5.95,0)" xlink:href="#X"/><use transform="matrix(0.05,0,0,0.05,16.25,0)" xlink:href="#ad"/><use transform="matrix(0.05,0,0,0.05,20.2,0)" xlink:href="#ae"/><use transform="matrix(0.05,0,0,0.05,35.15,0)" xlink:href="#ab"/><use transform="matrix(0.05,0,0,0.05,45.15,0)" xlink:href="#af"/><use transform="matrix(0.05,0,0,0.05,54.150000000000006,0)" xlink:href="#aa"/><use transform="matrix(0.05,0,0,0.05,59.150000000000006,0)" xlink:href="#ag"/><use transform="matrix(0.05,0,0,0.05,69.15,0)" xlink:href="#ae"/><use transform="matrix(0.05,0,0,0.05,84.10000000000001,0)" xlink:href="#ah"/><use transform="matrix(0.05,0,0,0.05,94.10000000000001,0)" xlink:href="#R"/></g><g id="j"><use transform="matrix(0.05,0,0,0.05,0,0)" xlink:href="#E"/><use transform="matrix(0.05,0,0,0.05,12,0)" xlink:href="#K"/><use transform="matrix(0.05,0,0,0.05,17,0)" xlink:href="#L"/></g><path d="M212-179c-10-28-35-45-73-45-59 0-87 40-87 99 0 60 29 101 89 101 43 0 62-24 78-52l27 14C228-24 195 4 139 4 59 4 22-46 18-125c-6-104 99-153 187-111 19 9 31 26 39 46" id="ai"/><path d="M197 0v-115H63V0H30v-248h33v105h134v-105h34V0h-34" id="aj"/><g id="k"><use transform="matrix(0.05,0,0,0.05,0,0)" xlink:href="#I"/><use transform="matrix(0.05,0,0,0.05,12,0)" xlink:href="#G"/><use transform="matrix(0.05,0,0,0.05,24.950000000000003,0)" xlink:href="#ai"/><use transform="matrix(0.05,0,0,0.05,37.900000000000006,0)" xlink:href="#J"/><use transform="matrix(0.05,0,0,0.05,47.900000000000006,0)" xlink:href="#E"/><use transform="matrix(0.05,0,0,0.05,58.550000000000004,0)" xlink:href="#W"/><use transform="matrix(0.05,0,0,0.05,69.2,0)" xlink:href="#X"/><use transform="matrix(0.05,0,0,0.05,80.15,0)" xlink:href="#aj"/></g><path d="M232-93c-1 65-40 97-104 97C67 4 28-28 28-90v-158h33c8 89-33 224 67 224 102 0 64-133 71-224h33v155" id="ak"/><path d="M137-103V0h-34v-103L8-248h37l75 118 75-118h37" id="al"/><g id="l"><use transform="matrix(0.05,0,0,0.05,0,0)" xlink:href="#I"/><use transform="matrix(0.05,0,0,0.05,12,0)" xlink:href="#Y"/><use transform="matrix(0.05,0,0,0.05,26,0)" xlink:href="#ak"/><use transform="matrix(0.05,0,0,0.05,38.95,0)" xlink:href="#G"/><use transform="matrix(0.05,0,0,0.05,51.900000000000006,0)" xlink:href="#ai"/><use transform="matrix(0.05,0,0,0.05,64.85000000000001,0)" xlink:href="#H"/><use transform="matrix(0.05,0,0,0.05,76.85000000000001,0)" xlink:href="#J"/><use transform="matrix(0.05,0,0,0.05,86.85000000000001,0)" xlink:href="#G"/><use transform="matrix(0.05,0,0,0.05,99.80000000000001,0)" xlink:href="#H"/><use transform="matrix(0.05,0,0,0.05,111.80000000000001,0)" xlink:href="#I"/><use transform="matrix(0.05,0,0,0.05,123.80000000000001,0)" xlink:href="#Y"/><use transform="matrix(0.05,0,0,0.05,137.8,0)" xlink:href="#ak"/><use transform="matrix(0.05,0,0,0.05,150.75,0)" xlink:href="#G"/><use transform="matrix(0.05,0,0,0.05,163.7,0)" xlink:href="#ai"/><use transform="matrix(0.05,0,0,0.05,176.64999999999998,0)" xlink:href="#H"/><use transform="matrix(0.05,0,0,0.05,188.64999999999998,0)" xlink:href="#J"/><use transform="matrix(0.05,0,0,0.05,198.64999999999998,0)" xlink:href="#X"/><use transform="matrix(0.05,0,0,0.05,209.59999999999997,0)" xlink:href="#al"/><use transform="matrix(0.05,0,0,0.05,221.59999999999997,0)" xlink:href="#E"/><use transform="matrix(0.05,0,0,0.05,233.59999999999997,0)" xlink:href="#H"/></g><g id="m"><use transform="matrix(0.05,0,0,0.05,0,0)" xlink:href="#M"/><use transform="matrix(0.05,0,0,0.05,5.95,0)" xlink:href="#I"/><use transform="matrix(0.05,0,0,0.05,17.95,0)" xlink:href="#aa"/><use transform="matrix(0.05,0,0,0.05,22.95,0)" xlink:href="#ac"/><use transform="matrix(0.05,0,0,0.05,28.899999999999995,0)" xlink:href="#ad"/><use transform="matrix(0.05,0,0,0.05,32.85,0)" xlink:href="#P"/><use transform="matrix(0.05,0,0,0.05,42.85,0)" xlink:href="#Q"/><use transform="matrix(0.05,0,0,0.05,52.85,0)" xlink:href="#R"/></g><path d="M63-220v92h138v28H63V0H30v-248h175v28H63" id="am"/><g id="n"><use transform="matrix(0.05,0,0,0.05,0,0)" xlink:href="#am"/><use transform="matrix(0.05,0,0,0.05,10.950000000000001,0)" xlink:href="#F"/></g><g id="o"><use transform="matrix(0.05,0,0,0.05,0,0)" xlink:href="#I"/><use transform="matrix(0.05,0,0,0.05,12,0)" xlink:href="#G"/><use transform="matrix(0.05,0,0,0.05,24.950000000000003,0)" xlink:href="#ai"/><use transform="matrix(0.05,0,0,0.05,37.900000000000006,0)" xlink:href="#J"/><use transform="matrix(0.05,0,0,0.05,47.900000000000006,0)" xlink:href="#G"/><use transform="matrix(0.05,0,0,0.05,60.85,0)" xlink:href="#H"/><use transform="matrix(0.05,0,0,0.05,72.85000000000001,0)" xlink:href="#I"/><use transform="matrix(0.05,0,0,0.05,84.85000000000001,0)" xlink:href="#Y"/><use transform="matrix(0.05,0,0,0.05,98.85000000000001,0)" xlink:href="#ak"/><use transform="matrix(0.05,0,0,0.05,111.80000000000001,0)" xlink:href="#G"/><use transform="matrix(0.05,0,0,0.05,124.75,0)" xlink:href="#ai"/><use transform="matrix(0.05,0,0,0.05,137.70000000000002,0)" xlink:href="#H"/><use transform="matrix(0.05,0,0,0.05,149.70000000000002,0)" xlink:href="#J"/><use transform="matrix(0.05,0,0,0.05,159.70000000000002,0)" xlink:href="#K"/><use transform="matrix(0.05,0,0,0.05,164.70000000000002,0)" xlink:href="#L"/></g><g id="p"><use transform="matrix(0.05,0,0,0.05,0,0)" xlink:href="#M"/><use transform="matrix(0.05,0,0,0.05,5.95,0)" xlink:href="#N"/><use transform="matrix(0.05,0,0,0.05,15.949999999999998,0)" xlink:href="#O"/><use transform="matrix(0.05,0,0,0.05,25.950000000000003,0)" xlink:href="#P"/><use transform="matrix(0.05,0,0,0.05,35.95,0)" xlink:href="#Q"/><use transform="matrix(0.05,0,0,0.05,45.95,0)" xlink:href="#R"/></g><path d="M143 4C61 4 22-44 18-125c-5-107 100-154 193-111 17 8 29 25 37 43l-32 9c-13-25-37-40-76-40-61 0-88 39-88 99 0 61 29 100 91 101 35 0 62-11 79-27v-45h-74v-28h105v86C228-13 192 4 143 4" id="an"/><g id="q"><use transform="matrix(0.05,0,0,0.05,0,0)" xlink:href="#X"/><use transform="matrix(0.05,0,0,0.05,9.600000000000001,0)" xlink:href="#W"/><use transform="matrix(0.05,0,0,0.05,21.6,0)" xlink:href="#G"/><use transform="matrix(0.05,0,0,0.05,34.550000000000004,0)" xlink:href="#an"/><use transform="matrix(0.05,0,0,0.05,48.550000000000004,0)" xlink:href="#H"/><use transform="matrix(0.05,0,0,0.05,60.550000000000004,0)" xlink:href="#X"/><use transform="matrix(0.05,0,0,0.05,71.5,0)" xlink:href="#J"/><use transform="matrix(0.05,0,0,0.05,81.5,0)" xlink:href="#G"/><use transform="matrix(0.05,0,0,0.05,94.45,0)" xlink:href="#H"/><use transform="matrix(0.05,0,0,0.05,106.45,0)" xlink:href="#I"/><use transform="matrix(0.05,0,0,0.05,118.45,0)" xlink:href="#Y"/><use transform="matrix(0.05,0,0,0.05,132.45,0)" xlink:href="#ak"/><use transform="matrix(0.05,0,0,0.05,145.39999999999998,0)" xlink:href="#G"/><use transform="matrix(0.05,0,0,0.05,158.34999999999997,0)" xlink:href="#ai"/><use transform="matrix(0.05,0,0,0.05,171.29999999999995,0)" xlink:href="#H"/><use transform="matrix(0.05,0,0,0.05,183.29999999999995,0)" xlink:href="#J"/><use transform="matrix(0.05,0,0,0.05,193.29999999999995,0)" xlink:href="#X"/><use transform="matrix(0.05,0,0,0.05,204.24999999999994,0)" xlink:href="#al"/><use transform="matrix(0.05,0,0,0.05,216.24999999999991,0)" xlink:href="#E"/><use transform="matrix(0.05,0,0,0.05,228.24999999999991,0)" xlink:href="#H"/></g><g id="r"><use transform="matrix(0.05,0,0,0.05,0,0)" xlink:href="#X"/><use transform="matrix(0.05,0,0,0.05,9.600000000000001,0)" xlink:href="#W"/><use transform="matrix(0.05,0,0,0.05,21.6,0)" xlink:href="#G"/><use transform="matrix(0.05,0,0,0.05,34.550000000000004,0)" xlink:href="#an"/><use transform="matrix(0.05,0,0,0.05,48.550000000000004,0)" xlink:href="#H"/><use transform="matrix(0.05,0,0,0.05,60.550000000000004,0)" xlink:href="#X"/><use transform="matrix(0.05,0,0,0.05,71.5,0)" xlink:href="#J"/><use transform="matrix(0.05,0,0,0.05,81.5,0)" xlink:href="#G"/><use transform="matrix(0.05,0,0,0.05,94.45,0)" xlink:href="#H"/><use transform="matrix(0.05,0,0,0.05,106.45,0)" xlink:href="#I"/><use transform="matrix(0.05,0,0,0.05,118.45,0)" xlink:href="#Y"/><use transform="matrix(0.05,0,0,0.05,132.45,0)" xlink:href="#ak"/><use transform="matrix(0.05,0,0,0.05,145.39999999999998,0)" xlink:href="#G"/><use transform="matrix(0.05,0,0,0.05,158.34999999999997,0)" xlink:href="#ai"/><use transform="matrix(0.05,0,0,0.05,171.29999999999995,0)" xlink:href="#H"/><use transform="matrix(0.05,0,0,0.05,183.29999999999995,0)" xlink:href="#J"/><use transform="matrix(0.05,0,0,0.05,193.29999999999995,0)" xlink:href="#K"/><use transform="matrix(0.05,0,0,0.05,198.29999999999995,0)" xlink:href="#L"/></g><g id="s"><use transform="matrix(0.05,0,0,0.05,0,0)" xlink:href="#X"/><use transform="matrix(0.05,0,0,0.05,9.600000000000001,0)" xlink:href="#W"/><use transform="matrix(0.05,0,0,0.05,21.6,0)" xlink:href="#G"/><use transform="matrix(0.05,0,0,0.05,34.550000000000004,0)" xlink:href="#an"/><use transform="matrix(0.05,0,0,0.05,48.550000000000004,0)" xlink:href="#H"/><use transform="matrix(0.05,0,0,0.05,60.550000000000004,0)" xlink:href="#X"/><use transform="matrix(0.05,0,0,0.05,71.5,0)" xlink:href="#J"/><use transform="matrix(0.05,0,0,0.05,81.5,0)" xlink:href="#G"/><use transform="matrix(0.05,0,0,0.05,94.45,0)" xlink:href="#H"/><use transform="matrix(0.05,0,0,0.05,106.45,0)" xlink:href="#I"/><use transform="matrix(0.05,0,0,0.05,118.45,0)" xlink:href="#Y"/><use transform="matrix(0.05,0,0,0.05,132.45,0)" xlink:href="#ak"/><use transform="matrix(0.05,0,0,0.05,145.39999999999998,0)" xlink:href="#G"/><use transform="matrix(0.05,0,0,0.05,158.34999999999997,0)" xlink:href="#ai"/><use transform="matrix(0.05,0,0,0.05,171.29999999999995,0)" xlink:href="#H"/><use transform="matrix(0.05,0,0,0.05,183.29999999999995,0)" xlink:href="#J"/><use transform="matrix(0.05,0,0,0.05,193.29999999999995,0)" xlink:href="#ak"/><use transform="matrix(0.05,0,0,0.05,206.24999999999991,0)" xlink:href="#G"/><use transform="matrix(0.05,0,0,0.05,219.19999999999993,0)" xlink:href="#N"/></g><g id="t"><use transform="matrix(0.05,0,0,0.05,0,0)" xlink:href="#I"/><use transform="matrix(0.05,0,0,0.05,12,0)" xlink:href="#E"/><use transform="matrix(0.05,0,0,0.05,24,0)" xlink:href="#J"/><use transform="matrix(0.05,0,0,0.05,34,0)" xlink:href="#ak"/><use transform="matrix(0.05,0,0,0.05,46.95,0)" xlink:href="#E"/><use transform="matrix(0.05,0,0,0.05,58.95,0)" xlink:href="#L"/><use transform="matrix(0.05,0,0,0.05,71.9,0)" xlink:href="#W"/><use transform="matrix(0.05,0,0,0.05,82.55000000000001,0)" xlink:href="#X"/><use transform="matrix(0.05,0,0,0.05,93.50000000000001,0)" xlink:href="#H"/><use transform="matrix(0.05,0,0,0.05,105.5,0)" xlink:href="#L"/></g></defs></g></svg>