<svg xmlns="http://www.w3.org/2000/svg" xmlns:xlink="http://www.w3.org/1999/xlink" xmlns:lucid="lucid" width="1011" height="1155.71"><g transform="translate(-20 -20)" lucid:page-tab-id="0_0"><path d="M440 445.84h360v249H440z" fill="#83bbe5"/><path d="M440 445.84h360v249H440zM440 485.84h360M502.4 485.84v209" stroke="#0c7cba" stroke-width="5" fill="none"/><use xlink:href="#a" transform="matrix(1,0,0,1,450,445.84000000000015) translate(19.684567901234658 24.488888888888887)"/><use xlink:href="#b" transform="matrix(1,0,0,1,445,488.34000000000015) translate(13.018518518518526 19.044444444444444)"/><use xlink:href="#c" transform="matrix(1,0,0,1,507.38852242744065,488.34000000000015) translate(0 19.544444444444444)"/><use xlink:href="#d" transform="matrix(1,0,0,1,507.38852242744065,488.34000000000015) translate(39.26481481481479 19.544444444444444)"/><use xlink:href="#e" transform="matrix(1,0,0,1,507.38852242744065,523.3400000000001) translate(0 19.544444444444444)"/><use xlink:href="#f" transform="matrix(1,0,0,1,507.38852242744065,523.3400000000001) translate(99.87530864197524 19.544444444444444)"/><use xlink:href="#g" transform="matrix(1,0,0,1,507.38852242744065,558.3400000000001) translate(0 19.544444444444444)"/><use xlink:href="#f" transform="matrix(1,0,0,1,507.38852242744065,558.3400000000001) translate(89.03395061728388 19.544444444444444)"/><use xlink:href="#h" transform="matrix(1,0,0,1,507.38852242744065,593.3400000000001) translate(0 19.544444444444444)"/><use xlink:href="#i" transform="matrix(1,0,0,1,507.38852242744065,593.3400000000001) translate(193.6839506172838 19.544444444444444)"/><use xlink:href="#j" transform="matrix(1,0,0,1,507.38852242744065,628.3400000000001) translate(0 19.544444444444444)"/><use xlink:href="#f" transform="matrix(1,0,0,1,507.38852242744065,628.3400000000001) translate(139.47716049382709 19.544444444444444)"/><use xlink:href="#k" transform="matrix(1,0,0,1,445,663.3400000000001) translate(13.608333333333334 18.544444444444444)"/><use xlink:href="#l" transform="matrix(1,0,0,1,507.38852242744065,663.3400000000001) translate(0 18.544444444444444)"/><use xlink:href="#m" transform="matrix(1,0,0,1,507.38852242744065,663.3400000000001) translate(154.47530864197535 18.544444444444444)"/><path d="M440 40h500v317H440z" fill="#83bbe5"/><path d="M440 40h500v317H440zM440 80h500M502.4 80v277" stroke="#0c7cba" stroke-width="5" fill="none"/><use xlink:href="#n" transform="matrix(1,0,0,1,450,40) translate(150.65864197530868 24.488888888888887)"/><use xlink:href="#b" transform="matrix(1,0,0,1,445,82.5) translate(13.018518518518526 19.044444444444444)"/><use xlink:href="#c" transform="matrix(1,0,0,1,507.38852242744065,82.5) translate(0 19.544444444444444)"/><use xlink:href="#d" transform="matrix(1,0,0,1,507.38852242744065,82.5) translate(39.26481481481479 19.544444444444444)"/><use xlink:href="#o" transform="matrix(1,0,0,1,507.38852242744065,117.5) translate(0 19.544444444444444)"/><use xlink:href="#f" transform="matrix(1,0,0,1,507.38852242744065,117.5) translate(209.74938271604924 19.544444444444444)"/><use xlink:href="#p" transform="matrix(1,0,0,1,507.38852242744065,152.5) translate(0 19.544444444444444)"/><use xlink:href="#f" transform="matrix(1,0,0,1,507.38852242744065,152.5) translate(90.88765432098761 19.544444444444444)"/><use xlink:href="#q" transform="matrix(1,0,0,1,445,187.5) translate(13.608333333333341 19.044444444444444)"/><use xlink:href="#r" transform="matrix(1,0,0,1,507.38852242744065,187.5) translate(0 19.544444444444444)"/><use xlink:href="#d" transform="matrix(1,0,0,1,507.38852242744065,187.5) translate(78.52962962962958 19.544444444444444)"/><use xlink:href="#s" transform="matrix(1,0,0,1,507.38852242744065,222.5) translate(0 19.544444444444444)"/><use xlink:href="#d" transform="matrix(1,0,0,1,507.38852242744065,222.5) translate(346.53024691358 19.544444444444444)"/><use xlink:href="#t" transform="matrix(1,0,0,1,507.38852242744065,257.5) translate(0 18.544444444444444)"/><use xlink:href="#m" transform="matrix(1,0,0,1,507.38852242744065,257.5) translate(192.11111111111106 18.544444444444444)"/><use xlink:href="#u" transform="matrix(1,0,0,1,507.38852242744065,291.5) translate(0 18.544444444444444)"/><use xlink:href="#v" transform="matrix(1,0,0,1,507.38852242744065,291.5) translate(45.21913580246913 18.544444444444444)"/><use xlink:href="#w" transform="matrix(1,0,0,1,507.38852242744065,325.5) translate(0 18.544444444444444)"/><use xlink:href="#v" transform="matrix(1,0,0,1,507.38852242744065,325.5) translate(47.12901234567901 18.544444444444444)"/><path d="M40 145.2h260v75H40z" fill="#83bbe5"/><path d="M40 145.2h260v75H40zM40 185.2h260M102.4 185.2v35" stroke="#0c7cba" stroke-width="5" fill="none"/><use xlink:href="#x" transform="matrix(1,0,0,1,50,145.21000000000004) translate(29.16234567901236 24.488888888888887)"/><use xlink:href="#b" transform="matrix(1,0,0,1,45,187.71000000000004) translate(13.018518518518526 19.044444444444444)"/><use xlink:href="#r" transform="matrix(1,0,0,1,107.38852242744065,187.71000000000004) translate(0 19.544444444444444)"/><use xlink:href="#d" transform="matrix(1,0,0,1,107.38852242744065,187.71000000000004) translate(78.52962962962958 19.544444444444444)"/><path d="M322.5 202.7H370v-.2h47.5" stroke="#333" stroke-width="2" fill="none"/><path d="M322.5 212.7v-20M302.5 202.7h20M417.5 192.5v20M437.5 202.5h-20" stroke="#333" stroke-width="2" fill="#fff"/><path d="M440 807.7h420v317H440z" fill="#83bbe5"/><path d="M440 807.7h420v317H440zM440 847.7h420M502.4 847.7v277" stroke="#0c7cba" stroke-width="5" fill="none"/><use xlink:href="#y" transform="matrix(1,0,0,1,450.00000000000006,807.7130758341472) translate(13.181172839506246 24.488888888888887)"/><use xlink:href="#b" transform="matrix(1,0,0,1,445.00000000000006,850.2130758341472) translate(13.018518518518526 19.044444444444444)"/><use xlink:href="#c" transform="matrix(1,0,0,1,507.3885224274407,850.2130758341472) translate(0 19.544444444444444)"/><use xlink:href="#d" transform="matrix(1,0,0,1,507.3885224274407,850.2130758341472) translate(39.26481481481479 19.544444444444444)"/><use xlink:href="#q" transform="matrix(1,0,0,1,445.00000000000006,885.2130758341472) translate(13.608333333333341 19.044444444444444)"/><use xlink:href="#z" transform="matrix(1,0,0,1,507.3885224274407,885.2130758341472) translate(0 19.544444444444444)"/><use xlink:href="#d" transform="matrix(1,0,0,1,507.3885224274407,885.2130758341472) translate(264.34938271604915 19.544444444444444)"/><use xlink:href="#A" transform="matrix(1,0,0,1,507.3885224274407,920.2130758341472) translate(0 19.544444444444444)"/><use xlink:href="#f" transform="matrix(1,0,0,1,507.3885224274407,920.2130758341472) translate(60.610493827160454 19.544444444444444)"/><use xlink:href="#B" transform="matrix(1,0,0,1,507.3885224274407,955.2130758341472) translate(0 19.544444444444444)"/><use xlink:href="#f" transform="matrix(1,0,0,1,507.3885224274407,955.2130758341472) translate(116.67098765432094 19.544444444444444)"/><use xlink:href="#C" transform="matrix(1,0,0,1,507.3885224274407,990.2130758341472) translate(0 19.544444444444444)"/><use xlink:href="#f" transform="matrix(1,0,0,1,507.3885224274407,990.2130758341472) translate(141.78024691358016 19.544444444444444)"/><g><use xlink:href="#D" transform="matrix(1,0,0,1,507.3885224274407,1025.2130758341473) translate(0 18.544444444444444)"/><use xlink:href="#v" transform="matrix(1,0,0,1,507.3885224274407,1025.2130758341473) translate(141.38703703703703 18.544444444444444)"/></g><g><use xlink:href="#E" transform="matrix(1,0,0,1,507.3885224274407,1059.2130758341473) translate(0 18.544444444444444)"/><use xlink:href="#v" transform="matrix(1,0,0,1,507.3885224274407,1059.2130758341473) translate(41.567901234567906 18.544444444444444)"/></g><g><use xlink:href="#k" transform="matrix(1,0,0,1,445.00000000000006,1093.2130758341473) translate(13.608333333333334 18.544444444444444)"/></g><g><use xlink:href="#l" transform="matrix(1,0,0,1,507.3885224274407,1093.2130758341473) translate(0 18.544444444444444)"/><use xlink:href="#m" transform="matrix(1,0,0,1,507.3885224274407,1093.2130758341473) translate(154.47530864197535 18.544444444444444)"/></g><path d="M962.5 97.5h57.5v1067.2H397.5v-57h21.18" stroke="#333" stroke-width="2" fill="none"/><path d="M962.5 107.5v-20M942.5 97.5h20M437.05 1117.7l-20-10 20-10M437.05 1107.7h-20" stroke="#333" stroke-width="2" fill="#fff"/><path d="M962.5 97.5h57.5v298.34H397.5v282h21.18" stroke="#333" stroke-width="2" fill="none"/><path d="M962.5 107.5v-20M942.5 97.5h20M437.05 687.84l-20-10 20-10M437.05 677.84h-20" stroke="#333" stroke-width="2" fill="#fff"/><path d="M822.5 503.34h20v247.94h-445V900.2h21.18" stroke="#333" stroke-width="2" fill="none"/><path d="M822.5 513.34v-20M802.5 503.34h20M437.05 910.2l-20-10 20-10M437.05 900.2h-20" stroke="#333" stroke-width="2" fill="#fff"/><defs><path d="M136-208V0H84v-208H4v-40h212v40h-80" id="F"/><path d="M240-174c0 40-23 61-54 70L253 0h-59l-57-94H76V0H24v-248c93 4 217-23 216 74zM76-134c48-2 112 12 112-38 0-48-66-32-112-35v73" id="G"/><path d="M230 0l2-204L168 0h-37L68-204 70 0H24v-248h70l56 185 57-185h69V0h-46" id="H"/><path d="M-4 44V30h207v14H-4" id="I"/><path d="M147 0H94L2-248h55l64 206c17-72 42-137 63-206h54" id="J"/><path d="M199 0l-22-63H83L61 0H9l90-248h61L250 0h-51zm-33-102l-36-108c-10 38-24 72-36 108h72" id="K"/><path d="M24 0v-248h52v208h133V0H24" id="L"/><path d="M238-95c0 69-44 99-111 99C63 4 22-25 22-93v-155h51v151c-1 38 19 59 55 60 90 1 49-130 58-211h52v153" id="M"/><path d="M24 0v-248h195v40H76v63h132v40H76v65h150V0H24" id="N"/><path d="M169-182c-1-43-94-46-97-3 18 66 151 10 154 114 3 95-165 93-204 36-6-8-10-19-12-30l50-8c3 46 112 56 116 5-17-69-150-10-154-114-4-87 153-88 188-35 5 8 8 18 10 28" id="O"/><path d="M67-125c0 53 21 87 73 88 37 1 54-22 65-47l45 17C233-25 199 4 140 4 58 4 20-42 15-125 8-235 124-281 211-232c18 10 29 29 36 50l-46 12c-8-25-30-41-62-41-52 0-71 34-72 86" id="P"/><path d="M140-251c80 0 125 45 125 126S219 4 139 4C58 4 15-44 15-125s44-126 125-126zm-1 214c52 0 73-35 73-88 0-50-21-86-72-86-52 0-73 35-73 86s22 88 72 88" id="Q"/><path d="M175 0L67-191c6 58 2 128 3 191H24v-248h59L193-55c-6-58-2-129-3-193h46V0h-61" id="R"/><path d="M24-248c93 1 206-16 204 79-1 75-69 88-152 82V0H24v-248zm52 121c47 0 100 7 100-41 0-47-54-39-100-39v80" id="S"/><g id="a"><use transform="matrix(0.06234567901234565,0,0,0.06234567901234565,0,0)" xlink:href="#F"/><use transform="matrix(0.06234567901234565,0,0,0.06234567901234565,13.653703703703698,0)" xlink:href="#G"/><use transform="matrix(0.06234567901234565,0,0,0.06234567901234565,29.801234567901222,0)" xlink:href="#H"/><use transform="matrix(0.06234567901234565,0,0,0.06234567901234565,48.442592592592575,0)" xlink:href="#I"/><use transform="matrix(0.06234567901234565,0,0,0.06234567901234565,60.91172839506171,0)" xlink:href="#J"/><use transform="matrix(0.06234567901234565,0,0,0.06234567901234565,74.19135802469134,0)" xlink:href="#K"/><use transform="matrix(0.06234567901234565,0,0,0.06234567901234565,90.33888888888886,0)" xlink:href="#L"/><use transform="matrix(0.06234567901234565,0,0,0.06234567901234565,103.99259259259256,0)" xlink:href="#M"/><use transform="matrix(0.06234567901234565,0,0,0.06234567901234565,120.14012345679008,0)" xlink:href="#N"/><use transform="matrix(0.06234567901234565,0,0,0.06234567901234565,135.10308641975303,0)" xlink:href="#O"/><use transform="matrix(0.06234567901234565,0,0,0.06234567901234565,150.066049382716,0)" xlink:href="#N"/><use transform="matrix(0.06234567901234565,0,0,0.06234567901234565,165.02901234567895,0)" xlink:href="#F"/><use transform="matrix(0.06234567901234565,0,0,0.06234567901234565,178.68271604938263,0)" xlink:href="#I"/><use transform="matrix(0.06234567901234565,0,0,0.06234567901234565,191.15185185185177,0)" xlink:href="#P"/><use transform="matrix(0.06234567901234565,0,0,0.06234567901234565,207.2993827160493,0)" xlink:href="#Q"/><use transform="matrix(0.06234567901234565,0,0,0.06234567901234565,224.7561728395061,0)" xlink:href="#R"/><use transform="matrix(0.06234567901234565,0,0,0.06234567901234565,240.90370370370363,0)" xlink:href="#P"/><use transform="matrix(0.06234567901234565,0,0,0.06234567901234565,257.05123456790113,0)" xlink:href="#N"/><use transform="matrix(0.06234567901234565,0,0,0.06234567901234565,272.01419753086407,0)" xlink:href="#S"/><use transform="matrix(0.06234567901234565,0,0,0.06234567901234565,286.977160493827,0)" xlink:href="#F"/></g><path d="M30-248c87 1 191-15 191 75 0 78-77 80-158 76V0H30v-248zm33 125c57 0 124 11 124-50 0-59-68-47-124-48v98" id="T"/><path d="M194 0L95-120 63-95V0H30v-248h33v124l119-124h40L117-140 236 0h-42" id="U"/><g id="b"><use transform="matrix(0.05617283950617281,0,0,0.05617283950617281,0,0)" xlink:href="#T"/><use transform="matrix(0.05617283950617281,0,0,0.05617283950617281,13.481481481481474,0)" xlink:href="#U"/></g><path d="M33 0v-248h34V0H33" id="V"/><path d="M30-248c118-7 216 8 213 122C240-48 200 0 122 0H30v-248zM63-27c89 8 146-16 146-99s-60-101-146-95v194" id="W"/><g id="c"><use transform="matrix(0.05617283950617281,0,0,0.05617283950617281,0,0)" xlink:href="#T"/><use transform="matrix(0.05617283950617281,0,0,0.05617283950617281,13.481481481481474,0)" xlink:href="#V"/><use transform="matrix(0.05617283950617281,0,0,0.05617283950617281,19.098765432098755,0)" xlink:href="#W"/></g><path d="M87 75C49 33 22-17 22-94c0-76 28-126 65-167h31c-38 41-64 92-64 168S80 34 118 75H87" id="X"/><path d="M30 0v-248h33v221h125V0H30" id="Y"/><path d="M100-194c62-1 85 37 85 99 1 63-27 99-86 99S16-35 15-95c0-66 28-99 85-99zM99-20c44 1 53-31 53-75 0-43-8-75-51-75s-53 32-53 75 10 74 51 75" id="Z"/><path d="M117-194c89-4 53 116 60 194h-32v-121c0-31-8-49-39-48C34-167 62-67 57 0H25l-1-190h30c1 10-1 24 2 32 11-22 29-35 61-36" id="aa"/><path d="M177-190C167-65 218 103 67 71c-23-6-38-20-44-43l32-5c15 47 100 32 89-28v-30C133-14 115 1 83 1 29 1 15-40 15-95c0-56 16-97 71-98 29-1 48 16 59 35 1-10 0-23 2-32h30zM94-22c36 0 50-32 50-73 0-42-14-75-50-75-39 0-46 34-46 75s6 73 46 73" id="ab"/><path d="M33-261c38 41 65 92 65 168S71 34 33 75H2C39 34 66-17 66-93S39-220 2-261h31" id="ac"/><g id="d"><use transform="matrix(0.05617283950617281,0,0,0.05617283950617281,0,0)" xlink:href="#X"/><use transform="matrix(0.05617283950617281,0,0,0.05617283950617281,6.684567901234564,0)" xlink:href="#Y"/><use transform="matrix(0.05617283950617281,0,0,0.05617283950617281,17.919135802469125,0)" xlink:href="#Z"/><use transform="matrix(0.05617283950617281,0,0,0.05617283950617281,29.153703703703687,0)" xlink:href="#aa"/><use transform="matrix(0.05617283950617281,0,0,0.05617283950617281,40.38827160493825,0)" xlink:href="#ab"/><use transform="matrix(0.05617283950617281,0,0,0.05617283950617281,51.62283950617281,0)" xlink:href="#ac"/></g><path d="M212-179c-10-28-35-45-73-45-59 0-87 40-87 99 0 60 29 101 89 101 43 0 62-24 78-52l27 14C228-24 195 4 139 4 59 4 22-46 18-125c-6-104 99-153 187-111 19 9 31 26 39 46" id="ad"/><path d="M140-251c81 0 123 46 123 126C263-46 219 4 140 4 59 4 17-45 17-125s42-126 123-126zm0 227c63 0 89-41 89-101s-29-99-89-99c-61 0-89 39-89 99S79-25 140-24" id="ae"/><path d="M30 0v-248h187v28H63v79h144v27H63v87h162V0H30" id="af"/><path d="M137 0h-34L2-248h35l83 218 83-218h36" id="ag"/><path d="M205 0l-28-72H64L36 0H1l101-248h38L239 0h-34zm-38-99l-47-123c-12 45-31 82-46 123h93" id="ah"/><g id="e"><use transform="matrix(0.05617283950617281,0,0,0.05617283950617281,0,0)" xlink:href="#ad"/><use transform="matrix(0.05617283950617281,0,0,0.05617283950617281,14.548765432098756,0)" xlink:href="#ae"/><use transform="matrix(0.05617283950617281,0,0,0.05617283950617281,30.277160493827143,0)" xlink:href="#W"/><use transform="matrix(0.05617283950617281,0,0,0.05617283950617281,44.8259259259259,0)" xlink:href="#af"/><use transform="matrix(0.05617283950617281,0,0,0.05617283950617281,58.307407407407375,0)" xlink:href="#ag"/><use transform="matrix(0.05617283950617281,0,0,0.05617283950617281,70.27222222222218,0)" xlink:href="#ah"/><use transform="matrix(0.05617283950617281,0,0,0.05617283950617281,83.75370370370365,0)" xlink:href="#Y"/></g><path d="M185-189c-5-48-123-54-124 2 14 75 158 14 163 119 3 78-121 87-175 55-17-10-28-26-33-46l33-7c5 56 141 63 141-1 0-78-155-14-162-118-5-82 145-84 179-34 5 7 8 16 11 25" id="ai"/><path d="M59-47c-2 24 18 29 38 22v24C64 9 27 4 27-40v-127H5v-23h24l9-43h21v43h35v23H59v120" id="aj"/><path d="M114-163C36-179 61-72 57 0H25l-1-190h30c1 12-1 29 2 39 6-27 23-49 58-41v29" id="ak"/><path d="M24-231v-30h32v30H24zM24 0v-190h32V0H24" id="al"/><g id="f"><use transform="matrix(0.05617283950617281,0,0,0.05617283950617281,0,0)" xlink:href="#X"/><use transform="matrix(0.05617283950617281,0,0,0.05617283950617281,6.684567901234564,0)" xlink:href="#ai"/><use transform="matrix(0.05617283950617281,0,0,0.05617283950617281,20.16604938271604,0)" xlink:href="#aj"/><use transform="matrix(0.05617283950617281,0,0,0.05617283950617281,25.78333333333332,0)" xlink:href="#ak"/><use transform="matrix(0.05617283950617281,0,0,0.05617283950617281,32.46790123456788,0)" xlink:href="#al"/><use transform="matrix(0.05617283950617281,0,0,0.05617283950617281,36.90555555555554,0)" xlink:href="#aa"/><use transform="matrix(0.05617283950617281,0,0,0.05617283950617281,48.1401234567901,0)" xlink:href="#ab"/><use transform="matrix(0.05617283950617281,0,0,0.05617283950617281,59.374691358024656,0)" xlink:href="#ac"/></g><path d="M137-103V0h-34v-103L8-248h37l75 118 75-118h37" id="am"/><g id="g"><use transform="matrix(0.05617283950617281,0,0,0.05617283950617281,0,0)" xlink:href="#W"/><use transform="matrix(0.05617283950617281,0,0,0.05617283950617281,14.548765432098756,0)" xlink:href="#V"/><use transform="matrix(0.05617283950617281,0,0,0.05617283950617281,20.166049382716036,0)" xlink:href="#ai"/><use transform="matrix(0.05617283950617281,0,0,0.05617283950617281,33.647530864197506,0)" xlink:href="#T"/><use transform="matrix(0.05617283950617281,0,0,0.05617283950617281,47.12901234567898,0)" xlink:href="#Y"/><use transform="matrix(0.05617283950617281,0,0,0.05617283950617281,58.36358024691355,0)" xlink:href="#ah"/><use transform="matrix(0.05617283950617281,0,0,0.05617283950617281,70.32839506172834,0)" xlink:href="#am"/></g><path d="M232-93c-1 65-40 97-104 97C67 4 28-28 28-90v-158h33c8 89-33 224 67 224 102 0 64-133 71-224h33v155" id="an"/><path d="M127-220V0H93v-220H8v-28h204v28h-85" id="ao"/><path d="M-5 72V49h209v23H-5" id="ap"/><path d="M233-177c-1 41-23 64-60 70L243 0h-38l-65-103H63V0H30v-248c88 3 205-21 203 71zM63-129c60-2 137 13 137-47 0-61-80-42-137-45v92" id="aq"/><g id="h"><use transform="matrix(0.05617283950617281,0,0,0.05617283950617281,0,0)" xlink:href="#ag"/><use transform="matrix(0.05617283950617281,0,0,0.05617283950617281,11.964814814814808,0)" xlink:href="#ah"/><use transform="matrix(0.05617283950617281,0,0,0.05617283950617281,25.446296296296282,0)" xlink:href="#Y"/><use transform="matrix(0.05617283950617281,0,0,0.05617283950617281,36.680864197530845,0)" xlink:href="#an"/><use transform="matrix(0.05617283950617281,0,0,0.05617283950617281,51.2296296296296,0)" xlink:href="#af"/><use transform="matrix(0.05617283950617281,0,0,0.05617283950617281,64.71111111111108,0)" xlink:href="#ai"/><use transform="matrix(0.05617283950617281,0,0,0.05617283950617281,78.19259259259255,0)" xlink:href="#af"/><use transform="matrix(0.05617283950617281,0,0,0.05617283950617281,91.67407407407401,0)" xlink:href="#ao"/><use transform="matrix(0.05617283950617281,0,0,0.05617283950617281,103.97592592592586,0)" xlink:href="#ap"/><use transform="matrix(0.05617283950617281,0,0,0.05617283950617281,115.21049382716043,0)" xlink:href="#ae"/><use transform="matrix(0.05617283950617281,0,0,0.05617283950617281,130.9388888888888,0)" xlink:href="#aq"/><use transform="matrix(0.05617283950617281,0,0,0.05617283950617281,145.48765432098756,0)" xlink:href="#W"/><use transform="matrix(0.05617283950617281,0,0,0.05617283950617281,160.0364197530863,0)" xlink:href="#af"/><use transform="matrix(0.05617283950617281,0,0,0.05617283950617281,173.51790123456777,0)" xlink:href="#aq"/></g><path d="M100-194c63 0 86 42 84 106H49c0 40 14 67 53 68 26 1 43-12 49-29l28 8c-11 28-37 45-77 45C44 4 14-33 15-96c1-61 26-98 85-98zm52 81c6-60-76-77-97-28-3 7-6 17-6 28h103" id="ar"/><g id="i"><use transform="matrix(0.05617283950617281,0,0,0.05617283950617281,0,0)" xlink:href="#X"/><use transform="matrix(0.05617283950617281,0,0,0.05617283950617281,6.684567901234564,0)" xlink:href="#V"/><use transform="matrix(0.05617283950617281,0,0,0.05617283950617281,12.301851851851843,0)" xlink:href="#aa"/><use transform="matrix(0.05617283950617281,0,0,0.05617283950617281,23.536419753086406,0)" xlink:href="#aj"/><use transform="matrix(0.05617283950617281,0,0,0.05617283950617281,29.153703703703687,0)" xlink:href="#ar"/><use transform="matrix(0.05617283950617281,0,0,0.05617283950617281,40.38827160493825,0)" xlink:href="#ab"/><use transform="matrix(0.05617283950617281,0,0,0.05617283950617281,51.62283950617281,0)" xlink:href="#ar"/><use transform="matrix(0.05617283950617281,0,0,0.05617283950617281,62.85740740740737,0)" xlink:href="#ak"/><use transform="matrix(0.05617283950617281,0,0,0.05617283950617281,69.54197530864194,0)" xlink:href="#ac"/></g><path d="M240 0l2-218c-23 76-54 145-80 218h-23L58-218 59 0H30v-248h44l77 211c21-75 51-140 76-211h43V0h-30" id="as"/><g id="j"><use transform="matrix(0.05617283950617281,0,0,0.05617283950617281,0,0)" xlink:href="#ai"/><use transform="matrix(0.05617283950617281,0,0,0.05617283950617281,13.481481481481474,0)" xlink:href="#am"/><use transform="matrix(0.05617283950617281,0,0,0.05617283950617281,26.962962962962948,0)" xlink:href="#ai"/><use transform="matrix(0.05617283950617281,0,0,0.05617283950617281,40.44444444444442,0)" xlink:href="#ao"/><use transform="matrix(0.05617283950617281,0,0,0.05617283950617281,52.746296296296265,0)" xlink:href="#af"/><use transform="matrix(0.05617283950617281,0,0,0.05617283950617281,66.22777777777773,0)" xlink:href="#as"/><use transform="matrix(0.05617283950617281,0,0,0.05617283950617281,83.0234567901234,0)" xlink:href="#ap"/><use transform="matrix(0.05617283950617281,0,0,0.05617283950617281,94.25802469135796,0)" xlink:href="#an"/><use transform="matrix(0.05617283950617281,0,0,0.05617283950617281,108.80679012345672,0)" xlink:href="#aq"/><use transform="matrix(0.05617283950617281,0,0,0.05617283950617281,123.35555555555548,0)" xlink:href="#Y"/></g><path d="M63-220v92h138v28H63V0H30v-248h175v28H63" id="at"/><g id="k"><use transform="matrix(0.056172839506172835,0,0,0.056172839506172835,0,0)" xlink:href="#at"/><use transform="matrix(0.056172839506172835,0,0,0.056172839506172835,12.30185185185185,0)" xlink:href="#U"/></g><g id="l"><use transform="matrix(0.056172839506172835,0,0,0.056172839506172835,0,0)" xlink:href="#ag"/><use transform="matrix(0.056172839506172835,0,0,0.056172839506172835,11.964814814814815,0)" xlink:href="#ah"/><use transform="matrix(0.056172839506172835,0,0,0.056172839506172835,25.446296296296296,0)" xlink:href="#Y"/><use transform="matrix(0.056172839506172835,0,0,0.056172839506172835,36.680864197530866,0)" xlink:href="#an"/><use transform="matrix(0.056172839506172835,0,0,0.056172839506172835,51.22962962962963,0)" xlink:href="#af"/><use transform="matrix(0.056172839506172835,0,0,0.056172839506172835,64.71111111111111,0)" xlink:href="#ai"/><use transform="matrix(0.056172839506172835,0,0,0.056172839506172835,78.19259259259259,0)" xlink:href="#af"/><use transform="matrix(0.056172839506172835,0,0,0.056172839506172835,91.67407407407407,0)" xlink:href="#ao"/><use transform="matrix(0.056172839506172835,0,0,0.056172839506172835,103.97592592592592,0)" xlink:href="#ap"/><use transform="matrix(0.056172839506172835,0,0,0.056172839506172835,115.21049382716049,0)" xlink:href="#T"/><use transform="matrix(0.056172839506172835,0,0,0.056172839506172835,128.691975308642,0)" xlink:href="#V"/><use transform="matrix(0.056172839506172835,0,0,0.056172839506172835,134.30925925925928,0)" xlink:href="#W"/></g><g id="m"><use transform="matrix(0.056172839506172835,0,0,0.056172839506172835,0,0)" xlink:href="#X"/><use transform="matrix(0.056172839506172835,0,0,0.056172839506172835,6.684567901234567,0)" xlink:href="#Y"/><use transform="matrix(0.056172839506172835,0,0,0.056172839506172835,17.919135802469135,0)" xlink:href="#Z"/><use transform="matrix(0.056172839506172835,0,0,0.056172839506172835,29.1537037037037,0)" xlink:href="#aa"/><use transform="matrix(0.056172839506172835,0,0,0.056172839506172835,40.38827160493827,0)" xlink:href="#ab"/><use transform="matrix(0.056172839506172835,0,0,0.056172839506172835,51.62283950617284,0)" xlink:href="#ac"/></g><g id="n"><use transform="matrix(0.06234567901234565,0,0,0.06234567901234565,0,0)" xlink:href="#F"/><use transform="matrix(0.06234567901234565,0,0,0.06234567901234565,13.653703703703698,0)" xlink:href="#G"/><use transform="matrix(0.06234567901234565,0,0,0.06234567901234565,29.801234567901222,0)" xlink:href="#H"/><use transform="matrix(0.06234567901234565,0,0,0.06234567901234565,48.442592592592575,0)" xlink:href="#I"/><use transform="matrix(0.06234567901234565,0,0,0.06234567901234565,60.91172839506171,0)" xlink:href="#J"/><use transform="matrix(0.06234567901234565,0,0,0.06234567901234565,74.19135802469134,0)" xlink:href="#K"/><use transform="matrix(0.06234567901234565,0,0,0.06234567901234565,90.33888888888886,0)" xlink:href="#L"/><use transform="matrix(0.06234567901234565,0,0,0.06234567901234565,103.99259259259256,0)" xlink:href="#M"/><use transform="matrix(0.06234567901234565,0,0,0.06234567901234565,120.14012345679008,0)" xlink:href="#N"/><use transform="matrix(0.06234567901234565,0,0,0.06234567901234565,135.10308641975303,0)" xlink:href="#O"/><use transform="matrix(0.06234567901234565,0,0,0.06234567901234565,150.066049382716,0)" xlink:href="#N"/><use transform="matrix(0.06234567901234565,0,0,0.06234567901234565,165.02901234567895,0)" xlink:href="#F"/></g><path d="M195 0l-74-108L45 0H8l94-129-87-119h37l69 98 67-98h37l-84 118L233 0h-38" id="au"/><path d="M190 0L58-211 59 0H30v-248h39L202-35l-2-213h31V0h-41" id="av"/><g id="o"><use transform="matrix(0.05617283950617281,0,0,0.05617283950617281,0,0)" xlink:href="#af"/><use transform="matrix(0.05617283950617281,0,0,0.05617283950617281,13.481481481481474,0)" xlink:href="#au"/><use transform="matrix(0.05617283950617281,0,0,0.05617283950617281,26.962962962962948,0)" xlink:href="#T"/><use transform="matrix(0.05617283950617281,0,0,0.05617283950617281,38.927777777777756,0)" xlink:href="#ah"/><use transform="matrix(0.05617283950617281,0,0,0.05617283950617281,52.40925925925923,0)" xlink:href="#av"/><use transform="matrix(0.05617283950617281,0,0,0.05617283950617281,66.95802469135799,0)" xlink:href="#ai"/><use transform="matrix(0.05617283950617281,0,0,0.05617283950617281,80.43950617283946,0)" xlink:href="#V"/><use transform="matrix(0.05617283950617281,0,0,0.05617283950617281,86.05679012345674,0)" xlink:href="#ae"/><use transform="matrix(0.05617283950617281,0,0,0.05617283950617281,101.78518518518513,0)" xlink:href="#av"/><use transform="matrix(0.05617283950617281,0,0,0.05617283950617281,116.33395061728389,0)" xlink:href="#ap"/><use transform="matrix(0.05617283950617281,0,0,0.05617283950617281,127.56851851851845,0)" xlink:href="#ai"/><use transform="matrix(0.05617283950617281,0,0,0.05617283950617281,141.04999999999993,0)" xlink:href="#ao"/><use transform="matrix(0.05617283950617281,0,0,0.05617283950617281,151.83518518518508,0)" xlink:href="#ah"/><use transform="matrix(0.05617283950617281,0,0,0.05617283950617281,163.7999999999999,0)" xlink:href="#ao"/><use transform="matrix(0.05617283950617281,0,0,0.05617283950617281,176.10185185185173,0)" xlink:href="#an"/><use transform="matrix(0.05617283950617281,0,0,0.05617283950617281,190.65061728395048,0)" xlink:href="#ai"/></g><g id="p"><use transform="matrix(0.05617283950617281,0,0,0.05617283950617281,0,0)" xlink:href="#ag"/><use transform="matrix(0.05617283950617281,0,0,0.05617283950617281,13.481481481481474,0)" xlink:href="#ai"/><use transform="matrix(0.05617283950617281,0,0,0.05617283950617281,26.962962962962948,0)" xlink:href="#av"/><use transform="matrix(0.05617283950617281,0,0,0.05617283950617281,41.5117283950617,0)" xlink:href="#ah"/><use transform="matrix(0.05617283950617281,0,0,0.05617283950617281,54.993209876543176,0)" xlink:href="#as"/><use transform="matrix(0.05617283950617281,0,0,0.05617283950617281,71.78888888888885,0)" xlink:href="#af"/></g><g id="q"><use transform="matrix(0.05617283950617281,0,0,0.05617283950617281,0,0)" xlink:href="#at"/><use transform="matrix(0.05617283950617281,0,0,0.05617283950617281,12.301851851851845,0)" xlink:href="#U"/></g><g id="r"><use transform="matrix(0.05617283950617281,0,0,0.05617283950617281,0,0)" xlink:href="#aq"/><use transform="matrix(0.05617283950617281,0,0,0.05617283950617281,14.548765432098756,0)" xlink:href="#af"/><use transform="matrix(0.05617283950617281,0,0,0.05617283950617281,28.03024691358023,0)" xlink:href="#ai"/><use transform="matrix(0.05617283950617281,0,0,0.05617283950617281,41.5117283950617,0)" xlink:href="#ap"/><use transform="matrix(0.05617283950617281,0,0,0.05617283950617281,52.746296296296265,0)" xlink:href="#V"/><use transform="matrix(0.05617283950617281,0,0,0.05617283950617281,58.36358024691355,0)" xlink:href="#W"/></g><path d="M143 4C61 4 22-44 18-125c-5-107 100-154 193-111 17 8 29 25 37 43l-32 9c-13-25-37-40-76-40-61 0-88 39-88 99 0 61 29 100 91 101 35 0 62-11 79-27v-45h-74v-28h105v86C228-13 192 4 143 4" id="aw"/><g id="s"><use transform="matrix(0.05617283950617281,0,0,0.05617283950617281,0,0)" xlink:href="#ao"/><use transform="matrix(0.05617283950617281,0,0,0.05617283950617281,11.908641975308635,0)" xlink:href="#ae"/><use transform="matrix(0.05617283950617281,0,0,0.05617283950617281,27.63703703703702,0)" xlink:href="#ao"/><use transform="matrix(0.05617283950617281,0,0,0.05617283950617281,38.4222222222222,0)" xlink:href="#ah"/><use transform="matrix(0.05617283950617281,0,0,0.05617283950617281,51.90370370370368,0)" xlink:href="#Y"/><use transform="matrix(0.05617283950617281,0,0,0.05617283950617281,63.13827160493823,0)" xlink:href="#ap"/><use transform="matrix(0.05617283950617281,0,0,0.05617283950617281,74.3728395061728,0)" xlink:href="#ad"/><use transform="matrix(0.05617283950617281,0,0,0.05617283950617281,88.92160493827156,0)" xlink:href="#ae"/><use transform="matrix(0.05617283950617281,0,0,0.05617283950617281,104.64999999999995,0)" xlink:href="#av"/><use transform="matrix(0.05617283950617281,0,0,0.05617283950617281,119.19876543209872,0)" xlink:href="#ad"/><use transform="matrix(0.05617283950617281,0,0,0.05617283950617281,133.74753086419747,0)" xlink:href="#af"/><use transform="matrix(0.05617283950617281,0,0,0.05617283950617281,147.22901234567894,0)" xlink:href="#T"/><use transform="matrix(0.05617283950617281,0,0,0.05617283950617281,160.7104938271604,0)" xlink:href="#ao"/><use transform="matrix(0.05617283950617281,0,0,0.05617283950617281,173.01234567901224,0)" xlink:href="#ap"/><use transform="matrix(0.05617283950617281,0,0,0.05617283950617281,184.2469135802468,0)" xlink:href="#W"/><use transform="matrix(0.05617283950617281,0,0,0.05617283950617281,198.79567901234554,0)" xlink:href="#af"/><use transform="matrix(0.05617283950617281,0,0,0.05617283950617281,212.277160493827,0)" xlink:href="#ai"/><use transform="matrix(0.05617283950617281,0,0,0.05617283950617281,225.75864197530848,0)" xlink:href="#V"/><use transform="matrix(0.05617283950617281,0,0,0.05617283950617281,231.3759259259258,0)" xlink:href="#aw"/><use transform="matrix(0.05617283950617281,0,0,0.05617283950617281,247.10432098765412,0)" xlink:href="#av"/><use transform="matrix(0.05617283950617281,0,0,0.05617283950617281,261.6530864197529,0)" xlink:href="#ah"/><use transform="matrix(0.05617283950617281,0,0,0.05617283950617281,273.61790123456774,0)" xlink:href="#ao"/><use transform="matrix(0.05617283950617281,0,0,0.05617283950617281,285.9197530864196,0)" xlink:href="#V"/><use transform="matrix(0.05617283950617281,0,0,0.05617283950617281,291.53703703703684,0)" xlink:href="#ae"/><use transform="matrix(0.05617283950617281,0,0,0.05617283950617281,307.26543209876525,0)" xlink:href="#av"/><use transform="matrix(0.05617283950617281,0,0,0.05617283950617281,321.814197530864,0)" xlink:href="#ai"/></g><g id="t"><use transform="matrix(0.056172839506172835,0,0,0.056172839506172835,0,0)" xlink:href="#ao"/><use transform="matrix(0.056172839506172835,0,0,0.056172839506172835,11.90864197530864,0)" xlink:href="#ae"/><use transform="matrix(0.056172839506172835,0,0,0.056172839506172835,27.637037037037032,0)" xlink:href="#ao"/><use transform="matrix(0.056172839506172835,0,0,0.056172839506172835,38.42222222222222,0)" xlink:href="#ah"/><use transform="matrix(0.056172839506172835,0,0,0.056172839506172835,51.9037037037037,0)" xlink:href="#Y"/><use transform="matrix(0.056172839506172835,0,0,0.056172839506172835,63.13827160493827,0)" xlink:href="#ap"/><use transform="matrix(0.056172839506172835,0,0,0.056172839506172835,74.37283950617284,0)" xlink:href="#ad"/><use transform="matrix(0.056172839506172835,0,0,0.056172839506172835,88.9216049382716,0)" xlink:href="#ae"/><use transform="matrix(0.056172839506172835,0,0,0.056172839506172835,104.64999999999999,0)" xlink:href="#av"/><use transform="matrix(0.056172839506172835,0,0,0.056172839506172835,119.19876543209875,0)" xlink:href="#ad"/><use transform="matrix(0.056172839506172835,0,0,0.056172839506172835,133.74753086419753,0)" xlink:href="#af"/><use transform="matrix(0.056172839506172835,0,0,0.056172839506172835,147.229012345679,0)" xlink:href="#T"/><use transform="matrix(0.056172839506172835,0,0,0.056172839506172835,160.71049382716046,0)" xlink:href="#ao"/><use transform="matrix(0.056172839506172835,0,0,0.056172839506172835,173.0123456790123,0)" xlink:href="#ai"/></g><g id="u"><use transform="matrix(0.056172839506172835,0,0,0.056172839506172835,0,0)" xlink:href="#an"/><use transform="matrix(0.056172839506172835,0,0,0.056172839506172835,14.548765432098763,0)" xlink:href="#aq"/><use transform="matrix(0.056172839506172835,0,0,0.056172839506172835,29.097530864197527,0)" xlink:href="#Y"/></g><g id="v"><use transform="matrix(0.056172839506172835,0,0,0.056172839506172835,0,0)" xlink:href="#X"/><use transform="matrix(0.056172839506172835,0,0,0.056172839506172835,6.684567901234567,0)" xlink:href="#ai"/><use transform="matrix(0.056172839506172835,0,0,0.056172839506172835,20.166049382716047,0)" xlink:href="#aj"/><use transform="matrix(0.056172839506172835,0,0,0.056172839506172835,25.78333333333333,0)" xlink:href="#ak"/><use transform="matrix(0.056172839506172835,0,0,0.056172839506172835,32.4679012345679,0)" xlink:href="#al"/><use transform="matrix(0.056172839506172835,0,0,0.056172839506172835,36.90555555555555,0)" xlink:href="#aa"/><use transform="matrix(0.056172839506172835,0,0,0.056172839506172835,48.14012345679012,0)" xlink:href="#ab"/><use transform="matrix(0.056172839506172835,0,0,0.056172839506172835,59.374691358024684,0)" xlink:href="#ac"/></g><g id="w"><use transform="matrix(0.056172839506172835,0,0,0.056172839506172835,0,0)" xlink:href="#ag"/><use transform="matrix(0.056172839506172835,0,0,0.056172839506172835,13.481481481481481,0)" xlink:href="#af"/><use transform="matrix(0.056172839506172835,0,0,0.056172839506172835,26.962962962962962,0)" xlink:href="#aq"/></g><path d="M186 0v-106H76V0H24v-248h52v99h110v-99h50V0h-50" id="ax"/><path d="M76-208v77h127v40H76V0H24v-248h183v40H76" id="ay"/><path d="M176-78C186 10 51 31 16-35c-5-9-9-19-11-32l52-8c4 21 12 37 35 38 23 0 32-16 32-40v-130H75v-41h101v170" id="az"/><g id="x"><use transform="matrix(0.06234567901234565,0,0,0.06234567901234565,0,0)" xlink:href="#ax"/><use transform="matrix(0.06234567901234565,0,0,0.06234567901234565,16.147530864197524,0)" xlink:href="#ay"/><use transform="matrix(0.06234567901234565,0,0,0.06234567901234565,29.801234567901222,0)" xlink:href="#az"/><use transform="matrix(0.06234567901234565,0,0,0.06234567901234565,42.27037037037035,0)" xlink:href="#I"/><use transform="matrix(0.06234567901234565,0,0,0.06234567901234565,54.739506172839484,0)" xlink:href="#G"/><use transform="matrix(0.06234567901234565,0,0,0.06234567901234565,70.887037037037,0)" xlink:href="#N"/><use transform="matrix(0.06234567901234565,0,0,0.06234567901234565,85.84999999999997,0)" xlink:href="#O"/><use transform="matrix(0.06234567901234565,0,0,0.06234567901234565,100.81296296296293,0)" xlink:href="#Q"/><use transform="matrix(0.06234567901234565,0,0,0.06234567901234565,118.26975308641971,0)" xlink:href="#M"/><use transform="matrix(0.06234567901234565,0,0,0.06234567901234565,134.41728395061725,0)" xlink:href="#G"/><use transform="matrix(0.06234567901234565,0,0,0.06234567901234565,150.56481481481478,0)" xlink:href="#P"/><use transform="matrix(0.06234567901234565,0,0,0.06234567901234565,166.71234567901232,0)" xlink:href="#N"/></g><path d="M24-248c120-7 223 5 221 122C244-46 201 0 124 0H24v-248zM76-40c74 7 117-18 117-86 0-67-45-88-117-82v168" id="aA"/><path d="M24 0v-248h52V0H24" id="aB"/><path d="M67-125c0 54 23 88 75 88 28 0 53-7 68-21v-34h-60v-39h108v91C232-14 192 4 140 4 58 4 20-42 15-125 8-236 126-280 215-234c19 10 29 26 37 47l-47 15c-11-23-29-39-63-39-53 1-75 33-75 86" id="aC"/><g id="y"><use transform="matrix(0.06234567901234565,0,0,0.06234567901234565,0,0)" xlink:href="#F"/><use transform="matrix(0.06234567901234565,0,0,0.06234567901234565,13.653703703703698,0)" xlink:href="#G"/><use transform="matrix(0.06234567901234565,0,0,0.06234567901234565,29.801234567901222,0)" xlink:href="#H"/><use transform="matrix(0.06234567901234565,0,0,0.06234567901234565,48.442592592592575,0)" xlink:href="#I"/><use transform="matrix(0.06234567901234565,0,0,0.06234567901234565,60.91172839506171,0)" xlink:href="#J"/><use transform="matrix(0.06234567901234565,0,0,0.06234567901234565,74.19135802469134,0)" xlink:href="#K"/><use transform="matrix(0.06234567901234565,0,0,0.06234567901234565,90.33888888888886,0)" xlink:href="#L"/><use transform="matrix(0.06234567901234565,0,0,0.06234567901234565,103.99259259259256,0)" xlink:href="#M"/><use transform="matrix(0.06234567901234565,0,0,0.06234567901234565,120.14012345679008,0)" xlink:href="#N"/><use transform="matrix(0.06234567901234565,0,0,0.06234567901234565,135.10308641975303,0)" xlink:href="#O"/><use transform="matrix(0.06234567901234565,0,0,0.06234567901234565,150.066049382716,0)" xlink:href="#N"/><use transform="matrix(0.06234567901234565,0,0,0.06234567901234565,165.02901234567895,0)" xlink:href="#F"/><use transform="matrix(0.06234567901234565,0,0,0.06234567901234565,178.68271604938263,0)" xlink:href="#I"/><use transform="matrix(0.06234567901234565,0,0,0.06234567901234565,191.15185185185177,0)" xlink:href="#P"/><use transform="matrix(0.06234567901234565,0,0,0.06234567901234565,207.2993827160493,0)" xlink:href="#I"/><use transform="matrix(0.06234567901234565,0,0,0.06234567901234565,219.76851851851845,0)" xlink:href="#aA"/><use transform="matrix(0.06234567901234565,0,0,0.06234567901234565,235.91604938271598,0)" xlink:href="#N"/><use transform="matrix(0.06234567901234565,0,0,0.06234567901234565,250.87901234567894,0)" xlink:href="#O"/><use transform="matrix(0.06234567901234565,0,0,0.06234567901234565,265.8419753086419,0)" xlink:href="#aB"/><use transform="matrix(0.06234567901234565,0,0,0.06234567901234565,272.0765432098765,0)" xlink:href="#aC"/><use transform="matrix(0.06234567901234565,0,0,0.06234567901234565,289.5333333333333,0)" xlink:href="#R"/><use transform="matrix(0.06234567901234565,0,0,0.06234567901234565,305.6808641975308,0)" xlink:href="#K"/><use transform="matrix(0.06234567901234565,0,0,0.06234567901234565,320.145061728395,0)" xlink:href="#F"/><use transform="matrix(0.06234567901234565,0,0,0.06234567901234565,333.79876543209866,0)" xlink:href="#aB"/><use transform="matrix(0.06234567901234565,0,0,0.06234567901234565,340.03333333333325,0)" xlink:href="#Q"/><use transform="matrix(0.06234567901234565,0,0,0.06234567901234565,357.49012345679,0)" xlink:href="#R"/></g><g id="z"><use transform="matrix(0.05617283950617281,0,0,0.05617283950617281,0,0)" xlink:href="#ag"/><use transform="matrix(0.05617283950617281,0,0,0.05617283950617281,11.964814814814808,0)" xlink:href="#ah"/><use transform="matrix(0.05617283950617281,0,0,0.05617283950617281,25.446296296296282,0)" xlink:href="#Y"/><use transform="matrix(0.05617283950617281,0,0,0.05617283950617281,36.680864197530845,0)" xlink:href="#an"/><use transform="matrix(0.05617283950617281,0,0,0.05617283950617281,51.2296296296296,0)" xlink:href="#af"/><use transform="matrix(0.05617283950617281,0,0,0.05617283950617281,64.71111111111108,0)" xlink:href="#ai"/><use transform="matrix(0.05617283950617281,0,0,0.05617283950617281,78.19259259259255,0)" xlink:href="#af"/><use transform="matrix(0.05617283950617281,0,0,0.05617283950617281,91.67407407407401,0)" xlink:href="#ao"/><use transform="matrix(0.05617283950617281,0,0,0.05617283950617281,103.97592592592586,0)" xlink:href="#ap"/><use transform="matrix(0.05617283950617281,0,0,0.05617283950617281,115.21049382716043,0)" xlink:href="#ad"/><use transform="matrix(0.05617283950617281,0,0,0.05617283950617281,129.75925925925918,0)" xlink:href="#ae"/><use transform="matrix(0.05617283950617281,0,0,0.05617283950617281,145.48765432098756,0)" xlink:href="#av"/><use transform="matrix(0.05617283950617281,0,0,0.05617283950617281,160.0364197530863,0)" xlink:href="#ad"/><use transform="matrix(0.05617283950617281,0,0,0.05617283950617281,174.58518518518505,0)" xlink:href="#af"/><use transform="matrix(0.05617283950617281,0,0,0.05617283950617281,188.06666666666652,0)" xlink:href="#T"/><use transform="matrix(0.05617283950617281,0,0,0.05617283950617281,201.548148148148,0)" xlink:href="#ao"/><use transform="matrix(0.05617283950617281,0,0,0.05617283950617281,213.84999999999982,0)" xlink:href="#ap"/><use transform="matrix(0.05617283950617281,0,0,0.05617283950617281,225.08456790123438,0)" xlink:href="#T"/><use transform="matrix(0.05617283950617281,0,0,0.05617283950617281,238.56604938271587,0)" xlink:href="#V"/><use transform="matrix(0.05617283950617281,0,0,0.05617283950617281,244.18333333333314,0)" xlink:href="#W"/></g><g id="A"><use transform="matrix(0.05617283950617281,0,0,0.05617283950617281,0,0)" xlink:href="#Y"/><use transform="matrix(0.05617283950617281,0,0,0.05617283950617281,11.234567901234561,0)" xlink:href="#ah"/><use transform="matrix(0.05617283950617281,0,0,0.05617283950617281,24.716049382716037,0)" xlink:href="#av"/><use transform="matrix(0.05617283950617281,0,0,0.05617283950617281,39.26481481481479,0)" xlink:href="#aw"/></g><g id="B"><use transform="matrix(0.05617283950617281,0,0,0.05617283950617281,0,0)" xlink:href="#an"/><use transform="matrix(0.05617283950617281,0,0,0.05617283950617281,14.548765432098756,0)" xlink:href="#ai"/><use transform="matrix(0.05617283950617281,0,0,0.05617283950617281,28.03024691358023,0)" xlink:href="#af"/><use transform="matrix(0.05617283950617281,0,0,0.05617283950617281,41.5117283950617,0)" xlink:href="#ap"/><use transform="matrix(0.05617283950617281,0,0,0.05617283950617281,52.746296296296265,0)" xlink:href="#ad"/><use transform="matrix(0.05617283950617281,0,0,0.05617283950617281,67.29506172839503,0)" xlink:href="#ae"/><use transform="matrix(0.05617283950617281,0,0,0.05617283950617281,83.02345679012342,0)" xlink:href="#W"/><use transform="matrix(0.05617283950617281,0,0,0.05617283950617281,97.57222222222218,0)" xlink:href="#af"/></g><g id="C"><use transform="matrix(0.05617283950617281,0,0,0.05617283950617281,0,0)" xlink:href="#an"/><use transform="matrix(0.05617283950617281,0,0,0.05617283950617281,14.548765432098756,0)" xlink:href="#ai"/><use transform="matrix(0.05617283950617281,0,0,0.05617283950617281,28.03024691358023,0)" xlink:href="#af"/><use transform="matrix(0.05617283950617281,0,0,0.05617283950617281,41.5117283950617,0)" xlink:href="#ap"/><use transform="matrix(0.05617283950617281,0,0,0.05617283950617281,52.746296296296265,0)" xlink:href="#W"/><use transform="matrix(0.05617283950617281,0,0,0.05617283950617281,67.29506172839503,0)" xlink:href="#V"/><use transform="matrix(0.05617283950617281,0,0,0.05617283950617281,72.9123456790123,0)" xlink:href="#ai"/><use transform="matrix(0.05617283950617281,0,0,0.05617283950617281,86.39382716049377,0)" xlink:href="#T"/><use transform="matrix(0.05617283950617281,0,0,0.05617283950617281,99.87530864197524,0)" xlink:href="#Y"/><use transform="matrix(0.05617283950617281,0,0,0.05617283950617281,111.1098765432098,0)" xlink:href="#ah"/><use transform="matrix(0.05617283950617281,0,0,0.05617283950617281,123.07469135802462,0)" xlink:href="#am"/></g><g id="D"><use transform="matrix(0.056172839506172835,0,0,0.056172839506172835,0,0)" xlink:href="#an"/><use transform="matrix(0.056172839506172835,0,0,0.056172839506172835,14.548765432098763,0)" xlink:href="#ai"/><use transform="matrix(0.056172839506172835,0,0,0.056172839506172835,28.030246913580243,0)" xlink:href="#af"/><use transform="matrix(0.056172839506172835,0,0,0.056172839506172835,41.51172839506172,0)" xlink:href="#ap"/><use transform="matrix(0.056172839506172835,0,0,0.056172839506172835,52.74629629629629,0)" xlink:href="#ai"/><use transform="matrix(0.056172839506172835,0,0,0.056172839506172835,66.22777777777777,0)" xlink:href="#am"/><use transform="matrix(0.056172839506172835,0,0,0.056172839506172835,79.70925925925926,0)" xlink:href="#ai"/><use transform="matrix(0.056172839506172835,0,0,0.056172839506172835,93.19074074074074,0)" xlink:href="#ao"/><use transform="matrix(0.056172839506172835,0,0,0.056172839506172835,105.49259259259259,0)" xlink:href="#af"/><use transform="matrix(0.056172839506172835,0,0,0.056172839506172835,118.97407407407407,0)" xlink:href="#as"/></g><g id="E"><use transform="matrix(0.056172839506172835,0,0,0.056172839506172835,0,0)" xlink:href="#ag"/><use transform="matrix(0.056172839506172835,0,0,0.056172839506172835,11.964814814814815,0)" xlink:href="#ah"/><use transform="matrix(0.056172839506172835,0,0,0.056172839506172835,25.446296296296296,0)" xlink:href="#Y"/></g></defs></g></svg>