<svg xmlns="http://www.w3.org/2000/svg" xmlns:xlink="http://www.w3.org/1999/xlink" xmlns:lucid="lucid" width="1621" height="1448.62"><g transform="translate(-40 -76.99904243617277)" lucid:page-tab-id="0_0"><path d="M482.5 558.5h420v215h-420z" fill="#83bbe5"/><path d="M482.5 558.5h420v215h-420zM482.5 598.5h420M544.9 598.5v175" stroke="#0c7cba" stroke-width="5" fill="none"/><use xlink:href="#a" transform="matrix(1,0,0,1,492.5,558.4995212180864) translate(91.11327160493829 24.488888888888887)"/><use xlink:href="#b" transform="matrix(1,0,0,1,487.5,600.9995212180864) translate(13.018518518518526 19.044444444444444)"/><use xlink:href="#c" transform="matrix(1,0,0,1,549.8885224274406,600.9995212180864) translate(0 19.544444444444444)"/><use xlink:href="#d" transform="matrix(1,0,0,1,549.8885224274406,600.9995212180864) translate(39.26481481481479 19.544444444444444)"/><use xlink:href="#e" transform="matrix(1,0,0,1,549.8885224274406,635.9995212180864) translate(0 19.544444444444444)"/><use xlink:href="#f" transform="matrix(1,0,0,1,549.8885224274406,635.9995212180864) translate(209.74938271604927 19.544444444444444)"/><use xlink:href="#g" transform="matrix(1,0,0,1,487.5,670.9995212180864) translate(13.608333333333341 19.044444444444444)"/><use xlink:href="#h" transform="matrix(1,0,0,1,549.8885224274406,670.9995212180864) translate(0 19.544444444444444)"/><use xlink:href="#d" transform="matrix(1,0,0,1,549.8885224274406,670.9995212180864) translate(251.1487654320986 19.544444444444444)"/><use xlink:href="#i" transform="matrix(1,0,0,1,549.8885224274406,705.9995212180864) translate(0 19.544444444444444)"/><use xlink:href="#f" transform="matrix(1,0,0,1,549.8885224274406,705.9995212180864) translate(103.18950617283944 19.544444444444444)"/><use xlink:href="#g" transform="matrix(1,0,0,1,487.5,740.9995212180864) translate(13.608333333333341 19.044444444444444)"/><use xlink:href="#j" transform="matrix(1,0,0,1,549.8885224274406,740.9995212180864) translate(0 19.544444444444444)"/><use xlink:href="#d" transform="matrix(1,0,0,1,549.8885224274406,740.9995212180864) translate(78.52962962962958 19.544444444444444)"/><path d="M480 100h360v215H480z" fill="#83bbe5"/><path d="M480 100h360v215H480zM480 140h360M542.4 140v175" stroke="#0c7cba" stroke-width="5" fill="none"/><use xlink:href="#k" transform="matrix(1,0,0,1,490,100) translate(31.84197530864202 24.488888888888887)"/><use xlink:href="#b" transform="matrix(1,0,0,1,485,142.5) translate(13.018518518518526 19.044444444444444)"/><use xlink:href="#c" transform="matrix(1,0,0,1,547.3885224274406,142.5) translate(0 19.544444444444444)"/><use xlink:href="#d" transform="matrix(1,0,0,1,547.3885224274406,142.5) translate(39.26481481481479 19.544444444444444)"/><use xlink:href="#l" transform="matrix(1,0,0,1,547.3885224274406,177.5) translate(0 19.544444444444444)"/><use xlink:href="#f" transform="matrix(1,0,0,1,547.3885224274406,177.5) translate(133.91604938271598 19.544444444444444)"/><use xlink:href="#g" transform="matrix(1,0,0,1,485,212.5) translate(13.608333333333341 19.044444444444444)"/><use xlink:href="#m" transform="matrix(1,0,0,1,547.3885224274406,212.5) translate(0 19.544444444444444)"/><use xlink:href="#d" transform="matrix(1,0,0,1,547.3885224274406,212.5) translate(191.83024691358014 19.544444444444444)"/><use xlink:href="#n" transform="matrix(1,0,0,1,547.3885224274406,247.5) translate(0 19.544444444444444)"/><use xlink:href="#f" transform="matrix(1,0,0,1,547.3885224274406,247.5) translate(167.17037037037028 19.544444444444444)"/><use xlink:href="#g" transform="matrix(1,0,0,1,485,282.5) translate(13.608333333333341 19.044444444444444)"/><use xlink:href="#j" transform="matrix(1,0,0,1,547.3885224274406,282.5) translate(0 19.544444444444444)"/><use xlink:href="#d" transform="matrix(1,0,0,1,547.3885224274406,282.5) translate(78.52962962962958 19.544444444444444)"/><path d="M60 420h260v75H60z" fill="#83bbe5"/><path d="M60 420h260v75H60zM60 460h260M122.4 460v35" stroke="#0c7cba" stroke-width="5" fill="none"/><use xlink:href="#o" transform="matrix(1,0,0,1,70,420) translate(29.16234567901236 24.488888888888887)"/><use xlink:href="#b" transform="matrix(1,0,0,1,65,462.5) translate(13.018518518518526 19.044444444444444)"/><use xlink:href="#j" transform="matrix(1,0,0,1,127.38852242744065,462.5) translate(0 19.544444444444444)"/><use xlink:href="#d" transform="matrix(1,0,0,1,127.38852242744065,462.5) translate(78.52962962962958 19.544444444444444)"/><path d="M342.5 477.5H400v-180h57.5" stroke="#333" stroke-width="2" fill="none"/><path d="M342.5 487.5v-20M322.5 477.5h20M457.5 287.5v20M477.5 297.5h-20" stroke="#333" stroke-width="2" fill="#fff"/><path d="M1160 1188.62h420v317h-420z" fill="#83bbe5"/><path d="M1160 1188.62h420v317h-420zM1160 1228.62h420M1222.4 1228.62v277" stroke="#0c7cba" stroke-width="5" fill="none"/><use xlink:href="#p" transform="matrix(1,0,0,1,1170,1188.621142630096) translate(114.80462962962966 24.488888888888887)"/><use xlink:href="#b" transform="matrix(1,0,0,1,1165,1231.121142630096) translate(13.018518518518526 19.044444444444444)"/><use xlink:href="#c" transform="matrix(1,0,0,1,1227.3885224274406,1231.121142630096) translate(0 19.544444444444444)"/><use xlink:href="#d" transform="matrix(1,0,0,1,1227.3885224274406,1231.121142630096) translate(39.26481481481479 19.544444444444444)"/><use xlink:href="#q" transform="matrix(1,0,0,1,1227.3885224274406,1266.121142630096) translate(0 19.544444444444444)"/><use xlink:href="#f" transform="matrix(1,0,0,1,1227.3885224274406,1266.121142630096) translate(99.87530864197524 19.544444444444444)"/><use xlink:href="#g" transform="matrix(1,0,0,1,1165,1301.121142630096) translate(13.608333333333341 19.044444444444444)"/><use xlink:href="#m" transform="matrix(1,0,0,1,1227.3885224274406,1301.121142630096) translate(0 19.544444444444444)"/><use xlink:href="#d" transform="matrix(1,0,0,1,1227.3885224274406,1301.121142630096) translate(191.83024691358014 19.544444444444444)"/><use xlink:href="#r" transform="matrix(1,0,0,1,1227.3885224274406,1336.121142630096) translate(0 19.544444444444444)"/><use xlink:href="#f" transform="matrix(1,0,0,1,1227.3885224274406,1336.121142630096) translate(89.03395061728388 19.544444444444444)"/><use xlink:href="#s" transform="matrix(1,0,0,1,1227.3885224274406,1371.121142630096) translate(0 19.544444444444444)"/><use xlink:href="#d" transform="matrix(1,0,0,1,1227.3885224274406,1371.121142630096) translate(155.09320987654314 19.544444444444444)"/><use xlink:href="#t" transform="matrix(1,0,0,1,1227.3885224274406,1406.121142630096) translate(0 18.544444444444444)"/><use xlink:href="#u" transform="matrix(1,0,0,1,1227.3885224274406,1406.121142630096) translate(144.308024691358 18.544444444444444)"/><use xlink:href="#v" transform="matrix(1,0,0,1,1227.3885224274406,1440.121142630096) translate(0 18.544444444444444)"/><use xlink:href="#w" transform="matrix(1,0,0,1,1227.3885224274406,1440.121142630096) translate(188.4598765432099 18.544444444444444)"/><use xlink:href="#x" transform="matrix(1,0,0,1,1227.3885224274406,1474.121142630096) translate(0 18.544444444444444)"/><use xlink:href="#y" transform="matrix(1,0,0,1,1227.3885224274406,1474.121142630096) translate(210.3672839506173 18.544444444444444)"/><path d="M1160 850h360v215h-360z" fill="#83bbe5"/><path d="M1160 850h360v215h-360zM1160 890h360M1222.4 890v175" stroke="#0c7cba" stroke-width="5" fill="none"/><use xlink:href="#z" transform="matrix(1,0,0,1,1170,850.0000000000001) translate(30.68858024691363 24.488888888888887)"/><use xlink:href="#b" transform="matrix(1,0,0,1,1165,892.5000000000001) translate(13.018518518518526 19.044444444444444)"/><use xlink:href="#c" transform="matrix(1,0,0,1,1227.3885224274406,892.5000000000001) translate(0 19.544444444444444)"/><use xlink:href="#d" transform="matrix(1,0,0,1,1227.3885224274406,892.5000000000001) translate(39.26481481481479 19.544444444444444)"/><use xlink:href="#g" transform="matrix(1,0,0,1,1165,927.5000000000001) translate(13.608333333333341 19.044444444444444)"/><use xlink:href="#A" transform="matrix(1,0,0,1,1227.3885224274406,927.5000000000001) translate(0 19.544444444444444)"/><use xlink:href="#d" transform="matrix(1,0,0,1,1227.3885224274406,927.5000000000001) translate(110.99753086419746 19.544444444444444)"/><use xlink:href="#g" transform="matrix(1,0,0,1,1165,962.5000000000001) translate(13.608333333333341 19.044444444444444)"/><use xlink:href="#m" transform="matrix(1,0,0,1,1227.3885224274406,962.5000000000001) translate(0 19.544444444444444)"/><use xlink:href="#d" transform="matrix(1,0,0,1,1227.3885224274406,962.5000000000001) translate(191.83024691358014 19.544444444444444)"/><use xlink:href="#g" transform="matrix(1,0,0,1,1165,997.5000000000001) translate(13.608333333333341 19.044444444444444)"/><use xlink:href="#B" transform="matrix(1,0,0,1,1227.3885224274406,997.5000000000001) translate(0 19.544444444444444)"/><use xlink:href="#d" transform="matrix(1,0,0,1,1227.3885224274406,997.5000000000001) translate(130.8265432098765 19.544444444444444)"/><use xlink:href="#C" transform="matrix(1,0,0,1,1227.3885224274406,1032.5) translate(0 19.544444444444444)"/><use xlink:href="#D" transform="matrix(1,0,0,1,1227.3885224274406,1032.5) translate(108.8629629629629 19.544444444444444)"/><path d="M1160 97h360v283h-360z" fill="#83bbe5"/><path d="M1160 97h360v283h-360zM1160 137h360M1222.4 137v243" stroke="#0c7cba" stroke-width="5" fill="none"/><use xlink:href="#E" transform="matrix(1,0,0,1,1170,96.99904243617277) translate(43.68765432098769 24.488888888888887)"/><use xlink:href="#b" transform="matrix(1,0,0,1,1165,139.49904243617277) translate(13.018518518518526 19.044444444444444)"/><use xlink:href="#c" transform="matrix(1,0,0,1,1227.3885224274406,139.49904243617277) translate(0 19.544444444444444)"/><use xlink:href="#d" transform="matrix(1,0,0,1,1227.3885224274406,139.49904243617277) translate(39.26481481481479 19.544444444444444)"/><use xlink:href="#F" transform="matrix(1,0,0,1,1227.3885224274406,174.49904243617277) translate(0 19.544444444444444)"/><use xlink:href="#f" transform="matrix(1,0,0,1,1227.3885224274406,174.49904243617277) translate(60.610493827160454 19.544444444444444)"/><use xlink:href="#G" transform="matrix(1,0,0,1,1227.3885224274406,209.49904243617277) translate(0 19.544444444444444)"/><use xlink:href="#f" transform="matrix(1,0,0,1,1227.3885224274406,209.49904243617277) translate(116.67098765432094 19.544444444444444)"/><use xlink:href="#H" transform="matrix(1,0,0,1,1227.3885224274406,244.49904243617277) translate(0 19.544444444444444)"/><use xlink:href="#f" transform="matrix(1,0,0,1,1227.3885224274406,244.49904243617277) translate(141.38703703703695 19.544444444444444)"/><use xlink:href="#I" transform="matrix(1,0,0,1,1227.3885224274406,279.4990424361728) translate(0 19.544444444444444)"/><use xlink:href="#f" transform="matrix(1,0,0,1,1227.3885224274406,279.4990424361728) translate(41.56790123456788 19.544444444444444)"/><use xlink:href="#J" transform="matrix(1,0,0,1,1165,314.4990424361728) translate(0 18.544444444444444)"/><use xlink:href="#K" transform="matrix(1,0,0,1,1227.3885224274406,314.4990424361728) translate(0 18.544444444444444)"/><use xlink:href="#L" transform="matrix(1,0,0,1,1227.3885224274406,314.4990424361728) translate(131.27592592592592 18.544444444444444)"/><use xlink:href="#J" transform="matrix(1,0,0,1,1165,348.4990424361728) translate(0 18.544444444444444)"/><use xlink:href="#M" transform="matrix(1,0,0,1,1227.3885224274406,348.4990424361728) translate(0 18.544444444444444)"/><use xlink:href="#L" transform="matrix(1,0,0,1,1227.3885224274406,348.4990424361728) translate(149.1388888888889 18.544444444444444)"/><path d="M1160 456.5h360v317h-360z" fill="#83bbe5"/><path d="M1160 456.5h360v317h-360zM1160 496.5h360M1222.4 496.5v277" stroke="#0c7cba" stroke-width="5" fill="none"/><use xlink:href="#N" transform="matrix(1,0,0,1,1170,456.49952121808644) translate(16.941358024691425 24.488888888888887)"/><use xlink:href="#b" transform="matrix(1,0,0,1,1165,498.99952121808644) translate(13.018518518518526 19.044444444444444)"/><use xlink:href="#c" transform="matrix(1,0,0,1,1227.3885224274406,498.99952121808644) translate(0 19.544444444444444)"/><use xlink:href="#d" transform="matrix(1,0,0,1,1227.3885224274406,498.99952121808644) translate(39.26481481481479 19.544444444444444)"/><use xlink:href="#O" transform="matrix(1,0,0,1,1227.3885224274406,533.9995212180864) translate(0 19.544444444444444)"/><use xlink:href="#f" transform="matrix(1,0,0,1,1227.3885224274406,533.9995212180864) translate(215.4228395061727 19.544444444444444)"/><use xlink:href="#P" transform="matrix(1,0,0,1,1227.3885224274406,568.9995212180864) translate(0 19.544444444444444)"/><use xlink:href="#f" transform="matrix(1,0,0,1,1227.3885224274406,568.9995212180864) translate(157.50864197530854 19.544444444444444)"/><use xlink:href="#Q" transform="matrix(1,0,0,1,1227.3885224274406,603.9995212180864) translate(0 19.544444444444444)"/><use xlink:href="#f" transform="matrix(1,0,0,1,1227.3885224274406,603.9995212180864) translate(114.14320987654311 19.544444444444444)"/><use xlink:href="#R" transform="matrix(1,0,0,1,1227.3885224274406,638.9995212180864) translate(0 19.544444444444444)"/><use xlink:href="#D" transform="matrix(1,0,0,1,1227.3885224274406,638.9995212180864) translate(126.83827160493819 19.544444444444444)"/><use xlink:href="#S" transform="matrix(1,0,0,1,1227.3885224274406,673.9995212180864) translate(0 18.544444444444444)"/><use xlink:href="#u" transform="matrix(1,0,0,1,1227.3885224274406,673.9995212180864) translate(110.04259259259258 18.544444444444444)"/><use xlink:href="#J" transform="matrix(1,0,0,1,1165,707.9995212180864) translate(0 18.544444444444444)"/><use xlink:href="#K" transform="matrix(1,0,0,1,1227.3885224274406,707.9995212180864) translate(0 18.544444444444444)"/><use xlink:href="#L" transform="matrix(1,0,0,1,1227.3885224274406,707.9995212180864) translate(131.27592592592592 18.544444444444444)"/><use xlink:href="#J" transform="matrix(1,0,0,1,1165,741.9995212180864) translate(0 18.544444444444444)"/><use xlink:href="#M" transform="matrix(1,0,0,1,1227.3885224274406,741.9995212180864) translate(0 18.544444444444444)"/><use xlink:href="#L" transform="matrix(1,0,0,1,1227.3885224274406,741.9995212180864) translate(149.1388888888889 18.544444444444444)"/><path d="M342.5 477.5H400V756h61.18" stroke="#333" stroke-width="2" fill="none"/><path d="M342.5 487.5v-20M322.5 477.5h20M479.55 766l-20-10 20-10M479.55 756h-20" stroke="#333" stroke-width="2" fill="#fff"/><path d="M862.5 157.5H1010V485H442.5v201H460" stroke="#333" stroke-width="2" fill="none"/><path d="M862.5 167.5v-20M842.5 157.5h20M460 676v20M480 686h-20" stroke="#333" stroke-width="2" fill="#fff"/><path d="M925 616h20V490c-2.76 0-5-2.24-5-5s2.24-5 5-5v-65H440V302.5c-2.76 0-5-2.24-5-5s2.24-5 5-5v-65h18.68" stroke="#333" stroke-width="2" fill="none"/><path d="M925 626v-20M905 616h20M477.05 237.5l-20-10 20-10M477.05 227.5h-20" stroke="#333" stroke-width="2" fill="#fff"/><path d="M862.5 157.5H1010V329h128.68" stroke="#333" stroke-width="2" fill="none"/><path d="M862.5 167.5v-20M842.5 157.5h20M1157.05 339l-20-10 20-10M1157.05 329h-20" stroke="#333" stroke-width="2" fill="#fff"/><path d="M1602.5 1246.12h47.5V1130h-570V363h58.68" stroke="#333" stroke-width="2" fill="none"/><path d="M1602.5 1256.12v-20M1582.5 1246.12h20M1157.05 373l-20-10 20-10M1157.05 363h-20" stroke="#333" stroke-width="2" fill="#fff"/><path d="M1602.5 1246.12h47.5V1130h-570V756.5h58.68" stroke="#333" stroke-width="2" fill="none"/><path d="M1602.5 1256.12v-20M1582.5 1246.12h20M1157.05 766.5l-20-10 20-10M1157.05 756.5h-20" stroke="#333" stroke-width="2" fill="#fff"/><path d="M862.5 157.5H1010v565h65c0-2.76 2.24-5 5-5s5 2.24 5 5h53.68" stroke="#333" stroke-width="2" fill="none"/><path d="M862.5 167.5v-20M842.5 157.5h20M1157.05 732.5l-20-10 20-10M1157.05 722.5h-20" stroke="#333" stroke-width="2" fill="#fff"/><path d="M862.5 157.5H1010v820h65c0-2.76 2.24-5 5-5s5 2.24 5 5h53.68" stroke="#333" stroke-width="2" fill="none"/><path d="M862.5 167.5v-20M842.5 157.5h20M1157.05 987.5l-20-10 20-10M1157.05 977.5h-20" stroke="#333" stroke-width="2" fill="#fff"/><path d="M1602.5 1246.12h47.5V1130h-570V942.5h58.68" stroke="#333" stroke-width="2" fill="none"/><path d="M1602.5 1256.12v-20M1582.5 1246.12h20M1157.05 952.5l-20-10 20-10M1157.05 942.5h-20" stroke="#333" stroke-width="2" fill="#fff"/><path d="M1602.5 1246.12h47.5V1130h-570v-117.5h58.68" stroke="#333" stroke-width="2" fill="none"/><path d="M1602.5 1256.12v-20M1582.5 1246.12h20M1157.05 1022.5l-20-10 20-10M1157.05 1012.5h-20" stroke="#333" stroke-width="2" fill="#fff"/><path d="M862.5 157.5H1010v1158.62h128.68" stroke="#333" stroke-width="2" fill="none"/><path d="M862.5 167.5v-20M842.5 157.5h20M1157.05 1326.12l-20-10 20-10M1157.05 1316.12h-20" stroke="#333" stroke-width="2" fill="#fff"/><defs><path d="M136-208V0H84v-208H4v-40h212v40h-80" id="T"/><path d="M240-174c0 40-23 61-54 70L253 0h-59l-57-94H76V0H24v-248c93 4 217-23 216 74zM76-134c48-2 112 12 112-38 0-48-66-32-112-35v73" id="U"/><path d="M230 0l2-204L168 0h-37L68-204 70 0H24v-248h70l56 185 57-185h69V0h-46" id="V"/><path d="M-4 44V30h207v14H-4" id="W"/><path d="M67-125c0 53 21 87 73 88 37 1 54-22 65-47l45 17C233-25 199 4 140 4 58 4 20-42 15-125 8-235 124-281 211-232c18 10 29 29 36 50l-46 12c-8-25-30-41-62-41-52 0-71 34-72 86" id="X"/><path d="M140-251c80 0 125 45 125 126S219 4 139 4C58 4 15-44 15-125s44-126 125-126zm-1 214c52 0 73-35 73-88 0-50-21-86-72-86-52 0-73 35-73 86s22 88 72 88" id="Y"/><path d="M24-248c120-7 223 5 221 122C244-46 201 0 124 0H24v-248zM76-40c74 7 117-18 117-86 0-67-45-88-117-82v168" id="Z"/><path d="M24 0v-248h195v40H76v63h132v40H76v65h150V0H24" id="aa"/><path d="M169-182c-1-43-94-46-97-3 18 66 151 10 154 114 3 95-165 93-204 36-6-8-10-19-12-30l50-8c3 46 112 56 116 5-17-69-150-10-154-114-4-87 153-88 188-35 5 8 8 18 10 28" id="ab"/><path d="M146-102V0H94v-102L6-248h54l60 105 60-105h54" id="ac"/><g id="a"><use transform="matrix(0.06234567901234565,0,0,0.06234567901234565,0,0)" xlink:href="#T"/><use transform="matrix(0.06234567901234565,0,0,0.06234567901234565,13.653703703703698,0)" xlink:href="#U"/><use transform="matrix(0.06234567901234565,0,0,0.06234567901234565,29.801234567901222,0)" xlink:href="#V"/><use transform="matrix(0.06234567901234565,0,0,0.06234567901234565,48.442592592592575,0)" xlink:href="#W"/><use transform="matrix(0.06234567901234565,0,0,0.06234567901234565,60.91172839506171,0)" xlink:href="#X"/><use transform="matrix(0.06234567901234565,0,0,0.06234567901234565,77.05925925925924,0)" xlink:href="#Y"/><use transform="matrix(0.06234567901234565,0,0,0.06234567901234565,94.51604938271602,0)" xlink:href="#Z"/><use transform="matrix(0.06234567901234565,0,0,0.06234567901234565,110.66358024691354,0)" xlink:href="#aa"/><use transform="matrix(0.06234567901234565,0,0,0.06234567901234565,125.6265432098765,0)" xlink:href="#ab"/><use transform="matrix(0.06234567901234565,0,0,0.06234567901234565,140.58950617283946,0)" xlink:href="#ac"/><use transform="matrix(0.06234567901234565,0,0,0.06234567901234565,155.55246913580243,0)" xlink:href="#ab"/><use transform="matrix(0.06234567901234565,0,0,0.06234567901234565,170.5154320987654,0)" xlink:href="#T"/><use transform="matrix(0.06234567901234565,0,0,0.06234567901234565,184.1691358024691,0)" xlink:href="#aa"/><use transform="matrix(0.06234567901234565,0,0,0.06234567901234565,199.13209876543206,0)" xlink:href="#V"/></g><path d="M30-248c87 1 191-15 191 75 0 78-77 80-158 76V0H30v-248zm33 125c57 0 124 11 124-50 0-59-68-47-124-48v98" id="ad"/><path d="M194 0L95-120 63-95V0H30v-248h33v124l119-124h40L117-140 236 0h-42" id="ae"/><g id="b"><use transform="matrix(0.05617283950617281,0,0,0.05617283950617281,0,0)" xlink:href="#ad"/><use transform="matrix(0.05617283950617281,0,0,0.05617283950617281,13.481481481481474,0)" xlink:href="#ae"/></g><path d="M33 0v-248h34V0H33" id="af"/><path d="M30-248c118-7 216 8 213 122C240-48 200 0 122 0H30v-248zM63-27c89 8 146-16 146-99s-60-101-146-95v194" id="ag"/><g id="c"><use transform="matrix(0.05617283950617281,0,0,0.05617283950617281,0,0)" xlink:href="#ad"/><use transform="matrix(0.05617283950617281,0,0,0.05617283950617281,13.481481481481474,0)" xlink:href="#af"/><use transform="matrix(0.05617283950617281,0,0,0.05617283950617281,19.098765432098755,0)" xlink:href="#ag"/></g><path d="M87 75C49 33 22-17 22-94c0-76 28-126 65-167h31c-38 41-64 92-64 168S80 34 118 75H87" id="ah"/><path d="M30 0v-248h33v221h125V0H30" id="ai"/><path d="M100-194c62-1 85 37 85 99 1 63-27 99-86 99S16-35 15-95c0-66 28-99 85-99zM99-20c44 1 53-31 53-75 0-43-8-75-51-75s-53 32-53 75 10 74 51 75" id="aj"/><path d="M117-194c89-4 53 116 60 194h-32v-121c0-31-8-49-39-48C34-167 62-67 57 0H25l-1-190h30c1 10-1 24 2 32 11-22 29-35 61-36" id="ak"/><path d="M177-190C167-65 218 103 67 71c-23-6-38-20-44-43l32-5c15 47 100 32 89-28v-30C133-14 115 1 83 1 29 1 15-40 15-95c0-56 16-97 71-98 29-1 48 16 59 35 1-10 0-23 2-32h30zM94-22c36 0 50-32 50-73 0-42-14-75-50-75-39 0-46 34-46 75s6 73 46 73" id="al"/><path d="M33-261c38 41 65 92 65 168S71 34 33 75H2C39 34 66-17 66-93S39-220 2-261h31" id="am"/><g id="d"><use transform="matrix(0.05617283950617281,0,0,0.05617283950617281,0,0)" xlink:href="#ah"/><use transform="matrix(0.05617283950617281,0,0,0.05617283950617281,6.684567901234564,0)" xlink:href="#ai"/><use transform="matrix(0.05617283950617281,0,0,0.05617283950617281,17.919135802469125,0)" xlink:href="#aj"/><use transform="matrix(0.05617283950617281,0,0,0.05617283950617281,29.153703703703687,0)" xlink:href="#ak"/><use transform="matrix(0.05617283950617281,0,0,0.05617283950617281,40.38827160493825,0)" xlink:href="#al"/><use transform="matrix(0.05617283950617281,0,0,0.05617283950617281,51.62283950617281,0)" xlink:href="#am"/></g><path d="M212-179c-10-28-35-45-73-45-59 0-87 40-87 99 0 60 29 101 89 101 43 0 62-24 78-52l27 14C228-24 195 4 139 4 59 4 22-46 18-125c-6-104 99-153 187-111 19 9 31 26 39 46" id="an"/><path d="M140-251c81 0 123 46 123 126C263-46 219 4 140 4 59 4 17-45 17-125s42-126 123-126zm0 227c63 0 89-41 89-101s-29-99-89-99c-61 0-89 39-89 99S79-25 140-24" id="ao"/><path d="M30 0v-248h187v28H63v79h144v27H63v87h162V0H30" id="ap"/><path d="M-5 72V49h209v23H-5" id="aq"/><path d="M185-189c-5-48-123-54-124 2 14 75 158 14 163 119 3 78-121 87-175 55-17-10-28-26-33-46l33-7c5 56 141 63 141-1 0-78-155-14-162-118-5-82 145-84 179-34 5 7 8 16 11 25" id="ar"/><path d="M137-103V0h-34v-103L8-248h37l75 118 75-118h37" id="as"/><path d="M127-220V0H93v-220H8v-28h204v28h-85" id="at"/><path d="M240 0l2-218c-23 76-54 145-80 218h-23L58-218 59 0H30v-248h44l77 211c21-75 51-140 76-211h43V0h-30" id="au"/><path d="M232-93c-1 65-40 97-104 97C67 4 28-28 28-90v-158h33c8 89-33 224 67 224 102 0 64-133 71-224h33v155" id="av"/><path d="M233-177c-1 41-23 64-60 70L243 0h-38l-65-103H63V0H30v-248c88 3 205-21 203 71zM63-129c60-2 137 13 137-47 0-61-80-42-137-45v92" id="aw"/><g id="e"><use transform="matrix(0.05617283950617281,0,0,0.05617283950617281,0,0)" xlink:href="#an"/><use transform="matrix(0.05617283950617281,0,0,0.05617283950617281,14.548765432098756,0)" xlink:href="#ao"/><use transform="matrix(0.05617283950617281,0,0,0.05617283950617281,30.277160493827143,0)" xlink:href="#ag"/><use transform="matrix(0.05617283950617281,0,0,0.05617283950617281,44.8259259259259,0)" xlink:href="#ap"/><use transform="matrix(0.05617283950617281,0,0,0.05617283950617281,58.307407407407375,0)" xlink:href="#aq"/><use transform="matrix(0.05617283950617281,0,0,0.05617283950617281,69.54197530864194,0)" xlink:href="#ar"/><use transform="matrix(0.05617283950617281,0,0,0.05617283950617281,83.02345679012342,0)" xlink:href="#as"/><use transform="matrix(0.05617283950617281,0,0,0.05617283950617281,96.50493827160489,0)" xlink:href="#ar"/><use transform="matrix(0.05617283950617281,0,0,0.05617283950617281,109.98641975308635,0)" xlink:href="#at"/><use transform="matrix(0.05617283950617281,0,0,0.05617283950617281,122.2882716049382,0)" xlink:href="#ap"/><use transform="matrix(0.05617283950617281,0,0,0.05617283950617281,135.76975308641968,0)" xlink:href="#au"/><use transform="matrix(0.05617283950617281,0,0,0.05617283950617281,152.56543209876534,0)" xlink:href="#aq"/><use transform="matrix(0.05617283950617281,0,0,0.05617283950617281,163.7999999999999,0)" xlink:href="#av"/><use transform="matrix(0.05617283950617281,0,0,0.05617283950617281,178.34876543209865,0)" xlink:href="#aw"/><use transform="matrix(0.05617283950617281,0,0,0.05617283950617281,192.8975308641974,0)" xlink:href="#af"/></g><path d="M59-47c-2 24 18 29 38 22v24C64 9 27 4 27-40v-127H5v-23h24l9-43h21v43h35v23H59v120" id="ax"/><path d="M114-163C36-179 61-72 57 0H25l-1-190h30c1 12-1 29 2 39 6-27 23-49 58-41v29" id="ay"/><path d="M24-231v-30h32v30H24zM24 0v-190h32V0H24" id="az"/><g id="f"><use transform="matrix(0.05617283950617281,0,0,0.05617283950617281,0,0)" xlink:href="#ah"/><use transform="matrix(0.05617283950617281,0,0,0.05617283950617281,6.684567901234564,0)" xlink:href="#ar"/><use transform="matrix(0.05617283950617281,0,0,0.05617283950617281,20.16604938271604,0)" xlink:href="#ax"/><use transform="matrix(0.05617283950617281,0,0,0.05617283950617281,25.78333333333332,0)" xlink:href="#ay"/><use transform="matrix(0.05617283950617281,0,0,0.05617283950617281,32.46790123456788,0)" xlink:href="#az"/><use transform="matrix(0.05617283950617281,0,0,0.05617283950617281,36.90555555555554,0)" xlink:href="#ak"/><use transform="matrix(0.05617283950617281,0,0,0.05617283950617281,48.1401234567901,0)" xlink:href="#al"/><use transform="matrix(0.05617283950617281,0,0,0.05617283950617281,59.374691358024656,0)" xlink:href="#am"/></g><path d="M63-220v92h138v28H63V0H30v-248h175v28H63" id="aA"/><g id="g"><use transform="matrix(0.05617283950617281,0,0,0.05617283950617281,0,0)" xlink:href="#aA"/><use transform="matrix(0.05617283950617281,0,0,0.05617283950617281,12.301851851851845,0)" xlink:href="#ae"/></g><path d="M190 0L58-211 59 0H30v-248h39L202-35l-2-213h31V0h-41" id="aB"/><path d="M137 0h-34L2-248h35l83 218 83-218h36" id="aC"/><g id="h"><use transform="matrix(0.05617283950617281,0,0,0.05617283950617281,0,0)" xlink:href="#an"/><use transform="matrix(0.05617283950617281,0,0,0.05617283950617281,14.548765432098756,0)" xlink:href="#av"/><use transform="matrix(0.05617283950617281,0,0,0.05617283950617281,29.097530864197513,0)" xlink:href="#aw"/><use transform="matrix(0.05617283950617281,0,0,0.05617283950617281,43.64629629629627,0)" xlink:href="#aw"/><use transform="matrix(0.05617283950617281,0,0,0.05617283950617281,58.195061728395025,0)" xlink:href="#ap"/><use transform="matrix(0.05617283950617281,0,0,0.05617283950617281,71.6765432098765,0)" xlink:href="#aB"/><use transform="matrix(0.05617283950617281,0,0,0.05617283950617281,86.22530864197526,0)" xlink:href="#at"/><use transform="matrix(0.05617283950617281,0,0,0.05617283950617281,98.52716049382711,0)" xlink:href="#aq"/><use transform="matrix(0.05617283950617281,0,0,0.05617283950617281,109.76172839506167,0)" xlink:href="#aC"/><use transform="matrix(0.05617283950617281,0,0,0.05617283950617281,123.24320987654313,0)" xlink:href="#ap"/><use transform="matrix(0.05617283950617281,0,0,0.05617283950617281,136.72469135802461,0)" xlink:href="#aw"/><use transform="matrix(0.05617283950617281,0,0,0.05617283950617281,151.27345679012336,0)" xlink:href="#ar"/><use transform="matrix(0.05617283950617281,0,0,0.05617283950617281,164.75493827160483,0)" xlink:href="#af"/><use transform="matrix(0.05617283950617281,0,0,0.05617283950617281,170.37222222222212,0)" xlink:href="#ao"/><use transform="matrix(0.05617283950617281,0,0,0.05617283950617281,186.1006172839505,0)" xlink:href="#aB"/><use transform="matrix(0.05617283950617281,0,0,0.05617283950617281,200.64938271604925,0)" xlink:href="#aq"/><use transform="matrix(0.05617283950617281,0,0,0.05617283950617281,211.8839506172838,0)" xlink:href="#ad"/><use transform="matrix(0.05617283950617281,0,0,0.05617283950617281,225.36543209876527,0)" xlink:href="#af"/><use transform="matrix(0.05617283950617281,0,0,0.05617283950617281,230.9827160493826,0)" xlink:href="#ag"/></g><path d="M205 0l-28-72H64L36 0H1l101-248h38L239 0h-34zm-38-99l-47-123c-12 45-31 82-46 123h93" id="aD"/><g id="i"><use transform="matrix(0.05617283950617281,0,0,0.05617283950617281,0,0)" xlink:href="#an"/><use transform="matrix(0.05617283950617281,0,0,0.05617283950617281,14.548765432098756,0)" xlink:href="#ar"/><use transform="matrix(0.05617283950617281,0,0,0.05617283950617281,28.03024691358023,0)" xlink:href="#aq"/><use transform="matrix(0.05617283950617281,0,0,0.05617283950617281,39.26481481481479,0)" xlink:href="#aB"/><use transform="matrix(0.05617283950617281,0,0,0.05617283950617281,53.813580246913546,0)" xlink:href="#aD"/><use transform="matrix(0.05617283950617281,0,0,0.05617283950617281,67.29506172839501,0)" xlink:href="#au"/><use transform="matrix(0.05617283950617281,0,0,0.05617283950617281,84.09074074074069,0)" xlink:href="#ap"/></g><g id="j"><use transform="matrix(0.05617283950617281,0,0,0.05617283950617281,0,0)" xlink:href="#aw"/><use transform="matrix(0.05617283950617281,0,0,0.05617283950617281,14.548765432098756,0)" xlink:href="#ap"/><use transform="matrix(0.05617283950617281,0,0,0.05617283950617281,28.03024691358023,0)" xlink:href="#ar"/><use transform="matrix(0.05617283950617281,0,0,0.05617283950617281,41.5117283950617,0)" xlink:href="#aq"/><use transform="matrix(0.05617283950617281,0,0,0.05617283950617281,52.746296296296265,0)" xlink:href="#af"/><use transform="matrix(0.05617283950617281,0,0,0.05617283950617281,58.36358024691355,0)" xlink:href="#ag"/></g><path d="M147 0H94L2-248h55l64 206c17-72 42-137 63-206h54" id="aE"/><g id="k"><use transform="matrix(0.06234567901234565,0,0,0.06234567901234565,0,0)" xlink:href="#T"/><use transform="matrix(0.06234567901234565,0,0,0.06234567901234565,13.653703703703698,0)" xlink:href="#U"/><use transform="matrix(0.06234567901234565,0,0,0.06234567901234565,29.801234567901222,0)" xlink:href="#V"/><use transform="matrix(0.06234567901234565,0,0,0.06234567901234565,48.442592592592575,0)" xlink:href="#W"/><use transform="matrix(0.06234567901234565,0,0,0.06234567901234565,60.91172839506171,0)" xlink:href="#X"/><use transform="matrix(0.06234567901234565,0,0,0.06234567901234565,77.05925925925924,0)" xlink:href="#Y"/><use transform="matrix(0.06234567901234565,0,0,0.06234567901234565,94.51604938271602,0)" xlink:href="#Z"/><use transform="matrix(0.06234567901234565,0,0,0.06234567901234565,110.66358024691354,0)" xlink:href="#aa"/><use transform="matrix(0.06234567901234565,0,0,0.06234567901234565,125.6265432098765,0)" xlink:href="#ab"/><use transform="matrix(0.06234567901234565,0,0,0.06234567901234565,140.58950617283946,0)" xlink:href="#ac"/><use transform="matrix(0.06234567901234565,0,0,0.06234567901234565,155.55246913580243,0)" xlink:href="#ab"/><use transform="matrix(0.06234567901234565,0,0,0.06234567901234565,170.5154320987654,0)" xlink:href="#T"/><use transform="matrix(0.06234567901234565,0,0,0.06234567901234565,184.1691358024691,0)" xlink:href="#aa"/><use transform="matrix(0.06234567901234565,0,0,0.06234567901234565,199.13209876543206,0)" xlink:href="#V"/><use transform="matrix(0.06234567901234565,0,0,0.06234567901234565,217.77345679012342,0)" xlink:href="#W"/><use transform="matrix(0.06234567901234565,0,0,0.06234567901234565,230.24259259259256,0)" xlink:href="#aE"/><use transform="matrix(0.06234567901234565,0,0,0.06234567901234565,245.20555555555552,0)" xlink:href="#aa"/><use transform="matrix(0.06234567901234565,0,0,0.06234567901234565,260.16851851851845,0)" xlink:href="#U"/></g><g id="l"><use transform="matrix(0.05617283950617281,0,0,0.05617283950617281,0,0)" xlink:href="#an"/><use transform="matrix(0.05617283950617281,0,0,0.05617283950617281,14.548765432098756,0)" xlink:href="#ar"/><use transform="matrix(0.05617283950617281,0,0,0.05617283950617281,28.03024691358023,0)" xlink:href="#aq"/><use transform="matrix(0.05617283950617281,0,0,0.05617283950617281,39.26481481481479,0)" xlink:href="#ag"/><use transform="matrix(0.05617283950617281,0,0,0.05617283950617281,53.813580246913546,0)" xlink:href="#af"/><use transform="matrix(0.05617283950617281,0,0,0.05617283950617281,59.430864197530816,0)" xlink:href="#ar"/><use transform="matrix(0.05617283950617281,0,0,0.05617283950617281,72.9123456790123,0)" xlink:href="#ad"/><use transform="matrix(0.05617283950617281,0,0,0.05617283950617281,86.39382716049377,0)" xlink:href="#ai"/><use transform="matrix(0.05617283950617281,0,0,0.05617283950617281,97.62839506172833,0)" xlink:href="#aD"/><use transform="matrix(0.05617283950617281,0,0,0.05617283950617281,109.59320987654314,0)" xlink:href="#as"/></g><g id="m"><use transform="matrix(0.05617283950617281,0,0,0.05617283950617281,0,0)" xlink:href="#an"/><use transform="matrix(0.05617283950617281,0,0,0.05617283950617281,14.548765432098756,0)" xlink:href="#ao"/><use transform="matrix(0.05617283950617281,0,0,0.05617283950617281,30.277160493827143,0)" xlink:href="#ag"/><use transform="matrix(0.05617283950617281,0,0,0.05617283950617281,44.8259259259259,0)" xlink:href="#ap"/><use transform="matrix(0.05617283950617281,0,0,0.05617283950617281,58.307407407407375,0)" xlink:href="#ar"/><use transform="matrix(0.05617283950617281,0,0,0.05617283950617281,71.78888888888885,0)" xlink:href="#as"/><use transform="matrix(0.05617283950617281,0,0,0.05617283950617281,85.27037037037033,0)" xlink:href="#ar"/><use transform="matrix(0.05617283950617281,0,0,0.05617283950617281,98.7518518518518,0)" xlink:href="#at"/><use transform="matrix(0.05617283950617281,0,0,0.05617283950617281,111.05370370370365,0)" xlink:href="#ap"/><use transform="matrix(0.05617283950617281,0,0,0.05617283950617281,124.53518518518514,0)" xlink:href="#au"/><use transform="matrix(0.05617283950617281,0,0,0.05617283950617281,141.3308641975308,0)" xlink:href="#aq"/><use transform="matrix(0.05617283950617281,0,0,0.05617283950617281,152.56543209876534,0)" xlink:href="#ad"/><use transform="matrix(0.05617283950617281,0,0,0.05617283950617281,166.0469135802468,0)" xlink:href="#af"/><use transform="matrix(0.05617283950617281,0,0,0.05617283950617281,171.6641975308641,0)" xlink:href="#ag"/></g><g id="n"><use transform="matrix(0.05617283950617281,0,0,0.05617283950617281,0,0)" xlink:href="#an"/><use transform="matrix(0.05617283950617281,0,0,0.05617283950617281,14.548765432098756,0)" xlink:href="#ar"/><use transform="matrix(0.05617283950617281,0,0,0.05617283950617281,28.03024691358023,0)" xlink:href="#aq"/><use transform="matrix(0.05617283950617281,0,0,0.05617283950617281,39.26481481481479,0)" xlink:href="#aC"/><use transform="matrix(0.05617283950617281,0,0,0.05617283950617281,52.746296296296265,0)" xlink:href="#ap"/><use transform="matrix(0.05617283950617281,0,0,0.05617283950617281,66.22777777777773,0)" xlink:href="#aw"/><use transform="matrix(0.05617283950617281,0,0,0.05617283950617281,80.7765432098765,0)" xlink:href="#ar"/><use transform="matrix(0.05617283950617281,0,0,0.05617283950617281,94.25802469135797,0)" xlink:href="#af"/><use transform="matrix(0.05617283950617281,0,0,0.05617283950617281,99.87530864197525,0)" xlink:href="#ao"/><use transform="matrix(0.05617283950617281,0,0,0.05617283950617281,115.60370370370364,0)" xlink:href="#aB"/><use transform="matrix(0.05617283950617281,0,0,0.05617283950617281,130.1524691358024,0)" xlink:href="#aq"/><use transform="matrix(0.05617283950617281,0,0,0.05617283950617281,141.38703703703695,0)" xlink:href="#af"/><use transform="matrix(0.05617283950617281,0,0,0.05617283950617281,147.00432098765424,0)" xlink:href="#ag"/></g><path d="M186 0v-106H76V0H24v-248h52v99h110v-99h50V0h-50" id="aF"/><path d="M76-208v77h127v40H76V0H24v-248h183v40H76" id="aG"/><path d="M176-78C186 10 51 31 16-35c-5-9-9-19-11-32l52-8c4 21 12 37 35 38 23 0 32-16 32-40v-130H75v-41h101v170" id="aH"/><path d="M238-95c0 69-44 99-111 99C63 4 22-25 22-93v-155h51v151c-1 38 19 59 55 60 90 1 49-130 58-211h52v153" id="aI"/><g id="o"><use transform="matrix(0.06234567901234565,0,0,0.06234567901234565,0,0)" xlink:href="#aF"/><use transform="matrix(0.06234567901234565,0,0,0.06234567901234565,16.147530864197524,0)" xlink:href="#aG"/><use transform="matrix(0.06234567901234565,0,0,0.06234567901234565,29.801234567901222,0)" xlink:href="#aH"/><use transform="matrix(0.06234567901234565,0,0,0.06234567901234565,42.27037037037035,0)" xlink:href="#W"/><use transform="matrix(0.06234567901234565,0,0,0.06234567901234565,54.739506172839484,0)" xlink:href="#U"/><use transform="matrix(0.06234567901234565,0,0,0.06234567901234565,70.887037037037,0)" xlink:href="#aa"/><use transform="matrix(0.06234567901234565,0,0,0.06234567901234565,85.84999999999997,0)" xlink:href="#ab"/><use transform="matrix(0.06234567901234565,0,0,0.06234567901234565,100.81296296296293,0)" xlink:href="#Y"/><use transform="matrix(0.06234567901234565,0,0,0.06234567901234565,118.26975308641971,0)" xlink:href="#aI"/><use transform="matrix(0.06234567901234565,0,0,0.06234567901234565,134.41728395061725,0)" xlink:href="#U"/><use transform="matrix(0.06234567901234565,0,0,0.06234567901234565,150.56481481481478,0)" xlink:href="#X"/><use transform="matrix(0.06234567901234565,0,0,0.06234567901234565,166.71234567901232,0)" xlink:href="#aa"/></g><path d="M175 0L67-191c6 58 2 128 3 191H24v-248h59L193-55c-6-58-2-129-3-193h46V0h-61" id="aJ"/><path d="M24-248c93 1 206-16 204 79-1 75-69 88-152 82V0H24v-248zm52 121c47 0 100 7 100-41 0-47-54-39-100-39v80" id="aK"/><g id="p"><use transform="matrix(0.06234567901234565,0,0,0.06234567901234565,0,0)" xlink:href="#T"/><use transform="matrix(0.06234567901234565,0,0,0.06234567901234565,13.653703703703698,0)" xlink:href="#U"/><use transform="matrix(0.06234567901234565,0,0,0.06234567901234565,29.801234567901222,0)" xlink:href="#V"/><use transform="matrix(0.06234567901234565,0,0,0.06234567901234565,48.442592592592575,0)" xlink:href="#W"/><use transform="matrix(0.06234567901234565,0,0,0.06234567901234565,60.91172839506171,0)" xlink:href="#X"/><use transform="matrix(0.06234567901234565,0,0,0.06234567901234565,77.05925925925924,0)" xlink:href="#Y"/><use transform="matrix(0.06234567901234565,0,0,0.06234567901234565,94.51604938271602,0)" xlink:href="#aJ"/><use transform="matrix(0.06234567901234565,0,0,0.06234567901234565,110.66358024691354,0)" xlink:href="#X"/><use transform="matrix(0.06234567901234565,0,0,0.06234567901234565,126.81111111111106,0)" xlink:href="#aa"/><use transform="matrix(0.06234567901234565,0,0,0.06234567901234565,141.774074074074,0)" xlink:href="#aK"/><use transform="matrix(0.06234567901234565,0,0,0.06234567901234565,156.73703703703697,0)" xlink:href="#T"/></g><g id="q"><use transform="matrix(0.05617283950617281,0,0,0.05617283950617281,0,0)" xlink:href="#an"/><use transform="matrix(0.05617283950617281,0,0,0.05617283950617281,14.548765432098756,0)" xlink:href="#ao"/><use transform="matrix(0.05617283950617281,0,0,0.05617283950617281,30.277160493827143,0)" xlink:href="#ag"/><use transform="matrix(0.05617283950617281,0,0,0.05617283950617281,44.8259259259259,0)" xlink:href="#ap"/><use transform="matrix(0.05617283950617281,0,0,0.05617283950617281,58.307407407407375,0)" xlink:href="#aC"/><use transform="matrix(0.05617283950617281,0,0,0.05617283950617281,70.27222222222218,0)" xlink:href="#aD"/><use transform="matrix(0.05617283950617281,0,0,0.05617283950617281,83.75370370370365,0)" xlink:href="#ai"/></g><g id="r"><use transform="matrix(0.05617283950617281,0,0,0.05617283950617281,0,0)" xlink:href="#ag"/><use transform="matrix(0.05617283950617281,0,0,0.05617283950617281,14.548765432098756,0)" xlink:href="#af"/><use transform="matrix(0.05617283950617281,0,0,0.05617283950617281,20.166049382716036,0)" xlink:href="#ar"/><use transform="matrix(0.05617283950617281,0,0,0.05617283950617281,33.647530864197506,0)" xlink:href="#ad"/><use transform="matrix(0.05617283950617281,0,0,0.05617283950617281,47.12901234567898,0)" xlink:href="#ai"/><use transform="matrix(0.05617283950617281,0,0,0.05617283950617281,58.36358024691355,0)" xlink:href="#aD"/><use transform="matrix(0.05617283950617281,0,0,0.05617283950617281,70.32839506172834,0)" xlink:href="#as"/></g><path d="M195 0l-74-108L45 0H8l94-129-87-119h37l69 98 67-98h37l-84 118L233 0h-38" id="aL"/><g id="s"><use transform="matrix(0.05617283950617281,0,0,0.05617283950617281,0,0)" xlink:href="#af"/><use transform="matrix(0.05617283950617281,0,0,0.05617283950617281,5.6172839506172805,0)" xlink:href="#aB"/><use transform="matrix(0.05617283950617281,0,0,0.05617283950617281,20.166049382716036,0)" xlink:href="#ag"/><use transform="matrix(0.05617283950617281,0,0,0.05617283950617281,34.714814814814794,0)" xlink:href="#ap"/><use transform="matrix(0.05617283950617281,0,0,0.05617283950617281,48.19629629629627,0)" xlink:href="#aL"/><use transform="matrix(0.05617283950617281,0,0,0.05617283950617281,61.67777777777774,0)" xlink:href="#aq"/><use transform="matrix(0.05617283950617281,0,0,0.05617283950617281,72.9123456790123,0)" xlink:href="#ar"/><use transform="matrix(0.05617283950617281,0,0,0.05617283950617281,86.39382716049377,0)" xlink:href="#at"/><use transform="matrix(0.05617283950617281,0,0,0.05617283950617281,97.17901234567896,0)" xlink:href="#aD"/><use transform="matrix(0.05617283950617281,0,0,0.05617283950617281,109.14382716049377,0)" xlink:href="#at"/><use transform="matrix(0.05617283950617281,0,0,0.05617283950617281,121.44567901234561,0)" xlink:href="#av"/><use transform="matrix(0.05617283950617281,0,0,0.05617283950617281,135.99444444444438,0)" xlink:href="#ar"/></g><g id="t"><use transform="matrix(0.056172839506172835,0,0,0.056172839506172835,0,0)" xlink:href="#ad"/><use transform="matrix(0.056172839506172835,0,0,0.056172839506172835,11.964814814814815,0)" xlink:href="#aD"/><use transform="matrix(0.056172839506172835,0,0,0.056172839506172835,25.446296296296296,0)" xlink:href="#aw"/><use transform="matrix(0.056172839506172835,0,0,0.056172839506172835,39.99506172839506,0)" xlink:href="#ap"/><use transform="matrix(0.056172839506172835,0,0,0.056172839506172835,53.47654320987654,0)" xlink:href="#aB"/><use transform="matrix(0.056172839506172835,0,0,0.056172839506172835,68.0253086419753,0)" xlink:href="#at"/><use transform="matrix(0.056172839506172835,0,0,0.056172839506172835,80.32716049382715,0)" xlink:href="#aq"/><use transform="matrix(0.056172839506172835,0,0,0.056172839506172835,91.56172839506172,0)" xlink:href="#ad"/><use transform="matrix(0.056172839506172835,0,0,0.056172839506172835,105.0432098765432,0)" xlink:href="#af"/><use transform="matrix(0.056172839506172835,0,0,0.056172839506172835,110.66049382716048,0)" xlink:href="#ag"/><use transform="matrix(0.056172839506172835,0,0,0.056172839506172835,125.20925925925926,0)" xlink:href="#ar"/></g><g id="u"><use transform="matrix(0.056172839506172835,0,0,0.056172839506172835,0,0)" xlink:href="#ah"/><use transform="matrix(0.056172839506172835,0,0,0.056172839506172835,6.684567901234567,0)" xlink:href="#ar"/><use transform="matrix(0.056172839506172835,0,0,0.056172839506172835,20.166049382716047,0)" xlink:href="#ax"/><use transform="matrix(0.056172839506172835,0,0,0.056172839506172835,25.78333333333333,0)" xlink:href="#ay"/><use transform="matrix(0.056172839506172835,0,0,0.056172839506172835,32.4679012345679,0)" xlink:href="#az"/><use transform="matrix(0.056172839506172835,0,0,0.056172839506172835,36.90555555555555,0)" xlink:href="#ak"/><use transform="matrix(0.056172839506172835,0,0,0.056172839506172835,48.14012345679012,0)" xlink:href="#al"/><use transform="matrix(0.056172839506172835,0,0,0.056172839506172835,59.374691358024684,0)" xlink:href="#am"/></g><path d="M140-251c81 0 123 46 123 126C263-53 228-8 163 1c7 30 30 48 69 40v23c-55 16-95-15-103-61C56-3 17-48 17-125c0-80 42-126 123-126zm0 227c63 0 89-41 89-101s-29-99-89-99c-61 0-89 39-89 99S79-25 140-24" id="aM"/><g id="v"><use transform="matrix(0.056172839506172835,0,0,0.056172839506172835,0,0)" xlink:href="#an"/><use transform="matrix(0.056172839506172835,0,0,0.056172839506172835,14.548765432098763,0)" xlink:href="#ao"/><use transform="matrix(0.056172839506172835,0,0,0.056172839506172835,30.277160493827157,0)" xlink:href="#ag"/><use transform="matrix(0.056172839506172835,0,0,0.056172839506172835,44.82592592592592,0)" xlink:href="#ap"/><use transform="matrix(0.056172839506172835,0,0,0.056172839506172835,58.3074074074074,0)" xlink:href="#aq"/><use transform="matrix(0.056172839506172835,0,0,0.056172839506172835,69.54197530864197,0)" xlink:href="#ar"/><use transform="matrix(0.056172839506172835,0,0,0.056172839506172835,83.02345679012345,0)" xlink:href="#ap"/><use transform="matrix(0.056172839506172835,0,0,0.056172839506172835,96.50493827160493,0)" xlink:href="#aM"/><use transform="matrix(0.056172839506172835,0,0,0.056172839506172835,112.23333333333332,0)" xlink:href="#av"/><use transform="matrix(0.056172839506172835,0,0,0.056172839506172835,126.78209876543208,0)" xlink:href="#ap"/><use transform="matrix(0.056172839506172835,0,0,0.056172839506172835,140.26358024691356,0)" xlink:href="#aB"/><use transform="matrix(0.056172839506172835,0,0,0.056172839506172835,154.81234567901234,0)" xlink:href="#an"/><use transform="matrix(0.056172839506172835,0,0,0.056172839506172835,169.36111111111111,0)" xlink:href="#ap"/></g><path d="M100-194c63 0 86 42 84 106H49c0 40 14 67 53 68 26 1 43-12 49-29l28 8c-11 28-37 45-77 45C44 4 14-33 15-96c1-61 26-98 85-98zm52 81c6-60-76-77-97-28-3 7-6 17-6 28h103" id="aN"/><g id="w"><use transform="matrix(0.056172839506172835,0,0,0.056172839506172835,0,0)" xlink:href="#ah"/><use transform="matrix(0.056172839506172835,0,0,0.056172839506172835,6.684567901234567,0)" xlink:href="#af"/><use transform="matrix(0.056172839506172835,0,0,0.056172839506172835,12.30185185185185,0)" xlink:href="#ak"/><use transform="matrix(0.056172839506172835,0,0,0.056172839506172835,23.536419753086417,0)" xlink:href="#ax"/><use transform="matrix(0.056172839506172835,0,0,0.056172839506172835,29.153703703703695,0)" xlink:href="#aN"/><use transform="matrix(0.056172839506172835,0,0,0.056172839506172835,40.38827160493827,0)" xlink:href="#al"/><use transform="matrix(0.056172839506172835,0,0,0.056172839506172835,51.62283950617284,0)" xlink:href="#aN"/><use transform="matrix(0.056172839506172835,0,0,0.056172839506172835,62.8574074074074,0)" xlink:href="#ay"/><use transform="matrix(0.056172839506172835,0,0,0.056172839506172835,69.54197530864198,0)" xlink:href="#am"/></g><g id="x"><use transform="matrix(0.056172839506172835,0,0,0.056172839506172835,0,0)" xlink:href="#an"/><use transform="matrix(0.056172839506172835,0,0,0.056172839506172835,14.548765432098763,0)" xlink:href="#ao"/><use transform="matrix(0.056172839506172835,0,0,0.056172839506172835,30.277160493827157,0)" xlink:href="#aB"/><use transform="matrix(0.056172839506172835,0,0,0.056172839506172835,44.82592592592592,0)" xlink:href="#an"/><use transform="matrix(0.056172839506172835,0,0,0.056172839506172835,59.374691358024684,0)" xlink:href="#ap"/><use transform="matrix(0.056172839506172835,0,0,0.056172839506172835,72.85617283950617,0)" xlink:href="#ad"/><use transform="matrix(0.056172839506172835,0,0,0.056172839506172835,86.33765432098765,0)" xlink:href="#at"/><use transform="matrix(0.056172839506172835,0,0,0.056172839506172835,98.6395061728395,0)" xlink:href="#aq"/><use transform="matrix(0.056172839506172835,0,0,0.056172839506172835,109.87407407407407,0)" xlink:href="#av"/><use transform="matrix(0.056172839506172835,0,0,0.056172839506172835,124.42283950617283,0)" xlink:href="#ad"/><use transform="matrix(0.056172839506172835,0,0,0.056172839506172835,137.90432098765433,0)" xlink:href="#ag"/><use transform="matrix(0.056172839506172835,0,0,0.056172839506172835,152.4530864197531,0)" xlink:href="#aD"/><use transform="matrix(0.056172839506172835,0,0,0.056172839506172835,164.41790123456792,0)" xlink:href="#at"/><use transform="matrix(0.056172839506172835,0,0,0.056172839506172835,176.71975308641976,0)" xlink:href="#ap"/><use transform="matrix(0.056172839506172835,0,0,0.056172839506172835,190.20123456790122,0)" xlink:href="#ag"/></g><path d="M210-169c-67 3-38 105-44 169h-31v-121c0-29-5-50-35-48C34-165 62-65 56 0H25l-1-190h30c1 10-1 24 2 32 10-44 99-50 107 0 11-21 27-35 58-36 85-2 47 119 55 194h-31v-121c0-29-5-49-35-48" id="aO"/><path d="M135-143c-3-34-86-38-87 0 15 53 115 12 119 90S17 21 10-45l28-5c4 36 97 45 98 0-10-56-113-15-118-90-4-57 82-63 122-42 12 7 21 19 24 35" id="aP"/><path d="M141-36C126-15 110 5 73 4 37 3 15-17 15-53c-1-64 63-63 125-63 3-35-9-54-41-54-24 1-41 7-42 31l-33-3c5-37 33-52 76-52 45 0 72 20 72 64v82c-1 20 7 32 28 27v20c-31 9-61-2-59-35zM48-53c0 20 12 33 32 33 41-3 63-29 60-74-43 2-92-5-92 41" id="aQ"/><path d="M115-194c55 1 70 41 70 98S169 2 115 4C84 4 66-9 55-30l1 105H24l-1-265h31l2 30c10-21 28-34 59-34zm-8 174c40 0 45-34 45-75s-6-73-45-74c-42 0-51 32-51 76 0 43 10 73 51 73" id="aR"/><g id="y"><use transform="matrix(0.056172839506172835,0,0,0.056172839506172835,0,0)" xlink:href="#ah"/><use transform="matrix(0.056172839506172835,0,0,0.056172839506172835,6.684567901234567,0)" xlink:href="#at"/><use transform="matrix(0.056172839506172835,0,0,0.056172839506172835,18.25617283950617,0)" xlink:href="#az"/><use transform="matrix(0.056172839506172835,0,0,0.056172839506172835,22.693827160493825,0)" xlink:href="#aO"/><use transform="matrix(0.056172839506172835,0,0,0.056172839506172835,39.4895061728395,0)" xlink:href="#aN"/><use transform="matrix(0.056172839506172835,0,0,0.056172839506172835,50.72407407407407,0)" xlink:href="#aP"/><use transform="matrix(0.056172839506172835,0,0,0.056172839506172835,60.83518518518518,0)" xlink:href="#ax"/><use transform="matrix(0.056172839506172835,0,0,0.056172839506172835,66.45246913580246,0)" xlink:href="#aQ"/><use transform="matrix(0.056172839506172835,0,0,0.056172839506172835,77.68703703703703,0)" xlink:href="#aO"/><use transform="matrix(0.056172839506172835,0,0,0.056172839506172835,94.4827160493827,0)" xlink:href="#aR"/><use transform="matrix(0.056172839506172835,0,0,0.056172839506172835,105.71728395061727,0)" xlink:href="#am"/></g><path d="M24 0v-248h52v208h133V0H24" id="aS"/><path d="M24 0v-248h52V0H24" id="aT"/><path d="M195 0l-88-114-31 24V0H24v-248h52v113l112-113h60L142-143 257 0h-62" id="aU"/><g id="z"><use transform="matrix(0.06234567901234565,0,0,0.06234567901234565,0,0)" xlink:href="#T"/><use transform="matrix(0.06234567901234565,0,0,0.06234567901234565,13.653703703703698,0)" xlink:href="#U"/><use transform="matrix(0.06234567901234565,0,0,0.06234567901234565,29.801234567901222,0)" xlink:href="#V"/><use transform="matrix(0.06234567901234565,0,0,0.06234567901234565,48.442592592592575,0)" xlink:href="#W"/><use transform="matrix(0.06234567901234565,0,0,0.06234567901234565,60.91172839506171,0)" xlink:href="#X"/><use transform="matrix(0.06234567901234565,0,0,0.06234567901234565,77.05925925925924,0)" xlink:href="#Y"/><use transform="matrix(0.06234567901234565,0,0,0.06234567901234565,94.51604938271602,0)" xlink:href="#aJ"/><use transform="matrix(0.06234567901234565,0,0,0.06234567901234565,110.66358024691354,0)" xlink:href="#X"/><use transform="matrix(0.06234567901234565,0,0,0.06234567901234565,126.81111111111106,0)" xlink:href="#aa"/><use transform="matrix(0.06234567901234565,0,0,0.06234567901234565,141.774074074074,0)" xlink:href="#aK"/><use transform="matrix(0.06234567901234565,0,0,0.06234567901234565,156.73703703703697,0)" xlink:href="#T"/><use transform="matrix(0.06234567901234565,0,0,0.06234567901234565,170.39074074074068,0)" xlink:href="#W"/><use transform="matrix(0.06234567901234565,0,0,0.06234567901234565,182.85987654320982,0)" xlink:href="#aK"/><use transform="matrix(0.06234567901234565,0,0,0.06234567901234565,197.82283950617278,0)" xlink:href="#X"/><use transform="matrix(0.06234567901234565,0,0,0.06234567901234565,213.97037037037032,0)" xlink:href="#W"/><use transform="matrix(0.06234567901234565,0,0,0.06234567901234565,226.43950617283946,0)" xlink:href="#aS"/><use transform="matrix(0.06234567901234565,0,0,0.06234567901234565,240.09320987654314,0)" xlink:href="#aT"/><use transform="matrix(0.06234567901234565,0,0,0.06234567901234565,246.3277777777777,0)" xlink:href="#aJ"/><use transform="matrix(0.06234567901234565,0,0,0.06234567901234565,262.47530864197523,0)" xlink:href="#aU"/></g><path d="M197 0v-115H63V0H30v-248h33v105h134v-105h34V0h-34" id="aV"/><g id="A"><use transform="matrix(0.05617283950617281,0,0,0.05617283950617281,0,0)" xlink:href="#an"/><use transform="matrix(0.05617283950617281,0,0,0.05617283950617281,14.548765432098756,0)" xlink:href="#aV"/><use transform="matrix(0.05617283950617281,0,0,0.05617283950617281,29.097530864197513,0)" xlink:href="#af"/><use transform="matrix(0.05617283950617281,0,0,0.05617283950617281,34.714814814814794,0)" xlink:href="#ai"/><use transform="matrix(0.05617283950617281,0,0,0.05617283950617281,45.94938271604936,0)" xlink:href="#ag"/><use transform="matrix(0.05617283950617281,0,0,0.05617283950617281,60.49814814814811,0)" xlink:href="#aq"/><use transform="matrix(0.05617283950617281,0,0,0.05617283950617281,71.73271604938267,0)" xlink:href="#ad"/><use transform="matrix(0.05617283950617281,0,0,0.05617283950617281,85.21419753086414,0)" xlink:href="#af"/><use transform="matrix(0.05617283950617281,0,0,0.05617283950617281,90.83148148148142,0)" xlink:href="#ag"/></g><g id="B"><use transform="matrix(0.05617283950617281,0,0,0.05617283950617281,0,0)" xlink:href="#ad"/><use transform="matrix(0.05617283950617281,0,0,0.05617283950617281,11.964814814814808,0)" xlink:href="#aD"/><use transform="matrix(0.05617283950617281,0,0,0.05617283950617281,25.446296296296282,0)" xlink:href="#aw"/><use transform="matrix(0.05617283950617281,0,0,0.05617283950617281,39.99506172839504,0)" xlink:href="#ap"/><use transform="matrix(0.05617283950617281,0,0,0.05617283950617281,53.47654320987651,0)" xlink:href="#aB"/><use transform="matrix(0.05617283950617281,0,0,0.05617283950617281,68.02530864197527,0)" xlink:href="#at"/><use transform="matrix(0.05617283950617281,0,0,0.05617283950617281,80.32716049382712,0)" xlink:href="#aq"/><use transform="matrix(0.05617283950617281,0,0,0.05617283950617281,91.56172839506168,0)" xlink:href="#ad"/><use transform="matrix(0.05617283950617281,0,0,0.05617283950617281,105.04320987654316,0)" xlink:href="#af"/><use transform="matrix(0.05617283950617281,0,0,0.05617283950617281,110.66049382716044,0)" xlink:href="#ag"/></g><g id="C"><use transform="matrix(0.05617283950617281,0,0,0.05617283950617281,0,0)" xlink:href="#aw"/><use transform="matrix(0.05617283950617281,0,0,0.05617283950617281,14.548765432098756,0)" xlink:href="#ap"/><use transform="matrix(0.05617283950617281,0,0,0.05617283950617281,28.03024691358023,0)" xlink:href="#ai"/><use transform="matrix(0.05617283950617281,0,0,0.05617283950617281,39.26481481481479,0)" xlink:href="#aq"/><use transform="matrix(0.05617283950617281,0,0,0.05617283950617281,50.499382716049354,0)" xlink:href="#at"/><use transform="matrix(0.05617283950617281,0,0,0.05617283950617281,62.8012345679012,0)" xlink:href="#as"/><use transform="matrix(0.05617283950617281,0,0,0.05617283950617281,76.28271604938267,0)" xlink:href="#ad"/><use transform="matrix(0.05617283950617281,0,0,0.05617283950617281,89.76419753086415,0)" xlink:href="#ap"/></g><g id="D"><use transform="matrix(0.05617283950617281,0,0,0.05617283950617281,0,0)" xlink:href="#ah"/><use transform="matrix(0.05617283950617281,0,0,0.05617283950617281,6.684567901234564,0)" xlink:href="#af"/><use transform="matrix(0.05617283950617281,0,0,0.05617283950617281,12.301851851851843,0)" xlink:href="#ak"/><use transform="matrix(0.05617283950617281,0,0,0.05617283950617281,23.536419753086406,0)" xlink:href="#ax"/><use transform="matrix(0.05617283950617281,0,0,0.05617283950617281,29.153703703703687,0)" xlink:href="#aN"/><use transform="matrix(0.05617283950617281,0,0,0.05617283950617281,40.38827160493825,0)" xlink:href="#al"/><use transform="matrix(0.05617283950617281,0,0,0.05617283950617281,51.62283950617281,0)" xlink:href="#aN"/><use transform="matrix(0.05617283950617281,0,0,0.05617283950617281,62.85740740740737,0)" xlink:href="#ay"/><use transform="matrix(0.05617283950617281,0,0,0.05617283950617281,69.54197530864194,0)" xlink:href="#am"/></g><path d="M67-125c0 54 23 88 75 88 28 0 53-7 68-21v-34h-60v-39h108v91C232-14 192 4 140 4 58 4 20-42 15-125 8-236 126-280 215-234c19 10 29 26 37 47l-47 15c-11-23-29-39-63-39-53 1-75 33-75 86" id="aW"/><g id="E"><use transform="matrix(0.06234567901234565,0,0,0.06234567901234565,0,0)" xlink:href="#T"/><use transform="matrix(0.06234567901234565,0,0,0.06234567901234565,13.653703703703698,0)" xlink:href="#U"/><use transform="matrix(0.06234567901234565,0,0,0.06234567901234565,29.801234567901222,0)" xlink:href="#V"/><use transform="matrix(0.06234567901234565,0,0,0.06234567901234565,48.442592592592575,0)" xlink:href="#W"/><use transform="matrix(0.06234567901234565,0,0,0.06234567901234565,60.91172839506171,0)" xlink:href="#X"/><use transform="matrix(0.06234567901234565,0,0,0.06234567901234565,77.05925925925924,0)" xlink:href="#Y"/><use transform="matrix(0.06234567901234565,0,0,0.06234567901234565,94.51604938271602,0)" xlink:href="#aJ"/><use transform="matrix(0.06234567901234565,0,0,0.06234567901234565,110.66358024691354,0)" xlink:href="#X"/><use transform="matrix(0.06234567901234565,0,0,0.06234567901234565,126.81111111111106,0)" xlink:href="#aa"/><use transform="matrix(0.06234567901234565,0,0,0.06234567901234565,141.774074074074,0)" xlink:href="#aK"/><use transform="matrix(0.06234567901234565,0,0,0.06234567901234565,156.73703703703697,0)" xlink:href="#T"/><use transform="matrix(0.06234567901234565,0,0,0.06234567901234565,170.39074074074068,0)" xlink:href="#W"/><use transform="matrix(0.06234567901234565,0,0,0.06234567901234565,182.85987654320982,0)" xlink:href="#Z"/><use transform="matrix(0.06234567901234565,0,0,0.06234567901234565,199.00740740740736,0)" xlink:href="#aa"/><use transform="matrix(0.06234567901234565,0,0,0.06234567901234565,213.97037037037032,0)" xlink:href="#ab"/><use transform="matrix(0.06234567901234565,0,0,0.06234567901234565,228.93333333333328,0)" xlink:href="#aT"/><use transform="matrix(0.06234567901234565,0,0,0.06234567901234565,235.16790123456784,0)" xlink:href="#aW"/></g><path d="M143 4C61 4 22-44 18-125c-5-107 100-154 193-111 17 8 29 25 37 43l-32 9c-13-25-37-40-76-40-61 0-88 39-88 99 0 61 29 100 91 101 35 0 62-11 79-27v-45h-74v-28h105v86C228-13 192 4 143 4" id="aX"/><g id="F"><use transform="matrix(0.05617283950617281,0,0,0.05617283950617281,0,0)" xlink:href="#ai"/><use transform="matrix(0.05617283950617281,0,0,0.05617283950617281,11.234567901234561,0)" xlink:href="#aD"/><use transform="matrix(0.05617283950617281,0,0,0.05617283950617281,24.716049382716037,0)" xlink:href="#aB"/><use transform="matrix(0.05617283950617281,0,0,0.05617283950617281,39.26481481481479,0)" xlink:href="#aX"/></g><g id="G"><use transform="matrix(0.05617283950617281,0,0,0.05617283950617281,0,0)" xlink:href="#av"/><use transform="matrix(0.05617283950617281,0,0,0.05617283950617281,14.548765432098756,0)" xlink:href="#ar"/><use transform="matrix(0.05617283950617281,0,0,0.05617283950617281,28.03024691358023,0)" xlink:href="#ap"/><use transform="matrix(0.05617283950617281,0,0,0.05617283950617281,41.5117283950617,0)" xlink:href="#aq"/><use transform="matrix(0.05617283950617281,0,0,0.05617283950617281,52.746296296296265,0)" xlink:href="#an"/><use transform="matrix(0.05617283950617281,0,0,0.05617283950617281,67.29506172839503,0)" xlink:href="#ao"/><use transform="matrix(0.05617283950617281,0,0,0.05617283950617281,83.02345679012342,0)" xlink:href="#ag"/><use transform="matrix(0.05617283950617281,0,0,0.05617283950617281,97.57222222222218,0)" xlink:href="#ap"/></g><g id="H"><use transform="matrix(0.05617283950617281,0,0,0.05617283950617281,0,0)" xlink:href="#av"/><use transform="matrix(0.05617283950617281,0,0,0.05617283950617281,14.548765432098756,0)" xlink:href="#ar"/><use transform="matrix(0.05617283950617281,0,0,0.05617283950617281,28.03024691358023,0)" xlink:href="#ap"/><use transform="matrix(0.05617283950617281,0,0,0.05617283950617281,41.5117283950617,0)" xlink:href="#aq"/><use transform="matrix(0.05617283950617281,0,0,0.05617283950617281,52.746296296296265,0)" xlink:href="#ar"/><use transform="matrix(0.05617283950617281,0,0,0.05617283950617281,66.22777777777773,0)" xlink:href="#as"/><use transform="matrix(0.05617283950617281,0,0,0.05617283950617281,79.7092592592592,0)" xlink:href="#ar"/><use transform="matrix(0.05617283950617281,0,0,0.05617283950617281,93.19074074074067,0)" xlink:href="#at"/><use transform="matrix(0.05617283950617281,0,0,0.05617283950617281,105.49259259259252,0)" xlink:href="#ap"/><use transform="matrix(0.05617283950617281,0,0,0.05617283950617281,118.97407407407401,0)" xlink:href="#au"/></g><g id="I"><use transform="matrix(0.05617283950617281,0,0,0.05617283950617281,0,0)" xlink:href="#aC"/><use transform="matrix(0.05617283950617281,0,0,0.05617283950617281,11.964814814814808,0)" xlink:href="#aD"/><use transform="matrix(0.05617283950617281,0,0,0.05617283950617281,25.446296296296282,0)" xlink:href="#ai"/></g><g id="J"><use transform="matrix(0.056172839506172835,0,0,0.056172839506172835,0,0)" xlink:href="#aA"/><use transform="matrix(0.056172839506172835,0,0,0.056172839506172835,12.30185185185185,0)" xlink:href="#ae"/></g><g id="K"><use transform="matrix(0.056172839506172835,0,0,0.056172839506172835,0,0)" xlink:href="#an"/><use transform="matrix(0.056172839506172835,0,0,0.056172839506172835,14.548765432098763,0)" xlink:href="#ar"/><use transform="matrix(0.056172839506172835,0,0,0.056172839506172835,28.030246913580243,0)" xlink:href="#aq"/><use transform="matrix(0.056172839506172835,0,0,0.056172839506172835,39.26481481481481,0)" xlink:href="#aC"/><use transform="matrix(0.056172839506172835,0,0,0.056172839506172835,52.74629629629629,0)" xlink:href="#ap"/><use transform="matrix(0.056172839506172835,0,0,0.056172839506172835,66.22777777777777,0)" xlink:href="#aw"/><use transform="matrix(0.056172839506172835,0,0,0.056172839506172835,80.77654320987654,0)" xlink:href="#aq"/><use transform="matrix(0.056172839506172835,0,0,0.056172839506172835,92.0111111111111,0)" xlink:href="#ad"/><use transform="matrix(0.056172839506172835,0,0,0.056172839506172835,105.49259259259259,0)" xlink:href="#af"/><use transform="matrix(0.056172839506172835,0,0,0.056172839506172835,111.10987654320986,0)" xlink:href="#ag"/></g><g id="L"><use transform="matrix(0.056172839506172835,0,0,0.056172839506172835,0,0)" xlink:href="#ah"/><use transform="matrix(0.056172839506172835,0,0,0.056172839506172835,6.684567901234567,0)" xlink:href="#ai"/><use transform="matrix(0.056172839506172835,0,0,0.056172839506172835,17.919135802469135,0)" xlink:href="#aj"/><use transform="matrix(0.056172839506172835,0,0,0.056172839506172835,29.1537037037037,0)" xlink:href="#ak"/><use transform="matrix(0.056172839506172835,0,0,0.056172839506172835,40.38827160493827,0)" xlink:href="#al"/><use transform="matrix(0.056172839506172835,0,0,0.056172839506172835,51.62283950617284,0)" xlink:href="#am"/></g><g id="M"><use transform="matrix(0.056172839506172835,0,0,0.056172839506172835,0,0)" xlink:href="#an"/><use transform="matrix(0.056172839506172835,0,0,0.056172839506172835,14.548765432098763,0)" xlink:href="#ao"/><use transform="matrix(0.056172839506172835,0,0,0.056172839506172835,30.277160493827157,0)" xlink:href="#aB"/><use transform="matrix(0.056172839506172835,0,0,0.056172839506172835,44.82592592592592,0)" xlink:href="#an"/><use transform="matrix(0.056172839506172835,0,0,0.056172839506172835,59.374691358024684,0)" xlink:href="#ap"/><use transform="matrix(0.056172839506172835,0,0,0.056172839506172835,72.85617283950617,0)" xlink:href="#ad"/><use transform="matrix(0.056172839506172835,0,0,0.056172839506172835,86.33765432098765,0)" xlink:href="#at"/><use transform="matrix(0.056172839506172835,0,0,0.056172839506172835,98.6395061728395,0)" xlink:href="#aq"/><use transform="matrix(0.056172839506172835,0,0,0.056172839506172835,109.87407407407407,0)" xlink:href="#ad"/><use transform="matrix(0.056172839506172835,0,0,0.056172839506172835,123.35555555555554,0)" xlink:href="#af"/><use transform="matrix(0.056172839506172835,0,0,0.056172839506172835,128.97283950617285,0)" xlink:href="#ag"/></g><g id="N"><use transform="matrix(0.06234567901234565,0,0,0.06234567901234565,0,0)" xlink:href="#T"/><use transform="matrix(0.06234567901234565,0,0,0.06234567901234565,13.653703703703698,0)" xlink:href="#U"/><use transform="matrix(0.06234567901234565,0,0,0.06234567901234565,29.801234567901222,0)" xlink:href="#V"/><use transform="matrix(0.06234567901234565,0,0,0.06234567901234565,48.442592592592575,0)" xlink:href="#W"/><use transform="matrix(0.06234567901234565,0,0,0.06234567901234565,60.91172839506171,0)" xlink:href="#X"/><use transform="matrix(0.06234567901234565,0,0,0.06234567901234565,77.05925925925924,0)" xlink:href="#Y"/><use transform="matrix(0.06234567901234565,0,0,0.06234567901234565,94.51604938271602,0)" xlink:href="#aJ"/><use transform="matrix(0.06234567901234565,0,0,0.06234567901234565,110.66358024691354,0)" xlink:href="#X"/><use transform="matrix(0.06234567901234565,0,0,0.06234567901234565,126.81111111111106,0)" xlink:href="#aa"/><use transform="matrix(0.06234567901234565,0,0,0.06234567901234565,141.774074074074,0)" xlink:href="#aK"/><use transform="matrix(0.06234567901234565,0,0,0.06234567901234565,156.73703703703697,0)" xlink:href="#T"/><use transform="matrix(0.06234567901234565,0,0,0.06234567901234565,170.39074074074068,0)" xlink:href="#W"/><use transform="matrix(0.06234567901234565,0,0,0.06234567901234565,182.85987654320982,0)" xlink:href="#aK"/><use transform="matrix(0.06234567901234565,0,0,0.06234567901234565,197.82283950617278,0)" xlink:href="#U"/><use transform="matrix(0.06234567901234565,0,0,0.06234567901234565,213.97037037037032,0)" xlink:href="#Y"/><use transform="matrix(0.06234567901234565,0,0,0.06234567901234565,231.4271604938271,0)" xlink:href="#aK"/><use transform="matrix(0.06234567901234565,0,0,0.06234567901234565,246.39012345679006,0)" xlink:href="#aa"/><use transform="matrix(0.06234567901234565,0,0,0.06234567901234565,261.353086419753,0)" xlink:href="#U"/><use transform="matrix(0.06234567901234565,0,0,0.06234567901234565,277.50061728395053,0)" xlink:href="#T"/><use transform="matrix(0.06234567901234565,0,0,0.06234567901234565,291.1543209876542,0)" xlink:href="#ac"/></g><g id="O"><use transform="matrix(0.05617283950617281,0,0,0.05617283950617281,0,0)" xlink:href="#ad"/><use transform="matrix(0.05617283950617281,0,0,0.05617283950617281,13.481481481481474,0)" xlink:href="#aw"/><use transform="matrix(0.05617283950617281,0,0,0.05617283950617281,28.03024691358023,0)" xlink:href="#ao"/><use transform="matrix(0.05617283950617281,0,0,0.05617283950617281,43.75864197530861,0)" xlink:href="#ad"/><use transform="matrix(0.05617283950617281,0,0,0.05617283950617281,57.24012345679009,0)" xlink:href="#aq"/><use transform="matrix(0.05617283950617281,0,0,0.05617283950617281,68.47469135802464,0)" xlink:href="#an"/><use transform="matrix(0.05617283950617281,0,0,0.05617283950617281,83.0234567901234,0)" xlink:href="#ao"/><use transform="matrix(0.05617283950617281,0,0,0.05617283950617281,98.7518518518518,0)" xlink:href="#ag"/><use transform="matrix(0.05617283950617281,0,0,0.05617283950617281,113.30061728395056,0)" xlink:href="#ap"/><use transform="matrix(0.05617283950617281,0,0,0.05617283950617281,126.78209876543205,0)" xlink:href="#ar"/><use transform="matrix(0.05617283950617281,0,0,0.05617283950617281,140.2635802469135,0)" xlink:href="#as"/><use transform="matrix(0.05617283950617281,0,0,0.05617283950617281,153.74506172839497,0)" xlink:href="#ar"/><use transform="matrix(0.05617283950617281,0,0,0.05617283950617281,167.22654320987644,0)" xlink:href="#at"/><use transform="matrix(0.05617283950617281,0,0,0.05617283950617281,179.52839506172828,0)" xlink:href="#ap"/><use transform="matrix(0.05617283950617281,0,0,0.05617283950617281,193.00987654320974,0)" xlink:href="#au"/></g><g id="P"><use transform="matrix(0.05617283950617281,0,0,0.05617283950617281,0,0)" xlink:href="#ad"/><use transform="matrix(0.05617283950617281,0,0,0.05617283950617281,13.481481481481474,0)" xlink:href="#aw"/><use transform="matrix(0.05617283950617281,0,0,0.05617283950617281,28.03024691358023,0)" xlink:href="#ao"/><use transform="matrix(0.05617283950617281,0,0,0.05617283950617281,43.75864197530861,0)" xlink:href="#ad"/><use transform="matrix(0.05617283950617281,0,0,0.05617283950617281,57.24012345679009,0)" xlink:href="#aq"/><use transform="matrix(0.05617283950617281,0,0,0.05617283950617281,68.47469135802464,0)" xlink:href="#ag"/><use transform="matrix(0.05617283950617281,0,0,0.05617283950617281,83.0234567901234,0)" xlink:href="#af"/><use transform="matrix(0.05617283950617281,0,0,0.05617283950617281,88.64074074074068,0)" xlink:href="#ar"/><use transform="matrix(0.05617283950617281,0,0,0.05617283950617281,102.12222222222215,0)" xlink:href="#ad"/><use transform="matrix(0.05617283950617281,0,0,0.05617283950617281,115.60370370370362,0)" xlink:href="#ai"/><use transform="matrix(0.05617283950617281,0,0,0.05617283950617281,126.83827160493817,0)" xlink:href="#aD"/><use transform="matrix(0.05617283950617281,0,0,0.05617283950617281,138.803086419753,0)" xlink:href="#as"/></g><g id="Q"><use transform="matrix(0.05617283950617281,0,0,0.05617283950617281,0,0)" xlink:href="#ad"/><use transform="matrix(0.05617283950617281,0,0,0.05617283950617281,13.481481481481474,0)" xlink:href="#aw"/><use transform="matrix(0.05617283950617281,0,0,0.05617283950617281,28.03024691358023,0)" xlink:href="#ao"/><use transform="matrix(0.05617283950617281,0,0,0.05617283950617281,43.75864197530861,0)" xlink:href="#ad"/><use transform="matrix(0.05617283950617281,0,0,0.05617283950617281,57.24012345679009,0)" xlink:href="#aq"/><use transform="matrix(0.05617283950617281,0,0,0.05617283950617281,68.47469135802464,0)" xlink:href="#ae"/><use transform="matrix(0.05617283950617281,0,0,0.05617283950617281,81.95617283950611,0)" xlink:href="#ap"/><use transform="matrix(0.05617283950617281,0,0,0.05617283950617281,95.43765432098758,0)" xlink:href="#as"/></g><g id="R"><use transform="matrix(0.05617283950617281,0,0,0.05617283950617281,0,0)" xlink:href="#ad"/><use transform="matrix(0.05617283950617281,0,0,0.05617283950617281,13.481481481481474,0)" xlink:href="#aw"/><use transform="matrix(0.05617283950617281,0,0,0.05617283950617281,28.03024691358023,0)" xlink:href="#ao"/><use transform="matrix(0.05617283950617281,0,0,0.05617283950617281,43.75864197530861,0)" xlink:href="#ad"/><use transform="matrix(0.05617283950617281,0,0,0.05617283950617281,57.24012345679009,0)" xlink:href="#aq"/><use transform="matrix(0.05617283950617281,0,0,0.05617283950617281,68.47469135802464,0)" xlink:href="#at"/><use transform="matrix(0.05617283950617281,0,0,0.05617283950617281,80.7765432098765,0)" xlink:href="#as"/><use transform="matrix(0.05617283950617281,0,0,0.05617283950617281,94.25802469135797,0)" xlink:href="#ad"/><use transform="matrix(0.05617283950617281,0,0,0.05617283950617281,107.73950617283944,0)" xlink:href="#ap"/></g><g id="S"><use transform="matrix(0.056172839506172835,0,0,0.056172839506172835,0,0)" xlink:href="#ad"/><use transform="matrix(0.056172839506172835,0,0,0.056172839506172835,13.481481481481481,0)" xlink:href="#aw"/><use transform="matrix(0.056172839506172835,0,0,0.056172839506172835,28.030246913580243,0)" xlink:href="#ao"/><use transform="matrix(0.056172839506172835,0,0,0.056172839506172835,43.758641975308635,0)" xlink:href="#ad"/><use transform="matrix(0.056172839506172835,0,0,0.056172839506172835,57.240123456790116,0)" xlink:href="#aq"/><use transform="matrix(0.056172839506172835,0,0,0.056172839506172835,68.47469135802469,0)" xlink:href="#aC"/><use transform="matrix(0.056172839506172835,0,0,0.056172839506172835,80.4395061728395,0)" xlink:href="#aD"/><use transform="matrix(0.056172839506172835,0,0,0.056172839506172835,93.92098765432098,0)" xlink:href="#ai"/></g></defs></g></svg>