<svg xmlns="http://www.w3.org/2000/svg" xmlns:xlink="http://www.w3.org/1999/xlink" xmlns:lucid="lucid" width="1313.5" height="831.38"><g transform="translate(-26.5 -40)" lucid:page-tab-id="0_0"><path d="M880 60h360v351H880z" fill="#83bbe5"/><path d="M880 60h360v351H880zM880 100h360M942.4 100v311" stroke="#0c7cba" stroke-width="5" fill="none"/><use xlink:href="#a" transform="matrix(1,0,0,1,890,60) translate(6.373765432098821 24.488888888888887)"/><use xlink:href="#b" transform="matrix(1,0,0,1,885,102.5) translate(13.018518518518526 19.044444444444444)"/><use xlink:href="#c" transform="matrix(1,0,0,1,947.3885224274406,102.5) translate(0 19.544444444444444)"/><use xlink:href="#d" transform="matrix(1,0,0,1,947.3885224274406,102.5) translate(39.26481481481479 19.544444444444444)"/><use xlink:href="#e" transform="matrix(1,0,0,1,947.3885224274406,137.5) translate(0 19.544444444444444)"/><use xlink:href="#f" transform="matrix(1,0,0,1,947.3885224274406,137.5) translate(210.08641975308626 19.544444444444444)"/><use xlink:href="#g" transform="matrix(1,0,0,1,947.3885224274406,172.5) translate(0 19.544444444444444)"/><use xlink:href="#f" transform="matrix(1,0,0,1,947.3885224274406,172.5) translate(142.7913580246913 19.544444444444444)"/><use xlink:href="#h" transform="matrix(1,0,0,1,947.3885224274406,207.5) translate(0 19.544444444444444)"/><use xlink:href="#f" transform="matrix(1,0,0,1,947.3885224274406,207.5) translate(130.1524691358024 19.544444444444444)"/><use xlink:href="#i" transform="matrix(1,0,0,1,947.3885224274406,242.5) translate(0 18.544444444444444)"/><use xlink:href="#j" transform="matrix(1,0,0,1,947.3885224274406,242.5) translate(194.0771604938272 18.544444444444444)"/><use xlink:href="#k" transform="matrix(1,0,0,1,947.3885224274406,276.5) translate(0 19.544444444444444)"/><use xlink:href="#f" transform="matrix(1,0,0,1,947.3885224274406,276.5) translate(136.7808641975308 19.544444444444444)"/><use xlink:href="#l" transform="matrix(1,0,0,1,947.3885224274406,311.5) translate(0 18.544444444444444)"/><use xlink:href="#m" transform="matrix(1,0,0,1,947.3885224274406,311.5) translate(124.14197530864196 18.544444444444444)"/><use xlink:href="#n" transform="matrix(1,0,0,1,947.3885224274406,345.5) translate(0 18.544444444444444)"/><use xlink:href="#m" transform="matrix(1,0,0,1,947.3885224274406,345.5) translate(188.06666666666672 18.544444444444444)"/><use xlink:href="#o" transform="matrix(1,0,0,1,885,379.5) translate(13.608333333333334 16.177777777777777)"/><use xlink:href="#p" transform="matrix(1,0,0,1,947.3885224274406,379.5) translate(0 18.544444444444444)"/><use xlink:href="#q" transform="matrix(1,0,0,1,947.3885224274406,379.5) translate(204.1320987654321 18.544444444444444)"/><path d="M460 60.38h300v249H460z" fill="#83bbe5"/><path d="M460 60.38h300v249H460zM460 100.38h300M522.4 100.38v209" stroke="#0c7cba" stroke-width="5" fill="none"/><use xlink:href="#r" transform="matrix(1,0,0,1,470,60.375) translate(23.694135802469162 24.488888888888887)"/><use xlink:href="#b" transform="matrix(1,0,0,1,465,102.875) translate(13.018518518518526 19.044444444444444)"/><use xlink:href="#c" transform="matrix(1,0,0,1,527.3885224274406,102.875) translate(0 19.544444444444444)"/><use xlink:href="#d" transform="matrix(1,0,0,1,527.3885224274406,102.875) translate(39.26481481481479 19.544444444444444)"/><use xlink:href="#s" transform="matrix(1,0,0,1,465,137.875) translate(13.608333333333341 19.044444444444444)"/><use xlink:href="#t" transform="matrix(1,0,0,1,527.3885224274406,137.875) translate(0 19.544444444444444)"/><use xlink:href="#d" transform="matrix(1,0,0,1,527.3885224274406,137.875) translate(78.52962962962958 19.544444444444444)"/><use xlink:href="#g" transform="matrix(1,0,0,1,527.3885224274406,172.875) translate(0 19.544444444444444)"/><use xlink:href="#f" transform="matrix(1,0,0,1,527.3885224274406,172.875) translate(142.7913580246913 19.544444444444444)"/><use xlink:href="#k" transform="matrix(1,0,0,1,527.3885224274406,207.875) translate(0 19.544444444444444)"/><use xlink:href="#f" transform="matrix(1,0,0,1,527.3885224274406,207.875) translate(136.7808641975308 19.544444444444444)"/><use xlink:href="#u" transform="matrix(1,0,0,1,527.3885224274406,242.875) translate(0 19.544444444444444)"/><use xlink:href="#f" transform="matrix(1,0,0,1,527.3885224274406,242.875) translate(45.219135802469104 19.544444444444444)"/><use xlink:href="#v" transform="matrix(1,0,0,1,527.3885224274406,277.875) translate(0 18.544444444444444)"/><use xlink:href="#w" transform="matrix(1,0,0,1,527.3885224274406,277.875) translate(47.12901234567901 18.544444444444444)"/><path d="M80 60.38h260v75H80z" fill="#83bbe5"/><path d="M80 60.38h260v75H80zM80 100.38h260M142.4 100.38v35" stroke="#0c7cba" stroke-width="5" fill="none"/><use xlink:href="#x" transform="matrix(1,0,0,1,90,60.375) translate(29.16234567901236 24.488888888888887)"/><use xlink:href="#b" transform="matrix(1,0,0,1,85,102.875) translate(13.018518518518526 19.044444444444444)"/><use xlink:href="#t" transform="matrix(1,0,0,1,147.38852242744065,102.875) translate(0 19.544444444444444)"/><use xlink:href="#d" transform="matrix(1,0,0,1,147.38852242744065,102.875) translate(78.52962962962958 19.544444444444444)"/><path d="M362.5 117.88H400v35h37.5" stroke="#333" stroke-width="2" fill="none"/><path d="M362.5 127.88v-20M342.5 117.88h20M437.5 142.88v20M457.5 152.88h-20" stroke="#333" stroke-width="2" fill="#fff"/><path d="M782.5 117.87H820V394h38.68" stroke="#333" stroke-width="2" fill="none"/><path d="M782.5 127.87v-20M762.5 117.87h20M877.05 404l-20-10 20-10M877.05 394h-20" stroke="#333" stroke-width="2" fill="#fff"/><path d="M80 500.38h440v317H80z" fill="#83bbe5"/><path d="M80 500.38h440v317H80zM80 540.38h440M142.4 540.38v277" stroke="#0c7cba" stroke-width="5" fill="none"/><use xlink:href="#y" transform="matrix(1,0,0,1,90,500.375) translate(3.4487654320989236 24.488888888888887)"/><use xlink:href="#b" transform="matrix(1,0,0,1,85,542.875) translate(13.018518518518526 19.044444444444444)"/><use xlink:href="#c" transform="matrix(1,0,0,1,147.38852242744065,542.875) translate(0 19.544444444444444)"/><use xlink:href="#d" transform="matrix(1,0,0,1,147.38852242744065,542.875) translate(39.26481481481479 19.544444444444444)"/><use xlink:href="#z" transform="matrix(1,0,0,1,147.38852242744065,577.875) translate(0 19.544444444444444)"/><use xlink:href="#f" transform="matrix(1,0,0,1,147.38852242744065,577.875) translate(161.49691358024683 19.544444444444444)"/><use xlink:href="#e" transform="matrix(1,0,0,1,147.38852242744065,612.875) translate(0 19.544444444444444)"/><use xlink:href="#f" transform="matrix(1,0,0,1,147.38852242744065,612.875) translate(210.08641975308626 19.544444444444444)"/><use xlink:href="#A" transform="matrix(1,0,0,1,147.38852242744065,647.875) translate(0 19.544444444444444)"/><use xlink:href="#f" transform="matrix(1,0,0,1,147.38852242744065,647.875) translate(186.60617283950606 19.544444444444444)"/><use xlink:href="#B" transform="matrix(1,0,0,1,147.38852242744065,682.875) translate(0 18.544444444444444)"/><use xlink:href="#j" transform="matrix(1,0,0,1,147.38852242744065,682.875) translate(139.47716049382714 18.544444444444444)"/><use xlink:href="#C" transform="matrix(1,0,0,1,147.38852242744065,716.875) translate(0 19.544444444444444)"/><use xlink:href="#f" transform="matrix(1,0,0,1,147.38852242744065,716.875) translate(190.76296296296283 19.544444444444444)"/><use xlink:href="#D" transform="matrix(1,0,0,1,147.38852242744065,751.875) translate(0 18.544444444444444)"/><use xlink:href="#m" transform="matrix(1,0,0,1,147.38852242744065,751.875) translate(160.42962962962963 18.544444444444444)"/><use xlink:href="#o" transform="matrix(1,0,0,1,85,785.875) translate(13.608333333333334 16.177777777777777)"/><use xlink:href="#E" transform="matrix(1,0,0,1,147.38852242744065,785.875) translate(0 18.544444444444444)"/><use xlink:href="#q" transform="matrix(1,0,0,1,147.38852242744065,785.875) translate(289.40246913580245 18.544444444444444)"/><path d="M1262.5 117.5h20v338.2H37.5v344.68h21.18" stroke="#333" stroke-width="2" fill="none"/><path d="M1262.5 127.5v-20M1242.5 117.5h20M77.05 810.38l-20-10 20-10M77.05 800.38h-20" stroke="#333" stroke-width="2" fill="#fff"/><path d="M880 500.38h440v351H880z" fill="#83bbe5"/><path d="M880 500.38h440v351H880zM880 540.38h440M942.4 540.38v311" stroke="#0c7cba" stroke-width="5" fill="none"/><g><use xlink:href="#F" transform="matrix(1,0,0,1,890,500.375) translate(4.695679012345835 24.488888888888887)"/></g><g><use xlink:href="#b" transform="matrix(1,0,0,1,885,542.875) translate(13.018518518518526 19.044444444444444)"/></g><g><use xlink:href="#c" transform="matrix(1,0,0,1,947.3885224274406,542.875) translate(0 19.544444444444444)"/><use xlink:href="#d" transform="matrix(1,0,0,1,947.3885224274406,542.875) translate(39.26481481481479 19.544444444444444)"/></g><g><use xlink:href="#G" transform="matrix(1,0,0,1,947.3885224274406,577.875) translate(0 19.544444444444444)"/><use xlink:href="#f" transform="matrix(1,0,0,1,947.3885224274406,577.875) translate(155.48641975308635 19.544444444444444)"/></g><g><use xlink:href="#e" transform="matrix(1,0,0,1,947.3885224274406,612.875) translate(0 19.544444444444444)"/><use xlink:href="#f" transform="matrix(1,0,0,1,947.3885224274406,612.875) translate(210.08641975308626 19.544444444444444)"/></g><g><use xlink:href="#H" transform="matrix(1,0,0,1,947.3885224274406,647.875) translate(0 19.544444444444444)"/><use xlink:href="#f" transform="matrix(1,0,0,1,947.3885224274406,647.875) translate(180.59567901234558 19.544444444444444)"/></g><g><use xlink:href="#I" transform="matrix(1,0,0,1,947.3885224274406,682.875) translate(0 18.544444444444444)"/><use xlink:href="#j" transform="matrix(1,0,0,1,947.3885224274406,682.875) translate(239.29629629629628 18.544444444444444)"/></g><g><use xlink:href="#J" transform="matrix(1,0,0,1,947.3885224274406,716.875) translate(0 19.544444444444444)"/><use xlink:href="#f" transform="matrix(1,0,0,1,947.3885224274406,716.875) translate(139.47716049382709 19.544444444444444)"/></g><g><use xlink:href="#K" transform="matrix(1,0,0,1,947.3885224274406,751.875) translate(0 18.544444444444444)"/><use xlink:href="#m" transform="matrix(1,0,0,1,947.3885224274406,751.875) translate(190.762962962963 18.544444444444444)"/></g><g><use xlink:href="#D" transform="matrix(1,0,0,1,947.3885224274406,785.875) translate(0 18.544444444444444)"/><use xlink:href="#m" transform="matrix(1,0,0,1,947.3885224274406,785.875) translate(160.42962962962963 18.544444444444444)"/></g><g><use xlink:href="#o" transform="matrix(1,0,0,1,885,819.875) translate(13.608333333333334 16.177777777777777)"/></g><g><use xlink:href="#E" transform="matrix(1,0,0,1,947.3885224274406,819.875) translate(0 18.544444444444444)"/><use xlink:href="#q" transform="matrix(1,0,0,1,947.3885224274406,819.875) translate(289.40246913580245 18.544444444444444)"/></g><path d="M542.5 557.88H700v276.5h158.68" stroke="#333" stroke-width="2" fill="none"/><path d="M542.5 567.88v-20M522.5 557.88h20M877.05 844.38l-20-10 20-10M877.05 834.38h-20" stroke="#333" stroke-width="2" fill="#fff"/><defs><path fill="#333" d="M136-208V0H84v-208H4v-40h212v40h-80" id="L"/><path fill="#333" d="M240-174c0 40-23 61-54 70L253 0h-59l-57-94H76V0H24v-248c93 4 217-23 216 74zM76-134c48-2 112 12 112-38 0-48-66-32-112-35v73" id="M"/><path fill="#333" d="M230 0l2-204L168 0h-37L68-204 70 0H24v-248h70l56 185 57-185h69V0h-46" id="N"/><path fill="#333" d="M-4 44V30h207v14H-4" id="O"/><path fill="#333" d="M67-125c0 53 21 87 73 88 37 1 54-22 65-47l45 17C233-25 199 4 140 4 58 4 20-42 15-125 8-235 124-281 211-232c18 10 29 29 36 50l-46 12c-8-25-30-41-62-41-52 0-71 34-72 86" id="P"/><path fill="#333" d="M140-251c80 0 125 45 125 126S219 4 139 4C58 4 15-44 15-125s44-126 125-126zm-1 214c52 0 73-35 73-88 0-50-21-86-72-86-52 0-73 35-73 86s22 88 72 88" id="Q"/><path fill="#333" d="M175 0L67-191c6 58 2 128 3 191H24v-248h59L193-55c-6-58-2-129-3-193h46V0h-61" id="R"/><path fill="#333" d="M24 0v-248h195v40H76v63h132v40H76v65h150V0H24" id="S"/><path fill="#333" d="M24-248c93 1 206-16 204 79-1 75-69 88-152 82V0H24v-248zm52 121c47 0 100 7 100-41 0-47-54-39-100-39v80" id="T"/><path fill="#333" d="M199 0l-22-63H83L61 0H9l90-248h61L250 0h-51zm-33-102l-36-108c-10 38-24 72-36 108h72" id="U"/><path fill="#333" d="M67-125c0 54 23 88 75 88 28 0 53-7 68-21v-34h-60v-39h108v91C232-14 192 4 140 4 58 4 20-42 15-125 8-236 126-280 215-234c19 10 29 26 37 47l-47 15c-11-23-29-39-63-39-53 1-75 33-75 86" id="V"/><path fill="#333" d="M238-95c0 69-44 99-111 99C63 4 22-25 22-93v-155h51v151c-1 38 19 59 55 60 90 1 49-130 58-211h52v153" id="W"/><g id="a"><use transform="matrix(0.06234567901234565,0,0,0.06234567901234565,0,0)" xlink:href="#L"/><use transform="matrix(0.06234567901234565,0,0,0.06234567901234565,13.653703703703698,0)" xlink:href="#M"/><use transform="matrix(0.06234567901234565,0,0,0.06234567901234565,29.801234567901222,0)" xlink:href="#N"/><use transform="matrix(0.06234567901234565,0,0,0.06234567901234565,48.442592592592575,0)" xlink:href="#O"/><use transform="matrix(0.06234567901234565,0,0,0.06234567901234565,60.91172839506171,0)" xlink:href="#P"/><use transform="matrix(0.06234567901234565,0,0,0.06234567901234565,77.05925925925924,0)" xlink:href="#Q"/><use transform="matrix(0.06234567901234565,0,0,0.06234567901234565,94.51604938271602,0)" xlink:href="#R"/><use transform="matrix(0.06234567901234565,0,0,0.06234567901234565,110.66358024691354,0)" xlink:href="#P"/><use transform="matrix(0.06234567901234565,0,0,0.06234567901234565,126.81111111111106,0)" xlink:href="#S"/><use transform="matrix(0.06234567901234565,0,0,0.06234567901234565,141.774074074074,0)" xlink:href="#T"/><use transform="matrix(0.06234567901234565,0,0,0.06234567901234565,156.73703703703697,0)" xlink:href="#L"/><use transform="matrix(0.06234567901234565,0,0,0.06234567901234565,170.39074074074068,0)" xlink:href="#O"/><use transform="matrix(0.06234567901234565,0,0,0.06234567901234565,182.85987654320982,0)" xlink:href="#N"/><use transform="matrix(0.06234567901234565,0,0,0.06234567901234565,201.50123456790118,0)" xlink:href="#U"/><use transform="matrix(0.06234567901234565,0,0,0.06234567901234565,217.6487654320987,0)" xlink:href="#T"/><use transform="matrix(0.06234567901234565,0,0,0.06234567901234565,232.61172839506168,0)" xlink:href="#O"/><use transform="matrix(0.06234567901234565,0,0,0.06234567901234565,245.08086419753081,0)" xlink:href="#V"/><use transform="matrix(0.06234567901234565,0,0,0.06234567901234565,262.5376543209876,0)" xlink:href="#M"/><use transform="matrix(0.06234567901234565,0,0,0.06234567901234565,278.6851851851851,0)" xlink:href="#Q"/><use transform="matrix(0.06234567901234565,0,0,0.06234567901234565,296.1419753086419,0)" xlink:href="#W"/><use transform="matrix(0.06234567901234565,0,0,0.06234567901234565,312.2895061728394,0)" xlink:href="#T"/></g><path d="M30-248c87 1 191-15 191 75 0 78-77 80-158 76V0H30v-248zm33 125c57 0 124 11 124-50 0-59-68-47-124-48v98" id="X"/><path d="M194 0L95-120 63-95V0H30v-248h33v124l119-124h40L117-140 236 0h-42" id="Y"/><g id="b"><use transform="matrix(0.05617283950617281,0,0,0.05617283950617281,0,0)" xlink:href="#X"/><use transform="matrix(0.05617283950617281,0,0,0.05617283950617281,13.481481481481474,0)" xlink:href="#Y"/></g><path d="M33 0v-248h34V0H33" id="Z"/><path d="M30-248c118-7 216 8 213 122C240-48 200 0 122 0H30v-248zM63-27c89 8 146-16 146-99s-60-101-146-95v194" id="aa"/><g id="c"><use transform="matrix(0.05617283950617281,0,0,0.05617283950617281,0,0)" xlink:href="#X"/><use transform="matrix(0.05617283950617281,0,0,0.05617283950617281,13.481481481481474,0)" xlink:href="#Z"/><use transform="matrix(0.05617283950617281,0,0,0.05617283950617281,19.098765432098755,0)" xlink:href="#aa"/></g><path d="M87 75C49 33 22-17 22-94c0-76 28-126 65-167h31c-38 41-64 92-64 168S80 34 118 75H87" id="ab"/><path d="M30 0v-248h33v221h125V0H30" id="ac"/><path d="M100-194c62-1 85 37 85 99 1 63-27 99-86 99S16-35 15-95c0-66 28-99 85-99zM99-20c44 1 53-31 53-75 0-43-8-75-51-75s-53 32-53 75 10 74 51 75" id="ad"/><path d="M117-194c89-4 53 116 60 194h-32v-121c0-31-8-49-39-48C34-167 62-67 57 0H25l-1-190h30c1 10-1 24 2 32 11-22 29-35 61-36" id="ae"/><path d="M177-190C167-65 218 103 67 71c-23-6-38-20-44-43l32-5c15 47 100 32 89-28v-30C133-14 115 1 83 1 29 1 15-40 15-95c0-56 16-97 71-98 29-1 48 16 59 35 1-10 0-23 2-32h30zM94-22c36 0 50-32 50-73 0-42-14-75-50-75-39 0-46 34-46 75s6 73 46 73" id="af"/><path d="M33-261c38 41 65 92 65 168S71 34 33 75H2C39 34 66-17 66-93S39-220 2-261h31" id="ag"/><g id="d"><use transform="matrix(0.05617283950617281,0,0,0.05617283950617281,0,0)" xlink:href="#ab"/><use transform="matrix(0.05617283950617281,0,0,0.05617283950617281,6.684567901234564,0)" xlink:href="#ac"/><use transform="matrix(0.05617283950617281,0,0,0.05617283950617281,17.919135802469125,0)" xlink:href="#ad"/><use transform="matrix(0.05617283950617281,0,0,0.05617283950617281,29.153703703703687,0)" xlink:href="#ae"/><use transform="matrix(0.05617283950617281,0,0,0.05617283950617281,40.38827160493825,0)" xlink:href="#af"/><use transform="matrix(0.05617283950617281,0,0,0.05617283950617281,51.62283950617281,0)" xlink:href="#ag"/></g><path d="M212-179c-10-28-35-45-73-45-59 0-87 40-87 99 0 60 29 101 89 101 43 0 62-24 78-52l27 14C228-24 195 4 139 4 59 4 22-46 18-125c-6-104 99-153 187-111 19 9 31 26 39 46" id="ah"/><path d="M140-251c81 0 123 46 123 126C263-46 219 4 140 4 59 4 17-45 17-125s42-126 123-126zm0 227c63 0 89-41 89-101s-29-99-89-99c-61 0-89 39-89 99S79-25 140-24" id="ai"/><path d="M190 0L58-211 59 0H30v-248h39L202-35l-2-213h31V0h-41" id="aj"/><path d="M30 0v-248h187v28H63v79h144v27H63v87h162V0H30" id="ak"/><path d="M127-220V0H93v-220H8v-28h204v28h-85" id="al"/><path d="M-5 72V49h209v23H-5" id="am"/><path d="M240 0l2-218c-23 76-54 145-80 218h-23L58-218 59 0H30v-248h44l77 211c21-75 51-140 76-211h43V0h-30" id="an"/><path d="M205 0l-28-72H64L36 0H1l101-248h38L239 0h-34zm-38-99l-47-123c-12 45-31 82-46 123h93" id="ao"/><path d="M232-93c-1 65-40 97-104 97C67 4 28-28 28-90v-158h33c8 89-33 224 67 224 102 0 64-133 71-224h33v155" id="ap"/><path d="M233-177c-1 41-23 64-60 70L243 0h-38l-65-103H63V0H30v-248c88 3 205-21 203 71zM63-129c60-2 137 13 137-47 0-61-80-42-137-45v92" id="aq"/><g id="e"><use transform="matrix(0.05617283950617281,0,0,0.05617283950617281,0,0)" xlink:href="#ah"/><use transform="matrix(0.05617283950617281,0,0,0.05617283950617281,14.548765432098756,0)" xlink:href="#ai"/><use transform="matrix(0.05617283950617281,0,0,0.05617283950617281,30.277160493827143,0)" xlink:href="#aj"/><use transform="matrix(0.05617283950617281,0,0,0.05617283950617281,44.8259259259259,0)" xlink:href="#ah"/><use transform="matrix(0.05617283950617281,0,0,0.05617283950617281,59.374691358024656,0)" xlink:href="#ak"/><use transform="matrix(0.05617283950617281,0,0,0.05617283950617281,72.85617283950613,0)" xlink:href="#X"/><use transform="matrix(0.05617283950617281,0,0,0.05617283950617281,86.33765432098761,0)" xlink:href="#al"/><use transform="matrix(0.05617283950617281,0,0,0.05617283950617281,98.63950617283946,0)" xlink:href="#am"/><use transform="matrix(0.05617283950617281,0,0,0.05617283950617281,109.87407407407402,0)" xlink:href="#an"/><use transform="matrix(0.05617283950617281,0,0,0.05617283950617281,126.66975308641968,0)" xlink:href="#ao"/><use transform="matrix(0.05617283950617281,0,0,0.05617283950617281,140.15123456790116,0)" xlink:href="#X"/><use transform="matrix(0.05617283950617281,0,0,0.05617283950617281,153.63271604938262,0)" xlink:href="#am"/><use transform="matrix(0.05617283950617281,0,0,0.05617283950617281,164.86728395061718,0)" xlink:href="#ap"/><use transform="matrix(0.05617283950617281,0,0,0.05617283950617281,179.41604938271593,0)" xlink:href="#aq"/><use transform="matrix(0.05617283950617281,0,0,0.05617283950617281,193.96481481481467,0)" xlink:href="#ac"/></g><path d="M185-189c-5-48-123-54-124 2 14 75 158 14 163 119 3 78-121 87-175 55-17-10-28-26-33-46l33-7c5 56 141 63 141-1 0-78-155-14-162-118-5-82 145-84 179-34 5 7 8 16 11 25" id="ar"/><path d="M59-47c-2 24 18 29 38 22v24C64 9 27 4 27-40v-127H5v-23h24l9-43h21v43h35v23H59v120" id="as"/><path d="M114-163C36-179 61-72 57 0H25l-1-190h30c1 12-1 29 2 39 6-27 23-49 58-41v29" id="at"/><path d="M24-231v-30h32v30H24zM24 0v-190h32V0H24" id="au"/><g id="f"><use transform="matrix(0.05617283950617281,0,0,0.05617283950617281,0,0)" xlink:href="#ab"/><use transform="matrix(0.05617283950617281,0,0,0.05617283950617281,6.684567901234564,0)" xlink:href="#ar"/><use transform="matrix(0.05617283950617281,0,0,0.05617283950617281,20.16604938271604,0)" xlink:href="#as"/><use transform="matrix(0.05617283950617281,0,0,0.05617283950617281,25.78333333333332,0)" xlink:href="#at"/><use transform="matrix(0.05617283950617281,0,0,0.05617283950617281,32.46790123456788,0)" xlink:href="#au"/><use transform="matrix(0.05617283950617281,0,0,0.05617283950617281,36.90555555555554,0)" xlink:href="#ae"/><use transform="matrix(0.05617283950617281,0,0,0.05617283950617281,48.1401234567901,0)" xlink:href="#af"/><use transform="matrix(0.05617283950617281,0,0,0.05617283950617281,59.374691358024656,0)" xlink:href="#ag"/></g><g id="g"><use transform="matrix(0.05617283950617281,0,0,0.05617283950617281,0,0)" xlink:href="#ar"/><use transform="matrix(0.05617283950617281,0,0,0.05617283950617281,13.481481481481474,0)" xlink:href="#ai"/><use transform="matrix(0.05617283950617281,0,0,0.05617283950617281,29.20987654320986,0)" xlink:href="#ap"/><use transform="matrix(0.05617283950617281,0,0,0.05617283950617281,43.75864197530861,0)" xlink:href="#aq"/><use transform="matrix(0.05617283950617281,0,0,0.05617283950617281,58.307407407407375,0)" xlink:href="#ah"/><use transform="matrix(0.05617283950617281,0,0,0.05617283950617281,72.85617283950613,0)" xlink:href="#ak"/><use transform="matrix(0.05617283950617281,0,0,0.05617283950617281,86.33765432098761,0)" xlink:href="#am"/><use transform="matrix(0.05617283950617281,0,0,0.05617283950617281,97.57222222222217,0)" xlink:href="#ap"/><use transform="matrix(0.05617283950617281,0,0,0.05617283950617281,112.12098765432093,0)" xlink:href="#aq"/><use transform="matrix(0.05617283950617281,0,0,0.05617283950617281,126.66975308641968,0)" xlink:href="#ac"/></g><path d="M137 0h-34L2-248h35l83 218 83-218h36" id="av"/><g id="h"><use transform="matrix(0.05617283950617281,0,0,0.05617283950617281,0,0)" xlink:href="#ar"/><use transform="matrix(0.05617283950617281,0,0,0.05617283950617281,13.481481481481474,0)" xlink:href="#ai"/><use transform="matrix(0.05617283950617281,0,0,0.05617283950617281,29.20987654320986,0)" xlink:href="#ap"/><use transform="matrix(0.05617283950617281,0,0,0.05617283950617281,43.75864197530861,0)" xlink:href="#aq"/><use transform="matrix(0.05617283950617281,0,0,0.05617283950617281,58.307407407407375,0)" xlink:href="#ah"/><use transform="matrix(0.05617283950617281,0,0,0.05617283950617281,72.85617283950613,0)" xlink:href="#ak"/><use transform="matrix(0.05617283950617281,0,0,0.05617283950617281,86.33765432098761,0)" xlink:href="#am"/><use transform="matrix(0.05617283950617281,0,0,0.05617283950617281,97.57222222222217,0)" xlink:href="#av"/><use transform="matrix(0.05617283950617281,0,0,0.05617283950617281,111.05370370370363,0)" xlink:href="#ar"/></g><g id="i"><use transform="matrix(0.056172839506172835,0,0,0.056172839506172835,0,0)" xlink:href="#ar"/><use transform="matrix(0.056172839506172835,0,0,0.056172839506172835,13.481481481481481,0)" xlink:href="#ai"/><use transform="matrix(0.056172839506172835,0,0,0.056172839506172835,29.209876543209873,0)" xlink:href="#ap"/><use transform="matrix(0.056172839506172835,0,0,0.056172839506172835,43.758641975308635,0)" xlink:href="#aq"/><use transform="matrix(0.056172839506172835,0,0,0.056172839506172835,58.30740740740739,0)" xlink:href="#ah"/><use transform="matrix(0.056172839506172835,0,0,0.056172839506172835,72.85617283950616,0)" xlink:href="#ak"/><use transform="matrix(0.056172839506172835,0,0,0.056172839506172835,86.33765432098764,0)" xlink:href="#am"/><use transform="matrix(0.056172839506172835,0,0,0.056172839506172835,97.57222222222221,0)" xlink:href="#av"/><use transform="matrix(0.056172839506172835,0,0,0.056172839506172835,111.05370370370369,0)" xlink:href="#ak"/><use transform="matrix(0.056172839506172835,0,0,0.056172839506172835,124.53518518518517,0)" xlink:href="#aq"/><use transform="matrix(0.056172839506172835,0,0,0.056172839506172835,139.08395061728393,0)" xlink:href="#ar"/><use transform="matrix(0.056172839506172835,0,0,0.056172839506172835,152.56543209876543,0)" xlink:href="#Z"/><use transform="matrix(0.056172839506172835,0,0,0.056172839506172835,158.18271604938272,0)" xlink:href="#ai"/><use transform="matrix(0.056172839506172835,0,0,0.056172839506172835,173.91111111111113,0)" xlink:href="#aj"/></g><g id="j"><use transform="matrix(0.056172839506172835,0,0,0.056172839506172835,0,0)" xlink:href="#ab"/><use transform="matrix(0.056172839506172835,0,0,0.056172839506172835,6.684567901234567,0)" xlink:href="#ar"/><use transform="matrix(0.056172839506172835,0,0,0.056172839506172835,20.166049382716047,0)" xlink:href="#as"/><use transform="matrix(0.056172839506172835,0,0,0.056172839506172835,25.78333333333333,0)" xlink:href="#at"/><use transform="matrix(0.056172839506172835,0,0,0.056172839506172835,32.4679012345679,0)" xlink:href="#au"/><use transform="matrix(0.056172839506172835,0,0,0.056172839506172835,36.90555555555555,0)" xlink:href="#ae"/><use transform="matrix(0.056172839506172835,0,0,0.056172839506172835,48.14012345679012,0)" xlink:href="#af"/><use transform="matrix(0.056172839506172835,0,0,0.056172839506172835,59.374691358024684,0)" xlink:href="#ag"/></g><path d="M143 4C61 4 22-44 18-125c-5-107 100-154 193-111 17 8 29 25 37 43l-32 9c-13-25-37-40-76-40-61 0-88 39-88 99 0 61 29 100 91 101 35 0 62-11 79-27v-45h-74v-28h105v86C228-13 192 4 143 4" id="aw"/><g id="k"><use transform="matrix(0.05617283950617281,0,0,0.05617283950617281,0,0)" xlink:href="#al"/><use transform="matrix(0.05617283950617281,0,0,0.05617283950617281,10.78518518518518,0)" xlink:href="#ao"/><use transform="matrix(0.05617283950617281,0,0,0.05617283950617281,24.26666666666665,0)" xlink:href="#aq"/><use transform="matrix(0.05617283950617281,0,0,0.05617283950617281,38.815432098765406,0)" xlink:href="#aw"/><use transform="matrix(0.05617283950617281,0,0,0.05617283950617281,54.54382716049379,0)" xlink:href="#ak"/><use transform="matrix(0.05617283950617281,0,0,0.05617283950617281,68.02530864197527,0)" xlink:href="#al"/><use transform="matrix(0.05617283950617281,0,0,0.05617283950617281,80.32716049382712,0)" xlink:href="#am"/><use transform="matrix(0.05617283950617281,0,0,0.05617283950617281,91.56172839506168,0)" xlink:href="#ap"/><use transform="matrix(0.05617283950617281,0,0,0.05617283950617281,106.11049382716044,0)" xlink:href="#aq"/><use transform="matrix(0.05617283950617281,0,0,0.05617283950617281,120.65925925925919,0)" xlink:href="#ac"/></g><g id="l"><use transform="matrix(0.056172839506172835,0,0,0.056172839506172835,0,0)" xlink:href="#al"/><use transform="matrix(0.056172839506172835,0,0,0.056172839506172835,10.785185185185185,0)" xlink:href="#ao"/><use transform="matrix(0.056172839506172835,0,0,0.056172839506172835,24.266666666666666,0)" xlink:href="#aq"/><use transform="matrix(0.056172839506172835,0,0,0.056172839506172835,38.81543209876543,0)" xlink:href="#aw"/><use transform="matrix(0.056172839506172835,0,0,0.056172839506172835,54.54382716049382,0)" xlink:href="#ak"/><use transform="matrix(0.056172839506172835,0,0,0.056172839506172835,68.0253086419753,0)" xlink:href="#al"/><use transform="matrix(0.056172839506172835,0,0,0.056172839506172835,80.32716049382715,0)" xlink:href="#am"/><use transform="matrix(0.056172839506172835,0,0,0.056172839506172835,91.56172839506172,0)" xlink:href="#av"/><use transform="matrix(0.056172839506172835,0,0,0.056172839506172835,105.0432098765432,0)" xlink:href="#ar"/></g><g id="m"><use transform="matrix(0.056172839506172835,0,0,0.056172839506172835,0,0)" xlink:href="#ab"/><use transform="matrix(0.056172839506172835,0,0,0.056172839506172835,6.684567901234567,0)" xlink:href="#ar"/><use transform="matrix(0.056172839506172835,0,0,0.056172839506172835,20.166049382716047,0)" xlink:href="#as"/><use transform="matrix(0.056172839506172835,0,0,0.056172839506172835,25.78333333333333,0)" xlink:href="#at"/><use transform="matrix(0.056172839506172835,0,0,0.056172839506172835,32.4679012345679,0)" xlink:href="#au"/><use transform="matrix(0.056172839506172835,0,0,0.056172839506172835,36.90555555555555,0)" xlink:href="#ae"/><use transform="matrix(0.056172839506172835,0,0,0.056172839506172835,48.14012345679012,0)" xlink:href="#af"/><use transform="matrix(0.056172839506172835,0,0,0.056172839506172835,59.374691358024684,0)" xlink:href="#ag"/></g><g id="n"><use transform="matrix(0.056172839506172835,0,0,0.056172839506172835,0,0)" xlink:href="#al"/><use transform="matrix(0.056172839506172835,0,0,0.056172839506172835,10.785185185185185,0)" xlink:href="#ao"/><use transform="matrix(0.056172839506172835,0,0,0.056172839506172835,24.266666666666666,0)" xlink:href="#aq"/><use transform="matrix(0.056172839506172835,0,0,0.056172839506172835,38.81543209876543,0)" xlink:href="#aw"/><use transform="matrix(0.056172839506172835,0,0,0.056172839506172835,54.54382716049382,0)" xlink:href="#ak"/><use transform="matrix(0.056172839506172835,0,0,0.056172839506172835,68.0253086419753,0)" xlink:href="#al"/><use transform="matrix(0.056172839506172835,0,0,0.056172839506172835,80.32716049382715,0)" xlink:href="#am"/><use transform="matrix(0.056172839506172835,0,0,0.056172839506172835,91.56172839506172,0)" xlink:href="#av"/><use transform="matrix(0.056172839506172835,0,0,0.056172839506172835,105.0432098765432,0)" xlink:href="#ak"/><use transform="matrix(0.056172839506172835,0,0,0.056172839506172835,118.52469135802468,0)" xlink:href="#aq"/><use transform="matrix(0.056172839506172835,0,0,0.056172839506172835,133.07345679012346,0)" xlink:href="#ar"/><use transform="matrix(0.056172839506172835,0,0,0.056172839506172835,146.55493827160495,0)" xlink:href="#Z"/><use transform="matrix(0.056172839506172835,0,0,0.056172839506172835,152.17222222222225,0)" xlink:href="#ai"/><use transform="matrix(0.056172839506172835,0,0,0.056172839506172835,167.90061728395065,0)" xlink:href="#aj"/></g><path d="M63-220v92h138v28H63V0H30v-248h175v28H63" id="ax"/><g id="o"><use transform="matrix(0.056172839506172835,0,0,0.056172839506172835,0,0)" xlink:href="#ax"/><use transform="matrix(0.056172839506172835,0,0,0.056172839506172835,12.30185185185185,0)" xlink:href="#Y"/></g><g id="p"><use transform="matrix(0.056172839506172835,0,0,0.056172839506172835,0,0)" xlink:href="#ah"/><use transform="matrix(0.056172839506172835,0,0,0.056172839506172835,14.548765432098763,0)" xlink:href="#ai"/><use transform="matrix(0.056172839506172835,0,0,0.056172839506172835,30.277160493827157,0)" xlink:href="#aj"/><use transform="matrix(0.056172839506172835,0,0,0.056172839506172835,44.82592592592592,0)" xlink:href="#ah"/><use transform="matrix(0.056172839506172835,0,0,0.056172839506172835,59.374691358024684,0)" xlink:href="#ak"/><use transform="matrix(0.056172839506172835,0,0,0.056172839506172835,72.85617283950617,0)" xlink:href="#X"/><use transform="matrix(0.056172839506172835,0,0,0.056172839506172835,86.33765432098765,0)" xlink:href="#al"/><use transform="matrix(0.056172839506172835,0,0,0.056172839506172835,98.6395061728395,0)" xlink:href="#am"/><use transform="matrix(0.056172839506172835,0,0,0.056172839506172835,109.87407407407407,0)" xlink:href="#an"/><use transform="matrix(0.056172839506172835,0,0,0.056172839506172835,126.66975308641975,0)" xlink:href="#ao"/><use transform="matrix(0.056172839506172835,0,0,0.056172839506172835,140.1512345679012,0)" xlink:href="#X"/><use transform="matrix(0.056172839506172835,0,0,0.056172839506172835,153.63271604938268,0)" xlink:href="#am"/><use transform="matrix(0.056172839506172835,0,0,0.056172839506172835,164.86728395061724,0)" xlink:href="#X"/><use transform="matrix(0.056172839506172835,0,0,0.056172839506172835,178.34876543209873,0)" xlink:href="#Z"/><use transform="matrix(0.056172839506172835,0,0,0.056172839506172835,183.96604938271602,0)" xlink:href="#aa"/></g><g id="q"><use transform="matrix(0.056172839506172835,0,0,0.056172839506172835,0,0)" xlink:href="#ab"/><use transform="matrix(0.056172839506172835,0,0,0.056172839506172835,6.684567901234567,0)" xlink:href="#ac"/><use transform="matrix(0.056172839506172835,0,0,0.056172839506172835,17.919135802469135,0)" xlink:href="#ad"/><use transform="matrix(0.056172839506172835,0,0,0.056172839506172835,29.1537037037037,0)" xlink:href="#ae"/><use transform="matrix(0.056172839506172835,0,0,0.056172839506172835,40.38827160493827,0)" xlink:href="#af"/><use transform="matrix(0.056172839506172835,0,0,0.056172839506172835,51.62283950617284,0)" xlink:href="#ag"/></g><g id="r"><use transform="matrix(0.06234567901234565,0,0,0.06234567901234565,0,0)" xlink:href="#L"/><use transform="matrix(0.06234567901234565,0,0,0.06234567901234565,13.653703703703698,0)" xlink:href="#M"/><use transform="matrix(0.06234567901234565,0,0,0.06234567901234565,29.801234567901222,0)" xlink:href="#N"/><use transform="matrix(0.06234567901234565,0,0,0.06234567901234565,48.442592592592575,0)" xlink:href="#O"/><use transform="matrix(0.06234567901234565,0,0,0.06234567901234565,60.91172839506171,0)" xlink:href="#P"/><use transform="matrix(0.06234567901234565,0,0,0.06234567901234565,77.05925925925924,0)" xlink:href="#Q"/><use transform="matrix(0.06234567901234565,0,0,0.06234567901234565,94.51604938271602,0)" xlink:href="#R"/><use transform="matrix(0.06234567901234565,0,0,0.06234567901234565,110.66358024691354,0)" xlink:href="#P"/><use transform="matrix(0.06234567901234565,0,0,0.06234567901234565,126.81111111111106,0)" xlink:href="#S"/><use transform="matrix(0.06234567901234565,0,0,0.06234567901234565,141.774074074074,0)" xlink:href="#T"/><use transform="matrix(0.06234567901234565,0,0,0.06234567901234565,156.73703703703697,0)" xlink:href="#L"/><use transform="matrix(0.06234567901234565,0,0,0.06234567901234565,170.39074074074068,0)" xlink:href="#O"/><use transform="matrix(0.06234567901234565,0,0,0.06234567901234565,182.85987654320982,0)" xlink:href="#N"/><use transform="matrix(0.06234567901234565,0,0,0.06234567901234565,201.50123456790118,0)" xlink:href="#U"/><use transform="matrix(0.06234567901234565,0,0,0.06234567901234565,217.6487654320987,0)" xlink:href="#T"/></g><g id="s"><use transform="matrix(0.05617283950617281,0,0,0.05617283950617281,0,0)" xlink:href="#ax"/><use transform="matrix(0.05617283950617281,0,0,0.05617283950617281,12.301851851851845,0)" xlink:href="#Y"/></g><g id="t"><use transform="matrix(0.05617283950617281,0,0,0.05617283950617281,0,0)" xlink:href="#aq"/><use transform="matrix(0.05617283950617281,0,0,0.05617283950617281,14.548765432098756,0)" xlink:href="#ak"/><use transform="matrix(0.05617283950617281,0,0,0.05617283950617281,28.03024691358023,0)" xlink:href="#ar"/><use transform="matrix(0.05617283950617281,0,0,0.05617283950617281,41.5117283950617,0)" xlink:href="#am"/><use transform="matrix(0.05617283950617281,0,0,0.05617283950617281,52.746296296296265,0)" xlink:href="#Z"/><use transform="matrix(0.05617283950617281,0,0,0.05617283950617281,58.36358024691355,0)" xlink:href="#aa"/></g><g id="u"><use transform="matrix(0.05617283950617281,0,0,0.05617283950617281,0,0)" xlink:href="#ap"/><use transform="matrix(0.05617283950617281,0,0,0.05617283950617281,14.548765432098756,0)" xlink:href="#aq"/><use transform="matrix(0.05617283950617281,0,0,0.05617283950617281,29.097530864197513,0)" xlink:href="#ac"/></g><g id="v"><use transform="matrix(0.056172839506172835,0,0,0.056172839506172835,0,0)" xlink:href="#av"/><use transform="matrix(0.056172839506172835,0,0,0.056172839506172835,13.481481481481481,0)" xlink:href="#ak"/><use transform="matrix(0.056172839506172835,0,0,0.056172839506172835,26.962962962962962,0)" xlink:href="#aq"/></g><g id="w"><use transform="matrix(0.056172839506172835,0,0,0.056172839506172835,0,0)" xlink:href="#ab"/><use transform="matrix(0.056172839506172835,0,0,0.056172839506172835,6.684567901234567,0)" xlink:href="#ar"/><use transform="matrix(0.056172839506172835,0,0,0.056172839506172835,20.166049382716047,0)" xlink:href="#as"/><use transform="matrix(0.056172839506172835,0,0,0.056172839506172835,25.78333333333333,0)" xlink:href="#at"/><use transform="matrix(0.056172839506172835,0,0,0.056172839506172835,32.4679012345679,0)" xlink:href="#au"/><use transform="matrix(0.056172839506172835,0,0,0.056172839506172835,36.90555555555555,0)" xlink:href="#ae"/><use transform="matrix(0.056172839506172835,0,0,0.056172839506172835,48.14012345679012,0)" xlink:href="#af"/><use transform="matrix(0.056172839506172835,0,0,0.056172839506172835,59.374691358024684,0)" xlink:href="#ag"/></g><path fill="#333" d="M186 0v-106H76V0H24v-248h52v99h110v-99h50V0h-50" id="ay"/><path fill="#333" d="M76-208v77h127v40H76V0H24v-248h183v40H76" id="az"/><path fill="#333" d="M176-78C186 10 51 31 16-35c-5-9-9-19-11-32l52-8c4 21 12 37 35 38 23 0 32-16 32-40v-130H75v-41h101v170" id="aA"/><path fill="#333" d="M169-182c-1-43-94-46-97-3 18 66 151 10 154 114 3 95-165 93-204 36-6-8-10-19-12-30l50-8c3 46 112 56 116 5-17-69-150-10-154-114-4-87 153-88 188-35 5 8 8 18 10 28" id="aB"/><g id="x"><use transform="matrix(0.06234567901234565,0,0,0.06234567901234565,0,0)" xlink:href="#ay"/><use transform="matrix(0.06234567901234565,0,0,0.06234567901234565,16.147530864197524,0)" xlink:href="#az"/><use transform="matrix(0.06234567901234565,0,0,0.06234567901234565,29.801234567901222,0)" xlink:href="#aA"/><use transform="matrix(0.06234567901234565,0,0,0.06234567901234565,42.27037037037035,0)" xlink:href="#O"/><use transform="matrix(0.06234567901234565,0,0,0.06234567901234565,54.739506172839484,0)" xlink:href="#M"/><use transform="matrix(0.06234567901234565,0,0,0.06234567901234565,70.887037037037,0)" xlink:href="#S"/><use transform="matrix(0.06234567901234565,0,0,0.06234567901234565,85.84999999999997,0)" xlink:href="#aB"/><use transform="matrix(0.06234567901234565,0,0,0.06234567901234565,100.81296296296293,0)" xlink:href="#Q"/><use transform="matrix(0.06234567901234565,0,0,0.06234567901234565,118.26975308641971,0)" xlink:href="#W"/><use transform="matrix(0.06234567901234565,0,0,0.06234567901234565,134.41728395061725,0)" xlink:href="#M"/><use transform="matrix(0.06234567901234565,0,0,0.06234567901234565,150.56481481481478,0)" xlink:href="#P"/><use transform="matrix(0.06234567901234565,0,0,0.06234567901234565,166.71234567901232,0)" xlink:href="#S"/></g><path fill="#333" d="M24 0v-248h52v208h133V0H24" id="aC"/><g id="y"><use transform="matrix(0.06234567901234565,0,0,0.06234567901234565,0,0)" xlink:href="#L"/><use transform="matrix(0.06234567901234565,0,0,0.06234567901234565,13.653703703703698,0)" xlink:href="#M"/><use transform="matrix(0.06234567901234565,0,0,0.06234567901234565,29.801234567901222,0)" xlink:href="#N"/><use transform="matrix(0.06234567901234565,0,0,0.06234567901234565,48.442592592592575,0)" xlink:href="#O"/><use transform="matrix(0.06234567901234565,0,0,0.06234567901234565,60.91172839506171,0)" xlink:href="#P"/><use transform="matrix(0.06234567901234565,0,0,0.06234567901234565,77.05925925925924,0)" xlink:href="#Q"/><use transform="matrix(0.06234567901234565,0,0,0.06234567901234565,94.51604938271602,0)" xlink:href="#R"/><use transform="matrix(0.06234567901234565,0,0,0.06234567901234565,110.66358024691354,0)" xlink:href="#P"/><use transform="matrix(0.06234567901234565,0,0,0.06234567901234565,126.81111111111106,0)" xlink:href="#S"/><use transform="matrix(0.06234567901234565,0,0,0.06234567901234565,141.774074074074,0)" xlink:href="#T"/><use transform="matrix(0.06234567901234565,0,0,0.06234567901234565,156.73703703703697,0)" xlink:href="#L"/><use transform="matrix(0.06234567901234565,0,0,0.06234567901234565,170.39074074074068,0)" xlink:href="#O"/><use transform="matrix(0.06234567901234565,0,0,0.06234567901234565,182.85987654320982,0)" xlink:href="#N"/><use transform="matrix(0.06234567901234565,0,0,0.06234567901234565,201.50123456790118,0)" xlink:href="#U"/><use transform="matrix(0.06234567901234565,0,0,0.06234567901234565,217.6487654320987,0)" xlink:href="#T"/><use transform="matrix(0.06234567901234565,0,0,0.06234567901234565,232.61172839506168,0)" xlink:href="#O"/><use transform="matrix(0.06234567901234565,0,0,0.06234567901234565,245.08086419753081,0)" xlink:href="#V"/><use transform="matrix(0.06234567901234565,0,0,0.06234567901234565,262.5376543209876,0)" xlink:href="#M"/><use transform="matrix(0.06234567901234565,0,0,0.06234567901234565,278.6851851851851,0)" xlink:href="#T"/><use transform="matrix(0.06234567901234565,0,0,0.06234567901234565,293.64814814814804,0)" xlink:href="#O"/><use transform="matrix(0.06234567901234565,0,0,0.06234567901234565,306.11728395061715,0)" xlink:href="#S"/><use transform="matrix(0.06234567901234565,0,0,0.06234567901234565,321.0802469135801,0)" xlink:href="#aC"/><use transform="matrix(0.06234567901234565,0,0,0.06234567901234565,334.73395061728377,0)" xlink:href="#S"/><use transform="matrix(0.06234567901234565,0,0,0.06234567901234565,349.6969135802467,0)" xlink:href="#N"/><use transform="matrix(0.06234567901234565,0,0,0.06234567901234565,368.33827160493803,0)" xlink:href="#S"/><use transform="matrix(0.06234567901234565,0,0,0.06234567901234565,383.30123456790096,0)" xlink:href="#R"/><use transform="matrix(0.06234567901234565,0,0,0.06234567901234565,399.44876543209847,0)" xlink:href="#L"/></g><g id="z"><use transform="matrix(0.05617283950617281,0,0,0.05617283950617281,0,0)" xlink:href="#ar"/><use transform="matrix(0.05617283950617281,0,0,0.05617283950617281,13.481481481481474,0)" xlink:href="#ai"/><use transform="matrix(0.05617283950617281,0,0,0.05617283950617281,29.20987654320986,0)" xlink:href="#ap"/><use transform="matrix(0.05617283950617281,0,0,0.05617283950617281,43.75864197530861,0)" xlink:href="#aq"/><use transform="matrix(0.05617283950617281,0,0,0.05617283950617281,58.307407407407375,0)" xlink:href="#ah"/><use transform="matrix(0.05617283950617281,0,0,0.05617283950617281,72.85617283950613,0)" xlink:href="#ak"/><use transform="matrix(0.05617283950617281,0,0,0.05617283950617281,86.33765432098761,0)" xlink:href="#am"/><use transform="matrix(0.05617283950617281,0,0,0.05617283950617281,97.57222222222217,0)" xlink:href="#ah"/><use transform="matrix(0.05617283950617281,0,0,0.05617283950617281,112.12098765432093,0)" xlink:href="#ai"/><use transform="matrix(0.05617283950617281,0,0,0.05617283950617281,127.8493827160493,0)" xlink:href="#aa"/><use transform="matrix(0.05617283950617281,0,0,0.05617283950617281,142.39814814814807,0)" xlink:href="#ak"/></g><path d="M137-103V0h-34v-103L8-248h37l75 118 75-118h37" id="aD"/><g id="A"><use transform="matrix(0.05617283950617281,0,0,0.05617283950617281,0,0)" xlink:href="#ar"/><use transform="matrix(0.05617283950617281,0,0,0.05617283950617281,13.481481481481474,0)" xlink:href="#ai"/><use transform="matrix(0.05617283950617281,0,0,0.05617283950617281,29.20987654320986,0)" xlink:href="#ap"/><use transform="matrix(0.05617283950617281,0,0,0.05617283950617281,43.75864197530861,0)" xlink:href="#aq"/><use transform="matrix(0.05617283950617281,0,0,0.05617283950617281,58.307407407407375,0)" xlink:href="#ah"/><use transform="matrix(0.05617283950617281,0,0,0.05617283950617281,72.85617283950613,0)" xlink:href="#ak"/><use transform="matrix(0.05617283950617281,0,0,0.05617283950617281,86.33765432098761,0)" xlink:href="#am"/><use transform="matrix(0.05617283950617281,0,0,0.05617283950617281,97.57222222222217,0)" xlink:href="#aa"/><use transform="matrix(0.05617283950617281,0,0,0.05617283950617281,112.12098765432093,0)" xlink:href="#Z"/><use transform="matrix(0.05617283950617281,0,0,0.05617283950617281,117.7382716049382,0)" xlink:href="#ar"/><use transform="matrix(0.05617283950617281,0,0,0.05617283950617281,131.21975308641967,0)" xlink:href="#X"/><use transform="matrix(0.05617283950617281,0,0,0.05617283950617281,144.70123456790114,0)" xlink:href="#ac"/><use transform="matrix(0.05617283950617281,0,0,0.05617283950617281,155.9358024691357,0)" xlink:href="#ao"/><use transform="matrix(0.05617283950617281,0,0,0.05617283950617281,167.9006172839505,0)" xlink:href="#aD"/></g><g id="B"><use transform="matrix(0.056172839506172835,0,0,0.056172839506172835,0,0)" xlink:href="#ar"/><use transform="matrix(0.056172839506172835,0,0,0.056172839506172835,13.481481481481481,0)" xlink:href="#aD"/><use transform="matrix(0.056172839506172835,0,0,0.056172839506172835,26.962962962962962,0)" xlink:href="#ar"/><use transform="matrix(0.056172839506172835,0,0,0.056172839506172835,40.44444444444444,0)" xlink:href="#al"/><use transform="matrix(0.056172839506172835,0,0,0.056172839506172835,52.74629629629629,0)" xlink:href="#ak"/><use transform="matrix(0.056172839506172835,0,0,0.056172839506172835,66.22777777777777,0)" xlink:href="#an"/><use transform="matrix(0.056172839506172835,0,0,0.056172839506172835,83.02345679012345,0)" xlink:href="#am"/><use transform="matrix(0.056172839506172835,0,0,0.056172839506172835,94.25802469135802,0)" xlink:href="#ap"/><use transform="matrix(0.056172839506172835,0,0,0.056172839506172835,108.80679012345678,0)" xlink:href="#aq"/><use transform="matrix(0.056172839506172835,0,0,0.056172839506172835,123.35555555555554,0)" xlink:href="#ac"/></g><g id="C"><use transform="matrix(0.05617283950617281,0,0,0.05617283950617281,0,0)" xlink:href="#ar"/><use transform="matrix(0.05617283950617281,0,0,0.05617283950617281,13.481481481481474,0)" xlink:href="#aD"/><use transform="matrix(0.05617283950617281,0,0,0.05617283950617281,26.962962962962948,0)" xlink:href="#ar"/><use transform="matrix(0.05617283950617281,0,0,0.05617283950617281,40.44444444444442,0)" xlink:href="#al"/><use transform="matrix(0.05617283950617281,0,0,0.05617283950617281,52.746296296296265,0)" xlink:href="#ak"/><use transform="matrix(0.05617283950617281,0,0,0.05617283950617281,66.22777777777773,0)" xlink:href="#an"/><use transform="matrix(0.05617283950617281,0,0,0.05617283950617281,83.0234567901234,0)" xlink:href="#am"/><use transform="matrix(0.05617283950617281,0,0,0.05617283950617281,94.25802469135796,0)" xlink:href="#av"/><use transform="matrix(0.05617283950617281,0,0,0.05617283950617281,107.73950617283944,0)" xlink:href="#ak"/><use transform="matrix(0.05617283950617281,0,0,0.05617283950617281,121.22098765432092,0)" xlink:href="#aq"/><use transform="matrix(0.05617283950617281,0,0,0.05617283950617281,135.76975308641966,0)" xlink:href="#ar"/><use transform="matrix(0.05617283950617281,0,0,0.05617283950617281,149.25123456790112,0)" xlink:href="#Z"/><use transform="matrix(0.05617283950617281,0,0,0.05617283950617281,154.8685185185184,0)" xlink:href="#ai"/><use transform="matrix(0.05617283950617281,0,0,0.05617283950617281,170.5969135802468,0)" xlink:href="#aj"/></g><g id="D"><use transform="matrix(0.056172839506172835,0,0,0.056172839506172835,0,0)" xlink:href="#av"/><use transform="matrix(0.056172839506172835,0,0,0.056172839506172835,11.964814814814815,0)" xlink:href="#ao"/><use transform="matrix(0.056172839506172835,0,0,0.056172839506172835,25.446296296296296,0)" xlink:href="#ac"/><use transform="matrix(0.056172839506172835,0,0,0.056172839506172835,36.680864197530866,0)" xlink:href="#ap"/><use transform="matrix(0.056172839506172835,0,0,0.056172839506172835,51.22962962962963,0)" xlink:href="#ak"/><use transform="matrix(0.056172839506172835,0,0,0.056172839506172835,64.71111111111111,0)" xlink:href="#ar"/><use transform="matrix(0.056172839506172835,0,0,0.056172839506172835,78.19259259259259,0)" xlink:href="#ak"/><use transform="matrix(0.056172839506172835,0,0,0.056172839506172835,91.67407407407407,0)" xlink:href="#al"/><use transform="matrix(0.056172839506172835,0,0,0.056172839506172835,103.97592592592592,0)" xlink:href="#am"/><use transform="matrix(0.056172839506172835,0,0,0.056172839506172835,115.21049382716049,0)" xlink:href="#ap"/><use transform="matrix(0.056172839506172835,0,0,0.056172839506172835,129.75925925925927,0)" xlink:href="#aq"/><use transform="matrix(0.056172839506172835,0,0,0.056172839506172835,144.30802469135804,0)" xlink:href="#ac"/></g><g id="E"><use transform="matrix(0.056172839506172835,0,0,0.056172839506172835,0,0)" xlink:href="#ah"/><use transform="matrix(0.056172839506172835,0,0,0.056172839506172835,14.548765432098763,0)" xlink:href="#ai"/><use transform="matrix(0.056172839506172835,0,0,0.056172839506172835,30.277160493827157,0)" xlink:href="#aj"/><use transform="matrix(0.056172839506172835,0,0,0.056172839506172835,44.82592592592592,0)" xlink:href="#ah"/><use transform="matrix(0.056172839506172835,0,0,0.056172839506172835,59.374691358024684,0)" xlink:href="#ak"/><use transform="matrix(0.056172839506172835,0,0,0.056172839506172835,72.85617283950617,0)" xlink:href="#X"/><use transform="matrix(0.056172839506172835,0,0,0.056172839506172835,86.33765432098765,0)" xlink:href="#al"/><use transform="matrix(0.056172839506172835,0,0,0.056172839506172835,98.6395061728395,0)" xlink:href="#am"/><use transform="matrix(0.056172839506172835,0,0,0.056172839506172835,109.87407407407407,0)" xlink:href="#an"/><use transform="matrix(0.056172839506172835,0,0,0.056172839506172835,126.66975308641975,0)" xlink:href="#ao"/><use transform="matrix(0.056172839506172835,0,0,0.056172839506172835,140.1512345679012,0)" xlink:href="#X"/><use transform="matrix(0.056172839506172835,0,0,0.056172839506172835,153.63271604938268,0)" xlink:href="#am"/><use transform="matrix(0.056172839506172835,0,0,0.056172839506172835,164.86728395061724,0)" xlink:href="#aw"/><use transform="matrix(0.056172839506172835,0,0,0.056172839506172835,180.59567901234564,0)" xlink:href="#aq"/><use transform="matrix(0.056172839506172835,0,0,0.056172839506172835,195.14444444444442,0)" xlink:href="#ai"/><use transform="matrix(0.056172839506172835,0,0,0.056172839506172835,210.87283950617282,0)" xlink:href="#ap"/><use transform="matrix(0.056172839506172835,0,0,0.056172839506172835,225.4216049382716,0)" xlink:href="#X"/><use transform="matrix(0.056172839506172835,0,0,0.056172839506172835,238.90308641975312,0)" xlink:href="#am"/><use transform="matrix(0.056172839506172835,0,0,0.056172839506172835,250.13765432098762,0)" xlink:href="#X"/><use transform="matrix(0.056172839506172835,0,0,0.056172839506172835,263.61913580246915,0)" xlink:href="#Z"/><use transform="matrix(0.056172839506172835,0,0,0.056172839506172835,269.2364197530864,0)" xlink:href="#aa"/></g><g id="F"><use transform="matrix(0.06234567901234565,0,0,0.06234567901234565,0,0)" xlink:href="#L"/><use transform="matrix(0.06234567901234565,0,0,0.06234567901234565,13.653703703703698,0)" xlink:href="#M"/><use transform="matrix(0.06234567901234565,0,0,0.06234567901234565,29.801234567901222,0)" xlink:href="#N"/><use transform="matrix(0.06234567901234565,0,0,0.06234567901234565,48.442592592592575,0)" xlink:href="#O"/><use transform="matrix(0.06234567901234565,0,0,0.06234567901234565,60.91172839506171,0)" xlink:href="#P"/><use transform="matrix(0.06234567901234565,0,0,0.06234567901234565,77.05925925925924,0)" xlink:href="#Q"/><use transform="matrix(0.06234567901234565,0,0,0.06234567901234565,94.51604938271602,0)" xlink:href="#R"/><use transform="matrix(0.06234567901234565,0,0,0.06234567901234565,110.66358024691354,0)" xlink:href="#P"/><use transform="matrix(0.06234567901234565,0,0,0.06234567901234565,126.81111111111106,0)" xlink:href="#S"/><use transform="matrix(0.06234567901234565,0,0,0.06234567901234565,141.774074074074,0)" xlink:href="#T"/><use transform="matrix(0.06234567901234565,0,0,0.06234567901234565,156.73703703703697,0)" xlink:href="#L"/><use transform="matrix(0.06234567901234565,0,0,0.06234567901234565,170.39074074074068,0)" xlink:href="#O"/><use transform="matrix(0.06234567901234565,0,0,0.06234567901234565,182.85987654320982,0)" xlink:href="#N"/><use transform="matrix(0.06234567901234565,0,0,0.06234567901234565,201.50123456790118,0)" xlink:href="#U"/><use transform="matrix(0.06234567901234565,0,0,0.06234567901234565,217.6487654320987,0)" xlink:href="#T"/><use transform="matrix(0.06234567901234565,0,0,0.06234567901234565,232.61172839506168,0)" xlink:href="#O"/><use transform="matrix(0.06234567901234565,0,0,0.06234567901234565,245.08086419753081,0)" xlink:href="#V"/><use transform="matrix(0.06234567901234565,0,0,0.06234567901234565,262.5376543209876,0)" xlink:href="#M"/><use transform="matrix(0.06234567901234565,0,0,0.06234567901234565,278.6851851851851,0)" xlink:href="#T"/><use transform="matrix(0.06234567901234565,0,0,0.06234567901234565,293.64814814814804,0)" xlink:href="#O"/><use transform="matrix(0.06234567901234565,0,0,0.06234567901234565,306.11728395061715,0)" xlink:href="#S"/><use transform="matrix(0.06234567901234565,0,0,0.06234567901234565,321.0802469135801,0)" xlink:href="#aC"/><use transform="matrix(0.06234567901234565,0,0,0.06234567901234565,334.73395061728377,0)" xlink:href="#N"/><use transform="matrix(0.06234567901234565,0,0,0.06234567901234565,353.3753086419751,0)" xlink:href="#O"/><use transform="matrix(0.06234567901234565,0,0,0.06234567901234565,365.8444444444442,0)" xlink:href="#L"/><use transform="matrix(0.06234567901234565,0,0,0.06234567901234565,379.4981481481479,0)" xlink:href="#V"/><use transform="matrix(0.06234567901234565,0,0,0.06234567901234565,396.95493827160465,0)" xlink:href="#L"/></g><g id="G"><use transform="matrix(0.05617283950617281,0,0,0.05617283950617281,0,0)" xlink:href="#al"/><use transform="matrix(0.05617283950617281,0,0,0.05617283950617281,10.78518518518518,0)" xlink:href="#ao"/><use transform="matrix(0.05617283950617281,0,0,0.05617283950617281,24.26666666666665,0)" xlink:href="#aq"/><use transform="matrix(0.05617283950617281,0,0,0.05617283950617281,38.815432098765406,0)" xlink:href="#aw"/><use transform="matrix(0.05617283950617281,0,0,0.05617283950617281,54.54382716049379,0)" xlink:href="#ak"/><use transform="matrix(0.05617283950617281,0,0,0.05617283950617281,68.02530864197527,0)" xlink:href="#al"/><use transform="matrix(0.05617283950617281,0,0,0.05617283950617281,80.32716049382712,0)" xlink:href="#am"/><use transform="matrix(0.05617283950617281,0,0,0.05617283950617281,91.56172839506168,0)" xlink:href="#ah"/><use transform="matrix(0.05617283950617281,0,0,0.05617283950617281,106.11049382716044,0)" xlink:href="#ai"/><use transform="matrix(0.05617283950617281,0,0,0.05617283950617281,121.83888888888885,0)" xlink:href="#aa"/><use transform="matrix(0.05617283950617281,0,0,0.05617283950617281,136.3876543209876,0)" xlink:href="#ak"/></g><g id="H"><use transform="matrix(0.05617283950617281,0,0,0.05617283950617281,0,0)" xlink:href="#al"/><use transform="matrix(0.05617283950617281,0,0,0.05617283950617281,10.78518518518518,0)" xlink:href="#ao"/><use transform="matrix(0.05617283950617281,0,0,0.05617283950617281,24.26666666666665,0)" xlink:href="#aq"/><use transform="matrix(0.05617283950617281,0,0,0.05617283950617281,38.815432098765406,0)" xlink:href="#aw"/><use transform="matrix(0.05617283950617281,0,0,0.05617283950617281,54.54382716049379,0)" xlink:href="#ak"/><use transform="matrix(0.05617283950617281,0,0,0.05617283950617281,68.02530864197527,0)" xlink:href="#al"/><use transform="matrix(0.05617283950617281,0,0,0.05617283950617281,80.32716049382712,0)" xlink:href="#am"/><use transform="matrix(0.05617283950617281,0,0,0.05617283950617281,91.56172839506168,0)" xlink:href="#aa"/><use transform="matrix(0.05617283950617281,0,0,0.05617283950617281,106.11049382716044,0)" xlink:href="#Z"/><use transform="matrix(0.05617283950617281,0,0,0.05617283950617281,111.72777777777772,0)" xlink:href="#ar"/><use transform="matrix(0.05617283950617281,0,0,0.05617283950617281,125.20925925925918,0)" xlink:href="#X"/><use transform="matrix(0.05617283950617281,0,0,0.05617283950617281,138.69074074074067,0)" xlink:href="#ac"/><use transform="matrix(0.05617283950617281,0,0,0.05617283950617281,149.92530864197522,0)" xlink:href="#ao"/><use transform="matrix(0.05617283950617281,0,0,0.05617283950617281,161.89012345679004,0)" xlink:href="#aD"/></g><path d="M140-251c81 0 123 46 123 126C263-53 228-8 163 1c7 30 30 48 69 40v23c-55 16-95-15-103-61C56-3 17-48 17-125c0-80 42-126 123-126zm0 227c63 0 89-41 89-101s-29-99-89-99c-61 0-89 39-89 99S79-25 140-24" id="aE"/><g id="I"><use transform="matrix(0.056172839506172835,0,0,0.056172839506172835,0,0)" xlink:href="#al"/><use transform="matrix(0.056172839506172835,0,0,0.056172839506172835,10.785185185185185,0)" xlink:href="#ao"/><use transform="matrix(0.056172839506172835,0,0,0.056172839506172835,24.266666666666666,0)" xlink:href="#aq"/><use transform="matrix(0.056172839506172835,0,0,0.056172839506172835,38.81543209876543,0)" xlink:href="#aw"/><use transform="matrix(0.056172839506172835,0,0,0.056172839506172835,54.54382716049382,0)" xlink:href="#ak"/><use transform="matrix(0.056172839506172835,0,0,0.056172839506172835,68.0253086419753,0)" xlink:href="#al"/><use transform="matrix(0.056172839506172835,0,0,0.056172839506172835,80.32716049382715,0)" xlink:href="#am"/><use transform="matrix(0.056172839506172835,0,0,0.056172839506172835,91.56172839506172,0)" xlink:href="#ak"/><use transform="matrix(0.056172839506172835,0,0,0.056172839506172835,105.0432098765432,0)" xlink:href="#aE"/><use transform="matrix(0.056172839506172835,0,0,0.056172839506172835,120.7716049382716,0)" xlink:href="#ap"/><use transform="matrix(0.056172839506172835,0,0,0.056172839506172835,135.32037037037037,0)" xlink:href="#Z"/><use transform="matrix(0.056172839506172835,0,0,0.056172839506172835,140.93765432098766,0)" xlink:href="#av"/><use transform="matrix(0.056172839506172835,0,0,0.056172839506172835,152.90246913580245,0)" xlink:href="#ao"/><use transform="matrix(0.056172839506172835,0,0,0.056172839506172835,166.38395061728392,0)" xlink:href="#ac"/><use transform="matrix(0.056172839506172835,0,0,0.056172839506172835,177.61851851851847,0)" xlink:href="#ak"/><use transform="matrix(0.056172839506172835,0,0,0.056172839506172835,191.09999999999997,0)" xlink:href="#aj"/><use transform="matrix(0.056172839506172835,0,0,0.056172839506172835,205.64876543209874,0)" xlink:href="#ah"/><use transform="matrix(0.056172839506172835,0,0,0.056172839506172835,220.19753086419752,0)" xlink:href="#ak"/></g><g id="J"><use transform="matrix(0.05617283950617281,0,0,0.05617283950617281,0,0)" xlink:href="#ar"/><use transform="matrix(0.05617283950617281,0,0,0.05617283950617281,13.481481481481474,0)" xlink:href="#aD"/><use transform="matrix(0.05617283950617281,0,0,0.05617283950617281,26.962962962962948,0)" xlink:href="#ar"/><use transform="matrix(0.05617283950617281,0,0,0.05617283950617281,40.44444444444442,0)" xlink:href="#al"/><use transform="matrix(0.05617283950617281,0,0,0.05617283950617281,52.746296296296265,0)" xlink:href="#ak"/><use transform="matrix(0.05617283950617281,0,0,0.05617283950617281,66.22777777777773,0)" xlink:href="#an"/><use transform="matrix(0.05617283950617281,0,0,0.05617283950617281,83.0234567901234,0)" xlink:href="#am"/><use transform="matrix(0.05617283950617281,0,0,0.05617283950617281,94.25802469135796,0)" xlink:href="#ap"/><use transform="matrix(0.05617283950617281,0,0,0.05617283950617281,108.80679012345672,0)" xlink:href="#aq"/><use transform="matrix(0.05617283950617281,0,0,0.05617283950617281,123.35555555555548,0)" xlink:href="#ac"/></g><g id="K"><use transform="matrix(0.056172839506172835,0,0,0.056172839506172835,0,0)" xlink:href="#ar"/><use transform="matrix(0.056172839506172835,0,0,0.056172839506172835,13.481481481481481,0)" xlink:href="#aD"/><use transform="matrix(0.056172839506172835,0,0,0.056172839506172835,26.962962962962962,0)" xlink:href="#ar"/><use transform="matrix(0.056172839506172835,0,0,0.056172839506172835,40.44444444444444,0)" xlink:href="#al"/><use transform="matrix(0.056172839506172835,0,0,0.056172839506172835,52.74629629629629,0)" xlink:href="#ak"/><use transform="matrix(0.056172839506172835,0,0,0.056172839506172835,66.22777777777777,0)" xlink:href="#an"/><use transform="matrix(0.056172839506172835,0,0,0.056172839506172835,83.02345679012345,0)" xlink:href="#am"/><use transform="matrix(0.056172839506172835,0,0,0.056172839506172835,94.25802469135802,0)" xlink:href="#av"/><use transform="matrix(0.056172839506172835,0,0,0.056172839506172835,107.7395061728395,0)" xlink:href="#ak"/><use transform="matrix(0.056172839506172835,0,0,0.056172839506172835,121.22098765432098,0)" xlink:href="#aq"/><use transform="matrix(0.056172839506172835,0,0,0.056172839506172835,135.76975308641974,0)" xlink:href="#ar"/><use transform="matrix(0.056172839506172835,0,0,0.056172839506172835,149.25123456790124,0)" xlink:href="#Z"/><use transform="matrix(0.056172839506172835,0,0,0.056172839506172835,154.86851851851853,0)" xlink:href="#ai"/><use transform="matrix(0.056172839506172835,0,0,0.056172839506172835,170.59691358024693,0)" xlink:href="#aj"/></g></defs></g></svg>